# 3ds Max Wavefront OBJ Exporter v0.99 - (c)2007 guruware
# File Created: 26.12.2025 00:00:15

mtllib JailProp_TrashCan01.mtl

#
# object JailProp_TrashCan01
#

v  0.2181 -0.3408 -0.0000
v  0.2015 -0.3408 -0.0835
v  0.2030 -0.3283 -0.0841
v  0.2198 -0.3283 -0.0000
v  0.1542 -0.3408 -0.1542
v  0.1554 -0.3283 -0.1554
v  0.0835 -0.3408 -0.2015
v  0.0841 -0.3283 -0.2030
v  -0.0000 -0.3408 -0.2181
v  -0.0000 -0.3283 -0.2198
v  -0.0835 -0.3408 -0.2015
v  -0.0841 -0.3283 -0.2030
v  -0.1542 -0.3408 -0.1542
v  -0.1554 -0.3283 -0.1554
v  -0.2015 -0.3408 -0.0835
v  -0.2030 -0.3283 -0.0841
v  -0.2181 -0.3408 -0.0000
v  -0.2198 -0.3283 -0.0000
v  -0.2015 -0.3408 0.0835
v  -0.2030 -0.3283 0.0841
v  -0.1542 -0.3408 0.1542
v  -0.1554 -0.3283 0.1554
v  -0.0835 -0.3408 0.2015
v  -0.0841 -0.3283 0.2030
v  0.0000 -0.3408 0.2181
v  0.0000 -0.3283 0.2198
v  0.0835 -0.3408 0.2015
v  0.0841 -0.3283 0.2030
v  0.1542 -0.3408 0.1542
v  0.1554 -0.3283 0.1554
v  0.2015 -0.3408 0.0835
v  0.2030 -0.3283 0.0841
v  0.1871 -0.3568 -0.0775
v  0.2025 -0.3568 -0.0000
v  0.0000 -0.3568 -0.0000
v  0.1432 -0.3568 -0.1432
v  0.0775 -0.3568 -0.1871
v  -0.0000 -0.3568 -0.2025
v  -0.0775 -0.3568 -0.1871
v  -0.1432 -0.3568 -0.1432
v  -0.1871 -0.3568 -0.0775
v  -0.2025 -0.3568 -0.0000
v  -0.1871 -0.3568 0.0775
v  -0.1432 -0.3568 0.1432
v  -0.0775 -0.3568 0.1871
v  0.0000 -0.3568 0.2025
v  0.0775 -0.3568 0.1871
v  0.1432 -0.3568 0.1432
v  0.1871 -0.3568 0.0775
v  0.3105 0.3534 -0.0000
v  0.2868 0.3534 -0.1188
v  0.2739 0.3597 -0.1135
v  0.2965 0.3597 -0.0000
v  0.2195 0.3534 -0.2195
v  0.2097 0.3597 -0.2097
v  0.1188 0.3534 -0.2868
v  0.1135 0.3597 -0.2739
v  -0.0000 0.3534 -0.3105
v  -0.0000 0.3597 -0.2965
v  -0.1188 0.3534 -0.2868
v  -0.1135 0.3597 -0.2739
v  -0.2195 0.3534 -0.2195
v  -0.2097 0.3597 -0.2097
v  -0.2868 0.3534 -0.1188
v  -0.2739 0.3597 -0.1135
v  -0.3105 0.3534 -0.0000
v  -0.2965 0.3597 -0.0000
v  -0.2868 0.3534 0.1188
v  -0.2739 0.3597 0.1135
v  -0.2195 0.3534 0.2195
v  -0.2097 0.3597 0.2097
v  -0.1188 0.3534 0.2868
v  -0.1135 0.3597 0.2739
v  0.0000 0.3534 0.3105
v  0.0000 0.3597 0.2965
v  0.1188 0.3534 0.2868
v  0.1135 0.3597 0.2739
v  0.2195 0.3534 0.2195
v  0.2097 0.3597 0.2097
v  0.2868 0.3534 0.1188
v  0.2739 0.3597 0.1135
v  0.2825 0.3568 -0.0000
v  0.2610 0.3568 -0.1081
v  0.2602 0.3494 -0.1078
v  0.2817 0.3494 -0.0000
v  0.1998 0.3568 -0.1998
v  0.1992 0.3494 -0.1992
v  0.1081 0.3568 -0.2610
v  0.1078 0.3494 -0.2602
v  -0.0000 0.3568 -0.2825
v  -0.0000 0.3494 -0.2817
v  -0.1081 0.3568 -0.2610
v  -0.1078 0.3494 -0.2602
v  -0.1998 0.3568 -0.1998
v  -0.1992 0.3494 -0.1992
v  -0.2610 0.3568 -0.1081
v  -0.2602 0.3494 -0.1078
v  -0.2825 0.3568 -0.0000
v  -0.2817 0.3494 -0.0000
v  -0.2610 0.3568 0.1081
v  -0.2602 0.3494 0.1078
v  -0.1998 0.3568 0.1998
v  -0.1992 0.3494 0.1992
v  -0.1081 0.3568 0.2610
v  -0.1078 0.3494 0.2602
v  0.0000 0.3568 0.2825
v  0.0000 0.3494 0.2817
v  0.1081 0.3568 0.2610
v  0.1078 0.3494 0.2602
v  0.1998 0.3568 0.1998
v  0.1992 0.3494 0.1992
v  0.2610 0.3568 0.1081
v  0.2602 0.3494 0.1078
v  0.1942 -0.3232 -0.0000
v  0.1794 -0.3232 -0.0743
v  0.0000 -0.3256 -0.0000
v  0.1373 -0.3232 -0.1373
v  0.0743 -0.3232 -0.1794
v  -0.0000 -0.3232 -0.1942
v  -0.0743 -0.3232 -0.1794
v  -0.1373 -0.3232 -0.1373
v  -0.1794 -0.3232 -0.0743
v  -0.1942 -0.3232 -0.0000
v  -0.1794 -0.3232 0.0743
v  -0.1373 -0.3232 0.1373
v  -0.0743 -0.3232 0.1794
v  0.0000 -0.3232 0.1942
v  0.0743 -0.3232 0.1794
v  0.1373 -0.3232 0.1373
v  0.1794 -0.3232 0.0743
v  0.1865 -0.3062 -0.0773
v  0.2019 -0.3062 -0.0000
v  0.1428 -0.3062 -0.1428
v  0.0773 -0.3062 -0.1865
v  -0.0000 -0.3062 -0.2019
v  -0.0773 -0.3062 -0.1865
v  -0.1428 -0.3062 -0.1428
v  -0.1865 -0.3062 -0.0773
v  -0.2019 -0.3062 -0.0000
v  -0.1865 -0.3062 0.0773
v  -0.1428 -0.3062 0.1428
v  -0.0773 -0.3062 0.1865
v  0.0000 -0.3062 0.2019
v  0.0773 -0.3062 0.1865
v  0.1428 -0.3062 0.1428
v  0.1865 -0.3062 0.0773
v  0.2858 0.3449 -0.1184
v  0.3094 0.3449 -0.0000
v  0.2187 0.3449 -0.2187
v  0.1184 0.3449 -0.2858
v  -0.0000 0.3449 -0.3094
v  -0.1184 0.3449 -0.2858
v  -0.2187 0.3449 -0.2187
v  -0.2858 0.3449 -0.1184
v  -0.3094 0.3449 -0.0000
v  -0.2858 0.3449 0.1184
v  -0.2187 0.3449 0.2187
v  -0.1184 0.3449 0.2858
v  0.0000 0.3449 0.3094
v  0.1184 0.3449 0.2858
v  0.2187 0.3449 0.2187
v  0.2858 0.3449 0.1184
# 162 vertices

vn 0.9063 -0.4227 -0.0000
vn 0.8373 -0.4227 -0.3468
vn 0.9158 -0.1319 -0.3793
vn 0.9913 -0.1319 -0.0000
vn 0.6408 -0.4227 -0.6408
vn 0.7009 -0.1319 -0.7009
vn 0.3468 -0.4227 -0.8373
vn 0.3793 -0.1319 -0.9158
vn -0.0000 -0.4227 -0.9063
vn 0.0000 -0.1319 -0.9913
vn -0.3468 -0.4227 -0.8373
vn -0.3793 -0.1319 -0.9158
vn -0.6408 -0.4227 -0.6408
vn -0.7009 -0.1319 -0.7009
vn -0.8373 -0.4227 -0.3468
vn -0.9158 -0.1319 -0.3793
vn -0.9063 -0.4227 -0.0000
vn -0.9913 -0.1319 -0.0000
vn -0.8373 -0.4227 0.3468
vn -0.9158 -0.1319 0.3793
vn -0.6408 -0.4227 0.6408
vn -0.7009 -0.1319 0.7009
vn -0.3468 -0.4227 0.8373
vn -0.3793 -0.1319 0.9158
vn 0.0000 -0.4227 0.9063
vn 0.0000 -0.1319 0.9913
vn 0.3468 -0.4227 0.8373
vn 0.3793 -0.1319 0.9158
vn 0.6408 -0.4227 0.6408
vn 0.7009 -0.1319 0.7009
vn 0.8373 -0.4227 0.3468
vn 0.9158 -0.1319 0.3793
vn 0.3954 -0.9038 -0.1638
vn 0.4280 -0.9038 -0.0000
vn 0.0000 -1.0000 -0.0000
vn 0.3026 -0.9038 -0.3026
vn 0.1638 -0.9038 -0.3954
vn 0.0000 -0.9038 -0.4280
vn -0.1638 -0.9038 -0.3954
vn -0.3026 -0.9038 -0.3026
vn -0.3954 -0.9038 -0.1638
vn -0.4280 -0.9038 -0.0000
vn -0.3954 -0.9038 0.1638
vn -0.3026 -0.9038 0.3026
vn -0.1638 -0.9038 0.3954
vn 0.0000 -0.9038 0.4280
vn 0.1638 -0.9038 0.3954
vn 0.3026 -0.9038 0.3026
vn 0.3954 -0.9038 0.1638
vn 0.8904 0.4552 -0.0000
vn 0.8226 0.4552 -0.3407
vn 0.1380 0.9888 -0.0572
vn 0.1494 0.9888 -0.0000
vn 0.6296 0.4552 -0.6296
vn 0.1056 0.9888 -0.1056
vn 0.3407 0.4552 -0.8226
vn 0.0572 0.9888 -0.1380
vn 0.0000 0.4552 -0.8904
vn 0.0000 0.9888 -0.1494
vn -0.3407 0.4552 -0.8226
vn -0.0572 0.9888 -0.1380
vn -0.6296 0.4552 -0.6296
vn -0.1056 0.9888 -0.1056
vn -0.8226 0.4552 -0.3407
vn -0.1380 0.9888 -0.0572
vn -0.8904 0.4552 -0.0000
vn -0.1494 0.9888 -0.0000
vn -0.8226 0.4552 0.3407
vn -0.1380 0.9888 0.0572
vn -0.6296 0.4552 0.6296
vn -0.1056 0.9888 0.1056
vn -0.3407 0.4552 0.8226
vn -0.0572 0.9888 0.1380
vn 0.0000 0.4552 0.8904
vn 0.0000 0.9888 0.1494
vn 0.3407 0.4552 0.8226
vn 0.0572 0.9888 0.1380
vn 0.6296 0.4552 0.6296
vn 0.1056 0.9888 0.1056
vn 0.8226 0.4552 0.3407
vn 0.1380 0.9888 0.0572
vn -0.7010 0.7131 0.0000
vn -0.6477 0.7131 0.2683
vn -0.9175 0.1177 0.3800
vn -0.9930 0.1177 0.0000
vn -0.4957 0.7131 0.4957
vn -0.7022 0.1177 0.7022
vn -0.2683 0.7131 0.6477
vn -0.3800 0.1177 0.9175
vn 0.0000 0.7131 0.7010
vn 0.0000 0.1177 0.9930
vn 0.2683 0.7131 0.6477
vn 0.3800 0.1177 0.9175
vn 0.4957 0.7131 0.4957
vn 0.7022 0.1177 0.7022
vn 0.6477 0.7131 0.2683
vn 0.9175 0.1177 0.3800
vn 0.7010 0.7131 0.0000
vn 0.9930 0.1177 0.0000
vn 0.6477 0.7131 -0.2683
vn 0.9175 0.1177 -0.3800
vn 0.4957 0.7131 -0.4957
vn 0.7022 0.1177 -0.7022
vn 0.2683 0.7131 -0.6477
vn 0.3800 0.1177 -0.9175
vn -0.0000 0.7131 -0.7010
vn -0.0000 0.1177 -0.9930
vn -0.2683 0.7131 -0.6477
vn -0.3800 0.1177 -0.9175
vn -0.4957 0.7131 -0.4957
vn -0.7022 0.1177 -0.7022
vn -0.6477 0.7131 -0.2683
vn -0.9175 0.1177 -0.3800
vn -0.5900 0.8074 0.0000
vn -0.5451 0.8074 0.2258
vn -0.0000 1.0000 0.0000
vn -0.4172 0.8074 0.4172
vn -0.2258 0.8074 0.5451
vn -0.0000 0.8074 0.5900
vn 0.2258 0.8074 0.5451
vn 0.4172 0.8074 0.4172
vn 0.5451 0.8074 0.2258
vn 0.5900 0.8074 0.0000
vn 0.5451 0.8074 -0.2258
vn 0.4172 0.8074 -0.4172
vn 0.2258 0.8074 -0.5451
vn -0.0000 0.8074 -0.5900
vn -0.2258 0.8074 -0.5451
vn -0.4172 0.8074 -0.4172
vn -0.5451 0.8074 -0.2258
vn -0.8906 0.2660 0.3689
vn -0.9640 0.2660 0.0000
vn -0.6816 0.2660 0.6816
vn -0.3689 0.2660 0.8906
vn 0.0000 0.2660 0.9640
vn 0.3689 0.2660 0.8906
vn 0.6816 0.2660 0.6816
vn 0.8906 0.2660 0.3689
vn 0.9640 0.2660 0.0000
vn 0.8906 0.2660 -0.3689
vn 0.6816 0.2660 -0.6816
vn 0.3689 0.2660 -0.8906
vn -0.0000 0.2660 -0.9640
vn -0.3689 0.2660 -0.8906
vn -0.6816 0.2660 -0.6816
vn -0.8906 0.2660 -0.3689
vn -0.0000 -0.1319 0.9913
# 147 vertex normals

vt 0.1695 0.0110 0.0000
vt 0.2040 0.0110 0.0000
vt 0.2036 0.0159 0.0000
vt 0.1689 0.0159 0.0000
vt 0.2388 0.0110 0.0000
vt 0.2386 0.0159 0.0000
vt 0.2739 0.0110 0.0000
vt 0.2737 0.0159 0.0000
vt 0.3091 0.0110 0.0000
vt 0.3090 0.0159 0.0000
vt 0.3444 0.0110 0.0000
vt 0.3444 0.0159 0.0000
vt 0.3796 0.0110 0.0000
vt 0.3797 0.0159 0.0000
vt 0.4148 0.0110 0.0000
vt 0.4150 0.0159 0.0000
vt 0.4498 0.0110 0.0000
vt 0.4501 0.0159 0.0000
vt 0.4845 0.0110 0.0000
vt 0.4849 0.0159 0.0000
vt 0.5189 0.0110 0.0000
vt 0.5195 0.0159 0.0000
vt 0.5529 0.0110 0.0000
vt 0.5538 0.0159 0.0000
vt 0.5864 0.0110 0.0000
vt 0.5877 0.0159 0.0000
vt 0.6191 0.0110 0.0000
vt 0.6208 0.0159 0.0000
vt 0.0691 0.0110 0.0000
vt 0.1019 0.0110 0.0000
vt 0.1006 0.0159 0.0000
vt 0.0674 0.0159 0.0000
vt 0.1354 0.0110 0.0000
vt 0.1346 0.0159 0.0000
vt 0.8492 0.8825 0.0000
vt 0.8580 0.9134 0.0000
vt 0.7759 0.9199 0.0000
vt 0.8294 0.8573 0.0000
vt 0.8013 0.8416 0.0000
vt 0.7694 0.8378 0.0000
vt 0.7385 0.8465 0.0000
vt 0.7132 0.8664 0.0000
vt 0.6975 0.8944 0.0000
vt 0.6937 0.9263 0.0000
vt 0.7025 0.9572 0.0000
vt 0.7223 0.9825 0.0000
vt 0.7504 0.9982 0.0000
vt 0.7823 1.0020 0.0000
vt 0.8132 0.9933 0.0000
vt 0.8385 0.9734 0.0000
vt 0.8542 0.9453 0.0000
vt 0.1697 0.0023 0.0000
vt 0.2041 0.0023 0.0000
vt 0.2388 0.0023 0.0000
vt 0.2738 0.0023 0.0000
vt 0.3091 0.0023 0.0000
vt 0.3444 0.0023 0.0000
vt 0.3797 0.0023 0.0000
vt 0.4148 0.0023 0.0000
vt 0.4497 0.0023 0.0000
vt 0.4844 0.0023 0.0000
vt 0.5187 0.0023 0.0000
vt 0.5523 0.0023 0.0000
vt 0.5850 0.0023 0.0000
vt 0.6159 0.0023 0.0000
vt 0.0721 0.0023 0.0000
vt 0.1032 0.0023 0.0000
vt 0.1359 0.0023 0.0000
vt 0.1341 0.2776 0.0000
vt 0.1767 0.2776 0.0000
vt 0.1767 0.2887 0.0000
vt 0.1342 0.2887 0.0000
vt 0.2190 0.2776 0.0000
vt 0.2190 0.2887 0.0000
vt 0.2611 0.2776 0.0000
vt 0.2611 0.2887 0.0000
vt 0.3030 0.2776 0.0000
vt 0.3030 0.2887 0.0000
vt 0.3449 0.2776 0.0000
vt 0.3449 0.2887 0.0000
vt 0.3867 0.2776 0.0000
vt 0.3868 0.2887 0.0000
vt 0.4287 0.2776 0.0000
vt 0.4287 0.2887 0.0000
vt 0.4708 0.2776 0.0000
vt 0.4708 0.2887 0.0000
vt 0.5131 0.2776 0.0000
vt 0.5131 0.2887 0.0000
vt 0.5557 0.2776 0.0000
vt 0.5556 0.2887 0.0000
vt 0.5985 0.2776 0.0000
vt 0.5983 0.2887 0.0000
vt 0.6417 0.2776 0.0000
vt 0.6409 0.2887 0.0000
vt 0.6853 0.2776 0.0000
vt 0.6831 0.2887 0.0000
vt 0.0045 0.2776 0.0000
vt 0.0481 0.2776 0.0000
vt 0.0490 0.2887 0.0000
vt 0.0068 0.2887 0.0000
vt 0.0912 0.2776 0.0000
vt 0.0916 0.2887 0.0000
vt 0.1353 0.2993 0.0000
vt 0.1775 0.2993 0.0000
vt 0.1788 0.3082 0.0000
vt 0.1370 0.3082 0.0000
vt 0.2195 0.2993 0.0000
vt 0.2204 0.3082 0.0000
vt 0.2614 0.2993 0.0000
vt 0.2620 0.3082 0.0000
vt 0.3032 0.2993 0.0000
vt 0.3035 0.3082 0.0000
vt 0.3449 0.2993 0.0000
vt 0.3450 0.3082 0.0000
vt 0.3867 0.2993 0.0000
vt 0.3865 0.3082 0.0000
vt 0.4285 0.2993 0.0000
vt 0.4280 0.3082 0.0000
vt 0.4704 0.2993 0.0000
vt 0.4696 0.3082 0.0000
vt 0.5125 0.2993 0.0000
vt 0.5113 0.3082 0.0000
vt 0.5547 0.2993 0.0000
vt 0.5530 0.3082 0.0000
vt 0.5968 0.2993 0.0000
vt 0.5947 0.3082 0.0000
vt 0.6386 0.2993 0.0000
vt 0.6358 0.3082 0.0000
vt 0.6791 0.2993 0.0000
vt 0.6756 0.3082 0.0000
vt 0.0109 0.2993 0.0000
vt 0.0514 0.2993 0.0000
vt 0.0543 0.3082 0.0000
vt 0.0146 0.3082 0.0000
vt 0.0931 0.2993 0.0000
vt 0.0954 0.3082 0.0000
vt 0.9998 0.8524 0.0000
vt 0.9906 0.8818 0.0000
vt 0.9212 0.8441 0.0000
vt 0.9709 0.9055 0.0000
vt 0.9437 0.9198 0.0000
vt 0.9130 0.9226 0.0000
vt 0.8835 0.9135 0.0000
vt 0.8598 0.8938 0.0000
vt 0.8455 0.8665 0.0000
vt 0.8427 0.8358 0.0000
vt 0.8518 0.8064 0.0000
vt 0.8716 0.7827 0.0000
vt 0.8988 0.7683 0.0000
vt 0.9295 0.7655 0.0000
vt 0.9589 0.7747 0.0000
vt 0.9826 0.7944 0.0000
vt 0.9970 0.8217 0.0000
vt 0.2148 0.5519 0.0000
vt 0.1826 0.5519 0.0000
vt 0.2473 0.5519 0.0000
vt 0.2802 0.5519 0.0000
vt 0.3132 0.5519 0.0000
vt 0.3464 0.5519 0.0000
vt 0.3796 0.5519 0.0000
vt 0.4127 0.5519 0.0000
vt 0.4456 0.5519 0.0000
vt 0.4782 0.5519 0.0000
vt 0.5104 0.5519 0.0000
vt 0.5421 0.5519 0.0000
vt 0.5733 0.5519 0.0000
vt 0.6033 0.5519 0.0000
vt 0.1198 0.5519 0.0000
vt 0.0898 0.5519 0.0000
vt 0.1509 0.5519 0.0000
vt 0.1773 0.2680 0.0000
vt 0.1349 0.2680 0.0000
vt 0.2195 0.2680 0.0000
vt 0.2614 0.2680 0.0000
vt 0.3032 0.2680 0.0000
vt 0.3448 0.2680 0.0000
vt 0.3865 0.2680 0.0000
vt 0.4283 0.2680 0.0000
vt 0.4702 0.2680 0.0000
vt 0.5124 0.2680 0.0000
vt 0.5548 0.2680 0.0000
vt 0.5975 0.2680 0.0000
vt 0.6407 0.2680 0.0000
vt 0.6839 0.2680 0.0000
vt 0.0491 0.2680 0.0000
vt 0.0058 0.2680 0.0000
vt 0.0922 0.2680 0.0000
vt 0.2150 0.5591 0.0000
vt 0.1831 0.5591 0.0000
vt 0.2475 0.5591 0.0000
vt 0.2803 0.5591 0.0000
vt 0.3133 0.5591 0.0000
vt 0.3464 0.5591 0.0000
vt 0.3795 0.5591 0.0000
vt 0.4126 0.5591 0.0000
vt 0.4454 0.5591 0.0000
vt 0.4779 0.5591 0.0000
vt 0.5100 0.5591 0.0000
vt 0.5413 0.5591 0.0000
vt 0.5718 0.5591 0.0000
vt 0.6009 0.5591 0.0000
vt 0.1214 0.5591 0.0000
vt 0.0923 0.5591 0.0000
vt 0.1518 0.5591 0.0000
# 204 texture coords

o JailProp_TrashCan01
g JailProp_TrashCan01
usemtl Material__65
s 1
f 1/1/1 2/2/2 3/3/3 4/4/4 
f 2/2/2 5/5/5 6/6/6 3/3/3 
f 5/5/5 7/7/7 8/8/8 6/6/6 
f 7/7/7 9/9/9 10/10/10 8/8/8 
f 9/9/9 11/11/11 12/12/12 10/10/10 
f 11/11/11 13/13/13 14/14/14 12/12/12 
f 13/13/13 15/15/15 16/16/16 14/14/14 
f 15/15/15 17/17/17 18/18/18 16/16/16 
f 17/17/17 19/19/19 20/20/20 18/18/18 
f 19/19/19 21/21/21 22/22/22 20/20/20 
f 21/21/21 23/23/23 24/24/24 22/22/22 
f 23/23/23 25/25/25 26/26/26 24/24/24 
f 25/25/25 27/27/27 28/28/28 26/26/26 
f 27/29/27 29/30/29 30/31/30 28/32/28 
f 29/30/29 31/33/31 32/34/32 30/31/30 
f 31/33/31 1/1/1 4/4/4 32/34/32 
f 33/35/33 34/36/34 35/37/35 
f 36/38/36 33/35/33 35/37/35 
f 37/39/37 36/38/36 35/37/35 
f 38/40/38 37/39/37 35/37/35 
f 39/41/39 38/40/38 35/37/35 
f 40/42/40 39/41/39 35/37/35 
f 41/43/41 40/42/40 35/37/35 
f 42/44/42 41/43/41 35/37/35 
f 43/45/43 42/44/42 35/37/35 
f 44/46/44 43/45/43 35/37/35 
f 45/47/45 44/46/44 35/37/35 
f 46/48/46 45/47/45 35/37/35 
f 47/49/47 46/48/46 35/37/35 
f 48/50/48 47/49/47 35/37/35 
f 49/51/49 48/50/48 35/37/35 
f 34/36/34 49/51/49 35/37/35 
s 2
f 2/2/2 1/1/1 34/52/34 33/53/33 
f 5/5/5 2/2/2 33/53/33 36/54/36 
f 7/7/7 5/5/5 36/54/36 37/55/37 
f 9/9/9 7/7/7 37/55/37 38/56/38 
f 11/11/11 9/9/9 38/56/38 39/57/39 
f 13/13/13 11/11/11 39/57/39 40/58/40 
f 15/15/15 13/13/13 40/58/40 41/59/41 
f 17/17/17 15/15/15 41/59/41 42/60/42 
f 19/19/19 17/17/17 42/60/42 43/61/43 
f 21/21/21 19/19/19 43/61/43 44/62/44 
f 23/23/23 21/21/21 44/62/44 45/63/45 
f 25/25/25 23/23/23 45/63/45 46/64/46 
f 27/27/27 25/25/25 46/64/46 47/65/47 
f 29/30/29 27/29/27 47/66/47 48/67/48 
f 31/33/31 29/30/29 48/67/48 49/68/49 
f 1/1/1 31/33/31 49/68/49 34/52/34 
f 50/69/50 51/70/51 52/71/52 53/72/53 
f 51/70/51 54/73/54 55/74/55 52/71/52 
f 54/73/54 56/75/56 57/76/57 55/74/55 
f 56/75/56 58/77/58 59/78/59 57/76/57 
f 58/77/58 60/79/60 61/80/61 59/78/59 
f 60/79/60 62/81/62 63/82/63 61/80/61 
f 62/81/62 64/83/64 65/84/65 63/82/63 
f 64/83/64 66/85/66 67/86/67 65/84/65 
f 66/85/66 68/87/68 69/88/69 67/86/67 
f 68/87/68 70/89/70 71/90/71 69/88/69 
f 70/89/70 72/91/72 73/92/73 71/90/71 
f 72/91/72 74/93/74 75/94/75 73/92/73 
f 74/93/74 76/95/76 77/96/77 75/94/75 
f 76/97/76 78/98/78 79/99/79 77/100/77 
f 78/98/78 80/101/80 81/102/81 79/99/79 
f 80/101/80 50/69/50 53/72/53 81/102/81 
s 1
f 82/103/82 83/104/83 84/105/84 85/106/85 
f 83/104/83 86/107/86 87/108/87 84/105/84 
f 86/107/86 88/109/88 89/110/89 87/108/87 
f 88/109/88 90/111/90 91/112/91 89/110/89 
f 90/111/90 92/113/92 93/114/93 91/112/91 
f 92/113/92 94/115/94 95/116/95 93/114/93 
f 94/115/94 96/117/96 97/118/97 95/116/95 
f 96/117/96 98/119/98 99/120/99 97/118/97 
f 98/119/98 100/121/100 101/122/101 99/120/99 
f 100/121/100 102/123/102 103/124/103 101/122/101 
f 102/123/102 104/125/104 105/126/105 103/124/103 
f 104/125/104 106/127/106 107/128/107 105/126/105 
f 106/127/106 108/129/108 109/130/109 107/128/107 
f 108/131/108 110/132/110 111/133/111 109/134/109 
f 110/132/110 112/135/112 113/136/113 111/133/111 
f 112/135/112 82/103/82 85/106/85 113/136/113 
f 114/137/114 115/138/115 116/139/116 
f 115/138/115 117/140/117 116/139/116 
f 117/140/117 118/141/118 116/139/116 
f 118/141/118 119/142/119 116/139/116 
f 119/142/119 120/143/120 116/139/116 
f 120/143/120 121/144/121 116/139/116 
f 121/144/121 122/145/122 116/139/116 
f 122/145/122 123/146/123 116/139/116 
f 123/146/123 124/147/124 116/139/116 
f 124/147/124 125/148/125 116/139/116 
f 125/148/125 126/149/126 116/139/116 
f 126/149/126 127/150/127 116/139/116 
f 127/150/127 128/151/128 116/139/116 
f 128/151/128 129/152/129 116/139/116 
f 129/152/129 130/153/130 116/139/116 
f 130/153/130 114/137/114 116/139/116 
f 84/105/84 131/154/131 132/155/132 85/106/85 
f 87/108/87 133/156/133 131/154/131 84/105/84 
f 89/110/89 134/157/134 133/156/133 87/108/87 
f 91/112/91 135/158/135 134/157/134 89/110/89 
f 93/114/93 136/159/136 135/158/135 91/112/91 
f 95/116/95 137/160/137 136/159/136 93/114/93 
f 97/118/97 138/161/138 137/160/137 95/116/95 
f 99/120/99 139/162/139 138/161/138 97/118/97 
f 101/122/101 140/163/140 139/162/139 99/120/99 
f 103/124/103 141/164/141 140/163/140 101/122/101 
f 105/126/105 142/165/142 141/164/141 103/124/103 
f 107/128/107 143/166/143 142/165/142 105/126/105 
f 109/130/109 144/167/144 143/166/143 107/128/107 
f 111/133/111 145/168/145 144/169/144 109/134/109 
f 113/136/113 146/170/146 145/168/145 111/133/111 
f 85/106/85 132/155/132 146/170/146 113/136/113 
f 147/171/3 51/70/51 50/69/50 148/172/4 
f 149/173/6 54/73/54 51/70/51 147/171/3 
f 150/174/8 56/75/56 54/73/54 149/173/6 
f 151/175/10 58/77/58 56/75/56 150/174/8 
f 152/176/12 60/79/60 58/77/58 151/175/10 
f 153/177/14 62/81/62 60/79/60 152/176/12 
f 154/178/16 64/83/64 62/81/62 153/177/14 
f 155/179/18 66/85/66 64/83/64 154/178/16 
f 156/180/20 68/87/68 66/85/66 155/179/18 
f 157/181/22 70/89/70 68/87/68 156/180/20 
f 158/182/24 72/91/72 70/89/70 157/181/22 
f 159/183/147 74/93/74 72/91/72 158/182/24 
f 160/184/28 76/95/76 74/93/74 159/183/147 
f 161/185/30 78/98/78 76/97/76 160/186/28 
f 162/187/32 80/101/80 78/98/78 161/185/30 
f 148/172/4 50/69/50 80/101/80 162/187/32 
s 2
f 115/188/115 114/189/114 132/155/132 131/154/131 
f 117/190/117 115/188/115 131/154/131 133/156/133 
f 118/191/118 117/190/117 133/156/133 134/157/134 
f 119/192/119 118/191/118 134/157/134 135/158/135 
f 120/193/120 119/192/119 135/158/135 136/159/136 
f 121/194/121 120/193/120 136/159/136 137/160/137 
f 122/195/122 121/194/121 137/160/137 138/161/138 
f 123/196/123 122/195/122 138/161/138 139/162/139 
f 124/197/124 123/196/123 139/162/139 140/163/140 
f 125/198/125 124/197/124 140/163/140 141/164/141 
f 126/199/126 125/198/125 141/164/141 142/165/142 
f 127/200/127 126/199/126 142/165/142 143/166/143 
f 128/201/128 127/200/127 143/166/143 144/167/144 
f 129/202/129 128/203/128 144/169/144 145/168/145 
f 130/204/130 129/202/129 145/168/145 146/170/146 
f 114/189/114 130/204/130 146/170/146 132/155/132 
s 1
f 3/3/3 147/171/3 148/172/4 4/4/4 
f 6/6/6 149/173/6 147/171/3 3/3/3 
f 8/8/8 150/174/8 149/173/6 6/6/6 
f 10/10/10 151/175/10 150/174/8 8/8/8 
f 12/12/12 152/176/12 151/175/10 10/10/10 
f 14/14/14 153/177/14 152/176/12 12/12/12 
f 16/16/16 154/178/16 153/177/14 14/14/14 
f 18/18/18 155/179/18 154/178/16 16/16/16 
f 20/20/20 156/180/20 155/179/18 18/18/18 
f 22/22/22 157/181/22 156/180/20 20/20/20 
f 24/24/24 158/182/24 157/181/22 22/22/22 
f 26/26/26 159/183/147 158/182/24 24/24/24 
f 28/28/28 160/184/28 159/183/147 26/26/26 
f 30/31/30 161/185/30 160/186/28 28/32/28 
f 32/34/32 162/187/32 161/185/30 30/31/30 
f 4/4/4 148/172/4 162/187/32 32/34/32 
s 2
f 52/71/52 83/104/83 82/103/82 53/72/53 
f 55/74/55 86/107/86 83/104/83 52/71/52 
f 57/76/57 88/109/88 86/107/86 55/74/55 
f 59/78/59 90/111/90 88/109/88 57/76/57 
f 61/80/61 92/113/92 90/111/90 59/78/59 
f 63/82/63 94/115/94 92/113/92 61/80/61 
f 65/84/65 96/117/96 94/115/94 63/82/63 
f 67/86/67 98/119/98 96/117/96 65/84/65 
f 69/88/69 100/121/100 98/119/98 67/86/67 
f 71/90/71 102/123/102 100/121/100 69/88/69 
f 73/92/73 104/125/104 102/123/102 71/90/71 
f 75/94/75 106/127/106 104/125/104 73/92/73 
f 77/96/77 108/129/108 106/127/106 75/94/75 
f 79/99/79 110/132/110 108/131/108 77/100/77 
f 81/102/81 112/135/112 110/132/110 79/99/79 
f 53/72/53 82/103/82 112/135/112 81/102/81 
# 144 polygons - 32 triangles

