# 3ds Max Wavefront OBJ Exporter v0.99 - (c)2007 guruware
# File Created: 24.12.2025 17:48:27

mtllib JailProp_Dagger01.mtl

#
# object JailProp_Dagger01
#

v  0.0000 -0.0181 0.1159
v  0.0036 -0.0181 0.1158
v  0.0079 -0.0023 0.1239
v  0.0000 -0.0049 0.1236
v  0.0034 -0.0105 0.0394
v  0.0000 -0.0105 0.0394
v  0.0000 -0.0159 0.0309
v  0.0034 -0.0158 0.0309
v  0.0064 0.0184 0.0318
v  0.0101 0.0073 0.0353
v  0.0101 0.0031 0.0266
v  0.0064 0.0141 0.0233
v  0.0000 0.0197 0.0315
v  0.0047 0.0196 0.0315
v  0.0046 0.0155 0.0230
v  0.0000 0.0155 0.0231
v  0.0034 -0.0105 0.0464
v  0.0000 -0.0106 0.0464
v  0.0052 -0.0092 0.0390
v  0.0101 0.0075 0.0475
v  0.0052 -0.0093 0.0466
v  0.0000 0.0212 0.0459
v  0.0047 0.0212 0.0459
v  0.0034 -0.0143 0.0789
v  0.0034 -0.0136 0.0879
v  0.0000 -0.0137 0.0879
v  0.0000 -0.0144 0.0789
v  0.0064 0.0206 0.0584
v  0.0064 0.0199 0.0460
v  0.0000 0.0220 0.0584
v  0.0047 0.0219 0.0584
v  0.0034 -0.0128 0.0537
v  0.0000 -0.0128 0.0537
v  0.0034 -0.0172 0.0588
v  0.0000 -0.0172 0.0588
v  0.0034 -0.0141 0.0968
v  0.0034 -0.0157 0.1057
v  0.0000 -0.0157 0.1057
v  0.0000 -0.0141 0.0968
v  0.0064 0.0189 0.0884
v  0.0064 0.0152 0.1127
v  0.0101 0.0034 0.1071
v  0.0102 0.0057 0.0859
v  0.0000 0.0202 0.0885
v  0.0000 0.0165 0.1130
v  0.0047 0.0165 0.1130
v  0.0047 0.0202 0.0885
v  0.0034 -0.0188 0.1138
v  0.0000 -0.0188 0.1139
v  0.0064 0.0091 0.1300
v  0.0101 -0.0017 0.1226
v  0.0000 0.0103 0.1307
v  0.0046 0.0103 0.1306
v  0.0049 0.0085 0.1313
v  0.0000 0.0085 0.1314
v  0.0052 -0.0145 0.0306
v  0.0051 -0.0123 0.0879
v  0.0051 -0.0130 0.0788
v  0.0102 0.0052 0.0594
v  0.0051 -0.0116 0.0543
v  0.0051 -0.0144 0.1061
v  0.0051 -0.0128 0.0969
v  0.0051 -0.0177 0.1145
v  0.0000 -0.0152 0.0292
v  0.0000 0.0135 0.0219
v  0.0079 0.0026 0.0253
v  0.0051 -0.0159 0.0590
v  -0.0079 -0.0023 0.1239
v  -0.0036 -0.0181 0.1158
v  -0.0034 -0.0105 0.0394
v  -0.0034 -0.0158 0.0309
v  -0.0064 0.0184 0.0318
v  -0.0064 0.0141 0.0233
v  -0.0101 0.0031 0.0266
v  -0.0101 0.0073 0.0353
v  -0.0046 0.0155 0.0230
v  -0.0047 0.0196 0.0315
v  -0.0034 -0.0105 0.0464
v  -0.0052 -0.0092 0.0390
v  -0.0052 -0.0093 0.0466
v  -0.0101 0.0075 0.0475
v  -0.0047 0.0212 0.0459
v  -0.0034 -0.0143 0.0789
v  -0.0034 -0.0136 0.0879
v  -0.0064 0.0206 0.0584
v  -0.0064 0.0199 0.0460
v  -0.0047 0.0219 0.0584
v  -0.0034 -0.0128 0.0537
v  -0.0034 -0.0172 0.0588
v  -0.0034 -0.0141 0.0968
v  -0.0034 -0.0157 0.1057
v  -0.0064 0.0189 0.0884
v  -0.0102 0.0057 0.0859
v  -0.0101 0.0034 0.1071
v  -0.0064 0.0152 0.1127
v  -0.0047 0.0202 0.0885
v  -0.0047 0.0165 0.1130
v  -0.0034 -0.0188 0.1138
v  -0.0101 -0.0017 0.1226
v  -0.0064 0.0091 0.1300
v  -0.0046 0.0103 0.1306
v  -0.0049 0.0085 0.1313
v  -0.0052 -0.0145 0.0306
v  -0.0051 -0.0123 0.0879
v  -0.0051 -0.0130 0.0788
v  -0.0102 0.0052 0.0594
v  -0.0051 -0.0116 0.0543
v  -0.0051 -0.0144 0.1061
v  -0.0051 -0.0128 0.0969
v  -0.0051 -0.0177 0.1145
v  -0.0079 0.0026 0.0253
v  -0.0051 -0.0159 0.0590
v  0.0001 0.0126 -0.1378
v  0.0000 0.0126 -0.1378
v  0.0000 0.0142 -0.1387
v  0.0001 0.0142 -0.1387
v  0.0008 -0.0118 0.0037
v  0.0000 -0.0118 0.0037
v  0.0000 -0.0107 -0.0157
v  0.0005 -0.0107 -0.0157
v  0.0056 0.0161 -0.0051
v  0.0042 -0.0045 0.0034
v  0.0042 -0.0034 -0.0176
v  0.0054 0.0147 -0.0227
v  0.0029 0.0236 -0.0066
v  0.0000 0.0237 -0.0065
v  0.0000 0.0250 0.0074
v  0.0029 0.0249 0.0073
v  0.0056 0.0167 0.0074
v  0.0044 -0.0068 0.0151
v  0.0005 -0.0149 -0.0704
v  0.0000 -0.0149 -0.0704
v  0.0000 -0.0127 -0.0873
v  0.0005 -0.0127 -0.0873
v  0.0044 0.0137 -0.0777
v  0.0034 -0.0003 -0.0738
v  0.0034 0.0038 -0.0902
v  0.0037 0.0109 -0.0910
v  0.0014 0.0139 -0.1066
v  0.0012 0.0127 -0.1140
v  0.0000 0.0124 -0.1141
v  0.0000 0.0137 -0.1068
v  0.0015 -0.0013 -0.1035
v  0.0012 0.0016 -0.1132
v  0.0022 0.0087 -0.1140
v  0.0027 0.0092 -0.1061
v  0.0010 0.0125 -0.1214
v  0.0005 0.0129 -0.1324
v  0.0000 0.0131 -0.1324
v  0.0000 0.0124 -0.1215
v  0.0012 0.0051 -0.1215
v  0.0015 0.0096 -0.1284
v  0.0017 0.0087 -0.1214
v  0.0017 0.0168 -0.0908
v  0.0000 0.0168 -0.0907
v  0.0030 0.0204 -0.0407
v  0.0027 0.0205 -0.0592
v  0.0000 0.0207 -0.0592
v  0.0000 0.0205 -0.0407
v  0.0039 -0.0037 -0.0362
v  0.0039 -0.0025 -0.0539
v  0.0059 0.0132 -0.0585
v  0.0055 0.0136 -0.0410
v  0.0029 0.0220 -0.0224
v  0.0000 0.0220 -0.0224
v  0.0022 0.0210 -0.0775
v  0.0000 0.0211 -0.0777
v  0.0064 0.0150 0.0131
v  0.0050 -0.0127 0.0211
v  0.0000 0.0211 0.0122
v  0.0033 0.0210 0.0121
v  0.0018 -0.0148 0.0151
v  0.0000 -0.0151 0.0151
v  0.0023 -0.0191 0.0213
v  0.0029 -0.0298 0.0288
v  0.0000 -0.0298 0.0288
v  0.0000 -0.0197 0.0213
v  0.0107 0.0122 0.0193
v  0.0059 -0.0164 0.0246
v  0.0045 -0.0293 0.0326
v  0.0046 -0.0143 0.0337
v  0.0000 -0.0143 0.0334
v  0.0000 -0.0293 0.0327
v  0.0112 0.0098 0.0242
v  0.0112 -0.0117 0.0303
v  0.0107 -0.0140 0.0279
v  0.0044 0.0198 0.0188
v  0.0000 0.0199 0.0189
v  0.0000 0.0176 0.0240
v  0.0044 0.0176 0.0239
v  0.0000 -0.0055 -0.1124
v  0.0001 -0.0055 -0.1124
v  0.0002 -0.0086 -0.1030
v  0.0000 -0.0086 -0.1030
v  0.0000 0.0035 -0.1295
v  0.0001 0.0035 -0.1295
v  0.0001 -0.0013 -0.1217
v  0.0000 -0.0013 -0.1217
v  0.0000 0.0080 -0.1341
v  0.0001 0.0080 -0.1341
v  0.0000 -0.0130 -0.0524
v  0.0005 -0.0127 -0.0524
v  0.0005 -0.0113 -0.0343
v  0.0000 -0.0114 -0.0343
v  0.0077 -0.0188 0.0297
v  0.0010 0.0117 -0.1341
v  0.0000 -0.0270 0.1298
v  0.0024 -0.0269 0.1297
v  0.0024 -0.0001 0.1398
v  0.0000 -0.0001 0.1400
v  0.0025 -0.0247 0.1203
v  0.0000 -0.0251 0.1201
v  0.0000 -0.0179 0.1165
v  0.0026 -0.0175 0.1168
v  0.0000 0.0025 0.1390
v  0.0025 0.0023 0.1387
v  0.0025 0.0074 0.1309
v  0.0000 0.0078 0.1310
v  0.0000 -0.0168 0.1126
v  0.0000 0.0089 0.1250
v  0.0000 -0.0273 0.1274
v  0.0025 -0.0270 0.1274
v  0.0027 -0.0210 0.1262
v  0.0027 -0.0017 0.1333
v  0.0026 -0.0135 0.1218
v  0.0026 -0.0200 0.1229
v  0.0027 -0.0001 0.1299
v  0.0000 -0.0135 0.1222
v  0.0000 -0.0196 0.1233
v  0.0000 -0.0006 0.1300
v  0.0000 -0.0019 0.1327
v  0.0000 -0.0205 0.1260
v  -0.0001 0.0126 -0.1378
v  -0.0001 0.0142 -0.1387
v  -0.0008 -0.0118 0.0037
v  -0.0005 -0.0107 -0.0157
v  -0.0056 0.0161 -0.0051
v  -0.0054 0.0147 -0.0227
v  -0.0042 -0.0034 -0.0176
v  -0.0042 -0.0045 0.0034
v  -0.0029 0.0236 -0.0066
v  -0.0029 0.0249 0.0073
v  -0.0044 -0.0068 0.0151
v  -0.0056 0.0167 0.0074
v  -0.0005 -0.0149 -0.0704
v  -0.0005 -0.0127 -0.0873
v  -0.0044 0.0137 -0.0777
v  -0.0037 0.0109 -0.0910
v  -0.0034 0.0038 -0.0902
v  -0.0034 -0.0003 -0.0738
v  -0.0014 0.0139 -0.1066
v  -0.0012 0.0127 -0.1140
v  -0.0015 -0.0013 -0.1035
v  -0.0027 0.0092 -0.1061
v  -0.0022 0.0087 -0.1140
v  -0.0012 0.0016 -0.1132
v  -0.0010 0.0125 -0.1214
v  -0.0005 0.0129 -0.1324
v  -0.0012 0.0051 -0.1215
v  -0.0017 0.0087 -0.1214
v  -0.0015 0.0096 -0.1284
v  -0.0017 0.0168 -0.0908
v  -0.0030 0.0204 -0.0407
v  -0.0027 0.0205 -0.0592
v  -0.0039 -0.0037 -0.0362
v  -0.0055 0.0136 -0.0410
v  -0.0059 0.0132 -0.0585
v  -0.0039 -0.0025 -0.0539
v  -0.0029 0.0220 -0.0224
v  -0.0022 0.0210 -0.0775
v  -0.0050 -0.0127 0.0211
v  -0.0064 0.0150 0.0131
v  -0.0033 0.0210 0.0121
v  -0.0018 -0.0148 0.0151
v  -0.0023 -0.0191 0.0213
v  -0.0029 -0.0298 0.0288
v  -0.0059 -0.0164 0.0246
v  -0.0107 0.0122 0.0193
v  -0.0045 -0.0293 0.0326
v  -0.0046 -0.0143 0.0337
v  -0.0112 0.0098 0.0242
v  -0.0107 -0.0140 0.0279
v  -0.0112 -0.0117 0.0303
v  -0.0044 0.0198 0.0188
v  -0.0044 0.0176 0.0239
v  -0.0002 -0.0086 -0.1030
v  -0.0001 -0.0055 -0.1124
v  -0.0001 -0.0013 -0.1217
v  -0.0001 0.0035 -0.1295
v  -0.0001 0.0080 -0.1341
v  -0.0005 -0.0113 -0.0343
v  -0.0005 -0.0127 -0.0524
v  -0.0077 -0.0188 0.0297
v  -0.0010 0.0117 -0.1341
v  -0.0024 -0.0001 0.1398
v  -0.0024 -0.0269 0.1297
v  -0.0025 -0.0247 0.1203
v  -0.0026 -0.0175 0.1168
v  -0.0025 0.0074 0.1309
v  -0.0025 0.0023 0.1387
v  -0.0025 -0.0270 0.1274
v  -0.0027 -0.0017 0.1333
v  -0.0027 -0.0210 0.1262
v  -0.0026 -0.0200 0.1229
v  -0.0026 -0.0135 0.1218
v  -0.0027 -0.0001 0.1299
# 306 vertices

vn 0.0000 -0.7729 0.6346
vn 0.3034 -0.7313 0.6108
vn 0.3807 -0.4754 0.7931
vn -0.0000 -0.5037 0.8639
vn 0.3490 -0.9015 0.2559
vn 0.0000 -0.9619 0.2733
vn 0.0000 -0.9966 0.0826
vn 0.3432 -0.9345 -0.0944
vn 0.8008 0.5750 -0.1673
vn 0.9985 0.0527 -0.0110
vn 0.9001 -0.1109 -0.4214
vn 0.6621 0.2496 -0.7066
vn -0.0000 0.9605 -0.2784
vn 0.3098 0.9135 -0.2635
vn 0.2882 0.6013 -0.7452
vn 0.0000 0.7267 -0.6869
vn 0.3322 -0.9319 -0.1454
vn -0.0000 -0.9881 -0.1541
vn 0.8533 -0.5007 0.1455
vn 0.9997 0.0180 -0.0171
vn 0.8353 -0.5431 -0.0854
vn -0.0000 0.9965 -0.0838
vn 0.3230 0.9431 -0.0794
vn 0.3323 -0.9376 0.1020
vn 0.3317 -0.9433 0.0131
vn 0.0000 -0.9999 0.0139
vn 0.0000 -0.9941 0.1080
vn 0.8293 0.5588 0.0050
vn 0.8207 0.5695 -0.0463
vn -0.0000 1.0000 -0.0024
vn 0.3265 0.9452 -0.0022
vn 0.3407 -0.8246 -0.4516
vn -0.0000 -0.8766 -0.4812
vn 0.3059 -0.9170 -0.2560
vn 0.0000 -0.9603 -0.2789
vn 0.3307 -0.9379 -0.1052
vn 0.3346 -0.9077 -0.2532
vn 0.0000 -0.9633 -0.2683
vn 0.0000 -0.9938 -0.1115
vn 0.8234 0.5644 0.0590
vn 0.8153 0.5615 0.1413
vn 0.9997 0.0230 0.0036
vn 0.9999 0.0146 0.0047
vn 0.0000 0.9946 0.1042
vn -0.0000 0.9704 0.2413
vn 0.3177 0.9202 0.2285
vn 0.3235 0.9411 0.0985
vn 0.2814 -0.9584 -0.0490
vn -0.0000 -0.9999 -0.0147
vn 0.8103 0.3029 0.5017
vn 0.9028 -0.1976 0.3819
vn 0.0000 0.7088 0.7054
vn 0.2909 0.6983 0.6540
vn 0.3229 -0.0974 0.9414
vn 0.0000 -0.0894 0.9960
vn 0.7368 -0.5921 -0.3266
vn 0.8351 -0.5500 0.0061
vn 0.8368 -0.5447 0.0542
vn 0.9997 -0.0237 -0.0112
vn 0.8429 -0.4672 -0.2668
vn 0.8366 -0.5275 -0.1480
vn 0.8332 -0.5495 -0.0619
vn 0.7819 -0.6139 0.1082
vn 0.0000 -0.6748 -0.7380
vn -0.0000 0.1827 -0.9832
vn 0.5352 -0.1627 -0.8289
vn 0.7951 -0.5755 -0.1911
vn -0.3807 -0.4754 0.7931
vn -0.3034 -0.7313 0.6108
vn -0.3490 -0.9015 0.2559
vn -0.3432 -0.9345 -0.0944
vn -0.8008 0.5750 -0.1673
vn -0.6621 0.2496 -0.7066
vn -0.9001 -0.1109 -0.4214
vn -0.9985 0.0527 -0.0110
vn -0.2882 0.6013 -0.7452
vn -0.3098 0.9135 -0.2635
vn -0.3322 -0.9319 -0.1454
vn -0.8533 -0.5007 0.1455
vn -0.8353 -0.5431 -0.0854
vn -0.9997 0.0180 -0.0171
vn -0.3230 0.9431 -0.0794
vn -0.3323 -0.9376 0.1020
vn -0.3317 -0.9433 0.0131
vn -0.8293 0.5588 0.0050
vn -0.8207 0.5695 -0.0463
vn -0.3265 0.9452 -0.0022
vn -0.3407 -0.8246 -0.4516
vn -0.3059 -0.9170 -0.2560
vn -0.3307 -0.9379 -0.1052
vn -0.3346 -0.9077 -0.2532
vn -0.8234 0.5644 0.0590
vn -0.9999 0.0146 0.0047
vn -0.9997 0.0230 0.0036
vn -0.8153 0.5615 0.1413
vn -0.3235 0.9411 0.0985
vn -0.3177 0.9202 0.2285
vn -0.2814 -0.9584 -0.0490
vn -0.9028 -0.1976 0.3819
vn -0.8103 0.3029 0.5017
vn -0.2909 0.6983 0.6540
vn -0.3229 -0.0974 0.9414
vn -0.7368 -0.5921 -0.3266
vn -0.8351 -0.5500 0.0061
vn -0.8368 -0.5447 0.0542
vn -0.9997 -0.0237 -0.0112
vn -0.8429 -0.4672 -0.2668
vn -0.8366 -0.5275 -0.1480
vn -0.8332 -0.5495 -0.0619
vn -0.7819 -0.6139 0.1082
vn -0.5352 -0.1627 -0.8289
vn -0.7951 -0.5755 -0.1911
vn 0.5755 -0.4398 -0.6894
vn 0.0000 -0.5448 -0.8386
vn 0.0000 0.5941 -0.8044
vn 0.5042 0.5160 -0.6925
vn 0.5392 -0.8253 -0.1675
vn 0.0000 -0.9857 -0.1685
vn 0.0000 -1.0000 -0.0088
vn 0.5288 -0.8485 -0.0171
vn 0.9910 0.1334 -0.0133
vn 0.9683 -0.2460 -0.0429
vn 0.9649 -0.2623 -0.0099
vn 0.9913 0.1310 -0.0112
vn 0.5806 0.8103 -0.0796
vn 0.0000 0.9951 -0.0992
vn 0.0000 0.9562 0.2927
vn 0.5380 0.8114 0.2284
vn 0.9888 0.1426 -0.0449
vn 0.9691 -0.1809 -0.1679
vn 0.6104 -0.7921 -0.0023
vn 0.0000 -0.9999 -0.0121
vn 0.0000 -0.9813 -0.1924
vn 0.6286 -0.7627 -0.1524
vn 0.9898 0.1201 -0.0766
vn 0.9885 -0.1459 -0.0398
vn 0.9930 -0.1078 -0.0479
vn 0.9875 0.1346 -0.0817
vn 0.5458 0.8233 -0.1560
vn 0.5544 0.8262 -0.0998
vn -0.0000 0.9965 -0.0834
vn 0.0000 0.9844 -0.1758
vn 0.9840 -0.1600 -0.0778
vn 0.9862 -0.1517 -0.0665
vn 0.9970 0.0430 -0.0650
vn 0.9949 0.0663 -0.0763
vn 0.6102 0.7920 -0.0204
vn 0.7157 0.6950 0.0683
vn 0.0000 0.9929 0.1187
vn 0.0000 0.9996 0.0282
vn 0.9866 -0.1501 -0.0636
vn 0.9971 0.0340 -0.0675
vn 0.9985 0.0224 -0.0494
vn 0.5726 0.7911 -0.2151
vn 0.0000 0.9671 -0.2543
vn 0.5949 0.8031 -0.0355
vn 0.5831 0.8124 -0.0002
vn -0.0000 0.9999 0.0155
vn 0.0000 0.9993 -0.0368
vn 0.9653 -0.2608 -0.0137
vn 0.9731 -0.2280 -0.0319
vn 0.9911 0.1295 -0.0299
vn 0.9917 0.1283 0.0076
vn 0.5894 0.8043 -0.0754
vn 0.0000 0.9957 -0.0923
vn 0.5868 0.8011 -0.1175
vn 0.0000 0.9869 -0.1615
vn 0.9370 0.1486 -0.3162
vn 0.8723 -0.2572 -0.4159
vn -0.0000 0.9090 0.4167
vn 0.5270 0.7798 0.3379
vn 0.6441 -0.6683 -0.3721
vn 0.0000 -0.8938 -0.4484
vn 0.5460 -0.5555 -0.6271
vn 0.3993 -0.8173 -0.4155
vn -0.0000 -0.9216 -0.3882
vn 0.0000 -0.6930 -0.7210
vn 0.9338 0.2553 -0.2508
vn 0.7570 -0.3507 -0.5514
vn 0.5863 -0.6329 0.5056
vn 0.2575 0.0411 0.9654
vn 0.0000 0.1186 0.9929
vn 0.0000 -0.6678 0.7443
vn 0.8228 0.2828 0.4930
vn 0.8602 -0.0489 0.5076
vn 0.8780 -0.3770 -0.2950
vn 0.4376 0.8737 0.2125
vn 0.0000 0.9558 0.2939
vn 0.0000 0.6586 0.7525
vn 0.3255 0.6695 0.6677
vn 0.0000 -0.9320 -0.3624
vn 0.6334 -0.7210 -0.2810
vn 0.6297 -0.7428 -0.2276
vn -0.0000 -0.9589 -0.2837
vn -0.0000 -0.7891 -0.6143
vn 0.5991 -0.6344 -0.4885
vn 0.6251 -0.6900 -0.3648
vn 0.0000 -0.8827 -0.4699
vn 0.0000 -0.6745 -0.7383
vn 0.5883 -0.5550 -0.5881
vn 0.0000 -0.9952 0.0977
vn 0.7572 -0.6499 0.0654
vn 0.6464 -0.7618 0.0423
vn 0.0000 -0.9980 0.0632
vn 0.9178 -0.3735 0.1349
vn 0.9923 0.0563 -0.1106
vn -0.0000 -0.7842 0.6205
vn 0.6123 -0.6372 0.4680
vn 0.6485 0.0118 0.7611
vn -0.0000 -0.0022 1.0000
vn 0.6761 -0.5548 -0.4848
vn 0.0000 -0.7688 -0.6395
vn 0.0000 -0.7705 -0.6374
vn 0.8415 -0.2115 -0.4971
vn -0.0000 0.6217 0.7832
vn 0.6992 0.4535 0.5527
vn 0.7386 0.6570 0.1513
vn 0.0000 0.9286 0.3710
vn 0.0000 -0.2597 -0.9657
vn 0.0000 0.7818 -0.6235
vn 0.0000 -0.9964 -0.0843
vn 0.7239 -0.6855 -0.0785
vn 0.9358 0.3175 -0.1533
vn 0.9310 -0.1444 -0.3353
vn 0.8379 -0.0974 0.5371
vn 0.8948 0.3056 0.3254
vn 0.9318 -0.3520 0.0884
vn -0.0000 -0.1983 0.9801
vn 0.0000 0.6515 0.7586
vn 0.0000 -0.9562 0.2927
vn -0.0000 -0.3773 -0.9261
vn -0.0000 0.8963 -0.4435
vn -0.5755 -0.4398 -0.6894
vn -0.5042 0.5160 -0.6925
vn -0.5392 -0.8253 -0.1675
vn -0.5288 -0.8485 -0.0171
vn -0.9910 0.1334 -0.0133
vn -0.9913 0.1310 -0.0112
vn -0.9649 -0.2623 -0.0099
vn -0.9683 -0.2460 -0.0429
vn -0.5806 0.8103 -0.0796
vn -0.5380 0.8114 0.2284
vn -0.9691 -0.1809 -0.1679
vn -0.9888 0.1426 -0.0449
vn -0.6104 -0.7921 -0.0023
vn -0.6286 -0.7627 -0.1524
vn -0.9898 0.1201 -0.0766
vn -0.9875 0.1346 -0.0817
vn -0.9930 -0.1078 -0.0479
vn -0.9885 -0.1459 -0.0398
vn -0.5458 0.8233 -0.1560
vn -0.5544 0.8262 -0.0998
vn -0.9840 -0.1600 -0.0778
vn -0.9949 0.0663 -0.0763
vn -0.9970 0.0430 -0.0650
vn -0.9862 -0.1517 -0.0665
vn -0.6102 0.7920 -0.0204
vn -0.7157 0.6950 0.0683
vn -0.9866 -0.1501 -0.0636
vn -0.9985 0.0224 -0.0494
vn -0.9971 0.0340 -0.0675
vn -0.5726 0.7911 -0.2151
vn -0.5949 0.8031 -0.0355
vn -0.5831 0.8124 -0.0002
vn -0.9653 -0.2608 -0.0137
vn -0.9917 0.1283 0.0076
vn -0.9911 0.1295 -0.0299
vn -0.9731 -0.2280 -0.0319
vn -0.5894 0.8043 -0.0754
vn -0.5868 0.8011 -0.1175
vn -0.8723 -0.2572 -0.4159
vn -0.9370 0.1486 -0.3162
vn -0.5270 0.7798 0.3379
vn -0.6441 -0.6683 -0.3721
vn -0.5460 -0.5555 -0.6271
vn -0.3993 -0.8173 -0.4155
vn -0.7570 -0.3507 -0.5514
vn -0.9338 0.2553 -0.2508
vn -0.5863 -0.6329 0.5056
vn -0.2575 0.0411 0.9654
vn -0.8228 0.2828 0.4930
vn -0.8780 -0.3770 -0.2950
vn -0.8602 -0.0489 0.5076
vn -0.4376 0.8737 0.2125
vn -0.3255 0.6695 0.6677
vn -0.6297 -0.7428 -0.2276
vn -0.6334 -0.7210 -0.2810
vn -0.6251 -0.6900 -0.3648
vn -0.5991 -0.6344 -0.4885
vn -0.5883 -0.5550 -0.5881
vn -0.6464 -0.7618 0.0423
vn -0.7572 -0.6499 0.0654
vn -0.9178 -0.3735 0.1349
vn -0.9923 0.0563 -0.1106
vn -0.6485 0.0118 0.7611
vn -0.6123 -0.6372 0.4680
vn -0.6761 -0.5548 -0.4848
vn -0.8415 -0.2115 -0.4971
vn -0.7386 0.6570 0.1513
vn -0.6992 0.4535 0.5527
vn -0.7239 -0.6855 -0.0785
vn -0.9310 -0.1444 -0.3353
vn -0.9358 0.3175 -0.1533
vn -0.8948 0.3056 0.3254
vn -0.8379 -0.0974 0.5371
vn -0.9318 -0.3520 0.0884
# 306 vertex normals

vt 0.5042 0.4163 0.0000
vt 0.5305 0.4299 0.0000
vt 0.7236 0.4007 0.0000
vt 0.6682 0.3653 0.0000
vt 0.4988 0.8663 0.0000
vt 0.4617 0.8612 0.0000
vt 0.4102 0.9093 0.0000
vt 0.4437 0.9156 0.0000
vt 0.8386 0.9236 0.0000
vt 0.7145 0.8971 0.0000
vt 0.6627 0.9446 0.0000
vt 0.7857 0.9690 0.0000
vt 0.9062 0.9360 0.0000
vt 0.8591 0.9268 0.0000
vt 0.8067 0.9723 0.0000
vt 0.8515 0.9845 0.0000
vt 0.5076 0.8261 0.0000
vt 0.4696 0.8266 0.0000
vt 0.5239 0.8698 0.0000
vt 0.7301 0.8297 0.0000
vt 0.5322 0.8258 0.0000
vt 0.9485 0.8539 0.0000
vt 0.8970 0.8484 0.0000
vt 0.5107 0.6400 0.0000
vt 0.5279 0.5903 0.0000
vt 0.4895 0.5881 0.0000
vt 0.4725 0.6368 0.0000
vt 0.8967 0.7780 0.0000
vt 0.8730 0.8459 0.0000
vt 0.9722 0.7820 0.0000
vt 0.9203 0.7792 0.0000
vt 0.4908 0.7838 0.0000
vt 0.4524 0.7883 0.0000
vt 0.4599 0.7500 0.0000
vt 0.4253 0.7509 0.0000
vt 0.5336 0.5397 0.0000
vt 0.5292 0.4882 0.0000
vt 0.4900 0.4881 0.0000
vt 0.4949 0.5391 0.0000
vt 0.9167 0.6102 0.0000
vt 0.9064 0.4735 0.0000
vt 0.7626 0.4985 0.0000
vt 0.7599 0.6157 0.0000
vt 0.9933 0.6093 0.0000
vt 0.9788 0.4650 0.0000
vt 0.9286 0.4706 0.0000
vt 0.9409 0.6096 0.0000
vt 0.5183 0.4391 0.0000
vt 0.4852 0.4342 0.0000
vt 0.8566 0.3764 0.0000
vt 0.7301 0.4118 0.0000
vt 0.9035 0.3565 0.0000
vt 0.8702 0.3714 0.0000
vt 0.8540 0.3684 0.0000
vt 0.8611 0.3447 0.0000
vt 0.4642 0.9177 0.0000
vt 0.5525 0.5920 0.0000
vt 0.5346 0.6421 0.0000
vt 0.7200 0.7628 0.0000
vt 0.5160 0.7805 0.0000
vt 0.5550 0.4883 0.0000
vt 0.5586 0.5408 0.0000
vt 0.5369 0.4395 0.0000
vt 0.4465 0.9260 0.0000
vt 0.7855 0.9805 0.0000
vt 0.6525 0.9580 0.0000
vt 0.4800 0.7504 0.0000
vt 1.5042 0.4163 0.0000
vt 1.6682 0.3653 0.0000
vt 1.7236 0.4007 0.0000
vt 1.5305 0.4299 0.0000
vt 1.4988 0.8663 0.0000
vt 1.4437 0.9156 0.0000
vt 1.4102 0.9093 0.0000
vt 1.4617 0.8612 0.0000
vt 1.8386 0.9236 0.0000
vt 1.7857 0.9690 0.0000
vt 1.6627 0.9446 0.0000
vt 1.7145 0.8971 0.0000
vt 1.9062 0.9360 0.0000
vt 1.8515 0.9845 0.0000
vt 1.8067 0.9723 0.0000
vt 1.8591 0.9268 0.0000
vt 1.4696 0.8266 0.0000
vt 1.5076 0.8261 0.0000
vt 1.5239 0.8698 0.0000
vt 1.5322 0.8258 0.0000
vt 1.7301 0.8297 0.0000
vt 1.8970 0.8484 0.0000
vt 1.9485 0.8539 0.0000
vt 1.5107 0.6400 0.0000
vt 1.4725 0.6368 0.0000
vt 1.4895 0.5881 0.0000
vt 1.5279 0.5903 0.0000
vt 1.8967 0.7780 0.0000
vt 1.8730 0.8459 0.0000
vt 1.9722 0.7820 0.0000
vt 1.9203 0.7792 0.0000
vt 1.4524 0.7883 0.0000
vt 1.4908 0.7838 0.0000
vt 1.4253 0.7509 0.0000
vt 1.4599 0.7500 0.0000
vt 1.5336 0.5397 0.0000
vt 1.4949 0.5391 0.0000
vt 1.4900 0.4881 0.0000
vt 1.5292 0.4882 0.0000
vt 1.9167 0.6102 0.0000
vt 1.7599 0.6157 0.0000
vt 1.7626 0.4985 0.0000
vt 1.9064 0.4735 0.0000
vt 1.9933 0.6093 0.0000
vt 1.9409 0.6096 0.0000
vt 1.9286 0.4706 0.0000
vt 1.9788 0.4650 0.0000
vt 1.4852 0.4342 0.0000
vt 1.5183 0.4391 0.0000
vt 1.7301 0.4118 0.0000
vt 1.8566 0.3764 0.0000
vt 1.8702 0.3714 0.0000
vt 1.9035 0.3565 0.0000
vt 1.8611 0.3447 0.0000
vt 1.8540 0.3684 0.0000
vt 1.4642 0.9177 0.0000
vt 1.5525 0.5920 0.0000
vt 1.5346 0.6421 0.0000
vt 1.7200 0.7628 0.0000
vt 1.5160 0.7805 0.0000
vt 1.5550 0.4883 0.0000
vt 1.5586 0.5408 0.0000
vt 1.5369 0.4395 0.0000
vt 1.4465 0.9260 0.0000
vt 1.7855 0.9805 0.0000
vt 1.6525 0.9580 0.0000
vt 1.4800 0.7504 0.0000
vt 0.1203 0.9886 0.0000
vt 0.1211 0.9892 0.0000
vt 0.1022 0.9932 0.0000
vt 0.1025 0.9929 0.0000
vt 0.4753 0.2120 0.0000
vt 0.4840 0.2129 0.0000
vt 0.4502 0.3185 0.0000
vt 0.4448 0.3184 0.0000
vt 0.1494 0.2481 0.0000
vt 0.3851 0.2102 0.0000
vt 0.3533 0.3253 0.0000
vt 0.1495 0.3459 0.0000
vt 0.0597 0.2536 0.0000
vt 0.0272 0.2529 0.0000
vt 0.0271 0.1744 0.0000
vt 0.0571 0.1772 0.0000
vt 0.1525 0.1783 0.0000
vt 0.4193 0.1461 0.0000
vt 0.4415 0.6212 0.0000
vt 0.4468 0.6213 0.0000
vt 0.4119 0.7132 0.0000
vt 0.4066 0.7125 0.0000
vt 0.1196 0.6509 0.0000
vt 0.2752 0.6339 0.0000
vt 0.2200 0.7235 0.0000
vt 0.1414 0.7258 0.0000
vt 0.1014 0.8126 0.0000
vt 0.1138 0.8550 0.0000
vt 0.1003 0.8564 0.0000
vt 0.0869 0.8153 0.0000
vt 0.2728 0.7983 0.0000
vt 0.2387 0.8519 0.0000
vt 0.1597 0.8550 0.0000
vt 0.1559 0.8102 0.0000
vt 0.1175 0.8968 0.0000
vt 0.1134 0.9582 0.0000
vt 0.1079 0.9578 0.0000
vt 0.1067 0.8971 0.0000
vt 0.2000 0.8976 0.0000
vt 0.1509 0.9359 0.0000
vt 0.1599 0.8966 0.0000
vt 0.0724 0.7236 0.0000
vt 0.0536 0.7252 0.0000
vt 0.0666 0.4432 0.0000
vt 0.0487 0.5463 0.0000
vt 0.0185 0.5459 0.0000
vt 0.0334 0.4429 0.0000
vt 0.3413 0.4282 0.0000
vt 0.3142 0.5251 0.0000
vt 0.1358 0.5442 0.0000
vt 0.1466 0.4476 0.0000
vt 0.0652 0.3415 0.0000
vt 0.0328 0.3416 0.0000
vt 0.0375 0.6477 0.0000
vt 0.0146 0.6504 0.0000
vt 0.1724 0.1487 0.0000
vt 0.4870 0.1137 0.0000
vt 0.0535 0.1415 0.0000
vt 0.0904 0.1487 0.0000
vt 0.5159 0.1482 0.0000
vt 0.5353 0.1524 0.0000
vt 0.5662 0.1115 0.0000
vt 0.6619 0.0561 0.0000
vt 0.6864 0.0576 0.0000
vt 0.5905 0.1171 0.0000
vt 0.2075 0.1152 0.0000
vt 0.5246 0.0932 0.0000
vt 0.6423 0.0390 0.0000
vt 0.4846 0.0292 0.0000
vt 0.4806 0.0056 0.0000
vt 0.6651 0.0251 0.0000
vt 0.2319 0.0955 0.0000
vt 0.4597 0.0651 0.0000
vt 0.4859 0.0705 0.0000
vt 0.1080 0.1101 0.0000
vt 0.0670 0.1003 0.0000
vt 0.1089 0.0648 0.0000
vt 0.1335 0.0804 0.0000
vt 0.3194 0.8487 0.0000
vt 0.3180 0.8483 0.0000
vt 0.3547 0.7978 0.0000
vt 0.3567 0.7982 0.0000
vt 0.2200 0.9427 0.0000
vt 0.2188 0.9422 0.0000
vt 0.2714 0.8992 0.0000
vt 0.2727 0.8996 0.0000
vt 0.1715 0.9686 0.0000
vt 0.1705 0.9680 0.0000
vt 0.4400 0.5213 0.0000
vt 0.4340 0.5214 0.0000
vt 0.4346 0.4214 0.0000
vt 0.4402 0.4215 0.0000
vt 0.5358 0.0590 0.0000
vt 0.1286 0.9675 0.0000
vt 0.7714 0.0824 0.0000
vt 0.7843 0.0941 0.0000
vt 0.5654 0.2379 0.0000
vt 0.5385 0.2329 0.0000
vt 0.8849 0.1209 0.0000
vt 0.9068 0.1113 0.0000
vt 0.9369 0.1617 0.0000
vt 0.9073 0.1719 0.0000
vt 0.5370 0.2573 0.0000
vt 0.5654 0.2531 0.0000
vt 0.6385 0.2984 0.0000
vt 0.6166 0.3098 0.0000
vt 0.9624 0.1828 0.0000
vt 0.6943 0.3249 0.0000
vt 0.8164 0.0804 0.0000
vt 0.8096 0.0950 0.0000
vt 0.7999 0.1299 0.0000
vt 0.6410 0.2388 0.0000
vt 0.8330 0.1883 0.0000
vt 0.8407 0.1445 0.0000
vt 0.6804 0.2571 0.0000
vt 0.8049 0.1823 0.0000
vt 0.8132 0.1500 0.0000
vt 0.6809 0.2448 0.0000
vt 0.6667 0.2374 0.0000
vt 0.8022 0.1413 0.0000
vt 1.1203 0.9886 0.0000
vt 1.1025 0.9929 0.0000
vt 1.1022 0.9932 0.0000
vt 1.1211 0.9892 0.0000
vt 1.4753 0.2120 0.0000
vt 1.4448 0.3184 0.0000
vt 1.4502 0.3185 0.0000
vt 1.4840 0.2129 0.0000
vt 1.1494 0.2481 0.0000
vt 1.1495 0.3459 0.0000
vt 1.3533 0.3253 0.0000
vt 1.3851 0.2102 0.0000
vt 1.0597 0.2536 0.0000
vt 1.0571 0.1772 0.0000
vt 1.0271 0.1744 0.0000
vt 1.0272 0.2529 0.0000
vt 1.4193 0.1461 0.0000
vt 1.1525 0.1783 0.0000
vt 1.4415 0.6212 0.0000
vt 1.4066 0.7125 0.0000
vt 1.4119 0.7132 0.0000
vt 1.4468 0.6213 0.0000
vt 1.1196 0.6509 0.0000
vt 1.1414 0.7258 0.0000
vt 1.2200 0.7235 0.0000
vt 1.2752 0.6339 0.0000
vt 1.1014 0.8126 0.0000
vt 1.0869 0.8153 0.0000
vt 1.1003 0.8564 0.0000
vt 1.1138 0.8550 0.0000
vt 1.2728 0.7983 0.0000
vt 1.1559 0.8102 0.0000
vt 1.1597 0.8550 0.0000
vt 1.2387 0.8519 0.0000
vt 1.1175 0.8968 0.0000
vt 1.1067 0.8971 0.0000
vt 1.1079 0.9578 0.0000
vt 1.1134 0.9582 0.0000
vt 1.2000 0.8976 0.0000
vt 1.1599 0.8966 0.0000
vt 1.1509 0.9359 0.0000
vt 1.0724 0.7236 0.0000
vt 1.0536 0.7252 0.0000
vt 1.0666 0.4432 0.0000
vt 1.0334 0.4429 0.0000
vt 1.0185 0.5459 0.0000
vt 1.0487 0.5463 0.0000
vt 1.3413 0.4282 0.0000
vt 1.1466 0.4476 0.0000
vt 1.1358 0.5442 0.0000
vt 1.3142 0.5251 0.0000
vt 1.0652 0.3415 0.0000
vt 1.0328 0.3416 0.0000
vt 1.0146 0.6504 0.0000
vt 1.0375 0.6477 0.0000
vt 1.4870 0.1137 0.0000
vt 1.1724 0.1487 0.0000
vt 1.0904 0.1487 0.0000
vt 1.0535 0.1415 0.0000
vt 1.5159 0.1482 0.0000
vt 1.5353 0.1524 0.0000
vt 1.5662 0.1115 0.0000
vt 1.5905 0.1171 0.0000
vt 1.6864 0.0576 0.0000
vt 1.6619 0.0561 0.0000
vt 1.5246 0.0932 0.0000
vt 1.2075 0.1152 0.0000
vt 1.6423 0.0390 0.0000
vt 1.6651 0.0251 0.0000
vt 1.4806 0.0056 0.0000
vt 1.4846 0.0292 0.0000
vt 1.2319 0.0955 0.0000
vt 1.4859 0.0705 0.0000
vt 1.4597 0.0651 0.0000
vt 1.1080 0.1101 0.0000
vt 1.1335 0.0804 0.0000
vt 1.1089 0.0648 0.0000
vt 1.0670 0.1003 0.0000
vt 1.3194 0.8487 0.0000
vt 1.3567 0.7982 0.0000
vt 1.3547 0.7978 0.0000
vt 1.3180 0.8483 0.0000
vt 1.2200 0.9427 0.0000
vt 1.2727 0.8996 0.0000
vt 1.2714 0.8992 0.0000
vt 1.2188 0.9422 0.0000
vt 1.1715 0.9686 0.0000
vt 1.1705 0.9680 0.0000
vt 1.4400 0.5213 0.0000
vt 1.4402 0.4215 0.0000
vt 1.4346 0.4214 0.0000
vt 1.4340 0.5214 0.0000
vt 1.5358 0.0590 0.0000
vt 1.1286 0.9675 0.0000
vt 1.7714 0.0824 0.0000
vt 1.5385 0.2329 0.0000
vt 1.5654 0.2379 0.0000
vt 1.7843 0.0941 0.0000
vt 1.8849 0.1209 0.0000
vt 1.9073 0.1719 0.0000
vt 1.9369 0.1617 0.0000
vt 1.9068 0.1113 0.0000
vt 1.5370 0.2573 0.0000
vt 1.6166 0.3098 0.0000
vt 1.6385 0.2984 0.0000
vt 1.5654 0.2531 0.0000
vt 1.9624 0.1828 0.0000
vt 1.6943 0.3249 0.0000
vt 1.8164 0.0804 0.0000
vt 1.8096 0.0950 0.0000
vt 1.6410 0.2388 0.0000
vt 1.7999 0.1299 0.0000
vt 1.8407 0.1445 0.0000
vt 1.8330 0.1883 0.0000
vt 1.6804 0.2571 0.0000
vt 1.8132 0.1500 0.0000
vt 1.8049 0.1823 0.0000
vt 1.6809 0.2448 0.0000
vt 1.6667 0.2374 0.0000
vt 1.8022 0.1413 0.0000
# 374 texture coords

o JailProp_Dagger01
g JailProp_Dagger01
usemtl JailProp_Dagger01
s 1
f 1/1/1 2/2/2 3/3/3 4/4/4 
f 5/5/5 6/6/6 7/7/7 8/8/8 
f 9/9/9 10/10/10 11/11/11 12/12/12 
f 13/13/13 14/14/14 15/15/15 16/16/16 
f 6/6/6 5/5/5 17/17/17 18/18/18 
f 19/19/19 10/10/10 20/20/20 21/21/21 
f 14/14/14 13/13/13 22/22/22 23/23/23 
f 24/24/24 25/25/25 26/26/26 27/27/27 
f 28/28/28 20/20/20 29/29/29 
f 30/30/30 31/31/31 23/23/23 22/22/22 
f 17/17/17 32/32/32 33/33/33 18/18/18 
f 32/32/32 34/34/34 35/35/35 33/33/33 
f 36/36/36 37/37/37 38/38/38 39/39/39 
f 25/25/25 36/36/36 39/39/39 26/26/26 
f 40/40/40 41/41/41 42/42/42 43/43/43 
f 44/44/44 45/45/45 46/46/46 47/47/47 
f 37/37/37 48/48/48 49/49/49 38/38/38 
f 41/41/41 50/50/50 51/51/51 42/42/42 
f 45/45/45 52/52/52 53/53/53 46/46/46 
f 3/3/3 54/54/54 55/55/55 4/4/4 
f 10/10/10 19/19/19 56/56/56 11/11/11 
f 10/10/10 9/9/9 20/20/20 
f 57/57/57 58/58/58 43/43/43 
f 43/43/43 58/58/58 59/59/59 
f 60/60/60 21/21/21 20/20/20 
f 61/61/61 62/62/62 42/42/42 
f 42/42/42 62/62/62 43/43/43 
f 51/51/51 63/63/63 42/42/42 
f 2/2/2 48/48/48 63/63/63 
f 8/8/8 64/64/64 56/56/56 
f 12/12/12 65/65/65 15/15/15 
f 50/50/50 53/53/53 54/54/54 
f 2/2/2 1/1/1 49/49/49 48/48/48 
f 3/3/3 2/2/2 63/63/63 51/51/51 
f 8/8/8 7/7/7 64/64/64 
f 5/5/5 8/8/8 56/56/56 19/19/19 
f 12/12/12 11/11/11 66/66/66 65/65/65 
f 9/9/9 12/12/12 15/15/15 14/14/14 
f 16/16/16 15/15/15 65/65/65 
f 64/64/64 66/66/66 11/11/11 56/56/56 
f 17/17/17 5/5/5 19/19/19 21/21/21 
f 14/14/14 23/23/23 29/29/29 9/9/9 
f 25/25/25 24/24/24 58/58/58 57/57/57 
f 24/24/24 34/34/34 67/67/67 58/58/58 
f 40/40/40 28/28/28 31/31/31 47/47/47 
f 32/32/32 17/17/17 21/21/21 60/60/60 
f 34/34/34 32/32/32 60/60/60 67/67/67 
f 37/37/37 36/36/36 62/62/62 61/61/61 
f 36/36/36 25/25/25 57/57/57 62/62/62 
f 41/41/41 40/40/40 47/47/47 46/46/46 
f 48/48/48 37/37/37 61/61/61 63/63/63 
f 50/50/50 41/41/41 46/46/46 53/53/53 
f 51/51/51 50/50/50 54/54/54 3/3/3 
f 53/53/53 52/52/52 55/55/55 54/54/54 
f 34/34/34 24/24/24 27/27/27 35/35/35 
f 28/28/28 40/40/40 43/43/43 59/59/59 
f 30/30/30 44/44/44 47/47/47 31/31/31 
f 67/67/67 60/60/60 59/59/59 
f 28/28/28 29/29/29 23/23/23 31/31/31 
f 28/28/28 59/59/59 20/20/20 
f 9/9/9 29/29/29 20/20/20 
f 60/60/60 20/20/20 59/59/59 
f 63/63/63 61/61/61 42/42/42 
f 62/62/62 57/57/57 43/43/43 
f 58/58/58 67/67/67 59/59/59 
f 1/68/1 4/69/4 68/70/68 69/71/69 
f 70/72/70 71/73/71 7/74/7 6/75/6 
f 72/76/72 73/77/73 74/78/74 75/79/75 
f 13/80/13 16/81/16 76/82/76 77/83/77 
f 6/75/6 18/84/18 78/85/78 70/72/70 
f 79/86/79 80/87/80 81/88/81 75/79/75 
f 77/83/77 82/89/82 22/90/22 13/80/13 
f 83/91/83 27/92/27 26/93/26 84/94/84 
f 85/95/85 86/96/86 81/88/81 
f 30/97/30 22/90/22 82/89/82 87/98/87 
f 78/85/78 18/84/18 33/99/33 88/100/88 
f 88/100/88 33/99/33 35/101/35 89/102/89 
f 90/103/90 39/104/39 38/105/38 91/106/91 
f 84/94/84 26/93/26 39/104/39 90/103/90 
f 92/107/92 93/108/93 94/109/94 95/110/95 
f 44/111/44 96/112/96 97/113/97 45/114/45 
f 91/106/91 38/105/38 49/115/49 98/116/98 
f 95/110/95 94/109/94 99/117/99 100/118/100 
f 45/114/45 97/113/97 101/119/101 52/120/52 
f 68/70/68 4/69/4 55/121/55 102/122/102 
f 75/79/75 74/78/74 103/123/103 79/86/79 
f 75/79/75 81/88/81 72/76/72 
f 104/124/104 93/108/93 105/125/105 
f 93/108/93 106/126/106 105/125/105 
f 107/127/107 81/88/81 80/87/80 
f 108/128/108 94/109/94 109/129/109 
f 94/109/94 93/108/93 109/129/109 
f 99/117/99 94/109/94 110/130/110 
f 69/71/69 110/130/110 98/116/98 
f 71/73/71 103/123/103 64/131/64 
f 73/77/73 76/82/76 65/132/65 
f 100/118/100 102/122/102 101/119/101 
f 69/71/69 98/116/98 49/115/49 1/68/1 
f 68/70/68 99/117/99 110/130/110 69/71/69 
f 71/73/71 64/131/64 7/74/7 
f 70/72/70 79/86/79 103/123/103 71/73/71 
f 73/77/73 65/132/65 111/133/111 74/78/74 
f 72/76/72 77/83/77 76/82/76 73/77/73 
f 16/81/16 65/132/65 76/82/76 
f 64/131/64 103/123/103 74/78/74 111/133/111 
f 78/85/78 80/87/80 79/86/79 70/72/70 
f 77/83/77 72/76/72 86/96/86 82/89/82 
f 84/94/84 104/124/104 105/125/105 83/91/83 
f 83/91/83 105/125/105 112/134/112 89/102/89 
f 92/107/92 96/112/96 87/98/87 85/95/85 
f 88/100/88 107/127/107 80/87/80 78/85/78 
f 89/102/89 112/134/112 107/127/107 88/100/88 
f 91/106/91 108/128/108 109/129/109 90/103/90 
f 90/103/90 109/129/109 104/124/104 84/94/84 
f 95/110/95 97/113/97 96/112/96 92/107/92 
f 98/116/98 110/130/110 108/128/108 91/106/91 
f 100/118/100 101/119/101 97/113/97 95/110/95 
f 99/117/99 68/70/68 102/122/102 100/118/100 
f 101/119/101 102/122/102 55/121/55 52/120/52 
f 89/102/89 35/101/35 27/92/27 83/91/83 
f 85/95/85 106/126/106 93/108/93 92/107/92 
f 30/97/30 87/98/87 96/112/96 44/111/44 
f 112/134/112 106/126/106 107/127/107 
f 85/95/85 87/98/87 82/89/82 86/96/86 
f 85/95/85 81/88/81 106/126/106 
f 72/76/72 81/88/81 86/96/86 
f 107/127/107 106/126/106 81/88/81 
f 110/130/110 94/109/94 108/128/108 
f 109/129/109 93/108/93 104/124/104 
f 105/125/105 106/126/106 112/134/112 
s 4
f 113/135/113 114/136/114 115/137/115 116/138/116 
f 117/139/117 118/140/118 119/141/119 120/142/120 
s 512
f 121/143/121 122/144/122 123/145/123 124/146/124 
s 16
f 125/147/125 126/148/126 127/149/127 128/150/128 
s 512
f 122/144/122 121/143/121 129/151/129 130/152/130 
s 4
f 131/153/131 132/154/132 133/155/133 134/156/134 
s 512
f 135/157/135 136/158/136 137/159/137 138/160/138 
s 8
f 139/161/139 140/162/140 141/163/141 142/164/142 
s 2
f 143/165/143 144/166/144 145/167/145 146/168/146 
s 8
f 147/169/147 148/170/148 149/171/149 150/172/150 
s 2
f 151/173/151 152/174/152 153/175/153 
s 8
f 148/170/148 116/138/116 115/137/115 149/171/149 
f 140/162/140 147/169/147 150/172/150 141/163/141 
s 2
f 144/166/144 151/173/151 153/175/153 145/167/145 
s 8
f 154/176/154 139/161/139 142/164/142 155/177/155 
s 512
f 137/159/137 146/168/146 138/160/138 
s 16
f 156/178/156 157/179/157 158/180/158 159/181/159 
s 512
f 160/182/160 161/183/161 162/184/162 163/185/163 
s 16
f 164/186/164 156/178/156 159/181/159 165/187/165 
s 512
f 123/145/123 160/182/160 163/185/163 124/146/124 
s 16
f 157/179/157 166/188/166 167/189/167 158/180/158 
s 512
f 161/183/161 136/158/136 135/157/135 162/184/162 
f 130/152/130 168/190/168 169/191/169 
s 4
f 128/150/128 127/149/127 170/192/170 171/193/171 
f 172/194/172 173/195/173 118/140/118 117/139/117 
f 174/196/174 175/197/175 176/198/176 177/199/177 
s 512
f 168/190/168 178/200/178 179/201/179 169/191/169 
s 128
f 180/202/180 181/203/181 182/204/182 183/205/183 
s 1
f 184/206/184 185/207/185 186/208/186 
s 512
f 179/201/179 178/200/178 186/208/186 
s 4
f 187/209/187 188/210/188 189/211/189 190/212/190 
s 256
f 182/204/182 181/203/181 190/212/190 189/211/189 
s 16
f 126/148/126 125/147/125 164/186/164 165/187/165 
s 8
f 167/189/167 166/188/166 154/176/154 155/177/155 
s 4
f 191/213/191 192/214/192 193/215/193 194/216/194 
f 195/217/195 196/218/196 197/219/197 198/220/198 
f 199/221/199 200/222/200 196/218/196 195/217/195 
f 114/136/114 113/135/113 200/222/200 199/221/199 
f 198/220/198 197/219/197 192/214/192 191/213/191 
f 194/216/194 193/215/193 134/156/134 133/155/133 
f 201/223/201 202/224/202 203/225/203 204/226/204 
f 204/226/204 203/225/203 120/142/120 119/141/119 
f 132/154/132 131/153/131 202/224/202 201/223/201 
f 173/195/173 172/194/172 174/196/174 177/199/177 
f 188/210/188 187/209/187 171/193/171 170/192/170 
s 128
f 176/198/176 175/197/175 180/202/180 183/205/183 
s 256
f 190/212/190 181/203/181 185/207/185 184/206/184 
s 128
f 181/203/181 205/227/205 185/207/185 
s 512
f 179/201/179 186/208/186 205/227/205 
s 1
f 175/197/175 174/196/174 169/191/169 179/201/179 
f 174/196/174 172/194/172 130/152/130 169/191/169 
f 172/194/172 117/139/117 122/144/122 130/152/130 
s 2
f 117/139/117 120/142/120 123/145/123 122/144/122 
f 120/142/120 203/225/203 160/182/160 123/145/123 
f 203/225/203 202/224/202 161/183/161 160/182/160 
f 202/224/202 131/153/131 136/158/136 161/183/161 
f 131/153/131 134/156/134 137/159/137 136/158/136 
f 134/156/134 193/215/193 143/165/143 137/159/137 
f 193/215/193 192/214/192 144/166/144 143/165/143 
f 192/214/192 197/219/197 151/173/151 144/166/144 
f 197/219/197 196/218/196 152/174/152 151/173/151 
f 196/218/196 200/222/200 152/174/152 
f 200/222/200 206/228/206 152/174/152 
f 113/135/113 116/138/116 206/228/206 
s 1
f 116/138/116 148/170/148 206/228/206 
f 148/170/148 147/169/147 153/175/153 152/174/152 
f 147/169/147 140/162/140 145/167/145 153/175/153 
f 140/162/140 139/161/139 146/168/146 145/167/145 
f 139/161/139 154/176/154 138/160/138 146/168/146 
f 154/176/154 166/188/166 135/157/135 138/160/138 
f 166/188/166 157/179/157 162/184/162 135/157/135 
f 157/179/157 156/178/156 163/185/163 162/184/162 
f 156/178/156 164/186/164 124/146/124 163/185/163 
f 164/186/164 125/147/125 121/143/121 124/146/124 
f 125/147/125 128/150/128 129/151/129 121/143/121 
f 128/150/128 171/193/171 168/190/168 129/151/129 
f 171/193/171 187/209/187 178/200/178 168/190/168 
f 187/209/187 190/212/190 184/206/184 178/200/178 
f 148/170/148 152/174/152 206/228/206 
s 2
f 137/159/137 143/165/143 146/168/146 
s 128
f 186/208/186 185/207/185 205/227/205 
f 181/203/181 180/202/180 205/227/205 
s 1
f 205/227/205 175/197/175 179/201/179 
f 178/200/178 184/206/184 186/208/186 
s 2
f 200/222/200 113/135/113 206/228/206 
s 1
f 205/227/205 180/202/180 175/197/175 
s 512
f 130/152/130 129/151/129 168/190/168 
s 1
f 207/229/207 208/230/208 209/231/209 210/232/210 
f 211/233/211 212/234/212 213/235/213 214/236/214 
f 215/237/215 216/238/216 217/239/217 218/240/218 
s 2
f 214/236/214 213/235/213 219/241/219 
s 1
f 218/240/218 217/239/217 220/242/220 
s 4
f 217/239/217 214/236/214 219/241/219 220/242/220 
s 2
f 221/243/221 222/244/222 208/230/208 207/229/207 
s 4
f 222/244/222 216/238/216 209/231/209 208/230/208 
s 1
f 216/238/216 215/237/215 210/232/210 209/231/209 
s 4
f 216/238/216 222/244/222 223/245/223 224/246/224 
f 211/233/211 214/236/214 225/247/225 226/248/226 
f 214/236/214 217/239/217 227/249/227 225/247/225 
f 217/239/217 216/238/216 224/246/224 227/249/227 
s 1
f 226/248/226 225/247/225 228/250/228 229/251/229 
f 225/247/225 227/249/227 230/252/230 228/250/228 
s 2
f 227/249/227 224/246/224 231/253/231 230/252/230 
s 1
f 224/246/224 223/245/223 232/254/232 231/253/231 
s 2
f 212/234/212 211/233/211 222/244/222 221/243/221 
s 4
f 223/245/223 222/244/222 211/233/211 226/248/226 
s 2
f 226/248/226 229/251/229 232/254/232 223/245/223 
s 4
f 233/255/233 234/256/234 115/257/115 114/258/114 
f 235/259/235 236/260/236 119/261/119 118/262/118 
s 512
f 237/263/237 238/264/238 239/265/239 240/266/240 
s 16
f 241/267/241 242/268/242 127/269/127 126/270/126 
s 512
f 240/266/240 243/271/243 244/272/244 237/263/237 
s 4
f 245/273/245 246/274/246 133/275/133 132/276/132 
s 512
f 247/277/247 248/278/248 249/279/249 250/280/250 
s 8
f 251/281/251 142/282/142 141/283/141 252/284/252 
s 2
f 253/285/253 254/286/254 255/287/255 256/288/256 
s 8
f 257/289/257 150/290/150 149/291/149 258/292/258 
s 2
f 259/293/259 260/294/260 261/295/261 
s 8
f 258/292/258 149/291/149 115/257/115 234/256/234 
f 252/284/252 141/283/141 150/290/150 257/289/257 
s 2
f 256/288/256 255/287/255 260/294/260 259/293/259 
s 8
f 262/296/262 155/297/155 142/282/142 251/281/251 
s 512
f 249/279/249 248/278/248 254/286/254 
s 16
f 263/298/263 159/299/159 158/300/158 264/301/264 
s 512
f 265/302/265 266/303/266 267/304/267 268/305/268 
s 16
f 269/306/269 165/307/165 159/299/159 263/298/263 
s 512
f 239/265/239 238/264/238 266/303/266 265/302/265 
s 16
f 264/301/264 158/300/158 167/308/167 270/309/270 
s 512
f 268/305/268 267/304/267 247/277/247 250/280/250 
f 243/271/243 271/310/271 272/311/272 
s 4
f 242/268/242 273/312/273 170/313/170 127/269/127 
f 274/314/274 235/259/235 118/262/118 173/315/173 
f 275/316/275 177/317/177 176/318/176 276/319/276 
s 512
f 272/311/272 271/310/271 277/320/277 278/321/278 
s 128
f 279/322/279 183/323/183 182/324/182 280/325/280 
s 1
f 281/326/281 282/327/282 283/328/283 
s 512
f 277/320/277 282/327/282 278/321/278 
s 4
f 284/329/284 285/330/285 189/331/189 188/332/188 
s 256
f 182/324/182 189/331/189 285/330/285 280/325/280 
s 16
f 126/270/126 165/307/165 269/306/269 241/267/241 
s 8
f 167/308/167 155/297/155 262/296/262 270/309/270 
s 4
f 191/333/191 194/334/194 286/335/286 287/336/287 
f 195/337/195 198/338/198 288/339/288 289/340/289 
f 199/341/199 195/337/195 289/340/289 290/342/290 
f 114/258/114 199/341/199 290/342/290 233/255/233 
f 198/338/198 191/333/191 287/336/287 288/339/288 
f 194/334/194 133/275/133 246/274/246 286/335/286 
f 201/343/201 204/344/204 291/345/291 292/346/292 
f 204/344/204 119/261/119 236/260/236 291/345/291 
f 132/276/132 201/343/201 292/346/292 245/273/245 
f 173/315/173 177/317/177 275/316/275 274/314/274 
f 188/332/188 170/313/170 273/312/273 284/329/284 
s 128
f 176/318/176 183/323/183 279/322/279 276/319/276 
s 256
f 285/330/285 281/326/281 283/328/283 280/325/280 
s 128
f 280/325/280 283/328/283 293/347/293 
s 512
f 277/320/277 293/347/293 282/327/282 
s 1
f 276/319/276 277/320/277 271/310/271 275/316/275 
f 275/316/275 271/310/271 243/271/243 274/314/274 
f 274/314/274 243/271/243 240/266/240 235/259/235 
s 2
f 235/259/235 240/266/240 239/265/239 236/260/236 
f 236/260/236 239/265/239 265/302/265 291/345/291 
f 291/345/291 265/302/265 268/305/268 292/346/292 
f 292/346/292 268/305/268 250/280/250 245/273/245 
f 245/273/245 250/280/250 249/279/249 246/274/246 
f 246/274/246 249/279/249 253/285/253 286/335/286 
f 286/335/286 253/285/253 256/288/256 287/336/287 
f 287/336/287 256/288/256 259/293/259 288/339/288 
f 288/339/288 259/293/259 261/295/261 289/340/289 
f 289/340/289 261/295/261 290/342/290 
f 290/342/290 261/295/261 294/348/294 
f 233/255/233 294/348/294 234/256/234 
s 1
f 234/256/234 294/348/294 258/292/258 
f 258/292/258 261/295/261 260/294/260 257/289/257 
f 257/289/257 260/294/260 255/287/255 252/284/252 
f 252/284/252 255/287/255 254/286/254 251/281/251 
f 251/281/251 254/286/254 248/278/248 262/296/262 
f 262/296/262 248/278/248 247/277/247 270/309/270 
f 270/309/270 247/277/247 267/304/267 264/301/264 
f 264/301/264 267/304/267 266/303/266 263/298/263 
f 263/298/263 266/303/266 238/264/238 269/306/269 
f 269/306/269 238/264/238 237/263/237 241/267/241 
f 241/267/241 237/263/237 244/272/244 242/268/242 
f 242/268/242 244/272/244 272/311/272 273/312/273 
f 273/312/273 272/311/272 278/321/278 284/329/284 
f 284/329/284 278/321/278 281/326/281 285/330/285 
f 258/292/258 294/348/294 261/295/261 
s 2
f 249/279/249 254/286/254 253/285/253 
s 128
f 282/327/282 293/347/293 283/328/283 
f 280/325/280 293/347/293 279/322/279 
s 1
f 293/347/293 277/320/277 276/319/276 
f 278/321/278 282/327/282 281/326/281 
s 2
f 290/342/290 294/348/294 233/255/233 
s 1
f 293/347/293 276/319/276 279/322/279 
s 512
f 243/271/243 272/311/272 244/272/244 
s 1
f 207/349/207 210/350/210 295/351/295 296/352/296 
f 297/353/297 298/354/298 213/355/213 212/356/212 
f 215/357/215 218/358/218 299/359/299 300/360/300 
s 2
f 298/354/298 219/361/219 213/355/213 
s 1
f 218/358/218 220/362/220 299/359/299 
s 4
f 299/359/299 220/362/220 219/361/219 298/354/298 
s 2
f 221/363/221 207/349/207 296/352/296 301/364/301 
s 4
f 301/364/301 296/352/296 295/351/295 300/360/300 
s 1
f 300/360/300 295/351/295 210/350/210 215/357/215 
s 4
f 300/360/300 302/365/302 303/366/303 301/364/301 
f 297/353/297 304/367/304 305/368/305 298/354/298 
f 298/354/298 305/368/305 306/369/306 299/359/299 
f 299/359/299 306/369/306 302/365/302 300/360/300 
s 1
f 304/367/304 229/370/229 228/371/228 305/368/305 
f 305/368/305 228/371/228 230/372/230 306/369/306 
s 2
f 306/369/306 230/372/230 231/373/231 302/365/302 
s 1
f 302/365/302 231/373/231 232/374/232 303/366/303 
s 2
f 212/356/212 221/363/221 301/364/301 297/353/297 
s 4
f 303/366/303 304/367/304 297/353/297 301/364/301 
s 2
f 304/367/304 303/366/303 232/374/232 229/370/229 
# 258 polygons - 86 triangles

