# 3ds Max Wavefront OBJ Exporter v0.99 - (c)2007 guruware
# File Created: 15.12.2025 15:05:31

mtllib Jail_Desk_001.mtl

#
# object Desk
#

v  -0.5365 0.8276 1.2094
v  0.5365 0.8276 1.2094
v  0.5365 0.8276 1.1296
v  -0.5365 0.8276 1.1296
v  -0.5365 0.7509 1.2094
v  0.5365 0.7509 1.2094
v  0.6272 0.7509 1.2094
v  0.6272 0.7509 1.1296
v  0.6272 0.8276 1.1296
v  0.6272 0.8276 1.2094
v  -0.6272 0.7509 -0.0000
v  -0.6272 0.7509 1.1296
v  -0.6272 0.8276 1.1296
v  -0.6272 0.8276 -0.0000
v  -0.5365 0.7509 -0.0000
v  0.5365 0.7509 -0.0000
v  0.5365 0.7509 1.1296
v  -0.5365 0.7509 1.1296
v  0.5365 0.8276 -0.0000
v  -0.5365 0.8276 -0.0000
v  0.6272 0.7509 -0.0000
v  0.6272 0.8276 -0.0000
v  -0.6272 0.7509 1.2094
v  -0.6272 0.8276 1.2094
v  0.5365 0.0000 1.1296
v  0.6272 0.0000 1.1296
v  0.6272 0.0000 1.2094
v  0.5365 0.0000 1.2094
v  -0.5365 0.0000 1.2094
v  -0.6272 0.0000 1.2094
v  -0.6272 0.0000 1.1296
v  -0.5365 0.0000 1.1296
v  -0.5365 0.8276 -1.2094
v  -0.5365 0.8276 -1.1296
v  0.5365 0.8276 -1.1296
v  0.5365 0.8276 -1.2094
v  -0.5365 0.7509 -1.2094
v  0.5365 0.7509 -1.2094
v  0.6272 0.7509 -1.2094
v  0.6272 0.8276 -1.2094
v  0.6272 0.8276 -1.1296
v  0.6272 0.7509 -1.1296
v  -0.6272 0.8276 -1.1296
v  -0.6272 0.7509 -1.1296
v  -0.5365 0.7509 -1.1296
v  0.5365 0.7509 -1.1296
v  -0.6272 0.8276 -1.2094
v  -0.6272 0.7509 -1.2094
v  0.5365 0.0000 -1.1296
v  0.5365 0.0000 -1.2094
v  0.6272 0.0000 -1.2094
v  0.6272 0.0000 -1.1296
v  -0.5365 0.0000 -1.2094
v  -0.5365 0.0000 -1.1296
v  -0.6272 0.0000 -1.1296
v  -0.6272 0.0000 -1.2094
# 56 vertices

vn 0.0000 0.7071 0.7071
vn 0.0000 1.0000 -0.0000
vn 0.3015 -0.3015 0.9045
vn -0.3015 -0.3015 0.9045
vn 0.7071 0.0000 0.7071
vn 0.9045 -0.3015 -0.3015
vn 0.7071 0.7071 -0.0000
vn 0.5774 0.5774 0.5774
vn -0.7071 -0.7071 -0.0000
vn -0.9045 -0.3015 -0.3015
vn -0.7071 0.7071 -0.0000
vn 0.0000 -1.0000 -0.0000
vn -0.3015 -0.9045 -0.3015
vn 0.3015 -0.9045 -0.3015
vn 0.7071 -0.7071 -0.0000
vn -0.7071 0.0000 0.7071
vn -0.5774 0.5774 0.5774
vn -0.5774 -0.5774 -0.5773
vn 0.5774 -0.5774 -0.5774
vn 0.5774 -0.5774 0.5774
vn -0.5774 -0.5774 0.5774
vn 0.5774 -0.5774 0.5773
vn -0.5774 -0.5774 -0.5774
vn 0.0000 0.7071 -0.7071
vn 0.3015 -0.3015 -0.9045
vn -0.3015 -0.3015 -0.9045
vn 0.7071 0.0000 -0.7071
vn 0.5774 0.5774 -0.5774
vn 0.9045 -0.3015 0.3015
vn -0.9045 -0.3015 0.3015
vn 0.3015 -0.9045 0.3015
vn -0.3015 -0.9045 0.3015
vn -0.5774 0.5774 -0.5774
vn -0.7071 0.0000 -0.7071
vn -0.5774 -0.5774 0.5773
vn 0.5774 -0.5774 -0.5773
# 36 vertex normals

vt 0.0723 0.0000 0.0000
vt 0.9277 0.0000 0.0000
vt 0.9277 0.0425 0.0000
vt 0.0723 0.0425 0.0000
vt 0.9277 1.0000 0.0000
vt 0.0723 1.0000 0.0000
vt 0.0000 0.0000 0.0000
vt 0.0425 0.0000 0.0000
vt 0.0425 1.0000 0.0000
vt 0.0000 1.0000 0.0000
vt 0.5000 0.0000 0.0000
vt 0.9575 0.0000 0.0000
vt 0.9575 1.0000 0.0000
vt 0.5000 1.0000 0.0000
vt 0.9277 0.5000 0.0000
vt 0.0723 0.5000 0.0000
vt 1.0000 0.0000 0.0000
vt 1.0000 1.0000 0.0000
vt 0.8913 0.0000 0.0000
vt 0.1087 0.0000 0.0000
vt 1.0000 0.0425 0.0000
vt 0.0000 0.0425 0.0000
vt 0.0000 0.5000 0.0000
vt 1.0000 0.5000 0.0000
# 24 texture coords

o Desk
g Desk
usemtl Material__65
s 4
f 1/1/1 2/2/1 3/3/2 4/4/2 
s 8
f 5/1/3 6/2/4 2/5/1 1/6/1 
s 16
f 7/7/5 8/8/6 9/9/7 10/10/8 
s 64
f 11/11/9 12/12/10 13/13/11 14/14/11 
s 2
f 15/15/12 16/16/12 17/4/13 18/3/14 
s 4
f 19/15/2 20/16/2 4/4/2 3/3/2 
s 16
f 8/8/6 21/11/15 22/14/7 9/9/7 
s 64
f 12/12/10 23/17/16 24/18/17 13/13/11 
s off
f 18/19/14 17/20/13 6/7/4 5/7/3 
s 4
f 2/2/1 10/17/8 9/21/7 3/3/2 
f 4/4/2 13/22/11 24/7/17 1/1/1 
s 8
f 6/2/4 7/17/5 10/18/8 2/5/1 
f 1/6/1 24/10/17 23/7/16 5/1/3 
s 2
f 16/16/12 21/23/15 8/22/6 17/4/13 
f 18/3/14 12/21/10 11/24/9 15/15/12 
s 4
f 20/16/2 14/23/11 13/22/11 4/4/2 
f 3/3/2 9/21/7 22/24/7 19/15/2 
s off
f 25/20/18 26/8/19 27/7/20 28/7/21 
f 29/7/22 30/7/21 31/12/23 32/19/19 
s 16
f 8/8/6 7/7/5 27/7/20 26/8/19 
s 8
f 7/7/5 6/7/4 28/7/21 27/7/20 
s off
f 6/7/4 17/20/13 25/20/18 28/7/21 
f 17/20/13 8/8/6 26/8/19 25/20/18 
s 64
f 23/7/16 12/12/10 31/12/23 30/7/21 
s off
f 12/12/10 18/19/14 32/19/19 31/12/23 
f 18/19/14 5/7/3 29/7/22 32/19/19 
s 8
f 5/7/3 23/7/16 30/7/21 29/7/22 
s 4
f 33/1/24 34/4/2 35/3/2 36/2/24 
s 8
f 37/1/25 33/6/24 36/5/24 38/2/26 
s 16
f 39/7/27 40/10/28 41/9/7 42/8/29 
s 64
f 11/11/9 14/14/11 43/13/11 44/12/30 
s 2
f 15/15/12 45/3/31 46/4/32 16/16/12 
s 4
f 19/15/2 35/3/2 34/4/2 20/16/2 
s 16
f 42/8/29 41/9/7 22/14/7 21/11/15 
s 64
f 44/12/30 43/13/11 47/18/33 48/17/34 
s off
f 45/19/31 37/7/25 38/7/26 46/20/32 
s 4
f 36/2/24 35/3/2 41/21/7 40/17/28 
f 34/4/2 33/1/24 47/7/33 43/22/11 
s 8
f 38/2/26 36/5/24 40/18/28 39/17/27 
f 33/6/24 37/1/25 48/7/34 47/10/33 
s 2
f 16/16/12 46/4/32 42/22/29 21/23/15 
f 45/3/31 15/15/12 11/24/9 44/21/30 
s 4
f 20/16/2 34/4/2 43/22/11 14/23/11 
f 35/3/2 19/15/2 22/24/7 41/21/7 
s off
f 49/20/35 50/7/23 51/7/19 52/8/20 
f 53/7/36 54/19/20 55/12/21 56/7/23 
s 16
f 42/8/29 52/8/20 51/7/19 39/7/27 
s 8
f 39/7/27 51/7/19 50/7/23 38/7/26 
s off
f 38/7/26 50/7/23 49/20/35 46/20/32 
f 46/20/32 49/20/35 52/8/20 42/8/29 
s 64
f 48/7/34 56/7/23 55/12/21 44/12/30 
s off
f 44/12/30 55/12/21 54/19/20 45/19/31 
f 45/19/31 54/19/20 53/7/36 37/7/25 
s 8
f 37/7/25 53/7/36 56/7/23 48/7/34 
# 54 polygons

