# 3ds Max Wavefront OBJ Exporter v0.99 - (c)2007 guruware
# File Created: 23.12.2025 20:49:46

mtllib Prop_WhiteBoard.mtl

#
# object Office_Board002
#

v  2.4017 1.0177 0.0311
v  2.4017 1.0177 -0.0311
v  2.4017 3.2176 -0.0311
v  2.4017 3.2176 0.0311
v  0.0000 1.0177 -0.0311
v  0.0000 3.2176 -0.0311
v  -0.0000 1.0177 0.0311
v  -0.0000 3.2176 0.0311
v  2.3242 0.3688 0.0746
v  2.3242 0.3688 -0.0746
v  2.4252 0.3688 -0.0746
v  2.4252 0.3688 0.0746
v  2.3242 3.2809 0.0746
v  2.3242 3.2809 -0.0746
v  2.4252 3.2809 -0.0746
v  2.4252 3.2809 0.0746
v  2.3747 3.2809 -0.0000
v  2.3351 0.0339 -0.3390
v  2.3352 0.0339 -0.3886
v  2.4143 0.0339 -0.3886
v  2.4143 0.0339 -0.3390
v  2.3352 0.1122 -0.3886
v  2.3351 0.0810 -0.3390
v  2.3351 0.4542 0.0000
v  2.3351 0.5417 0.0000
v  2.4143 0.1122 -0.3886
v  2.4143 0.5417 0.0000
v  2.4143 0.0810 -0.3390
v  2.4143 0.4542 0.0000
v  2.3351 0.0339 0.3390
v  2.4143 0.0339 0.3390
v  2.4143 0.0339 0.3886
v  2.3352 0.0339 0.3886
v  2.3352 0.1122 0.3886
v  2.3351 0.0810 0.3390
v  2.4143 0.1122 0.3886
v  2.4143 0.0810 0.3390
v  2.3351 0.0810 -0.0005
v  2.4143 0.0810 -0.0005
v  2.3351 0.0339 -0.0005
v  2.4143 0.0339 -0.0005
v  0.0000 3.2606 0.0691
v  2.4076 3.2606 0.0691
v  2.4076 3.2606 -0.0691
v  0.0000 3.2606 -0.0691
v  0.0000 3.1691 0.0691
v  2.4076 3.1691 0.0691
v  2.4076 3.1691 -0.0691
v  0.0000 3.1691 -0.0691
v  0.0000 1.0544 0.0691
v  2.4076 1.0544 0.0691
v  2.4076 1.0544 -0.0691
v  0.0000 1.0544 -0.0691
v  0.0000 0.9629 0.0691
v  2.4076 0.9629 0.0691
v  2.4076 0.9629 -0.0691
v  0.0000 0.9629 -0.0691
v  -2.4017 1.0177 0.0311
v  -2.4017 3.2176 0.0311
v  -2.4017 3.2176 -0.0311
v  -2.4017 1.0177 -0.0311
v  -2.3242 0.3688 0.0746
v  -2.4252 0.3688 0.0746
v  -2.4252 0.3688 -0.0746
v  -2.3242 0.3688 -0.0746
v  -2.3242 3.2809 -0.0746
v  -2.3242 3.2809 0.0746
v  -2.4252 3.2809 -0.0746
v  -2.4252 3.2809 0.0746
v  -2.3747 3.2809 -0.0000
v  -2.3351 0.0339 -0.3390
v  -2.4143 0.0339 -0.3390
v  -2.4143 0.0339 -0.3886
v  -2.3352 0.0339 -0.3886
v  -2.3352 0.1122 -0.3886
v  -2.3351 0.5417 0.0000
v  -2.3351 0.4542 0.0000
v  -2.3351 0.0810 -0.3390
v  -2.4143 0.1122 -0.3886
v  -2.4143 0.5417 0.0000
v  -2.4143 0.0810 -0.3390
v  -2.4143 0.4542 0.0000
v  -2.3351 0.0339 0.3390
v  -2.3352 0.0339 0.3886
v  -2.4143 0.0339 0.3886
v  -2.4143 0.0339 0.3390
v  -2.3352 0.1122 0.3886
v  -2.3351 0.0810 0.3390
v  -2.4143 0.1122 0.3886
v  -2.4143 0.0810 0.3390
v  -2.4143 0.0810 -0.0005
v  -2.3351 0.0810 -0.0005
v  -2.3351 0.0339 -0.0005
v  -2.4143 0.0339 -0.0005
v  -2.4076 3.2606 -0.0691
v  -2.4076 3.2606 0.0691
v  -2.4076 3.1691 0.0691
v  -2.4076 3.1691 -0.0691
v  -2.4076 1.0544 -0.0691
v  -2.4076 1.0544 0.0691
v  -2.4076 0.9629 0.0691
v  -2.4076 0.9629 -0.0691
# 102 vertices

vn 0.5774 -0.5774 0.5774
vn 0.5774 -0.5774 -0.5774
vn 0.5774 0.5774 -0.5774
vn 0.5774 0.5774 0.5774
vn -0.0000 -0.7071 -0.7071
vn -0.0000 0.7071 -0.7071
vn 0.0000 -0.7071 0.7071
vn 0.0000 0.7071 0.7071
vn -0.5774 -0.5773 0.5773
vn -0.5773 -0.5774 -0.5774
vn 0.5774 -0.5773 -0.5773
vn 0.5773 -0.5774 0.5774
vn -0.5774 0.5774 0.5773
vn -0.5773 0.5773 -0.5774
vn 0.5774 0.5774 -0.5773
vn 0.5773 0.5773 0.5774
vn 0.0000 1.0000 -0.0000
vn -0.7071 -0.7071 -0.0000
vn -0.5773 -0.5773 -0.5774
vn 0.5774 -0.5774 -0.5773
vn 0.7071 -0.7071 0.0000
vn -0.6344 0.2779 -0.7213
vn -0.9738 0.0920 0.2078
vn -0.9155 -0.4022 0.0000
vn -0.5723 0.8201 -0.0000
vn 0.6344 0.2779 -0.7213
vn 0.5723 0.8200 0.0000
vn 0.9738 0.0920 0.2078
vn 0.9155 -0.4022 -0.0000
vn -0.7071 -0.7071 0.0000
vn 0.7071 -0.7071 -0.0000
vn 0.5774 -0.5774 0.5773
vn -0.5773 -0.5773 0.5774
vn -0.6344 0.2779 0.7213
vn -0.9738 0.0920 -0.2078
vn 0.6344 0.2779 0.7213
vn 0.9738 0.0920 -0.2078
vn -0.7071 0.7071 -0.0000
vn 0.7071 0.7071 0.0000
vn -0.0000 0.7071 0.7071
vn 0.0000 -0.7071 -0.7071
vn 0.0000 0.7071 -0.7071
vn -0.5774 -0.5774 0.5774
vn -0.5774 0.5774 0.5774
vn -0.5774 0.5774 -0.5774
vn -0.5774 -0.5774 -0.5774
vn 0.5774 -0.5773 0.5773
vn -0.5773 -0.5774 0.5774
vn -0.5774 -0.5773 -0.5773
vn 0.5773 -0.5774 -0.5774
vn 0.5773 0.5773 -0.5774
vn 0.5774 0.5774 0.5773
vn -0.5774 0.5774 -0.5773
vn -0.5773 0.5773 0.5774
vn -0.5774 -0.5774 -0.5773
vn 0.5773 -0.5773 -0.5774
vn 0.5723 0.8201 -0.0000
vn 0.9155 -0.4022 0.0000
vn -0.5723 0.8200 0.0000
vn -0.9155 -0.4022 -0.0000
vn 0.5773 -0.5773 0.5774
vn -0.5774 -0.5774 0.5773
vn -0.7071 0.7071 0.0000
vn 0.7071 0.7071 -0.0000
vn -0.0000 -0.7071 0.7071
# 65 vertex normals

vt 0.0000 0.0000 0.0000
vt 1.0000 0.0000 0.0000
vt 1.0000 1.0000 0.0000
vt 0.0000 1.0000 0.0000
vt 0.5000 0.0000 0.0000
vt 0.5000 1.0000 0.0000
vt 0.5000 0.5000 0.0000
# 7 texture coords

o Office_Board002
g Office_Board002
usemtl Material__65
s 16
f 1/1/1 2/2/2 3/3/3 4/4/4 
s 32
f 2/1/2 5/5/5 6/6/6 3/4/3 
s 2
f 5/6/5 2/4/2 1/1/1 7/5/7 
s 4
f 8/5/8 4/2/4 3/3/3 6/6/6 
s 8
f 7/5/7 1/2/1 4/3/4 8/6/8 
s 2
f 9/2/9 10/3/10 11/4/11 12/1/12 
s off
f 10/3/10 9/2/9 13/2/13 14/3/14 
f 11/4/11 10/3/10 14/3/14 15/4/15 
f 12/1/12 11/4/11 15/4/15 16/1/16 
f 9/2/9 12/1/12 16/1/16 13/2/13 
f 14/3/14 13/2/13 17/7/17 
f 15/4/15 14/3/14 17/7/17 
f 16/1/16 15/4/15 17/7/17 
f 13/2/13 16/1/16 17/7/17 
s 2
f 18/2/18 19/3/19 20/4/20 21/1/21 
s off
f 22/3/22 23/2/23 24/2/24 25/3/25 
f 26/4/26 22/3/22 25/3/25 27/4/27 
f 28/1/28 26/4/26 27/4/27 29/1/29 
f 23/2/23 28/1/28 29/1/29 24/2/24 
f 23/2/23 22/3/22 19/3/19 18/2/18 
f 22/3/22 26/4/26 20/4/20 19/3/19 
f 26/4/26 28/1/28 21/1/21 20/4/20 
s 2
f 30/2/30 31/1/31 32/4/32 33/3/33 
s off
f 34/3/34 25/3/25 24/2/24 35/2/35 
f 36/4/36 27/4/27 25/3/25 34/3/34 
f 37/1/37 29/1/29 27/4/27 36/4/36 
f 35/2/35 24/2/24 29/1/29 37/1/37 
f 35/2/35 30/2/30 33/3/33 34/3/34 
f 34/3/34 33/3/33 32/4/32 36/4/36 
f 36/4/36 32/4/32 31/1/31 37/1/37 
f 28/1/28 23/2/23 38/2/38 39/1/39 
f 23/2/23 18/2/18 40/2/18 38/2/38 
s 2
f 18/2/18 21/1/21 41/1/31 40/2/18 
s off
f 21/1/21 28/1/28 39/1/39 41/1/31 
s 1
f 39/4/39 38/4/38 35/4/35 37/3/37 
s 4
f 41/1/31 39/4/39 37/3/37 31/2/31 
s 8
f 40/1/18 41/1/31 31/2/31 30/3/30 
s 4
f 38/4/38 40/1/18 30/3/30 35/4/35 
f 42/5/8 43/2/40 44/3/6 45/6/6 
s off
f 43/2/40 42/5/8 46/5/7 47/2/7 
f 45/6/6 44/3/6 48/3/41 49/6/41 
f 49/6/41 48/3/41 47/2/7 46/5/7 
s 4
f 50/5/8 51/2/40 52/3/6 53/6/42 
s off
f 51/2/40 50/5/8 54/5/7 55/2/7 
f 53/6/42 52/3/6 56/3/41 57/6/5 
f 57/6/5 56/3/41 55/2/7 54/5/7 
s 16
f 58/1/43 59/4/44 60/3/45 61/2/46 
s 32
f 61/1/46 60/4/45 6/6/6 5/5/5 
s 2
f 5/6/5 7/5/7 58/1/43 61/4/46 
s 4
f 8/5/8 6/6/6 60/3/45 59/2/44 
s 8
f 7/5/7 8/6/8 59/3/44 58/2/43 
s 2
f 62/2/47 63/1/48 64/4/49 65/3/50 
s off
f 65/3/50 66/3/51 67/2/52 62/2/47 
f 64/4/49 68/4/53 66/3/51 65/3/50 
f 63/1/48 69/1/54 68/4/53 64/4/49 
f 62/2/47 67/2/52 69/1/54 63/1/48 
f 66/3/51 70/7/17 67/2/52 
f 68/4/53 70/7/17 66/3/51 
f 69/1/54 70/7/17 68/4/53 
f 67/2/52 70/7/17 69/1/54 
s 2
f 71/2/31 72/1/30 73/4/55 74/3/56 
s off
f 75/3/26 76/3/57 77/2/58 78/2/28 
f 79/4/22 80/4/59 76/3/57 75/3/26 
f 81/1/23 82/1/60 80/4/59 79/4/22 
f 78/2/28 77/2/58 82/1/60 81/1/23 
f 78/2/28 71/2/31 74/3/56 75/3/26 
f 75/3/26 74/3/56 73/4/55 79/4/22 
f 79/4/22 73/4/55 72/1/30 81/1/23 
s 2
f 83/2/21 84/3/61 85/4/62 86/1/18 
s off
f 87/3/36 88/2/37 77/2/58 76/3/57 
f 89/4/34 87/3/36 76/3/57 80/4/59 
f 90/1/35 89/4/34 80/4/59 82/1/60 
f 88/2/37 90/1/35 82/1/60 77/2/58 
f 88/2/37 87/3/36 84/3/61 83/2/21 
f 87/3/36 89/4/34 85/4/62 84/3/61 
f 89/4/34 90/1/35 86/1/18 85/4/62 
f 81/1/23 91/1/63 92/2/64 78/2/28 
f 78/2/28 92/2/64 93/2/31 71/2/31 
s 2
f 71/2/31 93/2/31 94/1/18 72/1/30 
s off
f 72/1/30 94/1/18 91/1/63 81/1/23 
s 1
f 91/4/63 90/3/35 88/4/37 92/4/64 
s 4
f 94/1/18 86/2/18 90/3/35 91/4/63 
s 8
f 93/1/31 83/3/21 86/2/18 94/1/18 
s 4
f 92/4/64 88/4/37 83/3/21 93/1/31 
f 42/5/8 45/6/6 95/3/42 96/2/8 
s off
f 96/2/8 97/2/65 46/5/7 42/5/8 
f 45/6/6 49/6/41 98/3/5 95/3/42 
f 49/6/41 46/5/7 97/2/65 98/3/5 
s 4
f 50/5/8 53/6/42 99/3/42 100/2/8 
s off
f 100/2/8 101/2/65 54/5/7 50/5/8 
f 53/6/42 57/6/5 102/3/5 99/3/42 
f 57/6/5 54/5/7 101/2/65 102/3/5 
# 84 polygons - 8 triangles

