# 3ds Max Wavefront OBJ Exporter v0.99 - (c)2007 guruware
# File Created: 16.12.2025 15:31:19

mtllib Prop_TrashCan_001.mtl

#
# object JailProp_TrashCan001
#

v  2.9715 0.0135 -1.3094
v  2.9549 0.0135 -1.3929
v  2.9564 0.0259 -1.3935
v  2.9732 0.0259 -1.3094
v  2.9076 0.0135 -1.4637
v  2.9088 0.0259 -1.4648
v  2.8369 0.0135 -1.5109
v  2.8375 0.0259 -1.5125
v  2.7534 0.0135 -1.5275
v  2.7534 0.0259 -1.5292
v  2.6700 0.0135 -1.5109
v  2.6693 0.0259 -1.5125
v  2.5992 0.0135 -1.4637
v  2.5980 0.0259 -1.4648
v  2.5519 0.0135 -1.3929
v  2.5504 0.0259 -1.3935
v  2.5353 0.0135 -1.3094
v  2.5337 0.0259 -1.3094
v  2.5519 0.0135 -1.2260
v  2.5504 0.0259 -1.2253
v  2.5992 0.0135 -1.1552
v  2.5980 0.0259 -1.1541
v  2.6700 0.0135 -1.1080
v  2.6693 0.0259 -1.1064
v  2.7534 0.0135 -1.0914
v  2.7534 0.0259 -1.0897
v  2.8369 0.0135 -1.1080
v  2.8375 0.0259 -1.1064
v  2.9076 0.0135 -1.1552
v  2.9088 0.0259 -1.1541
v  2.9549 0.0135 -1.2260
v  2.9564 0.0259 -1.2253
v  2.9405 0.0000 -1.3869
v  2.9559 0.0000 -1.3094
v  2.7534 0.0000 -1.3094
v  2.8966 0.0000 -1.4526
v  2.8309 0.0000 -1.4965
v  2.7534 0.0000 -1.5119
v  2.6759 0.0000 -1.4965
v  2.6103 0.0000 -1.4526
v  2.5664 0.0000 -1.3869
v  2.5510 0.0000 -1.3094
v  2.5664 0.0000 -1.2320
v  2.6103 0.0000 -1.1663
v  2.6759 0.0000 -1.1224
v  2.7534 0.0000 -1.1070
v  2.8309 0.0000 -1.1224
v  2.8966 0.0000 -1.1663
v  2.9405 0.0000 -1.2320
v  3.0639 0.7076 -1.3094
v  3.0403 0.7076 -1.4283
v  3.0245 0.7111 -1.4217
v  3.0469 0.7111 -1.3094
v  2.9730 0.7076 -1.5290
v  2.9609 0.7111 -1.5169
v  2.8722 0.7076 -1.5963
v  2.8657 0.7111 -1.5806
v  2.7534 0.7076 -1.6199
v  2.7534 0.7111 -1.6029
v  2.6346 0.7076 -1.5963
v  2.6411 0.7111 -1.5806
v  2.5339 0.7076 -1.5290
v  2.5459 0.7111 -1.5169
v  2.4666 0.7076 -1.4283
v  2.4823 0.7111 -1.4217
v  2.4429 0.7076 -1.3094
v  2.4600 0.7111 -1.3094
v  2.4666 0.7076 -1.1906
v  2.4823 0.7111 -1.1972
v  2.5339 0.7076 -1.0899
v  2.5459 0.7111 -1.1019
v  2.6346 0.7076 -1.0226
v  2.6411 0.7111 -1.0383
v  2.7534 0.7076 -0.9990
v  2.7534 0.7111 -1.0160
v  2.8722 0.7076 -1.0226
v  2.8657 0.7111 -1.0383
v  2.9730 0.7076 -1.0899
v  2.9609 0.7111 -1.1019
v  3.0403 0.7076 -1.1906
v  3.0245 0.7111 -1.1972
v  3.0237 0.7037 -1.4214
v  3.0460 0.7037 -1.3094
v  2.9603 0.7037 -1.5163
v  2.8654 0.7037 -1.5797
v  2.7534 0.7037 -1.6020
v  2.6415 0.7037 -1.5797
v  2.5465 0.7037 -1.5163
v  2.4831 0.7037 -1.4214
v  2.4609 0.7037 -1.3094
v  2.4831 0.7037 -1.1975
v  2.5465 0.7037 -1.1026
v  2.6415 0.7037 -1.0392
v  2.7534 0.7037 -1.0169
v  2.8654 0.7037 -1.0392
v  2.9603 0.7037 -1.1026
v  3.0237 0.7037 -1.1975
v  2.9476 0.0286 -1.3094
v  2.9328 0.0286 -1.3838
v  2.7534 0.0286 -1.3094
v  2.8907 0.0286 -1.4467
v  2.8277 0.0286 -1.4888
v  2.7534 0.0286 -1.5036
v  2.6791 0.0286 -1.4888
v  2.6161 0.0286 -1.4467
v  2.5740 0.0286 -1.3838
v  2.5593 0.0286 -1.3094
v  2.5740 0.0286 -1.2351
v  2.6161 0.0286 -1.1722
v  2.6791 0.0286 -1.1301
v  2.7534 0.0286 -1.1153
v  2.8277 0.0286 -1.1301
v  2.8907 0.0286 -1.1722
v  2.9328 0.0286 -1.2351
v  2.9508 0.0456 -1.3912
v  2.9670 0.0456 -1.3094
v  2.9045 0.0456 -1.4605
v  2.8352 0.0456 -1.5068
v  2.7534 0.0456 -1.5231
v  2.6717 0.0456 -1.5068
v  2.6024 0.0456 -1.4605
v  2.5561 0.0456 -1.3912
v  2.5398 0.0456 -1.3094
v  2.5561 0.0456 -1.2277
v  2.6024 0.0456 -1.1584
v  2.6717 0.0456 -1.1121
v  2.7534 0.0456 -1.0958
v  2.8352 0.0456 -1.1121
v  2.9045 0.0456 -1.1584
v  2.9508 0.0456 -1.2277
v  3.0392 0.6991 -1.4278
v  3.0628 0.6991 -1.3094
v  2.9722 0.6991 -1.5282
v  2.8718 0.6991 -1.5953
v  2.7534 0.6991 -1.6188
v  2.6350 0.6991 -1.5953
v  2.5347 0.6991 -1.5282
v  2.4676 0.6991 -1.4278
v  2.4441 0.6991 -1.3094
v  2.4676 0.6991 -1.1911
v  2.5347 0.6991 -1.0907
v  2.6350 0.6991 -1.0236
v  2.7534 0.6991 -1.0001
v  2.8718 0.6991 -1.0236
v  2.9722 0.6991 -1.0907
v  3.0392 0.6991 -1.1911
# 146 vertices

vn 0.8887 -0.4584 -0.0000
vn 0.8211 -0.4584 -0.3401
vn 0.9158 -0.1319 -0.3793
vn 0.9913 -0.1319 -0.0000
vn 0.6284 -0.4584 -0.6284
vn 0.7009 -0.1319 -0.7009
vn 0.3401 -0.4584 -0.8211
vn 0.3793 -0.1319 -0.9158
vn -0.0000 -0.4584 -0.8887
vn 0.0000 -0.1319 -0.9913
vn -0.3401 -0.4584 -0.8211
vn -0.3793 -0.1319 -0.9158
vn -0.6284 -0.4584 -0.6284
vn -0.7009 -0.1319 -0.7009
vn -0.8211 -0.4584 -0.3401
vn -0.9158 -0.1319 -0.3793
vn -0.8887 -0.4584 -0.0000
vn -0.9913 -0.1319 -0.0000
vn -0.8211 -0.4584 0.3401
vn -0.9158 -0.1319 0.3793
vn -0.6284 -0.4584 0.6284
vn -0.7009 -0.1319 0.7009
vn -0.3401 -0.4584 0.8211
vn -0.3793 -0.1319 0.9158
vn 0.0000 -0.4584 0.8887
vn 0.0000 -0.1319 0.9913
vn 0.3401 -0.4584 0.8211
vn 0.3793 -0.1319 0.9158
vn 0.6284 -0.4584 0.6284
vn 0.7009 -0.1319 0.7009
vn 0.8211 -0.4584 0.3401
vn 0.9158 -0.1319 0.3793
vn 0.3557 -0.9229 -0.1473
vn 0.3850 -0.9229 -0.0000
vn 0.0000 -1.0000 -0.0000
vn 0.2722 -0.9229 -0.2722
vn 0.1473 -0.9229 -0.3557
vn 0.0000 -0.9229 -0.3850
vn -0.1473 -0.9229 -0.3557
vn -0.2722 -0.9229 -0.2722
vn -0.3557 -0.9229 -0.1473
vn -0.3850 -0.9229 -0.0000
vn -0.3557 -0.9229 0.1473
vn -0.2722 -0.9229 0.2722
vn -0.1473 -0.9229 0.3557
vn 0.0000 -0.9229 0.3850
vn 0.1473 -0.9229 0.3557
vn 0.2722 -0.9229 0.2722
vn 0.3557 -0.9229 0.1473
vn 0.8398 0.5430 -0.0000
vn 0.7758 0.5430 -0.3214
vn -0.4787 0.8553 0.1983
vn -0.5181 0.8553 0.0000
vn 0.5938 0.5430 -0.5938
vn -0.3664 0.8553 0.3664
vn 0.3214 0.5430 -0.7758
vn -0.1983 0.8553 0.4787
vn 0.0000 0.5430 -0.8398
vn 0.0000 0.8553 0.5181
vn -0.3214 0.5430 -0.7758
vn 0.1983 0.8553 0.4787
vn -0.5938 0.5430 -0.5938
vn 0.3664 0.8553 0.3664
vn -0.7758 0.5430 -0.3214
vn 0.4787 0.8553 0.1983
vn -0.8398 0.5430 -0.0000
vn 0.5181 0.8553 0.0000
vn -0.7758 0.5430 0.3214
vn 0.4787 0.8553 -0.1983
vn -0.5938 0.5430 0.5938
vn 0.3664 0.8553 -0.3664
vn -0.3214 0.5430 0.7758
vn 0.1983 0.8553 -0.4787
vn 0.0000 0.5430 0.8398
vn -0.0000 0.8553 -0.5181
vn 0.3214 0.5430 0.7758
vn -0.1983 0.8553 -0.4787
vn 0.5938 0.5430 0.5938
vn -0.3664 0.8553 -0.3664
vn 0.7758 0.5430 0.3214
vn -0.4787 0.8553 -0.1983
vn -0.9173 0.1191 0.3800
vn -0.9929 0.1191 0.0000
vn -0.7021 0.1191 0.7021
vn -0.3800 0.1191 0.9173
vn -0.0000 0.1191 0.9929
vn 0.3800 0.1191 0.9173
vn 0.7021 0.1191 0.7021
vn 0.9173 0.1191 0.3800
vn 0.9929 0.1191 0.0000
vn 0.9173 0.1191 -0.3800
vn 0.7021 0.1191 -0.7021
vn 0.3800 0.1191 -0.9173
vn -0.0000 0.1191 -0.9929
vn -0.3800 0.1191 -0.9173
vn -0.7021 0.1191 -0.7021
vn -0.9173 0.1191 -0.3800
vn -0.3882 0.9216 0.0000
vn -0.3586 0.9216 0.1485
vn 0.0000 1.0000 0.0000
vn -0.2745 0.9216 0.2745
vn -0.1485 0.9216 0.3586
vn -0.0000 0.9216 0.3882
vn 0.1485 0.9216 0.3586
vn 0.2745 0.9216 0.2745
vn 0.3586 0.9216 0.1485
vn 0.3882 0.9216 0.0000
vn 0.3586 0.9216 -0.1485
vn 0.2745 0.9216 -0.2745
vn 0.1485 0.9216 -0.3586
vn -0.0000 0.9216 -0.3882
vn -0.1485 0.9216 -0.3586
vn -0.2745 0.9216 -0.2745
vn -0.3586 0.9216 -0.1485
vn -0.8250 0.4501 0.3417
vn -0.8930 0.4501 0.0000
vn -0.6314 0.4501 0.6314
vn -0.3417 0.4501 0.8250
vn -0.0000 0.4501 0.8930
vn 0.3417 0.4501 0.8250
vn 0.6314 0.4501 0.6314
vn 0.8250 0.4501 0.3417
vn 0.8930 0.4501 0.0000
vn 0.8250 0.4501 -0.3417
vn 0.6314 0.4501 -0.6314
vn 0.3417 0.4501 -0.8250
vn -0.0000 0.4501 -0.8930
vn -0.3417 0.4501 -0.8250
vn -0.6314 0.4501 -0.6314
vn -0.8250 0.4501 -0.3417
vn -0.0000 -0.1319 0.9913
# 131 vertex normals

vt 0.7500 0.0190 1.0000
vt 0.8125 0.0190 1.0000
vt 0.8125 0.0367 1.0000
vt 0.7500 0.0367 1.0000
vt 0.8750 0.0190 1.0000
vt 0.8750 0.0367 1.0000
vt 0.9375 0.0190 1.0000
vt 0.9375 0.0367 1.0000
vt -0.0625 0.0190 1.0000
vt 0.0000 0.0190 1.0000
vt 0.0000 0.0367 1.0000
vt -0.0625 0.0367 1.0000
vt 0.0625 0.0190 1.0000
vt 0.0625 0.0367 1.0000
vt 0.1250 0.0190 1.0000
vt 0.1250 0.0367 1.0000
vt 0.1875 0.0190 1.0000
vt 0.1875 0.0367 1.0000
vt 0.2500 0.0190 1.0000
vt 0.2500 0.0367 1.0000
vt 0.3125 0.0190 1.0000
vt 0.3125 0.0367 1.0000
vt 0.3750 0.0190 1.0000
vt 0.3750 0.0367 1.0000
vt 0.4375 0.0190 1.0000
vt 0.4375 0.0367 1.0000
vt 0.5000 0.0190 1.0000
vt 0.5000 0.0367 1.0000
vt 0.5625 0.0190 1.0000
vt 0.5625 0.0367 1.0000
vt 0.6250 0.0190 1.0000
vt 0.6250 0.0367 1.0000
vt 0.6875 0.0190 1.0000
vt 0.6875 0.0367 1.0000
vt 0.7885 0.0000 1.0000
vt 0.7300 0.0000 1.0000
vt 0.4375 0.0000 1.0000
vt 0.8470 0.0000 1.0000
vt 0.9055 0.0000 1.0000
vt 0.0280 0.0000 1.0000
vt -0.0305 0.0000 1.0000
vt 0.0865 0.0000 1.0000
vt 0.1450 0.0000 1.0000
vt 0.2035 0.0000 1.0000
vt 0.2620 0.0000 1.0000
vt 0.3205 0.0000 1.0000
vt 0.3790 0.0000 1.0000
vt 0.4960 0.0000 1.0000
vt 0.5545 0.0000 1.0000
vt 0.6130 0.0000 1.0000
vt 0.6715 0.0000 1.0000
vt 0.7500 1.0000 1.0000
vt 0.8125 1.0000 1.0000
vt 0.8750 1.0000 1.0000
vt 0.9375 1.0000 1.0000
vt -0.0625 1.0000 1.0000
vt 0.0000 1.0000 1.0000
vt 0.0625 1.0000 1.0000
vt 0.1250 1.0000 1.0000
vt 0.1875 1.0000 1.0000
vt 0.2500 1.0000 1.0000
vt 0.3125 1.0000 1.0000
vt 0.3750 1.0000 1.0000
vt 0.4375 1.0000 1.0000
vt 0.5000 1.0000 1.0000
vt 0.5625 1.0000 1.0000
vt 0.6250 1.0000 1.0000
vt 0.6875 1.0000 1.0000
vt 0.7243 1.0000 1.0000
vt 0.7816 1.0000 1.0000
vt 0.8390 1.0000 1.0000
vt 0.8964 1.0000 1.0000
vt -0.0214 1.0000 1.0000
vt 0.0360 1.0000 1.0000
vt 0.0934 1.0000 1.0000
vt 0.1507 1.0000 1.0000
vt 0.2081 1.0000 1.0000
vt 0.2654 1.0000 1.0000
vt 0.3228 1.0000 1.0000
vt 0.3801 1.0000 1.0000
vt 0.4949 1.0000 1.0000
vt 0.5522 1.0000 1.0000
vt 0.6096 1.0000 1.0000
vt 0.6669 1.0000 1.0000
vt 0.8125 0.9880 1.0000
vt 0.7500 0.9880 1.0000
vt 0.8750 0.9880 1.0000
vt 0.9375 0.9880 1.0000
vt 0.0000 0.9880 1.0000
vt -0.0625 0.9880 1.0000
vt 0.0625 0.9880 1.0000
vt 0.1250 0.9880 1.0000
vt 0.1875 0.9880 1.0000
vt 0.2500 0.9880 1.0000
vt 0.3125 0.9880 1.0000
vt 0.3750 0.9880 1.0000
vt 0.4375 0.9880 1.0000
vt 0.5000 0.9880 1.0000
vt 0.5625 0.9880 1.0000
vt 0.6250 0.9880 1.0000
vt 0.6875 0.9880 1.0000
# 101 texture coords

o JailProp_TrashCan001
g JailProp_TrashCan001
usemtl Material__65
s 1
f 1/1/1 2/2/2 3/3/3 4/4/4 
f 2/2/2 5/5/5 6/6/6 3/3/3 
f 5/5/5 7/7/7 8/8/8 6/6/6 
f 7/9/7 9/10/9 10/11/10 8/12/8 
f 9/10/9 11/13/11 12/14/12 10/11/10 
f 11/13/11 13/15/13 14/16/14 12/14/12 
f 13/15/13 15/17/15 16/18/16 14/16/14 
f 15/17/15 17/19/17 18/20/18 16/18/16 
f 17/19/17 19/21/19 20/22/20 18/20/18 
f 19/21/19 21/23/21 22/24/22 20/22/20 
f 21/23/21 23/25/23 24/26/24 22/24/22 
f 23/25/23 25/27/25 26/28/26 24/26/24 
f 25/27/25 27/29/27 28/30/28 26/28/26 
f 27/29/27 29/31/29 30/32/30 28/30/28 
f 29/31/29 31/33/31 32/34/32 30/32/30 
f 31/33/31 1/1/1 4/4/4 32/34/32 
f 33/35/33 34/36/34 35/37/35 
f 36/38/36 33/35/33 35/37/35 
f 37/39/37 36/38/36 35/37/35 
f 38/40/38 37/41/37 35/37/35 
f 39/42/39 38/40/38 35/37/35 
f 40/43/40 39/42/39 35/37/35 
f 41/44/41 40/43/40 35/37/35 
f 42/45/42 41/44/41 35/37/35 
f 43/46/43 42/45/42 35/37/35 
f 44/47/44 43/46/43 35/37/35 
f 45/37/45 44/47/44 35/37/35 
f 46/48/46 45/37/45 35/37/35 
f 47/49/47 46/48/46 35/37/35 
f 48/50/48 47/49/47 35/37/35 
f 49/51/49 48/50/48 35/37/35 
f 34/36/34 49/51/49 35/37/35 
s 2
f 2/2/2 1/1/1 34/36/34 33/35/33 
f 5/5/5 2/2/2 33/35/33 36/38/36 
f 7/7/7 5/5/5 36/38/36 37/39/37 
f 9/10/9 7/9/7 37/41/37 38/40/38 
f 11/13/11 9/10/9 38/40/38 39/42/39 
f 13/15/13 11/13/11 39/42/39 40/43/40 
f 15/17/15 13/15/13 40/43/40 41/44/41 
f 17/19/17 15/17/15 41/44/41 42/45/42 
f 19/21/19 17/19/17 42/45/42 43/46/43 
f 21/23/21 19/21/19 43/46/43 44/47/44 
f 23/25/23 21/23/21 44/47/44 45/37/45 
f 25/27/25 23/25/23 45/37/45 46/48/46 
f 27/29/27 25/27/25 46/48/46 47/49/47 
f 29/31/29 27/29/27 47/49/47 48/50/48 
f 31/33/31 29/31/29 48/50/48 49/51/49 
f 1/1/1 31/33/31 49/51/49 34/36/34 
f 50/52/50 51/53/51 52/53/52 53/52/53 
f 51/53/51 54/54/54 55/54/55 52/53/52 
f 54/54/54 56/55/56 57/55/57 55/54/55 
f 56/56/56 58/57/58 59/57/59 57/56/57 
f 58/57/58 60/58/60 61/58/61 59/57/59 
f 60/58/60 62/59/62 63/59/63 61/58/61 
f 62/59/62 64/60/64 65/60/65 63/59/63 
f 64/60/64 66/61/66 67/61/67 65/60/65 
f 66/61/66 68/62/68 69/62/69 67/61/67 
f 68/62/68 70/63/70 71/63/71 69/62/69 
f 70/63/70 72/64/72 73/64/73 71/63/71 
f 72/64/72 74/65/74 75/65/75 73/64/73 
f 74/65/74 76/66/76 77/66/77 75/65/75 
f 76/66/76 78/67/78 79/67/79 77/66/77 
f 78/67/78 80/68/80 81/68/81 79/67/79 
f 80/68/80 50/52/50 53/52/53 81/68/81 
s 1
f 53/52/53 52/53/52 82/53/82 83/52/83 
f 52/53/52 55/54/55 84/54/84 82/53/82 
f 55/54/55 57/55/57 85/55/85 84/54/84 
f 57/56/57 59/57/59 86/57/86 85/56/85 
f 59/57/59 61/58/61 87/58/87 86/57/86 
f 61/58/61 63/59/63 88/59/88 87/58/87 
f 63/59/63 65/60/65 89/60/89 88/59/88 
f 65/60/65 67/61/67 90/61/90 89/60/89 
f 67/61/67 69/62/69 91/62/91 90/61/90 
f 69/62/69 71/63/71 92/63/92 91/62/91 
f 71/63/71 73/64/73 93/64/93 92/63/92 
f 73/64/73 75/65/75 94/65/94 93/64/93 
f 75/65/75 77/66/77 95/66/95 94/65/94 
f 77/66/77 79/67/79 96/67/96 95/66/95 
f 79/67/79 81/68/81 97/68/97 96/67/96 
f 81/68/81 53/52/53 83/52/83 97/68/97 
f 98/69/98 99/70/99 100/64/100 
f 99/70/99 101/71/101 100/64/100 
f 101/71/101 102/72/102 100/64/100 
f 102/73/102 103/74/103 100/64/100 
f 103/74/103 104/75/104 100/64/100 
f 104/75/104 105/76/105 100/64/100 
f 105/76/105 106/77/106 100/64/100 
f 106/77/106 107/78/107 100/64/100 
f 107/78/107 108/79/108 100/64/100 
f 108/79/108 109/80/109 100/64/100 
f 109/80/109 110/64/110 100/64/100 
f 110/64/110 111/81/111 100/64/100 
f 111/81/111 112/82/112 100/64/100 
f 112/82/112 113/83/113 100/64/100 
f 113/83/113 114/84/114 100/64/100 
f 114/84/114 98/69/98 100/64/100 
f 82/53/82 115/53/115 116/52/116 83/52/83 
f 84/54/84 117/54/117 115/53/115 82/53/82 
f 85/55/85 118/55/118 117/54/117 84/54/84 
f 86/57/86 119/57/119 118/56/118 85/56/85 
f 87/58/87 120/58/120 119/57/119 86/57/86 
f 88/59/88 121/59/121 120/58/120 87/58/87 
f 89/60/89 122/60/122 121/59/121 88/59/88 
f 90/61/90 123/61/123 122/60/122 89/60/89 
f 91/62/91 124/62/124 123/61/123 90/61/90 
f 92/63/92 125/63/125 124/62/124 91/62/91 
f 93/64/93 126/64/126 125/63/125 92/63/92 
f 94/65/94 127/65/127 126/64/126 93/64/93 
f 95/66/95 128/66/128 127/65/127 94/65/94 
f 96/67/96 129/67/129 128/66/128 95/66/95 
f 97/68/97 130/68/130 129/67/129 96/67/96 
f 83/52/83 116/52/116 130/68/130 97/68/97 
f 131/85/3 51/53/51 50/52/50 132/86/4 
f 133/87/6 54/54/54 51/53/51 131/85/3 
f 134/88/8 56/55/56 54/54/54 133/87/6 
f 135/89/10 58/57/58 56/56/56 134/90/8 
f 136/91/12 60/58/60 58/57/58 135/89/10 
f 137/92/14 62/59/62 60/58/60 136/91/12 
f 138/93/16 64/60/64 62/59/62 137/92/14 
f 139/94/18 66/61/66 64/60/64 138/93/16 
f 140/95/20 68/62/68 66/61/66 139/94/18 
f 141/96/22 70/63/70 68/62/68 140/95/20 
f 142/97/24 72/64/72 70/63/70 141/96/22 
f 143/98/131 74/65/74 72/64/72 142/97/24 
f 144/99/28 76/66/76 74/65/74 143/98/131 
f 145/100/30 78/67/78 76/66/76 144/99/28 
f 146/101/32 80/68/80 78/67/78 145/100/30 
f 132/86/4 50/52/50 80/68/80 146/101/32 
s 2
f 99/70/99 98/69/98 116/52/116 115/53/115 
f 101/71/101 99/70/99 115/53/115 117/54/117 
f 102/72/102 101/71/101 117/54/117 118/55/118 
f 103/74/103 102/73/102 118/56/118 119/57/119 
f 104/75/104 103/74/103 119/57/119 120/58/120 
f 105/76/105 104/75/104 120/58/120 121/59/121 
f 106/77/106 105/76/105 121/59/121 122/60/122 
f 107/78/107 106/77/106 122/60/122 123/61/123 
f 108/79/108 107/78/107 123/61/123 124/62/124 
f 109/80/109 108/79/108 124/62/124 125/63/125 
f 110/64/110 109/80/109 125/63/125 126/64/126 
f 111/81/111 110/64/110 126/64/126 127/65/127 
f 112/82/112 111/81/111 127/65/127 128/66/128 
f 113/83/113 112/82/112 128/66/128 129/67/129 
f 114/84/114 113/83/113 129/67/129 130/68/130 
f 98/69/98 114/84/114 130/68/130 116/52/116 
s 1
f 3/3/3 131/85/3 132/86/4 4/4/4 
f 6/6/6 133/87/6 131/85/3 3/3/3 
f 8/8/8 134/88/8 133/87/6 6/6/6 
f 10/11/10 135/89/10 134/90/8 8/12/8 
f 12/14/12 136/91/12 135/89/10 10/11/10 
f 14/16/14 137/92/14 136/91/12 12/14/12 
f 16/18/16 138/93/16 137/92/14 14/16/14 
f 18/20/18 139/94/18 138/93/16 16/18/16 
f 20/22/20 140/95/20 139/94/18 18/20/18 
f 22/24/22 141/96/22 140/95/20 20/22/20 
f 24/26/24 142/97/24 141/96/22 22/24/22 
f 26/28/26 143/98/131 142/97/24 24/26/24 
f 28/30/28 144/99/28 143/98/131 26/28/26 
f 30/32/30 145/100/30 144/99/28 28/30/28 
f 32/34/32 146/101/32 145/100/30 30/32/30 
f 4/4/4 132/86/4 146/101/32 32/34/32 
# 128 polygons - 32 triangles

#
# object JailProp_Knife001
#

v  2.7984 0.2059 -1.3677
v  2.7121 0.0532 -1.1432
v  2.6957 0.0308 -1.1141
v  2.7932 0.2047 -1.3705
v  2.6897 0.0340 -1.1270
v  2.6850 0.0402 -1.1442
v  2.7756 0.2006 -1.3801
v  2.7758 0.2006 -1.3800
v  2.6887 0.0359 -1.1261
v  2.6841 0.0420 -1.1434
v  2.6819 0.0582 -1.1806
v  2.6811 0.0481 -1.1616
v  2.6807 0.0490 -1.1612
v  2.6816 0.0588 -1.1803
v  2.6840 0.0426 -1.1486
v  2.7732 0.2006 -1.3810
v  2.6833 0.0439 -1.1480
v  2.6834 0.0670 -1.1964
v  2.7573 0.1979 -1.3889
v  2.7667 0.1995 -1.3843
v  2.7112 0.0550 -1.1423
v  2.7975 0.2077 -1.3668
v  2.6948 0.0326 -1.1132
v  2.7571 0.1983 -1.3887
v  2.6832 0.0674 -1.1963
v  2.7662 0.2004 -1.3838
v  2.7923 0.2065 -1.3696
v  2.7749 0.2024 -1.3791
v  2.7747 0.2024 -1.3792
v  2.7726 0.2019 -1.3803
v  2.7688 0.1988 -1.3780
v  2.7716 0.1947 -1.3797
v  2.7854 0.1979 -1.3722
v  2.7832 0.2022 -1.3701
v  2.7990 0.2063 -1.3626
v  2.8008 0.2009 -1.3656
v  2.8110 0.2189 -1.3921
v  2.8092 0.2244 -1.3891
v  2.7861 0.1975 -1.3735
v  2.7963 0.2155 -1.4000
v  2.7715 0.1941 -1.3814
v  2.7681 0.1991 -1.3793
v  2.7783 0.2172 -1.4058
v  2.7817 0.2121 -1.4080
v  2.8445 0.2783 -1.4793
v  2.8527 0.2928 -1.5008
v  2.8509 0.2983 -1.4978
v  2.8427 0.2837 -1.4763
v  2.8152 0.2715 -1.4952
v  2.8178 0.2847 -1.5197
v  2.8353 0.2888 -1.5102
v  2.8299 0.2749 -1.4873
v  2.8118 0.2765 -1.4931
v  2.8144 0.2898 -1.5176
v  2.8189 0.2330 -1.4128
v  2.8171 0.2385 -1.4098
v  2.7863 0.2254 -1.4305
v  2.8026 0.2292 -1.4217
v  2.7829 0.2305 -1.4284
v  2.8288 0.2506 -1.4386
v  2.8270 0.2560 -1.4356
v  2.7985 0.2435 -1.4551
v  2.8137 0.2470 -1.4468
v  2.7951 0.2485 -1.4529
v  2.8581 0.3024 -1.5148
v  2.8563 0.3078 -1.5118
v  2.8232 0.2943 -1.5337
v  2.8407 0.2983 -1.5243
v  2.8198 0.2993 -1.5316
v  2.8607 0.3069 -1.5215
v  2.8589 0.3124 -1.5185
v  2.8306 0.3000 -1.5380
v  2.8456 0.3035 -1.5298
v  2.8272 0.3051 -1.5359
v  2.7991 0.2011 -1.3648
v  2.7977 0.2055 -1.3623
v  2.8327 0.3032 -1.5371
v  2.8304 0.3066 -1.5357
v  2.8440 0.3098 -1.5283
v  2.8458 0.3063 -1.5300
v  2.8588 0.3093 -1.5230
v  2.8576 0.3129 -1.5210
v  2.7961 0.2234 -1.4003
v  2.7943 0.2234 -1.4022
v  2.7970 0.2180 -1.4048
v  2.7988 0.2180 -1.4029
v  2.7941 0.2243 -1.4043
v  2.7968 0.2190 -1.4069
v  2.7956 0.2256 -1.4055
v  2.7983 0.2203 -1.4081
v  2.7980 0.2266 -1.4051
v  2.8006 0.2213 -1.4077
v  2.7998 0.2266 -1.4033
v  2.8024 0.2213 -1.4059
v  2.8000 0.2257 -1.4011
v  2.8026 0.2203 -1.4037
v  2.7985 0.2243 -1.3999
v  2.8011 0.2190 -1.4025
v  2.7992 0.2180 -1.4037
v  2.7978 0.2180 -1.4051
v  2.7999 0.2193 -1.4055
v  2.7977 0.2188 -1.4067
v  2.7988 0.2198 -1.4076
v  2.8006 0.2205 -1.4073
v  2.8020 0.2205 -1.4059
v  2.8021 0.2198 -1.4043
v  2.8010 0.2188 -1.4034
v  2.7973 0.2178 -1.4049
v  2.7990 0.2178 -1.4032
v  2.7971 0.2187 -1.4070
v  2.7985 0.2200 -1.4081
v  2.8007 0.2209 -1.4077
v  2.8024 0.2209 -1.4060
v  2.8026 0.2200 -1.4040
v  2.8012 0.2187 -1.4028
v  2.7903 0.2131 -1.3852
v  2.7885 0.2131 -1.3870
v  2.7912 0.2077 -1.3896
v  2.7930 0.2077 -1.3878
v  2.7883 0.2140 -1.3892
v  2.7909 0.2087 -1.3918
v  2.7898 0.2153 -1.3904
v  2.7925 0.2100 -1.3930
v  2.7921 0.2163 -1.3900
v  2.7948 0.2110 -1.3926
v  2.7939 0.2163 -1.3881
v  2.7966 0.2110 -1.3907
v  2.7942 0.2154 -1.3860
v  2.7968 0.2100 -1.3886
v  2.7927 0.2140 -1.3848
v  2.7953 0.2087 -1.3874
v  2.7934 0.2078 -1.3886
v  2.7920 0.2077 -1.3899
v  2.7941 0.2090 -1.3904
v  2.7918 0.2085 -1.3916
v  2.7930 0.2095 -1.3925
v  2.7948 0.2102 -1.3922
v  2.7961 0.2102 -1.3908
v  2.7963 0.2095 -1.3892
v  2.7952 0.2085 -1.3882
v  2.7915 0.2075 -1.3898
v  2.7932 0.2075 -1.3881
v  2.7913 0.2084 -1.3918
v  2.7927 0.2097 -1.3930
v  2.7949 0.2106 -1.3926
v  2.7966 0.2106 -1.3908
v  2.7968 0.2097 -1.3888
v  2.7954 0.2084 -1.3877
v  2.7966 0.2095 -1.3660
v  2.7914 0.2083 -1.3688
v  2.6939 0.0344 -1.1123
v  2.7103 0.0568 -1.1414
v  2.7740 0.2042 -1.3782
v  2.7738 0.2042 -1.3783
v  2.6832 0.0438 -1.1425
v  2.6878 0.0377 -1.1252
v  2.6813 0.0594 -1.1800
v  2.6802 0.0499 -1.1607
v  2.7720 0.2031 -1.3797
v  2.6827 0.0451 -1.1474
v  2.7658 0.2013 -1.3834
v  2.7570 0.1986 -1.3886
v  2.6830 0.0677 -1.1961
v  2.7811 0.2065 -1.3680
v  2.7673 0.2033 -1.3755
v  2.8057 0.2294 -1.3870
v  2.7956 0.2114 -1.3604
v  2.7911 0.2260 -1.3949
v  2.7809 0.2080 -1.3684
v  2.7663 0.2046 -1.3763
v  2.7765 0.2226 -1.4028
v  2.8393 0.2888 -1.4742
v  2.8475 0.3033 -1.4956
v  2.8100 0.2819 -1.4901
v  2.8246 0.2854 -1.4822
v  2.8301 0.2993 -1.5051
v  2.8126 0.2952 -1.5146
v  2.8137 0.2435 -1.4077
v  2.7974 0.2397 -1.4165
v  2.7811 0.2359 -1.4254
v  2.8236 0.2611 -1.4335
v  2.7933 0.2540 -1.4499
v  2.8084 0.2575 -1.4417
v  2.8529 0.3129 -1.5097
v  2.8355 0.3088 -1.5192
v  2.8180 0.3047 -1.5286
v  2.8555 0.3174 -1.5163
v  2.8404 0.3140 -1.5246
v  2.8254 0.3105 -1.5329
v  2.7949 0.2097 -1.3606
v  2.8292 0.3102 -1.5337
v  2.8423 0.3133 -1.5266
v  2.8553 0.3163 -1.5196
v  2.7935 0.2287 -1.3977
v  2.7917 0.2287 -1.3996
v  2.7914 0.2296 -1.4017
v  2.7929 0.2310 -1.4029
v  2.7953 0.2319 -1.4025
v  2.7971 0.2320 -1.4007
v  2.7973 0.2310 -1.3985
v  2.7958 0.2297 -1.3973
v  2.7935 0.2295 -1.3981
v  2.7942 0.2307 -1.3999
v  2.7921 0.2295 -1.3995
v  2.7920 0.2302 -1.4011
v  2.7931 0.2312 -1.4021
v  2.7949 0.2319 -1.4017
v  2.7963 0.2319 -1.4003
v  2.7964 0.2312 -1.3987
v  2.7953 0.2302 -1.3978
v  2.7934 0.2291 -1.3977
v  2.7917 0.2291 -1.3995
v  2.7915 0.2300 -1.4015
v  2.7929 0.2312 -1.4026
v  2.7951 0.2321 -1.4022
v  2.7968 0.2321 -1.4005
v  2.7970 0.2312 -1.3985
v  2.7956 0.2300 -1.3973
v  2.7876 0.2184 -1.3826
v  2.7858 0.2184 -1.3844
v  2.7856 0.2193 -1.3866
v  2.7871 0.2207 -1.3878
v  2.7895 0.2216 -1.3873
v  2.7913 0.2217 -1.3855
v  2.7915 0.2207 -1.3834
v  2.7900 0.2194 -1.3822
v  2.7877 0.2192 -1.3830
v  2.7884 0.2204 -1.3848
v  2.7863 0.2192 -1.3844
v  2.7862 0.2199 -1.3860
v  2.7873 0.2209 -1.3869
v  2.7891 0.2216 -1.3866
v  2.7904 0.2216 -1.3852
v  2.7906 0.2209 -1.3836
v  2.7895 0.2199 -1.3827
v  2.7876 0.2188 -1.3826
v  2.7859 0.2188 -1.3843
v  2.7857 0.2197 -1.3863
v  2.7871 0.2209 -1.3875
v  2.7893 0.2218 -1.3871
v  2.7910 0.2218 -1.3854
v  2.7912 0.2210 -1.3833
v  2.7898 0.2197 -1.3822
# 243 vertices

vn 0.5774 0.5774 0.5774
vn 0.6933 -0.0449 0.7192
vn 0.5510 -0.7862 0.2798
vn 0.7071 0.7071 -0.0000
vn 0.6855 -0.4742 -0.5525
vn 0.6969 -0.3672 -0.6161
vn 0.7278 0.6792 -0.0947
vn -0.0000 -0.6513 -0.7589
vn -0.0000 -0.5295 -0.8483
vn 0.6790 -0.1822 -0.7112
vn 0.6593 -0.2916 -0.6930
vn -0.0000 -0.4058 -0.9140
vn -0.0000 -0.2631 -0.9648
vn 0.6231 -0.3281 -0.7100
vn 0.6747 0.7301 -0.1084
vn -0.0000 -0.5013 -0.8653
vn 0.6556 -0.0858 -0.7502
vn 0.5562 0.5809 -0.5943
vn 0.7064 0.7064 -0.0445
vn 0.0000 -0.0624 0.9981
vn 0.0000 0.7071 0.7071
vn -0.0000 -0.9421 0.3353
vn -0.0000 0.7071 -0.7071
vn -0.0000 -0.1201 -0.9928
vn 0.0000 1.0000 -0.0000
vn -0.0000 -0.9251 -0.3797
vn 0.3027 -0.9166 -0.2613
vn 0.3542 -0.9352 -0.0000
vn -0.0000 -1.0000 0.0000
vn 0.0000 -0.3995 0.9167
vn 0.6923 -0.4044 0.5976
vn 0.7569 -0.0000 0.6535
vn 0.0000 -0.0000 1.0000
vn 0.9117 -0.4108 -0.0000
vn 1.0000 -0.0000 -0.0000
vn 0.6923 -0.4044 -0.5976
vn 0.0000 -0.3995 -0.9167
vn -0.0000 -0.0739 -0.9973
vn 0.7721 -0.0463 -0.6338
vn 0.0000 0.0000 1.0000
vn 0.7841 -0.0648 -0.6172
vn 0.7330 -0.0809 -0.6754
vn -0.0000 -0.1070 -0.9943
vn -0.0000 -0.1164 -0.9932
vn 0.7341 -0.0227 -0.6786
vn -0.0000 -0.0328 -0.9995
vn 0.7627 0.0337 -0.6458
vn -0.0000 0.0525 -0.9986
vn 0.7010 0.2032 -0.6836
vn -0.0000 0.2711 -0.9625
vn 0.6920 0.4036 0.5985
vn -0.0000 0.3995 0.9167
vn 0.6930 0.5798 -0.4285
vn 0.9052 0.4251 0.0029
vn -0.0000 0.7249 -0.6888
vn 0.3027 -0.9166 0.2613
vn -0.0000 -0.9251 0.3797
vn 0.2800 0.9463 -0.1615
vn 0.0000 0.9665 -0.2566
vn 0.3390 0.9408 -0.0000
vn 0.3027 0.9166 0.2613
vn 0.0000 0.9251 0.3797
vn -0.0000 -1.0000 -0.0000
vn -0.0000 -0.7372 -0.6757
vn 0.2436 -0.7119 -0.6587
vn 0.2335 -0.9724 -0.0000
vn -0.0000 -0.0000 -1.0000
vn 0.2537 -0.0000 -0.9673
vn -0.0000 0.7372 -0.6757
vn 0.2436 0.7119 -0.6587
vn 0.2335 0.9724 -0.0000
vn 0.0000 0.7372 0.6757
vn 0.2436 0.7119 0.6587
vn 0.2537 -0.0000 0.9673
vn 0.0000 -0.7372 0.6757
vn 0.2436 -0.7119 0.6587
vn 0.9924 -0.1234 -0.0000
vn 0.9928 -0.0910 -0.0772
vn 1.0000 0.0000 -0.0000
vn 0.9934 -0.0000 -0.1144
vn 0.9928 0.0910 -0.0772
vn 0.9924 0.1234 -0.0000
vn 0.9928 0.0910 0.0772
vn 0.9934 -0.0000 0.1144
vn 0.9928 -0.0910 0.0772
vn 0.7668 -0.4778 -0.4285
vn 0.7597 -0.6503 -0.0000
vn 0.7743 -0.0000 -0.6328
vn 0.7668 0.4778 -0.4285
vn 0.7597 0.6503 -0.0000
vn 0.7668 0.4778 0.4285
vn 0.7743 -0.0000 0.6328
vn 0.7668 -0.4778 0.4285
vn 0.2537 0.0000 -0.9673
vn 0.2537 0.0000 0.9673
vn 0.9929 -0.0910 -0.0772
vn 0.9929 -0.0910 0.0772
vn -0.5774 0.5774 0.5774
vn -0.7071 0.7071 0.0000
vn -0.5510 -0.7862 0.2798
vn -0.6933 -0.0449 0.7192
vn -0.7278 0.6792 -0.0947
vn -0.6969 -0.3672 -0.6161
vn -0.6855 -0.4742 -0.5525
vn -0.6790 -0.1822 -0.7112
vn -0.6593 -0.2916 -0.6930
vn -0.6746 0.7302 -0.1084
vn -0.6231 -0.3281 -0.7100
vn -0.7064 0.7064 -0.0445
vn -0.5564 0.5809 -0.5942
vn -0.6556 -0.0858 -0.7502
vn -0.3542 -0.9352 0.0000
vn -0.3027 -0.9166 -0.2613
vn -0.7569 0.0000 0.6535
vn -0.6923 -0.4043 0.5977
vn -1.0000 0.0000 0.0000
vn -0.9117 -0.4108 0.0000
vn -0.6923 -0.4043 -0.5977
vn -0.7722 -0.0463 -0.6337
vn -0.7841 -0.0648 -0.6172
vn -0.7330 -0.0809 -0.6754
vn -0.7341 -0.0227 -0.6786
vn -0.7627 0.0337 -0.6458
vn -0.7010 0.2032 -0.6836
vn -0.6920 0.4037 0.5984
vn -0.9052 0.4251 0.0029
vn -0.6930 0.5798 -0.4285
vn -0.3027 -0.9166 0.2613
vn -0.2800 0.9463 -0.1615
vn -0.3390 0.9408 0.0000
vn -0.3027 0.9166 0.2613
vn -0.2335 -0.9724 -0.0000
vn -0.2436 -0.7119 -0.6587
vn -0.2537 -0.0000 -0.9673
vn -0.2436 0.7119 -0.6587
vn -0.2335 0.9724 -0.0000
vn -0.2436 0.7119 0.6587
vn -0.2537 -0.0000 0.9673
vn -0.2436 -0.7119 0.6587
vn -0.9924 -0.1234 0.0000
vn -1.0000 -0.0000 0.0000
vn -0.9929 -0.0910 -0.0772
vn -0.9934 -0.0000 -0.1144
vn -0.9928 0.0910 -0.0772
vn -0.9924 0.1234 0.0000
vn -0.9928 0.0910 0.0772
vn -0.9934 -0.0000 0.1144
vn -0.9929 -0.0910 0.0772
vn -0.7597 -0.6503 0.0000
vn -0.7668 -0.4778 -0.4285
vn -0.7743 -0.0000 -0.6328
vn -0.7668 0.4778 -0.4285
vn -0.7597 0.6503 0.0000
vn -0.7668 0.4778 0.4285
vn -0.7743 -0.0000 0.6328
vn -0.7668 -0.4778 0.4285
vn -0.2537 0.0000 -0.9673
vn -0.2537 0.0000 0.9673
vn -0.9928 -0.0910 -0.0772
vn -0.9928 -0.0910 0.0772
# 160 vertex normals

vt 0.0000 0.0000 0.0000
vt 1.0000 0.0000 0.0000
vt 1.0000 0.5000 0.0000
vt 0.0000 0.5000 0.0000
vt 1.0000 0.6264 0.0000
vt 1.0000 0.8132 0.0000
vt 0.0000 0.7500 0.0000
vt 0.0000 0.7480 0.0000
vt 0.6264 1.0000 0.0000
vt 0.6264 0.5000 0.0000
vt 0.8132 0.5000 0.0000
vt 0.8132 1.0000 0.0000
vt 1.1856 1.0000 0.0000
vt 0.9994 1.0000 0.0000
vt 0.9994 0.5000 0.0000
vt 1.1856 0.5000 0.0000
vt 0.9965 0.8193 0.0000
vt 0.0000 0.7581 0.0000
vt 0.8253 1.0000 0.0000
vt 0.8253 0.5000 0.0000
vt 0.8935 1.0000 0.0000
vt 0.7870 1.0000 0.0000
vt 0.0000 1.0000 0.0000
vt 0.0000 0.8750 0.0000
vt 1.0000 1.0000 0.0000
vt 0.5000 0.5000 0.0000
vt 0.5000 1.0000 0.0000
vt 0.2130 1.0000 0.0000
vt 0.2130 0.5000 0.0000
vt 0.1250 0.5000 0.0000
vt 0.1250 1.0000 0.0000
vt 0.1065 1.0000 0.0000
vt 0.1065 0.5000 0.0000
vt 0.2520 1.0000 0.0000
vt 0.2520 0.5000 0.0000
vt 0.2500 0.5000 0.0000
vt 0.2500 1.0000 0.0000
vt 0.2419 1.0000 0.0000
vt 0.2419 0.5000 0.0000
vt 0.9468 0.9066 0.0000
vt 0.2764 0.5000 0.0000
vt 0.2778 0.9093 0.0000
vt 0.6282 0.9093 0.0000
vt 0.6260 0.5000 0.0000
vt 0.6260 1.0000 0.0000
vt 0.9787 0.9093 0.0000
vt 0.9756 0.5000 0.0000
vt 0.2994 0.8331 0.0000
vt 0.2970 0.5000 0.0000
vt 0.6301 0.8331 0.0000
vt 0.9607 0.8331 0.0000
vt 0.9550 0.5000 0.0000
vt 0.7500 0.0000 1.0000
vt 0.8750 0.0000 1.0000
vt 0.8750 0.8267 1.0000
vt 0.7500 0.8267 1.0000
vt -0.1250 0.0000 1.0000
vt 0.0000 0.0000 1.0000
vt 0.0000 0.8267 1.0000
vt -0.1250 0.8267 1.0000
vt 0.1250 0.0000 1.0000
vt 0.1250 0.8267 1.0000
vt 0.2500 0.0000 1.0000
vt 0.2500 0.8267 1.0000
vt 0.3750 0.0000 1.0000
vt 0.3750 0.8267 1.0000
vt 0.5000 0.0000 1.0000
vt 0.5000 0.8267 1.0000
vt 0.6250 0.0000 1.0000
vt 0.6250 0.8267 1.0000
vt 0.6589 1.0000 1.0000
vt 0.7535 1.0000 1.0000
vt 0.3750 1.0000 1.0000
vt -0.0035 1.0000 1.0000
vt 0.0911 1.0000 1.0000
vt 0.1857 1.0000 1.0000
vt 0.2804 1.0000 1.0000
vt 0.4696 1.0000 1.0000
vt 0.5643 1.0000 1.0000
vt 0.8750 1.0000 1.0000
vt 0.7500 1.0000 1.0000
vt 0.0000 1.0000 1.0000
vt -0.1250 1.0000 1.0000
vt 0.1250 1.0000 1.0000
vt 0.2500 1.0000 1.0000
vt 0.5000 1.0000 1.0000
vt 0.6250 1.0000 1.0000
# 87 texture coords

o JailProp_Knife001
g JailProp_Knife001
usemtl Material__65
s 1
f 147/102/132 148/103/133 149/104/134 150/105/135 
f 149/104/134 151/106/136 152/107/137 153/108/138 154/109/135 150/105/135 
s 2
f 151/110/136 155/111/139 156/112/140 152/113/137 
f 157/114/141 158/115/142 159/116/143 160/117/144 
s 4
f 152/107/137 161/118/145 162/119/146 153/108/138 
s 2
f 158/115/142 161/120/145 163/121/147 159/116/143 
s 1
f 157/122/141 164/123/148 165/124/149 166/125/150 
s 4
f 167/104/151 148/126/133 147/124/132 168/105/152 
f 169/127/153 149/128/134 148/124/133 167/105/151 
s 2
f 170/104/154 165/126/149 164/129/148 171/130/155 
s 8
f 172/131/156 166/132/150 165/124/149 170/105/154 
s 2
f 155/111/139 151/110/136 149/128/134 169/127/153 
s 8
f 168/104/152 147/126/132 150/128/135 173/127/156 
s 2
f 171/130/155 164/129/148 157/133/141 160/134/144 
s 8
f 173/127/156 150/128/135 154/135/135 174/136/156 
f 175/137/156 153/138/138 162/139/146 176/140/156 
f 154/135/135 153/138/138 175/137/156 174/136/156 
s 1
f 158/141/142 157/122/141 166/125/150 
f 161/118/145 158/141/142 166/125/150 162/119/146 
s 2
f 161/120/145 152/113/137 156/112/140 163/121/147 
s 8
f 162/139/146 166/132/150 172/131/156 176/140/156 
s 1
f 177/142/157 178/143/158 179/144/159 180/145/160 
f 181/104/161 182/126/162 183/126/163 184/104/164 
s 2
f 182/126/162 185/146/165 186/146/166 183/126/163 
s 1
f 187/135/167 188/136/168 189/136/169 190/135/170 
f 191/126/163 192/126/163 193/104/171 194/104/171 
s 2
f 195/135/172 196/135/173 197/146/166 198/146/166 
s 1
f 199/136/174 200/136/175 196/135/173 195/135/172 
f 183/126/163 201/126/163 202/104/164 184/104/164 
s 2
f 190/135/170 203/135/176 204/146/166 186/146/166 
s 1
f 189/136/169 205/136/177 203/135/176 190/135/170 
f 206/126/163 191/126/163 194/104/171 207/104/171 
s 2
f 208/135/178 195/135/172 198/146/166 209/146/166 
s 1
f 210/136/179 199/136/174 195/135/172 208/135/178 
f 201/126/163 206/126/163 207/104/171 202/104/164 
s 2
f 203/135/176 208/135/178 209/146/166 204/146/166 
s 1
f 205/136/177 210/136/179 208/135/178 203/135/176 
f 192/126/163 211/126/163 212/104/171 193/104/171 
s 2
f 196/135/173 213/135/180 214/146/166 197/146/166 
s 1
f 200/136/175 215/136/181 213/135/180 196/135/173 
f 211/126/163 216/126/182 217/104/183 212/104/171 
s 2
f 213/135/180 218/135/184 219/146/185 214/146/166 
s 1
f 215/136/181 220/136/186 218/135/184 213/135/180 
s 4
f 178/143/158 177/142/157 188/136/168 187/135/167 
s 8
f 221/147/187 179/144/159 185/146/165 182/126/162 
s 4
f 222/148/188 221/147/187 182/126/162 181/104/161 
f 223/149/189 224/150/190 225/145/156 226/151/191 
s 5
f 217/104/183 216/126/182 227/152/192 228/153/193 
s 6
f 216/126/182 219/146/185 226/151/191 227/152/192 
s 5
f 218/135/184 220/136/186 224/150/190 223/149/189 
s 1
f 229/154/194 230/155/195 231/156/196 232/157/197 
s 2
f 230/158/195 233/159/198 234/160/199 231/161/196 
s 1
f 233/159/198 235/162/200 236/163/201 234/160/199 
s 2
f 235/162/200 237/164/156 238/165/202 236/163/201 
s 1
f 237/164/156 239/166/203 240/167/204 238/165/202 
s 2
f 239/166/203 241/168/164 242/169/205 240/167/204 
s 1
f 241/168/164 243/170/206 244/171/207 242/169/205 
s 2
f 243/170/206 229/154/194 232/157/197 244/171/207 
s 4
f 245/172/208 246/173/209 247/174/210 
f 246/175/209 248/176/211 247/174/210 
f 248/176/211 249/177/212 247/174/210 
f 249/177/212 250/178/213 247/174/210 
f 250/178/213 251/174/214 247/174/210 
f 251/174/214 252/179/215 247/174/210 
f 252/179/215 253/180/216 247/174/210 
f 253/180/216 245/172/208 247/174/210 
s 1
f 232/157/197 231/156/196 254/181/217 255/182/218 
s 2
f 231/161/196 234/160/199 256/183/219 254/184/217 
s 1
f 234/160/199 236/163/201 257/185/220 256/183/219 
s 2
f 236/163/201 238/165/202 258/186/221 257/185/220 
s 1
f 238/165/202 240/167/204 259/174/222 258/186/221 
s 2
f 240/167/204 242/169/205 260/187/223 259/174/222 
s 1
f 242/169/205 244/171/207 261/188/224 260/187/223 
s 2
f 244/171/207 232/157/197 255/182/218 261/188/224 
s 4
f 246/173/209 245/172/208 255/182/218 254/181/217 
f 248/176/211 246/175/209 254/184/217 256/183/219 
f 249/177/212 248/176/211 256/183/219 257/185/220 
f 250/178/213 249/177/212 257/185/220 258/186/221 
f 251/174/214 250/178/213 258/186/221 259/174/222 
f 252/179/215 251/174/214 259/174/222 260/187/223 
f 253/180/216 252/179/215 260/187/223 261/188/224 
f 245/172/208 253/180/216 261/188/224 255/182/218 
s 1
f 262/154/194 263/155/195 264/156/196 265/157/197 
s 2
f 263/158/195 266/159/198 267/160/225 264/161/196 
s 1
f 266/159/198 268/162/200 269/163/201 267/160/225 
s 2
f 268/162/200 270/164/156 271/165/202 269/163/201 
s 1
f 270/164/156 272/166/203 273/167/204 271/165/202 
s 2
f 272/166/203 274/168/164 275/169/226 273/167/204 
s 1
f 274/168/164 276/170/206 277/171/207 275/169/226 
s 2
f 276/170/206 262/154/194 265/157/197 277/171/207 
s 4
f 278/172/208 279/173/227 280/174/210 
f 279/175/227 281/176/211 280/174/210 
f 281/176/211 282/177/212 280/174/210 
f 282/177/212 283/178/213 280/174/210 
f 283/178/213 284/174/214 280/174/210 
f 284/174/214 285/179/215 280/174/210 
f 285/179/215 286/180/228 280/174/210 
f 286/180/228 278/172/208 280/174/210 
s 1
f 265/157/197 264/156/196 287/181/217 288/182/218 
s 2
f 264/161/196 267/160/225 289/183/219 287/184/217 
s 1
f 267/160/225 269/163/201 290/185/220 289/183/219 
s 2
f 269/163/201 271/165/202 291/186/221 290/185/220 
s 1
f 271/165/202 273/167/204 292/174/222 291/186/221 
s 2
f 273/167/204 275/169/226 293/187/223 292/174/222 
s 1
f 275/169/226 277/171/207 294/188/224 293/187/223 
s 2
f 277/171/207 265/157/197 288/182/218 294/188/224 
s 4
f 279/173/227 278/172/208 288/182/218 287/181/217 
f 281/176/211 279/175/227 287/184/217 289/183/219 
f 282/177/212 281/176/211 289/183/219 290/185/220 
f 283/178/213 282/177/212 290/185/220 291/186/221 
f 284/174/214 283/178/213 291/186/221 292/174/222 
f 285/179/215 284/174/214 292/174/222 293/187/223 
f 286/180/228 285/179/215 293/187/223 294/188/224 
f 278/172/208 286/180/228 294/188/224 288/182/218 
s 1
f 179/144/159 221/147/187 222/148/188 180/145/160 
s 2
f 185/146/165 187/135/167 190/135/170 186/146/166 
f 197/146/166 192/126/163 191/126/163 198/146/166 
f 204/146/166 201/126/163 183/126/163 186/146/166 
f 198/146/166 191/126/163 206/126/163 209/146/166 
f 209/146/166 206/126/163 201/126/163 204/146/166 
f 214/146/166 211/126/163 192/126/163 197/146/166 
f 219/146/185 216/126/182 211/126/163 214/146/166 
s 8
f 179/144/159 178/143/158 187/135/167 185/146/165 
s 4
f 225/145/156 228/153/193 227/152/192 226/151/191 
s 6
f 219/146/185 218/135/184 223/149/189 226/151/191 
s 1
f 295/102/229 296/105/230 297/104/231 298/103/232 
f 297/104/231 296/105/230 299/109/230 300/108/233 301/107/234 302/106/235 
s 2
f 302/110/235 301/113/234 156/112/140 155/111/139 
f 303/114/236 160/117/144 159/116/143 304/115/237 
s 4
f 301/107/234 300/108/233 305/119/238 306/118/239 
s 2
f 304/115/237 159/116/143 163/121/147 306/120/239 
s 1
f 303/122/236 307/125/240 308/124/241 309/123/242 
s 4
f 167/104/151 168/105/152 295/124/229 298/126/232 
f 169/127/153 167/105/151 298/124/232 297/128/231 
s 2
f 170/104/154 171/130/155 309/129/242 308/126/241 
s 8
f 172/131/156 170/105/154 308/124/241 307/132/240 
s 2
f 155/111/139 169/127/153 297/128/231 302/110/235 
s 8
f 168/104/152 173/127/156 296/128/230 295/126/229 
s 2
f 171/130/155 160/134/144 303/133/236 309/129/242 
s 8
f 173/127/156 174/136/156 299/135/230 296/128/230 
f 175/137/156 176/140/156 305/139/238 300/138/233 
f 299/135/230 174/136/156 175/137/156 300/138/233 
s 1
f 304/141/237 307/125/240 303/122/236 
f 306/118/239 305/119/238 307/125/240 304/141/237 
s 2
f 306/120/239 163/121/147 156/112/140 301/113/234 
s 8
f 305/139/238 176/140/156 172/131/156 307/132/240 
s 1
f 177/142/157 180/145/160 310/144/243 311/143/244 
f 181/104/161 184/104/164 312/126/245 313/126/246 
s 2
f 313/126/246 312/126/245 314/146/247 315/146/248 
s 1
f 316/135/249 317/135/250 189/136/169 188/136/168 
f 318/126/245 194/104/171 193/104/171 319/126/245 
s 2
f 320/135/251 321/146/247 322/146/247 323/135/252 
s 1
f 199/136/174 320/135/251 323/135/252 200/136/175 
f 312/126/245 184/104/164 202/104/164 324/126/245 
s 2
f 317/135/250 314/146/247 325/146/247 326/135/253 
s 1
f 189/136/169 317/135/250 326/135/253 205/136/177 
f 327/126/245 207/104/171 194/104/171 318/126/245 
s 2
f 328/135/254 329/146/247 321/146/247 320/135/251 
s 1
f 210/136/179 328/135/254 320/135/251 199/136/174 
f 324/126/245 202/104/164 207/104/171 327/126/245 
s 2
f 326/135/253 325/146/247 329/146/247 328/135/254 
s 1
f 205/136/177 326/135/253 328/135/254 210/136/179 
f 319/126/245 193/104/171 212/104/171 330/126/245 
s 2
f 323/135/252 322/146/247 331/146/247 332/135/255 
s 1
f 200/136/175 323/135/252 332/135/255 215/136/181 
f 330/126/245 212/104/171 217/104/183 333/126/256 
s 2
f 332/135/255 331/146/247 334/146/257 335/135/258 
s 1
f 215/136/181 332/135/255 335/135/258 220/136/186 
s 4
f 311/143/244 316/135/249 188/136/168 177/142/157 
s 8
f 336/147/259 313/126/246 315/146/248 310/144/243 
s 4
f 222/148/188 181/104/161 313/126/246 336/147/259 
f 337/149/260 338/151/261 225/145/156 224/150/190 
s 5
f 217/104/183 228/153/193 339/152/262 333/126/256 
s 6
f 333/126/256 339/152/262 338/151/261 334/146/257 
s 5
f 335/135/258 337/149/260 224/150/190 220/136/186 
s 1
f 229/154/194 340/157/263 341/156/264 230/155/195 
s 2
f 230/158/195 341/161/264 342/160/265 233/159/198 
s 1
f 233/159/198 342/160/265 343/163/266 235/162/200 
s 2
f 235/162/200 343/163/266 344/165/267 237/164/156 
s 1
f 237/164/156 344/165/267 345/167/268 239/166/203 
s 2
f 239/166/203 345/167/268 346/169/269 241/168/164 
s 1
f 241/168/164 346/169/269 347/171/270 243/170/206 
s 2
f 243/170/206 347/171/270 340/157/263 229/154/194 
s 4
f 348/172/271 349/174/272 350/173/273 
f 350/175/273 349/174/272 351/176/274 
f 351/176/274 349/174/272 352/177/275 
f 352/177/275 349/174/272 353/178/276 
f 353/178/276 349/174/272 354/174/277 
f 354/174/277 349/174/272 355/179/278 
f 355/179/278 349/174/272 356/180/279 
f 356/180/279 349/174/272 348/172/271 
s 1
f 340/157/263 357/182/280 358/181/281 341/156/264 
s 2
f 341/161/264 358/184/281 359/183/282 342/160/265 
s 1
f 342/160/265 359/183/282 360/185/283 343/163/266 
s 2
f 343/163/266 360/185/283 361/186/284 344/165/267 
s 1
f 344/165/267 361/186/284 362/174/285 345/167/268 
s 2
f 345/167/268 362/174/285 363/187/286 346/169/269 
s 1
f 346/169/269 363/187/286 364/188/287 347/171/270 
s 2
f 347/171/270 364/188/287 357/182/280 340/157/263 
s 4
f 350/173/273 358/181/281 357/182/280 348/172/271 
f 351/176/274 359/183/282 358/184/281 350/175/273 
f 352/177/275 360/185/283 359/183/282 351/176/274 
f 353/178/276 361/186/284 360/185/283 352/177/275 
f 354/174/277 362/174/285 361/186/284 353/178/276 
f 355/179/278 363/187/286 362/174/285 354/174/277 
f 356/180/279 364/188/287 363/187/286 355/179/278 
f 348/172/271 357/182/280 364/188/287 356/180/279 
s 1
f 262/154/194 365/157/263 366/156/264 263/155/195 
s 2
f 263/158/195 366/161/264 367/160/288 266/159/198 
s 1
f 266/159/198 367/160/288 368/163/266 268/162/200 
s 2
f 268/162/200 368/163/266 369/165/267 270/164/156 
s 1
f 270/164/156 369/165/267 370/167/268 272/166/203 
s 2
f 272/166/203 370/167/268 371/169/289 274/168/164 
s 1
f 274/168/164 371/169/289 372/171/270 276/170/206 
s 2
f 276/170/206 372/171/270 365/157/263 262/154/194 
s 4
f 373/172/271 374/174/247 375/173/290 
f 375/175/290 374/174/247 376/176/274 
f 376/176/274 374/174/247 377/177/275 
f 377/177/275 374/174/247 378/178/276 
f 378/178/276 374/174/247 379/174/277 
f 379/174/277 374/174/247 380/179/278 
f 380/179/278 374/174/247 381/180/291 
f 381/180/291 374/174/247 373/172/271 
s 1
f 365/157/263 382/182/280 383/181/281 366/156/264 
s 2
f 366/161/264 383/184/281 384/183/282 367/160/288 
s 1
f 367/160/288 384/183/282 385/185/283 368/163/266 
s 2
f 368/163/266 385/185/283 386/186/284 369/165/267 
s 1
f 369/165/267 386/186/284 387/174/285 370/167/268 
s 2
f 370/167/268 387/174/285 388/187/286 371/169/289 
s 1
f 371/169/289 388/187/286 389/188/287 372/171/270 
s 2
f 372/171/270 389/188/287 382/182/280 365/157/263 
s 4
f 375/173/290 383/181/281 382/182/280 373/172/271 
f 376/176/274 384/183/282 383/184/281 375/175/290 
f 377/177/275 385/185/283 384/183/282 376/176/274 
f 378/178/276 386/186/284 385/185/283 377/177/275 
f 379/174/277 387/174/285 386/186/284 378/178/276 
f 380/179/278 388/187/286 387/174/285 379/174/277 
f 381/180/291 389/188/287 388/187/286 380/179/278 
f 373/172/271 382/182/280 389/188/287 381/180/291 
s 1
f 310/144/243 180/145/160 222/148/188 336/147/259 
s 2
f 315/146/248 314/146/247 317/135/250 316/135/249 
f 322/146/247 321/146/247 318/126/245 319/126/245 
f 325/146/247 314/146/247 312/126/245 324/126/245 
f 321/146/247 329/146/247 327/126/245 318/126/245 
f 329/146/247 325/146/247 324/126/245 327/126/245 
f 331/146/247 322/146/247 319/126/245 330/126/245 
f 334/146/257 331/146/247 330/126/245 333/126/256 
s 8
f 310/144/243 315/146/248 316/135/249 311/143/244 
s 4
f 225/145/156 338/151/261 339/152/262 228/153/193 
s 6
f 334/146/257 338/151/261 337/149/260 335/135/258 
# 216 polygons - 34 triangles

