# 3ds Max Wavefront OBJ Exporter v0.99 - (c)2007 guruware
# File Created: 15.12.2025 15:05:48

mtllib Prop_Chair_001.mtl

#
# object Chair
#

v  -0.2903 0.4611 0.2552
v  -0.2903 0.4611 -0.2552
v  -0.2360 0.4611 -0.2552
v  -0.2360 0.4611 0.2552
v  -0.2360 0.5219 0.2552
v  -0.2360 0.5219 -0.2552
v  -0.2903 0.5219 -0.2552
v  -0.2903 0.5219 0.2552
v  -0.2903 0.4611 0.3010
v  -0.2360 0.4611 0.3010
v  -0.2360 0.5219 0.3010
v  -0.2903 0.5219 0.3010
v  0.2903 0.4611 0.2552
v  0.2903 0.4611 -0.2552
v  0.2903 0.5219 -0.2552
v  0.2903 0.5219 0.2552
v  0.2903 0.4611 -0.3010
v  0.2416 0.4611 -0.3010
v  0.2416 0.5219 -0.3010
v  0.2903 0.5219 -0.3010
v  0.2416 0.4611 0.2552
v  0.2416 0.4611 -0.2552
v  0.2416 0.5219 -0.2552
v  0.2416 0.5219 0.2552
v  0.2416 0.4611 0.3010
v  0.2416 0.5219 0.3010
v  -0.2360 0.4611 -0.3010
v  -0.2903 0.4611 -0.3010
v  -0.2903 0.5219 -0.3010
v  -0.2360 0.5219 -0.3010
v  -0.2903 0.0000 -0.2552
v  -0.2903 0.0000 -0.3010
v  -0.2360 0.0000 -0.3010
v  -0.2360 0.0000 -0.2552
v  -0.2360 0.0000 0.2552
v  -0.2360 0.0000 0.3010
v  -0.2903 0.0000 0.3010
v  -0.2903 0.0000 0.2552
v  -0.2360 1.0530 -0.2552
v  -0.2360 1.0530 -0.3010
v  -0.2903 1.0530 -0.3010
v  -0.2903 1.0530 -0.2552
v  -0.2903 1.0530 0.2552
v  -0.2903 1.0530 0.3010
v  -0.2360 1.0530 0.3010
v  -0.2360 1.0530 0.2552
v  0.2903 0.5219 0.3010
v  0.2903 0.4611 0.3010
v  0.2903 0.0000 0.2552
v  0.2903 0.0000 0.3010
v  0.2416 0.0000 0.3010
v  0.2416 0.0000 0.2552
v  -0.2903 0.9939 -0.2552
v  -0.2903 0.9939 -0.3010
v  -0.2360 0.9939 -0.2552
v  -0.2360 0.9939 -0.3010
v  -0.2360 0.9939 0.3010
v  -0.2903 0.9939 0.3010
v  -0.2360 0.9939 0.2552
v  -0.2903 0.9939 0.2552
v  0.2416 0.0000 -0.3010
v  0.2903 0.0000 -0.3010
v  0.2903 0.0000 -0.2552
v  0.2416 0.0000 -0.2552
# 64 vertices

vn -0.9045 -0.3015 -0.3015
vn -0.9045 -0.3015 0.3015
vn 0.3015 -0.9045 0.3015
vn 0.3015 -0.9045 -0.3015
vn 0.3015 0.9045 -0.3015
vn 0.3015 0.9045 0.3015
vn -0.9045 0.3015 0.3015
vn -0.9045 0.3015 -0.3015
vn -0.7071 -0.0000 0.7071
vn 0.3015 -0.3015 0.9045
vn 0.3015 0.3015 0.9045
vn -0.7071 0.0000 0.7071
vn 0.9045 -0.3015 -0.3015
vn 0.9045 -0.3015 0.3015
vn 0.7071 0.7071 -0.0000
vn 0.7071 -0.0000 -0.7071
vn -0.3015 -0.3015 -0.9045
vn -0.0000 0.7071 -0.7071
vn 0.5774 0.5774 -0.5774
vn -0.3015 -0.9045 -0.3015
vn -0.3015 -0.9045 0.3015
vn -0.0000 1.0000 -0.0000
vn -0.3015 -0.3015 0.9045
vn -0.0000 0.7071 0.7071
vn 0.3015 -0.3015 -0.9045
vn -0.7071 -0.0000 -0.7071
vn -0.7071 0.0000 -0.7071
vn 0.3015 0.3015 -0.9045
vn -0.5774 -0.5774 0.5774
vn -0.5774 -0.5774 -0.5774
vn 0.5773 -0.5774 -0.5774
vn 0.5774 -0.5774 0.5774
vn 0.5774 -0.5774 -0.5774
vn 0.5773 -0.5774 0.5774
vn 0.5774 0.5773 -0.5774
vn -0.5773 0.5774 -0.5773
vn -0.7071 0.7071 -0.0000
vn -0.5773 0.5774 0.5773
vn 0.5774 0.5773 0.5774
vn 0.5774 0.5774 0.5774
vn 0.7071 -0.0000 0.7071
# 41 vertex normals

vt 1.0000 0.0762 0.0000
vt 1.0000 0.9238 0.0000
vt 0.8474 0.9238 0.0000
vt 0.8474 0.0762 0.0000
vt 0.1526 0.0762 0.0000
vt 0.1526 0.9238 0.0000
vt 0.0000 0.9238 0.0000
vt 0.0000 0.0762 0.0000
vt 0.0000 0.0000 0.0000
vt 0.1526 0.0000 0.0000
vt 0.1526 1.0000 0.0000
vt 0.0000 1.0000 0.0000
vt 0.0762 0.0000 0.0000
vt 0.9238 0.0000 0.0000
vt 0.9238 1.0000 0.0000
vt 0.0762 1.0000 0.0000
vt 0.0785 0.0000 0.0000
vt 0.0785 1.0000 0.0000
vt 0.0785 0.0762 0.0000
vt 0.0785 0.9238 0.0000
vt 0.9215 0.9238 0.0000
vt 0.9215 0.0762 0.0000
vt 0.9215 0.0000 0.0000
vt 0.9215 1.0000 0.0000
vt 0.8474 0.0000 0.0000
vt 1.0000 0.0000 0.0000
vt 1.0000 1.0000 0.0000
vt 0.8474 1.0000 0.0000
# 28 texture coords

o Chair
g Chair
usemtl Material__65
s 2
f 1/1/1 2/2/2 3/3/3 4/4/4 
s 4
f 5/5/5 6/6/6 7/7/7 8/8/8 
s 8
f 9/9/9 10/10/10 11/11/11 12/12/12 
s 16
f 13/13/13 14/14/14 15/15/15 16/16/15 
s 32
f 17/9/16 18/17/17 19/18/18 20/12/19 
s 64
f 2/13/2 1/14/1 8/15/8 7/16/7 
s 2
f 14/7/14 13/8/13 21/19/20 22/20/21 
s 4
f 16/1/15 15/2/15 23/21/22 24/22/22 
s 8
f 10/10/10 25/23/23 26/24/24 11/11/11 
s 32
f 27/25/25 28/26/26 29/27/27 30/28/28 
s 2
f 31/2/29 32/27/30 33/28/31 34/3/32 
f 35/4/33 36/25/34 37/26/29 38/1/30 
s 4
f 39/6/15 40/11/35 41/12/36 42/7/37 
f 43/8/37 44/9/38 45/10/39 46/5/15 
s 16
f 14/14/14 17/26/16 20/27/19 15/15/15 
f 16/16/15 47/12/40 48/9/41 13/13/13 
s 64
f 1/14/1 9/26/9 12/27/12 8/15/8 
f 7/16/7 29/12/27 28/9/26 2/13/2 
s 2
f 49/8/33 50/9/32 51/17/29 52/19/30 
f 3/3/3 27/28/25 18/18/17 22/20/21 
s 4
f 15/2/15 20/27/19 19/24/18 23/21/22 
f 5/5/5 11/10/11 26/23/24 24/22/22 
s off
f 29/12/27 7/7/7 53/7/2 54/12/27 
f 7/7/7 6/6/6 55/6/14 53/7/2 
f 6/6/6 30/11/28 56/11/16 55/6/14 
f 30/11/28 29/12/27 54/12/27 56/11/16 
f 12/9/12 11/10/11 57/10/41 58/9/12 
f 11/10/11 5/5/5 59/5/13 57/10/41 
f 5/5/5 8/8/8 60/8/1 59/5/13 
f 8/8/8 12/9/12 58/9/12 60/8/1 
s 32
f 18/17/17 27/25/25 30/28/28 19/18/18 
s 2
f 21/19/20 4/4/4 3/3/3 22/20/21 
s 4
f 23/21/22 6/6/6 5/5/5 24/22/22 
s 8
f 25/23/23 48/26/41 47/27/40 26/24/24 
s 2
f 25/17/23 10/25/10 4/4/4 21/19/20 
f 61/18/30 62/12/33 63/7/32 64/20/29 
s 4
f 19/24/18 30/11/28 6/6/6 23/21/22 
f 26/23/24 47/26/40 16/1/15 24/22/22 
s 32
f 28/27/26 27/28/25 33/28/31 32/27/30 
s off
f 27/28/25 3/3/3 34/3/32 33/28/31 
f 3/3/3 2/2/2 31/2/29 34/3/32 
s 64
f 2/2/2 28/27/26 32/27/30 31/2/29 
f 9/26/9 1/1/1 38/1/30 37/26/29 
s off
f 1/1/1 4/4/4 35/4/33 38/1/30 
f 4/4/4 10/25/10 36/25/34 35/4/33 
s 8
f 10/25/10 9/26/9 37/26/29 36/25/34 
f 48/9/41 25/17/23 51/17/29 50/9/32 
s off
f 25/17/23 21/19/20 52/19/30 51/17/29 
f 21/19/20 13/8/13 49/8/33 52/19/30 
s 16
f 13/8/13 48/9/41 50/9/32 49/8/33 
f 17/12/16 14/7/14 63/7/32 62/12/33 
s off
f 14/7/14 22/20/21 64/20/29 63/7/32 
f 22/20/21 18/18/17 61/18/30 64/20/29 
s 32
f 18/18/17 17/12/16 62/12/33 61/18/30 
s off
f 53/7/2 42/7/37 41/12/36 54/12/27 
f 56/11/16 40/11/35 39/6/15 55/6/14 
f 54/12/27 41/12/36 40/11/35 56/11/16 
f 57/10/41 45/10/39 44/9/38 58/9/12 
f 59/5/13 46/5/15 45/10/39 57/10/41 
f 58/9/12 44/9/38 43/8/37 60/8/1 
s 1
f 39/6/15 42/7/37 43/8/37 46/5/15 
s 2
f 42/7/37 53/7/2 60/8/1 43/8/37 
s 1
f 53/7/2 55/6/14 59/5/13 60/8/1 
s 2
f 55/6/14 39/6/15 46/5/15 59/5/13 
# 64 polygons

