# 3ds Max Wavefront OBJ Exporter v0.99 - (c)2007 guruware
# File Created: 31.12.2025 20:57:19

mtllib PSNA_Graffit01.mtl

#
# object PSNA_Graffit01
#

v  3.5393 0.1194 2.2869
v  3.5133 0.1453 -4.4873
v  -3.5035 0.1453 -4.4873
v  -3.5295 0.1194 2.2869
v  3.5393 3.2943 2.2869
v  3.5133 3.2683 -4.4873
v  -3.5295 3.2943 2.2869
v  -3.5035 3.2683 -4.4873
# 8 vertices

vn -0.5784 0.5784 -0.5753
vn -0.7071 0.7071 0.0054
vn 0.7071 0.7071 0.0054
vn 0.5784 0.5784 -0.5753
vn -0.5784 -0.5784 -0.5753
vn -0.7071 -0.7071 0.0054
vn 0.5784 -0.5784 -0.5753
vn 0.7071 -0.7071 0.0054
# 8 vertex normals

vt 0.0833 0.0000 1.0000
vt -0.0833 0.0000 1.0000
vt 0.0833 1.0000 1.0000
vt -0.0833 1.0000 1.0000
# 4 texture coords

o PSNA_Graffit01
g PSNA_Graffit01
usemtl Material__65
s off
f 1/1/1 2/1/2 3/2/3 4/2/4 
f 5/3/5 6/3/6 2/1/2 1/1/1 
f 7/4/7 8/4/8 6/3/6 5/3/5 
f 4/2/4 3/2/3 8/4/8 7/4/7 
s 1
f 7/4/7 5/3/5 1/1/1 4/2/4 
# 5 polygons

