# 3ds Max Wavefront OBJ Exporter v0.99 - (c)2007 guruware
# File Created: 13.01.2026 19:41:19

mtllib PSNA_Awl01.mtl

#
# object PSNA_Awl01
#

v  0.0117 0.0003 0.1109
v  0.0083 -0.0079 0.1109
v  0.0083 -0.0079 -0.3390
v  0.0117 0.0003 -0.3390
v  0.0001 -0.0113 0.1109
v  0.0001 -0.0113 -0.3390
v  -0.0081 -0.0079 0.1109
v  -0.0081 -0.0079 -0.3390
v  -0.0115 0.0003 0.1109
v  -0.0115 0.0003 -0.3390
v  -0.0081 0.0085 0.1109
v  -0.0081 0.0085 -0.3390
v  0.0001 0.0119 0.1109
v  0.0001 0.0119 -0.3390
v  0.0083 0.0085 0.1109
v  0.0083 0.0085 -0.3390
v  0.0042 -0.0096 -0.4062
v  0.0100 0.0044 -0.4062
v  -0.0098 -0.0038 -0.4062
v  -0.0040 0.0102 -0.4062
v  0.0001 0.0003 -0.4977
v  0.0573 -0.0022 0.0584
v  0.0496 -0.0360 0.0846
v  0.0484 -0.0206 0.0606
v  0.0454 -0.0362 0.0383
v  -0.0052 -0.0800 0.1416
v  0.0187 -0.0454 0.0242
v  -0.0671 -0.0634 0.1865
v  -0.0601 -0.0630 0.0205
v  -0.0859 -0.0197 0.1680
v  -0.0781 -0.0038 0.0252
v  -0.0659 0.0287 0.0331
v  0.0162 0.0650 0.1048
v  -0.0114 0.0495 0.0134
v  0.0432 0.0321 0.0633
v  0.0287 0.0350 0.0227
v  0.0596 0.0065 0.0572
v  0.0436 -0.0010 0.0251
v  -0.0680 -0.0149 -0.0029
v  -0.0541 -0.0462 -0.0117
v  -0.0496 0.0267 -0.0060
v  0.0688 -0.0027 0.0849
v  0.0784 0.0064 0.1488
v  0.0738 -0.0195 0.1584
v  0.0077 -0.0742 0.2267
v  0.0275 -0.0341 0.0211
v  0.0193 -0.0036 -0.0174
v  -0.0432 0.0579 0.1707
v  0.0407 0.0413 0.0943
v  0.0125 -0.0210 -0.0173
v  0.0140 0.0128 -0.0165
v  -0.0152 -0.0565 0.0019
v  -0.0232 -0.0116 -0.0075
v  -0.0202 0.0078 -0.0093
v  -0.0142 0.0205 -0.0065
v  -0.0031 0.0237 -0.0103
v  -0.0024 0.0041 -0.0113
v  0.0650 0.0527 0.1274
v  0.0202 0.0748 0.1638
v  0.0266 0.0701 0.1645
v  0.0482 0.0601 0.1724
v  0.0552 0.0522 0.1727
v  0.0596 0.0569 0.2900
v  0.0666 0.0490 0.2902
v  0.0858 0.0110 0.2814
v  0.0906 -0.0309 0.2933
v  0.0963 -0.0742 0.3166
v  -0.0219 -0.0737 0.2509
v  -0.0474 -0.0692 0.2047
v  0.0891 -0.0777 0.3245
v  -0.0396 -0.0574 0.3734
v  -0.0604 -0.0638 0.2991
v  -0.0768 -0.0601 0.2764
v  -0.0837 -0.0127 0.1786
v  -0.0864 0.0057 0.2423
v  -0.0476 0.0497 0.1825
v  -0.0848 0.0464 0.2280
v  -0.0875 0.0035 0.2661
v  -0.0921 0.0410 0.2641
v  -0.0963 -0.0021 0.2856
v  -0.0489 0.0746 0.2347
v  -0.0325 0.0721 0.2084
v  -0.0131 0.0662 0.1720
v  -0.0743 0.0675 0.2768
v  -0.0210 0.0800 0.2417
v  0.0108 0.0739 0.2087
v  0.0340 0.0667 0.1856
v  0.0427 0.0645 0.3078
v  0.0217 0.0719 0.3268
v  -0.0438 0.0470 0.3689
v  -0.0696 -0.0040 0.3805
v  -0.0766 0.0070 0.3956
v  -0.0541 0.0395 0.3889
v  -0.0296 0.0710 0.3729
v  -0.0188 0.0780 0.3647
v  -0.0371 0.0340 0.4417
v  0.0017 0.0665 0.4040
v  -0.0479 -0.0093 0.4878
v  -0.0329 -0.0403 0.4882
v  0.0094 0.0713 0.3933
v  0.0508 0.0551 0.3709
v  0.0840 0.0396 0.3542
v  0.0948 -0.0074 0.3494
v  0.0735 -0.0369 0.3366
v  0.0061 -0.0652 0.3836
v  0.0131 -0.0628 0.4390
v  0.0357 -0.0562 0.4202
v  0.0693 -0.0044 0.3472
v  0.0457 -0.0302 0.4387
v  0.0436 0.0402 0.4463
v  0.0326 0.0586 0.4249
v  0.0098 0.0368 0.4804
v  0.0348 0.0254 0.4634
v  0.0395 -0.0198 0.4578
v  0.0330 -0.0382 0.4637
v  0.0075 -0.0356 0.4802
v  -0.0198 0.0276 0.4768
v  0.0005 0.0007 0.4977
v  0.0227 -0.0047 0.4872
# 119 vertices

vn 1.0000 -0.0000 0.0000
vn 0.7071 -0.7071 0.0000
vn 0.7122 -0.7019 -0.0130
vn 0.9999 -0.0073 -0.0130
vn 0.0000 -1.0000 0.0000
vn -0.0073 -0.9999 -0.0130
vn -0.7071 -0.7071 0.0000
vn -0.7018 -0.7122 -0.0130
vn -1.0000 0.0000 -0.0000
vn -0.9999 0.0073 -0.0130
vn -0.7071 0.7071 -0.0000
vn -0.7122 0.7018 -0.0130
vn -0.0000 1.0000 -0.0000
vn 0.0073 0.9999 -0.0130
vn 0.7071 0.7071 -0.0000
vn 0.7018 0.7122 -0.0130
vn 0.3812 -0.9203 -0.0882
vn 0.9203 0.3812 -0.0882
vn -0.9203 -0.3812 -0.0882
vn -0.3812 0.9203 -0.0882
vn 0.0000 0.0000 -1.0000
vn 0.8527 -0.3717 -0.3670
vn 0.7568 -0.6403 -0.1315
vn 0.9391 -0.2534 -0.2320
vn 0.7974 -0.4964 -0.3431
vn 0.0612 -0.9848 -0.1628
vn 0.4508 -0.8245 -0.3419
vn -0.7287 -0.5811 0.3623
vn -0.5059 -0.8383 -0.2034
vn -0.9973 -0.0077 0.0729
vn -0.9675 0.1080 -0.2288
vn -0.7228 0.6731 -0.1565
vn 0.1251 0.9644 -0.2332
vn -0.0077 0.9006 -0.4345
vn 0.7489 0.6416 -0.1660
vn 0.6390 0.6910 -0.3379
vn 0.9088 0.2150 -0.3575
vn 0.8789 0.0051 -0.4769
vn -0.7315 -0.0198 -0.6815
vn -0.3593 -0.4047 -0.8409
vn -0.4261 0.5151 -0.7437
vn 0.9741 -0.0447 -0.2215
vn 0.9879 0.1080 -0.1114
vn 0.8448 -0.5066 -0.1722
vn 0.2072 -0.9756 -0.0724
vn 0.6724 -0.4768 -0.5661
vn 0.4857 -0.0045 -0.8741
vn -0.5458 0.8257 0.1425
vn 0.6966 0.6447 -0.3148
vn 0.3082 -0.3357 -0.8901
vn 0.2887 0.3571 -0.8883
vn 0.2431 -0.8859 -0.3949
vn -0.1541 0.1000 -0.9830
vn -0.0748 0.0661 -0.9950
vn -0.1433 0.3531 -0.9245
vn -0.1508 0.4533 -0.8785
vn -0.2355 0.0549 -0.9703
vn 0.7723 0.5700 -0.2803
vn 0.1477 0.9884 0.0346
vn 0.5313 0.8395 -0.1136
vn 0.5576 0.8301 -0.0103
vn 0.8239 0.5653 0.0414
vn 0.5806 0.8137 -0.0274
vn 0.8138 0.5721 -0.1024
vn 0.9563 0.2785 -0.0889
vn 0.9794 0.1611 0.1214
vn 0.8660 -0.4770 0.1500
vn -0.1186 -0.9927 0.0223
vn -0.4599 -0.8875 0.0277
vn 0.5625 -0.7531 0.3412
vn -0.5297 -0.8340 0.1542
vn -0.5454 -0.8141 0.1995
vn -0.8004 -0.5775 0.1611
vn -0.9955 0.0874 0.0373
vn -0.9978 -0.0560 -0.0358
vn -0.7983 0.5778 -0.1695
vn -0.8480 0.3663 -0.3831
vn -0.9526 -0.2156 -0.2145
vn -0.9645 0.2568 0.0621
vn -0.9803 -0.1879 -0.0611
vn -0.3703 0.9094 -0.1895
vn -0.3028 0.9055 -0.2972
vn -0.2230 0.9681 -0.1140
vn -0.6225 0.7749 0.1100
vn -0.0283 0.9993 -0.0257
vn 0.1385 0.9838 -0.1139
vn 0.3988 0.9168 0.0184
vn 0.3960 0.9173 0.0408
vn 0.1511 0.9860 0.0710
vn -0.7653 0.6416 -0.0528
vn -0.9873 -0.1586 -0.0005
vn -0.9902 0.1259 -0.0599
vn -0.7947 0.6047 0.0533
vn -0.6461 0.7616 0.0493
vn -0.4508 0.8482 -0.2781
vn -0.6066 0.7211 0.3347
vn -0.1696 0.9104 0.3773
vn -0.7277 0.0710 0.6822
vn -0.3835 -0.6345 0.6711
vn 0.1522 0.9742 0.1667
vn 0.4642 0.8774 0.1210
vn 0.8630 0.4334 0.2595
vn 0.7482 -0.2867 0.5984
vn 0.8611 -0.0888 0.5006
vn -0.0867 -0.9939 0.0684
vn 0.1377 -0.9513 0.2757
vn 0.5773 -0.7780 0.2480
vn 0.6416 -0.2475 0.7260
vn 0.9301 -0.2609 0.2584
vn 0.7545 0.4532 0.4747
vn 0.3876 0.8736 0.2943
vn 0.1403 0.6823 0.7174
vn 0.7675 0.2131 0.6047
vn 0.9117 -0.0500 0.4079
vn 0.6560 -0.5192 0.5478
vn 0.3031 -0.5908 0.7478
vn -0.4064 0.6926 0.5959
vn 0.1073 0.0988 0.9893
vn 0.6178 -0.0536 0.7845
# 119 vertex normals

vt 0.1021 0.0000 0.0000
vt 0.1167 0.0000 0.0000
vt 0.1167 0.7393 0.0000
vt 0.1021 0.7393 0.0000
vt -0.0000 0.0000 0.0000
vt 0.0146 0.0000 0.0000
vt 0.0146 0.7393 0.0000
vt -0.0000 0.7393 0.0000
vt 0.0292 0.0000 0.0000
vt 0.0292 0.7393 0.0000
vt 0.0437 0.0000 0.0000
vt 0.0437 0.7393 0.0000
vt 0.0583 0.0000 0.0000
vt 0.0583 0.7393 0.0000
vt 0.0729 0.0000 0.0000
vt 0.0729 0.7393 0.0000
vt 0.0875 0.0000 0.0000
vt 0.0875 0.7393 0.0000
vt 0.1099 0.8524 0.0000
vt 0.0856 0.8524 0.0000
vt 0.0118 0.8524 0.0000
vt 0.0364 0.8524 0.0000
vt 0.0610 0.8524 0.0000
vt 0.0593 1.0000 0.0000
vt 0.3332 0.1334 0.0000
vt 0.2920 0.1542 0.0000
vt 0.3137 0.1314 0.0000
vt 0.3053 0.1068 0.0000
vt 0.2057 0.1977 0.0000
vt 0.2879 0.0828 0.0000
vt 0.1260 0.2249 0.0000
vt 0.2134 0.0446 0.0000
vt 0.5653 0.0354 0.0000
vt 0.5874 0.2165 0.0000
vt 0.5117 0.0703 0.0000
vt 0.4843 0.0910 0.0000
vt 0.4183 0.1783 0.0000
vt 0.4218 0.0821 0.0000
vt 0.3722 0.1376 0.0000
vt 0.3812 0.0943 0.0000
vt 0.3419 0.1339 0.0000
vt 0.3418 0.0962 0.0000
vt 0.5013 0.0391 0.0000
vt 0.5202 0.0102 0.0000
vt 0.4577 0.0571 0.0000
vt 0.3289 0.1617 0.0000
vt 0.3273 0.2256 0.0000
vt 0.2997 0.2350 0.0000
vt 0.1946 0.2950 0.0000
vt 0.3048 0.0838 0.0000
vt 0.3494 0.0458 0.0000
vt 0.4951 0.2344 0.0000
vt 0.3814 0.1681 0.0000
vt 0.3266 0.0445 0.0000
vt 0.3723 0.0419 0.0000
vt 0.6423 0.2242 0.0000
vt 0.2690 0.0470 0.0000
vt 0.2466 0.0107 0.0000
vt 0.3074 0.0096 0.0000
vt 0.4512 0.0148 0.0000
vt 0.4325 0.0316 0.0000
vt 0.4196 0.0452 0.0000
vt 0.4026 0.0474 0.0000
vt 0.3443 0.0206 0.0000
vt 0.4069 0.0258 0.0000
vt 0.3761 0.2072 0.0000
vt 0.4260 0.2362 0.0000
vt 0.4180 0.2370 0.0000
vt 0.3950 0.2463 0.0000
vt 0.3840 0.2471 0.0000
vt 0.3936 0.3595 0.0000
vt 0.3837 0.3596 0.0000
vt 0.3431 0.3505 0.0000
vt 0.3033 0.3645 0.0000
vt 0.2660 0.3881 0.0000
vt 0.1576 0.3220 0.0000
vt 0.1430 0.2551 0.0000
vt 0.2602 0.3957 0.0000
vt 0.1711 0.4844 0.0000
vt 0.1253 0.3943 0.0000
vt 0.6455 0.3444 0.0000
vt 0.6612 0.2541 0.0000
vt 0.6991 0.3078 0.0000
vt 0.6543 0.3778 0.0000
vt 0.5842 0.2297 0.0000
vt 0.5779 0.3054 0.0000
vt 0.5062 0.2451 0.0000
vt 0.5386 0.2945 0.0000
vt 0.5827 0.3319 0.0000
vt 0.5476 0.3301 0.0000
vt 0.5843 0.3561 0.0000
vt 0.4953 0.3019 0.0000
vt 0.4817 0.2753 0.0000
vt 0.4627 0.2398 0.0000
vt 0.5192 0.3426 0.0000
vt 0.4692 0.3089 0.0000
vt 0.4371 0.2781 0.0000
vt 0.4116 0.2577 0.0000
vt 0.4124 0.3766 0.0000
vt 0.4346 0.3955 0.0000
vt 0.5041 0.4399 0.0000
vt 0.5625 0.4626 0.0000
vt 0.6249 0.4783 0.0000
vt 0.5448 0.4752 0.0000
vt 0.5083 0.4633 0.0000
vt 0.4765 0.4460 0.0000
vt 0.4648 0.4391 0.0000
vt 0.4817 0.5199 0.0000
vt 0.4429 0.4772 0.0000
vt 0.5073 0.5741 0.0000
vt 0.5360 0.5972 0.0000
vt 0.4371 0.4655 0.0000
vt 0.3999 0.4393 0.0000
vt 0.3697 0.4202 0.0000
vt 0.3286 0.4098 0.0000
vt 0.2974 0.4141 0.0000
vt 0.2216 0.4778 0.0000
vt 0.2659 0.5274 0.0000
vt 0.2748 0.5000 0.0000
vt 0.3274 0.4293 0.0000
vt 0.3098 0.5159 0.0000
vt 0.3867 0.5170 0.0000
vt 0.4083 0.4952 0.0000
vt 0.4149 0.5628 0.0000
vt 0.3802 0.5383 0.0000
vt 0.3266 0.5349 0.0000
vt 0.3072 0.5423 0.0000
vt 0.3023 0.5712 0.0000
vt 0.4561 0.5587 0.0000
vt 0.4605 0.6027 0.0000
vt 0.2702 0.6055 0.0000
vt 0.3491 0.5941 0.0000
vt 0.3469 0.5687 0.0000
# 133 texture coords

o PSNA_Awl01
g PSNA_Awl01
usemtl PSNA_Awl
s 1
f 1/1/1 2/2/2 3/3/3 4/4/4 
f 2/5/2 5/6/5 6/7/6 3/8/3 
f 5/6/5 7/9/7 8/10/8 6/7/6 
f 7/9/7 9/11/9 10/12/10 8/10/8 
f 9/11/9 11/13/11 12/14/12 10/12/10 
f 11/13/11 13/15/13 14/16/14 12/14/12 
f 13/15/13 15/17/15 16/18/16 14/16/14 
f 15/17/15 1/1/1 4/4/4 16/18/16 
f 3/3/3 17/19/17 18/20/18 4/4/4 
f 6/7/6 17/21/17 3/8/3 
f 8/10/8 19/22/19 17/21/17 6/7/6 
f 10/12/10 19/22/19 8/10/8 
f 12/14/12 20/23/20 19/22/19 10/12/10 
f 14/16/14 20/23/20 12/14/12 
f 16/18/16 18/20/18 20/23/20 14/16/14 
f 4/4/4 18/20/18 16/18/16 
f 18/20/18 17/19/17 21/24/21 
f 17/21/17 19/22/19 21/24/21 
f 19/22/19 20/23/20 21/24/21 
f 20/23/20 18/20/18 21/24/21 
f 22/25/22 23/26/23 24/27/24 
f 25/28/25 26/29/26 27/30/27 
f 27/30/27 26/29/26 28/31/28 29/32/29 
f 29/33/29 30/34/30 31/35/31 
f 31/35/31 30/34/30 32/36/32 
f 32/36/32 33/37/33 34/38/34 
f 34/38/34 33/37/33 35/39/35 36/40/36 
f 37/41/37 22/25/22 38/42/38 
f 39/43/39 40/44/40 29/33/29 31/35/31 
f 39/43/39 31/35/31 32/36/32 41/45/41 
f 42/46/42 43/47/43 44/48/44 23/26/23 
f 23/26/23 44/48/44 45/49/45 
f 23/26/23 45/49/45 26/29/26 
f 46/50/46 38/42/38 25/28/25 
f 47/51/47 38/42/38 46/50/46 
f 32/36/32 48/52/48 33/37/33 
f 33/37/33 49/53/49 35/39/35 
f 35/39/35 49/53/49 43/47/43 42/46/42 
f 42/46/42 22/25/22 37/41/37 
f 22/25/22 42/46/42 23/26/23 
f 23/26/23 25/28/25 24/27/24 
f 25/28/25 38/42/38 24/27/24 
f 24/27/24 38/42/38 22/25/22 
f 38/42/38 36/40/36 35/39/35 37/41/37 
f 37/41/37 35/39/35 42/46/42 
f 25/28/25 27/30/27 46/50/46 
f 46/50/46 50/54/50 47/51/47 
f 46/50/46 27/30/27 50/54/50 
f 51/55/51 36/40/36 38/42/38 47/51/47 
f 32/36/32 34/38/34 41/45/41 
f 30/34/30 48/52/48 32/36/32 
f 29/33/29 28/56/28 30/34/30 
f 52/57/52 29/32/29 40/58/40 
f 52/57/52 27/30/27 29/32/29 
f 52/57/52 50/54/50 27/30/27 
s 2
f 50/54/50 52/57/52 40/58/40 53/59/53 
f 53/60/53 39/43/39 54/61/54 
f 53/60/53 40/44/40 39/43/39 
f 39/43/39 41/45/41 54/61/54 
f 54/61/54 41/45/41 55/62/55 
f 41/45/41 34/38/34 55/62/55 
s 1
f 56/63/56 34/38/34 36/40/36 51/55/51 
s 2
f 56/63/56 55/62/55 34/38/34 
f 47/51/47 50/54/50 57/64/57 
f 51/55/51 47/51/47 57/64/57 
f 50/54/50 53/59/53 57/64/57 
f 53/60/53 54/61/54 57/65/57 
f 54/61/54 55/62/55 57/65/57 
f 56/63/56 51/55/51 57/65/57 
f 55/62/55 56/63/56 57/65/57 
s 1
f 58/66/58 49/53/49 33/37/33 
f 58/66/58 43/47/43 49/53/49 
f 59/67/59 33/37/33 48/52/48 
f 59/67/59 60/68/60 33/37/33 
f 61/69/61 33/37/33 60/68/60 
f 61/69/61 58/66/58 33/37/33 
f 62/70/62 58/66/58 61/69/61 
f 62/70/62 43/47/43 58/66/58 
f 63/71/63 64/72/64 62/70/62 61/69/61 
f 65/73/65 43/47/43 62/70/62 64/72/64 
f 43/47/43 65/73/65 66/74/66 44/48/44 
f 67/75/67 44/48/44 66/74/66 
f 44/48/44 67/75/67 45/49/45 
f 68/76/68 69/77/69 26/29/26 45/49/45 
f 69/77/69 28/31/28 26/29/26 
f 23/26/23 26/29/26 25/28/25 
f 70/78/70 68/76/68 45/49/45 67/75/67 
f 71/79/71 72/80/72 70/78/70 
f 73/81/73 69/82/69 68/83/68 72/84/72 
f 74/85/74 30/34/30 28/56/28 69/82/69 
f 74/85/74 69/82/69 73/81/73 75/86/75 
f 74/85/74 76/87/76 48/52/48 30/34/30 
f 77/88/77 76/87/76 74/85/74 75/86/75 
f 78/89/78 79/90/79 77/88/77 75/86/75 
f 80/91/80 79/90/79 78/89/78 
f 81/92/81 82/93/82 76/87/76 77/88/77 
f 83/94/83 48/52/48 76/87/76 82/93/82 
f 83/94/83 59/67/59 48/52/48 
f 77/88/77 79/90/79 84/95/84 81/92/81 
f 85/96/85 81/92/81 84/95/84 
f 85/96/85 82/93/82 81/92/81 
f 86/97/86 83/94/83 82/93/82 85/96/85 
f 87/98/87 59/67/59 83/94/83 86/97/86 
f 87/98/87 60/68/60 59/67/59 
f 87/98/87 61/69/61 60/68/60 
f 88/99/88 63/71/63 61/69/61 87/98/87 
f 88/99/88 87/98/87 86/97/86 89/100/89 
f 89/100/89 86/97/86 85/96/85 
f 89/100/89 84/95/84 90/101/90 
f 89/100/89 85/96/85 84/95/84 
s 2
f 80/91/80 84/95/84 79/90/79 
f 90/101/90 84/95/84 91/102/91 
s 1
f 78/89/78 75/86/75 73/81/73 
f 91/102/91 80/91/80 72/84/72 
f 80/91/80 78/89/78 72/84/72 
s 2
f 84/95/84 80/91/80 91/102/91 
s 1
f 72/84/72 78/89/78 73/81/73 
f 71/103/71 91/102/91 72/84/72 
f 92/104/92 93/105/93 90/101/90 91/102/91 
f 94/106/94 95/107/95 89/100/89 90/101/90 
f 90/101/90 93/105/93 94/106/94 
f 96/108/96 97/109/97 94/106/94 93/105/93 
f 96/108/96 93/105/93 92/104/92 98/110/98 
f 71/103/71 99/111/99 92/104/92 
f 71/103/71 92/104/92 91/102/91 
f 100/112/100 95/107/95 94/106/94 97/109/97 
f 101/113/101 89/100/89 95/107/95 100/112/100 
f 102/114/102 88/99/88 89/100/89 101/113/101 
f 63/71/63 88/99/88 102/114/102 
f 102/114/102 64/72/64 63/71/63 
f 103/115/103 65/73/65 102/114/102 
f 65/73/65 64/72/64 102/114/102 
f 104/116/104 66/74/66 65/73/65 103/115/103 
f 105/117/105 106/118/106 71/79/71 
f 99/111/99 98/110/98 92/104/92 
f 105/117/105 71/79/71 70/78/70 
f 107/119/107 105/117/105 70/78/70 
f 104/116/104 67/75/67 66/74/66 
f 104/116/104 70/78/70 67/75/67 
f 108/120/108 109/121/109 107/119/107 104/116/104 
s 2
f 108/120/108 104/116/104 103/115/103 
f 108/120/108 103/115/103 102/114/102 
s 1
f 110/122/110 109/121/109 108/120/108 102/114/102 
f 104/116/104 107/119/107 70/78/70 
f 110/122/110 102/114/102 101/113/101 
f 110/122/110 101/113/101 111/123/111 
f 101/113/101 100/112/100 111/123/111 
f 111/123/111 100/112/100 97/109/97 
f 112/124/112 110/122/110 111/123/111 
f 112/124/112 113/125/113 110/122/110 
f 114/126/114 109/121/109 110/122/110 113/125/113 
f 115/127/115 109/121/109 114/126/114 
f 115/127/115 107/119/107 109/121/109 
f 107/119/107 106/118/106 105/117/105 
f 107/119/107 115/127/115 106/118/106 
f 116/128/116 106/118/106 115/127/115 
f 112/124/112 111/123/111 97/109/97 
f 112/124/112 97/109/97 96/108/96 117/129/117 
f 96/108/96 98/110/98 117/129/117 
f 98/110/98 99/111/99 118/130/118 
f 99/131/99 116/128/116 118/132/118 
f 118/130/118 117/129/117 98/110/98 
f 116/128/116 115/127/115 119/133/119 
f 115/127/115 114/126/114 119/133/119 
f 119/133/119 114/126/114 113/125/113 
f 119/133/119 113/125/113 112/124/112 
f 112/124/112 117/129/117 118/130/118 
f 112/124/112 118/132/118 119/133/119 
f 119/133/119 118/132/118 116/128/116 
f 116/128/116 99/131/99 106/118/106 
f 106/118/106 99/131/99 71/79/71 
f 72/80/72 68/76/68 70/78/70 
# 52 polygons - 120 triangles

