# 3ds Max Wavefront OBJ Exporter v0.99 - (c)2007 guruware
# File Created: 12.01.2026 23:10:17

mtllib PSNA_SmutRag01.mtl

#
# object PSNA_SmutRag01
#

v  0.1564 0.0025 0.1151
v  0.1564 0.0234 0.1151
v  0.0347 0.0234 0.1151
v  0.0347 0.0025 0.1151
v  -0.1564 0.0000 0.0799
v  -0.1564 0.0000 -0.1151
v  0.0347 0.0000 -0.1151
v  0.0347 0.0000 0.0799
v  0.1564 0.0258 0.0799
v  0.1564 0.0281 -0.0176
v  0.0347 0.0281 -0.0176
v  0.0347 0.0258 0.0799
v  -0.1564 0.0025 0.1151
v  -0.1564 0.0234 0.1151
v  -0.1564 0.0234 0.1117
v  -0.1564 0.0025 0.1117
v  -0.1564 0.0000 0.1151
v  -0.1564 0.0000 0.1117
v  -0.1564 -0.0015 0.1117
v  0.0347 -0.0015 0.1000
v  -0.1564 -0.0015 0.1000
v  0.1564 0.0000 0.0799
v  0.1564 0.0000 0.1000
v  0.1564 -0.0015 0.1000
v  0.1564 0.0000 0.1151
v  0.0347 0.0000 0.1151
v  0.0347 -0.0015 0.1117
v  0.1564 -0.0015 0.1117
v  -0.1564 0.0258 0.1151
v  0.0347 0.0258 0.1151
v  0.0347 0.0273 0.1117
v  -0.1564 0.0273 0.1117
v  0.1564 0.0258 0.1151
v  0.1564 0.0258 0.1117
v  0.1564 0.0273 0.1117
v  0.0347 0.0273 0.1000
v  0.1564 0.0273 0.1000
v  -0.1564 0.0258 0.0799
v  -0.1564 0.0258 0.1000
v  -0.1564 0.0273 0.1000
v  0.1564 0.0234 0.0799
v  0.1564 0.0258 0.1000
v  0.1564 0.0234 0.1000
v  0.1564 0.0025 0.1117
v  -0.1564 0.0280 -0.1151
v  -0.1564 0.0305 -0.1151
v  0.0347 0.0297 -0.1151
v  0.0347 0.0273 -0.1151
v  0.1564 0.0025 -0.1151
v  0.1564 0.0000 -0.1151
v  0.0347 0.0025 -0.1151
v  -0.1564 0.0234 0.0799
v  -0.1564 0.0281 -0.0176
v  -0.1564 0.0257 -0.0176
v  -0.1564 0.0025 -0.1151
v  -0.1564 0.0025 0.0799
v  0.1564 0.0404 -0.1151
v  0.1564 0.0429 -0.1151
v  0.1564 0.0330 -0.0663
v  0.1564 0.0306 -0.0663
v  0.1564 0.0025 0.0799
v  -0.1564 0.0000 0.1000
v  -0.1564 0.0025 0.1000
v  0.1564 0.0234 0.1117
v  0.1564 0.0025 0.1000
v  -0.1564 0.0234 0.1000
v  -0.1564 0.0258 0.1117
v  0.1564 0.0000 0.1117
v  0.1548 0.0227 0.1000
v  0.1548 0.0227 0.0799
v  0.1548 0.0227 0.1112
v  0.1548 0.0031 0.1112
v  0.1548 0.0031 0.1000
v  0.1548 0.0031 0.0799
v  0.1548 0.0031 -0.1139
v  0.0343 0.0031 -0.1139
v  -0.1548 0.0031 0.0799
v  -0.1548 0.0031 -0.1139
v  -0.1548 0.0031 0.1000
v  -0.1548 0.0031 0.1112
v  -0.1548 0.0227 0.1112
v  -0.1548 0.0227 0.1000
v  -0.1548 0.0227 0.0799
v  0.0347 0.0275 -0.0663
v  -0.1564 0.0293 -0.0663
v  -0.1564 0.0269 -0.0663
v  0.1564 0.0257 -0.0176
v  0.0347 0.0251 -0.0663
v  0.0347 0.0257 -0.0176
v  0.0343 0.0227 0.0799
v  0.1548 0.0203 -0.1139
v  0.1548 0.0203 -0.0187
v  0.1548 0.0031 -0.0187
v  -0.1548 0.0203 -0.1139
v  -0.1489 0.0203 -0.1139
v  -0.1489 0.0031 -0.1139
v  -0.1548 0.0227 -0.0187
v  -0.1548 0.0216 -0.0187
v  -0.1548 0.0216 0.1112
v  0.1548 0.0316 -0.1139
v  0.1520 0.0313 -0.1139
v  0.1520 0.0309 -0.1095
v  0.1548 0.0312 -0.1095
v  0.1548 0.0305 -0.1139
v  0.1548 0.0301 -0.1095
v  -0.1548 0.0216 -0.1139
v  -0.1548 0.0227 -0.1139
v  -0.1489 0.0227 -0.1139
v  -0.1489 0.0216 -0.1139
v  -0.1548 0.0203 -0.1095
v  -0.1548 0.0216 -0.1095
v  0.1548 0.0216 -0.1139
v  0.1548 0.0216 -0.0187
v  -0.1548 0.0031 -0.1095
v  0.1548 0.0203 0.1112
v  -0.1548 0.0227 -0.1095
v  -0.1489 0.0227 0.1112
v  -0.1489 0.0227 -0.0187
v  0.1548 0.0227 -0.0187
v  0.1548 0.0216 0.1112
v  -0.1548 0.0203 -0.0187
v  -0.1548 0.0203 0.1112
v  -0.1548 0.0031 -0.0187
v  0.0450 0.0203 -0.1139
v  0.0450 0.0031 -0.1139
v  0.0450 0.0227 -0.1139
v  -0.1489 0.0227 -0.1095
v  0.0450 0.0227 -0.1095
v  0.1520 0.0303 -0.1139
v  0.0450 0.0216 -0.1139
v  0.0450 0.0227 0.1112
v  0.1520 0.0227 0.1112
v  0.1520 0.0227 -0.0187
v  0.0450 0.0227 -0.0187
# 134 vertices

vn 0.7071 0.0000 0.7071
vn 0.0000 0.0000 1.0000
vn -0.7155 -0.6982 -0.0256
vn -0.5774 -0.5774 -0.5774
vn 0.0000 -0.7071 -0.7071
vn 0.0000 -0.9993 -0.0367
vn 0.7182 0.6956 -0.0172
vn 0.7098 0.7036 0.0339
vn 0.0000 1.0000 0.0056
vn 0.0000 0.9997 -0.0248
vn -0.7071 0.0000 0.7071
vn -0.9600 -0.1998 -0.1962
vn -0.9600 0.1998 -0.1962
vn -0.6024 -0.4356 0.6688
vn -1.0000 0.0000 0.0000
vn -0.6635 -0.7321 0.1546
vn -0.6989 -0.7147 -0.0262
vn 0.7155 -0.6982 -0.0256
vn 1.0000 -0.0000 0.0000
vn 0.6989 -0.7147 -0.0262
vn 0.6024 -0.4356 0.6688
vn 0.0000 -0.5457 0.8380
vn 0.0000 -0.9784 0.2066
vn 0.6635 -0.7321 0.1546
vn -0.6024 0.4356 0.6688
vn 0.0000 0.5457 0.8380
vn 0.0000 0.9784 0.2066
vn -0.6635 0.7321 0.1546
vn 0.6024 0.4356 0.6688
vn 0.6635 0.7321 0.1546
vn 0.0000 0.9993 -0.0367
vn 0.6989 0.7147 -0.0262
vn -0.7182 0.6956 -0.0172
vn -0.6989 0.7147 -0.0262
vn 0.8257 -0.5640 -0.0067
vn 1.0000 0.0000 0.0000
vn 0.8277 -0.5612 0.0000
vn 0.9600 0.1998 -0.1962
vn -0.5796 -0.5686 -0.5838
vn -0.5751 0.5859 -0.5709
vn -0.0186 0.7161 -0.6978
vn 0.0181 -0.6971 -0.7167
vn 0.6217 0.4879 -0.6128
vn 0.5774 -0.5774 -0.5774
vn 0.0000 0.5117 -0.8592
vn -0.8257 -0.5640 -0.0067
vn -0.7071 0.7069 0.0168
vn -0.7079 -0.7061 -0.0192
vn -0.6217 0.4879 -0.6128
vn -0.8277 0.5612 0.0000
vn 0.6127 -0.4790 -0.6286
vn 0.5361 0.6698 -0.5138
vn 0.6943 0.7135 0.0939
vn 0.7202 -0.6879 -0.0906
vn 0.8277 0.5612 0.0000
vn -1.0000 -0.0000 0.0000
vn 0.9600 -0.1998 -0.1962
vn -0.8277 -0.5612 0.0000
vn 0.3702 -0.9289 0.0000
vn 0.2492 -0.9683 -0.0178
vn 0.4708 -0.6131 -0.6344
vn 0.4708 0.6131 -0.6344
vn 0.3702 0.9289 0.0000
vn 0.1826 0.9469 -0.2647
vn 0.0000 0.8793 -0.4764
vn -0.3702 0.9289 0.0000
vn -0.1826 0.9469 -0.2647
vn -0.4708 0.6131 -0.6344
vn -0.4708 -0.6131 -0.6344
vn -0.3702 -0.9289 0.0000
vn -0.2492 -0.9683 -0.0178
vn -0.0094 0.9997 0.0231
vn -0.7046 0.7094 0.0181
vn -0.7095 -0.7044 -0.0179
vn 0.7055 -0.7078 -0.0365
vn 0.0094 -0.9997 -0.0231
vn -0.0000 -1.0000 -0.0090
vn 0.0000 -0.9995 -0.0305
vn 0.7071 0.0000 -0.7071
vn 1.0000 0.0000 -0.0000
vn -0.7071 0.0000 -0.7071
vn 0.0000 0.0000 -1.0000
vn -0.7071 0.7071 -0.0000
vn -1.0000 0.0000 -0.0000
vn 0.5501 0.6308 -0.5472
vn -0.0593 0.7358 -0.6746
vn -0.0764 0.9930 0.0900
vn 0.6796 0.7305 0.0679
vn 0.6019 -0.5221 -0.6042
vn 0.7349 -0.6753 -0.0628
vn -0.5774 0.5774 -0.5774
vn -0.0000 0.7071 -0.7071
vn -1.0000 -0.0000 -0.0000
vn 0.5774 0.5774 -0.5774
vn 0.9999 0.0004 -0.0127
vn -0.0000 1.0000 -0.0000
vn 0.7177 0.6956 0.0323
vn 0.7071 0.7071 -0.0000
vn -0.0281 0.6973 -0.7163
vn -0.0384 0.9993 0.0000
vn 0.0542 -0.6715 -0.7390
vn 0.0092 0.0003 -1.0000
vn 0.0000 1.0000 0.0000
vn 0.0000 1.0000 -0.0000
vn 0.0000 0.9990 0.0452
# 105 vertex normals

vt 0.5301 0.0801 0.0000
vt 0.4875 0.0801 0.0000
vt 0.4875 0.4324 0.0000
vt 0.5301 0.4324 0.0000
vt 0.6063 0.9968 0.0000
vt 0.9905 0.9968 0.0000
vt 0.9907 0.4324 0.0000
vt 0.6063 0.4324 0.0000
vt 0.4094 0.0805 0.0000
vt 0.2087 0.0805 0.0000
vt 0.2087 0.4324 0.0000
vt 0.4094 0.4324 0.0000
vt 0.5301 0.9968 0.0000
vt 0.4875 0.9968 0.0000
vt 0.4882 0.9978 0.0000
vt 0.5310 0.9978 0.0000
vt 0.5355 0.9968 0.0000
vt 0.5440 0.9979 0.0000
vt 0.5432 0.9968 0.0000
vt 0.5661 0.4324 0.0000
vt 0.5661 0.9968 0.0000
vt 0.6063 0.0797 0.0000
vt 0.5661 0.0773 0.0000
vt 0.5661 0.0797 0.0000
vt 0.5355 0.0801 0.0000
vt 0.5355 0.4324 0.0000
vt 0.5432 0.4324 0.0000
vt 0.5432 0.0797 0.0000
vt 0.4824 0.9968 0.0000
vt 0.4823 0.4324 0.0000
vt 0.4750 0.4324 0.0000
vt 0.4750 0.9967 0.0000
vt 0.4823 0.0801 0.0000
vt 0.4750 0.0759 0.0000
vt 0.4750 0.0805 0.0000
vt 0.4508 0.4324 0.0000
vt 0.4508 0.0805 0.0000
vt 0.4095 0.9967 0.0000
vt 0.4508 0.9974 0.0000
vt 0.4508 0.9967 0.0000
vt 0.4094 0.0729 0.0000
vt 0.4508 0.0759 0.0000
vt 0.4508 0.0729 0.0000
vt 0.5301 0.0704 0.0000
vt 0.0031 0.9981 0.0000
vt 0.0076 0.9948 0.0000
vt 0.0074 0.4324 0.0000
vt 0.0029 0.4324 0.0000
vt 0.9945 0.0719 0.0000
vt 0.9907 0.0797 0.0000
vt 0.9945 0.4324 0.0000
vt 0.4096 0.9978 0.0000
vt 0.2089 0.9967 0.0000
vt 0.2091 0.9986 0.0000
vt 0.9943 0.9983 0.0000
vt 0.6073 0.9984 0.0000
vt 0.0029 0.0729 0.0000
vt 0.0074 0.0805 0.0000
vt 0.1083 0.0805 0.0000
vt 0.1083 0.0729 0.0000
vt 0.6063 0.0719 0.0000
vt 0.5670 0.9979 0.0000
vt 0.5670 0.9984 0.0000
vt 0.4750 0.0729 0.0000
vt 0.5661 0.0719 0.0000
vt 0.4508 0.9982 0.0000
vt 0.5440 0.9984 0.0000
vt 0.4749 0.9972 0.0000
vt 0.5432 0.0773 0.0000
vt 0.5432 0.0719 0.0000
vt 0.4749 0.9980 0.0000
vt 0.4875 0.0704 0.0000
vt 0.4508 0.0651 0.0000
vt 0.4094 0.0651 0.0000
vt 0.4750 0.0651 0.0000
vt 0.5301 0.0653 0.0000
vt 0.4875 0.0653 0.0000
vt 0.5661 0.0659 0.0000
vt 0.5432 0.0659 0.0000
vt 0.6063 0.0659 0.0000
vt 0.9981 0.0659 0.0000
vt 0.9981 0.4324 0.0000
vt 0.6073 0.9992 0.0000
vt 0.9979 0.9991 0.0000
vt 0.5670 0.9992 0.0000
vt 0.5440 0.9992 0.0000
vt 0.4897 0.9987 0.0000
vt 0.5302 0.9987 0.0000
vt 0.4508 0.9989 0.0000
vt 0.4749 0.9987 0.0000
vt 0.4096 0.9986 0.0000
vt 0.1083 0.4324 0.0000
vt 0.1085 0.9967 0.0000
vt 0.1085 0.9981 0.0000
vt 0.2087 0.0729 0.0000
vt 0.7691 0.9991 0.0000
vt 0.6551 0.9991 0.0000
vt 0.6551 0.4317 0.0000
vt 0.7691 0.4317 0.0000
vt 0.5406 0.0698 0.0000
vt 0.6551 0.0698 0.0000
vt 0.5406 0.4317 0.0000
vt 0.9961 0.4317 0.0000
vt 0.9961 0.9991 0.0000
vt 0.7691 0.0698 0.0000
vt 0.9980 0.0698 0.0000
vt 0.5406 0.9991 0.0000
vt 1.0000 0.0024 0.0000
vt 0.9997 0.0573 0.0000
vt 0.5770 0.0563 0.0000
vt 0.5773 0.0014 0.0000
vt 0.9998 0.0010 0.0000
vt 0.9998 0.0566 0.0000
vt 0.9807 0.0566 0.0000
vt 0.9807 0.0010 0.0000
vt 0.8321 0.9904 0.0000
vt 0.9279 0.9904 0.0000
vt 0.9279 0.9932 0.0000
vt 0.8321 0.9932 0.0000
vt 0.9951 0.0736 0.0000
vt 0.9951 0.0810 0.0000
vt 0.9931 0.0810 0.0000
vt 0.9931 0.0738 0.0000
vt 0.9957 0.0677 0.0000
vt 0.9931 0.0677 0.0000
vt 0.9956 0.9932 0.0000
vt 0.9951 0.9904 0.0000
vt 0.9951 0.9727 0.0000
vt 0.9956 0.9727 0.0000
vt 0.0006 0.0614 0.0000
vt 0.0006 0.0572 0.0000
vt 0.0200 0.0572 0.0000
vt 0.0200 0.0614 0.0000
vt 0.9998 0.0614 0.0000
vt 0.5770 0.0603 0.0000
vt 0.9998 0.0608 0.0000
vt 0.9807 0.0608 0.0000
vt 0.0006 0.0007 0.0000
vt 0.0200 0.0007 0.0000
vt 0.0000 0.0549 0.0000
vt 0.0003 -0.0000 0.0000
vt 0.9931 0.9904 0.0000
vt 0.9931 0.9932 0.0000
vt 0.8321 0.9727 0.0000
vt 0.9279 0.9727 0.0000
vt 0.9279 0.0738 0.0000
vt 0.8321 0.0738 0.0000
vt 0.8321 0.0677 0.0000
vt 0.9279 0.0677 0.0000
vt 0.4231 0.0572 0.0000
vt 0.9999 0.0572 0.0000
vt 0.9999 0.0614 0.0000
vt 0.4231 0.0614 0.0000
vt 0.0000 0.0590 0.0000
vt 0.4231 0.0007 0.0000
vt 0.9999 0.0007 0.0000
vt 0.3547 0.0566 0.0000
vt 0.0003 0.0566 0.0000
vt 0.0003 0.0010 0.0000
vt 0.3547 0.0010 0.0000
vt 0.9951 0.3949 0.0000
vt 0.9931 0.9727 0.0000
vt 0.9931 0.3949 0.0000
vt 0.9956 0.0810 0.0000
vt 0.9956 0.3949 0.0000
vt 0.3547 0.0608 0.0000
vt 0.0003 0.0608 0.0000
vt 0.8321 0.3949 0.0000
vt 0.8321 0.0810 0.0000
vt 0.9279 0.0810 0.0000
vt 0.9279 0.3949 0.0000
vt 0.9949 0.1882 0.0000
vt 0.8319 0.0670 0.0000
vt 0.9968 0.0680 0.0000
# 174 texture coords

o PSNA_SmutRag01
g PSNA_SmutRag01
usemtl PSNA_SmutRag01
s 1
f 1/1/1 2/2/1 3/3/2 4/4/2 
f 5/5/3 6/6/4 7/7/5 8/8/6 
f 9/9/7 10/10/8 11/11/9 12/12/10 
f 13/13/11 14/14/11 15/15/12 16/16/13 
f 17/17/14 18/18/15 19/19/16 
f 5/5/3 8/8/6 20/20/6 21/21/17 
f 22/22/18 23/23/19 24/24/20 
f 25/25/21 26/26/22 27/27/23 28/28/24 
f 29/29/25 30/30/26 31/31/27 32/32/28 
f 33/33/29 34/34/19 35/35/30 
f 9/9/7 12/12/10 36/36/31 37/37/32 
f 38/38/33 39/39/15 40/40/34 
f 2/2/1 33/33/29 30/30/26 3/3/2 
f 13/13/11 17/17/14 26/26/22 4/4/2 
f 41/41/35 9/9/7 42/42/36 43/43/37 
f 1/1/1 25/25/21 44/44/38 
f 45/45/39 46/46/40 47/47/41 48/48/42 
f 49/49/43 50/50/44 7/7/5 51/51/45 
f 52/52/46 38/38/33 53/53/47 54/54/48 
f 55/55/49 6/6/4 5/5/3 56/56/50 
f 57/57/51 58/58/52 59/59/53 60/60/54 
f 61/61/55 22/22/18 50/50/44 49/49/43 
f 14/14/11 29/29/25 15/15/12 
f 56/56/50 5/5/3 62/62/56 63/63/50 
f 62/62/56 5/5/3 21/21/17 
f 42/42/36 34/34/19 64/64/57 43/43/37 
f 23/23/19 22/22/18 61/61/55 65/65/55 
f 39/39/15 38/38/33 52/52/46 66/66/58 
f 62/62/56 18/18/15 16/67/13 63/63/50 
f 42/42/36 9/9/7 37/37/32 
f 39/39/15 67/68/56 32/32/28 40/40/34 
f 23/23/19 68/69/36 28/28/24 24/24/20 
f 19/19/16 21/21/17 20/20/6 27/27/23 
f 35/35/30 37/37/32 36/36/31 31/31/27 
f 18/18/15 62/62/56 21/21/17 19/19/16 
f 34/34/19 42/42/36 37/37/32 35/35/30 
f 68/69/36 23/23/19 65/65/55 44/70/38 
f 67/68/56 39/39/15 66/66/58 15/71/12 
f 64/72/57 2/2/1 1/1/1 44/44/38 
f 34/34/19 33/33/29 64/64/57 
f 18/18/15 17/17/14 16/67/13 
f 67/68/56 29/29/25 32/32/28 
f 68/69/36 25/25/21 28/28/24 
s 2
f 41/41/35 43/43/37 69/73/59 70/74/60 
f 43/43/37 64/64/57 71/75/61 69/73/59 
f 64/72/57 44/44/38 72/76/62 71/77/61 
f 44/70/38 65/65/55 73/78/63 72/79/62 
f 65/65/55 61/61/55 74/80/63 73/78/63 
f 61/61/55 49/49/43 75/81/64 74/80/63 
f 49/49/43 51/51/45 76/82/65 75/81/64 
f 55/55/49 56/56/50 77/83/66 78/84/67 
f 56/56/50 63/63/50 79/85/66 77/83/66 
f 63/63/50 16/67/13 80/86/68 79/85/66 
f 16/16/13 15/15/12 81/87/69 80/88/68 
f 15/71/12 66/66/58 82/89/70 81/90/69 
f 66/66/58 52/52/46 83/91/71 82/89/70 
s 1
f 84/92/72 11/11/9 10/10/8 
f 53/53/47 85/93/73 86/94/74 54/54/48 
f 10/10/8 9/9/7 41/41/35 87/95/75 
f 59/59/53 10/10/8 87/95/75 60/60/54 
f 59/59/53 47/47/41 84/92/72 
f 85/93/73 46/46/40 45/45/39 86/94/74 
s 2
f 87/95/75 41/41/35 70/74/60 
f 54/96/48 86/97/74 88/98/76 89/99/77 
f 57/100/51 60/101/54 48/102/42 
f 83/91/71 52/52/46 54/54/48 
f 54/96/48 89/99/77 90/103/78 83/104/71 
s 1
f 3/3/2 14/14/11 13/13/11 4/4/2 
f 7/7/5 50/50/44 22/22/18 8/8/6 
f 11/11/9 53/53/47 38/38/33 12/12/10 
f 8/8/6 22/22/18 24/24/20 20/20/6 
f 26/26/22 17/17/14 19/19/16 27/27/23 
f 30/30/26 33/33/29 35/35/30 31/31/27 
f 12/12/10 38/38/33 40/40/34 36/36/31 
f 30/30/26 29/29/25 14/14/11 3/3/2 
f 26/26/22 25/25/21 1/1/1 4/4/2 
f 47/47/41 58/58/52 57/57/51 48/48/42 
f 7/7/5 6/6/4 55/55/49 51/51/45 
f 20/20/6 24/24/20 28/28/24 27/27/23 
f 36/36/31 40/40/34 32/32/28 31/31/27 
s 2
f 51/51/45 55/55/49 78/84/67 76/82/65 
s 1
f 84/92/72 85/93/73 53/53/47 11/11/9 
f 47/47/41 85/93/73 84/92/72 
s 2
f 88/98/76 87/105/75 89/99/77 
f 88/98/76 86/97/74 48/102/42 
f 89/99/77 87/105/75 70/106/60 90/103/78 
s 1
f 59/59/53 58/58/52 47/47/41 
f 59/59/53 84/92/72 10/10/8 
f 47/47/41 46/46/40 85/93/73 
s 2
f 88/98/76 60/101/54 87/105/75 
f 60/101/54 88/98/76 48/102/42 
f 86/97/74 45/107/39 48/102/42 
s 1
f 33/33/29 2/2/1 64/72/57 
f 25/25/21 68/69/36 44/70/38 
f 29/29/25 67/68/56 15/71/12 
f 17/17/14 13/13/11 16/16/13 
f 75/108/79 91/109/79 92/110/80 93/111/80 
s 2
f 78/112/81 94/113/81 95/114/82 96/115/82 
s 1
f 81/116/83 97/117/83 98/118/84 99/119/84 
s 4
f 100/120/85 101/121/86 102/122/87 103/123/88 
s 1
f 104/124/89 100/120/85 103/123/88 105/125/90 
s 2
f 106/126/81 107/127/91 108/128/92 109/129/82 
s 1
f 106/130/81 94/131/81 110/132/84 111/133/93 
f 91/109/79 112/134/94 113/135/95 92/110/80 
s 2
f 94/113/81 106/136/81 109/137/82 95/114/82 
s 1
f 94/131/81 78/138/81 114/139/84 110/132/84 
f 92/110/80 115/140/80 72/141/80 93/111/80 
f 97/117/83 116/142/83 111/143/93 98/118/84 
s 4
f 97/117/83 81/116/83 117/144/96 118/145/96 
s 1
f 119/146/97 71/147/98 120/148/80 113/149/95 
f 121/150/84 122/151/93 99/152/84 98/153/84 
f 113/135/95 120/154/80 115/140/80 92/110/80 
f 123/155/84 80/156/93 122/151/93 121/150/84 
s 2
f 124/157/82 91/158/79 75/159/79 125/160/82 
s 4
f 126/161/99 108/128/92 127/162/96 128/163/100 
s 2
f 126/161/99 101/121/86 129/164/101 130/165/102 
f 130/166/102 112/167/94 91/158/79 124/157/82 
s 4
f 131/168/103 132/169/104 133/170/105 134/171/104 
f 130/172/102 113/173/95 112/174/94 
s 8
f 113/149/95 130/165/102 129/164/101 104/124/89 105/125/90 
s 4
f 101/121/86 126/161/99 128/163/100 102/122/87 
s 2
f 101/121/86 100/120/85 104/124/89 129/164/101 
s 4
f 132/169/104 71/147/98 119/146/97 133/170/105 
f 102/122/87 133/170/105 119/146/97 103/123/88 
s 1
f 103/123/88 119/146/97 113/149/95 105/125/90 
f 110/132/84 121/150/84 98/153/84 111/133/93 
f 114/139/84 123/155/84 121/150/84 110/132/84 
f 116/142/83 107/127/91 106/126/81 111/143/93 
s 4
f 116/142/83 97/117/83 118/145/96 127/162/96 
f 128/163/100 134/171/104 133/170/105 102/122/87 
s 2
f 95/114/82 124/157/82 125/160/82 96/115/82 
f 108/128/92 126/161/99 130/165/102 109/129/82 
f 109/137/82 130/166/102 124/157/82 95/114/82 
s 4
f 117/144/96 131/168/103 134/171/104 118/145/96 
f 108/128/92 107/127/91 116/142/83 127/162/96 
f 118/145/96 134/171/104 128/163/100 127/162/96 
# 105 polygons - 31 triangles

