# 3ds Max Wavefront OBJ Exporter v0.99 - (c)2007 guruware
# File Created: 13.01.2026 20:03:39

mtllib PSNA_LiquorBottle01.mtl

#
# object PSNA_LiquorBottle01_Label
#

v  0.0410 0.5679 -0.0000
v  0.0379 0.5679 -0.0157
v  0.0379 0.6647 -0.0157
v  0.0410 0.6647 -0.0000
v  0.0290 0.5679 -0.0290
v  0.0290 0.6647 -0.0290
v  0.0157 0.5679 -0.0379
v  0.0157 0.6647 -0.0379
v  -0.0000 0.5679 -0.0410
v  -0.0000 0.6647 -0.0410
v  -0.0157 0.5679 -0.0379
v  -0.0157 0.6647 -0.0379
v  -0.0290 0.5679 -0.0290
v  -0.0290 0.6647 -0.0290
v  -0.0379 0.5679 -0.0157
v  -0.0379 0.6647 -0.0157
v  -0.0410 0.5679 -0.0000
v  -0.0410 0.6647 -0.0000
v  -0.0379 0.5679 0.0157
v  -0.0379 0.6647 0.0157
v  -0.0290 0.5679 0.0290
v  -0.0290 0.6647 0.0290
v  -0.0157 0.5679 0.0379
v  -0.0157 0.6647 0.0379
v  0.0000 0.5679 0.0410
v  0.0000 0.6647 0.0410
v  0.0157 0.5679 0.0379
v  0.0157 0.6647 0.0379
v  0.0290 0.5679 0.0290
v  0.0290 0.6647 0.0290
v  0.0379 0.5679 0.0157
v  0.0379 0.6647 0.0157
v  0.0334 0.6743 -0.0066
v  0.0189 0.6743 -0.0283
v  -0.0066 0.6743 -0.0334
v  -0.0283 0.6743 -0.0189
v  -0.0334 0.6743 0.0066
v  -0.0189 0.6743 0.0283
v  0.0066 0.6743 0.0334
v  0.0283 0.6743 0.0189
v  0.0000 0.6743 -0.0000
v  0.0439 0.4780 -0.0182
v  0.0476 0.4780 -0.0000
v  0.0336 0.4780 -0.0336
v  0.0182 0.4780 -0.0439
v  -0.0000 0.4780 -0.0476
v  -0.0182 0.4780 -0.0439
v  -0.0336 0.4780 -0.0336
v  -0.0439 0.4780 -0.0182
v  -0.0476 0.4780 -0.0000
v  -0.0439 0.4780 0.0182
v  -0.0336 0.4780 0.0336
v  -0.0182 0.4780 0.0439
v  0.0000 0.4780 0.0476
v  0.0182 0.4780 0.0439
v  0.0336 0.4780 0.0336
v  0.0439 0.4780 0.0182
v  0.0458 0.4762 -0.0000
v  0.0423 0.4762 -0.0175
v  0.0324 0.4762 -0.0324
v  0.0175 0.4762 -0.0423
v  -0.0000 0.4762 -0.0458
v  -0.0175 0.4762 -0.0423
v  -0.0324 0.4762 -0.0324
v  -0.0423 0.4762 -0.0175
v  -0.0458 0.4762 -0.0000
v  -0.0423 0.4762 0.0175
v  -0.0324 0.4762 0.0324
v  -0.0175 0.4762 0.0423
v  0.0000 0.4762 0.0458
v  0.0175 0.4762 0.0423
v  0.0324 0.4762 0.0324
v  0.0423 0.4762 0.0175
v  -0.0822 0.0704 -0.0822
v  -0.0972 0.2313 -0.0972
v  -0.0764 0.2313 -0.1111
v  -0.0683 0.0704 -0.0915
v  -0.1074 0.0704 -0.0445
v  -0.1270 0.2313 -0.0526
v  -0.1163 0.0704 -0.0000
v  -0.1374 0.2313 -0.0000
v  -0.1074 0.0704 0.0445
v  -0.1270 0.2313 0.0526
v  -0.0822 0.0704 0.0822
v  -0.0972 0.2313 0.0972
v  -0.0683 0.0704 0.0915
v  -0.0764 0.2313 0.1111
v  -0.0803 0.3651 0.0000
v  -0.0806 0.3621 -0.0120
v  -0.1010 0.3422 0.0000
v  -0.0840 0.3562 -0.0220
v  -0.0900 0.3481 -0.0287
v  -0.0976 0.3391 -0.0310
v  -0.1058 0.3306 -0.0287
v  -0.1133 0.3238 -0.0220
v  -0.1188 0.3199 -0.0120
v  -0.1217 0.3193 0.0000
v  -0.1188 0.3199 0.0120
v  -0.1133 0.3238 0.0220
v  -0.1058 0.3306 0.0287
v  -0.0976 0.3391 0.0310
v  -0.0899 0.3481 0.0287
v  -0.0840 0.3562 0.0220
v  -0.0806 0.3621 0.0120
# 104 vertices

vn 0.9993 0.0365 0.0000
vn 0.9233 0.0365 -0.3824
vn 0.8649 0.3258 -0.3819
vn 0.9452 0.3258 0.0218
vn 0.7066 0.0365 -0.7066
vn 0.6838 0.3258 -0.6529
vn 0.3824 0.0365 -0.9233
vn 0.3415 0.3258 -0.8816
vn -0.0000 0.0365 -0.9993
vn 0.0218 0.3258 -0.9452
vn -0.3824 0.0365 -0.9233
vn -0.3819 0.3258 -0.8649
vn -0.7066 0.0365 -0.7066
vn -0.6529 0.3258 -0.6838
vn -0.9233 0.0365 -0.3824
vn -0.8816 0.3258 -0.3415
vn -0.9993 0.0365 -0.0000
vn -0.9452 0.3258 -0.0218
vn -0.9233 0.0365 0.3824
vn -0.8649 0.3258 0.3819
vn -0.7066 0.0365 0.7066
vn -0.6838 0.3258 0.6529
vn -0.3824 0.0365 0.9233
vn -0.3415 0.3258 0.8816
vn 0.0000 0.0365 0.9993
vn -0.0218 0.3258 0.9452
vn 0.3824 0.0365 0.9233
vn 0.3819 0.3258 0.8649
vn 0.7066 0.0365 0.7066
vn 0.6529 0.3258 0.6838
vn 0.9233 0.0365 0.3824
vn 0.8816 0.3258 0.3415
vn 0.4903 0.8661 -0.0975
vn 0.2777 0.8661 -0.4156
vn -0.0975 0.8661 -0.4903
vn -0.4156 0.8661 -0.2777
vn -0.4903 0.8661 0.0975
vn -0.2777 0.8661 0.4156
vn 0.0975 0.8661 0.4903
vn 0.4156 0.8661 0.2777
vn 0.0000 1.0000 0.0000
vn 0.8741 -0.3238 -0.3621
vn 0.9461 -0.3238 -0.0000
vn 0.6690 -0.3238 -0.6690
vn 0.3621 -0.3238 -0.8741
vn -0.0000 -0.3238 -0.9461
vn -0.3621 -0.3238 -0.8741
vn -0.6690 -0.3238 -0.6690
vn -0.8741 -0.3238 -0.3621
vn -0.9461 -0.3238 -0.0000
vn -0.8741 -0.3238 0.3621
vn -0.6690 -0.3238 0.6690
vn -0.3621 -0.3238 0.8741
vn 0.0000 -0.3238 0.9461
vn 0.3621 -0.3238 0.8741
vn 0.6690 -0.3238 0.6690
vn 0.8741 -0.3238 0.3621
vn 0.7219 -0.6920 -0.0000
vn 0.6669 -0.6920 -0.2762
vn 0.5104 -0.6920 -0.5104
vn 0.2762 -0.6920 -0.6669
vn -0.0000 -0.6920 -0.7219
vn -0.2762 -0.6920 -0.6669
vn -0.5104 -0.6920 -0.5104
vn -0.6669 -0.6920 -0.2762
vn -0.7219 -0.6920 -0.0000
vn -0.6669 -0.6920 0.2762
vn -0.5104 -0.6920 0.5104
vn -0.2762 -0.6920 0.6669
vn 0.0000 -0.6920 0.7219
vn 0.2762 -0.6920 0.6669
vn 0.5104 -0.6920 0.5104
vn 0.6669 -0.6920 0.2762
vn -0.7014 -0.1303 -0.7007
vn -0.7013 -0.1303 -0.7008
vn -0.5517 -0.1279 -0.8242
vn -0.5518 -0.1279 -0.8241
vn -0.9160 -0.1303 -0.3794
vn -0.9915 -0.1303 0.0000
vn -0.9915 -0.1303 -0.0000
vn -0.9160 -0.1303 0.3794
vn -0.7014 -0.1303 0.7007
vn -0.7013 -0.1303 0.7008
vn -0.5518 -0.1279 0.8241
vn -0.5517 -0.1279 0.8242
vn -0.7413 0.6712 0.0003
vn -0.7335 0.6640 -0.1454
vn -0.7413 0.6712 0.0002
vn -0.7334 0.6640 -0.1455
vn -0.7334 0.6641 -0.1454
vn -0.7333 0.6641 -0.1454
vn -0.7334 0.6641 -0.1453
vn -0.7334 0.6640 -0.1453
vn -0.7335 0.6640 -0.1453
vn -0.7413 0.6711 0.0003
vn -0.7334 0.6639 0.1457
vn -0.7335 0.6639 0.1457
vn -0.7334 0.6640 0.1457
vn -0.7333 0.6641 0.1457
vn -0.7333 0.6641 0.1458
vn -0.7334 0.6640 0.1459
# 101 vertex normals

vt 0.6617 0.1078 0.0000
vt 0.6763 0.1038 0.0000
vt 0.6962 0.1883 0.0000
vt 0.6873 0.1943 0.0000
vt 0.6912 0.1006 0.0000
vt 0.7054 0.1834 0.0000
vt 0.7063 0.0983 0.0000
vt 0.7149 0.1800 0.0000
vt 0.7214 0.0971 0.0000
vt 0.7247 0.1780 0.0000
vt 0.7367 0.0970 0.0000
vt 0.7345 0.1776 0.0000
vt 0.7519 0.0980 0.0000
vt 0.7444 0.1789 0.0000
vt 0.7669 0.1001 0.0000
vt 0.7541 0.1816 0.0000
vt 0.7817 0.1033 0.0000
vt 0.7637 0.1858 0.0000
vt 0.7963 0.1072 0.0000
vt 0.7730 0.1912 0.0000
vt 0.8105 0.1119 0.0000
vt 0.7823 0.1978 0.0000
vt 0.8246 0.1169 0.0000
vt 0.7918 0.2053 0.0000
vt 0.8385 0.1222 0.0000
vt 0.8017 0.2134 0.0000
vt 0.8524 0.1274 0.0000
vt 0.8140 0.2204 0.0000
vt 0.6189 0.1223 0.0000
vt 0.6330 0.1173 0.0000
vt 0.6694 0.2096 0.0000
vt 0.6596 0.2187 0.0000
vt 0.6473 0.1124 0.0000
vt 0.6785 0.2016 0.0000
vt 0.6987 0.2001 0.0000
vt 0.7138 0.1914 0.0000
vt 0.7300 0.1879 0.0000
vt 0.7466 0.1901 0.0000
vt 0.7623 0.1977 0.0000
vt 0.7773 0.2094 0.0000
vt 0.7909 0.2265 0.0000
vt 0.6849 0.2129 0.0000
vt 0.6777 0.2314 0.0000
vt 0.7319 0.2203 0.0000
vt 0.6653 0.0215 0.0000
vt 0.6477 0.0251 0.0000
vt 0.6834 0.0187 0.0000
vt 0.7017 0.0167 0.0000
vt 0.7201 0.0157 0.0000
vt 0.7387 0.0157 0.0000
vt 0.7572 0.0167 0.0000
vt 0.7755 0.0187 0.0000
vt 0.7935 0.0217 0.0000
vt 0.8112 0.0254 0.0000
vt 0.8285 0.0297 0.0000
vt 0.8455 0.0345 0.0000
vt 0.8621 0.0396 0.0000
vt 0.8786 0.0447 0.0000
vt 0.6133 0.0335 0.0000
vt 0.5965 0.0379 0.0000
vt 0.6303 0.0291 0.0000
vt 0.6472 0.0228 0.0000
vt 0.6649 0.0192 0.0000
vt 0.6831 0.0163 0.0000
vt 0.7015 0.0143 0.0000
vt 0.7201 0.0133 0.0000
vt 0.7388 0.0133 0.0000
vt 0.7574 0.0143 0.0000
vt 0.7758 0.0164 0.0000
vt 0.7940 0.0194 0.0000
vt 0.8117 0.0231 0.0000
vt 0.8291 0.0275 0.0000
vt 0.8461 0.0323 0.0000
vt 0.8628 0.0374 0.0000
vt 0.8790 0.0424 0.0000
vt 0.5962 0.0355 0.0000
vt 0.6127 0.0312 0.0000
vt 0.6298 0.0268 0.0000
vt 0.1758 0.6470 0.0000
vt 0.1758 0.9833 0.0000
vt 0.1280 0.9833 0.0000
vt 0.1280 0.6470 0.0000
vt 0.2702 0.6470 0.0000
vt 0.2702 0.9833 0.0000
vt 0.3714 0.6470 0.0000
vt 0.3714 0.9833 0.0000
vt 0.4645 0.6470 0.0000
vt 0.4645 0.9833 0.0000
vt 0.5190 0.6470 0.0000
vt 0.5190 0.9833 0.0000
vt 0.5389 0.6470 0.0000
vt 0.5389 0.9833 0.0000
vt 0.8881 0.4285 0.0000
vt 0.8462 0.4204 0.0000
vt 0.8881 0.3214 0.0000
vt 0.8110 0.3972 0.0000
vt 0.7876 0.3624 0.0000
vt 0.7793 0.3214 0.0000
vt 0.7875 0.2804 0.0000
vt 0.8110 0.2456 0.0000
vt 0.8462 0.2224 0.0000
vt 0.8881 0.2142 0.0000
vt 0.9301 0.2224 0.0000
vt 0.9652 0.2456 0.0000
vt 0.9887 0.2804 0.0000
vt 0.9970 0.3214 0.0000
vt 0.9887 0.3624 0.0000
vt 0.9652 0.3972 0.0000
vt 0.9301 0.4204 0.0000
# 109 texture coords

o PSNA_LiquorBottle01_Label
g PSNA_LiquorBottle01_Label
usemtl PSNA_LiquorBottle01_Label
s 1
f 1/1/1 2/2/2 3/3/3 4/4/4 
f 2/2/2 5/5/5 6/6/6 3/3/3 
f 5/5/5 7/7/7 8/8/8 6/6/6 
f 7/7/7 9/9/9 10/10/10 8/8/8 
f 9/9/9 11/11/11 12/12/12 10/10/10 
f 11/11/11 13/13/13 14/14/14 12/12/12 
f 13/13/13 15/15/15 16/16/16 14/14/14 
f 15/15/15 17/17/17 18/18/18 16/16/16 
f 17/17/17 19/19/19 20/20/20 18/18/18 
f 19/19/19 21/21/21 22/22/22 20/20/20 
f 21/21/21 23/23/23 24/24/24 22/22/22 
f 23/23/23 25/25/25 26/26/26 24/24/24 
f 25/25/25 27/27/27 28/28/28 26/26/26 
f 27/29/27 29/30/29 30/31/30 28/32/28 
f 29/30/29 31/33/31 32/34/32 30/31/30 
f 31/33/31 1/1/1 4/4/4 32/34/32 
f 4/4/4 3/3/3 33/35/33 
f 3/3/3 6/6/6 34/36/34 33/35/33 
f 6/6/6 8/8/8 34/36/34 
f 8/8/8 10/10/10 35/37/35 34/36/34 
f 10/10/10 12/12/12 35/37/35 
f 12/12/12 14/14/14 36/38/36 35/37/35 
f 14/14/14 16/16/16 36/38/36 
f 16/16/16 18/18/18 37/39/37 36/38/36 
f 18/18/18 20/20/20 37/39/37 
f 20/20/20 22/22/22 38/40/38 37/39/37 
f 22/22/22 24/24/24 38/40/38 
f 24/24/24 26/26/26 39/41/39 38/40/38 
f 26/26/26 28/28/28 39/41/39 
f 28/32/28 30/31/30 40/42/40 39/43/39 
f 30/31/30 32/34/32 40/42/40 
f 32/34/32 4/4/4 33/35/33 40/42/40 
f 33/35/33 34/36/34 41/44/41 
f 34/36/34 35/37/35 41/44/41 
f 35/37/35 36/38/36 41/44/41 
f 36/38/36 37/39/37 41/44/41 
f 37/39/37 38/40/38 41/44/41 
f 38/40/38 39/41/39 41/44/41 
f 39/43/39 40/42/40 41/44/41 
f 40/42/40 33/35/33 41/44/41 
f 42/45/42 2/2/2 1/1/1 43/46/43 
f 44/47/44 5/5/5 2/2/2 42/45/42 
f 45/48/45 7/7/7 5/5/5 44/47/44 
f 46/49/46 9/9/9 7/7/7 45/48/45 
f 47/50/47 11/11/11 9/9/9 46/49/46 
f 48/51/48 13/13/13 11/11/11 47/50/47 
f 49/52/49 15/15/15 13/13/13 48/51/48 
f 50/53/50 17/17/17 15/15/15 49/52/49 
f 51/54/51 19/19/19 17/17/17 50/53/50 
f 52/55/52 21/21/21 19/19/19 51/54/51 
f 53/56/53 23/23/23 21/21/21 52/55/52 
f 54/57/54 25/25/25 23/23/23 53/56/53 
f 55/58/55 27/27/27 25/25/25 54/57/54 
f 56/59/56 29/30/29 27/29/27 55/60/55 
f 57/61/57 31/33/31 29/30/29 56/59/56 
f 43/46/43 1/1/1 31/33/31 57/61/57 
f 58/62/58 59/63/59 42/45/42 43/46/43 
f 59/63/59 60/64/60 44/47/44 42/45/42 
f 60/64/60 61/65/61 45/48/45 44/47/44 
f 61/65/61 62/66/62 46/49/46 45/48/45 
f 62/66/62 63/67/63 47/50/47 46/49/46 
f 63/67/63 64/68/64 48/51/48 47/50/47 
f 64/68/64 65/69/65 49/52/49 48/51/48 
f 65/69/65 66/70/66 50/53/50 49/52/49 
f 66/70/66 67/71/67 51/54/51 50/53/50 
f 67/71/67 68/72/68 52/55/52 51/54/51 
f 68/72/68 69/73/69 53/56/53 52/55/52 
f 69/73/69 70/74/70 54/57/54 53/56/53 
f 70/74/70 71/75/71 55/58/55 54/57/54 
f 71/76/71 72/77/72 56/59/56 55/60/55 
f 72/77/72 73/78/73 57/61/57 56/59/56 
f 73/78/73 58/62/58 43/46/43 57/61/57 
f 74/79/74 75/80/75 76/81/76 77/82/77 
f 78/83/78 79/84/78 75/80/75 74/79/74 
f 80/85/79 81/86/80 79/84/78 78/83/78 
f 82/87/81 83/88/81 81/86/80 80/85/79 
f 84/89/82 85/90/83 83/88/81 82/87/81 
f 86/91/84 87/92/85 85/90/83 84/89/82 
f 88/93/86 89/94/87 90/95/88 
f 89/94/87 91/96/89 90/95/88 
f 91/96/89 92/97/90 90/95/88 
f 92/97/90 93/98/91 90/95/88 
f 93/98/91 94/99/92 90/95/88 
f 94/99/92 95/100/93 90/95/88 
f 95/100/93 96/101/94 90/95/88 
f 96/101/94 97/102/95 90/95/88 
f 97/102/95 98/103/96 90/95/88 
f 98/103/96 99/104/97 90/95/88 
f 99/104/97 100/105/98 90/95/88 
f 100/105/98 101/106/98 90/95/88 
f 101/106/98 102/107/99 90/95/88 
f 102/107/99 103/108/100 90/95/88 
f 103/108/100 104/109/101 90/95/88 
f 104/109/101 88/93/86 90/95/88 
# 62 polygons - 32 triangles

#
# object PSNA_LiquorBottle01_Bottle
#

v  0.1048 0.0000 -0.0000
v  0.0968 0.0000 -0.0401
v  0.1316 0.2864 -0.0545
v  0.1424 0.2864 0.0000
v  0.0741 0.0000 -0.0741
v  0.1007 0.2864 -0.1007
v  0.0401 0.0000 -0.0968
v  0.0545 0.2864 -0.1316
v  -0.0000 0.0000 -0.1048
v  -0.0000 0.2864 -0.1424
v  -0.0401 0.0000 -0.0968
v  -0.0545 0.2864 -0.1316
v  -0.0741 0.0000 -0.0741
v  -0.1007 0.2864 -0.1007
v  -0.0968 0.0000 -0.0401
v  -0.1316 0.2864 -0.0545
v  -0.1048 0.0000 -0.0000
v  -0.1424 0.2864 -0.0000
v  -0.0968 0.0000 0.0401
v  -0.1316 0.2864 0.0545
v  -0.0741 0.0000 0.0741
v  -0.1007 0.2864 0.1007
v  -0.0401 0.0000 0.0968
v  -0.0545 0.2864 0.1316
v  0.0000 0.0000 0.1048
v  0.0000 0.2864 0.1424
v  0.0401 0.0000 0.0968
v  0.0545 0.2864 0.1316
v  0.0741 0.0000 0.0741
v  0.1007 0.2864 0.1007
v  0.0968 0.0000 0.0401
v  0.1316 0.2864 0.0545
v  0.1284 0.2974 -0.0532
v  0.0602 0.3789 -0.0249
v  0.0651 0.3789 -0.0000
v  0.1389 0.2974 0.0000
v  0.0982 0.2974 -0.0982
v  0.0461 0.3789 -0.0461
v  0.0532 0.2974 -0.1284
v  0.0249 0.3789 -0.0602
v  -0.0000 0.2974 -0.1389
v  -0.0000 0.3789 -0.0651
v  -0.0532 0.2974 -0.1284
v  -0.0249 0.3789 -0.0602
v  -0.0982 0.2974 -0.0982
v  -0.0461 0.3789 -0.0461
v  -0.1284 0.2974 -0.0532
v  -0.0602 0.3789 -0.0249
v  -0.1389 0.2974 -0.0000
v  -0.0651 0.3789 -0.0000
v  -0.1284 0.2974 0.0532
v  -0.0602 0.3789 0.0249
v  -0.0982 0.2974 0.0982
v  -0.0461 0.3789 0.0461
v  -0.0532 0.2974 0.1284
v  -0.0249 0.3789 0.0602
v  0.0000 0.2974 0.1389
v  0.0000 0.3789 0.0651
v  0.0532 0.2974 0.1284
v  0.0249 0.3789 0.0602
v  0.0982 0.2974 0.0982
v  0.0461 0.3789 0.0461
v  0.1284 0.2974 0.0532
v  0.0602 0.3789 0.0249
v  0.0472 0.4138 -0.0196
v  0.0511 0.4138 -0.0000
v  0.0361 0.4138 -0.0361
v  0.0196 0.4138 -0.0472
v  -0.0000 0.4138 -0.0511
v  -0.0196 0.4138 -0.0472
v  -0.0361 0.4138 -0.0361
v  -0.0472 0.4138 -0.0196
v  -0.0511 0.4138 -0.0000
v  -0.0472 0.4138 0.0196
v  -0.0361 0.4138 0.0361
v  -0.0196 0.4138 0.0472
v  0.0000 0.4138 0.0511
v  0.0196 0.4138 0.0472
v  0.0361 0.4138 0.0361
v  0.0472 0.4138 0.0196
v  0.0423 0.4762 -0.0175
v  0.0458 0.4762 -0.0000
v  0.0324 0.4762 -0.0324
v  0.0175 0.4762 -0.0423
v  -0.0000 0.4762 -0.0458
v  -0.0175 0.4762 -0.0423
v  -0.0324 0.4762 -0.0324
v  -0.0423 0.4762 -0.0175
v  -0.0458 0.4762 -0.0000
v  -0.0423 0.4762 0.0175
v  -0.0324 0.4762 0.0324
v  -0.0175 0.4762 0.0423
v  0.0000 0.4762 0.0458
v  0.0175 0.4762 0.0423
v  0.0324 0.4762 0.0324
v  0.0423 0.4762 0.0175
v  0.0993 -0.0050 -0.0000
v  0.0918 -0.0050 -0.0380
v  0.0702 -0.0050 -0.0702
v  0.0380 -0.0050 -0.0918
v  -0.0000 -0.0050 -0.0993
v  -0.0380 -0.0050 -0.0918
v  -0.0702 -0.0050 -0.0702
v  -0.0918 -0.0050 -0.0380
v  -0.0993 -0.0050 -0.0000
v  -0.0918 -0.0050 0.0380
v  -0.0702 -0.0050 0.0702
v  -0.0380 -0.0050 0.0918
v  0.0000 -0.0050 0.0993
v  0.0380 -0.0050 0.0918
v  0.0702 -0.0050 0.0702
v  0.0918 -0.0050 0.0380
v  0.0867 -0.0100 -0.0359
v  0.0939 -0.0100 -0.0000
v  0.0622 -0.0034 -0.0124
v  0.0664 -0.0100 -0.0664
v  0.0352 -0.0034 -0.0527
v  0.0359 -0.0100 -0.0867
v  -0.0000 -0.0100 -0.0939
v  -0.0124 -0.0034 -0.0622
v  -0.0359 -0.0100 -0.0867
v  -0.0664 -0.0100 -0.0664
v  -0.0527 -0.0034 -0.0352
v  -0.0867 -0.0100 -0.0359
v  -0.0939 -0.0100 -0.0000
v  -0.0622 -0.0034 0.0124
v  -0.0867 -0.0100 0.0359
v  -0.0664 -0.0100 0.0664
v  -0.0352 -0.0034 0.0527
v  -0.0359 -0.0100 0.0867
v  0.0000 -0.0100 0.0939
v  0.0124 -0.0034 0.0622
v  0.0359 -0.0100 0.0867
v  0.0664 -0.0100 0.0664
v  0.0527 -0.0034 0.0352
v  0.0867 -0.0100 0.0359
v  0.0317 -0.0105 0.0063
v  0.0000 -0.0113 -0.0000
v  0.0269 -0.0105 -0.0180
v  0.0063 -0.0105 -0.0317
v  -0.0180 -0.0105 -0.0269
v  -0.0317 -0.0105 -0.0063
v  -0.0269 -0.0105 0.0180
v  -0.0063 -0.0105 0.0317
v  0.0180 -0.0105 0.0269
v  0.1307 0.2921 -0.0541
v  0.1415 0.2921 0.0000
v  0.1000 0.2921 -0.1000
v  0.0541 0.2921 -0.1307
v  -0.0000 0.2921 -0.1415
v  -0.0541 0.2921 -0.1307
v  -0.1000 0.2921 -0.1000
v  -0.1307 0.2921 -0.0541
v  -0.1415 0.2921 -0.0000
v  -0.1307 0.2921 0.0541
v  -0.1000 0.2921 0.1000
v  -0.0541 0.2921 0.1307
v  0.0000 0.2921 0.1415
v  0.0541 0.2921 0.1307
v  0.1000 0.2921 0.1000
v  0.1307 0.2921 0.0541
# 161 vertices

vn 0.8960 -0.4440 -0.0000
vn 0.8278 -0.4440 -0.3429
vn 0.9238 0.0151 -0.3826
vn 0.9999 0.0151 -0.0000
vn 0.6336 -0.4440 -0.6336
vn 0.7070 0.0151 -0.7070
vn 0.3429 -0.4440 -0.8278
vn 0.3826 0.0151 -0.9238
vn 0.0000 -0.4440 -0.8960
vn 0.0000 0.0151 -0.9999
vn -0.3429 -0.4440 -0.8278
vn -0.3826 0.0151 -0.9238
vn -0.6336 -0.4440 -0.6336
vn -0.7070 0.0151 -0.7070
vn -0.8278 -0.4440 -0.3429
vn -0.9238 0.0151 -0.3826
vn -0.8960 -0.4440 -0.0000
vn -0.9999 0.0151 -0.0000
vn -0.8278 -0.4440 0.3429
vn -0.9238 0.0151 0.3826
vn -0.6336 -0.4440 0.6336
vn -0.7070 0.0151 0.7070
vn -0.3429 -0.4440 0.8278
vn -0.3826 0.0151 0.9238
vn 0.0000 -0.4440 0.8960
vn 0.0000 0.0151 0.9999
vn 0.3429 -0.4440 0.8278
vn 0.3826 0.0151 0.9238
vn 0.6336 -0.4440 0.6336
vn 0.7070 0.0151 0.7070
vn 0.8278 -0.4440 0.3429
vn 0.9238 0.0151 0.3826
vn 0.7703 0.5522 -0.3191
vn 0.7774 0.5403 -0.3220
vn 0.8415 0.5403 -0.0000
vn 0.8337 0.5522 -0.0000
vn 0.5895 0.5522 -0.5895
vn 0.5950 0.5403 -0.5950
vn 0.3191 0.5522 -0.7703
vn 0.3220 0.5403 -0.7774
vn -0.0000 0.5522 -0.8337
vn -0.0000 0.5403 -0.8415
vn -0.3191 0.5522 -0.7703
vn -0.3220 0.5403 -0.7774
vn -0.5895 0.5522 -0.5895
vn -0.5950 0.5403 -0.5950
vn -0.7703 0.5522 -0.3191
vn -0.7774 0.5403 -0.3220
vn -0.8337 0.5522 -0.0000
vn -0.8415 0.5403 -0.0000
vn -0.7703 0.5522 0.3191
vn -0.7774 0.5403 0.3220
vn -0.5895 0.5522 0.5895
vn -0.5950 0.5403 0.5950
vn -0.3191 0.5522 0.7703
vn -0.3220 0.5403 0.7774
vn 0.0000 0.5522 0.8337
vn 0.0000 0.5403 0.8415
vn 0.3191 0.5522 0.7703
vn 0.3220 0.5403 0.7774
vn 0.5895 0.5522 0.5895
vn 0.5950 0.5403 0.5950
vn 0.7703 0.5522 0.3191
vn 0.7774 0.5403 0.3220
vn 0.8979 0.2357 -0.3719
vn 0.9718 0.2357 -0.0000
vn 0.6872 0.2357 -0.6872
vn 0.3719 0.2357 -0.8979
vn -0.0000 0.2357 -0.9718
vn -0.3719 0.2357 -0.8979
vn -0.6872 0.2357 -0.6872
vn -0.8979 0.2357 -0.3719
vn -0.9718 0.2357 -0.0000
vn -0.8979 0.2357 0.3719
vn -0.6872 0.2357 0.6872
vn -0.3719 0.2357 0.8979
vn -0.0000 0.2357 0.9718
vn 0.3719 0.2357 0.8979
vn 0.6872 0.2357 0.6872
vn 0.8979 0.2357 0.3719
vn 0.9205 0.0851 -0.3813
vn 0.9964 0.0851 0.0000
vn 0.7045 0.0851 -0.7045
vn 0.3813 0.0851 -0.9205
vn -0.0000 0.0851 -0.9964
vn -0.3813 0.0851 -0.9205
vn -0.7045 0.0851 -0.7045
vn -0.9205 0.0851 -0.3813
vn -0.9964 0.0851 -0.0000
vn -0.9205 0.0851 0.3813
vn -0.7045 0.0851 0.7045
vn -0.3813 0.0851 0.9205
vn 0.0000 0.0851 0.9964
vn 0.3813 0.0851 0.9205
vn 0.7045 0.0851 0.7045
vn 0.9205 0.0851 0.3813
vn 0.6775 -0.7355 -0.0000
vn 0.6260 -0.7355 -0.2593
vn 0.4791 -0.7355 -0.4791
vn 0.2593 -0.7355 -0.6260
vn 0.0000 -0.7355 -0.6775
vn -0.2593 -0.7355 -0.6260
vn -0.4791 -0.7355 -0.4791
vn -0.6260 -0.7355 -0.2593
vn -0.6775 -0.7355 -0.0000
vn -0.6260 -0.7355 0.2593
vn -0.4791 -0.7355 0.4791
vn -0.2593 -0.7355 0.6260
vn 0.0000 -0.7355 0.6775
vn 0.2593 -0.7355 0.6260
vn 0.4791 -0.7355 0.4791
vn 0.6260 -0.7355 0.2593
vn 0.2957 -0.9479 -0.1182
vn 0.3184 -0.9479 -0.0039
vn -0.0329 -0.9994 0.0065
vn 0.2224 -0.9479 -0.2279
vn -0.0186 -0.9994 0.0279
vn 0.1255 -0.9479 -0.2927
vn -0.0039 -0.9479 -0.3184
vn 0.0065 -0.9994 0.0329
vn -0.1182 -0.9479 -0.2957
vn -0.2279 -0.9479 -0.2224
vn 0.0279 -0.9994 0.0186
vn -0.2927 -0.9479 -0.1255
vn -0.3184 -0.9479 0.0039
vn 0.0329 -0.9994 -0.0065
vn -0.2957 -0.9479 0.1182
vn -0.2224 -0.9479 0.2279
vn 0.0186 -0.9994 -0.0279
vn -0.1255 -0.9479 0.2927
vn 0.0039 -0.9479 0.3184
vn -0.0065 -0.9994 -0.0329
vn 0.1182 -0.9479 0.2957
vn 0.2279 -0.9479 0.2224
vn -0.0279 -0.9994 -0.0186
vn 0.2927 -0.9479 0.1255
vn 0.1423 -0.9894 0.0283
vn 0.0000 -1.0000 -0.0000
vn 0.1206 -0.9894 -0.0806
vn 0.0283 -0.9894 -0.1423
vn -0.0806 -0.9894 -0.1206
vn -0.1423 -0.9894 -0.0283
vn -0.1206 -0.9894 0.0806
vn -0.0283 -0.9894 0.1423
vn 0.0806 -0.9894 0.1206
vn 0.8820 0.2975 -0.3654
vn 0.9547 0.2975 -0.0000
vn 0.6751 0.2975 -0.6751
vn 0.3654 0.2975 -0.8820
vn -0.0000 0.2975 -0.9547
vn -0.3654 0.2975 -0.8820
vn -0.6751 0.2975 -0.6751
vn -0.8820 0.2975 -0.3654
vn -0.9547 0.2975 -0.0000
vn -0.8820 0.2975 0.3654
vn -0.6751 0.2975 0.6751
vn -0.3654 0.2975 0.8820
vn 0.0000 0.2975 0.9547
vn 0.3654 0.2975 0.8820
vn 0.6751 0.2975 0.6751
vn 0.8820 0.2975 0.3654
# 161 vertex normals

vt 0.9642 0.5379 0.0000
vt 0.9689 0.5720 0.0000
vt 0.7464 0.5846 0.0000
vt 0.7380 0.5504 0.0000
vt 0.9733 0.6068 0.0000
vt 0.7535 0.6179 0.0000
vt 0.9769 0.6421 0.0000
vt 0.7590 0.6506 0.0000
vt 0.9793 0.6778 0.0000
vt 0.7623 0.6831 0.0000
vt 0.9803 0.7137 0.0000
vt 0.7628 0.7156 0.0000
vt 0.9800 0.7497 0.0000
vt 0.7610 0.7479 0.0000
vt 0.9784 0.7854 0.0000
vt 0.7577 0.7804 0.0000
vt 0.9758 0.8208 0.0000
vt 0.7531 0.8134 0.0000
vt 0.9724 0.8557 0.0000
vt 0.7468 0.8470 0.0000
vt 0.9687 0.8901 0.0000
vt 0.7392 0.8815 0.0000
vt 0.9653 0.9239 0.0000
vt 0.7304 0.9173 0.0000
vt 0.9628 0.9572 0.0000
vt 0.7203 0.9549 0.0000
vt 0.9624 0.9900 0.0000
vt 0.7114 0.9949 0.0000
vt 0.9554 0.4393 0.0000
vt 0.9564 0.4716 0.0000
vt 0.7175 0.4773 0.0000
vt 0.7081 0.4367 0.0000
vt 0.9597 0.5044 0.0000
vt 0.7281 0.5149 0.0000
vt 0.7378 0.5869 0.0000
vt 0.6581 0.6209 0.0000
vt 0.6522 0.5981 0.0000
vt 0.7297 0.5533 0.0000
vt 0.7434 0.6197 0.0000
vt 0.6623 0.6444 0.0000
vt 0.7465 0.6521 0.0000
vt 0.6650 0.6682 0.0000
vt 0.7485 0.6841 0.0000
vt 0.6666 0.6923 0.0000
vt 0.7502 0.7157 0.0000
vt 0.6672 0.7165 0.0000
vt 0.7508 0.7473 0.0000
vt 0.6667 0.7405 0.0000
vt 0.7490 0.7792 0.0000
vt 0.6649 0.7644 0.0000
vt 0.7446 0.8116 0.0000
vt 0.6617 0.7879 0.0000
vt 0.7382 0.8445 0.0000
vt 0.6569 0.8109 0.0000
vt 0.7294 0.8779 0.0000
vt 0.6504 0.8333 0.0000
vt 0.7182 0.9120 0.0000
vt 0.6420 0.8545 0.0000
vt 0.7058 0.9476 0.0000
vt 0.6311 0.8736 0.0000
vt 0.6896 0.9836 0.0000
vt 0.6169 0.8889 0.0000
vt 0.7072 0.4828 0.0000
vt 0.6341 0.5573 0.0000
vt 0.6206 0.5423 0.0000
vt 0.6895 0.4471 0.0000
vt 0.7197 0.5186 0.0000
vt 0.6444 0.5765 0.0000
vt 0.6302 0.6343 0.0000
vt 0.6252 0.6155 0.0000
vt 0.6339 0.6540 0.0000
vt 0.6364 0.6744 0.0000
vt 0.6378 0.6951 0.0000
vt 0.6382 0.7161 0.0000
vt 0.6376 0.7369 0.0000
vt 0.6359 0.7575 0.0000
vt 0.6331 0.7776 0.0000
vt 0.6290 0.7971 0.0000
vt 0.6235 0.8156 0.0000
vt 0.6166 0.8326 0.0000
vt 0.6081 0.8477 0.0000
vt 0.5979 0.8604 0.0000
vt 0.6105 0.5829 0.0000
vt 0.6007 0.5701 0.0000
vt 0.6187 0.5983 0.0000
vt 0.5830 0.6509 0.0000
vt 0.5789 0.6364 0.0000
vt 0.5860 0.6663 0.0000
vt 0.5880 0.6823 0.0000
vt 0.5891 0.6988 0.0000
vt 0.5894 0.7154 0.0000
vt 0.5889 0.7321 0.0000
vt 0.5875 0.7484 0.0000
vt 0.5853 0.7643 0.0000
vt 0.5821 0.7796 0.0000
vt 0.5778 0.7940 0.0000
vt 0.5723 0.8074 0.0000
vt 0.5656 0.8198 0.0000
vt 0.5577 0.8313 0.0000
vt 0.5669 0.6105 0.0000
vt 0.5592 0.5986 0.0000
vt 0.5735 0.6230 0.0000
vt 0.9699 0.5372 0.0000
vt 0.9746 0.5713 0.0000
vt 0.9790 0.6062 0.0000
vt 0.9826 0.6416 0.0000
vt 0.9850 0.6775 0.0000
vt 0.9861 0.7137 0.0000
vt 0.9857 0.7498 0.0000
vt 0.9841 0.7857 0.0000
vt 0.9815 0.8212 0.0000
vt 0.9782 0.8562 0.0000
vt 0.9745 0.8906 0.0000
vt 0.9710 0.9243 0.0000
vt 0.9686 0.9572 0.0000
vt 0.9684 0.9889 0.0000
vt 0.9613 0.4402 0.0000
vt 0.9621 0.4714 0.0000
vt 0.9655 0.5039 0.0000
vt 0.7504 0.2630 0.0000
vt 0.7489 0.2568 0.0000
vt 0.7545 0.2587 0.0000
vt 0.7542 0.2681 0.0000
vt 0.7596 0.2654 0.0000
vt 0.7597 0.2714 0.0000
vt 0.7660 0.2723 0.0000
vt 0.7679 0.2667 0.0000
vt 0.7722 0.2708 0.0000
vt 0.7773 0.2670 0.0000
vt 0.7746 0.2616 0.0000
vt 0.7806 0.2615 0.0000
vt 0.7815 0.2552 0.0000
vt 0.7758 0.2533 0.0000
vt 0.7799 0.2490 0.0000
vt 0.7761 0.2439 0.0000
vt 0.7708 0.2466 0.0000
vt 0.7707 0.2406 0.0000
vt 0.7644 0.2397 0.0000
vt 0.7625 0.2454 0.0000
vt 0.7582 0.2413 0.0000
vt 0.7531 0.2451 0.0000
vt 0.7558 0.2504 0.0000
vt 0.7498 0.2505 0.0000
vt 0.7597 0.2552 0.0000
vt 0.7652 0.2560 0.0000
vt 0.7608 0.2593 0.0000
vt 0.7644 0.2615 0.0000
vt 0.7685 0.2604 0.0000
vt 0.7706 0.2568 0.0000
vt 0.7696 0.2527 0.0000
vt 0.7660 0.2506 0.0000
vt 0.7619 0.2516 0.0000
vt 0.9756 0.5365 0.0000
vt 0.9804 0.5706 0.0000
vt 0.9847 0.6056 0.0000
vt 0.9883 0.6412 0.0000
vt 0.9908 0.6773 0.0000
vt 0.9918 0.7136 0.0000
vt 0.9915 0.7499 0.0000
vt 0.9899 0.7860 0.0000
vt 0.9873 0.8216 0.0000
vt 0.9839 0.8567 0.0000
vt 0.9802 0.8911 0.0000
vt 0.9768 0.9247 0.0000
vt 0.9744 0.9573 0.0000
vt 0.9742 0.9879 0.0000
vt 0.9672 0.4410 0.0000
vt 0.9679 0.4712 0.0000
vt 0.9712 0.5033 0.0000
vt 0.7421 0.5857 0.0000
vt 0.7339 0.5519 0.0000
vt 0.7484 0.6188 0.0000
vt 0.7528 0.6514 0.0000
vt 0.7554 0.6836 0.0000
vt 0.7565 0.7156 0.0000
vt 0.7559 0.7476 0.0000
vt 0.7534 0.7798 0.0000
vt 0.7488 0.8125 0.0000
vt 0.7425 0.8457 0.0000
vt 0.7343 0.8797 0.0000
vt 0.7243 0.9147 0.0000
vt 0.7131 0.9512 0.0000
vt 0.7005 0.9893 0.0000
vt 0.7123 0.4800 0.0000
vt 0.6988 0.4419 0.0000
vt 0.7239 0.5167 0.0000
# 186 texture coords

o PSNA_LiquorBottle01_Bottle
g PSNA_LiquorBottle01_Bottle
usemtl PSNA_LiquorBottle01_Label
s 1
f 105/110/102 106/111/103 107/112/104 108/113/105 
f 106/111/103 109/114/106 110/115/107 107/112/104 
f 109/114/106 111/116/108 112/117/109 110/115/107 
f 111/116/108 113/118/110 114/119/111 112/117/109 
f 113/118/110 115/120/112 116/121/113 114/119/111 
f 115/120/112 117/122/114 118/123/115 116/121/113 
f 117/122/114 119/124/116 120/125/117 118/123/115 
f 119/124/116 121/126/118 122/127/119 120/125/117 
f 121/126/118 123/128/120 124/129/121 122/127/119 
f 123/128/120 125/130/122 126/131/123 124/129/121 
f 125/130/122 127/132/124 128/133/125 126/131/123 
f 127/132/124 129/134/126 130/135/127 128/133/125 
f 129/134/126 131/136/128 132/137/129 130/135/127 
f 131/138/128 133/139/130 134/140/131 132/141/129 
f 133/139/130 135/142/132 136/143/133 134/140/131 
f 135/142/132 105/110/102 108/113/105 136/143/133 
f 137/144/134 138/145/135 139/146/136 140/147/137 
f 141/148/138 142/149/139 138/145/135 137/144/134 
f 143/150/140 144/151/141 142/149/139 141/148/138 
f 145/152/142 146/153/143 144/151/141 143/150/140 
f 147/154/144 148/155/145 146/153/143 145/152/142 
f 149/156/146 150/157/147 148/155/145 147/154/144 
f 151/158/148 152/159/149 150/157/147 149/156/146 
f 153/160/150 154/161/151 152/159/149 151/158/148 
f 155/162/152 156/163/153 154/161/151 153/160/150 
f 157/164/154 158/165/155 156/163/153 155/162/152 
f 159/166/156 160/167/157 158/165/155 157/164/154 
f 161/168/158 162/169/159 160/167/157 159/166/156 
f 163/170/160 164/171/161 162/169/159 161/168/158 
f 165/172/162 166/173/163 164/174/161 163/175/160 
f 167/176/164 168/177/165 166/173/163 165/172/162 
f 140/147/137 139/146/136 168/177/165 167/176/164 
f 138/145/135 169/178/166 170/179/167 139/146/136 
f 142/149/139 171/180/168 169/178/166 138/145/135 
f 144/151/141 172/181/169 171/180/168 142/149/139 
f 146/153/143 173/182/170 172/181/169 144/151/141 
f 148/155/145 174/183/171 173/182/170 146/153/143 
f 150/157/147 175/184/172 174/183/171 148/155/145 
f 152/159/149 176/185/173 175/184/172 150/157/147 
f 154/161/151 177/186/174 176/185/173 152/159/149 
f 156/163/153 178/187/175 177/186/174 154/161/151 
f 158/165/155 179/188/176 178/187/175 156/163/153 
f 160/167/157 180/189/177 179/188/176 158/165/155 
f 162/169/159 181/190/178 180/189/177 160/167/157 
f 164/171/161 182/191/179 181/190/178 162/169/159 
f 166/173/163 183/192/180 182/193/179 164/174/161 
f 168/177/165 184/194/181 183/192/180 166/173/163 
f 139/146/136 170/179/167 184/194/181 168/177/165 
f 169/178/166 185/195/182 186/196/183 170/179/167 
f 171/180/168 187/197/184 185/195/182 169/178/166 
f 172/181/169 188/198/185 187/197/184 171/180/168 
f 173/182/170 189/199/186 188/198/185 172/181/169 
f 174/183/171 190/200/187 189/199/186 173/182/170 
f 175/184/172 191/201/188 190/200/187 174/183/171 
f 176/185/173 192/202/189 191/201/188 175/184/172 
f 177/186/174 193/203/190 192/202/189 176/185/173 
f 178/187/175 194/204/191 193/203/190 177/186/174 
f 179/188/176 195/205/192 194/204/191 178/187/175 
f 180/189/177 196/206/193 195/205/192 179/188/176 
f 181/190/178 197/207/194 196/206/193 180/189/177 
f 182/191/179 198/208/195 197/207/194 181/190/178 
f 183/192/180 199/209/196 198/210/195 182/193/179 
f 184/194/181 200/211/197 199/209/196 183/192/180 
f 170/179/167 186/196/183 200/211/197 184/194/181 
f 106/111/103 105/110/102 201/212/198 202/213/199 
f 109/114/106 106/111/103 202/213/199 203/214/200 
f 111/116/108 109/114/106 203/214/200 204/215/201 
f 113/118/110 111/116/108 204/215/201 205/216/202 
f 115/120/112 113/118/110 205/216/202 206/217/203 
f 117/122/114 115/120/112 206/217/203 207/218/204 
f 119/124/116 117/122/114 207/218/204 208/219/205 
f 121/126/118 119/124/116 208/219/205 209/220/206 
f 123/128/120 121/126/118 209/220/206 210/221/207 
f 125/130/122 123/128/120 210/221/207 211/222/208 
f 127/132/124 125/130/122 211/222/208 212/223/209 
f 129/134/126 127/132/124 212/223/209 213/224/210 
f 131/136/128 129/134/126 213/224/210 214/225/211 
f 133/139/130 131/138/128 214/226/211 215/227/212 
f 135/142/132 133/139/130 215/227/212 216/228/213 
f 105/110/102 135/142/132 216/228/213 201/212/198 
f 217/229/214 218/230/215 219/231/216 
f 220/232/217 217/229/214 219/231/216 221/233/218 
f 222/234/219 220/232/217 221/233/218 
f 223/235/220 222/234/219 221/233/218 224/236/221 
f 225/237/222 223/235/220 224/236/221 
f 226/238/223 225/237/222 224/236/221 227/239/224 
f 228/240/225 226/238/223 227/239/224 
f 229/241/226 228/240/225 227/239/224 230/242/227 
f 231/243/228 229/241/226 230/242/227 
f 232/244/229 231/243/228 230/242/227 233/245/230 
f 234/246/231 232/244/229 233/245/230 
f 235/247/232 234/246/231 233/245/230 236/248/233 
f 237/249/234 235/247/232 236/248/233 
f 238/250/235 237/249/234 236/248/233 239/251/236 
f 240/252/237 238/250/235 239/251/236 
f 218/230/215 240/252/237 239/251/236 219/231/216 
f 241/253/238 242/254/239 243/255/240 
f 243/255/240 242/254/239 244/256/241 
f 244/256/241 242/254/239 245/257/242 
f 245/257/242 242/254/239 246/258/243 
f 246/258/243 242/254/239 247/259/244 
f 247/259/244 242/254/239 248/260/245 
f 248/260/245 242/254/239 249/261/246 
f 249/261/246 242/254/239 241/253/238 
f 219/231/216 241/253/238 243/255/240 
f 221/233/218 219/231/216 243/255/240 
f 221/233/218 243/255/240 244/256/241 
f 224/236/221 221/233/218 244/256/241 
f 224/236/221 244/256/241 245/257/242 
f 227/239/224 224/236/221 245/257/242 
f 227/239/224 245/257/242 246/258/243 
f 230/242/227 227/239/224 246/258/243 
f 230/242/227 246/258/243 247/259/244 
f 233/245/230 230/242/227 247/259/244 
f 233/245/230 247/259/244 248/260/245 
f 236/248/233 233/245/230 248/260/245 
f 236/248/233 248/260/245 249/261/246 
f 239/251/236 236/248/233 249/261/246 
f 239/251/236 249/261/246 241/253/238 
f 219/231/216 239/251/236 241/253/238 
f 201/212/198 218/262/215 217/263/214 202/213/199 
f 202/213/199 217/263/214 220/264/217 203/214/200 
f 203/214/200 220/264/217 222/265/219 204/215/201 
f 204/215/201 222/265/219 223/266/220 205/216/202 
f 205/216/202 223/266/220 225/267/222 206/217/203 
f 206/217/203 225/267/222 226/268/223 207/218/204 
f 207/218/204 226/268/223 228/269/225 208/219/205 
f 208/219/205 228/269/225 229/270/226 209/220/206 
f 209/220/206 229/270/226 231/271/228 210/221/207 
f 210/221/207 231/271/228 232/272/229 211/222/208 
f 211/222/208 232/272/229 234/273/231 212/223/209 
f 212/223/209 234/273/231 235/274/232 213/224/210 
f 213/224/210 235/274/232 237/275/234 214/225/211 
f 214/226/211 237/276/234 238/277/235 215/227/212 
f 215/227/212 238/277/235 240/278/237 216/228/213 
f 216/228/213 240/278/237 218/262/215 201/212/198 
f 108/113/105 107/112/104 250/279/247 251/280/248 
f 107/112/104 110/115/107 252/281/249 250/279/247 
f 110/115/107 112/117/109 253/282/250 252/281/249 
f 112/117/109 114/119/111 254/283/251 253/282/250 
f 114/119/111 116/121/113 255/284/252 254/283/251 
f 116/121/113 118/123/115 256/285/253 255/284/252 
f 118/123/115 120/125/117 257/286/254 256/285/253 
f 120/125/117 122/127/119 258/287/255 257/286/254 
f 122/127/119 124/129/121 259/288/256 258/287/255 
f 124/129/121 126/131/123 260/289/257 259/288/256 
f 126/131/123 128/133/125 261/290/258 260/289/257 
f 128/133/125 130/135/127 262/291/259 261/290/258 
f 130/135/127 132/137/129 263/292/260 262/291/259 
f 132/141/129 134/140/131 264/293/261 263/294/260 
f 134/140/131 136/143/133 265/295/262 264/293/261 
f 136/143/133 108/113/105 251/280/248 265/295/262 
f 250/279/247 137/144/134 140/147/137 251/280/248 
f 252/281/249 141/148/138 137/144/134 250/279/247 
f 253/282/250 143/150/140 141/148/138 252/281/249 
f 254/283/251 145/152/142 143/150/140 253/282/250 
f 255/284/252 147/154/144 145/152/142 254/283/251 
f 256/285/253 149/156/146 147/154/144 255/284/252 
f 257/286/254 151/158/148 149/156/146 256/285/253 
f 258/287/255 153/160/150 151/158/148 257/286/254 
f 259/288/256 155/162/152 153/160/150 258/287/255 
f 260/289/257 157/164/154 155/162/152 259/288/256 
f 261/290/258 159/166/156 157/164/154 260/289/257 
f 262/291/259 161/168/158 159/166/156 261/290/258 
f 263/292/260 163/170/160 161/168/158 262/291/259 
f 264/293/261 165/172/162 163/175/160 263/294/260 
f 265/295/262 167/176/164 165/172/162 264/293/261 
f 251/280/248 140/147/137 167/176/164 265/295/262 
# 136 polygons - 32 triangles

#
# object PSNA_LiquorBottle01_Liquid
#

v  0.0980 0.0121 -0.0000
v  0.0906 0.0121 -0.0375
v  0.1231 0.2801 -0.0510
v  0.1333 0.2801 0.0000
v  0.0693 0.0121 -0.0693
v  0.0942 0.2801 -0.0942
v  0.0375 0.0121 -0.0906
v  0.0510 0.2801 -0.1231
v  -0.0000 0.0121 -0.0980
v  -0.0000 0.2801 -0.1333
v  -0.0375 0.0121 -0.0906
v  -0.0510 0.2801 -0.1231
v  -0.0693 0.0121 -0.0693
v  -0.0942 0.2801 -0.0942
v  -0.0906 0.0121 -0.0375
v  -0.1231 0.2801 -0.0510
v  -0.0980 0.0121 -0.0000
v  -0.1333 0.2801 -0.0000
v  -0.0906 0.0121 0.0375
v  -0.1231 0.2801 0.0510
v  -0.0693 0.0121 0.0693
v  -0.0942 0.2801 0.0942
v  -0.0375 0.0121 0.0906
v  -0.0510 0.2801 0.1231
v  0.0000 0.0121 0.0980
v  0.0000 0.2801 0.1333
v  0.0375 0.0121 0.0906
v  0.0510 0.2801 0.1231
v  0.0693 0.0121 0.0693
v  0.0942 0.2801 0.0942
v  0.0906 0.0121 0.0375
v  0.1231 0.2801 0.0510
v  0.1201 0.2903 -0.0498
v  0.0563 0.3666 -0.0233
v  0.0609 0.3666 -0.0000
v  0.1300 0.2903 0.0000
v  0.0919 0.2903 -0.0919
v  0.0431 0.3666 -0.0431
v  0.0498 0.2903 -0.1201
v  0.0233 0.3666 -0.0563
v  -0.0000 0.2903 -0.1300
v  -0.0000 0.3666 -0.0609
v  -0.0498 0.2903 -0.1201
v  -0.0233 0.3666 -0.0563
v  -0.0919 0.2903 -0.0919
v  -0.0431 0.3666 -0.0431
v  -0.1201 0.2903 -0.0498
v  -0.0563 0.3666 -0.0233
v  -0.1300 0.2903 -0.0000
v  -0.0609 0.3666 -0.0000
v  -0.1201 0.2903 0.0498
v  -0.0563 0.3666 0.0233
v  -0.0919 0.2903 0.0919
v  -0.0431 0.3666 0.0431
v  -0.0498 0.2903 0.1201
v  -0.0233 0.3666 0.0563
v  0.0000 0.2903 0.1300
v  0.0000 0.3666 0.0609
v  0.0498 0.2903 0.1201
v  0.0233 0.3666 0.0563
v  0.0919 0.2903 0.0919
v  0.0431 0.3666 0.0431
v  0.1201 0.2903 0.0498
v  0.0563 0.3666 0.0233
v  0.0442 0.3993 -0.0183
v  0.0478 0.3993 -0.0000
v  0.0338 0.3993 -0.0338
v  0.0183 0.3993 -0.0442
v  -0.0000 0.3993 -0.0478
v  -0.0183 0.3993 -0.0442
v  -0.0338 0.3993 -0.0338
v  -0.0442 0.3993 -0.0183
v  -0.0478 0.3993 -0.0000
v  -0.0442 0.3993 0.0183
v  -0.0338 0.3993 0.0338
v  -0.0183 0.3993 0.0442
v  0.0000 0.3993 0.0478
v  0.0183 0.3993 0.0442
v  0.0338 0.3993 0.0338
v  0.0442 0.3993 0.0183
v  0.0396 0.4309 -0.0164
v  0.0428 0.4309 -0.0000
v  0.0303 0.4309 -0.0303
v  0.0164 0.4309 -0.0396
v  -0.0000 0.4309 -0.0428
v  -0.0164 0.4309 -0.0396
v  -0.0303 0.4309 -0.0303
v  -0.0396 0.4309 -0.0164
v  -0.0428 0.4309 -0.0000
v  -0.0396 0.4309 0.0164
v  -0.0303 0.4309 0.0303
v  -0.0164 0.4309 0.0396
v  0.0000 0.4309 0.0428
v  0.0164 0.4309 0.0396
v  0.0303 0.4309 0.0303
v  0.0396 0.4309 0.0164
v  0.0929 0.0074 -0.0000
v  0.0859 0.0074 -0.0356
v  0.0657 0.0074 -0.0657
v  0.0356 0.0074 -0.0859
v  -0.0000 0.0074 -0.0929
v  -0.0356 0.0074 -0.0859
v  -0.0657 0.0074 -0.0657
v  -0.0859 0.0074 -0.0356
v  -0.0929 0.0074 -0.0000
v  -0.0859 0.0074 0.0356
v  -0.0657 0.0074 0.0657
v  -0.0356 0.0074 0.0859
v  0.0000 0.0074 0.0929
v  0.0356 0.0074 0.0859
v  0.0657 0.0074 0.0657
v  0.0859 0.0074 0.0356
v  0.0812 0.0027 -0.0336
v  0.0878 0.0027 -0.0000
v  0.0582 0.0089 -0.0116
v  0.0621 0.0027 -0.0621
v  0.0330 0.0089 -0.0493
v  0.0336 0.0027 -0.0812
v  -0.0000 0.0027 -0.0878
v  -0.0116 0.0089 -0.0582
v  -0.0336 0.0027 -0.0812
v  -0.0621 0.0027 -0.0621
v  -0.0493 0.0089 -0.0330
v  -0.0812 0.0027 -0.0336
v  -0.0878 0.0027 -0.0000
v  -0.0582 0.0089 0.0116
v  -0.0812 0.0027 0.0336
v  -0.0621 0.0027 0.0621
v  -0.0330 0.0089 0.0493
v  -0.0336 0.0027 0.0812
v  0.0000 0.0027 0.0878
v  0.0116 0.0089 0.0582
v  0.0336 0.0027 0.0812
v  0.0621 0.0027 0.0621
v  0.0493 0.0089 0.0330
v  0.0812 0.0027 0.0336
v  0.0297 0.0023 0.0059
v  0.0000 0.0015 -0.0000
v  0.0251 0.0023 -0.0168
v  0.0059 0.0023 -0.0297
v  -0.0168 0.0023 -0.0251
v  -0.0297 0.0023 -0.0059
v  -0.0251 0.0023 0.0168
v  -0.0059 0.0023 0.0297
v  0.0168 0.0023 0.0251
v  0.1223 0.2854 -0.0507
v  0.1324 0.2854 0.0000
v  0.0936 0.2854 -0.0936
v  0.0507 0.2854 -0.1223
v  -0.0000 0.2854 -0.1324
v  -0.0507 0.2854 -0.1223
v  -0.0936 0.2854 -0.0936
v  -0.1223 0.2854 -0.0507
v  -0.1324 0.2854 -0.0000
v  -0.1223 0.2854 0.0507
v  -0.0936 0.2854 0.0936
v  -0.0507 0.2854 0.1223
v  0.0000 0.2854 0.1324
v  0.0507 0.2854 0.1223
v  0.0936 0.2854 0.0936
v  0.1223 0.2854 0.0507
v  0.0000 0.4309 -0.0000
# 162 vertices

vn 0.8960 -0.4440 -0.0000
vn 0.8278 -0.4440 -0.3429
vn 0.9238 0.0151 -0.3826
vn 0.9999 0.0151 -0.0000
vn 0.6336 -0.4440 -0.6336
vn 0.7070 0.0151 -0.7070
vn 0.3429 -0.4440 -0.8278
vn 0.3826 0.0151 -0.9238
vn 0.0000 -0.4440 -0.8960
vn -0.0000 0.0151 -0.9999
vn -0.3429 -0.4440 -0.8278
vn -0.3826 0.0151 -0.9238
vn -0.6336 -0.4440 -0.6336
vn -0.7070 0.0151 -0.7070
vn -0.8278 -0.4440 -0.3429
vn -0.9238 0.0151 -0.3826
vn -0.8960 -0.4440 -0.0000
vn -0.9999 0.0151 -0.0000
vn -0.8278 -0.4440 0.3429
vn -0.9238 0.0151 0.3826
vn -0.6336 -0.4440 0.6336
vn -0.7070 0.0151 0.7070
vn -0.3429 -0.4440 0.8278
vn -0.3826 0.0151 0.9238
vn 0.0000 -0.4440 0.8960
vn 0.0000 0.0151 0.9999
vn 0.3429 -0.4440 0.8278
vn 0.3826 0.0151 0.9238
vn 0.6336 -0.4440 0.6336
vn 0.7070 0.0151 0.7070
vn 0.8278 -0.4440 0.3429
vn 0.9238 0.0151 0.3826
vn 0.7703 0.5522 -0.3191
vn 0.7774 0.5403 -0.3220
vn 0.8415 0.5403 -0.0000
vn 0.8337 0.5522 -0.0000
vn 0.5895 0.5522 -0.5895
vn 0.5950 0.5403 -0.5950
vn 0.3191 0.5522 -0.7703
vn 0.3220 0.5403 -0.7774
vn -0.0000 0.5522 -0.8337
vn -0.0000 0.5403 -0.8415
vn -0.3191 0.5522 -0.7703
vn -0.3220 0.5403 -0.7774
vn -0.5895 0.5522 -0.5895
vn -0.5950 0.5403 -0.5950
vn -0.7703 0.5522 -0.3191
vn -0.7774 0.5403 -0.3220
vn -0.8337 0.5522 -0.0000
vn -0.8415 0.5403 -0.0000
vn -0.7703 0.5522 0.3191
vn -0.7774 0.5403 0.3220
vn -0.5895 0.5522 0.5895
vn -0.5950 0.5403 0.5950
vn -0.3191 0.5522 0.7703
vn -0.3220 0.5403 0.7774
vn 0.0000 0.5522 0.8337
vn 0.0000 0.5403 0.8415
vn 0.3191 0.5522 0.7703
vn 0.3220 0.5403 0.7774
vn 0.5895 0.5522 0.5895
vn 0.5950 0.5403 0.5950
vn 0.7703 0.5522 0.3191
vn 0.7774 0.5403 0.3220
vn 0.8897 0.2697 -0.3685
vn 0.9630 0.2697 -0.0000
vn 0.6809 0.2697 -0.6809
vn 0.3685 0.2697 -0.8897
vn -0.0000 0.2697 -0.9630
vn -0.3685 0.2697 -0.8897
vn -0.6809 0.2697 -0.6809
vn -0.8897 0.2697 -0.3685
vn -0.9630 0.2697 -0.0000
vn -0.8897 0.2697 0.3685
vn -0.6809 0.2697 0.6809
vn -0.3685 0.2697 0.8897
vn 0.0000 0.2697 0.9630
vn 0.3685 0.2697 0.8897
vn 0.6809 0.2697 0.6809
vn 0.8897 0.2697 0.3685
vn 0.6392 0.7220 -0.2648
vn 0.6919 0.7220 -0.0000
vn 0.4893 0.7220 -0.4893
vn 0.2648 0.7220 -0.6392
vn -0.0000 0.7220 -0.6919
vn -0.2648 0.7220 -0.6392
vn -0.4893 0.7220 -0.4893
vn -0.6392 0.7220 -0.2648
vn -0.6919 0.7220 -0.0000
vn -0.6392 0.7220 0.2648
vn -0.4893 0.7220 0.4893
vn -0.2648 0.7220 0.6392
vn 0.0000 0.7220 0.6919
vn 0.2648 0.7220 0.6392
vn 0.4893 0.7220 0.4893
vn 0.6392 0.7220 0.2648
vn 0.6775 -0.7355 -0.0000
vn 0.6260 -0.7355 -0.2593
vn 0.4791 -0.7355 -0.4791
vn 0.2593 -0.7355 -0.6260
vn -0.0000 -0.7355 -0.6775
vn -0.2593 -0.7355 -0.6260
vn -0.4791 -0.7355 -0.4791
vn -0.6260 -0.7355 -0.2593
vn -0.6775 -0.7355 -0.0000
vn -0.6260 -0.7355 0.2593
vn -0.4791 -0.7355 0.4791
vn -0.2593 -0.7355 0.6260
vn 0.0000 -0.7355 0.6775
vn 0.2593 -0.7355 0.6260
vn 0.4791 -0.7355 0.4791
vn 0.6260 -0.7355 0.2593
vn 0.2957 -0.9479 -0.1182
vn 0.3184 -0.9479 -0.0039
vn -0.0329 -0.9994 0.0065
vn 0.2224 -0.9479 -0.2279
vn -0.0186 -0.9994 0.0279
vn 0.1255 -0.9479 -0.2927
vn -0.0039 -0.9479 -0.3184
vn 0.0065 -0.9994 0.0329
vn -0.1182 -0.9479 -0.2957
vn -0.2279 -0.9479 -0.2224
vn 0.0279 -0.9994 0.0186
vn -0.2927 -0.9479 -0.1255
vn -0.3184 -0.9479 0.0039
vn 0.0329 -0.9994 -0.0065
vn -0.2957 -0.9479 0.1182
vn -0.2224 -0.9479 0.2279
vn 0.0186 -0.9994 -0.0279
vn -0.1255 -0.9479 0.2927
vn 0.0039 -0.9479 0.3184
vn -0.0065 -0.9994 -0.0329
vn 0.1182 -0.9479 0.2957
vn 0.2279 -0.9479 0.2224
vn -0.0279 -0.9994 -0.0186
vn 0.2927 -0.9479 0.1255
vn 0.1423 -0.9894 0.0283
vn 0.0000 -1.0000 -0.0000
vn 0.1206 -0.9894 -0.0806
vn 0.0283 -0.9894 -0.1423
vn -0.0806 -0.9894 -0.1206
vn -0.1423 -0.9894 -0.0283
vn -0.1206 -0.9894 0.0806
vn -0.0283 -0.9894 0.1423
vn 0.0806 -0.9894 0.1206
vn 0.8820 0.2975 -0.3654
vn 0.9547 0.2975 -0.0000
vn 0.6751 0.2975 -0.6751
vn 0.3654 0.2975 -0.8820
vn -0.0000 0.2975 -0.9547
vn -0.3654 0.2975 -0.8820
vn -0.6751 0.2975 -0.6751
vn -0.8820 0.2975 -0.3654
vn -0.9547 0.2975 -0.0000
vn -0.8820 0.2975 0.3654
vn -0.6751 0.2975 0.6751
vn -0.3654 0.2975 0.8820
vn 0.0000 0.2975 0.9547
vn 0.3654 0.2975 0.8820
vn 0.6751 0.2975 0.6751
vn 0.8820 0.2975 0.3654
vn 0.0000 1.0000 -0.0000
# 162 vertex normals

vt 0.9910 0.0732 0.0000
vt 0.9924 0.0837 0.0000
vt 0.9243 0.0876 0.0000
vt 0.9217 0.0771 0.0000
vt 0.9937 0.0943 0.0000
vt 0.9264 0.0977 0.0000
vt 0.9948 0.1051 0.0000
vt 0.9281 0.1078 0.0000
vt 0.9956 0.1161 0.0000
vt 0.9291 0.1177 0.0000
vt 0.9959 0.1271 0.0000
vt 0.9293 0.1277 0.0000
vt 0.9958 0.1381 0.0000
vt 0.9288 0.1376 0.0000
vt 0.9953 0.1490 0.0000
vt 0.9277 0.1475 0.0000
vt 0.9945 0.1599 0.0000
vt 0.9263 0.1576 0.0000
vt 0.9935 0.1706 0.0000
vt 0.9244 0.1679 0.0000
vt 0.9923 0.1811 0.0000
vt 0.9221 0.1785 0.0000
vt 0.9913 0.1915 0.0000
vt 0.9194 0.1894 0.0000
vt 0.9905 0.2016 0.0000
vt 0.9163 0.2009 0.0000
vt 0.9904 0.2117 0.0000
vt 0.9135 0.2132 0.0000
vt 0.9883 0.0431 0.0000
vt 0.9886 0.0529 0.0000
vt 0.9154 0.0547 0.0000
vt 0.9125 0.0423 0.0000
vt 0.9896 0.0630 0.0000
vt 0.9187 0.0662 0.0000
vt 0.9217 0.0882 0.0000
vt 0.8972 0.0987 0.0000
vt 0.8954 0.0917 0.0000
vt 0.9192 0.0780 0.0000
vt 0.9234 0.0983 0.0000
vt 0.8985 0.1059 0.0000
vt 0.9243 0.1082 0.0000
vt 0.8994 0.1132 0.0000
vt 0.9249 0.1180 0.0000
vt 0.8998 0.1205 0.0000
vt 0.9254 0.1277 0.0000
vt 0.9000 0.1279 0.0000
vt 0.9256 0.1374 0.0000
vt 0.8999 0.1353 0.0000
vt 0.9251 0.1472 0.0000
vt 0.8993 0.1426 0.0000
vt 0.9237 0.1571 0.0000
vt 0.8983 0.1498 0.0000
vt 0.9218 0.1671 0.0000
vt 0.8969 0.1569 0.0000
vt 0.9191 0.1774 0.0000
vt 0.8949 0.1637 0.0000
vt 0.9156 0.1878 0.0000
vt 0.8923 0.1702 0.0000
vt 0.9119 0.1987 0.0000
vt 0.8890 0.1760 0.0000
vt 0.9069 0.2097 0.0000
vt 0.8846 0.1807 0.0000
vt 0.9123 0.0564 0.0000
vt 0.8899 0.0792 0.0000
vt 0.8858 0.0746 0.0000
vt 0.9069 0.0454 0.0000
vt 0.9161 0.0673 0.0000
vt 0.8930 0.0851 0.0000
vt 0.8887 0.1028 0.0000
vt 0.8872 0.0970 0.0000
vt 0.8898 0.1088 0.0000
vt 0.8906 0.1150 0.0000
vt 0.8910 0.1214 0.0000
vt 0.8911 0.1278 0.0000
vt 0.8909 0.1342 0.0000
vt 0.8904 0.1405 0.0000
vt 0.8896 0.1467 0.0000
vt 0.8883 0.1526 0.0000
vt 0.8866 0.1583 0.0000
vt 0.8845 0.1635 0.0000
vt 0.8819 0.1681 0.0000
vt 0.8788 0.1720 0.0000
vt 0.8827 0.0870 0.0000
vt 0.8796 0.0831 0.0000
vt 0.8852 0.0917 0.0000
vt 0.8742 0.1079 0.0000
vt 0.8730 0.1034 0.0000
vt 0.8751 0.1126 0.0000
vt 0.8758 0.1175 0.0000
vt 0.8761 0.1225 0.0000
vt 0.8762 0.1276 0.0000
vt 0.8760 0.1327 0.0000
vt 0.8756 0.1377 0.0000
vt 0.8749 0.1426 0.0000
vt 0.8739 0.1473 0.0000
vt 0.8726 0.1517 0.0000
vt 0.8709 0.1558 0.0000
vt 0.8689 0.1596 0.0000
vt 0.8665 0.1631 0.0000
vt 0.8693 0.0955 0.0000
vt 0.8669 0.0918 0.0000
vt 0.8713 0.0993 0.0000
vt 0.9927 0.0730 0.0000
vt 0.9942 0.0835 0.0000
vt 0.9955 0.0942 0.0000
vt 0.9966 0.1050 0.0000
vt 0.9973 0.1160 0.0000
vt 0.9977 0.1271 0.0000
vt 0.9976 0.1381 0.0000
vt 0.9971 0.1491 0.0000
vt 0.9963 0.1600 0.0000
vt 0.9952 0.1707 0.0000
vt 0.9941 0.1813 0.0000
vt 0.9931 0.1916 0.0000
vt 0.9923 0.2017 0.0000
vt 0.9923 0.2113 0.0000
vt 0.9901 0.0433 0.0000
vt 0.9903 0.0529 0.0000
vt 0.9913 0.0628 0.0000
vt 0.7504 0.2630 0.0000
vt 0.7489 0.2568 0.0000
vt 0.7545 0.2587 0.0000
vt 0.7542 0.2681 0.0000
vt 0.7596 0.2654 0.0000
vt 0.7597 0.2714 0.0000
vt 0.7660 0.2723 0.0000
vt 0.7679 0.2667 0.0000
vt 0.7722 0.2708 0.0000
vt 0.7773 0.2670 0.0000
vt 0.7746 0.2616 0.0000
vt 0.7806 0.2615 0.0000
vt 0.7815 0.2552 0.0000
vt 0.7758 0.2533 0.0000
vt 0.7799 0.2490 0.0000
vt 0.7761 0.2439 0.0000
vt 0.7708 0.2466 0.0000
vt 0.7707 0.2406 0.0000
vt 0.7644 0.2397 0.0000
vt 0.7625 0.2454 0.0000
vt 0.7582 0.2413 0.0000
vt 0.7531 0.2451 0.0000
vt 0.7558 0.2504 0.0000
vt 0.7498 0.2505 0.0000
vt 0.7597 0.2552 0.0000
vt 0.7652 0.2560 0.0000
vt 0.7608 0.2593 0.0000
vt 0.7644 0.2615 0.0000
vt 0.7685 0.2604 0.0000
vt 0.7706 0.2568 0.0000
vt 0.7696 0.2527 0.0000
vt 0.7660 0.2506 0.0000
vt 0.7619 0.2516 0.0000
vt 0.9945 0.0728 0.0000
vt 0.9959 0.0833 0.0000
vt 0.9973 0.0940 0.0000
vt 0.9984 0.1049 0.0000
vt 0.9991 0.1159 0.0000
vt 0.9994 0.1271 0.0000
vt 0.9993 0.1382 0.0000
vt 0.9988 0.1492 0.0000
vt 0.9980 0.1601 0.0000
vt 0.9970 0.1709 0.0000
vt 0.9959 0.1814 0.0000
vt 0.9948 0.1917 0.0000
vt 0.9941 0.2017 0.0000
vt 0.9940 0.2110 0.0000
vt 0.9919 0.0436 0.0000
vt 0.9921 0.0528 0.0000
vt 0.9931 0.0626 0.0000
vt 0.9230 0.0879 0.0000
vt 0.9204 0.0775 0.0000
vt 0.9249 0.0980 0.0000
vt 0.9262 0.1080 0.0000
vt 0.9270 0.1179 0.0000
vt 0.9274 0.1277 0.0000
vt 0.9272 0.1375 0.0000
vt 0.9264 0.1473 0.0000
vt 0.9250 0.1573 0.0000
vt 0.9231 0.1675 0.0000
vt 0.9206 0.1779 0.0000
vt 0.9175 0.1886 0.0000
vt 0.9141 0.1998 0.0000
vt 0.9102 0.2115 0.0000
vt 0.9138 0.0555 0.0000
vt 0.9097 0.0438 0.0000
vt 0.9174 0.0668 0.0000
vt 0.8728 0.1276 0.0000
# 187 texture coords

o PSNA_LiquorBottle01_Liquid
g PSNA_LiquorBottle01_Liquid
usemtl PSNA_LiquorBottle01_Label
s 1
f 266/296/263 267/297/264 268/298/265 269/299/266 
f 267/297/264 270/300/267 271/301/268 268/298/265 
f 270/300/267 272/302/269 273/303/270 271/301/268 
f 272/302/269 274/304/271 275/305/272 273/303/270 
f 274/304/271 276/306/273 277/307/274 275/305/272 
f 276/306/273 278/308/275 279/309/276 277/307/274 
f 278/308/275 280/310/277 281/311/278 279/309/276 
f 280/310/277 282/312/279 283/313/280 281/311/278 
f 282/312/279 284/314/281 285/315/282 283/313/280 
f 284/314/281 286/316/283 287/317/284 285/315/282 
f 286/316/283 288/318/285 289/319/286 287/317/284 
f 288/318/285 290/320/287 291/321/288 289/319/286 
f 290/320/287 292/322/289 293/323/290 291/321/288 
f 292/324/289 294/325/291 295/326/292 293/327/290 
f 294/325/291 296/328/293 297/329/294 295/326/292 
f 296/328/293 266/296/263 269/299/266 297/329/294 
f 298/330/295 299/331/296 300/332/297 301/333/298 
f 302/334/299 303/335/300 299/331/296 298/330/295 
f 304/336/301 305/337/302 303/335/300 302/334/299 
f 306/338/303 307/339/304 305/337/302 304/336/301 
f 308/340/305 309/341/306 307/339/304 306/338/303 
f 310/342/307 311/343/308 309/341/306 308/340/305 
f 312/344/309 313/345/310 311/343/308 310/342/307 
f 314/346/311 315/347/312 313/345/310 312/344/309 
f 316/348/313 317/349/314 315/347/312 314/346/311 
f 318/350/315 319/351/316 317/349/314 316/348/313 
f 320/352/317 321/353/318 319/351/316 318/350/315 
f 322/354/319 323/355/320 321/353/318 320/352/317 
f 324/356/321 325/357/322 323/355/320 322/354/319 
f 326/358/323 327/359/324 325/360/322 324/361/321 
f 328/362/325 329/363/326 327/359/324 326/358/323 
f 301/333/298 300/332/297 329/363/326 328/362/325 
f 299/331/296 330/364/327 331/365/328 300/332/297 
f 303/335/300 332/366/329 330/364/327 299/331/296 
f 305/337/302 333/367/330 332/366/329 303/335/300 
f 307/339/304 334/368/331 333/367/330 305/337/302 
f 309/341/306 335/369/332 334/368/331 307/339/304 
f 311/343/308 336/370/333 335/369/332 309/341/306 
f 313/345/310 337/371/334 336/370/333 311/343/308 
f 315/347/312 338/372/335 337/371/334 313/345/310 
f 317/349/314 339/373/336 338/372/335 315/347/312 
f 319/351/316 340/374/337 339/373/336 317/349/314 
f 321/353/318 341/375/338 340/374/337 319/351/316 
f 323/355/320 342/376/339 341/375/338 321/353/318 
f 325/357/322 343/377/340 342/376/339 323/355/320 
f 327/359/324 344/378/341 343/379/340 325/360/322 
f 329/363/326 345/380/342 344/378/341 327/359/324 
f 300/332/297 331/365/328 345/380/342 329/363/326 
f 330/364/327 346/381/343 347/382/344 331/365/328 
f 332/366/329 348/383/345 346/381/343 330/364/327 
f 333/367/330 349/384/346 348/383/345 332/366/329 
f 334/368/331 350/385/347 349/384/346 333/367/330 
f 335/369/332 351/386/348 350/385/347 334/368/331 
f 336/370/333 352/387/349 351/386/348 335/369/332 
f 337/371/334 353/388/350 352/387/349 336/370/333 
f 338/372/335 354/389/351 353/388/350 337/371/334 
f 339/373/336 355/390/352 354/389/351 338/372/335 
f 340/374/337 356/391/353 355/390/352 339/373/336 
f 341/375/338 357/392/354 356/391/353 340/374/337 
f 342/376/339 358/393/355 357/392/354 341/375/338 
f 343/377/340 359/394/356 358/393/355 342/376/339 
f 344/378/341 360/395/357 359/396/356 343/379/340 
f 345/380/342 361/397/358 360/395/357 344/378/341 
f 331/365/328 347/382/344 361/397/358 345/380/342 
f 267/297/264 266/296/263 362/398/359 363/399/360 
f 270/300/267 267/297/264 363/399/360 364/400/361 
f 272/302/269 270/300/267 364/400/361 365/401/362 
f 274/304/271 272/302/269 365/401/362 366/402/363 
f 276/306/273 274/304/271 366/402/363 367/403/364 
f 278/308/275 276/306/273 367/403/364 368/404/365 
f 280/310/277 278/308/275 368/404/365 369/405/366 
f 282/312/279 280/310/277 369/405/366 370/406/367 
f 284/314/281 282/312/279 370/406/367 371/407/368 
f 286/316/283 284/314/281 371/407/368 372/408/369 
f 288/318/285 286/316/283 372/408/369 373/409/370 
f 290/320/287 288/318/285 373/409/370 374/410/371 
f 292/322/289 290/320/287 374/410/371 375/411/372 
f 294/325/291 292/324/289 375/412/372 376/413/373 
f 296/328/293 294/325/291 376/413/373 377/414/374 
f 266/296/263 296/328/293 377/414/374 362/398/359 
f 378/415/375 379/416/376 380/417/377 
f 381/418/378 378/415/375 380/417/377 382/419/379 
f 383/420/380 381/418/378 382/419/379 
f 384/421/381 383/420/380 382/419/379 385/422/382 
f 386/423/383 384/421/381 385/422/382 
f 387/424/384 386/423/383 385/422/382 388/425/385 
f 389/426/386 387/424/384 388/425/385 
f 390/427/387 389/426/386 388/425/385 391/428/388 
f 392/429/389 390/427/387 391/428/388 
f 393/430/390 392/429/389 391/428/388 394/431/391 
f 395/432/392 393/430/390 394/431/391 
f 396/433/393 395/432/392 394/431/391 397/434/394 
f 398/435/395 396/433/393 397/434/394 
f 399/436/396 398/435/395 397/434/394 400/437/397 
f 401/438/398 399/436/396 400/437/397 
f 379/416/376 401/438/398 400/437/397 380/417/377 
f 402/439/399 403/440/400 404/441/401 
f 404/441/401 403/440/400 405/442/402 
f 405/442/402 403/440/400 406/443/403 
f 406/443/403 403/440/400 407/444/404 
f 407/444/404 403/440/400 408/445/405 
f 408/445/405 403/440/400 409/446/406 
f 409/446/406 403/440/400 410/447/407 
f 410/447/407 403/440/400 402/439/399 
f 380/417/377 402/439/399 404/441/401 
f 382/419/379 380/417/377 404/441/401 
f 382/419/379 404/441/401 405/442/402 
f 385/422/382 382/419/379 405/442/402 
f 385/422/382 405/442/402 406/443/403 
f 388/425/385 385/422/382 406/443/403 
f 388/425/385 406/443/403 407/444/404 
f 391/428/388 388/425/385 407/444/404 
f 391/428/388 407/444/404 408/445/405 
f 394/431/391 391/428/388 408/445/405 
f 394/431/391 408/445/405 409/446/406 
f 397/434/394 394/431/391 409/446/406 
f 397/434/394 409/446/406 410/447/407 
f 400/437/397 397/434/394 410/447/407 
f 400/437/397 410/447/407 402/439/399 
f 380/417/377 400/437/397 402/439/399 
f 362/398/359 379/448/376 378/449/375 363/399/360 
f 363/399/360 378/449/375 381/450/378 364/400/361 
f 364/400/361 381/450/378 383/451/380 365/401/362 
f 365/401/362 383/451/380 384/452/381 366/402/363 
f 366/402/363 384/452/381 386/453/383 367/403/364 
f 367/403/364 386/453/383 387/454/384 368/404/365 
f 368/404/365 387/454/384 389/455/386 369/405/366 
f 369/405/366 389/455/386 390/456/387 370/406/367 
f 370/406/367 390/456/387 392/457/389 371/407/368 
f 371/407/368 392/457/389 393/458/390 372/408/369 
f 372/408/369 393/458/390 395/459/392 373/409/370 
f 373/409/370 395/459/392 396/460/393 374/410/371 
f 374/410/371 396/460/393 398/461/395 375/411/372 
f 375/412/372 398/462/395 399/463/396 376/413/373 
f 376/413/373 399/463/396 401/464/398 377/414/374 
f 377/414/374 401/464/398 379/448/376 362/398/359 
f 269/299/266 268/298/265 411/465/408 412/466/409 
f 268/298/265 271/301/268 413/467/410 411/465/408 
f 271/301/268 273/303/270 414/468/411 413/467/410 
f 273/303/270 275/305/272 415/469/412 414/468/411 
f 275/305/272 277/307/274 416/470/413 415/469/412 
f 277/307/274 279/309/276 417/471/414 416/470/413 
f 279/309/276 281/311/278 418/472/415 417/471/414 
f 281/311/278 283/313/280 419/473/416 418/472/415 
f 283/313/280 285/315/282 420/474/417 419/473/416 
f 285/315/282 287/317/284 421/475/418 420/474/417 
f 287/317/284 289/319/286 422/476/419 421/475/418 
f 289/319/286 291/321/288 423/477/420 422/476/419 
f 291/321/288 293/323/290 424/478/421 423/477/420 
f 293/327/290 295/326/292 425/479/422 424/480/421 
f 295/326/292 297/329/294 426/481/423 425/479/422 
f 297/329/294 269/299/266 412/466/409 426/481/423 
f 411/465/408 298/330/295 301/333/298 412/466/409 
f 413/467/410 302/334/299 298/330/295 411/465/408 
f 414/468/411 304/336/301 302/334/299 413/467/410 
f 415/469/412 306/338/303 304/336/301 414/468/411 
f 416/470/413 308/340/305 306/338/303 415/469/412 
f 417/471/414 310/342/307 308/340/305 416/470/413 
f 418/472/415 312/344/309 310/342/307 417/471/414 
f 419/473/416 314/346/311 312/344/309 418/472/415 
f 420/474/417 316/348/313 314/346/311 419/473/416 
f 421/475/418 318/350/315 316/348/313 420/474/417 
f 422/476/419 320/352/317 318/350/315 421/475/418 
f 423/477/420 322/354/319 320/352/317 422/476/419 
f 424/478/421 324/356/321 322/354/319 423/477/420 
f 425/479/422 326/358/323 324/361/321 424/480/421 
f 426/481/423 328/362/325 326/358/323 425/479/422 
f 412/466/409 301/333/298 328/362/325 426/481/423 
s 2
f 347/382/344 346/381/343 427/482/424 
f 346/381/343 348/383/345 427/482/424 
f 348/383/345 349/384/346 427/482/424 
f 349/384/346 350/385/347 427/482/424 
f 350/385/347 351/386/348 427/482/424 
f 351/386/348 352/387/349 427/482/424 
f 352/387/349 353/388/350 427/482/424 
f 353/388/350 354/389/351 427/482/424 
f 354/389/351 355/390/352 427/482/424 
f 355/390/352 356/391/353 427/482/424 
f 356/391/353 357/392/354 427/482/424 
f 357/392/354 358/393/355 427/482/424 
f 358/393/355 359/394/356 427/482/424 
f 359/396/356 360/395/357 427/482/424 
f 360/395/357 361/397/358 427/482/424 
f 361/397/358 347/382/344 427/482/424 
# 136 polygons - 48 triangles

