# 3ds Max Wavefront OBJ Exporter v0.99 - (c)2007 guruware
# File Created: 14.01.2026 03:12:38

mtllib PSNA_Pocker01.mtl

#
# object PSNA_Pocker01
#

v  -0.0623 -0.0003 0.0309
v  0.0627 -0.0003 0.0309
v  0.0627 0.2119 0.0309
v  -0.0623 0.2119 0.0309
v  0.0627 -0.0003 -0.0309
v  0.0627 0.2119 -0.0309
v  -0.0623 -0.0003 -0.0309
v  -0.0623 0.2119 -0.0309
v  0.0000 -0.0003 -0.0000
v  -0.0592 0.0482 -0.0288
v  0.0592 0.0480 -0.0288
v  0.0596 0.2596 -0.0288
v  -0.0587 0.2599 -0.0288
v  -0.0592 0.0482 -0.0299
v  -0.0587 0.2599 -0.0299
v  0.0596 0.2596 -0.0299
v  0.0592 0.0480 -0.0299
# 17 vertices

vn -0.5774 -0.5774 0.5774
vn 0.5774 -0.5774 0.5774
vn 0.5774 0.5774 0.5774
vn -0.5774 0.5774 0.5774
vn 0.5774 -0.5774 -0.5774
vn 0.5774 0.5774 -0.5774
vn -0.5774 -0.5774 -0.5774
vn -0.5774 0.5774 -0.5774
vn -0.0000 -1.0000 -0.0000
vn -0.5785 -0.5762 0.5774
vn 0.5761 -0.5784 0.5775
vn 0.5785 0.5762 0.5774
vn -0.5761 0.5784 0.5775
vn -0.5785 -0.5762 -0.5774
vn -0.5761 0.5784 -0.5775
vn 0.5785 0.5762 -0.5774
vn 0.5761 -0.5784 -0.5775
# 17 vertex normals

vt 0.1156 0.4991 0.0000
vt 0.3399 0.5009 0.0000
vt 0.3367 0.8876 0.0000
vt 0.1124 0.8857 0.0000
vt 0.4523 0.5019 0.0000
vt 0.4491 0.8885 0.0000
vt 0.3408 0.3885 0.0000
vt 0.1165 0.3866 0.0000
vt 0.1197 0.0000 0.0000
vt 0.3440 0.0019 0.0000
vt 0.0032 0.4981 0.0000
vt 0.0000 0.8848 0.0000
vt 0.3357 1.0000 0.0000
vt 0.1115 0.9981 0.0000
vt 0.2282 0.4438 0.0000
vt 0.4575 0.6212 0.0000
vt 0.6579 0.6212 0.0000
vt 0.6579 0.9931 0.0000
vt 0.4575 0.9931 0.0000
vt 0.3482 0.0032 0.0000
vt 0.3482 0.3751 0.0000
vt 0.5485 0.3751 0.0000
vt 0.5485 0.0032 0.0000
# 23 texture coords

o PSNA_Pocker01
g PSNA_Pocker01
usemtl PSNA_Cigarette01
s 8
f 1/1/1 2/2/2 3/3/3 4/4/4 
s 16
f 2/2/2 5/5/5 6/6/6 3/3/3 
s 32
f 5/7/5 7/8/7 8/9/8 6/10/6 
s 64
f 7/11/7 1/1/1 4/4/4 8/12/8 
s off
f 3/3/3 6/13/6 8/14/8 4/4/4 
f 1/1/1 7/8/7 9/15/9 
f 7/8/7 5/7/5 9/15/9 
f 5/7/5 2/2/2 9/15/9 
f 2/2/2 1/1/1 9/15/9 
s 8
f 10/16/10 11/17/11 12/18/12 13/19/13 
f 14/20/14 15/21/15 16/22/16 17/23/17 
s off
f 16/18/16 15/19/15 13/19/13 12/18/12 
f 17/17/17 16/18/16 12/18/12 11/17/11 
f 15/19/15 14/16/14 10/16/10 13/19/13 
f 14/16/14 17/17/17 11/17/11 10/16/10 
# 11 polygons - 4 triangles

