# 3ds Max Wavefront OBJ Exporter v0.99 - (c)2007 guruware
# File Created: 14.01.2026 13:11:24

mtllib PSNA_BundleOfBill01.mtl

#
# object PSNA_BundleOfBill01
#

v  -0.0577 0.0288 0.1427
v  0.0634 0.0288 0.1427
v  0.0634 0.0288 -0.1422
v  -0.0577 0.0288 -0.1422
v  -0.0577 0.0000 0.1427
v  -0.0577 0.0000 -0.1422
v  0.0634 0.0000 -0.1422
v  0.0634 0.0000 0.1427
v  -0.0577 0.0422 0.1427
v  0.0634 0.0422 0.1427
v  0.0634 0.0371 0.1249
v  -0.0577 0.0371 0.1249
v  -0.0577 0.0415 0.1427
v  -0.0577 0.0363 0.1249
v  0.0634 0.0363 0.1249
v  0.0634 0.0415 0.1427
v  0.0634 0.0412 -0.1422
v  0.0634 0.0405 -0.1422
v  -0.0577 0.0405 -0.1422
v  -0.0577 0.0412 -0.1422
v  -0.0577 0.0368 -0.1261
v  -0.0577 0.0376 -0.1261
v  0.0634 0.0312 0.0002
v  0.0634 0.0312 -0.0710
v  -0.0577 0.0312 -0.0710
v  -0.0577 0.0312 0.0002
v  -0.0577 0.0305 0.0002
v  -0.0577 0.0305 -0.0710
v  0.0634 0.0305 -0.0710
v  0.0634 0.0305 0.0002
v  -0.0577 0.0305 0.0715
v  -0.0577 0.0312 0.0715
v  0.0634 0.0312 0.0715
v  0.0634 0.0305 0.0715
v  0.0634 0.0337 -0.1066
v  -0.0577 0.0337 -0.1066
v  -0.0577 0.0330 -0.1066
v  0.0634 0.0330 -0.1066
v  -0.0577 0.0329 0.1071
v  -0.0577 0.0336 0.1071
v  0.0634 0.0336 0.1071
v  0.0634 0.0329 0.1071
v  0.0634 0.0376 -0.1261
v  0.0634 0.0368 -0.1261
v  -0.0577 0.0393 0.1427
v  0.0634 0.0393 0.1427
v  0.0634 0.0353 0.1249
v  -0.0577 0.0353 0.1249
v  -0.0577 0.0386 0.1427
v  -0.0577 0.0346 0.1249
v  0.0634 0.0346 0.1249
v  0.0634 0.0386 0.1427
v  0.0634 0.0393 -0.1422
v  0.0634 0.0386 -0.1422
v  -0.0577 0.0386 -0.1422
v  -0.0577 0.0393 -0.1422
v  -0.0577 0.0336 -0.1261
v  -0.0577 0.0343 -0.1261
v  0.0634 0.0304 0.0002
v  0.0634 0.0293 -0.0710
v  -0.0577 0.0304 -0.0710
v  -0.0577 0.0304 0.0002
v  -0.0577 0.0297 0.0002
v  -0.0577 0.0297 -0.0710
v  0.0634 0.0286 -0.0710
v  0.0634 0.0297 0.0002
v  -0.0577 0.0297 0.0715
v  -0.0577 0.0304 0.0715
v  0.0634 0.0304 0.0715
v  0.0634 0.0297 0.0715
v  0.0634 0.0318 -0.1066
v  -0.0577 0.0318 -0.1066
v  -0.0577 0.0311 -0.1066
v  0.0634 0.0311 -0.1066
v  -0.0577 0.0311 0.1071
v  -0.0577 0.0319 0.1071
v  0.0634 0.0319 0.1071
v  0.0634 0.0311 0.1071
v  0.0634 0.0343 -0.1261
v  0.0634 0.0336 -0.1261
v  -0.0577 0.0365 0.1427
v  0.0634 0.0365 0.1427
v  0.0634 0.0318 0.1249
v  -0.0577 0.0318 0.1249
v  -0.0577 0.0358 0.1427
v  -0.0577 0.0311 0.1249
v  0.0634 0.0311 0.1249
v  0.0634 0.0358 0.1427
v  0.0634 0.0351 -0.1422
v  0.0634 0.0343 -0.1422
v  -0.0577 0.0343 -0.1422
v  -0.0577 0.0351 -0.1422
v  -0.0577 0.0310 -0.1261
v  -0.0577 0.0317 -0.1261
v  0.0634 0.0296 0.0002
v  0.0634 0.0296 -0.0710
v  -0.0577 0.0296 -0.0710
v  -0.0577 0.0296 0.0002
v  -0.0577 0.0289 0.0002
v  -0.0577 0.0289 -0.0710
v  0.0634 0.0289 -0.0710
v  0.0634 0.0289 0.0002
v  -0.0577 0.0289 0.0715
v  -0.0577 0.0296 0.0715
v  0.0634 0.0296 0.0715
v  0.0634 0.0289 0.0715
v  0.0634 0.0297 -0.1066
v  -0.0577 0.0297 -0.1066
v  -0.0577 0.0290 -0.1066
v  0.0634 0.0290 -0.1066
v  -0.0577 0.0293 0.1071
v  -0.0577 0.0300 0.1071
v  0.0634 0.0300 0.1071
v  0.0634 0.0293 0.1071
v  0.0634 0.0317 -0.1261
v  0.0634 0.0310 -0.1261
v  -0.0583 0.0318 0.0145
v  0.0639 0.0318 0.0145
v  0.0639 0.0318 -0.0140
v  -0.0583 0.0318 -0.0140
v  -0.0583 -0.0007 0.0145
v  -0.0583 -0.0007 -0.0140
v  0.0639 -0.0007 -0.0140
v  0.0639 -0.0007 0.0145
# 124 vertices

vn -0.5774 0.5774 0.5774
vn 0.5774 0.5774 0.5774
vn 0.5774 0.5774 -0.5774
vn -0.5774 0.5774 -0.5774
vn -0.5774 -0.5774 0.5774
vn -0.5774 -0.5774 -0.5774
vn 0.5774 -0.5774 -0.5774
vn 0.5774 -0.5774 0.5774
vn -0.5640 0.6599 0.4965
vn 0.5640 0.6599 0.4965
vn 0.7171 0.6775 -0.1635
vn -0.7171 0.6775 -0.1635
vn -0.5936 -0.4839 0.6431
vn -0.6974 -0.6967 0.1682
vn 0.6974 -0.6967 0.1682
vn 0.5936 -0.4839 0.6431
vn 0.5665 0.6441 -0.5141
vn 0.5900 -0.5037 -0.6310
vn -0.5900 -0.5037 -0.6310
vn -0.5665 0.6441 -0.5141
vn -0.7038 -0.6950 -0.1472
vn -0.7104 0.6885 0.1459
vn 0.7071 0.7071 -0.0000
vn 0.7151 0.6986 0.0245
vn -0.7151 0.6986 0.0245
vn -0.7071 0.7071 -0.0000
vn -0.7071 -0.7071 -0.0000
vn -0.6993 -0.7144 -0.0250
vn 0.6993 -0.7144 -0.0250
vn 0.7071 -0.7071 -0.0000
vn -0.6998 -0.7139 0.0235
vn -0.7146 0.6991 -0.0230
vn 0.7146 0.6991 -0.0230
vn 0.6998 -0.7139 0.0235
vn 0.7213 0.6866 0.0912
vn -0.7213 0.6866 0.0912
vn -0.6934 -0.7143 -0.0948
vn 0.6934 -0.7143 -0.0948
vn -0.6932 -0.7147 0.0930
vn -0.7217 0.6864 -0.0893
vn 0.7217 0.6864 -0.0893
vn 0.6932 -0.7147 0.0930
vn 0.7104 0.6885 0.1459
vn 0.7038 -0.6950 -0.1472
vn -0.5667 0.6427 0.5155
vn 0.5667 0.6427 0.5155
vn 0.7100 0.6893 -0.1440
vn -0.7100 0.6893 -0.1440
vn -0.5897 -0.5053 0.6300
vn -0.7042 -0.6950 0.1451
vn 0.7042 -0.6950 0.1451
vn 0.5897 -0.5053 0.6300
vn 0.5632 0.6650 -0.4905
vn 0.5948 -0.4772 -0.6469
vn -0.5948 -0.4772 -0.6469
vn -0.5632 0.6650 -0.4905
vn -0.6884 -0.7088 -0.1541
vn -0.7269 0.6711 0.1459
vn 0.7053 0.7088 -0.0056
vn 0.7201 0.6936 0.0188
vn -0.7082 0.7059 0.0137
vn -0.7060 -0.7081 -0.0137
vn 0.6943 -0.7194 -0.0195
vn 0.7089 -0.7053 0.0055
vn -0.7026 -0.7114 0.0143
vn -0.7117 0.7024 -0.0141
vn 0.7117 0.7024 -0.0141
vn 0.7026 -0.7114 0.0143
vn 0.7137 0.6970 0.0694
vn -0.7174 0.6942 0.0582
vn -0.6972 -0.7144 -0.0599
vn 0.7006 -0.7101 -0.0707
vn -0.6904 -0.7185 0.0842
vn -0.7247 0.6844 -0.0802
vn 0.7247 0.6844 -0.0802
vn 0.6904 -0.7185 0.0842
vn 0.7269 0.6711 0.1459
vn 0.6884 -0.7088 -0.1541
vn -0.5649 0.6543 0.5028
vn 0.5649 0.6543 0.5028
vn 0.7255 0.6770 -0.1236
vn -0.7255 0.6770 -0.1236
vn -0.5923 -0.4909 0.6389
vn -0.6896 -0.7124 0.1301
vn 0.6896 -0.7124 0.1301
vn 0.5923 -0.4909 0.6389
vn 0.5674 0.6389 -0.5196
vn 0.5890 -0.5098 -0.6271
vn -0.5890 -0.5098 -0.6271
vn -0.5674 0.6389 -0.5196
vn -0.6957 -0.7099 -0.1098
vn -0.7190 0.6868 0.1063
vn 0.7074 0.7068 0.0010
vn -0.7074 0.7068 0.0010
vn -0.7068 -0.7074 -0.0010
vn 0.7068 -0.7074 -0.0010
vn -0.7060 -0.7083 0.0036
vn -0.7083 0.7059 -0.0036
vn 0.7083 0.7059 -0.0036
vn 0.7060 -0.7083 0.0036
vn 0.7184 0.6947 0.0363
vn -0.7184 0.6947 0.0363
vn -0.6962 -0.7169 -0.0375
vn 0.6962 -0.7169 -0.0375
vn -0.6971 -0.7159 0.0398
vn -0.7174 0.6956 -0.0387
vn 0.7174 0.6956 -0.0387
vn 0.6971 -0.7159 0.0398
vn 0.7190 0.6868 0.1063
vn 0.6957 -0.7099 -0.1098
# 110 vertex normals

vt 0.7876 0.0007 0.0000
vt 0.9996 0.0007 0.0000
vt 0.9996 0.4997 0.0000
vt 0.7876 0.4997 0.0000
vt 0.7873 0.3482 0.0000
vt 0.7683 0.3482 0.0000
vt 0.7683 0.2143 0.0000
vt 0.7873 0.2143 0.0000
vt 0.7683 0.0803 0.0000
vt 0.7873 0.0803 0.0000
vt 0.7683 0.0004 0.0000
vt 0.7873 0.0004 0.0000
vt 0.7873 0.5002 0.0000
vt 0.7683 0.5002 0.0000
vt 0.9997 0.9981 0.0000
vt 0.7876 0.9981 0.0000
vt 0.7876 0.9661 0.0000
vt 0.9997 0.9661 0.0000
vt 0.9996 0.0329 0.0000
vt 0.7876 0.0329 0.0000
vt 0.9997 0.9996 0.0000
vt 0.7876 0.9996 0.0000
vt 0.7876 0.5018 0.0000
vt 0.7876 0.5006 0.0000
vt 0.9997 0.5006 0.0000
vt 0.9997 0.5018 0.0000
vt 0.9997 0.5024 0.0000
vt 0.9997 0.5311 0.0000
vt 0.7876 0.7500 0.0000
vt 0.7876 0.6268 0.0000
vt 0.9997 0.6268 0.0000
vt 0.9997 0.7500 0.0000
vt 0.9996 0.2503 0.0000
vt 0.9996 0.3742 0.0000
vt 0.7876 0.3742 0.0000
vt 0.7876 0.2503 0.0000
vt 0.9997 0.8731 0.0000
vt 0.7876 0.8731 0.0000
vt 0.9996 0.1265 0.0000
vt 0.7876 0.1265 0.0000
vt 0.7876 0.5651 0.0000
vt 0.9997 0.5651 0.0000
vt 0.9996 0.4362 0.0000
vt 0.7876 0.4362 0.0000
vt 0.9997 0.9348 0.0000
vt 0.7876 0.9348 0.0000
vt 0.9996 0.0645 0.0000
vt 0.7876 0.0645 0.0000
vt 0.7876 0.5311 0.0000
vt 0.9996 0.4704 0.0000
vt 0.7876 0.4704 0.0000
vt 0.7876 0.5020 0.0000
vt 0.7865 0.7047 0.0000
vt 0.7865 0.8654 0.0000
vt 0.7686 0.8654 0.0000
vt 0.7686 0.7047 0.0000
vt 0.7865 0.6619 0.0000
vt 0.7686 0.6619 0.0000
vt 0.7686 0.5012 0.0000
vt 0.7865 0.5012 0.0000
vt 0.7865 0.9082 0.0000
vt 0.7686 0.9082 0.0000
# 62 texture coords

o PSNA_BundleOfBill01
g PSNA_BundleOfBill01
usemtl PSNA_BundleOfBill01
s 1
f 1/1/1 2/2/2 3/3/3 4/4/4 
f 5/3/5 6/2/6 7/1/7 8/4/8 
s 2
f 1/5/1 5/6/5 8/7/8 2/8/2 
s 4
f 2/8/2 8/7/8 7/9/7 3/10/3 
s 2
f 3/10/3 7/9/7 6/11/6 4/12/4 
s 4
f 4/13/4 6/14/6 5/6/5 1/5/1 
s 1
f 9/15/9 10/16/10 11/17/11 12/18/12 
f 13/2/13 14/19/14 15/20/15 16/1/16 
s 2
f 9/15/9 13/21/13 16/22/16 10/16/10 
s 4
f 10/16/10 16/16/16 15/17/15 11/17/11 
s 2
f 17/23/17 18/24/18 19/25/19 20/26/20 
s 4
f 20/26/20 19/27/19 21/28/21 22/28/22 
s 1
f 23/29/23 24/30/24 25/31/25 26/32/26 
f 27/33/27 28/34/28 29/35/29 30/36/30 
s 4
f 30/29/30 29/30/29 24/30/24 23/29/23 
f 27/32/27 31/37/31 32/37/32 26/32/26 
s 1
f 33/38/33 23/29/23 26/32/26 32/37/32 
f 31/39/31 27/33/27 30/36/30 34/40/34 
s 4
f 34/38/34 30/29/30 23/29/23 33/38/33 
f 28/31/28 27/32/27 26/32/26 25/31/25 
s 1
f 24/30/24 35/41/35 36/42/36 25/31/25 
f 28/34/28 37/43/37 38/44/38 29/35/29 
s 4
f 29/30/29 38/41/38 35/41/35 24/30/24 
f 31/37/31 39/45/39 40/45/40 32/37/32 
s 1
f 41/46/41 33/38/33 32/37/32 40/45/40 
f 39/47/39 31/39/31 34/40/34 42/48/42 
s 4
f 42/46/42 34/38/34 33/38/33 41/46/41 
f 37/42/37 28/31/28 25/31/25 36/42/36 
s 1
f 35/41/35 43/49/43 22/28/22 36/42/36 
f 37/43/37 21/50/21 44/51/44 38/44/38 
s 4
f 38/41/38 44/49/44 43/49/43 35/41/35 
f 39/45/39 14/18/14 12/18/12 40/45/40 
s 1
f 11/17/11 41/46/41 40/45/40 12/18/12 
f 14/19/14 39/47/39 42/48/42 15/20/15 
s 4
f 15/17/15 42/46/42 41/46/41 11/17/11 
f 14/18/14 13/15/13 9/15/9 12/18/12 
f 21/28/21 37/42/37 36/42/36 22/28/22 
s 1
f 43/49/43 17/23/17 20/26/20 22/28/22 
f 21/50/21 19/3/19 18/4/18 44/51/44 
s 4
f 44/49/44 18/52/18 17/23/17 43/49/43 
s 1
f 45/15/45 46/16/46 47/17/47 48/18/48 
f 49/2/49 50/19/50 51/20/51 52/1/52 
s 2
f 45/15/45 49/21/49 52/22/52 46/16/46 
s 4
f 46/16/46 52/16/52 51/17/51 47/17/47 
s 2
f 53/23/53 54/24/54 55/25/55 56/26/56 
s 4
f 56/26/56 55/27/55 57/28/57 58/28/58 
s 1
f 59/29/59 60/30/60 61/31/61 62/32/26 
f 63/33/27 64/34/62 65/35/63 66/36/64 
s 4
f 66/29/64 65/30/63 60/30/60 59/29/59 
f 63/32/27 67/37/65 68/37/66 62/32/26 
s 1
f 69/38/67 59/29/59 62/32/26 68/37/66 
f 67/39/65 63/33/27 66/36/64 70/40/68 
s 4
f 70/38/68 66/29/64 59/29/59 69/38/67 
f 64/31/62 63/32/27 62/32/26 61/31/61 
s 1
f 60/30/60 71/41/69 72/42/70 61/31/61 
f 64/34/62 73/43/71 74/44/72 65/35/63 
s 4
f 65/30/63 74/41/72 71/41/69 60/30/60 
f 67/37/65 75/45/73 76/45/74 68/37/66 
s 1
f 77/46/75 69/38/67 68/37/66 76/45/74 
f 75/47/73 67/39/65 70/40/68 78/48/76 
s 4
f 78/46/76 70/38/68 69/38/67 77/46/75 
f 73/42/71 64/31/62 61/31/61 72/42/70 
s 1
f 71/41/69 79/49/77 58/28/58 72/42/70 
f 73/43/71 57/50/57 80/51/78 74/44/72 
s 4
f 74/41/72 80/49/78 79/49/77 71/41/69 
f 75/45/73 50/18/50 48/18/48 76/45/74 
s 1
f 47/17/47 77/46/75 76/45/74 48/18/48 
f 50/19/50 75/47/73 78/48/76 51/20/51 
s 4
f 51/17/51 78/46/76 77/46/75 47/17/47 
f 50/18/50 49/15/49 45/15/45 48/18/48 
f 57/28/57 73/42/71 72/42/70 58/28/58 
s 1
f 79/49/77 53/23/53 56/26/56 58/28/58 
f 57/50/57 55/3/55 54/4/54 80/51/78 
s 4
f 80/49/78 54/52/54 53/23/53 79/49/77 
s 1
f 81/15/79 82/16/80 83/17/81 84/18/82 
f 85/2/83 86/19/84 87/20/85 88/1/86 
s 2
f 81/15/79 85/21/83 88/22/86 82/16/80 
s 4
f 82/16/80 88/16/86 87/17/85 83/17/81 
s 2
f 89/23/87 90/24/88 91/25/89 92/26/90 
s 4
f 92/26/90 91/27/89 93/28/91 94/28/92 
s 1
f 95/29/23 96/30/93 97/31/94 98/32/26 
f 99/33/27 100/34/95 101/35/96 102/36/30 
s 4
f 102/29/30 101/30/96 96/30/93 95/29/23 
f 99/32/27 103/37/97 104/37/98 98/32/26 
s 1
f 105/38/99 95/29/23 98/32/26 104/37/98 
f 103/39/97 99/33/27 102/36/30 106/40/100 
s 4
f 106/38/100 102/29/30 95/29/23 105/38/99 
f 100/31/95 99/32/27 98/32/26 97/31/94 
s 1
f 96/30/93 107/41/101 108/42/102 97/31/94 
f 100/34/95 109/43/103 110/44/104 101/35/96 
s 4
f 101/30/96 110/41/104 107/41/101 96/30/93 
f 103/37/97 111/45/105 112/45/106 104/37/98 
s 1
f 113/46/107 105/38/99 104/37/98 112/45/106 
f 111/47/105 103/39/97 106/40/100 114/48/108 
s 4
f 114/46/108 106/38/100 105/38/99 113/46/107 
f 109/42/103 100/31/95 97/31/94 108/42/102 
s 1
f 107/41/101 115/49/109 94/28/92 108/42/102 
f 109/43/103 93/50/91 116/51/110 110/44/104 
s 4
f 110/41/104 116/49/110 115/49/109 107/41/101 
f 111/45/105 86/18/84 84/18/82 112/45/106 
s 1
f 83/17/81 113/46/107 112/45/106 84/18/82 
f 86/19/84 111/47/105 114/48/108 87/20/85 
s 4
f 87/17/85 114/46/108 113/46/107 83/17/81 
f 86/18/84 85/15/83 81/15/79 84/18/82 
f 93/28/91 109/42/103 108/42/102 94/28/92 
s 1
f 115/49/109 89/23/87 92/26/90 94/28/92 
f 93/50/91 91/3/89 90/4/88 116/51/110 
s 4
f 116/49/110 90/52/88 89/23/87 115/49/109 
s 2
f 117/53/1 118/54/2 119/55/3 120/56/4 
s 4
f 121/57/5 122/58/6 123/59/7 124/60/8 
s 8
f 117/59/1 121/60/5 124/53/8 118/56/2 
s 16
f 118/54/2 124/61/8 123/62/7 119/55/3 
s 32
f 119/54/3 123/55/7 122/56/6 120/53/4 
s 64
f 120/56/4 122/58/6 121/57/5 117/53/1 
# 114 polygons

#
# object PSNA_BundleOfBill01_Tape
#

v  -0.1069 0.0006 0.0339
v  -0.0974 0.0006 0.0556
v  -0.0783 0.0038 0.0386
v  -0.0761 0.0002 0.0129
v  -0.0640 0.0335 0.0602
v  -0.0275 0.0373 0.0423
v  -0.0256 0.0436 0.0161
v  -0.0649 0.0375 0.0343
v  0.0841 0.0001 -0.0234
v  0.1251 0.0006 -0.0464
v  0.1142 0.0006 -0.0652
v  0.0938 0.0005 -0.0522
v  -0.0648 0.0003 0.0679
v  0.0662 0.0339 -0.0622
v  0.0745 0.0339 -0.0403
v  0.0890 0.0005 -0.0755
v  -0.0656 0.0335 -0.0504
v  -0.0330 0.0335 -0.0069
v  -0.0143 0.0335 -0.0181
v  -0.0406 0.0365 -0.0533
v  -0.0827 0.0002 -0.0717
v  -0.0800 0.0003 -0.1045
v  -0.0932 0.0005 -0.1235
v  -0.0931 0.0005 -0.0873
v  0.0846 0.0005 0.1493
v  0.0946 0.0005 0.1630
v  0.0963 0.0005 0.1292
v  0.0848 0.0004 0.1131
v  -0.0611 0.0355 -0.0731
v  -0.0724 0.0347 -0.0829
v  -0.0665 0.0333 -0.0502
v  0.0653 0.0334 0.0511
v  0.0655 0.0333 0.0873
v  0.0851 0.0002 0.0770
v  0.0413 0.0376 0.0276
v  0.0383 0.0372 0.0521
v  -0.0772 0.0005 -0.1372
v  -0.0932 0.0005 -0.1596
v  0.0981 0.0005 0.0954
v  -0.0381 0.0363 -0.0860
v  -0.0615 0.0384 -0.1161
v  0.0657 0.0353 0.1133
v  -0.0893 0.0006 0.0779
v  0.0345 0.0413 -0.0437
v  0.0406 0.0341 -0.0215
v  0.1033 0.0006 -0.0839
v  -0.0638 0.0375 0.0100
v  0.0670 0.0362 -0.0129
v  0.0035 0.0341 0.0242
v  0.0341 0.0399 0.0058
v  0.0076 0.0365 -0.0026
v  0.0032 0.0348 -0.0261
v  -0.0261 0.0349 -0.0061
v  -0.0032 0.0335 0.0397
v  0.0321 0.0372 0.0800
v  0.0119 0.0335 0.0170
v  0.0244 0.0335 -0.0026
v  0.0043 0.0335 -0.0294
v  -0.0156 0.0335 -0.0563
# 59 vertices

vn 0.0099 0.9999 -0.0039
vn -0.1232 0.9912 0.0484
vn -0.6056 0.7941 0.0506
vn -0.7432 0.6511 -0.1541
vn -0.8516 0.5130 0.1079
vn 0.0880 0.9673 0.2378
vn 0.0141 0.9986 -0.0503
vn -0.6013 0.7963 0.0658
vn 0.7527 0.6054 0.2588
vn -0.0082 1.0000 0.0048
vn -0.0039 1.0000 0.0022
vn 0.4353 0.9002 0.0130
vn -0.5080 0.7967 0.3273
vn 0.5172 0.8330 -0.1967
vn 0.5700 0.8215 -0.0175
vn 0.3635 0.9287 -0.0729
vn -0.0218 -0.5891 -0.8077
vn -0.0000 1.0000 -0.0001
vn 0.0180 0.9994 0.0298
vn 0.0069 1.0000 0.0064
vn -0.7345 0.6762 -0.0577
vn -0.5994 0.7990 -0.0481
vn 0.0172 0.9999 -0.0000
vn 0.0337 0.9994 -0.0000
vn 0.2453 0.9694 -0.0011
vn -0.0038 1.0000 -0.0002
vn -0.0117 0.9999 -0.0006
vn 0.4938 0.8696 -0.0006
vn -0.1519 0.9834 0.0992
vn -0.7280 0.6837 0.0511
vn -0.5261 0.8404 0.1298
vn 0.4053 0.9142 0.0005
vn 0.5974 0.8009 -0.0415
vn 0.7292 0.6843 0.0014
vn -0.1271 0.9919 0.0037
vn -0.0033 1.0000 0.0070
vn -0.3360 0.9415 -0.0246
vn 0.0034 1.0000 -0.0000
vn -0.0250 0.9997 -0.0013
vn 0.0088 0.9971 0.0760
vn -0.6475 0.7511 -0.1288
vn 0.7651 0.6415 -0.0558
vn 0.0080 1.0000 -0.0034
vn 0.1896 0.9474 0.2577
vn 0.0431 0.9990 0.0151
vn -0.0041 1.0000 0.0024
vn -0.4567 0.8894 -0.0212
vn 0.3986 0.9166 0.0326
vn 0.0830 0.9912 0.1031
vn -0.2511 0.9329 -0.2580
vn 0.1422 0.9898 0.0128
vn -0.1519 0.9875 -0.0431
vn -0.1818 0.9177 -0.3533
vn -0.0361 0.9991 -0.0240
vn 0.0057 1.0000 0.0013
vn -0.0374 0.9990 -0.0242
vn -0.0408 0.9988 -0.0260
vn -0.0001 1.0000 -0.0001
vn 0.1149 0.9919 -0.0548
# 59 vertex normals

vt 0.7031 0.5036 0.0000
vt 0.7349 0.5036 0.0000
vt 0.7349 0.5449 0.0000
vt 0.7031 0.5449 0.0000
vt 0.7679 0.5940 0.0000
vt 0.7679 0.6527 0.0000
vt 0.7349 0.6527 0.0000
vt 0.7349 0.5940 0.0000
vt 0.7679 0.8672 0.0000
vt 0.7679 0.9078 0.0000
vt 0.7349 0.9078 0.0000
vt 0.7349 0.8672 0.0000
vt 0.7679 0.5449 0.0000
vt 0.7031 0.8096 0.0000
vt 0.7349 0.8096 0.0000
vt 0.7031 0.8672 0.0000
vt 0.7677 0.1511 0.0000
vt 0.7677 0.2155 0.0000
vt 0.7357 0.2155 0.0000
vt 0.7357 0.1511 0.0000
vt 0.7677 0.0347 0.0000
vt 0.7357 0.0347 0.0000
vt 0.7357 0.0004 0.0000
vt 0.7677 0.0004 0.0000
vt 0.7677 0.4742 0.0000
vt 0.7677 0.5031 0.0000
vt 0.7357 0.5031 0.0000
vt 0.7357 0.4742 0.0000
vt 0.7357 0.1125 0.0000
vt 0.7357 0.0925 0.0000
vt 0.7677 0.0925 0.0000
vt 0.7029 0.4097 0.0000
vt 0.7357 0.4097 0.0000
vt 0.7029 0.4742 0.0000
vt 0.7029 0.3448 0.0000
vt 0.7357 0.3448 0.0000
vt 0.7029 0.0347 0.0000
vt 0.7029 0.0004 0.0000
vt 0.7029 0.5031 0.0000
vt 0.7029 0.1125 0.0000
vt 0.7029 0.0925 0.0000
vt 0.7677 0.4097 0.0000
vt 0.7679 0.5036 0.0000
vt 0.7031 0.7562 0.0000
vt 0.7349 0.7562 0.0000
vt 0.7031 0.9078 0.0000
vt 0.7031 0.5940 0.0000
vt 0.7679 0.8096 0.0000
vt 0.7679 0.7045 0.0000
vt 0.7679 0.7562 0.0000
vt 0.7349 0.7045 0.0000
vt 0.7031 0.7045 0.0000
vt 0.7031 0.6527 0.0000
vt 0.7677 0.2802 0.0000
vt 0.7677 0.3448 0.0000
vt 0.7357 0.2802 0.0000
vt 0.7029 0.2802 0.0000
vt 0.7029 0.2155 0.0000
vt 0.7029 0.1511 0.0000
# 59 texture coords

o PSNA_BundleOfBill01_Tape
g PSNA_BundleOfBill01_Tape
usemtl PSNA_BundleOfBill01_Tape
s 1
f 125/63/111 126/64/112 127/65/113 128/66/114 
f 129/67/115 130/68/116 131/69/117 132/70/118 
f 133/71/119 134/72/120 135/73/121 136/74/122 
s off
f 129/67/115 132/70/118 127/65/113 137/75/123 
f 138/76/124 139/77/125 136/74/122 140/78/126 
s 1
f 141/79/127 142/80/128 143/81/129 144/82/130 
s off
f 145/83/131 146/84/132 147/85/133 148/86/134 
f 149/87/135 150/88/136 151/89/137 152/90/138 
f 141/79/127 144/82/130 153/91/139 154/92/140 155/93/141 
f 155/93/141 154/92/140 146/84/132 145/83/131 
f 156/94/142 157/95/143 152/90/138 158/96/144 
s 1
f 157/95/143 156/94/142 159/97/145 160/98/146 
s off
f 146/84/132 161/99/147 162/100/148 147/85/133 
f 151/89/137 163/101/149 158/96/144 152/90/138 
f 164/102/150 165/103/151 154/92/140 153/91/139 
f 154/92/140 165/103/151 161/99/147 146/84/132 
f 157/95/143 166/104/152 149/87/135 152/90/138 
s 1
f 126/64/112 167/105/153 137/75/123 127/65/113 
f 139/77/125 138/76/124 168/106/154 169/107/155 
f 135/73/121 170/108/156 140/78/126 136/74/122 
s off
f 132/70/118 171/109/157 128/66/114 127/65/113 
f 139/77/125 172/110/158 133/71/119 136/74/122 
s 1
f 173/111/159 174/112/160 169/107/155 175/113/161 
f 176/114/162 177/115/163 131/69/117 175/113/161 
f 168/106/154 176/114/162 175/113/161 169/107/155 
f 174/112/160 172/110/158 139/77/125 169/107/155 
f 130/68/116 173/111/159 175/113/161 131/69/117 
f 177/115/163 171/109/157 132/70/118 131/69/117 
f 178/116/164 179/117/165 160/98/146 180/118/166 
f 181/119/167 182/120/168 143/81/129 180/118/166 
f 142/80/128 178/116/164 180/118/166 143/81/129 
f 159/97/145 181/119/167 180/118/166 160/98/146 
f 179/117/165 166/104/152 157/95/143 160/98/146 
f 182/120/168 183/121/169 144/82/130 143/81/129 
s off
f 153/91/139 144/82/130 183/121/169 164/102/150 
# 35 polygons

