# 3ds Max Wavefront OBJ Exporter v0.99 - (c)2007 guruware
# File Created: 31.12.2025 20:56:01

mtllib PSNA_FloorTileAnchor_A.mtl

#
# object PSNA_FloorTileAnchor_A
#

v  0.8782 0.1592 -2.8116
v  1.3173 0.1592 -2.8116
v  1.3167 0.1608 -3.2374
v  0.8778 0.1608 -3.2374
v  1.7572 0.1576 -2.3857
v  1.7564 0.1592 -2.8116
v  1.3179 0.1576 -2.3857
v  1.7555 0.1608 -3.2374
v  1.7547 0.1624 -3.6633
v  1.3161 0.1624 -3.6633
v  0.4393 0.1576 -2.3857
v  0.8786 0.1576 -2.3857
v  0.4391 0.1592 -2.8116
v  0.4389 0.1608 -3.2374
v  0.8774 0.1624 -3.6633
v  0.4387 0.1624 -3.6633
# 16 vertices

vn 0.0000 1.0000 0.0038
# 1 vertex normals

vt 0.0208 0.0000 1.0000
vt 0.0313 0.0000 1.0000
vt 0.0417 0.0000 1.0000
vt 0.0104 0.0000 1.0000
# 4 texture coords

o PSNA_FloorTileAnchor_A
g PSNA_FloorTileAnchor_A
usemtl Material__65
s off
f 1/1/1 2/2/1 3/2/1 4/1/1 
f 5/3/1 6/3/1 2/2/1 7/2/1 
f 8/3/1 9/3/1 10/2/1 3/2/1 
f 11/4/1 12/1/1 1/1/1 13/4/1 
f 14/4/1 4/1/1 15/1/1 16/4/1 
f 2/2/1 6/3/1 8/3/1 3/2/1 
f 13/4/1 1/1/1 4/1/1 14/4/1 
f 2/2/1 1/1/1 12/1/1 7/2/1 
f 10/2/1 15/1/1 4/1/1 3/2/1 
# 9 polygons

