# 3ds Max Wavefront OBJ Exporter v0.99 - (c)2007 guruware
# File Created: 15.01.2026 02:49:53

mtllib PSNA_Smartphone01.mtl

#
# object PSNA_Smartphone01
#

v  -0.1107 -0.0158 -0.2158
v  -0.1064 -0.0159 -0.2239
v  -0.0896 -0.0160 -0.2182
v  -0.0892 0.0112 0.2437
v  -0.0613 0.0112 0.2436
v  -0.0613 0.0112 0.2182
v  -0.0897 0.0112 0.2182
v  -0.0898 -0.0149 0.2453
v  -0.0613 -0.0149 0.2453
v  -0.0613 -0.0027 0.2453
v  -0.0898 -0.0027 0.2453
v  0.1207 -0.0149 0.2184
v  0.1207 -0.0149 0.1950
v  0.1207 -0.0027 0.1950
v  0.1207 -0.0027 0.2184
v  0.0930 -0.0149 -0.2453
v  0.0645 -0.0149 -0.2453
v  0.0645 -0.0027 -0.2453
v  0.0930 -0.0027 -0.2453
v  -0.1175 -0.0149 -0.2184
v  -0.1175 -0.0149 -0.1950
v  -0.1175 -0.0027 -0.1950
v  -0.1175 -0.0027 -0.2184
v  0.0930 0.0095 0.2453
v  0.0930 -0.0027 0.2453
v  0.1015 -0.0027 0.2413
v  0.1015 0.0097 0.2413
v  -0.0983 -0.0027 0.2413
v  -0.0983 -0.0150 0.2413
v  0.1207 0.0095 -0.2184
v  0.1207 -0.0027 -0.2184
v  0.1155 -0.0027 -0.2277
v  0.1155 0.0097 -0.2277
v  0.1155 -0.0027 0.2277
v  0.1155 -0.0150 0.2277
v  -0.0898 0.0095 -0.2453
v  -0.0898 -0.0027 -0.2453
v  -0.0983 -0.0027 -0.2413
v  -0.0983 0.0097 -0.2413
v  0.1015 -0.0027 -0.2413
v  0.1015 -0.0150 -0.2413
v  -0.1175 0.0095 0.2184
v  -0.1175 -0.0027 0.2184
v  -0.1123 -0.0027 0.2277
v  -0.1123 0.0097 0.2277
v  -0.1123 -0.0027 -0.2277
v  -0.1122 -0.0150 -0.2277
v  0.0016 -0.0149 0.2453
v  0.0645 -0.0149 0.2453
v  0.0645 -0.0027 0.2453
v  0.0016 -0.0027 0.2453
v  0.0016 -0.0149 -0.2453
v  -0.0613 -0.0149 -0.2453
v  -0.0613 -0.0027 -0.2453
v  0.0016 -0.0027 -0.2453
v  0.0016 0.0112 0.2436
v  0.0645 0.0112 0.2436
v  0.0645 0.0112 0.2182
v  0.0016 0.0112 0.2182
v  0.0016 -0.0158 -0.2385
v  0.0645 -0.0158 -0.2385
v  0.0645 -0.0160 -0.2182
v  0.0016 -0.0160 -0.2182
v  0.0905 -0.0158 0.2385
v  0.0645 -0.0158 0.2385
v  0.0645 -0.0160 0.2183
v  0.0929 -0.0160 0.2183
v  -0.0873 -0.0158 0.2385
v  -0.0946 -0.0159 0.2354
v  -0.0896 -0.0160 0.2183
v  0.0645 -0.0160 0.1950
v  0.0929 -0.0160 0.1950
v  -0.1107 -0.0158 0.2158
v  -0.1106 -0.0158 0.1950
v  -0.0896 -0.0160 0.1950
v  -0.0873 -0.0158 -0.2385
v  -0.0613 -0.0158 -0.2385
v  -0.0613 -0.0160 -0.2182
v  -0.0613 -0.0160 -0.1950
v  -0.0896 -0.0160 -0.1950
v  -0.0613 -0.0160 0.2183
v  -0.0613 -0.0158 0.2385
v  0.0905 -0.0158 -0.2385
v  0.0978 -0.0159 -0.2354
v  0.0929 -0.0160 -0.2182
v  0.1139 -0.0158 -0.2158
v  0.1139 -0.0158 -0.1950
v  0.0929 -0.0160 -0.1950
v  0.0978 -0.0159 0.2354
v  0.0929 0.0112 -0.2182
v  0.0645 0.0112 -0.2182
v  0.0645 0.0112 -0.1950
v  0.0929 0.0112 -0.1950
v  0.0016 0.0112 0.1950
v  -0.0613 0.0112 0.1950
v  0.0924 0.0112 -0.2437
v  0.0645 0.0112 -0.2436
v  0.0016 0.0112 -0.2182
v  0.0016 0.0112 -0.2436
v  -0.0613 0.0112 -0.2436
v  -0.0613 0.0112 -0.2182
v  -0.0892 0.0112 -0.2437
v  -0.0974 0.0114 -0.2399
v  -0.0897 0.0112 -0.2182
v  -0.1158 0.0112 -0.2178
v  -0.1158 0.0112 -0.1950
v  -0.0897 0.0112 -0.1950
v  -0.0974 0.0114 0.2399
v  0.0924 0.0112 0.2437
v  0.1006 0.0114 0.2399
v  0.0929 0.0112 0.2182
v  0.1190 0.0112 0.2178
v  0.1190 0.0112 0.1950
v  0.0929 0.0112 0.1950
v  0.1006 0.0114 -0.2399
v  0.1207 -0.0149 -0.0000
v  0.1207 -0.0149 -0.1950
v  0.1207 -0.0027 -0.1950
v  0.1207 -0.0027 -0.0000
v  -0.1175 -0.0149 -0.0000
v  -0.1175 -0.0149 0.1950
v  -0.1175 -0.0027 0.1950
v  -0.1175 -0.0027 -0.0000
v  0.0016 -0.0160 0.0000
v  0.0016 -0.0160 -0.1950
v  0.0645 -0.0160 -0.1950
v  0.0645 -0.0160 0.0000
v  -0.1106 -0.0158 0.0000
v  -0.1106 -0.0158 -0.1950
v  -0.0896 -0.0160 0.0000
v  0.0016 -0.0160 0.1950
v  -0.0613 -0.0160 0.1950
v  -0.0613 -0.0160 0.0000
v  0.1139 -0.0158 0.0000
v  0.1139 -0.0158 0.1950
v  0.0929 -0.0160 0.0000
v  0.0016 0.0112 -0.0000
v  0.0645 0.0112 0.1950
v  0.0645 0.0112 -0.0000
v  0.0016 0.0112 -0.1950
v  -0.0613 0.0112 -0.1950
v  -0.0613 0.0112 -0.0000
v  -0.1158 0.0112 -0.0000
v  -0.1158 0.0112 0.1950
v  -0.0897 0.0112 0.1950
v  -0.0897 0.0112 -0.0000
v  0.1190 0.0112 -0.0000
v  0.1190 0.0112 -0.1950
v  0.0929 0.0112 -0.0000
v  0.0930 -0.0149 0.2453
v  -0.0898 -0.0149 -0.2453
v  0.0016 -0.0158 0.2385
v  0.0016 -0.0160 0.2183
v  0.1207 -0.0149 -0.2184
v  -0.1175 -0.0149 0.2184
v  0.1139 -0.0158 0.2158
v  -0.1158 0.0112 0.2178
v  0.1190 0.0112 -0.2178
v  -0.0965 -0.0168 0.2384
v  -0.0886 -0.0167 0.2419
v  -0.1059 -0.0150 0.2349
v  -0.1122 -0.0150 0.2277
v  -0.1093 -0.0168 0.2258
v  -0.1035 -0.0168 0.2325
v  -0.1140 -0.0167 0.1950
v  -0.1141 -0.0167 0.2171
v  -0.1140 -0.0167 -0.0000
v  -0.1140 -0.0167 -0.1950
v  -0.1141 -0.0167 -0.2171
v  -0.1093 -0.0168 -0.2258
v  -0.1059 -0.0150 -0.2349
v  -0.0983 -0.0150 -0.2413
v  -0.0965 -0.0168 -0.2384
v  -0.1035 -0.0168 -0.2325
v  -0.0613 -0.0167 -0.2419
v  -0.0886 -0.0167 -0.2419
v  0.0016 -0.0167 -0.2419
v  0.0645 -0.0167 -0.2419
v  0.0918 -0.0167 -0.2419
v  0.0997 -0.0168 -0.2384
v  0.1091 -0.0150 -0.2349
v  0.1155 -0.0150 -0.2277
v  0.1125 -0.0168 -0.2258
v  0.1067 -0.0168 -0.2325
v  0.1173 -0.0167 -0.1950
v  0.1173 -0.0167 -0.2171
v  0.1173 -0.0167 -0.0000
v  0.1173 -0.0167 0.1950
v  0.1173 -0.0167 0.2171
v  0.1125 -0.0168 0.2258
v  0.1091 -0.0150 0.2349
v  0.1015 -0.0150 0.2413
v  0.0997 -0.0168 0.2384
v  0.1067 -0.0168 0.2325
v  0.0645 -0.0167 0.2419
v  0.0918 -0.0167 0.2419
v  0.0016 -0.0167 0.2419
v  -0.0613 -0.0167 0.2419
v  -0.1011 -0.0159 0.2300
v  -0.1064 -0.0159 0.2240
v  -0.1011 -0.0159 -0.2300
v  -0.0946 -0.0159 -0.2354
v  0.1043 -0.0159 -0.2300
v  0.1096 -0.0159 -0.2239
v  0.1043 -0.0159 0.2300
v  0.1096 -0.0159 0.2240
v  -0.0898 0.0095 0.2453
v  -0.0613 0.0095 0.2453
v  0.0016 0.0095 0.2453
v  0.0645 0.0095 0.2453
v  0.0930 0.0095 -0.2453
v  0.0645 0.0095 -0.2453
v  0.0016 0.0095 -0.2453
v  -0.0613 0.0095 -0.2453
v  -0.1047 0.0114 -0.2337
v  -0.1059 0.0097 -0.2350
v  -0.1108 0.0114 -0.2268
v  -0.1123 0.0097 -0.2277
v  -0.1175 0.0095 -0.2184
v  -0.1175 0.0095 -0.1950
v  -0.1047 0.0114 0.2337
v  -0.1108 0.0114 0.2268
v  -0.1059 0.0097 0.2350
v  -0.0983 0.0097 0.2413
v  0.1079 0.0114 0.2337
v  0.1091 0.0097 0.2350
v  0.1141 0.0114 0.2268
v  0.1155 0.0097 0.2277
v  0.1207 0.0095 0.2184
v  0.1207 0.0095 0.1950
v  0.1079 0.0114 -0.2337
v  0.1141 0.0114 -0.2268
v  0.1091 0.0097 -0.2350
v  0.1015 0.0097 -0.2413
v  -0.1175 0.0095 -0.0000
v  -0.1175 0.0095 0.1950
v  0.1207 0.0095 -0.0000
v  0.1207 0.0095 -0.1950
v  0.1091 -0.0027 0.2350
v  -0.1059 -0.0027 0.2350
v  0.1091 -0.0027 -0.2350
v  -0.1059 -0.0027 -0.2350
v  -0.0357 0.0111 -0.1841
v  -0.0365 0.0111 -0.1870
v  -0.0366 0.0128 -0.1869
v  -0.0359 0.0128 -0.1841
v  -0.0386 0.0111 -0.1890
v  -0.0386 0.0128 -0.1889
v  -0.0414 0.0111 -0.1898
v  -0.0414 0.0128 -0.1897
v  -0.0443 0.0111 -0.1890
v  -0.0442 0.0128 -0.1889
v  -0.0463 0.0111 -0.1870
v  -0.0462 0.0128 -0.1869
v  -0.0471 0.0111 -0.1841
v  -0.0470 0.0128 -0.1841
v  -0.0463 0.0111 -0.1812
v  -0.0462 0.0128 -0.1813
v  -0.0443 0.0111 -0.1792
v  -0.0442 0.0128 -0.1793
v  -0.0414 0.0111 -0.1784
v  -0.0414 0.0128 -0.1785
v  -0.0386 0.0111 -0.1792
v  -0.0386 0.0128 -0.1793
v  -0.0365 0.0111 -0.1812
v  -0.0366 0.0128 -0.1813
v  -0.0379 0.0130 -0.1861
v  -0.0373 0.0130 -0.1841
v  -0.0394 0.0130 -0.1876
v  -0.0414 0.0130 -0.1882
v  -0.0434 0.0130 -0.1876
v  -0.0449 0.0130 -0.1861
v  -0.0455 0.0130 -0.1841
v  -0.0449 0.0130 -0.1821
v  -0.0434 0.0130 -0.1806
v  -0.0414 0.0130 -0.1800
v  -0.0394 0.0130 -0.1806
v  -0.0379 0.0130 -0.1821
v  -0.0414 0.0113 -0.1841
v  -0.0590 0.0108 -0.1149
v  -0.0606 0.0108 -0.1229
v  -0.0608 0.0156 -0.1228
v  -0.0592 0.0156 -0.1149
v  -0.0651 0.0108 -0.1296
v  -0.0653 0.0156 -0.1295
v  -0.0719 0.0108 -0.1342
v  -0.0720 0.0156 -0.1340
v  -0.0799 0.0108 -0.1357
v  -0.0799 0.0156 -0.1356
v  -0.0879 0.0108 -0.1342
v  -0.0878 0.0156 -0.1340
v  -0.0946 0.0108 -0.1296
v  -0.0945 0.0156 -0.1295
v  -0.0991 0.0108 -0.1229
v  -0.0990 0.0156 -0.1228
v  -0.1007 0.0108 -0.1149
v  -0.1006 0.0156 -0.1149
v  -0.0991 0.0108 -0.1069
v  -0.0990 0.0156 -0.1070
v  -0.0946 0.0108 -0.1001
v  -0.0945 0.0156 -0.1003
v  -0.0879 0.0108 -0.0956
v  -0.0878 0.0156 -0.0958
v  -0.0799 0.0108 -0.0940
v  -0.0799 0.0156 -0.0942
v  -0.0719 0.0108 -0.0956
v  -0.0720 0.0156 -0.0958
v  -0.0651 0.0108 -0.1001
v  -0.0653 0.0156 -0.1003
v  -0.0606 0.0108 -0.1069
v  -0.0608 0.0156 -0.1070
v  -0.0631 0.0156 -0.1218
v  -0.0618 0.0156 -0.1149
v  -0.0671 0.0156 -0.1277
v  -0.0730 0.0156 -0.1316
v  -0.0799 0.0156 -0.1330
v  -0.0868 0.0156 -0.1316
v  -0.0927 0.0156 -0.1277
v  -0.0966 0.0156 -0.1218
v  -0.0980 0.0156 -0.1149
v  -0.0966 0.0156 -0.1080
v  -0.0927 0.0156 -0.1021
v  -0.0868 0.0156 -0.0981
v  -0.0799 0.0156 -0.0968
v  -0.0730 0.0156 -0.0981
v  -0.0671 0.0156 -0.1021
v  -0.0631 0.0156 -0.1080
v  -0.0634 0.0168 -0.1217
v  -0.0621 0.0168 -0.1149
v  -0.0673 0.0168 -0.1275
v  -0.0731 0.0168 -0.1314
v  -0.0799 0.0168 -0.1327
v  -0.0867 0.0168 -0.1314
v  -0.0925 0.0168 -0.1275
v  -0.0964 0.0168 -0.1217
v  -0.0977 0.0168 -0.1149
v  -0.0964 0.0168 -0.1081
v  -0.0925 0.0168 -0.1023
v  -0.0867 0.0168 -0.0984
v  -0.0799 0.0168 -0.0971
v  -0.0731 0.0168 -0.0984
v  -0.0673 0.0168 -0.1023
v  -0.0634 0.0168 -0.1081
v  -0.0660 0.0168 -0.1206
v  -0.0648 0.0168 -0.1149
v  -0.0692 0.0168 -0.1255
v  -0.0741 0.0168 -0.1288
v  -0.0799 0.0168 -0.1299
v  -0.0856 0.0168 -0.1288
v  -0.0905 0.0168 -0.1255
v  -0.0938 0.0168 -0.1206
v  -0.0949 0.0168 -0.1149
v  -0.0938 0.0168 -0.1091
v  -0.0905 0.0168 -0.1042
v  -0.0856 0.0168 -0.1010
v  -0.0799 0.0168 -0.0998
v  -0.0741 0.0168 -0.1010
v  -0.0692 0.0168 -0.1042
v  -0.0660 0.0168 -0.1091
v  -0.0672 0.0150 -0.1201
v  -0.0662 0.0150 -0.1149
v  -0.0702 0.0150 -0.1246
v  -0.0746 0.0150 -0.1275
v  -0.0799 0.0150 -0.1286
v  -0.0851 0.0150 -0.1275
v  -0.0896 0.0150 -0.1246
v  -0.0925 0.0150 -0.1201
v  -0.0936 0.0150 -0.1149
v  -0.0925 0.0150 -0.1097
v  -0.0896 0.0150 -0.1052
v  -0.0851 0.0150 -0.1022
v  -0.0799 0.0150 -0.1012
v  -0.0746 0.0150 -0.1022
v  -0.0702 0.0150 -0.1052
v  -0.0672 0.0150 -0.1097
v  -0.0742 0.0156 -0.1172
v  -0.0737 0.0156 -0.1149
v  -0.0755 0.0156 -0.1193
v  -0.0775 0.0156 -0.1206
v  -0.0799 0.0156 -0.1211
v  -0.0822 0.0156 -0.1206
v  -0.0842 0.0156 -0.1193
v  -0.0856 0.0156 -0.1172
v  -0.0861 0.0156 -0.1149
v  -0.0856 0.0156 -0.1125
v  -0.0842 0.0156 -0.1105
v  -0.0822 0.0156 -0.1092
v  -0.0799 0.0156 -0.1087
v  -0.0775 0.0156 -0.1092
v  -0.0755 0.0156 -0.1105
v  -0.0742 0.0156 -0.1125
v  -0.0768 0.0131 -0.1162
v  -0.0765 0.0131 -0.1149
v  -0.0775 0.0131 -0.1173
v  -0.0786 0.0131 -0.1180
v  -0.0799 0.0131 -0.1182
v  -0.0812 0.0131 -0.1180
v  -0.0823 0.0131 -0.1173
v  -0.0830 0.0131 -0.1162
v  -0.0832 0.0131 -0.1149
v  -0.0830 0.0131 -0.1136
v  -0.0823 0.0131 -0.1125
v  -0.0812 0.0131 -0.1118
v  -0.0799 0.0131 -0.1115
v  -0.0786 0.0131 -0.1118
v  -0.0775 0.0131 -0.1125
v  -0.0768 0.0131 -0.1136
v  -0.0799 0.0131 -0.1149
v  -0.0590 0.0108 -0.1607
v  -0.0606 0.0108 -0.1687
v  -0.0608 0.0156 -0.1686
v  -0.0592 0.0156 -0.1607
v  -0.0651 0.0108 -0.1755
v  -0.0653 0.0156 -0.1754
v  -0.0719 0.0108 -0.1800
v  -0.0720 0.0156 -0.1798
v  -0.0799 0.0108 -0.1816
v  -0.0799 0.0156 -0.1814
v  -0.0879 0.0108 -0.1800
v  -0.0878 0.0156 -0.1798
v  -0.0946 0.0108 -0.1755
v  -0.0945 0.0156 -0.1754
v  -0.0991 0.0108 -0.1687
v  -0.0990 0.0156 -0.1686
v  -0.1007 0.0108 -0.1607
v  -0.1006 0.0156 -0.1607
v  -0.0991 0.0108 -0.1527
v  -0.0990 0.0156 -0.1528
v  -0.0946 0.0108 -0.1460
v  -0.0945 0.0156 -0.1461
v  -0.0879 0.0108 -0.1415
v  -0.0878 0.0156 -0.1416
v  -0.0799 0.0108 -0.1399
v  -0.0799 0.0156 -0.1400
v  -0.0719 0.0108 -0.1415
v  -0.0720 0.0156 -0.1416
v  -0.0651 0.0108 -0.1460
v  -0.0653 0.0156 -0.1461
v  -0.0606 0.0108 -0.1527
v  -0.0608 0.0156 -0.1528
v  -0.0631 0.0156 -0.1677
v  -0.0618 0.0156 -0.1607
v  -0.0671 0.0156 -0.1735
v  -0.0730 0.0156 -0.1775
v  -0.0799 0.0156 -0.1788
v  -0.0868 0.0156 -0.1775
v  -0.0927 0.0156 -0.1735
v  -0.0966 0.0156 -0.1677
v  -0.0980 0.0156 -0.1607
v  -0.0966 0.0156 -0.1538
v  -0.0927 0.0156 -0.1479
v  -0.0868 0.0156 -0.1440
v  -0.0799 0.0156 -0.1426
v  -0.0730 0.0156 -0.1440
v  -0.0671 0.0156 -0.1479
v  -0.0631 0.0156 -0.1538
v  -0.0634 0.0168 -0.1676
v  -0.0621 0.0168 -0.1607
v  -0.0673 0.0168 -0.1733
v  -0.0731 0.0168 -0.1772
v  -0.0799 0.0168 -0.1786
v  -0.0867 0.0168 -0.1772
v  -0.0925 0.0168 -0.1733
v  -0.0964 0.0168 -0.1676
v  -0.0977 0.0168 -0.1607
v  -0.0964 0.0168 -0.1539
v  -0.0925 0.0168 -0.1481
v  -0.0867 0.0168 -0.1443
v  -0.0799 0.0168 -0.1429
v  -0.0731 0.0168 -0.1443
v  -0.0673 0.0168 -0.1481
v  -0.0634 0.0168 -0.1539
v  -0.0660 0.0168 -0.1665
v  -0.0648 0.0168 -0.1607
v  -0.0692 0.0168 -0.1714
v  -0.0741 0.0168 -0.1746
v  -0.0799 0.0168 -0.1758
v  -0.0856 0.0168 -0.1746
v  -0.0905 0.0168 -0.1714
v  -0.0938 0.0168 -0.1665
v  -0.0949 0.0168 -0.1607
v  -0.0938 0.0168 -0.1550
v  -0.0905 0.0168 -0.1501
v  -0.0856 0.0168 -0.1468
v  -0.0799 0.0168 -0.1457
v  -0.0741 0.0168 -0.1468
v  -0.0692 0.0168 -0.1501
v  -0.0660 0.0168 -0.1550
v  -0.0672 0.0150 -0.1660
v  -0.0662 0.0150 -0.1607
v  -0.0702 0.0150 -0.1704
v  -0.0746 0.0150 -0.1734
v  -0.0799 0.0150 -0.1744
v  -0.0851 0.0150 -0.1734
v  -0.0896 0.0150 -0.1704
v  -0.0925 0.0150 -0.1660
v  -0.0936 0.0150 -0.1607
v  -0.0925 0.0150 -0.1555
v  -0.0896 0.0150 -0.1511
v  -0.0851 0.0150 -0.1481
v  -0.0799 0.0150 -0.1470
v  -0.0746 0.0150 -0.1481
v  -0.0702 0.0150 -0.1511
v  -0.0672 0.0150 -0.1555
v  -0.0742 0.0156 -0.1631
v  -0.0737 0.0156 -0.1607
v  -0.0755 0.0156 -0.1651
v  -0.0775 0.0156 -0.1664
v  -0.0799 0.0156 -0.1669
v  -0.0822 0.0156 -0.1664
v  -0.0842 0.0156 -0.1651
v  -0.0856 0.0156 -0.1631
v  -0.0861 0.0156 -0.1607
v  -0.0856 0.0156 -0.1584
v  -0.0842 0.0156 -0.1564
v  -0.0822 0.0156 -0.1550
v  -0.0799 0.0156 -0.1546
v  -0.0775 0.0156 -0.1550
v  -0.0755 0.0156 -0.1564
v  -0.0742 0.0156 -0.1584
v  -0.0768 0.0131 -0.1620
v  -0.0765 0.0131 -0.1607
v  -0.0775 0.0131 -0.1631
v  -0.0786 0.0131 -0.1638
v  -0.0799 0.0131 -0.1641
v  -0.0812 0.0131 -0.1638
v  -0.0823 0.0131 -0.1631
v  -0.0830 0.0131 -0.1620
v  -0.0832 0.0131 -0.1607
v  -0.0830 0.0131 -0.1594
v  -0.0823 0.0131 -0.1584
v  -0.0812 0.0131 -0.1576
v  -0.0799 0.0131 -0.1574
v  -0.0786 0.0131 -0.1576
v  -0.0775 0.0131 -0.1584
v  -0.0768 0.0131 -0.1594
v  -0.0799 0.0131 -0.1607
v  -0.0590 0.0108 -0.2063
v  -0.0606 0.0108 -0.2143
v  -0.0608 0.0156 -0.2142
v  -0.0592 0.0156 -0.2063
v  -0.0651 0.0108 -0.2210
v  -0.0653 0.0156 -0.2209
v  -0.0719 0.0108 -0.2256
v  -0.0720 0.0156 -0.2254
v  -0.0799 0.0108 -0.2271
v  -0.0799 0.0156 -0.2270
v  -0.0879 0.0108 -0.2256
v  -0.0878 0.0156 -0.2254
v  -0.0946 0.0108 -0.2210
v  -0.0945 0.0156 -0.2209
v  -0.0991 0.0108 -0.2143
v  -0.0990 0.0156 -0.2142
v  -0.1007 0.0108 -0.2063
v  -0.1006 0.0156 -0.2063
v  -0.0991 0.0108 -0.1983
v  -0.0990 0.0156 -0.1984
v  -0.0946 0.0108 -0.1916
v  -0.0945 0.0156 -0.1917
v  -0.0879 0.0108 -0.1870
v  -0.0878 0.0156 -0.1872
v  -0.0799 0.0108 -0.1854
v  -0.0799 0.0156 -0.1856
v  -0.0719 0.0108 -0.1870
v  -0.0720 0.0156 -0.1872
v  -0.0651 0.0108 -0.1916
v  -0.0653 0.0156 -0.1917
v  -0.0606 0.0108 -0.1983
v  -0.0608 0.0156 -0.1984
v  -0.0631 0.0156 -0.2132
v  -0.0618 0.0156 -0.2063
v  -0.0671 0.0156 -0.2191
v  -0.0730 0.0156 -0.2230
v  -0.0799 0.0156 -0.2244
v  -0.0868 0.0156 -0.2230
v  -0.0927 0.0156 -0.2191
v  -0.0966 0.0156 -0.2132
v  -0.0980 0.0156 -0.2063
v  -0.0966 0.0156 -0.1994
v  -0.0927 0.0156 -0.1935
v  -0.0868 0.0156 -0.1896
v  -0.0799 0.0156 -0.1882
v  -0.0730 0.0156 -0.1896
v  -0.0671 0.0156 -0.1935
v  -0.0631 0.0156 -0.1994
v  -0.0634 0.0168 -0.2131
v  -0.0621 0.0168 -0.2063
v  -0.0673 0.0168 -0.2189
v  -0.0731 0.0168 -0.2228
v  -0.0799 0.0168 -0.2241
v  -0.0867 0.0168 -0.2228
v  -0.0925 0.0168 -0.2189
v  -0.0964 0.0168 -0.2131
v  -0.0977 0.0168 -0.2063
v  -0.0964 0.0168 -0.1995
v  -0.0925 0.0168 -0.1937
v  -0.0867 0.0168 -0.1898
v  -0.0799 0.0168 -0.1885
v  -0.0731 0.0168 -0.1898
v  -0.0673 0.0168 -0.1937
v  -0.0634 0.0168 -0.1995
v  -0.0660 0.0168 -0.2121
v  -0.0648 0.0168 -0.2063
v  -0.0692 0.0168 -0.2169
v  -0.0741 0.0168 -0.2202
v  -0.0799 0.0168 -0.2213
v  -0.0856 0.0168 -0.2202
v  -0.0905 0.0168 -0.2169
v  -0.0938 0.0168 -0.2121
v  -0.0949 0.0168 -0.2063
v  -0.0938 0.0168 -0.2005
v  -0.0905 0.0168 -0.1957
v  -0.0856 0.0168 -0.1924
v  -0.0799 0.0168 -0.1912
v  -0.0741 0.0168 -0.1924
v  -0.0692 0.0168 -0.1957
v  -0.0660 0.0168 -0.2005
v  -0.0672 0.0150 -0.2115
v  -0.0662 0.0150 -0.2063
v  -0.0702 0.0150 -0.2160
v  -0.0746 0.0150 -0.2189
v  -0.0799 0.0150 -0.2200
v  -0.0851 0.0150 -0.2189
v  -0.0896 0.0150 -0.2160
v  -0.0925 0.0150 -0.2115
v  -0.0936 0.0150 -0.2063
v  -0.0925 0.0150 -0.2011
v  -0.0896 0.0150 -0.1966
v  -0.0851 0.0150 -0.1937
v  -0.0799 0.0150 -0.1926
v  -0.0746 0.0150 -0.1937
v  -0.0702 0.0150 -0.1966
v  -0.0672 0.0150 -0.2011
v  -0.0742 0.0156 -0.2087
v  -0.0737 0.0156 -0.2063
v  -0.0755 0.0156 -0.2107
v  -0.0775 0.0156 -0.2120
v  -0.0799 0.0156 -0.2125
v  -0.0822 0.0156 -0.2120
v  -0.0842 0.0156 -0.2107
v  -0.0856 0.0156 -0.2087
v  -0.0861 0.0156 -0.2063
v  -0.0856 0.0156 -0.2039
v  -0.0842 0.0156 -0.2019
v  -0.0822 0.0156 -0.2006
v  -0.0799 0.0156 -0.2001
v  -0.0775 0.0156 -0.2006
v  -0.0755 0.0156 -0.2019
v  -0.0742 0.0156 -0.2039
v  -0.0768 0.0131 -0.2076
v  -0.0765 0.0131 -0.2063
v  -0.0775 0.0131 -0.2087
v  -0.0786 0.0131 -0.2094
v  -0.0799 0.0131 -0.2096
v  -0.0812 0.0131 -0.2094
v  -0.0823 0.0131 -0.2087
v  -0.0830 0.0131 -0.2076
v  -0.0832 0.0131 -0.2063
v  -0.0830 0.0131 -0.2050
v  -0.0823 0.0131 -0.2039
v  -0.0812 0.0131 -0.2032
v  -0.0799 0.0131 -0.2029
v  -0.0786 0.0131 -0.2032
v  -0.0775 0.0131 -0.2039
v  -0.0768 0.0131 -0.2050
v  -0.0799 0.0131 -0.2063
v  -0.1196 -0.0064 -0.1741
v  -0.1207 -0.0045 -0.1727
v  -0.1196 -0.0045 -0.1758
v  -0.1196 -0.0064 -0.1028
v  -0.1196 -0.0064 -0.1041
v  -0.1180 -0.0064 -0.1041
v  -0.1180 -0.0064 -0.1028
v  -0.1196 0.0025 -0.1028
v  -0.1196 0.0006 -0.1011
v  -0.1180 0.0006 -0.1011
v  -0.1180 0.0025 -0.1028
v  -0.1196 0.0025 -0.1741
v  -0.1196 0.0025 -0.1725
v  -0.1180 0.0025 -0.1725
v  -0.1180 0.0025 -0.1741
v  -0.1180 -0.0045 -0.1758
v  -0.1180 -0.0064 -0.1741
v  -0.1207 0.0006 -0.1041
v  -0.1196 -0.0045 -0.1011
v  -0.1180 -0.0045 -0.1011
v  -0.1196 0.0006 -0.1758
v  -0.1180 0.0006 -0.1758
v  -0.1207 -0.0019 -0.1737
v  -0.1196 -0.0019 -0.1764
v  -0.1145 0.0006 -0.1011
v  -0.1180 -0.0019 -0.1005
v  -0.1145 -0.0019 -0.1005
v  -0.1145 -0.0045 -0.1758
v  -0.1180 -0.0019 -0.1764
v  -0.1145 -0.0019 -0.1764
v  -0.1207 -0.0019 -0.1032
v  -0.1196 -0.0019 -0.1005
v  -0.1145 -0.0064 -0.1741
v  -0.1145 -0.0064 -0.1725
v  -0.1180 -0.0064 -0.1725
v  -0.1145 0.0025 -0.1028
v  -0.1145 0.0025 -0.1041
v  -0.1180 0.0025 -0.1041
v  -0.1145 -0.0064 -0.1028
v  -0.1145 -0.0045 -0.1011
v  -0.1145 0.0025 -0.1741
v  -0.1145 0.0006 -0.1758
v  -0.1196 -0.0064 -0.1384
v  -0.1207 -0.0045 -0.1055
v  -0.1207 -0.0045 -0.1384
v  -0.1196 -0.0064 -0.1725
v  -0.1180 -0.0064 -0.1384
v  -0.1196 0.0025 -0.1384
v  -0.1196 0.0025 -0.1041
v  -0.1180 0.0025 -0.1384
v  -0.1207 0.0006 -0.1712
v  -0.1207 0.0006 -0.1384
v  -0.1207 -0.0019 -0.1045
v  -0.1207 -0.0019 -0.1384
v  -0.1207 -0.0019 -0.1722
v  -0.1145 -0.0064 -0.1384
v  -0.1145 -0.0064 -0.1041
v  -0.1145 0.0025 -0.1384
v  -0.1145 0.0025 -0.1725
v  -0.1207 -0.0045 -0.1712
v  -0.1207 0.0006 -0.1055
v  -0.1207 -0.0045 -0.1041
v  -0.1207 0.0006 -0.1727
v  -0.1196 -0.0064 -0.0526
v  -0.1207 -0.0045 -0.0520
v  -0.1196 -0.0045 -0.0534
v  -0.1196 -0.0064 -0.0189
v  -0.1196 -0.0064 -0.0223
v  -0.1180 -0.0064 -0.0223
v  -0.1180 -0.0064 -0.0189
v  -0.1196 0.0025 -0.0189
v  -0.1196 0.0006 -0.0180
v  -0.1180 0.0006 -0.0180
v  -0.1180 0.0025 -0.0189
v  -0.1196 0.0025 -0.0526
v  -0.1196 0.0025 -0.0492
v  -0.1180 0.0025 -0.0492
v  -0.1180 0.0025 -0.0526
v  -0.1180 -0.0045 -0.0534
v  -0.1180 -0.0064 -0.0526
v  -0.1207 0.0006 -0.0195
v  -0.1196 -0.0045 -0.0180
v  -0.1180 -0.0045 -0.0180
v  -0.1196 0.0006 -0.0534
v  -0.1180 0.0006 -0.0534
v  -0.1207 -0.0019 -0.0524
v  -0.1196 -0.0019 -0.0537
v  -0.1145 0.0006 -0.0180
v  -0.1180 -0.0019 -0.0178
v  -0.1145 -0.0019 -0.0178
v  -0.1145 -0.0045 -0.0534
v  -0.1180 -0.0019 -0.0537
v  -0.1145 -0.0019 -0.0537
v  -0.1207 -0.0019 -0.0190
v  -0.1196 -0.0019 -0.0178
v  -0.1145 -0.0064 -0.0526
v  -0.1145 -0.0064 -0.0492
v  -0.1180 -0.0064 -0.0492
v  -0.1145 0.0025 -0.0189
v  -0.1145 0.0025 -0.0223
v  -0.1180 0.0025 -0.0223
v  -0.1145 -0.0064 -0.0189
v  -0.1145 -0.0045 -0.0180
v  -0.1145 0.0025 -0.0526
v  -0.1145 0.0006 -0.0534
v  -0.1196 -0.0064 -0.0357
v  -0.1207 -0.0045 -0.0221
v  -0.1207 -0.0045 -0.0357
v  -0.1196 -0.0064 -0.0492
v  -0.1180 -0.0064 -0.0357
v  -0.1196 0.0025 -0.0357
v  -0.1196 0.0025 -0.0223
v  -0.1180 0.0025 -0.0357
v  -0.1207 0.0006 -0.0494
v  -0.1207 0.0006 -0.0357
v  -0.1207 -0.0019 -0.0217
v  -0.1207 -0.0019 -0.0357
v  -0.1207 -0.0019 -0.0498
v  -0.1145 -0.0064 -0.0357
v  -0.1145 -0.0064 -0.0223
v  -0.1145 0.0025 -0.0357
v  -0.1145 0.0025 -0.0492
v  -0.1207 -0.0045 -0.0494
v  -0.1207 0.0006 -0.0221
v  -0.1207 -0.0045 -0.0195
v  -0.1207 0.0006 -0.0520
# 792 vertices

vn 0.1314 -0.9908 0.0327
vn 0.1096 -0.9907 0.0810
vn -0.0024 -1.0000 -0.0025
vn -0.0759 0.9080 0.4120
vn -0.0001 0.9236 0.3833
vn 0.0000 1.0000 0.0007
vn 0.0012 1.0000 -0.0013
vn -0.1911 -0.4911 0.8499
vn -0.0004 -0.5170 0.8560
vn -0.0003 -0.0013 1.0000
vn -0.2179 -0.0010 0.9760
vn 0.8443 -0.4880 0.2213
vn 0.8560 -0.5170 0.0005
vn 1.0000 -0.0013 0.0004
vn 0.9677 -0.0010 0.2520
vn 0.1911 -0.4911 -0.8499
vn 0.0004 -0.5170 -0.8560
vn 0.0003 -0.0013 -1.0000
vn 0.2179 -0.0010 -0.9760
vn -0.8443 -0.4880 -0.2213
vn -0.8560 -0.5170 -0.0005
vn -1.0000 -0.0013 -0.0004
vn -0.9677 -0.0010 -0.2520
vn 0.2035 0.3705 0.9063
vn 0.2179 -0.0010 0.9760
vn 0.5374 -0.0011 0.8433
vn 0.4958 0.3730 0.7843
vn -0.5374 -0.0011 0.8433
vn -0.4636 -0.4993 0.7320
vn 0.8989 0.3694 -0.2354
vn 0.9677 -0.0010 -0.2520
vn 0.8168 -0.0011 -0.5769
vn 0.7593 0.3746 -0.5321
vn 0.8168 -0.0011 0.5769
vn 0.7078 -0.5021 0.4968
vn -0.2035 0.3705 -0.9063
vn -0.2179 -0.0010 -0.9760
vn -0.5374 -0.0011 -0.8433
vn -0.4958 0.3730 -0.7843
vn 0.5374 -0.0011 -0.8433
vn 0.4636 -0.4993 -0.7320
vn -0.8989 0.3694 0.2354
vn -0.9677 -0.0010 0.2520
vn -0.8168 -0.0011 0.5769
vn -0.7593 0.3746 0.5321
vn -0.8168 -0.0011 -0.5769
vn -0.7078 -0.5021 -0.4968
vn 0.0000 -0.5170 0.8560
vn 0.0004 -0.5170 0.8560
vn 0.0003 -0.0013 1.0000
vn 0.0000 -0.0013 1.0000
vn 0.0000 -0.5170 -0.8560
vn -0.0004 -0.5170 -0.8560
vn -0.0003 -0.0013 -1.0000
vn 0.0000 -0.0013 -1.0000
vn 0.0000 0.9236 0.3833
vn 0.0001 0.9236 0.3833
vn -0.0000 1.0000 0.0007
vn 0.0000 -0.9923 0.1242
vn -0.0000 -1.0000 -0.0040
vn -0.0278 -0.9909 -0.1315
vn 0.0000 -0.9921 -0.1253
vn 0.0000 -1.0000 0.0040
vn 0.0024 -1.0000 0.0025
vn 0.0276 -0.9909 -0.1314
vn 0.0770 -0.9902 -0.1165
vn -0.0024 -1.0000 0.0025
vn 0.0000 -1.0000 -0.0000
vn 0.0038 -1.0000 0.0000
vn 0.1316 -0.9908 -0.0329
vn 0.1245 -0.9922 0.0001
vn -0.0038 -1.0000 -0.0000
vn 0.0275 -0.9911 0.1303
vn -0.0000 -0.9923 0.1242
vn 0.0000 -1.0000 -0.0040
vn -0.0000 -1.0000 0.0040
vn -0.0000 -0.9921 -0.1253
vn -0.0277 -0.9911 0.1305
vn -0.0768 -0.9903 0.1160
vn 0.0024 -1.0000 -0.0025
vn -0.1322 -0.9907 0.0328
vn -0.1253 -0.9921 -0.0001
vn 0.0038 -1.0000 -0.0000
vn -0.0773 -0.9901 -0.1168
vn -0.0012 1.0000 0.0013
vn -0.0000 1.0000 -0.0007
vn -0.0000 1.0000 -0.0000
vn 0.0007 1.0000 -0.0000
vn 0.0000 1.0000 -0.0000
vn 0.0759 0.9080 -0.4120
vn 0.0001 0.9236 -0.3833
vn 0.0000 0.9236 -0.3833
vn -0.0001 0.9236 -0.3833
vn -0.0759 0.9080 -0.4120
vn -0.2092 0.9141 -0.3475
vn 0.0012 1.0000 0.0013
vn -0.4134 0.9058 -0.0929
vn -0.3832 0.9237 -0.0001
vn -0.0007 1.0000 -0.0000
vn -0.2092 0.9140 0.3475
vn 0.0759 0.9080 0.4120
vn 0.2092 0.9141 0.3475
vn -0.0012 1.0000 -0.0013
vn 0.4134 0.9058 0.0929
vn 0.3832 0.9237 0.0001
vn 0.2092 0.9140 -0.3475
vn 0.8560 -0.5170 -0.0000
vn 0.8560 -0.5170 -0.0005
vn 1.0000 -0.0013 -0.0004
vn 1.0000 -0.0013 -0.0000
vn -0.8560 -0.5170 -0.0000
vn -0.8560 -0.5170 0.0005
vn -1.0000 -0.0013 0.0004
vn -1.0000 -0.0013 -0.0000
vn 0.1245 -0.9922 -0.0000
vn 0.1244 -0.9922 -0.0001
vn -0.1253 -0.9921 -0.0000
vn -0.1253 -0.9921 0.0001
vn -0.3833 0.9236 -0.0000
vn -0.3832 0.9237 0.0001
vn 0.3833 0.9236 -0.0000
vn 0.3832 0.9237 -0.0001
vn 0.1911 -0.4911 0.8499
vn -0.1911 -0.4911 -0.8499
vn 0.8443 -0.4880 -0.2213
vn -0.8443 -0.4880 0.2213
vn -0.1324 -0.9906 -0.0330
vn -0.4134 0.9058 0.0929
vn 0.4134 0.9058 -0.0929
vn -0.0724 -0.9894 0.1257
vn -0.0215 -0.9866 0.1618
vn -0.6021 -0.5059 0.6176
vn -0.7078 -0.5021 0.4968
vn -0.1167 -0.9902 0.0769
vn -0.0901 -0.9916 0.0924
vn -0.1136 -0.9935 -0.0001
vn -0.1678 -0.9854 0.0302
vn -0.1138 -0.9935 -0.0000
vn -0.1136 -0.9935 0.0001
vn -0.1681 -0.9853 -0.0302
vn -0.1171 -0.9901 -0.0772
vn -0.6021 -0.5059 -0.6176
vn -0.4636 -0.4993 -0.7320
vn -0.0729 -0.9893 -0.1264
vn -0.0906 -0.9915 -0.0929
vn 0.0000 -0.9935 -0.1138
vn -0.0217 -0.9865 -0.1626
vn 0.0000 -0.9935 -0.1139
vn -0.0000 -0.9935 -0.1138
vn 0.0218 -0.9865 -0.1624
vn 0.0727 -0.9894 -0.1260
vn 0.6021 -0.5059 -0.6176
vn 0.7078 -0.5021 -0.4968
vn 0.1167 -0.9902 -0.0768
vn 0.0902 -0.9916 -0.0925
vn 0.1128 -0.9936 0.0001
vn 0.1675 -0.9854 -0.0300
vn 0.1130 -0.9936 -0.0000
vn 0.1128 -0.9936 -0.0001
vn 0.1673 -0.9855 0.0301
vn 0.1162 -0.9903 0.0765
vn 0.6021 -0.5059 0.6176
vn 0.4636 -0.4993 0.7320
vn 0.0722 -0.9895 0.1254
vn 0.0897 -0.9917 0.0920
vn -0.0000 -0.9936 0.1127
vn 0.0216 -0.9866 0.1616
vn 0.0000 -0.9936 0.1129
vn 0.0000 -0.9936 0.1127
vn 0.0934 -0.9910 -0.0959
vn 0.1101 -0.9906 -0.0814
vn 0.0929 -0.9911 0.0953
vn 0.0765 -0.9903 0.1156
vn -0.0934 -0.9910 0.0957
vn -0.1102 -0.9906 0.0814
vn -0.0939 -0.9909 -0.0963
vn -0.1107 -0.9905 -0.0818
vn -0.2035 0.3705 0.9063
vn -0.0004 0.3821 0.9241
vn 0.0000 0.3821 0.9241
vn 0.0004 0.3821 0.9241
vn 0.2035 0.3705 -0.9063
vn 0.0004 0.3821 -0.9241
vn 0.0000 0.3821 -0.9241
vn -0.0004 0.3821 -0.9241
vn -0.2761 0.9184 -0.2833
vn -0.6470 0.3755 -0.6636
vn -0.3322 0.9161 -0.2247
vn -0.7593 0.3746 -0.5321
vn -0.8989 0.3694 -0.2354
vn -0.9241 0.3821 -0.0005
vn -0.2761 0.9184 0.2833
vn -0.3322 0.9161 0.2247
vn -0.6470 0.3755 0.6636
vn -0.4958 0.3730 0.7843
vn 0.2761 0.9184 0.2833
vn 0.6470 0.3755 0.6636
vn 0.3322 0.9161 0.2247
vn 0.7593 0.3746 0.5321
vn 0.8989 0.3694 0.2354
vn 0.9241 0.3821 0.0005
vn 0.2761 0.9184 -0.2833
vn 0.3322 0.9161 -0.2247
vn 0.6470 0.3755 -0.6636
vn 0.4958 0.3730 -0.7843
vn -0.9241 0.3821 -0.0000
vn -0.9241 0.3821 0.0005
vn 0.9241 0.3821 -0.0000
vn 0.9241 0.3821 -0.0005
vn 0.6981 -0.0012 0.7160
vn -0.6981 -0.0012 0.7160
vn 0.6981 -0.0012 -0.7160
vn -0.6981 -0.0012 -0.7160
vn 0.9963 0.0863 -0.0000
vn 0.8628 0.0863 -0.4981
vn 0.6749 0.6266 -0.3897
vn 0.7793 0.6266 -0.0000
vn 0.4981 0.0863 -0.8628
vn 0.3897 0.6266 -0.6749
vn 0.0000 0.0863 -0.9963
vn 0.0000 0.6266 -0.7793
vn -0.4981 0.0863 -0.8628
vn -0.3897 0.6266 -0.6749
vn -0.8628 0.0863 -0.4981
vn -0.6749 0.6266 -0.3897
vn -0.9963 0.0863 0.0000
vn -0.7793 0.6266 -0.0000
vn -0.8628 0.0863 0.4981
vn -0.6749 0.6266 0.3897
vn -0.4981 0.0863 0.8628
vn -0.3897 0.6266 0.6749
vn -0.0000 0.0863 0.9963
vn -0.0000 0.6266 0.7793
vn 0.4981 0.0863 0.8628
vn 0.3897 0.6266 0.6749
vn 0.8628 0.0863 0.4981
vn 0.6749 0.6266 0.3897
vn -0.0524 0.9982 0.0302
vn -0.0605 0.9982 0.0000
vn -0.0302 0.9982 0.0524
vn 0.0000 0.9982 0.0605
vn 0.0302 0.9982 0.0524
vn 0.0524 0.9982 0.0302
vn 0.0605 0.9982 0.0000
vn 0.0524 0.9982 -0.0302
vn 0.0302 0.9982 -0.0524
vn -0.0000 0.9982 -0.0605
vn -0.0302 0.9982 -0.0524
vn -0.0524 0.9982 -0.0302
vn 0.0000 1.0000 0.0000
vn 0.9994 0.0340 -0.0000
vn 0.9233 0.0340 -0.3825
vn 0.6812 0.6755 -0.2822
vn 0.7374 0.6755 -0.0000
vn 0.7067 0.0340 -0.7067
vn 0.5214 0.6755 -0.5214
vn 0.3825 0.0340 -0.9233
vn 0.2822 0.6755 -0.6812
vn 0.0000 0.0340 -0.9994
vn 0.0000 0.6755 -0.7374
vn -0.3825 0.0340 -0.9233
vn -0.2822 0.6755 -0.6812
vn -0.7067 0.0340 -0.7067
vn -0.5214 0.6755 -0.5214
vn -0.9233 0.0340 -0.3825
vn -0.6812 0.6755 -0.2822
vn -0.9994 0.0340 0.0000
vn -0.7374 0.6755 -0.0000
vn -0.9233 0.0340 0.3825
vn -0.6812 0.6755 0.2822
vn -0.7067 0.0340 0.7067
vn -0.5214 0.6755 0.5214
vn -0.3825 0.0340 0.9233
vn -0.2822 0.6755 0.6812
vn 0.0000 0.0340 0.9994
vn 0.0000 0.6755 0.7374
vn 0.3825 0.0340 0.9233
vn 0.2822 0.6755 0.6812
vn 0.7067 0.0340 0.7067
vn 0.5214 0.6755 0.5214
vn 0.9233 0.0340 0.3825
vn 0.6812 0.6755 0.2822
vn 0.5255 0.8225 -0.2177
vn 0.5688 0.8225 0.0000
vn 0.4022 0.8225 -0.4022
vn 0.2177 0.8225 -0.5255
vn 0.0000 0.8225 -0.5688
vn -0.2177 0.8225 -0.5255
vn -0.4022 0.8225 -0.4022
vn -0.5255 0.8225 -0.2177
vn -0.5688 0.8225 -0.0000
vn -0.5255 0.8225 0.2177
vn -0.4022 0.8225 0.4022
vn -0.2177 0.8225 0.5255
vn -0.0000 0.8225 0.5688
vn 0.2177 0.8225 0.5255
vn 0.4022 0.8225 0.4022
vn 0.5255 0.8225 0.2177
vn 0.6146 0.7466 -0.2546
vn 0.6653 0.7466 -0.0000
vn 0.4704 0.7466 -0.4704
vn 0.2546 0.7466 -0.6146
vn -0.0000 0.7466 -0.6653
vn -0.2546 0.7466 -0.6146
vn -0.4704 0.7466 -0.4704
vn -0.6146 0.7466 -0.2546
vn -0.6653 0.7466 0.0000
vn -0.6146 0.7466 0.2546
vn -0.4704 0.7466 0.4704
vn -0.2546 0.7466 0.6146
vn 0.0000 0.7466 0.6653
vn 0.2546 0.7466 0.6146
vn 0.4704 0.7466 0.4704
vn 0.6146 0.7466 0.2546
vn -0.3626 0.9198 0.1502
vn -0.3925 0.9198 0.0000
vn -0.2775 0.9198 0.2775
vn -0.1502 0.9198 0.3626
vn 0.0000 0.9198 0.3925
vn 0.1502 0.9198 0.3626
vn 0.2775 0.9198 0.2775
vn 0.3626 0.9198 0.1502
vn 0.3925 0.9198 -0.0000
vn 0.3626 0.9198 -0.1502
vn 0.2775 0.9198 -0.2775
vn 0.1502 0.9198 -0.3626
vn -0.0000 0.9198 -0.3925
vn -0.1502 0.9198 -0.3626
vn -0.2775 0.9198 -0.2775
vn -0.3626 0.9198 -0.1502
vn -0.4234 0.8888 0.1754
vn -0.4583 0.8888 -0.0000
vn -0.3241 0.8888 0.3241
vn -0.1754 0.8888 0.4234
vn 0.0000 0.8888 0.4583
vn 0.1754 0.8888 0.4234
vn 0.3241 0.8888 0.3241
vn 0.4234 0.8888 0.1754
vn 0.4583 0.8888 -0.0000
vn 0.4234 0.8888 -0.1754
vn 0.3241 0.8888 -0.3241
vn 0.1754 0.8888 -0.4234
vn -0.0000 0.8888 -0.4583
vn -0.1754 0.8888 -0.4234
vn -0.3241 0.8888 -0.3241
vn -0.4234 0.8888 -0.1754
vn -0.2466 0.9637 0.1022
vn -0.2670 0.9637 0.0000
vn -0.1888 0.9637 0.1888
vn -0.1022 0.9637 0.2466
vn -0.0000 0.9637 0.2670
vn 0.1022 0.9637 0.2466
vn 0.1888 0.9637 0.1888
vn 0.2466 0.9637 0.1022
vn 0.2670 0.9637 0.0000
vn 0.2466 0.9637 -0.1022
vn 0.1888 0.9637 -0.1888
vn 0.1022 0.9637 -0.2466
vn 0.0000 0.9637 -0.2670
vn -0.1022 0.9637 -0.2466
vn -0.1888 0.9637 -0.1888
vn -0.2466 0.9637 -0.1022
vn -0.3569 0.9224 0.1478
vn -0.3863 0.9224 0.0000
vn -0.2732 0.9224 0.2732
vn -0.1478 0.9224 0.3569
vn -0.0000 0.9224 0.3863
vn 0.1478 0.9224 0.3569
vn 0.2732 0.9224 0.2732
vn 0.3569 0.9224 0.1478
vn 0.3863 0.9224 -0.0000
vn 0.3569 0.9224 -0.1478
vn 0.2732 0.9224 -0.2732
vn 0.1478 0.9224 -0.3569
vn 0.0000 0.9224 -0.3863
vn -0.1478 0.9224 -0.3569
vn -0.2732 0.9224 -0.2732
vn -0.3569 0.9224 -0.1478
vn -0.0000 0.0340 -0.9994
vn -0.9994 0.0340 -0.0000
vn -0.0000 0.8225 -0.5688
vn -0.5688 0.8225 0.0000
vn -0.6653 0.7466 -0.0000
vn -0.0000 0.7466 0.6653
vn 0.0000 0.9198 -0.3925
vn -0.4583 0.8888 0.0000
vn 0.4583 0.8888 0.0000
vn 0.0000 0.8888 -0.4583
vn 0.0000 0.9637 0.2670
vn 0.0000 0.9224 0.3863
vn 0.3863 0.9224 0.0000
vn 0.0000 0.8225 0.5688
vn 0.0000 0.7466 -0.6653
vn 0.3925 0.9198 0.0000
vn -0.2670 0.9637 -0.0000
vn 0.2670 0.9637 -0.0000
vn -0.3863 0.9224 -0.0000
vn -0.4801 -0.7993 -0.3614
vn -0.9621 -0.2466 -0.1163
vn -0.5253 -0.3813 -0.7607
vn -0.4802 -0.7993 0.3613
vn -0.5019 -0.8649 -0.0000
vn 0.0000 -0.9148 0.4040
vn -0.4802 0.7993 0.3613
vn -0.5253 0.3813 0.7607
vn -0.0000 0.4611 0.8874
vn 0.0000 0.9148 0.4040
vn -0.4801 0.7993 -0.3614
vn -0.5019 0.8649 -0.0000
vn 0.0000 0.9148 -0.4040
vn 0.0000 -0.4611 -0.8874
vn 0.0000 -0.9148 -0.4040
vn -0.9621 0.2466 0.1163
vn -0.5254 -0.3813 0.7607
vn 0.0000 -0.4610 0.8874
vn -0.5253 0.3813 -0.7607
vn -0.0000 0.4610 -0.8874
vn -0.9714 0.0000 -0.2375
vn -0.5233 0.0000 -0.8522
vn 0.0000 0.4611 0.8874
vn 0.0000 -0.0000 1.0000
vn 0.0000 0.0000 -1.0000
vn -0.9714 -0.0000 0.2375
vn -0.5233 0.0000 0.8522
vn -0.0000 0.4611 -0.8874
vn -0.9665 -0.2567 0.0000
vn -0.9665 0.2567 0.0000
vn -1.0000 0.0000 -0.0000
vn -0.9665 0.2567 -0.0000
vn -0.9621 -0.2466 0.1163
vn -0.9621 0.2466 -0.1163
vn -0.4425 -0.7567 -0.4812
vn -0.9370 -0.2361 -0.2575
vn -0.4249 -0.2238 -0.8771
vn -0.4425 -0.7567 0.4812
vn 0.0000 -0.8355 0.5495
vn -0.4425 0.7567 0.4812
vn -0.4249 0.2238 0.8771
vn -0.0000 0.2534 0.9674
vn 0.0000 0.8355 0.5495
vn -0.4425 0.7567 -0.4812
vn 0.0000 0.8355 -0.5495
vn 0.0000 -0.2534 -0.9674
vn 0.0000 -0.8355 -0.5495
vn -0.9370 0.2361 0.2575
vn -0.4249 -0.2238 0.8771
vn 0.0000 -0.2534 0.9674
vn -0.4249 0.2238 -0.8771
vn -0.0000 0.2534 -0.9674
vn -0.9228 0.0000 -0.3852
vn -0.4041 0.0000 -0.9147
vn 0.0000 0.2534 0.9674
vn -0.9228 -0.0000 0.3852
vn -0.4041 0.0000 0.9147
vn -0.9370 -0.2361 0.2575
vn -0.9370 0.2361 -0.2575
# 456 vertex normals

vt 0.9715 0.7701 0.0000
vt 0.9794 0.7742 0.0000
vt 0.9738 0.7903 0.0000
vt 0.0468 0.9267 0.0000
vt 0.0434 0.9027 0.0000
vt 0.0667 0.9009 0.0000
vt 0.0681 0.9257 0.0000
vt 0.0268 0.9369 0.0000
vt 0.0189 0.9068 0.0000
vt 0.0300 0.9049 0.0000
vt 0.0357 0.9321 0.0000
vt 0.0597 0.7191 0.0000
vt 0.0852 0.7120 0.0000
vt 0.0863 0.7233 0.0000
vt 0.0641 0.7280 0.0000
vt 0.5107 0.7536 0.0000
vt 0.5186 0.7837 0.0000
vt 0.5074 0.7856 0.0000
vt 0.5018 0.7584 0.0000
vt 0.4778 0.9715 0.0000
vt 0.4523 0.9785 0.0000
vt 0.4512 0.9673 0.0000
vt 0.4734 0.9625 0.0000
vt 0.0461 0.7593 0.0000
vt 0.0374 0.7547 0.0000
vt 0.0415 0.7466 0.0000
vt 0.0499 0.7528 0.0000
vt 0.0400 0.9402 0.0000
vt 0.0316 0.9462 0.0000
vt 0.4710 0.7406 0.0000
vt 0.4751 0.7318 0.0000
vt 0.4844 0.7366 0.0000
vt 0.4782 0.7451 0.0000
vt 0.0549 0.7331 0.0000
vt 0.0490 0.7245 0.0000
vt 0.4913 0.9313 0.0000
vt 0.5000 0.9359 0.0000
vt 0.4960 0.9440 0.0000
vt 0.4876 0.9377 0.0000
vt 0.4974 0.7503 0.0000
vt 0.5059 0.7443 0.0000
vt 0.0664 0.9499 0.0000
vt 0.0623 0.9587 0.0000
vt 0.0531 0.9539 0.0000
vt 0.0593 0.9454 0.0000
vt 0.4826 0.9574 0.0000
vt 0.4885 0.9660 0.0000
vt 0.0165 0.8433 0.0000
vt 0.0197 0.7798 0.0000
vt 0.0307 0.7819 0.0000
vt 0.0279 0.8434 0.0000
vt 0.5211 0.8473 0.0000
vt 0.5177 0.9109 0.0000
vt 0.5067 0.9087 0.0000
vt 0.5096 0.8472 0.0000
vt 0.0417 0.8434 0.0000
vt 0.0441 0.7842 0.0000
vt 0.0676 0.7863 0.0000
vt 0.0659 0.8437 0.0000
vt 0.9934 0.8781 0.0000
vt 0.9934 0.9386 0.0000
vt 0.9739 0.9387 0.0000
vt 0.9738 0.8781 0.0000
vt 0.5344 0.9637 0.0000
vt 0.5344 0.9387 0.0000
vt 0.5539 0.9387 0.0000
vt 0.5539 0.9660 0.0000
vt 0.5343 0.7926 0.0000
vt 0.5373 0.7855 0.0000
vt 0.5538 0.7903 0.0000
vt 0.5762 0.9387 0.0000
vt 0.5762 0.9660 0.0000
vt 0.5562 0.7701 0.0000
vt 0.5762 0.7701 0.0000
vt 0.5762 0.7903 0.0000
vt 0.9934 0.7925 0.0000
vt 0.9933 0.8176 0.0000
vt 0.9738 0.8176 0.0000
vt 0.9515 0.8176 0.0000
vt 0.9515 0.7903 0.0000
vt 0.5538 0.8176 0.0000
vt 0.5344 0.8176 0.0000
vt 0.9934 0.9637 0.0000
vt 0.9904 0.9707 0.0000
vt 0.9739 0.9659 0.0000
vt 0.9715 0.9862 0.0000
vt 0.9515 0.9861 0.0000
vt 0.9515 0.9659 0.0000
vt 0.5373 0.9707 0.0000
vt 0.4695 0.7647 0.0000
vt 0.4707 0.7897 0.0000
vt 0.4494 0.7895 0.0000
vt 0.4497 0.7636 0.0000
vt 0.0879 0.8438 0.0000
vt 0.0881 0.9011 0.0000
vt 0.4907 0.7638 0.0000
vt 0.4941 0.7878 0.0000
vt 0.4716 0.8469 0.0000
vt 0.4959 0.8471 0.0000
vt 0.4933 0.9064 0.0000
vt 0.4700 0.9042 0.0000
vt 0.4896 0.9302 0.0000
vt 0.4860 0.9366 0.0000
vt 0.4682 0.9289 0.0000
vt 0.4686 0.9513 0.0000
vt 0.4498 0.9539 0.0000
vt 0.4486 0.9299 0.0000
vt 0.0502 0.9331 0.0000
vt 0.0479 0.7604 0.0000
vt 0.0514 0.7540 0.0000
vt 0.0693 0.7616 0.0000
vt 0.0689 0.7393 0.0000
vt 0.0876 0.7366 0.0000
vt 0.0889 0.7606 0.0000
vt 0.4873 0.7574 0.0000
vt 0.2699 0.7104 0.0000
vt 0.4542 0.7150 0.0000
vt 0.4529 0.7262 0.0000
vt 0.2698 0.7218 0.0000
vt 0.2676 0.9802 0.0000
vt 0.0832 0.9756 0.0000
vt 0.0845 0.9644 0.0000
vt 0.2677 0.9688 0.0000
vt 0.7638 0.8781 0.0000
vt 0.9515 0.8781 0.0000
vt 0.9515 0.9387 0.0000
vt 0.7639 0.9387 0.0000
vt 0.7639 0.7701 0.0000
vt 0.9515 0.7701 0.0000
vt 0.7638 0.7903 0.0000
vt 0.5762 0.8781 0.0000
vt 0.5762 0.8176 0.0000
vt 0.7638 0.8176 0.0000
vt 0.7639 0.9861 0.0000
vt 0.5762 0.9862 0.0000
vt 0.7639 0.9659 0.0000
vt 0.2687 0.8453 0.0000
vt 0.0889 0.7865 0.0000
vt 0.2693 0.7865 0.0000
vt 0.4496 0.8467 0.0000
vt 0.4486 0.9040 0.0000
vt 0.2681 0.9041 0.0000
vt 0.2677 0.9551 0.0000
vt 0.0860 0.9510 0.0000
vt 0.0877 0.9270 0.0000
vt 0.2680 0.9306 0.0000
vt 0.2697 0.7354 0.0000
vt 0.4514 0.7396 0.0000
vt 0.2695 0.7599 0.0000
vt 0.0279 0.7497 0.0000
vt 0.5095 0.9409 0.0000
vt 0.5344 0.8781 0.0000
vt 0.5538 0.8781 0.0000
vt 0.4797 0.7222 0.0000
vt 0.0578 0.9683 0.0000
vt 0.5562 0.9862 0.0000
vt 0.0674 0.9481 0.0000
vt 0.4700 0.7424 0.0000
vt 0.0287 0.9479 0.0000
vt 0.0234 0.9376 0.0000
vt 0.0386 0.9553 0.0000
vt 0.0472 0.9624 0.0000
vt 0.0453 0.9652 0.0000
vt 0.0362 0.9576 0.0000
vt 0.0829 0.9791 0.0000
vt 0.0570 0.9716 0.0000
vt 0.2675 0.9838 0.0000
vt 0.4526 0.9821 0.0000
vt 0.4785 0.9748 0.0000
vt 0.4903 0.9689 0.0000
vt 0.4972 0.9590 0.0000
vt 0.5043 0.9500 0.0000
vt 0.5072 0.9518 0.0000
vt 0.4996 0.9614 0.0000
vt 0.5213 0.9114 0.0000
vt 0.5128 0.9416 0.0000
vt 0.5247 0.8473 0.0000
vt 0.5221 0.7832 0.0000
vt 0.5140 0.7529 0.0000
vt 0.5088 0.7426 0.0000
vt 0.4989 0.7352 0.0000
vt 0.4902 0.7281 0.0000
vt 0.4921 0.7253 0.0000
vt 0.5013 0.7329 0.0000
vt 0.4546 0.7114 0.0000
vt 0.4804 0.7189 0.0000
vt 0.2700 0.7068 0.0000
vt 0.0849 0.7084 0.0000
vt 0.0590 0.7157 0.0000
vt 0.0471 0.7217 0.0000
vt 0.0402 0.7315 0.0000
vt 0.0331 0.7406 0.0000
vt 0.0302 0.7388 0.0000
vt 0.0379 0.7292 0.0000
vt 0.0161 0.7792 0.0000
vt 0.0246 0.7489 0.0000
vt 0.0129 0.8433 0.0000
vt 0.0153 0.9073 0.0000
vt 0.0340 0.9597 0.0000
vt 0.0259 0.9494 0.0000
vt 0.0565 0.9749 0.0000
vt 0.0435 0.9678 0.0000
vt 0.0826 0.9824 0.0000
vt 0.2675 0.9870 0.0000
vt 0.4527 0.9854 0.0000
vt 0.4789 0.9781 0.0000
vt 0.5017 0.9635 0.0000
vt 0.4920 0.9715 0.0000
vt 0.5161 0.9420 0.0000
vt 0.5099 0.9534 0.0000
vt 0.5245 0.9119 0.0000
vt 0.5279 0.8473 0.0000
vt 0.5254 0.7828 0.0000
vt 0.5174 0.7525 0.0000
vt 0.5035 0.7308 0.0000
vt 0.5115 0.7410 0.0000
vt 0.4809 0.7156 0.0000
vt 0.4939 0.7227 0.0000
vt 0.4548 0.7082 0.0000
vt 0.2700 0.7036 0.0000
vt 0.0848 0.7052 0.0000
vt 0.0585 0.7124 0.0000
vt 0.0357 0.7271 0.0000
vt 0.0454 0.7191 0.0000
vt 0.0213 0.7486 0.0000
vt 0.0275 0.7372 0.0000
vt 0.0129 0.7787 0.0000
vt 0.0097 0.8432 0.0000
vt 0.0121 0.9077 0.0000
vt 0.0201 0.9379 0.0000
vt 0.0450 0.9277 0.0000
vt 0.0412 0.9030 0.0000
vt 0.0394 0.8434 0.0000
vt 0.0419 0.7839 0.0000
vt 0.4924 0.7628 0.0000
vt 0.4963 0.7875 0.0000
vt 0.4981 0.8471 0.0000
vt 0.4955 0.9067 0.0000
vt 0.4812 0.9424 0.0000
vt 0.4826 0.9439 0.0000
vt 0.4756 0.9470 0.0000
vt 0.4767 0.9487 0.0000
vt 0.4695 0.9531 0.0000
vt 0.4500 0.9561 0.0000
vt 0.0549 0.9390 0.0000
vt 0.0604 0.9437 0.0000
vt 0.0534 0.9404 0.0000
vt 0.0486 0.9342 0.0000
vt 0.0563 0.7482 0.0000
vt 0.0548 0.7467 0.0000
vt 0.0618 0.7435 0.0000
vt 0.0608 0.7419 0.0000
vt 0.0679 0.7375 0.0000
vt 0.0875 0.7344 0.0000
vt 0.4826 0.7515 0.0000
vt 0.4771 0.7467 0.0000
vt 0.4841 0.7500 0.0000
vt 0.4889 0.7563 0.0000
vt 0.2677 0.9574 0.0000
vt 0.0858 0.9532 0.0000
vt 0.2698 0.7332 0.0000
vt 0.4516 0.7374 0.0000
vt 0.9852 0.9769 0.0000
vt 0.9794 0.9820 0.0000
vt 0.9852 0.7793 0.0000
vt 0.9904 0.7855 0.0000
vt 0.5425 0.7793 0.0000
vt 0.5484 0.7742 0.0000
vt 0.5484 0.9821 0.0000
vt 0.5425 0.9769 0.0000
vt 0.0479 0.7394 0.0000
vt 0.0463 0.9475 0.0000
vt 0.4912 0.7429 0.0000
vt 0.4896 0.9512 0.0000
vt 0.5890 0.7436 0.0000
vt 0.5735 0.7577 0.0000
vt 0.5693 0.7492 0.0000
vt 0.5811 0.7383 0.0000
vt 0.5529 0.7621 0.0000
vt 0.5535 0.7527 0.0000
vt 0.5329 0.7557 0.0000
vt 0.5382 0.7478 0.0000
vt 0.5188 0.7401 0.0000
vt 0.5273 0.7360 0.0000
vt 0.5143 0.7196 0.0000
vt 0.5238 0.7202 0.0000
vt 0.5208 0.6996 0.0000
vt 0.5286 0.7049 0.0000
vt 0.5363 0.6855 0.0000
vt 0.5405 0.6940 0.0000
vt 0.5569 0.6810 0.0000
vt 0.5562 0.6905 0.0000
vt 0.5769 0.6874 0.0000
vt 0.5716 0.6953 0.0000
vt 0.5910 0.7030 0.0000
vt 0.5825 0.7072 0.0000
vt 0.5955 0.7236 0.0000
vt 0.5860 0.7229 0.0000
vt 0.5654 0.7417 0.0000
vt 0.5740 0.7338 0.0000
vt 0.5539 0.7442 0.0000
vt 0.5427 0.7407 0.0000
vt 0.5348 0.7321 0.0000
vt 0.5322 0.7206 0.0000
vt 0.5358 0.7094 0.0000
vt 0.5444 0.7015 0.0000
vt 0.5559 0.6989 0.0000
vt 0.5671 0.7024 0.0000
vt 0.5750 0.7111 0.0000
vt 0.5776 0.7226 0.0000
vt 0.5549 0.7216 0.0000
vt 0.3791 0.6684 0.0000
vt 0.3603 0.6873 0.0000
vt 0.3536 0.6771 0.0000
vt 0.3691 0.6615 0.0000
vt 0.3356 0.6975 0.0000
vt 0.3333 0.6856 0.0000
vt 0.3089 0.6976 0.0000
vt 0.3114 0.6857 0.0000
vt 0.2842 0.6874 0.0000
vt 0.2910 0.6773 0.0000
vt 0.2653 0.6685 0.0000
vt 0.2755 0.6618 0.0000
vt 0.2550 0.6438 0.0000
vt 0.2670 0.6416 0.0000
vt 0.2550 0.6171 0.0000
vt 0.2669 0.6196 0.0000
vt 0.2652 0.5925 0.0000
vt 0.2753 0.5993 0.0000
vt 0.2841 0.5736 0.0000
vt 0.2907 0.5837 0.0000
vt 0.3087 0.5633 0.0000
vt 0.3110 0.5752 0.0000
vt 0.3354 0.5633 0.0000
vt 0.3330 0.5752 0.0000
vt 0.3601 0.5735 0.0000
vt 0.3533 0.5835 0.0000
vt 0.3790 0.5923 0.0000
vt 0.3689 0.5990 0.0000
vt 0.3893 0.6170 0.0000
vt 0.3773 0.6193 0.0000
vt 0.3893 0.6437 0.0000
vt 0.3774 0.6412 0.0000
vt 0.3500 0.6718 0.0000
vt 0.3637 0.6580 0.0000
vt 0.3320 0.6793 0.0000
vt 0.3126 0.6793 0.0000
vt 0.2946 0.6719 0.0000
vt 0.2808 0.6582 0.0000
vt 0.2733 0.6403 0.0000
vt 0.2733 0.6208 0.0000
vt 0.2806 0.6029 0.0000
vt 0.2943 0.5891 0.0000
vt 0.3123 0.5816 0.0000
vt 0.3317 0.5815 0.0000
vt 0.3497 0.5889 0.0000
vt 0.3635 0.6026 0.0000
vt 0.3710 0.6205 0.0000
vt 0.3711 0.6400 0.0000
vt 0.3483 0.6693 0.0000
vt 0.3612 0.6563 0.0000
vt 0.3314 0.6763 0.0000
vt 0.3132 0.6764 0.0000
vt 0.2963 0.6694 0.0000
vt 0.2833 0.6566 0.0000
vt 0.2763 0.6397 0.0000
vt 0.2762 0.6214 0.0000
vt 0.2831 0.6045 0.0000
vt 0.2960 0.5916 0.0000
vt 0.3129 0.5845 0.0000
vt 0.3311 0.5845 0.0000
vt 0.3480 0.5914 0.0000
vt 0.3610 0.6043 0.0000
vt 0.3681 0.6211 0.0000
vt 0.3681 0.6394 0.0000
vt 0.3445 0.6635 0.0000
vt 0.3554 0.6525 0.0000
vt 0.3301 0.6696 0.0000
vt 0.3145 0.6696 0.0000
vt 0.3001 0.6637 0.0000
vt 0.2890 0.6527 0.0000
vt 0.2830 0.6383 0.0000
vt 0.2830 0.6227 0.0000
vt 0.2889 0.6083 0.0000
vt 0.2999 0.5973 0.0000
vt 0.3142 0.5913 0.0000
vt 0.3298 0.5912 0.0000
vt 0.3442 0.5971 0.0000
vt 0.3553 0.6081 0.0000
vt 0.3613 0.6225 0.0000
vt 0.3613 0.6381 0.0000
vt 0.3413 0.6589 0.0000
vt 0.3508 0.6494 0.0000
vt 0.3290 0.6641 0.0000
vt 0.3156 0.6641 0.0000
vt 0.3032 0.6590 0.0000
vt 0.2937 0.6496 0.0000
vt 0.2885 0.6372 0.0000
vt 0.2885 0.6238 0.0000
vt 0.2935 0.6115 0.0000
vt 0.3030 0.6019 0.0000
vt 0.3153 0.5968 0.0000
vt 0.3287 0.5967 0.0000
vt 0.3411 0.6018 0.0000
vt 0.3506 0.6112 0.0000
vt 0.3558 0.6236 0.0000
vt 0.3558 0.6370 0.0000
vt 0.3311 0.6437 0.0000
vt 0.3355 0.6392 0.0000
vt 0.3254 0.6461 0.0000
vt 0.3191 0.6462 0.0000
vt 0.3133 0.6438 0.0000
vt 0.3089 0.6394 0.0000
vt 0.3065 0.6336 0.0000
vt 0.3064 0.6274 0.0000
vt 0.3088 0.6216 0.0000
vt 0.3132 0.6171 0.0000
vt 0.3189 0.6147 0.0000
vt 0.3252 0.6147 0.0000
vt 0.3310 0.6170 0.0000
vt 0.3354 0.6214 0.0000
vt 0.3379 0.6272 0.0000
vt 0.3379 0.6334 0.0000
vt 0.3265 0.6367 0.0000
vt 0.3286 0.6345 0.0000
vt 0.3238 0.6379 0.0000
vt 0.3208 0.6379 0.0000
vt 0.3180 0.6368 0.0000
vt 0.3159 0.6348 0.0000
vt 0.3147 0.6320 0.0000
vt 0.3147 0.6291 0.0000
vt 0.3157 0.6263 0.0000
vt 0.3178 0.6242 0.0000
vt 0.3205 0.6230 0.0000
vt 0.3235 0.6229 0.0000
vt 0.3263 0.6240 0.0000
vt 0.3284 0.6261 0.0000
vt 0.3296 0.6288 0.0000
vt 0.3297 0.6318 0.0000
vt 0.3222 0.6304 0.0000
vt 0.9831 0.7528 0.0000
vt 0.9805 0.7495 0.0000
vt 0.9858 0.7494 0.0000
vt 0.8456 0.7526 0.0000
vt 0.8473 0.7533 0.0000
vt 0.8468 0.7563 0.0000
vt 0.8445 0.7548 0.0000
vt 0.8456 0.7368 0.0000
vt 0.8429 0.7402 0.0000
vt 0.8409 0.7391 0.0000
vt 0.8442 0.7345 0.0000
vt 0.9831 0.7371 0.0000
vt 0.9810 0.7362 0.0000
vt 0.9815 0.7332 0.0000
vt 0.9843 0.7349 0.0000
vt 0.9879 0.7505 0.0000
vt 0.9845 0.7550 0.0000
vt 0.8482 0.7402 0.0000
vt 0.8432 0.7492 0.0000
vt 0.8408 0.7506 0.0000
vt 0.9856 0.7405 0.0000
vt 0.9879 0.7391 0.0000
vt 0.9821 0.7449 0.0000
vt 0.9866 0.7448 0.0000
vt 0.8361 0.7363 0.0000
vt 0.8396 0.7449 0.0000
vt 0.8341 0.7447 0.0000
vt 0.9927 0.7533 0.0000
vt 0.9892 0.7448 0.0000
vt 0.9947 0.7449 0.0000
vt 0.8466 0.7447 0.0000
vt 0.8421 0.7448 0.0000
vt 0.9873 0.7599 0.0000
vt 0.9827 0.7630 0.0000
vt 0.9815 0.7566 0.0000
vt 0.8417 0.7295 0.0000
vt 0.8456 0.7268 0.0000
vt 0.8467 0.7332 0.0000
vt 0.8415 0.7603 0.0000
vt 0.8360 0.7532 0.0000
vt 0.9875 0.7296 0.0000
vt 0.9928 0.7365 0.0000
vt 0.9144 0.7543 0.0000
vt 0.8503 0.7494 0.0000
vt 0.9144 0.7500 0.0000
vt 0.9810 0.7536 0.0000
vt 0.9144 0.7576 0.0000
vt 0.9144 0.7353 0.0000
vt 0.8473 0.7361 0.0000
vt 0.9144 0.7320 0.0000
vt 0.9779 0.7402 0.0000
vt 0.9144 0.7397 0.0000
vt 0.8486 0.7447 0.0000
vt 0.9144 0.7448 0.0000
vt 0.9797 0.7449 0.0000
vt 0.9143 0.7645 0.0000
vt 0.8456 0.7628 0.0000
vt 0.9144 0.7251 0.0000
vt 0.9827 0.7268 0.0000
vt 0.9780 0.7496 0.0000
vt 0.8503 0.7401 0.0000
vt 0.8482 0.7493 0.0000
vt 0.9805 0.7404 0.0000
vt 0.6915 0.7511 0.0000
vt 0.6896 0.7475 0.0000
vt 0.6934 0.7477 0.0000
vt 0.6177 0.7502 0.0000
vt 0.6241 0.7526 0.0000
vt 0.6230 0.7561 0.0000
vt 0.6159 0.7524 0.0000
vt 0.6178 0.7339 0.0000
vt 0.6159 0.7372 0.0000
vt 0.6131 0.7361 0.0000
vt 0.6157 0.7319 0.0000
vt 0.6916 0.7348 0.0000
vt 0.6852 0.7324 0.0000
vt 0.6863 0.7289 0.0000
vt 0.6934 0.7326 0.0000
vt 0.6962 0.7488 0.0000
vt 0.6936 0.7531 0.0000
vt 0.6197 0.7374 0.0000
vt 0.6161 0.7470 0.0000
vt 0.6130 0.7483 0.0000
vt 0.6932 0.7380 0.0000
vt 0.6963 0.7366 0.0000
vt 0.6907 0.7428 0.0000
vt 0.6941 0.7428 0.0000
vt 0.6069 0.7331 0.0000
vt 0.6119 0.7422 0.0000
vt 0.6050 0.7421 0.0000
vt 0.7024 0.7518 0.0000
vt 0.6974 0.7427 0.0000
vt 0.7043 0.7429 0.0000
vt 0.6186 0.7421 0.0000
vt 0.6152 0.7422 0.0000
vt 0.6982 0.7581 0.0000
vt 0.6884 0.7639 0.0000
vt 0.6861 0.7567 0.0000
vt 0.6111 0.7269 0.0000
vt 0.6210 0.7211 0.0000
vt 0.6232 0.7282 0.0000
vt 0.6107 0.7576 0.0000
vt 0.6066 0.7511 0.0000
vt 0.6986 0.7273 0.0000
vt 0.7027 0.7338 0.0000
vt 0.6546 0.7539 0.0000
vt 0.6246 0.7478 0.0000
vt 0.6546 0.7487 0.0000
vt 0.6851 0.7532 0.0000
vt 0.6545 0.7578 0.0000
vt 0.6547 0.7310 0.0000
vt 0.6242 0.7318 0.0000
vt 0.6548 0.7271 0.0000
vt 0.6848 0.7372 0.0000
vt 0.6547 0.7363 0.0000
vt 0.6240 0.7422 0.0000
vt 0.6547 0.7425 0.0000
vt 0.6853 0.7428 0.0000
vt 0.6544 0.7660 0.0000
vt 0.6207 0.7634 0.0000
vt 0.6549 0.7189 0.0000
vt 0.6886 0.7215 0.0000
vt 0.6847 0.7484 0.0000
vt 0.6246 0.7366 0.0000
vt 0.6198 0.7468 0.0000
vt 0.6895 0.7381 0.0000
# 566 texture coords

o PSNA_Smartphone01
g PSNA_Smartphone01
usemtl PSNA_Smartphone01
s 1
f 1/1/1 2/2/2 3/3/3 
f 4/4/4 5/5/5 6/6/6 7/7/7 
f 8/8/8 9/9/9 10/10/10 11/11/11 
f 12/12/12 13/13/13 14/14/14 15/15/15 
f 16/16/16 17/17/17 18/18/18 19/19/19 
f 20/20/20 21/21/21 22/22/22 23/23/23 
f 24/24/24 25/25/25 26/26/26 27/27/27 
f 8/8/8 11/11/11 28/28/28 29/29/29 
f 30/30/30 31/31/31 32/32/32 33/33/33 
f 12/12/12 15/15/15 34/34/34 35/35/35 
f 36/36/36 37/37/37 38/38/38 39/39/39 
f 16/16/16 19/19/19 40/40/40 41/41/41 
f 42/42/42 43/43/43 44/44/44 45/45/45 
f 20/20/20 23/23/23 46/46/46 47/47/47 
f 48/48/48 49/49/49 50/50/50 51/51/51 
f 52/52/52 53/53/53 54/54/54 55/55/55 
f 56/56/56 57/57/57 58/58/58 59/59/58 
f 60/60/59 61/61/59 62/62/60 63/63/60 
f 64/64/61 65/65/62 66/66/63 67/67/64 
f 68/68/65 69/69/66 70/70/67 
f 67/67/64 66/66/63 71/71/68 72/72/69 
f 70/70/67 73/73/70 74/74/71 75/75/72 
f 76/76/73 77/77/74 78/78/75 3/3/3 
f 3/3/3 78/78/75 79/79/68 80/80/72 
f 70/70/67 81/81/76 82/82/77 68/68/65 
f 83/83/78 84/84/79 85/85/80 
f 85/85/80 86/86/81 87/87/82 88/88/83 
f 67/67/64 89/89/84 64/64/61 
f 90/90/85 91/91/86 92/92/87 93/93/88 
f 59/59/58 94/94/87 95/95/89 6/6/6 
f 96/96/90 97/97/91 91/91/86 90/90/85 
f 98/98/86 99/99/92 100/100/93 101/101/86 
f 102/102/94 103/103/95 104/104/96 
f 104/104/96 105/105/97 106/106/98 107/107/99 
f 7/7/7 108/108/100 4/4/4 
f 109/109/101 110/110/102 111/111/103 
f 111/111/103 112/112/104 113/113/105 114/114/88 
f 90/90/85 115/115/106 96/96/90 
f 116/116/107 117/117/108 118/118/109 119/119/110 
f 120/120/111 121/121/112 122/122/113 123/123/114 
f 124/124/68 125/125/68 126/126/68 127/127/68 
f 128/128/115 129/129/116 80/80/72 130/130/72 
f 124/124/68 131/131/68 132/132/68 133/133/68 
f 134/134/117 135/135/118 72/72/69 136/136/69 
f 137/137/87 94/94/87 138/138/87 139/139/87 
f 137/137/87 140/140/87 141/141/89 142/142/89 
f 143/143/119 144/144/120 145/145/99 146/146/99 
f 147/147/121 148/148/122 93/93/88 149/149/88 
f 5/5/5 56/56/56 59/59/58 6/6/6 
f 9/9/9 48/48/48 51/51/51 10/10/10 
f 17/17/17 52/52/52 55/55/55 18/18/18 
f 49/49/49 150/150/123 25/25/25 50/50/50 
f 53/53/53 151/151/124 37/37/37 54/54/54 
f 57/57/57 109/109/101 111/111/103 58/58/58 
f 61/61/59 83/83/78 85/85/80 62/62/60 
f 65/65/62 152/152/62 153/153/63 66/66/63 
f 66/66/63 153/153/63 131/131/68 71/71/68 
f 77/77/74 60/60/59 63/63/60 78/78/75 
f 78/78/75 63/63/60 125/125/68 79/79/68 
f 81/81/76 153/153/63 152/152/62 82/82/77 
f 91/91/86 98/98/86 140/140/87 92/92/87 
f 142/142/89 146/146/99 145/145/99 95/95/89 
f 97/97/91 99/99/92 98/98/86 91/91/86 
f 100/100/93 102/102/94 104/104/96 101/101/86 
f 62/62/60 85/85/80 88/88/83 126/126/68 
f 81/81/76 70/70/67 75/75/72 132/132/68 
f 58/58/58 111/111/103 114/114/88 138/138/87 
f 101/101/86 104/104/96 107/107/99 141/141/89 
f 13/13/13 116/116/107 119/119/110 14/14/14 
f 21/21/21 120/120/111 123/123/114 22/22/22 
f 71/71/68 127/127/68 136/136/69 72/72/69 
f 74/74/71 128/128/115 130/130/72 75/75/72 
f 79/79/68 133/133/68 130/130/72 80/80/72 
f 87/87/82 134/134/117 136/136/69 88/88/83 
f 92/92/87 139/139/87 149/149/88 93/93/88 
f 94/94/87 137/137/87 142/142/89 95/95/89 
f 106/106/98 143/143/119 146/146/99 107/107/99 
f 113/113/105 147/147/121 149/149/88 114/114/88 
f 117/117/108 154/154/125 31/31/31 118/118/109 
f 121/121/112 155/155/126 43/43/43 122/122/113 
f 125/125/68 63/63/60 62/62/60 126/126/68 
f 129/129/116 1/1/1 3/3/3 80/80/72 
f 131/131/68 153/153/63 81/81/76 132/132/68 
f 135/135/118 156/156/127 67/67/64 72/72/69 
f 94/94/87 59/59/58 58/58/58 138/138/87 
f 140/140/87 98/98/86 101/101/86 141/141/89 
f 144/144/120 157/157/128 7/7/7 145/145/99 
f 148/148/122 158/158/129 90/90/85 93/93/88 
f 131/131/68 124/124/68 127/127/68 71/71/68 
f 125/125/68 124/124/68 133/133/68 79/79/68 
f 140/140/87 137/137/87 139/139/87 92/92/87 
f 145/145/99 7/7/7 6/6/6 95/95/89 
f 88/88/83 136/136/69 127/127/68 126/126/68 
f 75/75/72 130/130/72 133/133/68 132/132/68 
f 114/114/88 149/149/88 139/139/87 138/138/87 
f 107/107/99 146/146/99 142/142/89 141/141/89 
f 8/8/8 29/29/29 159/159/130 160/160/131 
f 161/161/132 162/162/133 163/163/134 164/164/135 
f 155/155/126 121/121/112 165/165/136 166/166/137 
f 121/121/112 120/120/111 167/167/138 165/165/136 
f 120/120/111 21/21/21 168/168/139 167/167/138 
f 21/21/21 20/20/20 169/169/140 168/168/139 
f 20/20/20 47/47/47 170/170/141 169/169/140 
f 171/171/142 172/172/143 173/173/144 174/174/145 
f 151/151/124 53/53/53 175/175/146 176/176/147 
f 53/53/53 52/52/52 177/177/148 175/175/146 
f 52/52/52 17/17/17 178/178/149 177/177/148 
f 17/17/17 16/16/16 179/179/150 178/178/149 
f 16/16/16 41/41/41 180/180/151 179/179/150 
f 181/181/152 182/182/153 183/183/154 184/184/155 
f 154/154/125 117/117/108 185/185/156 186/186/157 
f 117/117/108 116/116/107 187/187/158 185/185/156 
f 116/116/107 13/13/13 188/188/159 187/187/158 
f 13/13/13 12/12/12 189/189/160 188/188/159 
f 12/12/12 35/35/35 190/190/161 189/189/160 
f 191/191/162 192/192/163 193/193/164 194/194/165 
f 150/150/123 49/49/49 195/195/166 196/196/167 
f 49/49/49 48/48/48 197/197/168 195/195/166 
f 48/48/48 9/9/9 198/198/169 197/197/168 
f 9/9/9 8/8/8 160/160/131 198/198/169 
f 164/164/135 199/199/170 69/200/66 159/159/130 
f 166/166/137 73/201/70 200/202/171 163/163/134 
f 165/165/136 74/203/71 73/201/70 166/166/137 
f 167/167/138 128/204/115 74/203/71 165/165/136 
f 168/168/139 129/205/116 128/204/115 167/167/138 
f 169/169/140 1/206/1 129/205/116 168/168/139 
f 174/174/145 201/207/172 2/208/2 170/170/141 
f 176/176/147 76/209/73 202/210/173 173/173/144 
f 175/175/146 77/211/74 76/209/73 176/176/147 
f 177/177/148 60/212/59 77/211/74 175/175/146 
f 178/178/149 61/213/59 60/212/59 177/177/148 
f 179/179/150 83/214/78 61/213/59 178/178/149 
f 184/184/155 203/215/174 84/216/79 180/180/151 
f 186/186/157 86/217/81 204/218/175 183/183/154 
f 185/185/156 87/219/82 86/217/81 186/186/157 
f 187/187/158 134/220/117 87/219/82 185/185/156 
f 188/188/159 135/221/118 134/220/117 187/187/158 
f 189/189/160 156/222/127 135/221/118 188/188/159 
f 194/194/165 205/223/176 206/224/177 190/190/161 
f 196/196/167 64/225/61 89/226/84 193/193/164 
f 195/195/166 65/227/62 64/225/61 196/196/167 
f 197/197/168 152/228/62 65/227/62 195/195/166 
f 198/198/169 82/229/77 152/228/62 197/197/168 
f 160/160/131 68/230/65 82/229/77 198/198/169 
f 5/5/5 4/4/4 207/231/178 208/232/179 
f 57/57/57 56/56/56 209/233/180 210/234/181 
f 97/97/91 96/96/90 211/235/182 212/236/183 
f 100/100/93 99/99/92 213/237/184 214/238/185 
f 215/239/186 103/103/95 39/39/39 216/240/187 
f 105/105/97 217/241/188 218/242/189 219/243/190 
f 106/106/98 105/105/97 219/243/190 220/244/191 
f 221/245/192 222/246/193 45/45/45 223/247/194 
f 4/4/4 108/108/100 224/248/195 207/231/178 
f 225/249/196 110/110/102 27/27/27 226/250/197 
f 112/112/104 227/251/198 228/252/199 229/253/200 
f 113/113/105 112/112/104 229/253/200 230/254/201 
f 231/255/202 232/256/203 33/33/33 233/257/204 
f 96/96/90 115/115/106 234/258/205 211/235/182 
f 144/144/120 143/143/119 235/259/206 236/260/207 
f 148/148/122 147/147/121 237/261/208 238/262/209 
f 56/56/56 5/5/5 208/232/179 209/233/180 
f 109/109/101 57/57/57 210/234/181 24/24/24 
f 99/99/92 97/97/91 212/236/183 213/237/184 
f 102/102/94 100/100/93 214/238/185 36/36/36 
f 143/143/119 106/106/98 220/244/191 235/259/206 
f 147/147/121 113/113/105 230/254/201 237/261/208 
f 157/157/128 144/144/120 236/260/207 42/42/42 
f 158/158/129 148/148/122 238/262/209 30/30/30 
f 215/239/186 217/241/188 104/104/96 
f 203/263/174 204/264/175 85/85/80 
f 90/90/85 232/256/203 231/255/202 
f 201/265/172 202/266/173 3/3/3 
f 199/267/170 200/268/171 70/70/67 
f 7/7/7 222/246/193 221/245/192 
f 67/67/64 206/269/177 205/270/176 
f 225/249/196 227/251/198 111/111/103 
f 192/192/163 191/191/162 239/271/210 26/26/26 
f 224/248/195 223/247/194 240/272/211 28/28/28 
f 182/182/153 181/181/152 241/273/212 32/32/32 
f 228/252/199 226/250/197 239/271/210 34/34/34 
f 172/172/143 171/171/142 242/274/213 38/38/38 
f 234/258/205 233/257/204 241/273/212 40/40/40 
f 162/162/133 161/161/132 240/272/211 44/44/44 
f 218/242/189 216/240/187 242/274/213 46/46/46 
f 29/29/29 161/161/132 164/164/135 159/159/130 
f 162/162/133 155/155/126 166/166/137 163/163/134 
f 47/47/47 171/171/142 174/174/145 170/170/141 
f 172/172/143 151/151/124 176/176/147 173/173/144 
f 41/41/41 181/181/152 184/184/155 180/180/151 
f 182/182/153 154/154/125 186/186/157 183/183/154 
f 35/35/35 191/191/162 194/194/165 190/190/161 
f 192/192/163 150/150/123 196/196/167 193/193/164 
f 69/200/66 68/230/65 160/160/131 159/159/130 
f 200/202/171 199/199/170 164/164/135 163/163/134 
f 2/208/2 1/206/1 169/169/140 170/170/141 
f 202/210/173 201/207/172 174/174/145 173/173/144 
f 84/216/79 83/214/78 179/179/150 180/180/151 
f 204/218/175 203/215/174 184/184/155 183/183/154 
f 206/224/177 156/222/127 189/189/160 190/190/161 
f 89/226/84 205/223/176 194/194/165 193/193/164 
f 103/103/95 102/102/94 36/36/36 39/39/39 
f 217/241/188 215/239/186 216/240/187 218/242/189 
f 222/246/193 157/157/128 42/42/42 45/45/45 
f 108/108/100 221/245/192 223/247/194 224/248/195 
f 110/110/102 109/109/101 24/24/24 27/27/27 
f 227/251/198 225/249/196 226/250/197 228/252/199 
f 232/256/203 158/158/129 30/30/30 33/33/33 
f 115/115/106 231/255/202 233/257/204 234/258/205 
f 67/67/64 205/270/176 89/89/84 
f 67/67/64 156/156/127 206/269/177 
f 69/69/66 199/267/170 70/70/67 
f 200/268/171 73/73/70 70/70/67 
f 7/7/7 221/245/192 108/108/100 
f 7/7/7 157/157/128 222/246/193 
f 110/110/102 225/249/196 111/111/103 
f 227/251/198 112/112/104 111/111/103 
f 103/103/95 215/239/186 104/104/96 
f 217/241/188 105/105/97 104/104/96 
f 90/90/85 231/255/202 115/115/106 
f 90/90/85 158/158/129 232/256/203 
f 84/84/79 203/263/174 85/85/80 
f 204/264/175 86/86/81 85/85/80 
f 10/10/10 208/232/179 207/231/178 11/11/11 
f 14/14/14 230/254/201 229/253/200 15/15/15 
f 18/18/18 212/236/183 211/235/182 19/19/19 
f 22/22/22 220/244/191 219/243/190 23/23/23 
f 25/25/25 150/150/123 192/192/163 26/26/26 
f 11/11/11 207/231/178 224/248/195 28/28/28 
f 31/31/31 154/154/125 182/182/153 32/32/32 
f 15/15/15 229/253/200 228/252/199 34/34/34 
f 37/37/37 151/151/124 172/172/143 38/38/38 
f 19/19/19 211/235/182 234/258/205 40/40/40 
f 43/43/43 155/155/126 162/162/133 44/44/44 
f 23/23/23 219/243/190 218/242/189 46/46/46 
f 50/50/50 210/234/181 209/233/180 51/51/51 
f 54/54/54 214/238/185 213/237/184 55/55/55 
f 118/118/109 238/262/209 237/261/208 119/119/110 
f 122/122/113 236/260/207 235/259/206 123/123/114 
f 51/51/51 209/233/180 208/232/179 10/10/10 
f 55/55/55 213/237/184 212/236/183 18/18/18 
f 25/25/25 24/24/24 210/234/181 50/50/50 
f 37/37/37 36/36/36 214/238/185 54/54/54 
f 119/119/110 237/261/208 230/254/201 14/14/14 
f 123/123/114 235/259/206 220/244/191 22/22/22 
f 31/31/31 30/30/30 238/262/209 118/118/109 
f 43/43/43 42/42/42 236/260/207 122/122/113 
f 239/271/210 226/250/197 27/27/27 26/26/26 
f 240/272/211 161/161/132 29/29/29 28/28/28 
f 241/273/212 233/257/204 33/33/33 32/32/32 
f 239/271/210 191/191/162 35/35/35 34/34/34 
f 242/274/213 216/240/187 39/39/39 38/38/38 
f 241/273/212 181/181/152 41/41/41 40/40/40 
f 240/272/211 223/247/194 45/45/45 44/44/44 
f 242/274/213 171/171/142 47/47/47 46/46/46 
f 2/2/2 201/265/172 3/3/3 
f 202/266/173 76/76/73 3/3/3 
f 243/275/214 244/276/215 245/277/216 246/278/217 
f 244/276/215 247/279/218 248/280/219 245/277/216 
f 247/279/218 249/281/220 250/282/221 248/280/219 
f 249/281/220 251/283/222 252/284/223 250/282/221 
f 251/283/222 253/285/224 254/286/225 252/284/223 
f 253/285/224 255/287/226 256/288/227 254/286/225 
f 255/287/226 257/289/228 258/290/229 256/288/227 
f 257/289/228 259/291/230 260/292/231 258/290/229 
f 259/291/230 261/293/232 262/294/233 260/292/231 
f 261/293/232 263/295/234 264/296/235 262/294/233 
f 263/295/234 265/297/236 266/298/237 264/296/235 
f 265/297/236 243/275/214 246/278/217 266/298/237 
s 2
f 246/278/217 245/277/216 267/299/238 268/300/239 
f 245/277/216 248/280/219 269/301/240 267/299/238 
f 248/280/219 250/282/221 270/302/241 269/301/240 
f 250/282/221 252/284/223 271/303/242 270/302/241 
f 252/284/223 254/286/225 272/304/243 271/303/242 
f 254/286/225 256/288/227 273/305/244 272/304/243 
f 256/288/227 258/290/229 274/306/245 273/305/244 
f 258/290/229 260/292/231 275/307/246 274/306/245 
f 260/292/231 262/294/233 276/308/247 275/307/246 
f 262/294/233 264/296/235 277/309/248 276/308/247 
f 264/296/235 266/298/237 278/310/249 277/309/248 
f 266/298/237 246/278/217 268/300/239 278/310/249 
f 268/300/239 267/299/238 279/311/250 
f 267/299/238 269/301/240 279/311/250 
f 269/301/240 270/302/241 279/311/250 
f 270/302/241 271/303/242 279/311/250 
f 271/303/242 272/304/243 279/311/250 
f 272/304/243 273/305/244 279/311/250 
f 273/305/244 274/306/245 279/311/250 
f 274/306/245 275/307/246 279/311/250 
f 275/307/246 276/308/247 279/311/250 
f 276/308/247 277/309/248 279/311/250 
f 277/309/248 278/310/249 279/311/250 
f 278/310/249 268/300/239 279/311/250 
s 1
f 280/312/251 281/313/252 282/314/253 283/315/254 
f 281/313/252 284/316/255 285/317/256 282/314/253 
f 284/316/255 286/318/257 287/319/258 285/317/256 
f 286/318/257 288/320/259 289/321/260 287/319/258 
f 288/320/259 290/322/261 291/323/262 289/321/260 
f 290/322/261 292/324/263 293/325/264 291/323/262 
f 292/324/263 294/326/265 295/327/266 293/325/264 
f 294/326/265 296/328/267 297/329/268 295/327/266 
f 296/328/267 298/330/269 299/331/270 297/329/268 
f 298/330/269 300/332/271 301/333/272 299/331/270 
f 300/332/271 302/334/273 303/335/274 301/333/272 
f 302/334/273 304/336/275 305/337/276 303/335/274 
f 304/336/275 306/338/277 307/339/278 305/337/276 
f 306/338/277 308/340/279 309/341/280 307/339/278 
f 308/340/279 310/342/281 311/343/282 309/341/280 
f 310/342/281 280/312/251 283/315/254 311/343/282 
s 2
f 283/315/254 282/314/253 312/344/283 313/345/284 
f 282/314/253 285/317/256 314/346/285 312/344/283 
f 285/317/256 287/319/258 315/347/286 314/346/285 
f 287/319/258 289/321/260 316/348/287 315/347/286 
f 289/321/260 291/323/262 317/349/288 316/348/287 
f 291/323/262 293/325/264 318/350/289 317/349/288 
f 293/325/264 295/327/266 319/351/290 318/350/289 
f 295/327/266 297/329/268 320/352/291 319/351/290 
f 297/329/268 299/331/270 321/353/292 320/352/291 
f 299/331/270 301/333/272 322/354/293 321/353/292 
f 301/333/272 303/335/274 323/355/294 322/354/293 
f 303/335/274 305/337/276 324/356/295 323/355/294 
f 305/337/276 307/339/278 325/357/296 324/356/295 
f 307/339/278 309/341/280 326/358/297 325/357/296 
f 309/341/280 311/343/282 327/359/298 326/358/297 
f 311/343/282 283/315/254 313/345/284 327/359/298 
s 1
f 313/345/284 312/344/283 328/360/299 329/361/300 
f 312/344/283 314/346/285 330/362/301 328/360/299 
f 314/346/285 315/347/286 331/363/302 330/362/301 
f 315/347/286 316/348/287 332/364/303 331/363/302 
f 316/348/287 317/349/288 333/365/304 332/364/303 
f 317/349/288 318/350/289 334/366/305 333/365/304 
f 318/350/289 319/351/290 335/367/306 334/366/305 
f 319/351/290 320/352/291 336/368/307 335/367/306 
f 320/352/291 321/353/292 337/369/308 336/368/307 
f 321/353/292 322/354/293 338/370/309 337/369/308 
f 322/354/293 323/355/294 339/371/310 338/370/309 
f 323/355/294 324/356/295 340/372/311 339/371/310 
f 324/356/295 325/357/296 341/373/312 340/372/311 
f 325/357/296 326/358/297 342/374/313 341/373/312 
f 326/358/297 327/359/298 343/375/314 342/374/313 
f 327/359/298 313/345/284 329/361/300 343/375/314 
s 2
f 329/361/300 328/360/299 344/376/315 345/377/316 
f 328/360/299 330/362/301 346/378/317 344/376/315 
f 330/362/301 331/363/302 347/379/318 346/378/317 
f 331/363/302 332/364/303 348/380/319 347/379/318 
f 332/364/303 333/365/304 349/381/320 348/380/319 
f 333/365/304 334/366/305 350/382/321 349/381/320 
f 334/366/305 335/367/306 351/383/322 350/382/321 
f 335/367/306 336/368/307 352/384/323 351/383/322 
f 336/368/307 337/369/308 353/385/324 352/384/323 
f 337/369/308 338/370/309 354/386/325 353/385/324 
f 338/370/309 339/371/310 355/387/326 354/386/325 
f 339/371/310 340/372/311 356/388/327 355/387/326 
f 340/372/311 341/373/312 357/389/328 356/388/327 
f 341/373/312 342/374/313 358/390/329 357/389/328 
f 342/374/313 343/375/314 359/391/330 358/390/329 
f 343/375/314 329/361/300 345/377/316 359/391/330 
s 1
f 345/377/316 344/376/315 360/392/331 361/393/332 
f 344/376/315 346/378/317 362/394/333 360/392/331 
f 346/378/317 347/379/318 363/395/334 362/394/333 
f 347/379/318 348/380/319 364/396/335 363/395/334 
f 348/380/319 349/381/320 365/397/336 364/396/335 
f 349/381/320 350/382/321 366/398/337 365/397/336 
f 350/382/321 351/383/322 367/399/338 366/398/337 
f 351/383/322 352/384/323 368/400/339 367/399/338 
f 352/384/323 353/385/324 369/401/340 368/400/339 
f 353/385/324 354/386/325 370/402/341 369/401/340 
f 354/386/325 355/387/326 371/403/342 370/402/341 
f 355/387/326 356/388/327 372/404/343 371/403/342 
f 356/388/327 357/389/328 373/405/344 372/404/343 
f 357/389/328 358/390/329 374/406/345 373/405/344 
f 358/390/329 359/391/330 375/407/346 374/406/345 
f 359/391/330 345/377/316 361/393/332 375/407/346 
s 2
f 361/393/332 360/392/331 376/408/347 377/409/348 
f 360/392/331 362/394/333 378/410/349 376/408/347 
f 362/394/333 363/395/334 379/411/350 378/410/349 
f 363/395/334 364/396/335 380/412/351 379/411/350 
f 364/396/335 365/397/336 381/413/352 380/412/351 
f 365/397/336 366/398/337 382/414/353 381/413/352 
f 366/398/337 367/399/338 383/415/354 382/414/353 
f 367/399/338 368/400/339 384/416/355 383/415/354 
f 368/400/339 369/401/340 385/417/356 384/416/355 
f 369/401/340 370/402/341 386/418/357 385/417/356 
f 370/402/341 371/403/342 387/419/358 386/418/357 
f 371/403/342 372/404/343 388/420/359 387/419/358 
f 372/404/343 373/405/344 389/421/360 388/420/359 
f 373/405/344 374/406/345 390/422/361 389/421/360 
f 374/406/345 375/407/346 391/423/362 390/422/361 
f 375/407/346 361/393/332 377/409/348 391/423/362 
s 1
f 377/409/348 376/408/347 392/424/363 393/425/364 
f 376/408/347 378/410/349 394/426/365 392/424/363 
f 378/410/349 379/411/350 395/427/366 394/426/365 
f 379/411/350 380/412/351 396/428/367 395/427/366 
f 380/412/351 381/413/352 397/429/368 396/428/367 
f 381/413/352 382/414/353 398/430/369 397/429/368 
f 382/414/353 383/415/354 399/431/370 398/430/369 
f 383/415/354 384/416/355 400/432/371 399/431/370 
f 384/416/355 385/417/356 401/433/372 400/432/371 
f 385/417/356 386/418/357 402/434/373 401/433/372 
f 386/418/357 387/419/358 403/435/374 402/434/373 
f 387/419/358 388/420/359 404/436/375 403/435/374 
f 388/420/359 389/421/360 405/437/376 404/436/375 
f 389/421/360 390/422/361 406/438/377 405/437/376 
f 390/422/361 391/423/362 407/439/378 406/438/377 
f 391/423/362 377/409/348 393/425/364 407/439/378 
s 2
f 393/425/364 392/424/363 408/440/89 
f 392/424/363 394/426/365 408/440/89 
f 394/426/365 395/427/366 408/440/89 
f 395/427/366 396/428/367 408/440/89 
f 396/428/367 397/429/368 408/440/89 
f 397/429/368 398/430/369 408/440/89 
f 398/430/369 399/431/370 408/440/89 
f 399/431/370 400/432/371 408/440/89 
f 400/432/371 401/433/372 408/440/89 
f 401/433/372 402/434/373 408/440/89 
f 402/434/373 403/435/374 408/440/89 
f 403/435/374 404/436/375 408/440/89 
f 404/436/375 405/437/376 408/440/89 
f 405/437/376 406/438/377 408/440/89 
f 406/438/377 407/439/378 408/440/89 
f 407/439/378 393/425/364 408/440/89 
s 1
f 409/312/251 410/313/252 411/314/253 412/315/254 
f 410/313/252 413/316/255 414/317/256 411/314/253 
f 413/316/255 415/318/257 416/319/258 414/317/256 
f 415/318/257 417/320/379 418/321/260 416/319/258 
f 417/320/379 419/322/261 420/323/262 418/321/260 
f 419/322/261 421/324/263 422/325/264 420/323/262 
f 421/324/263 423/326/265 424/327/266 422/325/264 
f 423/326/265 425/328/380 426/329/268 424/327/266 
f 425/328/380 427/330/269 428/331/270 426/329/268 
f 427/330/269 429/332/271 430/333/272 428/331/270 
f 429/332/271 431/334/273 432/335/274 430/333/272 
f 431/334/273 433/336/275 434/337/276 432/335/274 
f 433/336/275 435/338/277 436/339/278 434/337/276 
f 435/338/277 437/340/279 438/341/280 436/339/278 
f 437/340/279 439/342/281 440/343/282 438/341/280 
f 439/342/281 409/312/251 412/315/254 440/343/282 
s 2
f 412/315/254 411/314/253 441/344/283 442/345/284 
f 411/314/253 414/317/256 443/346/285 441/344/283 
f 414/317/256 416/319/258 444/347/286 443/346/285 
f 416/319/258 418/321/260 445/348/381 444/347/286 
f 418/321/260 420/323/262 446/349/288 445/348/381 
f 420/323/262 422/325/264 447/350/289 446/349/288 
f 422/325/264 424/327/266 448/351/290 447/350/289 
f 424/327/266 426/329/268 449/352/382 448/351/290 
f 426/329/268 428/331/270 450/353/292 449/352/382 
f 428/331/270 430/333/272 451/354/293 450/353/292 
f 430/333/272 432/335/274 452/355/294 451/354/293 
f 432/335/274 434/337/276 453/356/295 452/355/294 
f 434/337/276 436/339/278 454/357/296 453/356/295 
f 436/339/278 438/341/280 455/358/297 454/357/296 
f 438/341/280 440/343/282 456/359/298 455/358/297 
f 440/343/282 412/315/254 442/345/284 456/359/298 
s 1
f 442/345/284 441/344/283 457/360/299 458/361/300 
f 441/344/283 443/346/285 459/362/301 457/360/299 
f 443/346/285 444/347/286 460/363/302 459/362/301 
f 444/347/286 445/348/381 461/364/303 460/363/302 
f 445/348/381 446/349/288 462/365/304 461/364/303 
f 446/349/288 447/350/289 463/366/305 462/365/304 
f 447/350/289 448/351/290 464/367/306 463/366/305 
f 448/351/290 449/352/382 465/368/383 464/367/306 
f 449/352/382 450/353/292 466/369/308 465/368/383 
f 450/353/292 451/354/293 467/370/309 466/369/308 
f 451/354/293 452/355/294 468/371/310 467/370/309 
f 452/355/294 453/356/295 469/372/384 468/371/310 
f 453/356/295 454/357/296 470/373/312 469/372/384 
f 454/357/296 455/358/297 471/374/313 470/373/312 
f 455/358/297 456/359/298 472/375/314 471/374/313 
f 456/359/298 442/345/284 458/361/300 472/375/314 
s 2
f 458/361/300 457/360/299 473/376/315 474/377/316 
f 457/360/299 459/362/301 475/378/317 473/376/315 
f 459/362/301 460/363/302 476/379/318 475/378/317 
f 460/363/302 461/364/303 477/380/319 476/379/318 
f 461/364/303 462/365/304 478/381/320 477/380/319 
f 462/365/304 463/366/305 479/382/321 478/381/320 
f 463/366/305 464/367/306 480/383/322 479/382/321 
f 464/367/306 465/368/383 481/384/323 480/383/322 
f 465/368/383 466/369/308 482/385/324 481/384/323 
f 466/369/308 467/370/309 483/386/325 482/385/324 
f 467/370/309 468/371/310 484/387/326 483/386/325 
f 468/371/310 469/372/384 485/388/385 484/387/326 
f 469/372/384 470/373/312 486/389/328 485/388/385 
f 470/373/312 471/374/313 487/390/329 486/389/328 
f 471/374/313 472/375/314 488/391/330 487/390/329 
f 472/375/314 458/361/300 474/377/316 488/391/330 
s 1
f 474/377/316 473/376/315 489/392/331 490/393/386 
f 473/376/315 475/378/317 491/394/333 489/392/331 
f 475/378/317 476/379/318 492/395/334 491/394/333 
f 476/379/318 477/380/319 493/396/335 492/395/334 
f 477/380/319 478/381/320 494/397/336 493/396/335 
f 478/381/320 479/382/321 495/398/337 494/397/336 
f 479/382/321 480/383/322 496/399/338 495/398/337 
f 480/383/322 481/384/323 497/400/387 496/399/338 
f 481/384/323 482/385/324 498/401/340 497/400/387 
f 482/385/324 483/386/325 499/402/341 498/401/340 
f 483/386/325 484/387/326 500/403/342 499/402/341 
f 484/387/326 485/388/385 501/404/388 500/403/342 
f 485/388/385 486/389/328 502/405/344 501/404/388 
f 486/389/328 487/390/329 503/406/345 502/405/344 
f 487/390/329 488/391/330 504/407/346 503/406/345 
f 488/391/330 474/377/316 490/393/386 504/407/346 
s 2
f 490/393/386 489/392/331 505/408/347 506/409/348 
f 489/392/331 491/394/333 507/410/349 505/408/347 
f 491/394/333 492/395/334 508/411/350 507/410/349 
f 492/395/334 493/396/335 509/412/389 508/411/350 
f 493/396/335 494/397/336 510/413/352 509/412/389 
f 494/397/336 495/398/337 511/414/353 510/413/352 
f 495/398/337 496/399/338 512/415/354 511/414/353 
f 496/399/338 497/400/387 513/416/355 512/415/354 
f 497/400/387 498/401/340 514/417/356 513/416/355 
f 498/401/340 499/402/341 515/418/357 514/417/356 
f 499/402/341 500/403/342 516/419/358 515/418/357 
f 500/403/342 501/404/388 517/420/359 516/419/358 
f 501/404/388 502/405/344 518/421/360 517/420/359 
f 502/405/344 503/406/345 519/422/361 518/421/360 
f 503/406/345 504/407/346 520/423/362 519/422/361 
f 504/407/346 490/393/386 506/409/348 520/423/362 
s 1
f 506/409/348 505/408/347 521/424/363 522/425/364 
f 505/408/347 507/410/349 523/426/365 521/424/363 
f 507/410/349 508/411/350 524/427/366 523/426/365 
f 508/411/350 509/412/389 525/428/390 524/427/366 
f 509/412/389 510/413/352 526/429/368 525/428/390 
f 510/413/352 511/414/353 527/430/369 526/429/368 
f 511/414/353 512/415/354 528/431/370 527/430/369 
f 512/415/354 513/416/355 529/432/391 528/431/370 
f 513/416/355 514/417/356 530/433/372 529/432/391 
f 514/417/356 515/418/357 531/434/373 530/433/372 
f 515/418/357 516/419/358 532/435/374 531/434/373 
f 516/419/358 517/420/359 533/436/375 532/435/374 
f 517/420/359 518/421/360 534/437/376 533/436/375 
f 518/421/360 519/422/361 535/438/377 534/437/376 
f 519/422/361 520/423/362 536/439/378 535/438/377 
f 520/423/362 506/409/348 522/425/364 536/439/378 
s 2
f 522/425/364 521/424/363 537/440/89 
f 521/424/363 523/426/365 537/440/89 
f 523/426/365 524/427/366 537/440/89 
f 524/427/366 525/428/390 537/440/89 
f 525/428/390 526/429/368 537/440/89 
f 526/429/368 527/430/369 537/440/89 
f 527/430/369 528/431/370 537/440/89 
f 528/431/370 529/432/391 537/440/89 
f 529/432/391 530/433/372 537/440/89 
f 530/433/372 531/434/373 537/440/89 
f 531/434/373 532/435/374 537/440/89 
f 532/435/374 533/436/375 537/440/89 
f 533/436/375 534/437/376 537/440/89 
f 534/437/376 535/438/377 537/440/89 
f 535/438/377 536/439/378 537/440/89 
f 536/439/378 522/425/364 537/440/89 
s 1
f 538/312/251 539/313/252 540/314/253 541/315/254 
f 539/313/252 542/316/255 543/317/256 540/314/253 
f 542/316/255 544/318/257 545/319/258 543/317/256 
f 544/318/257 546/320/259 547/321/260 545/319/258 
f 546/320/259 548/322/261 549/323/262 547/321/260 
f 548/322/261 550/324/263 551/325/264 549/323/262 
f 550/324/263 552/326/265 553/327/266 551/325/264 
f 552/326/265 554/328/380 555/329/268 553/327/266 
f 554/328/380 556/330/269 557/331/270 555/329/268 
f 556/330/269 558/332/271 559/333/272 557/331/270 
f 558/332/271 560/334/273 561/335/274 559/333/272 
f 560/334/273 562/336/275 563/337/276 561/335/274 
f 562/336/275 564/338/277 565/339/278 563/337/276 
f 564/338/277 566/340/279 567/341/280 565/339/278 
f 566/340/279 568/342/281 569/343/282 567/341/280 
f 568/342/281 538/312/251 541/315/254 569/343/282 
s 2
f 541/315/254 540/314/253 570/344/283 571/345/284 
f 540/314/253 543/317/256 572/346/285 570/344/283 
f 543/317/256 545/319/258 573/347/286 572/346/285 
f 545/319/258 547/321/260 574/348/381 573/347/286 
f 547/321/260 549/323/262 575/349/288 574/348/381 
f 549/323/262 551/325/264 576/350/289 575/349/288 
f 551/325/264 553/327/266 577/351/290 576/350/289 
f 553/327/266 555/329/268 578/352/382 577/351/290 
f 555/329/268 557/331/270 579/353/292 578/352/382 
f 557/331/270 559/333/272 580/354/293 579/353/292 
f 559/333/272 561/335/274 581/355/294 580/354/293 
f 561/335/274 563/337/276 582/356/392 581/355/294 
f 563/337/276 565/339/278 583/357/296 582/356/392 
f 565/339/278 567/341/280 584/358/297 583/357/296 
f 567/341/280 569/343/282 585/359/298 584/358/297 
f 569/343/282 541/315/254 571/345/284 585/359/298 
s 1
f 571/345/284 570/344/283 586/360/299 587/361/300 
f 570/344/283 572/346/285 588/362/301 586/360/299 
f 572/346/285 573/347/286 589/363/302 588/362/301 
f 573/347/286 574/348/381 590/364/393 589/363/302 
f 574/348/381 575/349/288 591/365/304 590/364/393 
f 575/349/288 576/350/289 592/366/305 591/365/304 
f 576/350/289 577/351/290 593/367/306 592/366/305 
f 577/351/290 578/352/382 594/368/383 593/367/306 
f 578/352/382 579/353/292 595/369/308 594/368/383 
f 579/353/292 580/354/293 596/370/309 595/369/308 
f 580/354/293 581/355/294 597/371/310 596/370/309 
f 581/355/294 582/356/392 598/372/311 597/371/310 
f 582/356/392 583/357/296 599/373/312 598/372/311 
f 583/357/296 584/358/297 600/374/313 599/373/312 
f 584/358/297 585/359/298 601/375/314 600/374/313 
f 585/359/298 571/345/284 587/361/300 601/375/314 
s 2
f 587/361/300 586/360/299 602/376/315 603/377/316 
f 586/360/299 588/362/301 604/378/317 602/376/315 
f 588/362/301 589/363/302 605/379/318 604/378/317 
f 589/363/302 590/364/393 606/380/319 605/379/318 
f 590/364/393 591/365/304 607/381/320 606/380/319 
f 591/365/304 592/366/305 608/382/321 607/381/320 
f 592/366/305 593/367/306 609/383/322 608/382/321 
f 593/367/306 594/368/383 610/384/394 609/383/322 
f 594/368/383 595/369/308 611/385/324 610/384/394 
f 595/369/308 596/370/309 612/386/325 611/385/324 
f 596/370/309 597/371/310 613/387/326 612/386/325 
f 597/371/310 598/372/311 614/388/327 613/387/326 
f 598/372/311 599/373/312 615/389/328 614/388/327 
f 599/373/312 600/374/313 616/390/329 615/389/328 
f 600/374/313 601/375/314 617/391/330 616/390/329 
f 601/375/314 587/361/300 603/377/316 617/391/330 
s 1
f 603/377/316 602/376/315 618/392/331 619/393/386 
f 602/376/315 604/378/317 620/394/333 618/392/331 
f 604/378/317 605/379/318 621/395/334 620/394/333 
f 605/379/318 606/380/319 622/396/335 621/395/334 
f 606/380/319 607/381/320 623/397/336 622/396/335 
f 607/381/320 608/382/321 624/398/337 623/397/336 
f 608/382/321 609/383/322 625/399/338 624/398/337 
f 609/383/322 610/384/394 626/400/339 625/399/338 
f 610/384/394 611/385/324 627/401/340 626/400/339 
f 611/385/324 612/386/325 628/402/341 627/401/340 
f 612/386/325 613/387/326 629/403/342 628/402/341 
f 613/387/326 614/388/327 630/404/388 629/403/342 
f 614/388/327 615/389/328 631/405/344 630/404/388 
f 615/389/328 616/390/329 632/406/345 631/405/344 
f 616/390/329 617/391/330 633/407/346 632/406/345 
f 617/391/330 603/377/316 619/393/386 633/407/346 
s 2
f 619/393/386 618/392/331 634/408/347 635/409/395 
f 618/392/331 620/394/333 636/410/349 634/408/347 
f 620/394/333 621/395/334 637/411/350 636/410/349 
f 621/395/334 622/396/335 638/412/389 637/411/350 
f 622/396/335 623/397/336 639/413/352 638/412/389 
f 623/397/336 624/398/337 640/414/353 639/413/352 
f 624/398/337 625/399/338 641/415/354 640/414/353 
f 625/399/338 626/400/339 642/416/396 641/415/354 
f 626/400/339 627/401/340 643/417/356 642/416/396 
f 627/401/340 628/402/341 644/418/357 643/417/356 
f 628/402/341 629/403/342 645/419/358 644/418/357 
f 629/403/342 630/404/388 646/420/359 645/419/358 
f 630/404/388 631/405/344 647/421/360 646/420/359 
f 631/405/344 632/406/345 648/422/361 647/421/360 
f 632/406/345 633/407/346 649/423/362 648/422/361 
f 633/407/346 619/393/386 635/409/395 649/423/362 
s 1
f 635/409/395 634/408/347 650/424/363 651/425/397 
f 634/408/347 636/410/349 652/426/365 650/424/363 
f 636/410/349 637/411/350 653/427/366 652/426/365 
f 637/411/350 638/412/389 654/428/390 653/427/366 
f 638/412/389 639/413/352 655/429/368 654/428/390 
f 639/413/352 640/414/353 656/430/369 655/429/368 
f 640/414/353 641/415/354 657/431/370 656/430/369 
f 641/415/354 642/416/396 658/432/371 657/431/370 
f 642/416/396 643/417/356 659/433/372 658/432/371 
f 643/417/356 644/418/357 660/434/373 659/433/372 
f 644/418/357 645/419/358 661/435/374 660/434/373 
f 645/419/358 646/420/359 662/436/375 661/435/374 
f 646/420/359 647/421/360 663/437/376 662/436/375 
f 647/421/360 648/422/361 664/438/377 663/437/376 
f 648/422/361 649/423/362 665/439/378 664/438/377 
f 649/423/362 635/409/395 651/425/397 665/439/378 
s 2
f 651/425/397 650/424/363 666/440/89 
f 650/424/363 652/426/365 666/440/89 
f 652/426/365 653/427/366 666/440/89 
f 653/427/366 654/428/390 666/440/89 
f 654/428/390 655/429/368 666/440/89 
f 655/429/368 656/430/369 666/440/89 
f 656/430/369 657/431/370 666/440/89 
f 657/431/370 658/432/371 666/440/89 
f 658/432/371 659/433/372 666/440/89 
f 659/433/372 660/434/373 666/440/89 
f 660/434/373 661/435/374 666/440/89 
f 661/435/374 662/436/375 666/440/89 
f 662/436/375 663/437/376 666/440/89 
f 663/437/376 664/438/377 666/440/89 
f 664/438/377 665/439/378 666/440/89 
f 665/439/378 651/425/397 666/440/89 
s 1
f 667/441/398 668/442/399 669/443/400 
f 670/444/401 671/445/402 672/446/68 673/447/403 
f 674/448/404 675/449/405 676/450/406 677/451/407 
f 678/452/408 679/453/409 680/454/89 681/455/410 
f 667/441/398 669/443/400 682/456/411 683/457/412 
f 675/449/405 674/448/404 684/458/413 
f 685/459/414 670/444/401 673/447/403 686/460/415 
f 687/461/416 678/452/408 681/455/410 688/462/417 
f 669/443/400 668/442/399 689/463/418 690/464/419 
f 691/465/420 676/450/406 692/466/421 693/467/421 
f 694/468/411 682/456/411 695/469/422 696/470/422 
f 675/449/405 684/458/413 697/471/423 698/472/424 
f 685/459/414 686/460/415 692/466/421 698/472/424 
f 687/461/416 688/462/417 695/469/422 690/464/419 
f 683/457/412 699/473/412 700/474/68 701/475/68 
f 676/450/406 691/465/420 702/476/407 677/451/407 
f 677/451/407 702/476/407 703/477/89 704/478/89 
f 682/456/411 694/468/411 699/473/412 683/457/412 
f 673/447/403 705/479/403 706/480/415 686/460/415 
f 681/455/410 707/481/410 708/482/425 688/462/417 
f 676/450/406 675/449/405 698/472/424 692/466/421 
f 682/456/411 669/443/400 690/464/419 695/469/422 
f 686/460/415 706/480/415 693/467/421 692/466/421 
f 688/462/417 708/482/425 696/470/422 695/469/422 
f 709/483/402 671/445/402 710/484/426 711/485/426 
f 709/483/402 712/486/402 701/475/68 713/487/68 
f 714/488/409 715/489/409 704/478/89 716/490/89 
f 714/488/409 679/453/409 717/491/427 718/492/427 
f 711/485/426 710/484/426 719/493/428 720/494/428 
f 718/492/427 717/491/427 721/495/428 720/494/428 
f 722/496/68 723/497/68 672/446/68 713/487/68 
f 724/498/89 725/499/89 680/454/89 716/490/89 
f 668/442/399 726/500/426 721/495/428 689/463/418 
f 684/458/413 727/501/429 719/493/428 697/471/423 
f 728/502/430 685/459/414 698/472/424 697/471/423 
f 729/503/431 687/461/416 690/464/419 689/463/418 
f 667/441/398 712/486/402 726/500/426 668/442/399 
f 678/452/408 687/461/416 729/503/431 
f 674/448/404 715/489/409 727/501/429 684/458/413 
f 670/444/401 685/459/414 728/502/430 
f 671/445/402 709/483/402 713/487/68 672/446/68 
f 679/453/409 714/488/409 716/490/89 680/454/89 
f 700/474/68 722/496/68 713/487/68 701/475/68 
f 703/477/89 724/498/89 716/490/89 704/478/89 
f 671/445/402 670/444/401 728/502/430 710/484/426 
f 712/486/402 667/441/398 683/457/412 701/475/68 
f 715/489/409 674/448/404 677/451/407 704/478/89 
f 679/453/409 678/452/408 729/503/431 717/491/427 
f 710/484/426 728/502/430 697/471/423 719/493/428 
f 717/491/427 729/503/431 689/463/418 721/495/428 
f 723/497/68 705/479/403 673/447/403 672/446/68 
f 725/499/89 707/481/410 681/455/410 680/454/89 
f 726/500/426 711/485/426 720/494/428 721/495/428 
f 727/501/429 718/492/427 720/494/428 719/493/428 
f 712/486/402 709/483/402 711/485/426 726/500/426 
f 715/489/409 714/488/409 718/492/427 727/501/429 
f 730/504/432 731/505/433 732/506/434 
f 733/507/435 734/508/402 735/509/68 736/510/436 
f 737/511/437 738/512/438 739/513/439 740/514/440 
f 741/515/441 742/516/409 743/517/89 744/518/442 
f 730/504/432 732/506/434 745/519/443 746/520/444 
f 738/512/438 737/511/437 747/521/445 
f 748/522/446 733/507/435 736/510/436 749/523/447 
f 750/524/448 741/515/441 744/518/442 751/525/449 
f 732/506/434 731/505/433 752/526/450 753/527/451 
f 754/528/452 739/513/439 755/529/421 756/530/421 
f 757/531/443 745/519/443 758/532/422 759/533/422 
f 738/512/438 747/521/445 760/534/453 761/535/454 
f 748/522/446 749/523/447 755/529/421 761/535/454 
f 750/524/448 751/525/449 758/532/422 753/527/451 
f 746/520/444 762/536/444 763/537/68 764/538/68 
f 739/513/439 754/528/452 765/539/440 740/514/440 
f 740/514/440 765/539/440 766/540/89 767/541/89 
f 745/519/443 757/531/443 762/536/444 746/520/444 
f 736/510/436 768/542/436 769/543/447 749/523/447 
f 744/518/442 770/544/442 771/545/449 751/525/449 
f 739/513/439 738/512/438 761/535/454 755/529/421 
f 745/519/443 732/506/434 753/527/451 758/532/422 
f 749/523/447 769/543/447 756/530/421 755/529/421 
f 751/525/449 771/545/449 759/533/422 758/532/422 
f 772/546/402 734/508/402 773/547/426 774/548/426 
f 772/546/402 775/549/402 764/538/68 776/550/68 
f 777/551/409 778/552/409 767/541/89 779/553/89 
f 777/551/409 742/516/409 780/554/427 781/555/429 
f 774/548/426 773/547/426 782/556/428 783/557/428 
f 781/555/429 780/554/427 784/558/428 783/557/428 
f 785/559/68 786/560/68 735/509/68 776/550/68 
f 787/561/89 788/562/89 743/517/89 779/553/89 
f 731/505/433 789/563/426 784/558/428 752/526/450 
f 747/521/445 790/564/429 782/556/428 760/534/453 
f 791/565/455 748/522/446 761/535/454 760/534/453 
f 792/566/456 750/524/448 753/527/451 752/526/450 
f 734/508/402 733/507/435 791/565/455 773/547/426 
f 775/549/402 730/504/432 746/520/444 764/538/68 
f 778/552/409 737/511/437 740/514/440 767/541/89 
f 742/516/409 741/515/441 792/566/456 780/554/427 
f 773/547/426 791/565/455 760/534/453 782/556/428 
f 780/554/427 792/566/456 752/526/450 784/558/428 
f 786/560/68 768/542/436 736/510/436 735/509/68 
f 788/562/89 770/544/442 744/518/442 743/517/89 
f 775/549/402 772/546/402 774/548/426 789/563/426 
f 734/508/402 772/546/402 776/550/68 735/509/68 
f 742/516/409 777/551/409 779/553/89 743/517/89 
f 778/552/409 777/551/409 781/555/429 790/564/429 
f 789/563/426 774/548/426 783/557/428 784/558/428 
f 790/564/429 781/555/429 783/557/428 782/556/428 
f 763/537/68 785/559/68 776/550/68 764/538/68 
f 766/540/89 787/561/89 779/553/89 767/541/89 
f 730/504/432 775/549/402 789/563/426 731/505/433 
f 741/515/441 750/524/448 792/566/456 
f 737/511/437 778/552/409 790/564/429 747/521/445 
f 733/507/435 748/522/446 791/565/455 
# 688 polygons - 100 triangles

#
# object PSNA_Smartphone01_Lens
#

v  -0.0373 0.0129 -0.1841
v  -0.0379 0.0129 -0.1861
v  -0.0414 0.0129 -0.1841
v  -0.0394 0.0129 -0.1876
v  -0.0414 0.0129 -0.1882
v  -0.0434 0.0129 -0.1876
v  -0.0449 0.0129 -0.1861
v  -0.0455 0.0129 -0.1841
v  -0.0449 0.0129 -0.1821
v  -0.0434 0.0129 -0.1806
v  -0.0414 0.0129 -0.1800
v  -0.0394 0.0129 -0.1806
v  -0.0379 0.0129 -0.1821
v  -0.0641 0.0161 -0.1149
v  -0.0653 0.0161 -0.1209
v  -0.0799 0.0161 -0.1149
v  -0.0687 0.0161 -0.1261
v  -0.0738 0.0161 -0.1295
v  -0.0799 0.0161 -0.1307
v  -0.0859 0.0161 -0.1295
v  -0.0911 0.0161 -0.1261
v  -0.0945 0.0161 -0.1209
v  -0.0957 0.0161 -0.1149
v  -0.0945 0.0161 -0.1088
v  -0.0911 0.0161 -0.1037
v  -0.0859 0.0161 -0.1003
v  -0.0799 0.0161 -0.0991
v  -0.0738 0.0161 -0.1003
v  -0.0687 0.0161 -0.1037
v  -0.0653 0.0161 -0.1088
v  -0.0641 0.0161 -0.1607
v  -0.0653 0.0161 -0.1668
v  -0.0799 0.0161 -0.1607
v  -0.0687 0.0161 -0.1719
v  -0.0738 0.0161 -0.1753
v  -0.0799 0.0161 -0.1765
v  -0.0859 0.0161 -0.1753
v  -0.0911 0.0161 -0.1719
v  -0.0945 0.0161 -0.1668
v  -0.0957 0.0161 -0.1607
v  -0.0945 0.0161 -0.1547
v  -0.0911 0.0161 -0.1496
v  -0.0859 0.0161 -0.1461
v  -0.0799 0.0161 -0.1449
v  -0.0738 0.0161 -0.1461
v  -0.0687 0.0161 -0.1496
v  -0.0653 0.0161 -0.1547
v  -0.0641 0.0161 -0.2063
v  -0.0653 0.0161 -0.2123
v  -0.0799 0.0161 -0.2063
v  -0.0687 0.0161 -0.2175
v  -0.0738 0.0161 -0.2209
v  -0.0799 0.0161 -0.2221
v  -0.0859 0.0161 -0.2209
v  -0.0911 0.0161 -0.2175
v  -0.0945 0.0161 -0.2123
v  -0.0957 0.0161 -0.2063
v  -0.0945 0.0161 -0.2003
v  -0.0911 0.0161 -0.1951
v  -0.0859 0.0161 -0.1917
v  -0.0799 0.0161 -0.1905
v  -0.0738 0.0161 -0.1917
v  -0.0687 0.0161 -0.1951
v  -0.0653 0.0161 -0.2003
# 64 vertices

vn 0.0000 1.0000 -0.0000
vn -0.0000 1.0000 0.0000
vn 0.0000 1.0000 0.0000
vn -0.0000 1.0000 -0.0000
# 4 vertex normals

vt 0.5215 0.6886 0.0000
vt 0.5129 0.6965 0.0000
vt 0.5024 0.6764 0.0000
vt 0.5014 0.6991 0.0000
vt 0.4902 0.6955 0.0000
vt 0.4823 0.6869 0.0000
vt 0.4797 0.6754 0.0000
vt 0.4833 0.6642 0.0000
vt 0.4919 0.6563 0.0000
vt 0.5034 0.6537 0.0000
vt 0.5146 0.6572 0.0000
vt 0.5225 0.6659 0.0000
vt 0.5251 0.6774 0.0000
vt 0.4720 0.6586 0.0000
vt 0.4704 0.6743 0.0000
vt 0.4320 0.6624 0.0000
vt 0.4630 0.6881 0.0000
vt 0.4508 0.6980 0.0000
vt 0.4358 0.7025 0.0000
vt 0.4201 0.7009 0.0000
vt 0.4063 0.6935 0.0000
vt 0.3964 0.6813 0.0000
vt 0.3919 0.6662 0.0000
vt 0.3935 0.6506 0.0000
vt 0.4009 0.6368 0.0000
vt 0.4131 0.6269 0.0000
vt 0.4282 0.6224 0.0000
vt 0.4438 0.6240 0.0000
vt 0.4576 0.6314 0.0000
vt 0.4675 0.6436 0.0000
# 30 texture coords

o PSNA_Smartphone01_Lens
g PSNA_Smartphone01_Lens
usemtl PSNA_Smartphone01
s 2
f 793/567/457 794/568/457 795/569/457 
f 794/568/457 796/570/457 795/569/457 
f 796/570/457 797/571/457 795/569/457 
f 797/571/457 798/572/457 795/569/457 
f 798/572/457 799/573/457 795/569/457 
f 799/573/457 800/574/457 795/569/457 
f 800/574/457 801/575/457 795/569/457 
f 801/575/457 802/576/457 795/569/457 
f 802/576/457 803/577/457 795/569/457 
f 803/577/457 804/578/457 795/569/457 
f 804/578/457 805/579/457 795/569/457 
f 805/579/457 793/567/457 795/569/457 
s 1
f 806/580/457 807/581/457 808/582/457 
f 807/581/457 809/583/457 808/582/457 
f 809/583/457 810/584/457 808/582/457 
f 810/584/457 811/585/457 808/582/457 
f 811/585/457 812/586/457 808/582/457 
f 812/586/457 813/587/457 808/582/457 
f 813/587/457 814/588/457 808/582/457 
f 814/588/457 815/589/457 808/582/457 
f 815/589/457 816/590/457 808/582/457 
f 816/590/457 817/591/457 808/582/457 
f 817/591/457 818/592/457 808/582/457 
f 818/592/457 819/593/457 808/582/457 
f 819/593/457 820/594/457 808/582/457 
f 820/594/457 821/595/457 808/582/457 
f 821/595/457 822/596/457 808/582/457 
f 822/596/457 806/580/457 808/582/457 
f 823/580/457 824/581/457 825/582/457 
f 824/581/457 826/583/457 825/582/457 
f 826/583/457 827/584/457 825/582/457 
f 827/584/457 828/585/457 825/582/457 
f 828/585/457 829/586/457 825/582/457 
f 829/586/457 830/587/457 825/582/457 
f 830/587/457 831/588/457 825/582/457 
f 831/588/457 832/589/457 825/582/457 
f 832/589/457 833/590/457 825/582/457 
f 833/590/457 834/591/457 825/582/457 
f 834/591/457 835/592/457 825/582/457 
f 835/592/457 836/593/457 825/582/457 
f 836/593/457 837/594/457 825/582/457 
f 837/594/457 838/595/457 825/582/457 
f 838/595/457 839/596/457 825/582/457 
f 839/596/457 823/580/457 825/582/457 
f 840/580/458 841/581/458 842/582/458 
f 841/581/458 843/583/458 842/582/458 
f 843/583/458 844/584/458 842/582/458 
f 844/584/458 845/585/458 842/582/458 
f 845/585/458 846/586/459 842/582/458 
f 846/586/459 847/587/459 842/582/458 
f 847/587/459 848/588/459 842/582/458 
f 848/588/459 849/589/459 842/582/458 
f 849/589/459 850/590/457 842/582/458 
f 850/590/457 851/591/457 842/582/458 
f 851/591/457 852/592/457 842/582/458 
f 852/592/457 853/593/460 842/582/458 
f 853/593/460 854/594/460 842/582/458 
f 854/594/460 855/595/460 842/582/458 
f 855/595/460 856/596/460 842/582/458 
f 856/596/460 840/580/458 842/582/458 
# 0 polygons - 60 triangles

