# 3ds Max Wavefront OBJ Exporter v0.99 - (c)2007 guruware
# File Created: 18.12.2025 15:52:50

mtllib JailSlidingDoor_00.mtl

#
# object JailSlidingDoor_00
#

v  0.3509 -1.4312 0.0018
v  0.3404 -1.4312 -0.0237
v  0.3404 -0.2264 -0.0237
v  0.3509 -0.2264 0.0018
v  0.3149 -1.4312 -0.0343
v  0.3149 -0.2264 -0.0343
v  0.2894 -1.4312 -0.0237
v  0.2894 -0.2264 -0.0237
v  0.2789 -1.4312 0.0018
v  0.2789 -0.2264 0.0018
v  0.2894 -1.4312 0.0272
v  0.2894 -0.2264 0.0272
v  0.3149 -1.4312 0.0378
v  0.3149 -0.2264 0.0378
v  0.3404 -1.4312 0.0272
v  0.3404 -0.2264 0.0272
v  0.0509 -1.4312 0.0018
v  0.0404 -1.4312 -0.0237
v  0.0404 -0.2264 -0.0237
v  0.0509 -0.2264 0.0018
v  0.0149 -1.4312 -0.0343
v  0.0149 -0.2264 -0.0343
v  -0.0106 -1.4312 -0.0237
v  -0.0106 -0.2264 -0.0237
v  -0.0211 -1.4312 0.0018
v  -0.0211 -0.2264 0.0018
v  -0.0106 -1.4312 0.0272
v  -0.0106 -0.2264 0.0272
v  0.0149 -1.4312 0.0378
v  0.0149 -0.2264 0.0378
v  0.0404 -1.4312 0.0272
v  0.0404 -0.2264 0.0272
v  -0.2491 -1.4312 0.0018
v  -0.2596 -1.4312 -0.0237
v  -0.2596 -0.2264 -0.0237
v  -0.2491 -0.2264 0.0018
v  -0.2851 -1.4312 -0.0343
v  -0.2851 -0.2264 -0.0343
v  -0.3106 -1.4312 -0.0237
v  -0.3106 -0.2264 -0.0237
v  -0.3211 -1.4312 0.0018
v  -0.3211 -0.2264 0.0018
v  -0.3106 -1.4312 0.0272
v  -0.3106 -0.2264 0.0272
v  -0.2851 -1.4312 0.0378
v  -0.2851 -0.2264 0.0378
v  -0.2596 -1.4312 0.0272
v  -0.2596 -0.2264 0.0272
v  -0.5491 -1.4312 0.0018
v  -0.5596 -1.4312 -0.0237
v  -0.5596 1.3612 -0.0237
v  -0.5491 1.3612 0.0018
v  -0.5851 -1.4312 -0.0343
v  -0.5851 1.3612 -0.0343
v  -0.6106 -1.4312 -0.0237
v  -0.6106 1.3612 -0.0237
v  -0.6211 -1.4312 0.0018
v  -0.6211 1.3612 0.0018
v  -0.6106 -1.4312 0.0272
v  -0.6106 1.3612 0.0272
v  -0.5851 -1.4312 0.0378
v  -0.5851 1.3612 0.0378
v  -0.5596 -1.4312 0.0272
v  -0.5596 1.3612 0.0272
v  0.6476 -1.4312 0.0018
v  0.6370 -1.4312 -0.0237
v  0.6370 1.3612 -0.0237
v  0.6476 1.3612 0.0018
v  0.6115 -1.4312 -0.0343
v  0.6115 1.3612 -0.0343
v  0.5861 -1.4312 -0.0237
v  0.5861 1.3612 -0.0237
v  0.5755 -1.4312 0.0018
v  0.5755 1.3612 0.0018
v  0.5861 -1.4312 0.0272
v  0.5861 1.3612 0.0272
v  0.6115 -1.4312 0.0378
v  0.6115 1.3612 0.0378
v  0.6370 -1.4312 0.0272
v  0.6370 1.3612 0.0272
v  -0.9035 1.3418 -0.0419
v  0.0145 1.3418 -0.0419
v  0.0145 1.3418 0.0429
v  -0.9035 1.3418 0.0429
v  -0.9035 1.4270 -0.0576
v  0.0145 1.4270 -0.0576
v  0.0145 1.3535 -0.0576
v  -0.9035 1.3535 -0.0576
v  -0.9035 1.4386 0.0429
v  0.0145 1.4386 0.0429
v  0.0145 1.4386 -0.0419
v  -0.9035 1.4386 -0.0419
v  -0.9035 1.3535 0.0585
v  0.0145 1.3535 0.0585
v  0.0145 1.4270 0.0585
v  -0.9035 1.4270 0.0585
v  -0.9117 1.3506 0.0352
v  -0.9117 1.3506 -0.0342
v  -0.9117 1.3602 -0.0470
v  -0.9117 1.4203 -0.0470
v  -0.9117 1.4298 -0.0342
v  -0.9117 1.4298 0.0352
v  -0.9117 1.4203 0.0479
v  -0.9117 1.3602 0.0479
v  -0.9117 1.3606 0.0355
v  -0.9117 1.3606 -0.0345
v  -0.9117 1.4199 -0.0345
v  -0.9117 1.4199 0.0355
v  0.9035 1.3418 -0.0419
v  0.9035 1.3418 0.0429
v  0.9035 1.4270 -0.0576
v  0.9035 1.3535 -0.0576
v  0.9035 1.4386 0.0429
v  0.9035 1.4386 -0.0419
v  0.9035 1.3535 0.0585
v  0.9035 1.4270 0.0585
v  0.9117 1.3506 -0.0342
v  0.9117 1.3506 0.0352
v  0.9117 1.4203 -0.0470
v  0.9117 1.3602 -0.0470
v  0.9117 1.4298 0.0352
v  0.9117 1.4298 -0.0342
v  0.9117 1.3602 0.0479
v  0.9117 1.4203 0.0479
v  0.9117 1.3606 -0.0345
v  0.9117 1.3606 0.0355
v  0.9117 1.4199 -0.0345
v  0.9117 1.4199 0.0355
v  -0.9035 -1.4386 -0.0419
v  0.0145 -1.4386 -0.0419
v  0.0145 -1.4386 0.0429
v  -0.9035 -1.4386 0.0429
v  -0.9035 -1.3535 -0.0576
v  0.0145 -1.3535 -0.0576
v  0.0145 -1.4270 -0.0576
v  -0.9035 -1.4270 -0.0576
v  -0.9035 -1.3418 0.0429
v  0.0145 -1.3418 0.0429
v  0.0145 -1.3418 -0.0419
v  -0.9035 -1.3418 -0.0419
v  -0.9035 -1.4270 0.0585
v  0.0145 -1.4270 0.0585
v  0.0145 -1.3535 0.0585
v  -0.9035 -1.3535 0.0585
v  -0.9117 -1.4298 0.0352
v  -0.9117 -1.4298 -0.0342
v  -0.9117 -1.4203 -0.0470
v  -0.9117 -1.3602 -0.0470
v  -0.9117 -1.3506 -0.0342
v  -0.9117 -1.3506 0.0352
v  -0.9117 -1.3602 0.0479
v  -0.9117 -1.4203 0.0479
v  -0.9117 -1.4199 0.0355
v  -0.9117 -1.4199 -0.0345
v  -0.9117 -1.3606 -0.0345
v  -0.9117 -1.3606 0.0355
v  0.9035 -1.4386 -0.0419
v  0.9035 -1.4386 0.0429
v  0.9035 -1.3535 -0.0576
v  0.9035 -1.4270 -0.0576
v  0.9035 -1.3418 0.0429
v  0.9035 -1.3418 -0.0419
v  0.9035 -1.4270 0.0585
v  0.9035 -1.3535 0.0585
v  0.9117 -1.4298 -0.0342
v  0.9117 -1.4298 0.0352
v  0.9117 -1.3602 -0.0470
v  0.9117 -1.4203 -0.0470
v  0.9117 -1.3506 0.0352
v  0.9117 -1.3506 -0.0342
v  0.9117 -1.4203 0.0479
v  0.9117 -1.3602 0.0479
v  0.9117 -1.4199 -0.0345
v  0.9117 -1.4199 0.0355
v  0.9117 -1.3606 -0.0345
v  0.9117 -1.3606 0.0355
v  0.8990 1.4013 0.0456
v  0.8990 -1.3755 0.0456
v  0.8990 -1.3755 -0.0421
v  0.8990 1.4013 -0.0421
v  -0.8366 -1.3755 -0.0421
v  -0.8366 1.4013 -0.0421
v  -0.8366 1.4013 0.0456
v  -0.8366 -1.3755 0.0456
v  -0.9097 -1.3755 -0.0421
v  -0.9097 1.4013 -0.0421
v  0.8258 -1.3755 0.0456
v  0.8258 1.4013 0.0456
v  0.8258 1.4013 -0.0421
v  0.8258 -1.3755 -0.0421
v  -0.9097 1.4013 0.0456
v  -0.9097 -1.3755 0.0456
v  0.3404 0.0673 -0.0237
v  0.3404 1.3612 -0.0237
v  0.3509 1.3612 0.0018
v  0.3509 0.0673 0.0018
v  0.3149 0.0673 -0.0343
v  0.3149 1.3612 -0.0343
v  0.2894 0.0673 -0.0237
v  0.2894 1.3612 -0.0237
v  0.2789 0.0673 0.0018
v  0.2789 1.3612 0.0018
v  0.2894 0.0673 0.0272
v  0.2894 1.3612 0.0272
v  0.3149 0.0673 0.0378
v  0.3149 1.3612 0.0378
v  0.3404 0.0673 0.0272
v  0.3404 1.3612 0.0272
v  0.0404 0.0673 -0.0237
v  0.0404 1.3612 -0.0237
v  0.0509 1.3612 0.0018
v  0.0509 0.0673 0.0018
v  0.0149 0.0673 -0.0343
v  0.0149 1.3612 -0.0343
v  -0.0106 0.0673 -0.0237
v  -0.0106 1.3612 -0.0237
v  -0.0211 0.0673 0.0018
v  -0.0211 1.3612 0.0018
v  -0.0106 0.0673 0.0272
v  -0.0106 1.3612 0.0272
v  0.0149 0.0673 0.0378
v  0.0149 1.3612 0.0378
v  0.0404 0.0673 0.0272
v  0.0404 1.3612 0.0272
v  -0.2596 0.0673 -0.0237
v  -0.2596 1.3612 -0.0237
v  -0.2491 1.3612 0.0018
v  -0.2491 0.0673 0.0018
v  -0.2851 0.0673 -0.0343
v  -0.2851 1.3612 -0.0343
v  -0.3106 0.0673 -0.0237
v  -0.3106 1.3612 -0.0237
v  -0.3211 0.0673 0.0018
v  -0.3211 1.3612 0.0018
v  -0.3106 0.0673 0.0272
v  -0.3106 1.3612 0.0272
v  -0.2851 0.0673 0.0378
v  -0.2851 1.3612 0.0378
v  -0.2596 0.0673 0.0272
v  -0.2596 1.3612 0.0272
v  0.8664 0.0032 -0.0419
v  -0.8738 0.0032 -0.0419
v  -0.8738 0.0149 -0.0576
v  0.8664 0.0149 -0.0576
v  0.8664 0.0678 -0.0576
v  -0.8738 0.0678 -0.0576
v  -0.8738 0.0795 -0.0419
v  0.8664 0.0795 -0.0419
v  0.8664 0.0795 0.0429
v  -0.8738 0.0795 0.0429
v  -0.8738 0.0678 0.0585
v  0.8664 0.0678 0.0585
v  0.8664 0.0149 0.0585
v  -0.8738 0.0149 0.0585
v  -0.8738 0.0032 0.0429
v  0.8664 0.0032 0.0429
v  0.8637 -0.2721 -0.0419
v  -0.8751 -0.2721 -0.0419
v  -0.8751 -0.2605 -0.0576
v  0.8637 -0.2605 -0.0576
v  0.8637 -0.2075 -0.0576
v  -0.8751 -0.2075 -0.0576
v  -0.8751 -0.1958 -0.0419
v  0.8637 -0.1958 -0.0419
v  0.8637 -0.1958 0.0429
v  -0.8751 -0.1958 0.0429
v  -0.8751 -0.2075 0.0585
v  0.8637 -0.2075 0.0585
v  0.8637 -0.2605 0.0585
v  -0.8751 -0.2605 0.0585
v  -0.8751 -0.2721 0.0429
v  0.8637 -0.2721 0.0429
v  0.8816 0.0218 -0.0300
v  0.8816 0.0218 0.0309
v  0.8816 0.0610 -0.0300
v  0.8816 0.0610 0.0309
v  0.8789 -0.2536 -0.0300
v  0.8789 -0.2536 0.0309
v  0.8789 -0.2144 -0.0300
v  0.8789 -0.2144 0.0309
v  -0.8890 0.0218 -0.0300
v  -0.8890 0.0610 -0.0300
v  -0.8890 0.0610 0.0309
v  -0.8890 0.0218 0.0309
v  -0.8903 -0.2536 0.0309
v  -0.8903 -0.2536 -0.0300
v  -0.8903 -0.2144 -0.0300
v  -0.8903 -0.2144 0.0309
v  0.8664 0.0710 -0.0419
v  0.2781 0.0710 -0.0419
v  0.2781 0.0827 -0.0576
v  0.8664 0.0827 -0.0576
v  0.8664 0.3104 -0.0576
v  0.2781 0.3104 -0.0576
v  0.2781 0.3221 -0.0419
v  0.8664 0.3221 -0.0419
v  0.8664 0.3221 0.0429
v  0.2781 0.3221 0.0429
v  0.2781 0.3104 0.0585
v  0.8664 0.3104 0.0585
v  0.8664 0.0827 0.0585
v  0.2781 0.0827 0.0585
v  0.2781 0.0710 0.0429
v  0.8664 0.0710 0.0429
v  0.8816 0.0896 -0.0300
v  0.8816 0.0896 0.0309
v  0.8816 0.3035 -0.0300
v  0.8816 0.3035 0.0309
v  0.2629 0.0896 -0.0300
v  0.2629 0.3035 -0.0300
v  0.2629 0.3035 0.0309
v  0.2629 0.0896 0.0309
v  0.6624 0.2449 0.0776
v  0.6817 0.1983 0.0776
v  0.6817 0.1983 0.0000
v  0.6624 0.2449 0.0000
v  0.6158 0.2642 0.0776
v  0.6158 0.2642 0.0000
v  0.5692 0.2449 0.0776
v  0.5692 0.2449 0.0000
v  0.5500 0.1983 0.0776
v  0.5500 0.1983 0.0000
v  0.5692 0.1517 0.0776
v  0.5692 0.1517 0.0000
v  0.6158 0.1324 0.0776
v  0.6158 0.1324 0.0000
v  0.6624 0.1517 0.0776
v  0.6624 0.1517 0.0000
v  0.6496 0.1983 0.0721
v  0.6397 0.2222 0.0721
v  0.6158 0.1983 0.0721
v  0.6158 0.2321 0.0721
v  0.5919 0.2222 0.0721
v  0.5820 0.1983 0.0721
v  0.5919 0.1744 0.0721
v  0.6158 0.1645 0.0721
v  0.6397 0.1744 0.0721
v  0.6431 0.2256 0.0797
v  0.6544 0.1983 0.0797
v  0.6158 0.2369 0.0797
v  0.5886 0.2256 0.0797
v  0.5773 0.1983 0.0797
v  0.5886 0.1711 0.0797
v  0.6158 0.1598 0.0797
v  0.6431 0.1711 0.0797
v  0.6624 0.2449 -0.0776
v  0.6817 0.1983 -0.0776
v  0.6158 0.2642 -0.0776
v  0.5692 0.2449 -0.0776
v  0.5500 0.1983 -0.0776
v  0.5692 0.1517 -0.0776
v  0.6158 0.1324 -0.0776
v  0.6624 0.1517 -0.0776
v  0.6496 0.1983 -0.0721
v  0.6158 0.1983 -0.0721
v  0.6397 0.2222 -0.0721
v  0.6158 0.2321 -0.0721
v  0.5919 0.2222 -0.0721
v  0.5820 0.1983 -0.0721
v  0.5919 0.1744 -0.0721
v  0.6158 0.1645 -0.0721
v  0.6397 0.1744 -0.0721
v  0.6544 0.1983 -0.0797
v  0.6431 0.2256 -0.0797
v  0.6158 0.2369 -0.0797
v  0.5886 0.2256 -0.0797
v  0.5773 0.1983 -0.0797
v  0.5886 0.1711 -0.0797
v  0.6158 0.1598 -0.0797
v  0.6431 0.1711 -0.0797
# 370 vertices

vn 1.0000 0.0000 -0.0000
vn 0.7071 0.0000 -0.7071
vn 0.0000 0.0000 -1.0000
vn -0.7071 0.0000 -0.7071
vn -1.0000 0.0000 -0.0000
vn -0.7071 0.0000 0.7071
vn 0.0000 0.0000 1.0000
vn 0.7071 0.0000 0.7071
vn -0.0000 0.0000 -1.0000
vn -0.0000 0.0000 1.0000
vn -0.4180 -0.8568 -0.3020
vn 0.0000 -0.9489 -0.3155
vn 0.0000 -0.9489 0.3155
vn -0.4180 -0.8568 0.3020
vn -0.4269 0.4094 -0.8063
vn 0.0000 0.4480 -0.8941
vn -0.0000 -0.4479 -0.8941
vn -0.4269 -0.4095 -0.8063
vn -0.4180 0.8568 0.3020
vn 0.0000 0.9489 0.3155
vn 0.0000 0.9489 -0.3155
vn -0.4180 0.8568 -0.3020
vn -0.4269 -0.4095 0.8063
vn -0.0000 -0.4479 0.8941
vn 0.0000 0.4480 0.8941
vn -0.4269 0.4094 0.8063
vn -0.9236 -0.3727 0.0897
vn -0.9236 -0.3727 -0.0897
vn -0.9330 -0.1492 -0.3275
vn -0.9330 0.1492 -0.3275
vn -0.9236 0.3727 -0.0897
vn -0.9236 0.3727 0.0897
vn -0.9330 0.1492 0.3275
vn -0.9330 -0.1492 0.3275
vn 0.4180 -0.8568 -0.3020
vn 0.4180 -0.8568 0.3020
vn 0.4269 0.4094 -0.8063
vn 0.4269 -0.4095 -0.8063
vn 0.4180 0.8568 0.3020
vn 0.4180 0.8568 -0.3020
vn 0.4269 -0.4095 0.8063
vn 0.4269 0.4094 0.8063
vn 0.9236 -0.3727 -0.0897
vn 0.9236 -0.3727 0.0897
vn 0.9330 0.1492 -0.3275
vn 0.9330 -0.1492 -0.3275
vn 0.9236 0.3727 0.0897
vn 0.9236 0.3727 -0.0897
vn 0.9330 -0.1492 0.3275
vn 0.9330 0.1492 0.3275
vn 0.0000 0.4479 -0.8941
vn 0.0000 -0.4479 -0.8941
vn -0.4269 -0.4094 -0.8063
vn -0.4269 -0.4094 0.8063
vn 0.0000 -0.4479 0.8941
vn 0.0000 0.4479 0.8941
vn -0.9236 -0.3726 0.0897
vn -0.9236 -0.3726 -0.0897
vn 0.4269 -0.4094 -0.8063
vn 0.4269 -0.4094 0.8063
vn 0.9236 -0.3726 -0.0897
vn 0.9236 -0.3726 0.0897
vn 0.4257 -0.8554 -0.2950
vn -0.4262 -0.8552 -0.2949
vn -0.4558 -0.3897 -0.8002
vn 0.4555 -0.3897 -0.8004
vn 0.4555 0.3897 -0.8004
vn -0.4559 0.3896 -0.8002
vn -0.4262 0.8552 -0.2949
vn 0.4257 0.8554 -0.2950
vn 0.4257 0.8554 0.2950
vn -0.4262 0.8552 0.2949
vn -0.4559 0.3896 0.8002
vn 0.4555 0.3897 0.8004
vn 0.4555 -0.3897 0.8004
vn -0.4559 -0.3896 0.8002
vn -0.4262 -0.8552 0.2949
vn 0.4257 -0.8554 0.2950
vn 0.4263 -0.8551 -0.2949
vn -0.4259 -0.8553 -0.2950
vn -0.4556 -0.3897 -0.8003
vn 0.4560 -0.3896 -0.8002
vn 0.4560 0.3896 -0.8002
vn -0.4557 0.3897 -0.8003
vn -0.4259 0.8553 -0.2950
vn 0.4264 0.8551 -0.2949
vn 0.4264 0.8551 0.2949
vn -0.4259 0.8553 0.2950
vn -0.4557 0.3897 0.8003
vn 0.4560 0.3896 0.8002
vn 0.4560 -0.3896 0.8002
vn -0.4556 -0.3897 0.8003
vn -0.4259 -0.8553 0.2950
vn 0.4263 -0.8551 0.2949
vn 0.9388 -0.2842 -0.1944
vn 0.9388 -0.2842 0.1944
vn 0.9388 0.2842 -0.1944
vn 0.9388 0.2842 0.1944
vn 0.9392 -0.2835 -0.1938
vn 0.9392 -0.2835 0.1938
vn 0.9392 0.2835 -0.1938
vn 0.9392 0.2835 0.1938
vn -0.9391 -0.2837 -0.1940
vn -0.9391 0.2837 -0.1940
vn -0.9391 0.2837 0.1940
vn -0.9391 -0.2837 0.1940
vn -0.9389 -0.2840 0.1943
vn -0.9389 -0.2840 -0.1943
vn -0.9389 0.2840 -0.1943
vn -0.9389 0.2840 0.1943
vn -0.4559 -0.3897 -0.8002
vn 0.5625 0.5625 0.6059
vn 0.7955 0.0000 0.6059
vn 0.7071 0.7071 -0.0000
vn 0.0000 0.7955 0.6059
vn 0.0000 1.0000 -0.0000
vn -0.5625 0.5625 0.6059
vn -0.7071 0.7071 -0.0000
vn -0.7955 0.0000 0.6059
vn -0.5625 -0.5625 0.6059
vn -0.7071 -0.7071 -0.0000
vn 0.0000 -0.7955 0.6059
vn 0.0000 -1.0000 -0.0000
vn 0.5625 -0.5625 0.6059
vn 0.7071 -0.7071 -0.0000
vn -0.5664 0.0000 0.8241
vn -0.4004 -0.4004 0.8242
vn -0.0000 -0.5663 0.8242
vn 0.4004 -0.4004 0.8242
vn 0.5664 0.0000 0.8241
vn 0.4004 0.4004 0.8242
vn 0.0000 0.5663 0.8242
vn -0.4004 0.4004 0.8242
vn -0.2373 -0.2373 0.9420
vn -0.3357 -0.0000 0.9420
vn -0.0000 -0.3356 0.9420
vn 0.2373 -0.2373 0.9420
vn 0.3357 0.0000 0.9420
vn 0.2373 0.2373 0.9420
vn 0.0000 0.3356 0.9420
vn -0.2373 0.2373 0.9420
vn 0.5625 0.5625 -0.6059
vn 0.7955 0.0000 -0.6059
vn 0.0000 0.7955 -0.6059
vn -0.5625 0.5625 -0.6059
vn -0.7955 0.0000 -0.6059
vn -0.5625 -0.5625 -0.6059
vn 0.0000 -0.7955 -0.6059
vn 0.5625 -0.5625 -0.6059
vn -0.5664 0.0000 -0.8241
vn -0.4004 -0.4004 -0.8242
vn -0.0000 -0.5663 -0.8242
vn 0.4004 -0.4004 -0.8242
vn 0.5664 0.0000 -0.8241
vn 0.4004 0.4004 -0.8242
vn 0.0000 0.5663 -0.8242
vn -0.4004 0.4004 -0.8242
vn -0.3357 -0.0000 -0.9420
vn -0.2373 -0.2373 -0.9420
vn -0.0000 -0.3356 -0.9420
vn 0.2373 -0.2373 -0.9420
vn 0.3357 0.0000 -0.9420
vn 0.2373 0.2373 -0.9420
vn 0.0000 0.3356 -0.9420
vn -0.2373 0.2373 -0.9420
# 165 vertex normals

vt 0.7500 0.0000 1.0000
vt 0.8750 0.0000 1.0000
vt 0.8750 0.1220 1.0000
vt 0.7500 0.1220 1.0000
vt -0.1250 0.0000 1.0000
vt 0.0000 0.0000 1.0000
vt 0.0000 0.1220 1.0000
vt -0.1250 0.1220 1.0000
vt 0.1250 0.0000 1.0000
vt 0.1250 0.1220 1.0000
vt 0.2500 0.0000 1.0000
vt 0.2500 0.1220 1.0000
vt 0.3750 0.0000 1.0000
vt 0.3750 0.1220 1.0000
vt 0.5000 0.0000 1.0000
vt 0.5000 0.1220 1.0000
vt 0.6250 0.0000 1.0000
vt 0.6250 0.1220 1.0000
vt 0.8750 0.4878 1.0000
vt 0.7500 0.4878 1.0000
vt 0.0000 0.4878 1.0000
vt -0.1250 0.4878 1.0000
vt 0.1250 0.4878 1.0000
vt 0.2500 0.4878 1.0000
vt 0.3750 0.4878 1.0000
vt 0.5000 0.4878 1.0000
vt 0.6250 0.4878 1.0000
vt 0.8414 0.2658 1.0000
vt 0.8414 0.3914 1.0000
vt 0.6586 0.3914 1.0000
vt 0.6586 0.2658 1.0000
vt 0.1045 0.2658 1.0000
vt 0.1045 0.3914 1.0000
vt -0.1045 0.3914 1.0000
vt -0.1045 0.2658 1.0000
vt 0.3414 0.2658 1.0000
vt 0.3414 0.3914 1.0000
vt 0.1586 0.3914 1.0000
vt 0.1586 0.2658 1.0000
vt 0.6045 0.2658 1.0000
vt 0.6045 0.3914 1.0000
vt 0.3955 0.3914 1.0000
vt 0.3955 0.2658 1.0000
vt 0.8750 0.2658 1.0000
vt 0.6316 0.2658 1.0000
vt 0.8582 0.2658 1.0000
vt 0.1316 0.2658 1.0000
vt 0.3684 0.2658 1.0000
vt 0.8750 0.3914 1.0000
vt 0.4714 0.5000 1.0000
vt 0.4714 0.2500 1.0000
vt 0.0286 0.2500 1.0000
vt 0.0286 0.5000 1.0000
vt 0.8750 0.2500 1.0000
vt 0.8750 0.5000 1.0000
vt 0.6250 0.5000 1.0000
vt 0.6250 0.2500 1.0000
vt -0.0286 0.2500 1.0000
vt -0.0286 0.5000 1.0000
vt -0.1250 0.5000 1.0000
vt -0.1250 0.2500 1.0000
vt 0.3750 0.2500 1.0000
vt 0.3750 0.5000 1.0000
vt 0.1250 0.5000 1.0000
vt 0.1250 0.2500 1.0000
vt 0.5286 0.5000 1.0000
vt 0.5286 0.2500 1.0000
vt 0.8750 0.2439 1.0000
vt 0.7500 0.2439 1.0000
vt 0.0000 0.2439 1.0000
vt -0.1250 0.2439 1.0000
vt 0.1250 0.2439 1.0000
vt 0.2500 0.2439 1.0000
vt 0.3750 0.2439 1.0000
vt 0.5000 0.2439 1.0000
vt 0.6250 0.2439 1.0000
vt 0.8414 0.5110 1.0000
vt 0.8414 0.2706 1.0000
vt 0.8750 0.2706 1.0000
vt 0.8750 0.5110 1.0000
vt 0.1045 0.5110 1.0000
vt 0.1045 0.2706 1.0000
vt 0.1586 0.2706 1.0000
vt 0.1586 0.5110 1.0000
vt 0.3414 0.5110 1.0000
vt 0.3414 0.2706 1.0000
vt 0.3955 0.2706 1.0000
vt 0.3955 0.5110 1.0000
vt 0.6045 0.5110 1.0000
vt 0.6045 0.2706 1.0000
vt 0.6586 0.2706 1.0000
vt 0.6586 0.5110 1.0000
vt 0.8414 0.5106 1.0000
vt 0.8414 0.2704 1.0000
vt 0.8750 0.2704 1.0000
vt 0.8750 0.5106 1.0000
vt 0.1045 0.5106 1.0000
vt 0.1045 0.2704 1.0000
vt 0.1586 0.2704 1.0000
vt 0.1586 0.5106 1.0000
vt 0.3414 0.5106 1.0000
vt 0.3414 0.2704 1.0000
vt 0.3955 0.2704 1.0000
vt 0.3955 0.5106 1.0000
vt 0.6045 0.5106 1.0000
vt 0.6045 0.2704 1.0000
vt 0.6586 0.2704 1.0000
vt 0.6586 0.5106 1.0000
vt -0.1045 0.5110 1.0000
vt -0.1045 0.2706 1.0000
vt -0.1045 0.5106 1.0000
vt -0.1045 0.2704 1.0000
vt 0.8582 0.5110 1.0000
vt 0.6316 0.5110 1.0000
vt 0.1316 0.5110 1.0000
vt 0.3684 0.5110 1.0000
vt 0.8582 0.5106 1.0000
vt 0.6316 0.5106 1.0000
vt 0.1316 0.5106 1.0000
vt 0.3684 0.5106 1.0000
vt 0.8582 0.2706 1.0000
vt 0.1316 0.2706 1.0000
vt 0.3684 0.2706 1.0000
vt 0.6316 0.2706 1.0000
vt 0.6316 0.2704 1.0000
vt 0.8582 0.2704 1.0000
vt 0.1316 0.2704 1.0000
vt 0.3684 0.2704 1.0000
vt 0.8750 0.3987 1.0000
vt 0.7500 0.3987 1.0000
vt 0.7500 0.3558 1.0000
vt 0.8750 0.3558 1.0000
vt 0.0000 0.3987 1.0000
vt -0.1250 0.3987 1.0000
vt -0.1250 0.3558 1.0000
vt 0.0000 0.3558 1.0000
vt 0.1250 0.3987 1.0000
vt 0.1250 0.3558 1.0000
vt 0.2500 0.3987 1.0000
vt 0.2500 0.3558 1.0000
vt 0.3750 0.3987 1.0000
vt 0.3750 0.3558 1.0000
vt 0.5000 0.3987 1.0000
vt 0.5000 0.3558 1.0000
vt 0.6250 0.3987 1.0000
vt 0.6250 0.3558 1.0000
vt 0.6645 0.4007 1.0000
vt 0.7610 0.4007 1.0000
vt 0.3750 0.4007 1.0000
vt -0.0110 0.4007 1.0000
vt 0.0855 0.4007 1.0000
vt 0.1820 0.4007 1.0000
vt 0.2785 0.4007 1.0000
vt 0.4715 0.4007 1.0000
vt 0.5680 0.4007 1.0000
# 155 texture coords

o JailSlidingDoor_00
g JailSlidingDoor_00
usemtl Material__65
s 1
f 1/1/1 2/2/2 3/3/2 4/4/1 
s 2
f 2/5/2 5/6/3 6/7/3 3/8/2 
s 1
f 5/6/3 7/9/4 8/10/4 6/7/3 
s 2
f 7/9/4 9/11/5 10/12/5 8/10/4 
s 1
f 9/11/5 11/13/6 12/14/6 10/12/5 
s 2
f 11/13/6 13/15/7 14/16/7 12/14/6 
s 1
f 13/15/7 15/17/8 16/18/8 14/16/7 
s 2
f 15/17/8 1/1/1 4/4/1 16/18/8 
s 1
f 17/1/1 18/2/2 19/3/2 20/4/1 
s 2
f 18/5/2 21/6/9 22/7/9 19/8/2 
s 1
f 21/6/9 23/9/4 24/10/4 22/7/9 
s 2
f 23/9/4 25/11/5 26/12/5 24/10/4 
s 1
f 25/11/5 27/13/6 28/14/6 26/12/5 
s 2
f 27/13/6 29/15/10 30/16/10 28/14/6 
s 1
f 29/15/10 31/17/8 32/18/8 30/16/10 
s 2
f 31/17/8 17/1/1 20/4/1 32/18/8 
s 1
f 33/1/1 34/2/2 35/3/2 36/4/1 
s 2
f 34/5/2 37/6/3 38/7/3 35/8/2 
s 1
f 37/6/3 39/9/4 40/10/4 38/7/3 
s 2
f 39/9/4 41/11/5 42/12/5 40/10/4 
s 1
f 41/11/5 43/13/6 44/14/6 42/12/5 
s 2
f 43/13/6 45/15/7 46/16/7 44/14/6 
s 1
f 45/15/7 47/17/8 48/18/8 46/16/7 
s 2
f 47/17/8 33/1/1 36/4/1 48/18/8 
s 1
f 49/1/1 50/2/2 51/19/2 52/20/1 
s 2
f 50/5/2 53/6/3 54/21/3 51/22/2 
s 1
f 53/6/3 55/9/4 56/23/4 54/21/3 
s 2
f 55/9/4 57/11/5 58/24/5 56/23/4 
s 1
f 57/11/5 59/13/6 60/25/6 58/24/5 
s 2
f 59/13/6 61/15/7 62/26/7 60/25/6 
s 1
f 61/15/7 63/17/8 64/27/8 62/26/7 
s 2
f 63/17/8 49/1/1 52/20/1 64/27/8 
s 1
f 65/1/1 66/2/2 67/19/2 68/20/1 
s 2
f 66/5/2 69/6/3 70/21/3 67/22/2 
s 1
f 69/6/3 71/9/4 72/23/4 70/21/3 
s 2
f 71/9/4 73/11/5 74/24/5 72/23/4 
s 1
f 73/11/5 75/13/6 76/25/6 74/24/5 
s 2
f 75/13/6 77/15/7 78/26/7 76/25/6 
s 1
f 77/15/7 79/17/8 80/27/8 78/26/7 
s 2
f 79/17/8 65/1/1 68/20/1 80/27/8 
s 1
f 81/28/11 82/29/12 83/30/13 84/31/14 
f 85/32/15 86/33/16 87/34/17 88/35/18 
f 89/36/19 90/37/20 91/38/21 92/39/22 
f 93/40/23 94/41/24 95/42/25 96/43/26 
s 2
f 81/28/11 84/31/14 97/31/27 98/28/28 
s 4
f 85/32/15 88/35/18 99/35/29 100/32/30 
s 2
f 89/36/19 92/39/22 101/39/31 102/36/32 
s 4
f 93/40/23 96/43/26 103/43/33 104/40/34 
s 2
f 88/44/18 81/28/11 98/28/28 99/44/29 
f 92/39/22 85/32/15 100/32/30 101/39/31 
f 96/43/26 89/36/19 102/36/32 103/43/33 
f 84/31/14 93/40/23 104/40/34 97/31/27 
s 1
f 98/28/28 97/31/27 105/45/5 106/46/5 
f 100/32/30 99/35/29 106/35/5 107/47/5 
f 102/36/32 101/39/31 107/47/5 108/48/5 
f 104/40/34 103/43/33 108/48/5 105/45/5 
f 99/44/29 98/28/28 106/46/5 
f 101/39/31 100/32/30 107/47/5 
f 103/43/33 102/36/32 108/48/5 
f 97/31/27 104/40/34 105/45/5 
f 105/45/5 108/48/5 107/47/5 106/35/5 
s 8
f 82/29/12 81/28/11 88/44/18 87/49/17 
f 86/33/16 85/32/15 92/39/22 91/38/21 
f 90/37/20 89/36/19 96/43/26 95/42/25 
f 94/41/24 93/40/23 84/31/14 83/30/13 
s 1
f 109/28/35 110/31/36 83/30/13 82/29/12 
f 111/32/37 112/35/38 87/34/17 86/33/16 
f 113/36/39 114/39/40 91/38/21 90/37/20 
f 115/40/41 116/43/42 95/42/25 94/41/24 
s 2
f 109/28/35 117/28/43 118/31/44 110/31/36 
s 4
f 111/32/37 119/32/45 120/35/46 112/35/38 
s 2
f 113/36/39 121/36/47 122/39/48 114/39/40 
s 4
f 115/40/41 123/40/49 124/43/50 116/43/42 
s 2
f 112/44/38 120/44/46 117/28/43 109/28/35 
f 114/39/40 122/39/48 119/32/45 111/32/37 
f 116/43/42 124/43/50 121/36/47 113/36/39 
f 110/31/36 118/31/44 123/40/49 115/40/41 
s 1
f 117/28/43 125/46/1 126/45/1 118/31/44 
f 119/32/45 127/47/1 125/35/1 120/35/46 
f 121/36/47 128/48/1 127/47/1 122/39/48 
f 123/40/49 126/45/1 128/48/1 124/43/50 
f 120/44/46 125/46/1 117/28/43 
f 122/39/48 127/47/1 119/32/45 
f 124/43/50 128/48/1 121/36/47 
f 118/31/44 126/45/1 123/40/49 
f 126/45/1 125/35/1 127/47/1 128/48/1 
s 8
f 82/29/12 87/49/17 112/44/38 109/28/35 
f 86/33/16 91/38/21 114/39/40 111/32/37 
f 90/37/20 95/42/25 116/43/42 113/36/39 
f 94/41/24 83/30/13 110/31/36 115/40/41 
s 1
f 129/28/11 130/29/12 131/30/13 132/31/14 
f 133/32/15 134/33/51 135/34/52 136/35/53 
f 137/36/19 138/37/20 139/38/21 140/39/22 
f 141/40/54 142/41/55 143/42/56 144/43/26 
s 2
f 129/28/11 132/31/14 145/31/57 146/28/58 
s 4
f 133/32/15 136/35/53 147/35/29 148/32/30 
s 2
f 137/36/19 140/39/22 149/39/31 150/36/32 
s 4
f 141/40/54 144/43/26 151/43/33 152/40/34 
s 2
f 136/44/53 129/28/11 146/28/58 147/44/29 
f 140/39/22 133/32/15 148/32/30 149/39/31 
f 144/43/26 137/36/19 150/36/32 151/43/33 
f 132/31/14 141/40/54 152/40/34 145/31/57 
s 1
f 146/28/58 145/31/57 153/45/5 154/46/5 
f 148/32/30 147/35/29 154/35/5 155/47/5 
f 150/36/32 149/39/31 155/47/5 156/48/5 
f 152/40/34 151/43/33 156/48/5 153/45/5 
f 147/44/29 146/28/58 154/46/5 
f 149/39/31 148/32/30 155/47/5 
f 151/43/33 150/36/32 156/48/5 
f 145/31/57 152/40/34 153/45/5 
f 153/45/5 156/48/5 155/47/5 154/35/5 
s 8
f 130/29/12 129/28/11 136/44/53 135/49/52 
f 134/33/51 133/32/15 140/39/22 139/38/21 
f 138/37/20 137/36/19 144/43/26 143/42/56 
f 142/41/55 141/40/54 132/31/14 131/30/13 
s 1
f 157/28/35 158/31/36 131/30/13 130/29/12 
f 159/32/37 160/35/59 135/34/52 134/33/51 
f 161/36/39 162/39/40 139/38/21 138/37/20 
f 163/40/60 164/43/42 143/42/56 142/41/55 
s 2
f 157/28/35 165/28/61 166/31/62 158/31/36 
s 4
f 159/32/37 167/32/45 168/35/46 160/35/59 
s 2
f 161/36/39 169/36/47 170/39/48 162/39/40 
s 4
f 163/40/60 171/40/49 172/43/50 164/43/42 
s 2
f 160/44/59 168/44/46 165/28/61 157/28/35 
f 162/39/40 170/39/48 167/32/45 159/32/37 
f 164/43/42 172/43/50 169/36/47 161/36/39 
f 158/31/36 166/31/62 171/40/49 163/40/60 
s 1
f 165/28/61 173/46/1 174/45/1 166/31/62 
f 167/32/45 175/47/1 173/35/1 168/35/46 
f 169/36/47 176/48/1 175/47/1 170/39/48 
f 171/40/49 174/45/1 176/48/1 172/43/50 
f 168/44/46 173/46/1 165/28/61 
f 170/39/48 175/47/1 167/32/45 
f 172/43/50 176/48/1 169/36/47 
f 166/31/62 174/45/1 171/40/49 
f 174/45/1 173/35/1 175/47/1 176/48/1 
s 8
f 130/29/12 135/49/52 160/44/59 157/28/35 
f 134/33/51 139/38/21 162/39/40 159/32/37 
f 138/37/20 143/42/56 164/43/42 161/36/39 
f 142/41/55 131/30/13 158/31/36 163/40/60 
s 1
f 177/50/8 178/51/8 179/52/2 180/53/2 
f 181/54/2 182/55/2 183/56/8 184/57/8 
s 2
f 185/58/4 186/59/4 182/60/2 181/61/2 
s 1
f 187/62/6 188/63/6 189/64/4 190/65/4 
s 2
f 178/51/8 177/50/8 188/63/6 187/62/6 
f 184/57/8 183/56/8 191/66/6 192/67/6 
f 190/65/4 189/64/4 180/53/2 179/52/2 
s 1
f 192/67/6 191/66/6 186/59/4 185/58/4 
f 193/68/2 194/19/2 195/20/1 196/69/1 
s 2
f 197/70/3 198/21/3 194/22/2 193/71/2 
s 1
f 199/72/4 200/23/4 198/21/3 197/70/3 
s 2
f 201/73/5 202/24/5 200/23/4 199/72/4 
s 1
f 203/74/6 204/25/6 202/24/5 201/73/5 
s 2
f 205/75/7 206/26/7 204/25/6 203/74/6 
s 1
f 207/76/8 208/27/8 206/26/7 205/75/7 
s 2
f 196/69/1 195/20/1 208/27/8 207/76/8 
s 1
f 209/68/2 210/19/2 211/20/1 212/69/1 
s 2
f 213/70/9 214/21/9 210/22/2 209/71/2 
s 1
f 215/72/4 216/23/4 214/21/9 213/70/9 
s 2
f 217/73/5 218/24/5 216/23/4 215/72/4 
s 1
f 219/74/6 220/25/6 218/24/5 217/73/5 
s 2
f 221/75/10 222/26/10 220/25/6 219/74/6 
s 1
f 223/76/8 224/27/8 222/26/10 221/75/10 
s 2
f 212/69/1 211/20/1 224/27/8 223/76/8 
s 1
f 225/68/2 226/19/2 227/20/1 228/69/1 
s 2
f 229/70/3 230/21/3 226/22/2 225/71/2 
s 1
f 231/72/4 232/23/4 230/21/3 229/70/3 
s 2
f 233/73/5 234/24/5 232/23/4 231/72/4 
s 1
f 235/74/6 236/25/6 234/24/5 233/73/5 
s 2
f 237/75/7 238/26/7 236/25/6 235/74/6 
s 1
f 239/76/8 240/27/8 238/26/7 237/75/7 
s 2
f 228/69/1 227/20/1 240/27/8 239/76/8 
s 1
f 241/77/63 242/78/64 243/79/65 244/80/66 
f 245/81/67 246/82/68 247/83/69 248/84/70 
f 249/85/71 250/86/72 251/87/73 252/88/74 
f 253/89/75 254/90/76 255/91/77 256/92/78 
f 257/93/79 258/94/80 259/95/81 260/96/82 
f 261/97/83 262/98/84 263/99/85 264/100/86 
f 265/101/87 266/102/88 267/103/89 268/104/90 
f 269/105/91 270/106/92 271/107/93 272/108/94 
s 2
f 242/78/64 241/77/63 256/92/78 255/91/77 
f 246/82/68 245/81/67 244/109/66 243/110/65 
f 250/86/72 249/85/71 248/84/70 247/83/69 
f 254/90/76 253/89/75 252/88/74 251/87/73 
f 258/94/80 257/93/79 272/108/94 271/107/93 
f 262/98/84 261/97/83 260/111/82 259/112/81 
f 266/102/88 265/101/87 264/100/86 263/99/85 
f 270/106/92 269/105/91 268/104/90 267/103/89 
s 4
f 256/92/78 241/77/63 273/113/95 274/114/96 
f 244/109/66 245/81/67 275/115/97 273/109/95 
f 248/84/70 249/85/71 276/116/98 275/115/97 
f 252/88/74 253/89/75 274/114/96 276/116/98 
f 241/77/63 244/80/66 273/113/95 
f 245/81/67 248/84/70 275/115/97 
f 249/85/71 252/88/74 276/116/98 
f 253/89/75 256/92/78 274/114/96 
f 272/108/94 257/93/79 277/117/99 278/118/100 
f 260/111/82 261/97/83 279/119/101 277/111/99 
f 264/100/86 265/101/87 280/120/102 279/119/101 
f 268/104/90 269/105/91 278/118/100 280/120/102 
f 257/93/79 260/96/82 277/117/99 
f 261/97/83 264/100/86 279/119/101 
f 265/101/87 268/104/90 280/120/102 
f 269/105/91 272/108/94 278/118/100 
f 243/79/65 242/78/64 281/121/103 
f 247/83/69 246/82/68 282/122/104 
f 251/87/73 250/86/72 283/123/105 
f 255/91/77 254/90/76 284/124/106 
f 242/78/64 255/91/77 284/124/106 281/121/103 
f 246/82/68 243/110/65 281/110/103 282/122/104 
f 250/86/72 247/83/69 282/122/104 283/123/105 
f 254/90/76 251/87/73 283/123/105 284/124/106 
f 258/94/80 271/107/93 285/125/107 286/126/108 
f 262/98/84 259/112/81 286/112/108 287/127/109 
f 266/102/88 263/99/85 287/127/109 288/128/110 
f 270/106/92 267/103/89 288/128/110 285/125/107 
f 259/95/81 258/94/80 286/126/108 
f 263/99/85 262/98/84 287/127/109 
f 267/103/89 266/102/88 288/128/110 
f 271/107/93 270/106/92 285/125/107 
f 273/113/95 275/115/97 276/116/98 274/114/96 
f 277/117/99 279/119/101 280/120/102 278/118/100 
f 284/124/106 283/123/105 282/122/104 281/110/103 
f 285/125/107 288/128/110 287/127/109 286/112/108 
s 1
f 289/77/63 290/78/64 291/79/111 292/80/66 
f 293/81/67 294/82/68 295/83/69 296/84/70 
f 297/85/71 298/86/72 299/87/73 300/88/74 
f 301/89/75 302/90/76 303/91/77 304/92/78 
s 2
f 290/78/64 289/77/63 304/92/78 303/91/77 
f 294/82/68 293/81/67 292/109/66 291/110/111 
f 298/86/72 297/85/71 296/84/70 295/83/69 
f 302/90/76 301/89/75 300/88/74 299/87/73 
s 4
f 304/92/78 289/77/63 305/113/95 306/114/96 
f 292/109/66 293/81/67 307/115/97 305/109/95 
f 296/84/70 297/85/71 308/116/98 307/115/97 
f 300/88/74 301/89/75 306/114/96 308/116/98 
f 289/77/63 292/80/66 305/113/95 
f 293/81/67 296/84/70 307/115/97 
f 297/85/71 300/88/74 308/116/98 
f 301/89/75 304/92/78 306/114/96 
f 291/79/111 290/78/64 309/121/103 
f 295/83/69 294/82/68 310/122/104 
f 299/87/73 298/86/72 311/123/105 
f 303/91/77 302/90/76 312/124/106 
f 290/78/64 303/91/77 312/124/106 309/121/103 
f 294/82/68 291/110/111 309/110/103 310/122/104 
f 298/86/72 295/83/69 310/122/104 311/123/105 
f 302/90/76 299/87/73 311/123/105 312/124/106 
f 305/113/95 307/115/97 308/116/98 306/114/96 
f 312/124/106 311/123/105 310/122/104 309/110/103 
s 1
f 313/129/112 314/130/113 315/131/1 316/132/114 
s 2
f 317/133/115 313/134/112 316/135/114 318/136/116 
s 1
f 319/137/117 317/133/115 318/136/116 320/138/118 
s 2
f 321/139/119 319/137/117 320/138/118 322/140/5 
s 1
f 323/141/120 321/139/119 322/140/5 324/142/121 
s 2
f 325/143/122 323/141/120 324/142/121 326/144/123 
s 1
f 327/145/124 325/143/122 326/144/123 328/146/125 
s 2
f 314/130/113 327/145/124 328/146/125 315/131/1 
s 1
f 329/147/126 330/148/127 331/149/7 
f 330/150/127 332/151/128 331/149/7 
f 332/151/128 333/152/129 331/149/7 
f 333/152/129 334/153/130 331/149/7 
f 334/153/130 335/149/131 331/149/7 
f 335/149/131 336/154/132 331/149/7 
f 336/154/132 337/155/133 331/149/7 
f 337/155/133 329/147/126 331/149/7 
s 4
f 314/130/113 313/129/112 338/148/134 339/147/135 
s 8
f 313/134/112 317/133/115 340/151/136 338/150/134 
s 4
f 317/133/115 319/137/117 341/152/137 340/151/136 
s 8
f 319/137/117 321/139/119 342/153/138 341/152/137 
s 4
f 321/139/119 323/141/120 343/149/139 342/153/138 
s 8
f 323/141/120 325/143/122 344/154/140 343/149/139 
s 4
f 325/143/122 327/145/124 345/155/141 344/154/140 
s 8
f 327/145/124 314/130/113 339/147/135 345/155/141 
s off
f 339/147/135 338/148/134 330/148/127 329/147/126 
f 338/150/134 340/151/136 332/151/128 330/150/127 
f 340/151/136 341/152/137 333/152/129 332/151/128 
f 341/152/137 342/153/138 334/153/130 333/152/129 
f 342/153/138 343/149/139 335/149/131 334/153/130 
f 343/149/139 344/154/140 336/154/132 335/149/131 
f 344/154/140 345/155/141 337/155/133 336/154/132 
f 345/155/141 339/147/135 329/147/126 337/155/133 
s 1
f 346/129/142 316/132/114 315/131/1 347/130/143 
s 2
f 348/133/144 318/136/116 316/135/114 346/134/142 
s 1
f 349/137/145 320/138/118 318/136/116 348/133/144 
s 2
f 350/139/146 322/140/5 320/138/118 349/137/145 
s 1
f 351/141/147 324/142/121 322/140/5 350/139/146 
s 2
f 352/143/148 326/144/123 324/142/121 351/141/147 
s 1
f 353/145/149 328/146/125 326/144/123 352/143/148 
s 2
f 347/130/143 315/131/1 328/146/125 353/145/149 
s 1
f 354/147/150 355/149/3 356/148/151 
f 356/150/151 355/149/3 357/151/152 
f 357/151/152 355/149/3 358/152/153 
f 358/152/153 355/149/3 359/153/154 
f 359/153/154 355/149/3 360/149/155 
f 360/149/155 355/149/3 361/154/156 
f 361/154/156 355/149/3 362/155/157 
f 362/155/157 355/149/3 354/147/150 
s 4
f 347/130/143 363/147/158 364/148/159 346/129/142 
s 8
f 346/134/142 364/150/159 365/151/160 348/133/144 
s 4
f 348/133/144 365/151/160 366/152/161 349/137/145 
s 8
f 349/137/145 366/152/161 367/153/162 350/139/146 
s 4
f 350/139/146 367/153/162 368/149/163 351/141/147 
s 8
f 351/141/147 368/149/163 369/154/164 352/143/148 
s 4
f 352/143/148 369/154/164 370/155/165 353/145/149 
s 8
f 353/145/149 370/155/165 363/147/158 347/130/143 
s off
f 363/147/158 354/147/150 356/148/151 364/148/159 
f 364/150/159 356/150/151 357/151/152 365/151/160 
f 365/151/160 357/151/152 358/152/153 366/152/161 
f 366/152/161 358/152/153 359/153/154 367/153/162 
f 367/153/162 359/153/154 360/149/155 368/149/163 
f 368/149/163 360/149/155 361/154/156 369/154/164 
f 369/154/164 361/154/156 362/155/157 370/155/165 
f 370/155/165 362/155/157 354/147/150 363/147/158 
# 258 polygons - 56 triangles

