# 3ds Max Wavefront OBJ Exporter v0.99 - (c)2007 guruware
# File Created: 18.12.2025 16:13:19

mtllib JailSlidingDoor_Anchor.mtl

#
# object JailSlidingDoor_09
#

v  -1.6106 7.8857 -6.9427
v  0.1965 7.8857 -6.9427
v  0.1965 7.8857 -7.0587
v  -1.6106 7.8857 -7.0587
v  -1.6106 5.0317 -6.9427
v  -1.6106 5.0317 -7.0587
v  0.1965 5.0317 -7.0587
v  0.1965 5.0317 -6.9427
# 8 vertices

vn -0.5774 0.5774 0.5774
vn 0.5774 0.5774 0.5774
vn 0.5774 0.5774 -0.5774
vn -0.5773 0.5774 -0.5774
vn -0.5774 -0.5774 0.5774
vn -0.5774 -0.5774 -0.5774
vn 0.5774 -0.5774 -0.5774
vn 0.5774 -0.5774 0.5774
# 8 vertex normals

vt 1.0000 0.0000 0.0000
vt 0.0000 0.0000 0.0000
vt 0.0000 1.0000 0.0000
vt 1.0000 1.0000 0.0000
# 4 texture coords

o JailSlidingDoor_09
g JailSlidingDoor_09
usemtl wire_171096089
s 2
f 1/1/1 2/2/2 3/3/3 4/4/4 
s 4
f 5/2/5 6/3/6 7/4/7 8/1/8 
s 8
f 1/2/1 5/3/5 8/4/8 2/1/2 
s 16
f 2/2/2 8/3/8 7/4/7 3/1/3 
s 32
f 3/2/3 7/3/7 6/4/6 4/1/4 
s 64
f 4/2/4 6/3/6 5/4/5 1/1/1 
# 6 polygons

#
# object JailSlidingDoor_10
#

v  -8.7090 7.8857 -6.9427
v  -6.9019 7.8857 -6.9427
v  -6.9019 7.8857 -7.0587
v  -8.7090 7.8857 -7.0587
v  -8.7090 5.0317 -6.9427
v  -8.7090 5.0317 -7.0587
v  -6.9019 5.0317 -7.0587
v  -6.9019 5.0317 -6.9427
# 8 vertices

vn -0.5774 0.5774 0.5774
vn 0.5774 0.5774 0.5774
vn 0.5774 0.5774 -0.5774
vn -0.5773 0.5774 -0.5774
vn -0.5774 -0.5774 0.5774
vn -0.5774 -0.5774 -0.5774
vn 0.5774 -0.5774 -0.5774
vn 0.5774 -0.5774 0.5774
# 8 vertex normals

vt 1.0000 0.0000 0.0000
vt 0.0000 0.0000 0.0000
vt 0.0000 1.0000 0.0000
vt 1.0000 1.0000 0.0000
# 4 texture coords

o JailSlidingDoor_10
g JailSlidingDoor_10
usemtl wire_171096089
s 2
f 9/5/9 10/6/10 11/7/11 12/8/12 
s 4
f 13/6/13 14/7/14 15/8/15 16/5/16 
s 8
f 9/6/9 13/7/13 16/8/16 10/5/10 
s 16
f 10/6/10 16/7/16 15/8/15 11/5/11 
s 32
f 11/6/11 15/7/15 14/8/14 12/5/12 
s 64
f 12/6/12 14/7/14 13/8/13 9/5/9 
# 6 polygons

#
# object JailSlidingDoor_11
#

v  -15.8073 7.8857 -6.9427
v  -14.0003 7.8857 -6.9427
v  -14.0003 7.8857 -7.0587
v  -15.8073 7.8857 -7.0587
v  -15.8073 5.0317 -6.9427
v  -15.8073 5.0317 -7.0587
v  -14.0003 5.0317 -7.0587
v  -14.0003 5.0317 -6.9427
# 8 vertices

vn -0.5774 0.5774 0.5774
vn 0.5774 0.5774 0.5774
vn 0.5774 0.5774 -0.5774
vn -0.5773 0.5774 -0.5774
vn -0.5774 -0.5774 0.5774
vn -0.5774 -0.5774 -0.5774
vn 0.5774 -0.5774 -0.5774
vn 0.5774 -0.5774 0.5774
# 8 vertex normals

vt 1.0000 0.0000 0.0000
vt 0.0000 0.0000 0.0000
vt 0.0000 1.0000 0.0000
vt 1.0000 1.0000 0.0000
# 4 texture coords

o JailSlidingDoor_11
g JailSlidingDoor_11
usemtl wire_171096089
s 2
f 17/9/17 18/10/18 19/11/19 20/12/20 
s 4
f 21/10/21 22/11/22 23/12/23 24/9/24 
s 8
f 17/10/17 21/11/21 24/12/24 18/9/18 
s 16
f 18/10/18 24/11/24 23/12/23 19/9/19 
s 32
f 19/10/19 23/11/23 22/12/22 20/9/20 
s 64
f 20/10/20 22/11/22 21/12/21 17/9/17 
# 6 polygons

#
# object JailSlidingDoor_12
#

v  -22.9057 7.8857 -6.9427
v  -21.0987 7.8857 -6.9427
v  -21.0987 7.8857 -7.0587
v  -22.9057 7.8857 -7.0587
v  -22.9057 5.0317 -6.9427
v  -22.9057 5.0317 -7.0587
v  -21.0987 5.0317 -7.0587
v  -21.0987 5.0317 -6.9427
# 8 vertices

vn -0.5774 0.5774 0.5774
vn 0.5774 0.5774 0.5774
vn 0.5774 0.5774 -0.5774
vn -0.5773 0.5774 -0.5774
vn -0.5774 -0.5774 0.5774
vn -0.5774 -0.5774 -0.5774
vn 0.5774 -0.5774 -0.5774
vn 0.5774 -0.5774 0.5774
# 8 vertex normals

vt 1.0000 0.0000 0.0000
vt 0.0000 0.0000 0.0000
vt 0.0000 1.0000 0.0000
vt 1.0000 1.0000 0.0000
# 4 texture coords

o JailSlidingDoor_12
g JailSlidingDoor_12
usemtl wire_171096089
s 2
f 25/13/25 26/14/26 27/15/27 28/16/28 
s 4
f 29/14/29 30/15/30 31/16/31 32/13/32 
s 8
f 25/14/25 29/15/29 32/16/32 26/13/26 
s 16
f 26/14/26 32/15/32 31/16/31 27/13/27 
s 32
f 27/14/27 31/15/31 30/16/30 28/13/28 
s 64
f 28/14/28 30/15/30 29/16/29 25/13/25 
# 6 polygons

#
# object JailSlidingDoor_13
#

v  -22.9057 7.8857 6.9427
v  -22.9057 7.8857 7.0587
v  -21.0987 7.8857 7.0587
v  -21.0987 7.8857 6.9427
v  -22.9057 5.0317 6.9427
v  -21.0987 5.0317 6.9427
v  -21.0987 5.0317 7.0587
v  -22.9057 5.0317 7.0587
# 8 vertices

vn -0.5774 0.5774 -0.5774
vn -0.5773 0.5774 0.5774
vn 0.5774 0.5774 0.5774
vn 0.5774 0.5774 -0.5774
vn -0.5774 -0.5774 -0.5774
vn 0.5774 -0.5774 -0.5774
vn 0.5774 -0.5774 0.5774
vn -0.5774 -0.5774 0.5774
# 8 vertex normals

vt 1.0000 0.0000 0.0000
vt 1.0000 1.0000 0.0000
vt 0.0000 1.0000 0.0000
vt 0.0000 0.0000 0.0000
# 4 texture coords

o JailSlidingDoor_13
g JailSlidingDoor_13
usemtl wire_171096089
s 2
f 33/17/33 34/18/34 35/19/35 36/20/36 
s 4
f 37/20/37 38/17/38 39/18/39 40/19/40 
s 8
f 33/20/33 36/17/36 38/18/38 37/19/37 
s 16
f 36/20/36 35/17/35 39/18/39 38/19/38 
s 32
f 35/20/35 34/17/34 40/18/40 39/19/39 
s 64
f 34/20/34 33/17/33 37/18/37 40/19/40 
# 6 polygons

#
# object JailSlidingDoor_14
#

v  -15.8073 7.8857 6.9427
v  -15.8073 7.8857 7.0587
v  -14.0003 7.8857 7.0587
v  -14.0003 7.8857 6.9427
v  -15.8073 5.0317 6.9427
v  -14.0003 5.0317 6.9427
v  -14.0003 5.0317 7.0587
v  -15.8073 5.0317 7.0587
# 8 vertices

vn -0.5774 0.5774 -0.5774
vn -0.5773 0.5774 0.5774
vn 0.5774 0.5774 0.5774
vn 0.5774 0.5774 -0.5774
vn -0.5774 -0.5774 -0.5774
vn 0.5774 -0.5774 -0.5774
vn 0.5774 -0.5774 0.5774
vn -0.5774 -0.5774 0.5774
# 8 vertex normals

vt 1.0000 0.0000 0.0000
vt 1.0000 1.0000 0.0000
vt 0.0000 1.0000 0.0000
vt 0.0000 0.0000 0.0000
# 4 texture coords

o JailSlidingDoor_14
g JailSlidingDoor_14
usemtl wire_171096089
s 2
f 41/21/41 42/22/42 43/23/43 44/24/44 
s 4
f 45/24/45 46/21/46 47/22/47 48/23/48 
s 8
f 41/24/41 44/21/44 46/22/46 45/23/45 
s 16
f 44/24/44 43/21/43 47/22/47 46/23/46 
s 32
f 43/24/43 42/21/42 48/22/48 47/23/47 
s 64
f 42/24/42 41/21/41 45/22/45 48/23/48 
# 6 polygons

#
# object JailSlidingDoor_15
#

v  -8.7090 7.8857 6.9427
v  -8.7090 7.8857 7.0587
v  -6.9019 7.8857 7.0587
v  -6.9019 7.8857 6.9427
v  -8.7090 5.0317 6.9427
v  -6.9019 5.0317 6.9427
v  -6.9019 5.0317 7.0587
v  -8.7090 5.0317 7.0587
# 8 vertices

vn -0.5774 0.5774 -0.5774
vn -0.5773 0.5774 0.5774
vn 0.5774 0.5774 0.5774
vn 0.5774 0.5774 -0.5774
vn -0.5774 -0.5774 -0.5774
vn 0.5774 -0.5774 -0.5774
vn 0.5774 -0.5774 0.5774
vn -0.5774 -0.5774 0.5774
# 8 vertex normals

vt 1.0000 0.0000 0.0000
vt 1.0000 1.0000 0.0000
vt 0.0000 1.0000 0.0000
vt 0.0000 0.0000 0.0000
# 4 texture coords

o JailSlidingDoor_15
g JailSlidingDoor_15
usemtl wire_171096089
s 2
f 49/25/49 50/26/50 51/27/51 52/28/52 
s 4
f 53/28/53 54/25/54 55/26/55 56/27/56 
s 8
f 49/28/49 52/25/52 54/26/54 53/27/53 
s 16
f 52/28/52 51/25/51 55/26/55 54/27/54 
s 32
f 51/28/51 50/25/50 56/26/56 55/27/55 
s 64
f 50/28/50 49/25/49 53/26/53 56/27/56 
# 6 polygons

#
# object JailSlidingDoor_16
#

v  -1.6106 7.8857 6.9427
v  -1.6106 7.8857 7.0587
v  0.1965 7.8857 7.0587
v  0.1965 7.8857 6.9427
v  -1.6106 5.0317 6.9427
v  0.1965 5.0317 6.9427
v  0.1965 5.0317 7.0587
v  -1.6106 5.0317 7.0587
# 8 vertices

vn -0.5774 0.5774 -0.5773
vn -0.5773 0.5774 0.5774
vn 0.5774 0.5774 0.5774
vn 0.5774 0.5774 -0.5774
vn -0.5774 -0.5774 -0.5774
vn 0.5774 -0.5774 -0.5774
vn 0.5774 -0.5774 0.5774
vn -0.5774 -0.5774 0.5774
# 8 vertex normals

vt 1.0000 0.0000 0.0000
vt 1.0000 1.0000 0.0000
vt 0.0000 1.0000 0.0000
vt 0.0000 0.0000 0.0000
# 4 texture coords

o JailSlidingDoor_16
g JailSlidingDoor_16
usemtl wire_171096089
s 2
f 57/29/57 58/30/58 59/31/59 60/32/60 
s 4
f 61/32/61 62/29/62 63/30/63 64/31/64 
s 8
f 57/32/57 60/29/60 62/30/62 61/31/61 
s 16
f 60/32/60 59/29/59 63/30/63 62/31/62 
s 32
f 59/32/59 58/29/58 64/30/64 63/31/63 
s 64
f 58/32/58 57/29/57 61/30/61 64/31/64 
# 6 polygons

#
# object JailSlidingDoor_01
#

v  -1.6106 2.9533 -6.9427
v  0.1965 2.9533 -6.9427
v  0.1965 2.9533 -7.0587
v  -1.6106 2.9533 -7.0587
v  -1.6106 0.0994 -6.9427
v  -1.6106 0.0994 -7.0587
v  0.1965 0.0994 -7.0587
v  0.1965 0.0994 -6.9427
# 8 vertices

vn -0.5774 0.5774 0.5774
vn 0.5774 0.5774 0.5774
vn 0.5774 0.5774 -0.5774
vn -0.5773 0.5774 -0.5774
vn -0.5774 -0.5774 0.5774
vn -0.5774 -0.5774 -0.5774
vn 0.5774 -0.5774 -0.5774
vn 0.5774 -0.5774 0.5774
# 8 vertex normals

vt 1.0000 0.0000 0.0000
vt 0.0000 0.0000 0.0000
vt 0.0000 1.0000 0.0000
vt 1.0000 1.0000 0.0000
# 4 texture coords

o JailSlidingDoor_01
g JailSlidingDoor_01
usemtl wire_171096089
s 2
f 65/33/65 66/34/66 67/35/67 68/36/68 
s 4
f 69/34/69 70/35/70 71/36/71 72/33/72 
s 8
f 65/34/65 69/35/69 72/36/72 66/33/66 
s 16
f 66/34/66 72/35/72 71/36/71 67/33/67 
s 32
f 67/34/67 71/35/71 70/36/70 68/33/68 
s 64
f 68/34/68 70/35/70 69/36/69 65/33/65 
# 6 polygons

#
# object JailSlidingDoor_02
#

v  -8.7090 2.9533 -6.9427
v  -6.9019 2.9533 -6.9427
v  -6.9019 2.9533 -7.0587
v  -8.7090 2.9533 -7.0587
v  -8.7090 0.0994 -6.9427
v  -8.7090 0.0994 -7.0587
v  -6.9019 0.0994 -7.0587
v  -6.9019 0.0994 -6.9427
# 8 vertices

vn -0.5774 0.5774 0.5774
vn 0.5774 0.5774 0.5774
vn 0.5774 0.5774 -0.5774
vn -0.5773 0.5774 -0.5774
vn -0.5774 -0.5774 0.5774
vn -0.5774 -0.5774 -0.5774
vn 0.5774 -0.5774 -0.5774
vn 0.5774 -0.5774 0.5774
# 8 vertex normals

vt 1.0000 0.0000 0.0000
vt 0.0000 0.0000 0.0000
vt 0.0000 1.0000 0.0000
vt 1.0000 1.0000 0.0000
# 4 texture coords

o JailSlidingDoor_02
g JailSlidingDoor_02
usemtl wire_171096089
s 2
f 73/37/73 74/38/74 75/39/75 76/40/76 
s 4
f 77/38/77 78/39/78 79/40/79 80/37/80 
s 8
f 73/38/73 77/39/77 80/40/80 74/37/74 
s 16
f 74/38/74 80/39/80 79/40/79 75/37/75 
s 32
f 75/38/75 79/39/79 78/40/78 76/37/76 
s 64
f 76/38/76 78/39/78 77/40/77 73/37/73 
# 6 polygons

#
# object JailSlidingDoor_03
#

v  -15.8073 2.9533 -6.9427
v  -14.0003 2.9533 -6.9427
v  -14.0003 2.9533 -7.0587
v  -15.8073 2.9533 -7.0587
v  -15.8073 0.0994 -6.9427
v  -15.8073 0.0994 -7.0587
v  -14.0003 0.0994 -7.0587
v  -14.0003 0.0994 -6.9427
# 8 vertices

vn -0.5774 0.5774 0.5774
vn 0.5774 0.5774 0.5774
vn 0.5774 0.5774 -0.5774
vn -0.5773 0.5774 -0.5774
vn -0.5774 -0.5774 0.5774
vn -0.5774 -0.5774 -0.5774
vn 0.5774 -0.5774 -0.5774
vn 0.5774 -0.5774 0.5774
# 8 vertex normals

vt 1.0000 0.0000 0.0000
vt 0.0000 0.0000 0.0000
vt 0.0000 1.0000 0.0000
vt 1.0000 1.0000 0.0000
# 4 texture coords

o JailSlidingDoor_03
g JailSlidingDoor_03
usemtl wire_171096089
s 2
f 81/41/81 82/42/82 83/43/83 84/44/84 
s 4
f 85/42/85 86/43/86 87/44/87 88/41/88 
s 8
f 81/42/81 85/43/85 88/44/88 82/41/82 
s 16
f 82/42/82 88/43/88 87/44/87 83/41/83 
s 32
f 83/42/83 87/43/87 86/44/86 84/41/84 
s 64
f 84/42/84 86/43/86 85/44/85 81/41/81 
# 6 polygons

#
# object JailSlidingDoor_04
#

v  -22.9057 2.9533 -6.9427
v  -21.0987 2.9533 -6.9427
v  -21.0987 2.9533 -7.0587
v  -22.9057 2.9533 -7.0587
v  -22.9057 0.0994 -6.9427
v  -22.9057 0.0994 -7.0587
v  -21.0987 0.0994 -7.0587
v  -21.0987 0.0994 -6.9427
# 8 vertices

vn -0.5774 0.5774 0.5774
vn 0.5774 0.5774 0.5774
vn 0.5774 0.5774 -0.5774
vn -0.5773 0.5774 -0.5774
vn -0.5774 -0.5774 0.5774
vn -0.5774 -0.5774 -0.5774
vn 0.5774 -0.5774 -0.5774
vn 0.5774 -0.5774 0.5774
# 8 vertex normals

vt 1.0000 0.0000 0.0000
vt 0.0000 0.0000 0.0000
vt 0.0000 1.0000 0.0000
vt 1.0000 1.0000 0.0000
# 4 texture coords

o JailSlidingDoor_04
g JailSlidingDoor_04
usemtl wire_171096089
s 2
f 89/45/89 90/46/90 91/47/91 92/48/92 
s 4
f 93/46/93 94/47/94 95/48/95 96/45/96 
s 8
f 89/46/89 93/47/93 96/48/96 90/45/90 
s 16
f 90/46/90 96/47/96 95/48/95 91/45/91 
s 32
f 91/46/91 95/47/95 94/48/94 92/45/92 
s 64
f 92/46/92 94/47/94 93/48/93 89/45/89 
# 6 polygons

#
# object JailSlidingDoor_05
#

v  -22.9057 2.9533 6.9427
v  -22.9057 2.9533 7.0587
v  -21.0987 2.9533 7.0587
v  -21.0987 2.9533 6.9427
v  -22.9057 0.0994 6.9427
v  -21.0987 0.0994 6.9427
v  -21.0987 0.0994 7.0587
v  -22.9057 0.0994 7.0587
# 8 vertices

vn -0.5774 0.5774 -0.5774
vn -0.5773 0.5774 0.5774
vn 0.5774 0.5774 0.5774
vn 0.5774 0.5774 -0.5774
vn -0.5774 -0.5774 -0.5774
vn 0.5774 -0.5774 -0.5774
vn 0.5774 -0.5774 0.5774
vn -0.5774 -0.5774 0.5774
# 8 vertex normals

vt 1.0000 0.0000 0.0000
vt 1.0000 1.0000 0.0000
vt 0.0000 1.0000 0.0000
vt 0.0000 0.0000 0.0000
# 4 texture coords

o JailSlidingDoor_05
g JailSlidingDoor_05
usemtl wire_171096089
s 2
f 97/49/97 98/50/98 99/51/99 100/52/100 
s 4
f 101/52/101 102/49/102 103/50/103 104/51/104 
s 8
f 97/52/97 100/49/100 102/50/102 101/51/101 
s 16
f 100/52/100 99/49/99 103/50/103 102/51/102 
s 32
f 99/52/99 98/49/98 104/50/104 103/51/103 
s 64
f 98/52/98 97/49/97 101/50/101 104/51/104 
# 6 polygons

#
# object JailSlidingDoor_06
#

v  -15.8073 2.9533 6.9427
v  -15.8073 2.9533 7.0587
v  -14.0003 2.9533 7.0587
v  -14.0003 2.9533 6.9427
v  -15.8073 0.0994 6.9427
v  -14.0003 0.0994 6.9427
v  -14.0003 0.0994 7.0587
v  -15.8073 0.0994 7.0587
# 8 vertices

vn -0.5774 0.5774 -0.5774
vn -0.5773 0.5774 0.5774
vn 0.5774 0.5774 0.5774
vn 0.5774 0.5774 -0.5774
vn -0.5774 -0.5774 -0.5774
vn 0.5774 -0.5774 -0.5774
vn 0.5774 -0.5774 0.5774
vn -0.5774 -0.5774 0.5774
# 8 vertex normals

vt 1.0000 0.0000 0.0000
vt 1.0000 1.0000 0.0000
vt 0.0000 1.0000 0.0000
vt 0.0000 0.0000 0.0000
# 4 texture coords

o JailSlidingDoor_06
g JailSlidingDoor_06
usemtl wire_171096089
s 2
f 105/53/105 106/54/106 107/55/107 108/56/108 
s 4
f 109/56/109 110/53/110 111/54/111 112/55/112 
s 8
f 105/56/105 108/53/108 110/54/110 109/55/109 
s 16
f 108/56/108 107/53/107 111/54/111 110/55/110 
s 32
f 107/56/107 106/53/106 112/54/112 111/55/111 
s 64
f 106/56/106 105/53/105 109/54/109 112/55/112 
# 6 polygons

#
# object JailSlidingDoor_07
#

v  -8.7090 2.9533 6.9427
v  -8.7090 2.9533 7.0587
v  -6.9019 2.9533 7.0587
v  -6.9019 2.9533 6.9427
v  -8.7090 0.0994 6.9427
v  -6.9019 0.0994 6.9427
v  -6.9019 0.0994 7.0587
v  -8.7090 0.0994 7.0587
# 8 vertices

vn -0.5774 0.5774 -0.5774
vn -0.5773 0.5774 0.5774
vn 0.5774 0.5774 0.5774
vn 0.5774 0.5774 -0.5774
vn -0.5774 -0.5774 -0.5774
vn 0.5774 -0.5774 -0.5774
vn 0.5774 -0.5774 0.5774
vn -0.5774 -0.5774 0.5774
# 8 vertex normals

vt 1.0000 0.0000 0.0000
vt 1.0000 1.0000 0.0000
vt 0.0000 1.0000 0.0000
vt 0.0000 0.0000 0.0000
# 4 texture coords

o JailSlidingDoor_07
g JailSlidingDoor_07
usemtl wire_171096089
s 2
f 113/57/113 114/58/114 115/59/115 116/60/116 
s 4
f 117/60/117 118/57/118 119/58/119 120/59/120 
s 8
f 113/60/113 116/57/116 118/58/118 117/59/117 
s 16
f 116/60/116 115/57/115 119/58/119 118/59/118 
s 32
f 115/60/115 114/57/114 120/58/120 119/59/119 
s 64
f 114/60/114 113/57/113 117/58/117 120/59/120 
# 6 polygons

#
# object JailSlidingDoor_08
#

v  -1.6106 2.9533 6.9427
v  -1.6106 2.9533 7.0587
v  0.1965 2.9533 7.0587
v  0.1965 2.9533 6.9427
v  -1.6106 0.0994 6.9427
v  0.1965 0.0994 6.9427
v  0.1965 0.0994 7.0587
v  -1.6106 0.0994 7.0587
# 8 vertices

vn -0.5774 0.5774 -0.5773
vn -0.5773 0.5774 0.5774
vn 0.5774 0.5774 0.5774
vn 0.5774 0.5774 -0.5774
vn -0.5774 -0.5774 -0.5774
vn 0.5774 -0.5774 -0.5774
vn 0.5774 -0.5774 0.5774
vn -0.5774 -0.5774 0.5774
# 8 vertex normals

vt 1.0000 0.0000 0.0000
vt 1.0000 1.0000 0.0000
vt 0.0000 1.0000 0.0000
vt 0.0000 0.0000 0.0000
# 4 texture coords

o JailSlidingDoor_08
g JailSlidingDoor_08
usemtl wire_171096089
s 2
f 121/61/121 122/62/122 123/63/123 124/64/124 
s 4
f 125/64/125 126/61/126 127/62/127 128/63/128 
s 8
f 121/64/121 124/61/124 126/62/126 125/63/125 
s 16
f 124/64/124 123/61/123 127/62/127 126/63/126 
s 32
f 123/64/123 122/61/122 128/62/128 127/63/127 
s 64
f 122/64/122 121/61/121 125/62/125 128/63/128 
# 6 polygons

