# 3ds Max Wavefront OBJ Exporter v0.99 - (c)2007 guruware
# File Created: 31.12.2025 20:13:04

mtllib JailProp_RightWall_A.mtl

#
# object JailProp_RightWall_A
#

v  -3.5062 0.1417 -4.5150
v  -3.7891 -0.8920 -4.5150
v  -3.7891 1.6164 -4.5150
v  -3.5062 1.8765 -4.5150
v  -3.5322 3.3018 2.2985
v  -3.5125 2.6979 -2.8619
v  -3.5125 3.2821 -2.8619
v  -3.5109 0.1371 -3.2985
v  -3.7844 -0.8874 -2.9028
v  -3.5062 3.2758 -4.5150
v  -3.7891 3.6398 -4.5150
v  -3.7860 3.6367 -3.4314
v  -3.5093 3.2789 -3.6973
v  -3.7631 -0.8660 4.5150
v  -3.5322 0.1158 2.2985
v  -3.5322 2.2910 2.2985
v  -3.7631 2.1926 4.5150
v  -3.7843 3.6351 -2.8559
v  -3.5110 3.2806 -3.2631
v  -3.7891 2.4486 -4.5150
v  -3.7891 2.7985 -4.5150
v  -3.5062 2.6940 -4.5150
v  -3.5062 2.4520 -4.5150
v  -3.7631 3.6139 4.5150
v  -3.5098 2.5359 -3.5906
v  -3.5093 2.6959 -3.6973
v  -3.5104 2.6966 -3.4284
v  -3.5104 2.5362 -3.4284
v  -3.5089 2.4533 -3.8040
v  -3.7891 1.9556 -4.5150
v  -3.5062 2.1111 -4.5150
v  -3.5089 1.8767 -3.8040
v  -3.5098 2.0231 -3.5906
v  -3.5104 2.0232 -3.4284
v  -3.5104 1.8769 -3.4284
v  -3.5089 2.1118 -3.8040
v  -3.7828 3.6335 -2.3241
v  -3.5116 2.6974 -3.0977
v  -3.5129 1.8772 -2.7764
v  -3.5129 2.1128 -2.7764
v  -3.5122 2.0236 -2.9473
v  -3.5114 1.8770 -3.1686
v  -3.5114 2.0234 -3.1686
v  -3.5098 2.2009 -3.5906
v  -3.5098 2.3714 -3.5906
v  -3.5102 2.3716 -3.4813
v  -3.5102 2.2010 -3.4813
v  -3.5129 2.4551 -2.7764
v  -3.5122 2.3724 -2.9473
v  -3.5122 2.2016 -2.9473
v  -3.5116 2.2014 -3.0977
v  -3.5116 2.3722 -3.0977
v  -3.5122 2.5372 -2.9473
v  -3.5116 2.5369 -3.0977
v  -3.7007 2.5372 -2.9473
v  -3.7001 2.5369 -3.0977
v  -3.6988 2.5362 -3.4284
v  -3.6982 2.5359 -3.5906
v  -3.7007 2.0236 -2.9473
v  -3.7007 2.2016 -2.9473
v  -3.6982 2.2009 -3.5906
v  -3.6982 2.0231 -3.5906
v  -3.6988 2.0232 -3.4284
v  -3.6998 2.0234 -3.1686
v  -3.6998 1.8770 -3.1686
v  -3.6988 1.8769 -3.4284
v  -3.7001 2.2014 -3.0977
v  -3.6986 2.2010 -3.4813
v  -3.7007 2.3724 -2.9473
v  -3.7001 2.3722 -3.0977
v  -3.6986 2.3716 -3.4813
v  -3.6982 2.3714 -3.5906
v  -3.7001 2.6974 -3.0977
v  -3.6988 2.6966 -3.4284
# 74 vertices

vn 0.7293 -0.0977 -0.6771
vn 0.9505 -0.2601 -0.1699
vn 0.0000 0.0000 -1.0000
vn 0.7085 0.0000 -0.7058
vn 0.9546 0.2961 0.0313
vn 1.0000 -0.0000 0.0038
vn 0.9469 0.3215 0.0024
vn 0.9916 -0.1296 0.0033
vn 0.9659 -0.2587 -0.0020
vn 0.7271 0.2485 -0.6400
vn 0.7275 0.5653 -0.3889
vn 0.7909 0.6119 -0.0005
vn 0.9464 0.3230 0.0024
vn 0.9951 -0.0638 0.0754
vn 0.9946 -0.0973 0.0353
vn 0.9986 -0.0000 0.0538
vn 0.9946 0.0000 0.1036
vn 0.7917 0.6110 -0.0005
vn 0.9467 0.3222 0.0024
vn 0.9933 0.0672 0.0940
vn 0.9036 -0.3006 0.3054
vn 0.9035 -0.3006 0.3055
vn 0.5763 -0.5769 0.5789
vn 0.9039 0.3005 0.3045
vn 0.5761 0.5778 0.5781
vn 0.9038 0.3005 0.3046
vn 1.0000 0.0000 0.0038
vn 0.7923 0.6101 -0.0005
vn 0.9055 -0.3024 -0.2975
vn 0.9052 0.3025 -0.2986
vn 0.9052 0.3025 -0.2984
vn 0.5786 0.5769 -0.5765
vn 0.9036 -0.3006 0.3051
vn 0.9040 0.3005 0.3042
vn 0.5761 0.5781 0.5779
vn 0.5762 -0.5772 0.5787
vn 0.9051 0.3025 -0.2988
vn 0.9054 -0.3025 -0.2979
vn 0.5785 -0.5775 -0.5760
vn 0.5786 0.5766 -0.5768
vn 0.9055 -0.3024 -0.2977
vn 0.5784 -0.5778 -0.5758
vn 0.5786 0.5770 -0.5764
vn 0.5761 0.5777 0.5782
vn 0.5784 -0.5779 -0.5757
vn 0.5763 -0.5768 0.5790
# 46 vertex normals

vt 1.3711 0.1519 0.0000
vt 1.3295 -0.0000 0.0000
vt 1.3295 0.3686 0.0000
vt 1.3711 0.4069 0.0000
vt 1.0000 0.4676 0.0000
vt 0.2426 0.3790 0.0000
vt 0.2426 0.4647 0.0000
vt 0.0000 1.3239 0.0000
vt 0.0001 1.4814 0.0000
vt 0.1789 1.4804 0.0000
vt 0.2370 1.3246 0.0000
vt 0.1526 1.4822 0.0000
vt 0.1526 1.5500 0.0000
vt 0.3119 1.5492 0.0000
vt 0.2728 1.4828 0.0000
vt 0.3275 0.6648 0.0000
vt 0.0000 0.8091 0.0000
vt 0.0000 1.1288 0.0000
vt 0.3275 1.1143 0.0000
vt 0.3965 1.5488 0.0000
vt 0.3366 1.4831 0.0000
vt 1.3295 0.4909 0.0000
vt 1.3295 0.5424 0.0000
vt 1.3711 0.5270 0.0000
vt 1.3711 0.4914 0.0000
vt 0.0000 1.2773 0.0000
vt 0.3275 1.3232 0.0000
vt 0.1357 0.3552 0.0000
vt 0.1200 0.3787 0.0000
vt 0.1595 0.3788 0.0000
vt 0.1595 0.3552 0.0000
vt 0.0000 0.3429 0.0000
vt 0.0000 0.3784 0.0000
vt 0.1043 0.3431 0.0000
vt 1.3295 0.4185 0.0000
vt 1.3711 0.4413 0.0000
vt 0.1043 0.2585 0.0000
vt 0.1357 0.2799 0.0000
vt 0.1595 0.2799 0.0000
vt 0.1595 0.2585 0.0000
vt 0.0000 0.2584 0.0000
vt 0.0000 0.2928 0.0000
vt 0.1043 0.2929 0.0000
vt 0.4746 1.5485 0.0000
vt 0.3956 1.4834 0.0000
vt 0.1837 0.4645 0.0000
vt 0.2080 0.3789 0.0000
vt 1.0000 0.3193 0.0000
vt 1.0000 -0.0000 0.0000
vt 0.2552 0.2585 0.0000
vt 0.2552 0.2931 0.0000
vt 0.2301 0.2800 0.0000
vt 0.1976 0.2585 0.0000
vt 0.1976 0.2800 0.0000
vt 0.1785 0.0031 0.0000
vt 1.0016 1.4762 0.0000
vt 1.3273 1.3278 0.0000
vt 0.0000 0.0038 0.0000
vt 0.1357 0.3060 0.0000
vt 0.1357 0.3310 0.0000
vt 0.1517 0.3311 0.0000
vt 0.1517 0.3060 0.0000
vt 0.2552 0.3433 0.0000
vt 0.2301 0.3312 0.0000
vt 0.2301 0.3061 0.0000
vt 0.2080 0.3061 0.0000
vt 0.2080 0.3312 0.0000
vt 1.3295 0.6660 0.0000
vt 1.3711 0.6125 0.0000
vt 0.1200 0.4642 0.0000
vt 0.0000 0.4638 0.0000
vt 0.2301 0.3554 0.0000
vt 0.2080 0.3553 0.0000
vt 1.4798 1.5438 0.0000
vt 1.1540 1.4870 0.0000
vt 0.1404 0.3549 0.0000
vt 0.1595 0.3550 0.0000
vt 0.1595 0.3790 0.0000
vt 0.1404 0.3789 0.0000
vt 0.2365 0.3553 0.0000
vt 0.2364 0.3798 0.0000
vt 0.2080 0.3798 0.0000
vt 0.2081 0.3553 0.0000
vt 0.2356 0.3061 0.0000
vt 0.2356 0.2800 0.0000
vt 0.2080 0.2800 0.0000
vt 0.2360 0.2800 0.0000
vt 0.2360 0.3060 0.0000
vt 0.2084 0.3060 0.0000
vt 0.2084 0.2800 0.0000
vt 0.1976 0.2797 0.0000
vt 0.1975 0.2584 0.0000
vt 0.2223 0.2584 0.0000
vt 0.2224 0.2797 0.0000
vt 0.1344 0.2585 0.0000
vt 0.1344 0.2800 0.0000
vt 0.2358 0.2800 0.0000
vt 0.2358 0.2585 0.0000
vt 0.2081 0.2585 0.0000
vt 0.2081 0.2800 0.0000
vt 0.1975 0.2583 0.0000
vt 0.1594 0.2585 0.0000
vt 0.1594 0.2345 0.0000
vt 0.1975 0.2344 0.0000
vt 0.2359 0.2585 0.0000
vt 0.2359 0.2800 0.0000
vt 0.2083 0.2800 0.0000
vt 0.2083 0.2585 0.0000
vt 0.2399 0.3063 0.0000
vt 0.2398 0.3315 0.0000
vt 0.2083 0.3315 0.0000
vt 0.2084 0.3063 0.0000
vt 0.2227 0.3312 0.0000
vt 0.2081 0.3311 0.0000
vt 0.2081 0.3059 0.0000
vt 0.2227 0.3060 0.0000
vt 0.2356 0.3553 0.0000
vt 0.2356 0.3311 0.0000
vt 0.2080 0.3311 0.0000
vt 0.2357 0.3311 0.0000
vt 0.2357 0.3061 0.0000
vt 0.2081 0.3061 0.0000
vt 0.2359 0.3060 0.0000
vt 0.2359 0.3311 0.0000
vt 0.2083 0.3311 0.0000
vt 0.2083 0.3060 0.0000
vt 0.2360 0.3310 0.0000
vt 0.2360 0.3552 0.0000
vt 0.2084 0.3552 0.0000
vt 0.2084 0.3310 0.0000
vt 0.2357 0.3788 0.0000
vt 0.2357 0.3552 0.0000
vt 0.2081 0.3552 0.0000
vt 0.2081 0.3788 0.0000
vt 0.2359 0.3552 0.0000
vt 0.2359 0.3787 0.0000
vt 0.2083 0.3787 0.0000
vt 0.2083 0.3552 0.0000
vt 0.1597 0.4036 0.0000
vt 0.2084 0.4034 0.0000
vt 0.2084 0.3789 0.0000
vt 0.1597 0.3791 0.0000
# 142 texture coords

o JailProp_RightWall_A
g JailProp_RightWall_A
usemtl JailProp_LeftWall_N
s 1
f 1/1/1 2/2/2 3/3/3 4/4/4 
s off
f 5/5/5 6/6/6 7/7/7 
f 2/8/2 1/9/1 8/10/8 9/11/9 
f 10/12/10 11/13/11 12/14/12 13/15/13 
f 14/16/14 15/17/15 16/18/16 17/19/17 
f 12/14/12 18/20/18 19/21/19 13/15/13 
s 1
f 20/22/3 21/23/3 22/24/4 23/25/4 
s off
f 16/18/16 5/26/5 24/27/20 17/19/17 
f 25/28/21 26/29/6 27/30/22 28/31/23 
f 23/32/4 22/33/4 26/29/6 29/34/6 
s 1
f 3/3/3 30/35/3 31/36/4 4/4/4 
s off
f 32/37/6 33/38/24 34/39/25 35/40/26 
f 4/41/4 31/42/4 36/43/27 32/37/6 
f 18/20/18 37/44/28 7/45/7 19/21/19 
f 19/46/19 7/7/7 6/6/6 38/47/29 
f 16/48/16 15/49/15 39/50/27 40/51/27 
f 41/52/30 39/50/27 42/53/31 43/54/32 
f 8/55/8 35/40/26 42/53/31 
f 8/10/8 15/56/15 14/57/14 9/11/9 
f 19/46/19 38/47/29 27/30/22 
f 8/55/8 1/58/1 32/37/6 35/40/26 
s 1
f 30/35/3 20/22/3 23/25/4 31/36/4 
s off
f 44/59/33 45/60/34 46/61/35 47/62/36 
f 31/42/4 23/32/4 29/34/6 36/43/27 
f 16/48/16 40/51/27 48/63/6 
f 49/64/37 50/65/38 51/66/39 52/67/40 
f 5/5/5 16/48/16 48/63/6 6/6/6 
s 1
f 21/23/3 11/68/11 10/69/10 22/24/4 
s off
f 26/29/6 13/70/13 19/46/19 27/30/22 
f 22/33/4 10/71/10 13/70/13 26/29/6 
f 6/6/6 53/72/41 54/73/42 38/47/29 
f 37/44/28 24/74/20 5/75/5 7/45/7 
f 48/63/6 49/64/37 53/72/41 
f 39/50/27 41/52/30 40/51/27 
f 40/51/27 41/52/30 50/65/38 
f 40/51/27 50/65/38 49/64/37 48/63/6 
f 48/63/6 53/72/41 6/6/6 
f 26/29/6 25/28/21 29/34/6 
f 36/43/27 33/38/24 32/37/6 
f 36/43/27 44/59/33 33/38/24 
f 29/34/6 45/60/34 44/59/33 36/43/27 
f 29/34/6 25/28/21 45/60/34 
f 15/49/15 8/55/8 42/53/31 39/50/27 
f 1/58/1 4/41/4 32/37/6 
f 54/76/42 53/77/41 55/78/42 56/79/41 
f 25/80/21 28/81/23 57/82/21 58/83/23 
f 50/84/38 41/85/30 59/86/32 60/66/39 
f 33/87/24 44/88/33 61/89/36 62/90/25 
f 34/91/25 33/92/24 62/93/25 63/94/24 
f 41/95/30 43/40/32 64/39/30 59/96/32 
f 43/97/32 42/98/31 65/99/43 64/100/30 
f 42/101/31 35/102/26 66/103/44 65/104/43 
f 35/105/26 34/106/25 63/107/24 66/108/44 
f 51/109/39 50/110/38 60/111/39 67/112/38 
f 44/113/33 47/114/36 68/115/33 61/116/36 
f 53/117/41 49/118/37 69/119/40 55/73/42 
f 52/120/40 51/121/39 67/122/38 70/114/37 
f 47/123/36 46/124/35 71/125/34 68/126/33 
f 45/127/34 25/128/21 58/129/23 72/130/35 
f 49/118/37 52/120/40 70/114/37 69/119/40 
f 46/124/35 45/127/34 72/130/35 71/125/34 
f 38/131/29 54/132/42 56/133/41 73/134/45 
f 28/135/23 27/136/22 74/137/46 57/138/21 
f 27/139/22 38/140/29 73/141/45 74/142/46 
f 70/67/37 67/66/38 68/62/33 71/61/34 
f 69/64/40 70/67/37 56/73/41 55/72/42 
f 58/28/23 57/31/21 71/61/34 72/60/35 
f 73/47/45 56/73/41 57/31/21 74/30/46 
f 70/67/37 71/61/34 57/31/21 56/73/41 
f 59/52/32 64/54/30 67/66/38 60/65/39 
f 63/39/24 62/38/25 61/59/36 68/62/33 
f 67/66/38 64/54/30 63/39/24 68/62/33 
f 63/39/24 64/54/30 65/53/43 66/40/44 
# 60 polygons - 13 triangles

