# 3ds Max Wavefront OBJ Exporter v0.99 - (c)2007 guruware
# File Created: 01.01.2026 19:42:36

mtllib JailProp_CeilingSet.mtl

#
# object JailProp_Lamp01
#

v  0.4643 2.7196 -1.1082
v  0.4021 2.7196 -1.3404
v  0.1068 2.9790 -1.1699
v  0.1234 2.9790 -1.1082
v  0.2322 2.7196 -1.5103
v  0.0617 2.9790 -1.2151
v  -0.0000 2.7196 -1.5725
v  -0.0000 2.9790 -1.2316
v  -0.2322 2.7196 -1.5103
v  -0.0617 2.9790 -1.2151
v  -0.4021 2.7196 -1.3404
v  -0.1068 2.9790 -1.1699
v  -0.4643 2.7196 -1.1082
v  -0.1234 2.9790 -1.1082
v  -0.4021 2.7196 -0.8760
v  -0.1068 2.9790 -1.0465
v  -0.2322 2.7196 -0.7061
v  -0.0617 2.9790 -1.0014
v  -0.0000 2.7196 -0.6439
v  -0.0000 2.9790 -0.9848
v  0.2322 2.7196 -0.7061
v  0.0617 2.9790 -1.0014
v  0.4021 2.7196 -0.8760
v  0.1068 2.9790 -1.0465
v  -0.0000 2.9811 -1.1082
v  0.0973 2.9511 -1.1644
v  0.3863 2.6958 -1.3313
v  0.4461 2.6958 -1.1082
v  0.1124 2.9511 -1.1082
v  0.0562 2.9511 -1.2055
v  0.2231 2.6958 -1.4946
v  -0.0000 2.9511 -1.2206
v  -0.0000 2.6958 -1.5543
v  -0.0562 2.9511 -1.2055
v  -0.2231 2.6958 -1.4946
v  -0.0973 2.9511 -1.1644
v  -0.3863 2.6958 -1.3313
v  -0.1124 2.9511 -1.1082
v  -0.4461 2.6958 -1.1082
v  -0.0973 2.9511 -1.0520
v  -0.3863 2.6958 -0.8852
v  -0.0562 2.9511 -1.0109
v  -0.2231 2.6958 -0.7219
v  -0.0000 2.9511 -0.9958
v  -0.0000 2.6958 -0.6621
v  0.0562 2.9511 -1.0109
v  0.2231 2.6958 -0.7219
v  0.0973 2.9511 -1.0520
v  0.3863 2.6958 -0.8852
v  -0.0000 2.9511 -1.1082
v  0.0188 3.3612 -1.1190
v  0.0217 3.3612 -1.1082
v  0.0217 2.9609 -1.1082
v  0.0188 2.9609 -1.1190
v  0.0108 3.3612 -1.1270
v  0.0108 2.9609 -1.1270
v  -0.0000 3.3612 -1.1299
v  -0.0000 2.9609 -1.1299
v  -0.0108 3.3612 -1.1270
v  -0.0108 2.9609 -1.1270
v  -0.0188 3.3612 -1.1190
v  -0.0188 2.9609 -1.1190
v  -0.0217 3.3612 -1.1082
v  -0.0217 2.9609 -1.1082
v  -0.0188 3.3612 -1.0974
v  -0.0188 2.9609 -1.0974
v  -0.0108 3.3612 -1.0895
v  -0.0108 2.9609 -1.0895
v  -0.0000 3.3612 -1.0866
v  -0.0000 2.9609 -1.0866
v  0.0108 3.3612 -1.0895
v  0.0108 2.9609 -1.0895
v  0.0188 3.3612 -1.0974
v  0.0188 2.9609 -1.0974
# 74 vertices

vn 0.9928 0.1201 0.0000
vn 0.8598 0.1201 -0.4964
vn 0.3223 0.9282 -0.1861
vn 0.3722 0.9282 -0.0000
vn 0.4964 0.1201 -0.8598
vn 0.1861 0.9282 -0.3223
vn 0.0000 0.1201 -0.9928
vn -0.0000 0.9282 -0.3722
vn -0.4964 0.1201 -0.8598
vn -0.1861 0.9282 -0.3223
vn -0.8598 0.1201 -0.4964
vn -0.3223 0.9282 -0.1861
vn -0.9928 0.1201 -0.0000
vn -0.3722 0.9282 -0.0000
vn -0.8598 0.1201 0.4964
vn -0.3223 0.9282 0.1861
vn -0.4964 0.1201 0.8598
vn -0.1861 0.9282 0.3223
vn -0.0000 0.1201 0.9928
vn 0.0000 0.9282 0.3722
vn 0.4964 0.1201 0.8598
vn 0.1861 0.9282 0.3223
vn 0.8598 0.1201 0.4964
vn 0.3223 0.9282 0.1861
vn -0.0000 1.0000 -0.0000
vn -0.3178 -0.9302 0.1835
vn 0.2105 -0.9700 -0.1215
vn 0.2430 -0.9700 0.0000
vn -0.3669 -0.9302 0.0000
vn -0.1835 -0.9302 0.3178
vn 0.1215 -0.9700 -0.2105
vn 0.0000 -0.9302 0.3669
vn -0.0000 -0.9700 -0.2430
vn 0.1835 -0.9302 0.3178
vn -0.1215 -0.9700 -0.2105
vn 0.3178 -0.9302 0.1835
vn -0.2104 -0.9700 -0.1215
vn 0.3669 -0.9302 0.0000
vn -0.2430 -0.9700 -0.0000
vn 0.3178 -0.9302 -0.1835
vn -0.2104 -0.9700 0.1215
vn 0.1835 -0.9302 -0.3178
vn -0.1215 -0.9700 0.2104
vn -0.0000 -0.9302 -0.3669
vn -0.0000 -0.9700 0.2430
vn -0.1835 -0.9302 -0.3178
vn 0.1215 -0.9700 0.2105
vn -0.3178 -0.9302 -0.1835
vn 0.2105 -0.9700 0.1215
vn -0.0000 -1.0000 -0.0000
vn 0.8660 -0.0000 -0.5000
vn 1.0000 0.0000 -0.0000
vn 0.5000 0.0000 -0.8660
vn 0.0000 0.0000 -1.0000
vn -0.5000 0.0000 -0.8660
vn -0.8660 0.0000 -0.5000
vn -1.0000 0.0000 -0.0000
vn -0.8660 0.0000 0.5000
vn -0.5000 0.0000 0.8660
vn 0.0000 0.0000 1.0000
vn 0.5000 0.0000 0.8660
vn 0.8660 -0.0000 0.5000
# 62 vertex normals

vt 0.7500 0.0000 1.0000
vt 0.8333 0.0000 1.0000
vt 0.8333 1.0000 1.0000
vt 0.7500 1.0000 1.0000
vt 0.9167 0.0000 1.0000
vt 0.9167 1.0000 1.0000
vt -0.0833 0.0000 1.0000
vt 0.0000 0.0000 1.0000
vt 0.0000 1.0000 1.0000
vt -0.0833 1.0000 1.0000
vt 0.0833 0.0000 1.0000
vt 0.0833 1.0000 1.0000
vt 0.1667 0.0000 1.0000
vt 0.1667 1.0000 1.0000
vt 0.2500 0.0000 1.0000
vt 0.2500 1.0000 1.0000
vt 0.3333 0.0000 1.0000
vt 0.3333 1.0000 1.0000
vt 0.4167 0.0000 1.0000
vt 0.4167 1.0000 1.0000
vt 0.5000 0.0000 1.0000
vt 0.5000 1.0000 1.0000
vt 0.5833 0.0000 1.0000
vt 0.5833 1.0000 1.0000
vt 0.6667 0.0000 1.0000
vt 0.6667 1.0000 1.0000
# 26 texture coords

o JailProp_Lamp01
g JailProp_Lamp01
usemtl JailProp_Lamp01
s 8
f 1/1/1 2/2/2 3/3/3 4/4/4 
f 2/2/2 5/5/5 6/6/6 3/3/3 
f 5/7/5 7/8/7 8/9/8 6/10/6 
f 7/8/7 9/11/9 10/12/10 8/9/8 
f 9/11/9 11/13/11 12/14/12 10/12/10 
f 11/13/11 13/15/13 14/16/14 12/14/12 
f 13/15/13 15/17/15 16/18/16 14/16/14 
f 15/17/15 17/19/17 18/20/18 16/18/16 
f 17/19/17 19/21/19 20/22/20 18/20/18 
f 19/21/19 21/23/21 22/24/22 20/22/20 
f 21/23/21 23/25/23 24/26/24 22/24/22 
f 23/25/23 1/1/1 4/4/4 24/26/24 
s off
f 4/4/4 3/3/3 25/20/25 
f 3/3/3 6/6/6 25/20/25 
f 6/10/6 8/9/8 25/20/25 
f 8/9/8 10/12/10 25/20/25 
f 10/12/10 12/14/12 25/20/25 
f 12/14/12 14/16/14 25/20/25 
f 14/16/14 16/18/16 25/20/25 
f 16/18/16 18/20/18 25/20/25 
f 18/20/18 20/22/20 25/20/25 
f 20/22/20 22/24/22 25/20/25 
f 22/24/22 24/26/24 25/20/25 
f 24/26/24 4/4/4 25/20/25 
s 8
f 26/3/26 27/2/27 28/1/28 29/4/29 
f 30/6/30 31/5/31 27/2/27 26/3/26 
f 32/9/32 33/8/33 31/7/31 30/10/30 
f 34/12/34 35/11/35 33/8/33 32/9/32 
f 36/14/36 37/13/37 35/11/35 34/12/34 
f 38/16/38 39/15/39 37/13/37 36/14/36 
f 40/18/40 41/17/41 39/15/39 38/16/38 
f 42/20/42 43/19/43 41/17/41 40/18/40 
f 44/22/44 45/21/45 43/19/43 42/20/42 
f 46/24/46 47/23/47 45/21/45 44/22/44 
f 48/26/48 49/25/49 47/23/47 46/24/46 
f 29/4/29 28/1/28 49/25/49 48/26/48 
s off
f 50/20/50 26/3/26 29/4/29 
f 50/20/50 30/6/30 26/3/26 
f 50/20/50 32/9/32 30/10/30 
f 50/20/50 34/12/34 32/9/32 
f 50/20/50 36/14/36 34/12/34 
f 50/20/50 38/16/38 36/14/36 
f 50/20/50 40/18/40 38/16/38 
f 50/20/50 42/20/42 40/18/40 
f 50/20/50 44/22/44 42/20/42 
f 50/20/50 46/24/46 44/22/44 
f 50/20/50 48/26/48 46/24/46 
f 50/20/50 29/4/29 48/26/48 
s 1
f 2/2/2 1/1/1 28/1/28 27/2/27 
f 5/5/5 2/2/2 27/2/27 31/5/31 
f 7/8/7 5/7/5 31/7/31 33/8/33 
f 9/11/9 7/8/7 33/8/33 35/11/35 
f 11/13/11 9/11/9 35/11/35 37/13/37 
f 13/15/13 11/13/11 37/13/37 39/15/39 
f 15/17/15 13/15/13 39/15/39 41/17/41 
f 17/19/17 15/17/15 41/17/41 43/19/43 
f 19/21/19 17/19/17 43/19/43 45/21/45 
f 21/23/21 19/21/19 45/21/45 47/23/47 
f 23/25/23 21/23/21 47/23/47 49/25/49 
f 1/1/1 23/25/23 49/25/49 28/1/28 
s off
f 51/3/51 52/4/52 53/4/52 54/3/51 
f 55/6/53 51/3/51 54/3/51 56/6/53 
f 57/9/54 55/10/53 56/10/53 58/9/54 
f 59/12/55 57/9/54 58/9/54 60/12/55 
f 61/14/56 59/12/55 60/12/55 62/14/56 
f 63/16/57 61/14/56 62/14/56 64/16/57 
f 65/18/58 63/16/57 64/16/57 66/18/58 
f 67/20/59 65/18/58 66/18/58 68/20/59 
f 69/22/60 67/20/59 68/20/59 70/22/60 
f 71/24/61 69/22/60 70/22/60 72/24/61 
f 73/26/62 71/24/61 72/24/61 74/26/62 
f 52/4/52 73/26/62 74/26/62 53/4/52 
# 48 polygons - 24 triangles

#
# object JailProp_Ceiling
#

v  3.5062 3.2758 -4.5150
v  -3.5062 3.2758 -4.5150
v  -3.7891 3.6398 -4.5150
v  3.7891 3.6398 -4.5150
v  -3.5322 3.3018 2.2985
v  3.5322 3.3018 2.2985
v  3.7631 3.6139 4.5150
v  -3.7631 3.6139 4.5150
# 8 vertices

vn 0.3440 -0.7055 -0.6196
vn -0.3440 -0.7055 -0.6196
vn -0.6829 -0.5306 -0.5020
vn 0.6829 -0.5306 -0.5020
vn -0.4334 -0.9002 0.0428
vn 0.4334 -0.9002 0.0428
vn 0.0901 -0.9875 0.1297
vn -0.0901 -0.9875 0.1297
# 8 vertex normals

vt 0.0406 0.9751 0.0000
vt 0.9577 0.9751 0.0000
vt 0.9925 0.9904 0.0000
vt 0.0072 0.9904 0.0000
vt 0.9925 0.0059 0.0000
vt 0.0072 0.0059 0.0000
vt 0.9577 0.2346 0.0000
vt 0.0406 0.2346 0.0000
# 8 texture coords

o JailProp_Ceiling
g JailProp_Ceiling
usemtl JailProp_Ceiling
s 1
f 75/27/63 76/28/64 77/29/65 78/30/66 
s off
f 79/31/67 76/29/64 75/30/63 80/32/68 
f 79/33/67 80/34/68 81/32/69 82/31/70 
f 76/28/64 79/33/67 82/31/70 77/29/65 
f 75/27/63 78/30/66 81/32/69 80/34/68 
# 5 polygons

#
# object JailProp_LampBulb01
#

v  -0.0000 2.7164 -1.1082
v  -0.0000 2.7336 -1.1723
v  0.0320 2.7336 -1.1637
v  0.0555 2.7336 -1.1402
v  0.0640 2.7336 -1.1082
v  0.0555 2.7336 -1.0762
v  0.0320 2.7336 -1.0527
v  -0.0000 2.7336 -1.0442
v  -0.0320 2.7336 -1.0527
v  -0.0555 2.7336 -1.0762
v  -0.0640 2.7336 -1.1082
v  -0.0555 2.7336 -1.1402
v  -0.0320 2.7336 -1.1637
v  -0.0000 2.7804 -1.2191
v  0.0555 2.7804 -1.2043
v  0.0961 2.7804 -1.1637
v  0.1109 2.7804 -1.1082
v  0.0961 2.7804 -1.0527
v  0.0555 2.7804 -1.0121
v  -0.0000 2.7804 -0.9973
v  -0.0555 2.7804 -1.0121
v  -0.0961 2.7804 -1.0527
v  -0.1109 2.7804 -1.1082
v  -0.0961 2.7804 -1.1637
v  -0.0555 2.7804 -1.2043
v  -0.0000 2.8445 -1.2363
v  0.0640 2.8445 -1.2191
v  0.1109 2.8445 -1.1723
v  0.1281 2.8445 -1.1082
v  0.1109 2.8445 -1.0442
v  0.0640 2.8445 -0.9973
v  -0.0000 2.8445 -0.9801
v  -0.0640 2.8445 -0.9973
v  -0.1109 2.8445 -1.0442
v  -0.1281 2.8445 -1.1082
v  -0.1109 2.8445 -1.1723
v  -0.0640 2.8445 -1.2191
v  -0.0000 2.9085 -1.2191
v  0.0555 2.9085 -1.2043
v  0.0961 2.9085 -1.1637
v  0.1109 2.9085 -1.1082
v  0.0961 2.9085 -1.0527
v  0.0555 2.9085 -1.0121
v  -0.0000 2.9085 -0.9973
v  -0.0555 2.9085 -1.0121
v  -0.0961 2.9085 -1.0527
v  -0.1109 2.9085 -1.1082
v  -0.0961 2.9085 -1.1637
v  -0.0555 2.9085 -1.2043
v  -0.0000 2.9554 -1.1723
v  0.0320 2.9554 -1.1637
v  0.0555 2.9554 -1.1402
v  0.0640 2.9554 -1.1082
v  0.0555 2.9554 -1.0762
v  0.0320 2.9554 -1.0527
v  -0.0000 2.9554 -1.0442
v  -0.0320 2.9554 -1.0527
v  -0.0555 2.9554 -1.0762
v  -0.0640 2.9554 -1.1082
v  -0.0555 2.9554 -1.1402
v  -0.0320 2.9554 -1.1637
# 61 vertices

vn 0.0000 -1.0000 0.0000
vn 0.0000 -0.8474 -0.5309
vn 0.2654 -0.8474 -0.4598
vn 0.4598 -0.8474 -0.2654
vn 0.5309 -0.8474 0.0000
vn 0.4598 -0.8474 0.2654
vn 0.2655 -0.8474 0.4598
vn -0.0000 -0.8474 0.5309
vn -0.2654 -0.8474 0.4598
vn -0.4598 -0.8474 0.2655
vn -0.5309 -0.8474 0.0000
vn -0.4598 -0.8474 -0.2654
vn -0.2654 -0.8474 -0.4598
vn -0.0000 -0.4823 -0.8760
vn 0.4380 -0.4823 -0.7586
vn 0.7586 -0.4823 -0.4380
vn 0.8760 -0.4823 0.0000
vn 0.7586 -0.4823 0.4380
vn 0.4380 -0.4823 0.7586
vn 0.0000 -0.4823 0.8760
vn -0.4380 -0.4823 0.7586
vn -0.7586 -0.4823 0.4380
vn -0.8760 -0.4823 0.0000
vn -0.7586 -0.4823 -0.4380
vn -0.4380 -0.4823 -0.7586
vn -0.0000 -0.0000 -1.0000
vn 0.5000 -0.0000 -0.8660
vn 0.8660 0.0000 -0.5000
vn 1.0000 0.0000 -0.0000
vn 0.8660 0.0000 0.5000
vn 0.5000 0.0000 0.8660
vn 0.0000 0.0000 1.0000
vn -0.5000 0.0000 0.8660
vn -0.8660 -0.0000 0.5000
vn -1.0000 -0.0000 0.0000
vn -0.8660 -0.0000 -0.5000
vn -0.5000 -0.0000 -0.8660
vn -0.0000 0.4823 -0.8760
vn 0.4380 0.4823 -0.7586
vn 0.7586 0.4823 -0.4380
vn 0.8760 0.4823 -0.0000
vn 0.7586 0.4823 0.4380
vn 0.4380 0.4823 0.7586
vn 0.0000 0.4823 0.8760
vn -0.4380 0.4823 0.7586
vn -0.7586 0.4823 0.4380
vn -0.8760 0.4823 0.0000
vn -0.7586 0.4823 -0.4380
vn -0.4380 0.4823 -0.7586
vn 0.0000 0.7071 -0.7071
vn 0.3536 0.7071 -0.6124
vn 0.6124 0.7071 -0.3536
vn 0.7071 0.7071 -0.0000
vn 0.6124 0.7071 0.3536
vn 0.3536 0.7071 0.6124
vn -0.0000 0.7071 0.7071
vn -0.3536 0.7071 0.6124
vn -0.6124 0.7071 0.3536
vn -0.7071 0.7071 -0.0000
vn -0.6124 0.7071 -0.3536
vn -0.3536 0.7071 -0.6124
# 61 vertex normals

vt 0.0000 1.0000 0.0000
vt 0.0000 0.8333 0.0000
vt 0.0833 0.8333 0.0000
vt 0.0833 1.0000 0.0000
vt 0.1667 0.8333 0.0000
vt 0.1667 1.0000 0.0000
vt 0.2500 0.8333 0.0000
vt 0.2500 1.0000 0.0000
vt 0.3333 0.8333 0.0000
vt 0.3333 1.0000 0.0000
vt 0.4167 0.8333 0.0000
vt 0.4167 1.0000 0.0000
vt 0.5000 0.8333 0.0000
vt 0.5000 1.0000 0.0000
vt 0.5833 0.8333 0.0000
vt 0.5833 1.0000 0.0000
vt 0.6667 0.8333 0.0000
vt 0.6667 1.0000 0.0000
vt 0.7500 0.8333 0.0000
vt 0.7500 1.0000 0.0000
vt 0.8333 0.8333 0.0000
vt 0.8333 1.0000 0.0000
vt 0.9167 0.8333 0.0000
vt 0.9167 1.0000 0.0000
vt 1.0000 0.8333 0.0000
vt 0.0000 0.6667 0.0000
vt 0.0833 0.6667 0.0000
vt 0.1667 0.6667 0.0000
vt 0.2500 0.6667 0.0000
vt 0.3333 0.6667 0.0000
vt 0.4167 0.6667 0.0000
vt 0.5000 0.6667 0.0000
vt 0.5833 0.6667 0.0000
vt 0.6667 0.6667 0.0000
vt 0.7500 0.6667 0.0000
vt 0.8333 0.6667 0.0000
vt 0.9167 0.6667 0.0000
vt 1.0000 0.6667 0.0000
vt 0.0000 0.5000 0.0000
vt 0.0833 0.5000 0.0000
vt 0.1667 0.5000 0.0000
vt 0.2500 0.5000 0.0000
vt 0.3333 0.5000 0.0000
vt 0.4167 0.5000 0.0000
vt 0.5000 0.5000 0.0000
vt 0.5833 0.5000 0.0000
vt 0.6667 0.5000 0.0000
vt 0.7500 0.5000 0.0000
vt 0.8333 0.5000 0.0000
vt 0.9167 0.5000 0.0000
vt 1.0000 0.5000 0.0000
vt 0.0000 0.3333 0.0000
vt 0.0833 0.3333 0.0000
vt 0.1667 0.3333 0.0000
vt 0.2500 0.3333 0.0000
vt 0.3333 0.3333 0.0000
vt 0.4167 0.3333 0.0000
vt 0.5000 0.3333 0.0000
vt 0.5833 0.3333 0.0000
vt 0.6667 0.3333 0.0000
vt 0.7500 0.3333 0.0000
vt 0.8333 0.3333 0.0000
vt 0.9167 0.3333 0.0000
vt 1.0000 0.3333 0.0000
vt 0.0000 0.1667 0.0000
vt 0.0833 0.1667 0.0000
vt 0.1667 0.1667 0.0000
vt 0.2500 0.1667 0.0000
vt 0.3333 0.1667 0.0000
vt 0.4167 0.1667 0.0000
vt 0.5000 0.1667 0.0000
vt 0.5833 0.1667 0.0000
vt 0.6667 0.1667 0.0000
vt 0.7500 0.1667 0.0000
vt 0.8333 0.1667 0.0000
vt 0.9167 0.1667 0.0000
vt 1.0000 0.1667 0.0000
# 77 texture coords

o JailProp_LampBulb01
g JailProp_LampBulb01
usemtl JailProp_LampBulb01
s 1
f 83/35/71 84/36/72 85/37/73 
f 83/38/71 85/37/73 86/39/74 
f 83/40/71 86/39/74 87/41/75 
f 83/42/71 87/41/75 88/43/76 
f 83/44/71 88/43/76 89/45/77 
f 83/46/71 89/45/77 90/47/78 
f 83/48/71 90/47/78 91/49/79 
f 83/50/71 91/49/79 92/51/80 
f 83/52/71 92/51/80 93/53/81 
f 83/54/71 93/53/81 94/55/82 
f 83/56/71 94/55/82 95/57/83 
f 83/58/71 95/57/83 84/59/72 
f 84/36/72 96/60/84 97/61/85 85/37/73 
f 85/37/73 97/61/85 98/62/86 86/39/74 
f 86/39/74 98/62/86 99/63/87 87/41/75 
f 87/41/75 99/63/87 100/64/88 88/43/76 
f 88/43/76 100/64/88 101/65/89 89/45/77 
f 89/45/77 101/65/89 102/66/90 90/47/78 
f 90/47/78 102/66/90 103/67/91 91/49/79 
f 91/49/79 103/67/91 104/68/92 92/51/80 
f 92/51/80 104/68/92 105/69/93 93/53/81 
f 93/53/81 105/69/93 106/70/94 94/55/82 
f 94/55/82 106/70/94 107/71/95 95/57/83 
f 95/57/83 107/71/95 96/72/84 84/59/72 
f 96/60/84 108/73/96 109/74/97 97/61/85 
f 97/61/85 109/74/97 110/75/98 98/62/86 
f 98/62/86 110/75/98 111/76/99 99/63/87 
f 99/63/87 111/76/99 112/77/100 100/64/88 
f 100/64/88 112/77/100 113/78/101 101/65/89 
f 101/65/89 113/78/101 114/79/102 102/66/90 
f 102/66/90 114/79/102 115/80/103 103/67/91 
f 103/67/91 115/80/103 116/81/104 104/68/92 
f 104/68/92 116/81/104 117/82/105 105/69/93 
f 105/69/93 117/82/105 118/83/106 106/70/94 
f 106/70/94 118/83/106 119/84/107 107/71/95 
f 107/71/95 119/84/107 108/85/96 96/72/84 
f 108/73/96 120/86/108 121/87/109 109/74/97 
f 109/74/97 121/87/109 122/88/110 110/75/98 
f 110/75/98 122/88/110 123/89/111 111/76/99 
f 111/76/99 123/89/111 124/90/112 112/77/100 
f 112/77/100 124/90/112 125/91/113 113/78/101 
f 113/78/101 125/91/113 126/92/114 114/79/102 
f 114/79/102 126/92/114 127/93/115 115/80/103 
f 115/80/103 127/93/115 128/94/116 116/81/104 
f 116/81/104 128/94/116 129/95/117 117/82/105 
f 117/82/105 129/95/117 130/96/118 118/83/106 
f 118/83/106 130/96/118 131/97/119 119/84/107 
f 119/84/107 131/97/119 120/98/108 108/85/96 
f 120/86/108 132/99/120 133/100/121 121/87/109 
f 121/87/109 133/100/121 134/101/122 122/88/110 
f 122/88/110 134/101/122 135/102/123 123/89/111 
f 123/89/111 135/102/123 136/103/124 124/90/112 
f 124/90/112 136/103/124 137/104/125 125/91/113 
f 125/91/113 137/104/125 138/105/126 126/92/114 
f 126/92/114 138/105/126 139/106/127 127/93/115 
f 127/93/115 139/106/127 140/107/128 128/94/116 
f 128/94/116 140/107/128 141/108/129 129/95/117 
f 129/95/117 141/108/129 142/109/130 130/96/118 
f 130/96/118 142/109/130 143/110/131 131/97/119 
f 131/97/119 143/110/131 132/111/120 120/98/108 
# 48 polygons - 12 triangles

