# 3ds Max Wavefront OBJ Exporter v0.99 - (c)2007 guruware
# File Created: 31.12.2025 20:54:26

mtllib JailProp_Floor.mtl

#
# object JailProp_Floor
#

v  -3.7891 -0.8920 -4.5150
v  3.7891 -0.8920 -4.5150
v  3.7631 -0.8660 4.5150
v  -3.7631 -0.8660 4.5150
v  -3.5062 0.1417 -4.5150
v  3.5062 0.1417 -4.5150
v  -3.5322 0.1158 2.2985
v  3.5322 0.1158 2.2985
# 8 vertices

vn -0.6568 -0.5015 -0.5631
vn 0.6568 -0.5015 -0.5631
vn 0.5622 -0.1663 0.8101
vn -0.5622 -0.1663 0.8101
vn -0.4874 0.6414 -0.5924
vn 0.4874 0.6414 -0.5924
vn -0.5765 0.8039 0.1463
vn 0.5765 0.8039 0.1463
# 8 vertex normals

vt -0.0833 0.0000 1.0000
vt 0.0833 0.0000 1.0000
# 2 texture coords

o JailProp_Floor
g JailProp_Floor
usemtl Material__65
s off
f 1/1/1 2/2/2 3/2/3 4/1/4 
s 1
f 5/1/5 6/2/6 2/2/2 1/1/1 
s off
f 1/1/1 4/1/4 7/1/7 5/1/5 
f 4/1/4 3/2/3 8/2/8 7/1/7 
f 3/2/3 2/2/2 6/2/6 8/2/8 
f 6/2/6 5/1/5 7/1/7 8/2/8 
# 6 polygons

