# 3ds Max Wavefront OBJ Exporter v0.99 - (c)2007 guruware
# File Created: 01.01.2026 15:58:55

mtllib JailProp_SteelBarred_N.mtl

#
# object JailProp_SteelBarred_N
#

v  3.4049 0.1321 -4.2082
v  3.3960 0.1321 -4.2295
v  3.3960 3.4833 -4.2295
v  3.4049 3.4833 -4.2082
v  3.3747 0.1321 -4.2383
v  3.3747 3.4833 -4.2383
v  3.3534 0.1321 -4.2295
v  3.3534 3.4833 -4.2295
v  3.3445 0.1321 -4.2082
v  3.3446 3.4833 -4.2082
v  3.3534 0.1321 -4.1868
v  3.3534 3.4833 -4.1868
v  3.3747 0.1321 -4.1780
v  3.3747 3.4833 -4.1780
v  3.3960 0.1321 -4.1868
v  3.3960 3.4833 -4.1868
v  3.1049 0.1321 -4.2082
v  3.0960 0.1321 -4.2295
v  3.0960 3.4833 -4.2295
v  3.1049 3.4833 -4.2082
v  3.0747 0.1321 -4.2383
v  3.0747 3.4833 -4.2383
v  3.0534 0.1321 -4.2295
v  3.0534 3.4833 -4.2295
v  3.0446 0.1321 -4.2082
v  3.0446 3.4833 -4.2082
v  3.0534 0.1321 -4.1868
v  3.0534 3.4833 -4.1868
v  3.0747 0.1321 -4.1780
v  3.0747 3.4833 -4.1780
v  3.0960 0.1321 -4.1868
v  3.0960 3.4833 -4.1868
v  2.8049 0.1321 -4.2082
v  2.7960 0.1321 -4.2295
v  2.7960 3.4833 -4.2295
v  2.8049 3.4833 -4.2082
v  2.7747 0.1321 -4.2383
v  2.7747 3.4833 -4.2383
v  2.7534 0.1321 -4.2295
v  2.7534 3.4833 -4.2295
v  2.7446 0.1321 -4.2082
v  2.7445 3.4833 -4.2082
v  2.7534 0.1321 -4.1868
v  2.7534 3.4833 -4.1868
v  2.7747 0.1321 -4.1780
v  2.7747 3.4833 -4.1780
v  2.7960 0.1321 -4.1868
v  2.7960 3.4833 -4.1868
v  2.5049 0.1321 -4.2082
v  2.4960 0.1321 -4.2295
v  2.4960 3.4833 -4.2295
v  2.5049 3.4833 -4.2082
v  2.4747 0.1321 -4.2383
v  2.4747 3.4833 -4.2383
v  2.4534 0.1321 -4.2295
v  2.4534 3.4833 -4.2295
v  2.4446 0.1321 -4.2082
v  2.4445 3.4833 -4.2082
v  2.4534 0.1321 -4.1868
v  2.4534 3.4833 -4.1868
v  2.4747 0.1321 -4.1780
v  2.4747 3.4833 -4.1780
v  2.4960 0.1321 -4.1868
v  2.4960 3.4833 -4.1868
v  2.2049 0.1321 -4.2082
v  2.1960 0.1321 -4.2295
v  2.1960 3.4833 -4.2295
v  2.2049 3.4833 -4.2082
v  2.1747 0.1321 -4.2383
v  2.1747 3.4833 -4.2383
v  2.1534 0.1321 -4.2295
v  2.1534 3.4833 -4.2295
v  2.1445 0.1321 -4.2082
v  2.1446 3.4833 -4.2082
v  2.1534 0.1321 -4.1868
v  2.1534 3.4833 -4.1868
v  2.1747 0.1321 -4.1780
v  2.1747 3.4833 -4.1780
v  2.1960 0.1321 -4.1868
v  2.1960 3.4833 -4.1868
v  1.9049 0.1321 -4.2082
v  1.8960 0.1321 -4.2295
v  1.8960 3.4833 -4.2295
v  1.9049 3.4833 -4.2082
v  1.8747 0.1321 -4.2383
v  1.8747 3.4833 -4.2383
v  1.8534 0.1321 -4.2295
v  1.8534 3.4833 -4.2295
v  1.8446 0.1321 -4.2082
v  1.8446 3.4833 -4.2082
v  1.8534 0.1321 -4.1868
v  1.8534 3.4833 -4.1868
v  1.8747 0.1321 -4.1780
v  1.8747 3.4833 -4.1780
v  1.8960 0.1321 -4.1868
v  1.8960 3.4833 -4.1868
v  1.6049 0.1321 -4.2082
v  1.5960 0.1321 -4.2295
v  1.5960 3.4833 -4.2295
v  1.6049 3.4833 -4.2082
v  1.5747 0.1321 -4.2383
v  1.5747 3.4833 -4.2383
v  1.5534 0.1321 -4.2295
v  1.5534 3.4833 -4.2295
v  1.5445 0.1321 -4.2082
v  1.5445 3.4833 -4.2082
v  1.5534 0.1321 -4.1868
v  1.5534 3.4833 -4.1868
v  1.5747 0.1321 -4.1780
v  1.5747 3.4833 -4.1780
v  1.5960 0.1321 -4.1868
v  1.5960 3.4833 -4.1868
v  1.3049 0.1321 -4.2082
v  1.2960 0.1321 -4.2295
v  1.2960 3.4833 -4.2295
v  1.3049 3.4833 -4.2082
v  1.2747 0.1321 -4.2383
v  1.2747 3.4833 -4.2383
v  1.2534 0.1321 -4.2295
v  1.2534 3.4833 -4.2295
v  1.2445 0.1321 -4.2082
v  1.2446 3.4833 -4.2082
v  1.2534 0.1321 -4.1868
v  1.2534 3.4833 -4.1868
v  1.2747 0.1321 -4.1780
v  1.2747 3.4833 -4.1780
v  1.2960 0.1321 -4.1868
v  1.2960 3.4833 -4.1868
v  1.0049 0.1321 -4.2082
v  0.9960 0.1321 -4.2295
v  0.9960 3.4833 -4.2295
v  1.0049 3.4833 -4.2082
v  0.9747 0.1321 -4.2383
v  0.9747 3.4833 -4.2383
v  0.9534 0.1321 -4.2295
v  0.9534 3.4833 -4.2295
v  0.9446 0.1321 -4.2082
v  0.9446 3.4833 -4.2082
v  0.9534 0.1321 -4.1868
v  0.9534 3.4833 -4.1868
v  0.9747 0.1321 -4.1780
v  0.9747 3.4833 -4.1780
v  0.9960 0.1321 -4.1868
v  0.9960 3.4833 -4.1868
v  -0.7951 0.1321 -4.2082
v  -0.8040 0.1321 -4.2295
v  -0.8040 3.4833 -4.2295
v  -0.7951 3.4833 -4.2082
v  -0.8253 0.1321 -4.2383
v  -0.8253 3.4833 -4.2383
v  -0.8466 0.1321 -4.2295
v  -0.8466 3.4833 -4.2295
v  -0.8554 0.1321 -4.2082
v  -0.8554 3.4833 -4.2082
v  -0.8466 0.1321 -4.1868
v  -0.8466 3.4833 -4.1868
v  -0.8253 0.1321 -4.1780
v  -0.8253 3.4833 -4.1780
v  -0.8040 0.1321 -4.1868
v  -0.8040 3.4833 -4.1868
v  -1.0951 0.1321 -4.2082
v  -1.1040 0.1321 -4.2295
v  -1.1040 3.4833 -4.2295
v  -1.0951 3.4833 -4.2082
v  -1.1253 0.1321 -4.2383
v  -1.1253 3.4833 -4.2383
v  -1.1466 0.1321 -4.2295
v  -1.1466 3.4833 -4.2295
v  -1.1555 0.1321 -4.2082
v  -1.1555 3.4833 -4.2082
v  -1.1466 0.1321 -4.1868
v  -1.1466 3.4833 -4.1868
v  -1.1253 0.1321 -4.1780
v  -1.1253 3.4833 -4.1780
v  -1.1040 0.1321 -4.1868
v  -1.1040 3.4833 -4.1868
v  -1.3951 0.1321 -4.2082
v  -1.4040 0.1321 -4.2295
v  -1.4040 3.4833 -4.2295
v  -1.3951 3.4833 -4.2082
v  -1.4253 0.1321 -4.2383
v  -1.4253 3.4833 -4.2383
v  -1.4466 0.1321 -4.2295
v  -1.4466 3.4833 -4.2295
v  -1.4554 0.1321 -4.2082
v  -1.4554 3.4833 -4.2082
v  -1.4466 0.1321 -4.1868
v  -1.4466 3.4833 -4.1868
v  -1.4253 0.1321 -4.1780
v  -1.4253 3.4833 -4.1780
v  -1.4040 0.1321 -4.1868
v  -1.4040 3.4833 -4.1868
v  -1.6951 0.1321 -4.2082
v  -1.7040 0.1321 -4.2295
v  -1.7040 3.4833 -4.2295
v  -1.6951 3.4833 -4.2082
v  -1.7253 0.1321 -4.2383
v  -1.7253 3.4833 -4.2383
v  -1.7466 0.1321 -4.2295
v  -1.7466 3.4833 -4.2295
v  -1.7554 0.1321 -4.2082
v  -1.7554 3.4833 -4.2082
v  -1.7466 0.1321 -4.1868
v  -1.7466 3.4833 -4.1868
v  -1.7253 0.1321 -4.1780
v  -1.7253 3.4833 -4.1780
v  -1.7040 0.1321 -4.1868
v  -1.7040 3.4833 -4.1868
v  -1.9951 0.1321 -4.2082
v  -2.0040 0.1321 -4.2295
v  -2.0040 3.4833 -4.2295
v  -1.9951 3.4833 -4.2082
v  -2.0253 0.1321 -4.2383
v  -2.0253 3.4833 -4.2383
v  -2.0466 0.1321 -4.2295
v  -2.0466 3.4833 -4.2295
v  -2.0554 0.1321 -4.2082
v  -2.0554 3.4833 -4.2082
v  -2.0466 0.1321 -4.1868
v  -2.0466 3.4833 -4.1868
v  -2.0253 0.1321 -4.1780
v  -2.0253 3.4833 -4.1780
v  -2.0040 0.1321 -4.1868
v  -2.0040 3.4833 -4.1868
v  -2.2951 0.1321 -4.2082
v  -2.3040 0.1321 -4.2295
v  -2.3040 3.4833 -4.2295
v  -2.2951 3.4833 -4.2082
v  -2.3253 0.1321 -4.2383
v  -2.3253 3.4833 -4.2383
v  -2.3466 0.1321 -4.2295
v  -2.3466 3.4833 -4.2295
v  -2.3555 0.1321 -4.2082
v  -2.3554 3.4833 -4.2082
v  -2.3466 0.1321 -4.1868
v  -2.3466 3.4833 -4.1868
v  -2.3253 0.1321 -4.1780
v  -2.3253 3.4833 -4.1780
v  -2.3040 0.1321 -4.1868
v  -2.3040 3.4833 -4.1868
v  -2.5951 0.1321 -4.2082
v  -2.6040 0.1321 -4.2295
v  -2.6040 3.4833 -4.2295
v  -2.5951 3.4833 -4.2082
v  -2.6253 0.1321 -4.2383
v  -2.6253 3.4833 -4.2383
v  -2.6466 0.1321 -4.2295
v  -2.6466 3.4833 -4.2295
v  -2.6554 0.1321 -4.2082
v  -2.6554 3.4833 -4.2082
v  -2.6466 0.1321 -4.1868
v  -2.6466 3.4833 -4.1868
v  -2.6253 0.1321 -4.1780
v  -2.6253 3.4833 -4.1780
v  -2.6040 0.1321 -4.1868
v  -2.6040 3.4833 -4.1868
v  -2.8951 0.1321 -4.2082
v  -2.9040 0.1321 -4.2295
v  -2.9040 3.4833 -4.2295
v  -2.8951 3.4833 -4.2082
v  -2.9253 0.1321 -4.2383
v  -2.9253 3.4833 -4.2383
v  -2.9466 0.1321 -4.2295
v  -2.9466 3.4833 -4.2295
v  -2.9554 0.1321 -4.2082
v  -2.9554 3.4833 -4.2082
v  -2.9466 0.1321 -4.1868
v  -2.9466 3.4833 -4.1868
v  -2.9253 0.1321 -4.1780
v  -2.9253 3.4833 -4.1780
v  -2.9040 0.1321 -4.1868
v  -2.9040 3.4833 -4.1868
v  -3.1951 0.1321 -4.2082
v  -3.2040 0.1321 -4.2295
v  -3.2040 3.4833 -4.2295
v  -3.1951 3.4833 -4.2082
v  -3.2253 0.1321 -4.2383
v  -3.2253 3.4833 -4.2383
v  -3.2466 0.1321 -4.2295
v  -3.2466 3.4833 -4.2295
v  -3.2554 0.1321 -4.2082
v  -3.2554 3.4833 -4.2082
v  -3.2466 0.1321 -4.1868
v  -3.2466 3.4833 -4.1868
v  -3.2253 0.1321 -4.1780
v  -3.2253 3.4833 -4.1780
v  -3.2040 0.1321 -4.1868
v  -3.2040 3.4833 -4.1868
v  -3.4951 0.1321 -4.2082
v  -3.5040 0.1321 -4.2295
v  -3.5040 3.4833 -4.2295
v  -3.4951 3.4833 -4.2082
v  -3.5253 0.1321 -4.2383
v  -3.5253 3.4833 -4.2383
v  -3.5466 0.1321 -4.2295
v  -3.5466 3.4833 -4.2295
v  -3.5554 0.1321 -4.2082
v  -3.5554 3.4833 -4.2082
v  -3.5466 0.1321 -4.1868
v  -3.5466 3.4833 -4.1868
v  -3.5253 0.1321 -4.1780
v  -3.5253 3.4833 -4.1780
v  -3.5040 0.1321 -4.1868
v  -3.5040 3.4833 -4.1868
v  -3.6515 2.6321 -4.2501
v  3.6515 2.6321 -4.2501
v  3.6515 2.6321 -4.1943
v  -3.6515 2.6321 -4.1943
v  -3.6515 2.6420 -4.2604
v  -3.6515 2.7424 -4.2604
v  3.6515 2.7425 -4.2604
v  3.6515 2.6420 -4.2604
v  -3.6515 2.7523 -4.2501
v  -3.6515 2.7523 -4.1943
v  3.6515 2.7523 -4.1943
v  3.6515 2.7523 -4.2501
v  -3.6515 2.7424 -4.1840
v  -3.6515 2.6420 -4.1840
v  3.6515 2.6420 -4.1840
v  3.6515 2.7425 -4.1840
v  -0.6244 0.1321 -4.2422
v  -0.6244 0.1321 -4.2005
v  -0.6244 3.4833 -4.2005
v  -0.6244 3.4833 -4.2422
v  -0.5626 0.1321 -4.2005
v  -0.5626 3.4833 -4.2005
v  0.9242 0.1321 -4.2422
v  0.9242 3.4833 -4.2422
v  0.9242 3.4833 -4.2005
v  0.9242 0.1321 -4.2005
v  0.8624 0.1321 -4.2422
v  0.8624 3.4833 -4.2422
v  -0.5626 0.1321 -4.2422
v  -0.5626 3.4833 -4.2422
v  0.8624 0.1321 -4.2005
v  0.8624 3.4833 -4.2005
v  -3.6515 0.1317 -4.2501
v  -0.5828 0.1317 -4.2501
v  -0.5828 0.1317 -4.1943
v  -3.6515 0.1317 -4.1943
v  -3.6515 0.1416 -4.2604
v  -3.6515 0.2421 -4.2604
v  -0.5828 0.2421 -4.2604
v  -0.5828 0.1416 -4.2604
v  -3.6515 0.2519 -4.2501
v  -3.6515 0.2519 -4.1943
v  -0.5828 0.2519 -4.1943
v  -0.5828 0.2519 -4.2501
v  -3.6515 0.2421 -4.1840
v  -3.6515 0.1416 -4.1840
v  -0.5828 0.1416 -4.1840
v  -0.5828 0.2421 -4.1840
v  3.6515 0.1317 -4.2501
v  0.8761 0.1317 -4.2501
v  0.8761 0.1416 -4.2604
v  3.6515 0.1416 -4.2604
v  3.6515 0.2421 -4.2604
v  0.8761 0.2421 -4.2604
v  0.8761 0.2519 -4.2501
v  3.6515 0.2519 -4.2501
v  3.6515 0.2519 -4.1943
v  0.8761 0.2519 -4.1943
v  0.8761 0.2421 -4.1840
v  3.6515 0.2421 -4.1840
v  3.6515 0.1416 -4.1840
v  0.8761 0.1416 -4.1840
v  0.8761 0.1317 -4.1943
v  3.6515 0.1317 -4.1943
v  0.8656 0.1515 -4.1980
v  0.8656 0.1515 -4.2463
v  0.8656 0.2322 -4.2463
v  0.8656 0.2322 -4.1980
v  -0.5651 0.1515 -4.2463
v  -0.5651 0.1515 -4.1980
v  -0.5651 0.2322 -4.2463
v  -0.5651 0.2322 -4.1980
v  -3.6515 2.9661 -4.2501
v  3.6515 2.9661 -4.2501
v  3.6515 2.9661 -4.1943
v  -3.6515 2.9661 -4.1943
v  -3.6515 2.9760 -4.2604
v  -3.6515 3.0765 -4.2604
v  3.6515 3.0765 -4.2604
v  3.6515 2.9760 -4.2604
v  -3.6515 3.0864 -4.2501
v  -3.6515 3.0864 -4.1943
v  3.6515 3.0864 -4.1943
v  3.6515 3.0864 -4.2501
v  -3.6515 3.0765 -4.1840
v  -3.6515 2.9760 -4.1840
v  3.6515 2.9760 -4.1840
v  3.6515 3.0765 -4.1840
v  -3.6515 1.1661 -4.2501
v  -0.5751 1.1661 -4.2501
v  -0.5751 1.1661 -4.1943
v  -3.6515 1.1661 -4.1943
v  -3.6515 1.1759 -4.2604
v  -3.6515 1.2207 -4.2604
v  -0.5751 1.2207 -4.2604
v  -0.5751 1.1759 -4.2604
v  -3.6515 1.2305 -4.2501
v  -3.6515 1.2305 -4.1943
v  -0.5751 1.2305 -4.1943
v  -0.5751 1.2305 -4.2501
v  -3.6515 1.2207 -4.1840
v  -3.6515 1.1759 -4.1840
v  -0.5751 1.1759 -4.1840
v  -0.5751 1.2207 -4.1840
v  3.6515 1.1661 -4.2501
v  0.8751 1.1661 -4.2501
v  0.8751 1.1759 -4.2604
v  3.6515 1.1759 -4.2604
v  3.6515 1.2207 -4.2604
v  0.8751 1.2207 -4.2604
v  0.8751 1.2305 -4.2501
v  3.6515 1.2305 -4.2501
v  3.6515 1.2305 -4.1943
v  0.8751 1.2305 -4.1943
v  0.8751 1.2207 -4.1840
v  3.6515 1.2207 -4.1840
v  3.6515 1.1759 -4.1840
v  0.8751 1.1759 -4.1840
v  0.8751 1.1661 -4.1943
v  3.6515 1.1661 -4.1943
v  -3.6515 1.3987 -4.2501
v  -0.5762 1.3987 -4.2501
v  -0.5762 1.3987 -4.1943
v  -3.6515 1.3987 -4.1943
v  -3.6515 1.4085 -4.2604
v  -3.6515 1.4533 -4.2604
v  -0.5762 1.4533 -4.2604
v  -0.5762 1.4085 -4.2604
v  -3.6515 1.4631 -4.2501
v  -3.6515 1.4631 -4.1943
v  -0.5762 1.4631 -4.1943
v  -0.5762 1.4631 -4.2501
v  -3.6515 1.4533 -4.1840
v  -3.6515 1.4085 -4.1840
v  -0.5762 1.4085 -4.1840
v  -0.5762 1.4533 -4.1840
v  3.6515 1.3987 -4.2501
v  0.8773 1.3987 -4.2501
v  0.8773 1.4085 -4.2604
v  3.6515 1.4085 -4.2604
v  3.6515 1.4533 -4.2604
v  0.8773 1.4533 -4.2604
v  0.8773 1.4631 -4.2501
v  3.6515 1.4631 -4.2501
v  3.6515 1.4631 -4.1943
v  0.8773 1.4631 -4.1943
v  0.8773 1.4533 -4.1840
v  3.6515 1.4533 -4.1840
v  3.6515 1.4085 -4.1840
v  0.8773 1.4085 -4.1840
v  0.8773 1.3987 -4.1943
v  3.6515 1.3987 -4.1943
v  0.8671 1.4119 -4.1992
v  0.8671 1.4119 -4.2452
v  0.8671 1.4499 -4.2452
v  0.8671 1.4499 -4.1992
v  0.8650 1.1793 -4.2452
v  0.8650 1.2173 -4.2452
v  0.8650 1.2173 -4.1992
v  0.8650 1.1793 -4.1992
v  -0.5680 1.4119 -4.2452
v  -0.5680 1.4119 -4.1992
v  -0.5680 1.4499 -4.2452
v  -0.5680 1.4499 -4.1992
v  -0.5669 1.1793 -4.2452
v  -0.5669 1.1793 -4.1992
v  -0.5669 1.2173 -4.2452
v  -0.5669 1.2173 -4.1992
v  0.6960 2.7039 -4.2295
v  0.6960 3.4833 -4.2295
v  0.7049 3.4833 -4.2082
v  0.7049 2.7039 -4.2082
v  0.6747 2.7039 -4.2383
v  0.6747 3.4833 -4.2383
v  0.6534 2.7039 -4.2295
v  0.6534 3.4833 -4.2295
v  0.6446 2.7039 -4.2082
v  0.6446 3.4833 -4.2082
v  0.6534 2.7039 -4.1868
v  0.6534 3.4833 -4.1868
v  0.6747 2.7039 -4.1780
v  0.6747 3.4833 -4.1780
v  0.6960 2.7039 -4.1868
v  0.6960 3.4833 -4.1868
v  0.3960 2.7039 -4.2295
v  0.3960 3.4833 -4.2295
v  0.4049 3.4833 -4.2082
v  0.4049 2.7039 -4.2082
v  0.3747 2.7039 -4.2383
v  0.3747 3.4833 -4.2383
v  0.3534 2.7039 -4.2295
v  0.3534 3.4833 -4.2295
v  0.3445 2.7039 -4.2082
v  0.3445 3.4833 -4.2082
v  0.3534 2.7039 -4.1868
v  0.3534 3.4833 -4.1868
v  0.3747 2.7039 -4.1780
v  0.3747 3.4833 -4.1780
v  0.3960 2.7039 -4.1868
v  0.3960 3.4833 -4.1868
v  0.0960 2.7039 -4.2295
v  0.0960 3.4833 -4.2295
v  0.1049 3.4833 -4.2082
v  0.1049 2.7039 -4.2082
v  0.0747 2.7039 -4.2383
v  0.0747 3.4833 -4.2383
v  0.0534 2.7039 -4.2295
v  0.0534 3.4833 -4.2295
v  0.0446 2.7039 -4.2082
v  0.0446 3.4833 -4.2082
v  0.0534 2.7039 -4.1868
v  0.0534 3.4833 -4.1868
v  0.0747 2.7039 -4.1780
v  0.0747 3.4833 -4.1780
v  0.0960 2.7039 -4.1868
v  0.0960 3.4833 -4.1868
v  -0.2040 2.7039 -4.2295
v  -0.2040 3.4833 -4.2295
v  -0.1951 3.4833 -4.2082
v  -0.1951 2.7039 -4.2082
v  -0.2253 2.7039 -4.2383
v  -0.2253 3.4833 -4.2383
v  -0.2466 2.7039 -4.2295
v  -0.2466 3.4833 -4.2295
v  -0.2554 2.7039 -4.2082
v  -0.2554 3.4833 -4.2082
v  -0.2466 2.7039 -4.1868
v  -0.2466 3.4833 -4.1868
v  -0.2253 2.7039 -4.1780
v  -0.2253 3.4833 -4.1780
v  -0.2040 2.7039 -4.1868
v  -0.2040 3.4833 -4.1868
v  -0.5040 2.7039 -4.2295
v  -0.5040 3.4833 -4.2295
v  -0.4951 3.4833 -4.2082
v  -0.4951 2.7039 -4.2082
v  -0.5253 2.7039 -4.2383
v  -0.5253 3.4833 -4.2383
v  -0.5466 2.7039 -4.2295
v  -0.5466 3.4833 -4.2295
v  -0.5554 2.7039 -4.2082
v  -0.5554 3.4833 -4.2082
v  -0.5466 2.7039 -4.1868
v  -0.5466 3.4833 -4.1868
v  -0.5253 2.7039 -4.1780
v  -0.5253 3.4833 -4.1780
v  -0.5040 2.7039 -4.1868
v  -0.5040 3.4833 -4.1868
# 552 vertices

vn 1.0000 0.0000 0.0000
vn 0.7071 0.0000 -0.7071
vn 1.0000 0.0000 -0.0000
vn -0.0001 -0.0000 -1.0000
vn -0.0000 -0.0000 -1.0000
vn -0.7071 0.0000 -0.7071
vn -1.0000 0.0000 -0.0001
vn -0.7071 0.0000 0.7071
vn 0.0000 0.0000 1.0000
vn 0.7071 0.0000 0.7071
vn 0.7071 -0.0000 -0.7071
vn 0.0000 0.0000 -1.0000
vn -1.0000 0.0000 0.0001
vn -1.0000 0.0000 -0.0000
vn -0.7072 0.0000 0.7071
vn 0.0001 0.0000 1.0000
vn 0.7071 -0.0000 0.7071
vn 1.0000 -0.0000 -0.0000
vn 0.0001 -0.0000 -1.0000
vn -1.0000 -0.0000 0.0000
vn -1.0000 -0.0000 -0.0001
vn -0.7071 -0.0000 0.7071
vn -0.0000 0.0000 1.0000
vn 1.0000 -0.0000 0.0000
vn 0.0000 -0.0000 -1.0000
vn -0.7071 -0.0000 -0.7071
vn -1.0000 -0.0000 -0.0000
vn -0.0000 0.0000 -1.0000
vn -0.7072 0.0000 0.7070
vn -0.0001 0.0000 1.0000
vn -0.7071 0.0000 -0.7072
vn -1.0000 0.0000 0.0000
vn -0.7070 0.0000 0.7072
vn 0.7072 -0.0000 0.7071
vn 1.0000 0.0000 0.0001
vn 0.7072 0.0000 -0.7070
vn 0.7071 -0.0000 -0.7072
vn 1.0000 -0.0000 -0.0001
vn 0.7072 0.0000 0.7071
vn -0.0001 -0.0000 1.0000
vn 0.0000 -0.9277 -0.3732
vn 0.0000 -0.9278 -0.3732
vn -0.0000 -0.9277 0.3732
vn -0.0000 -0.9278 0.3732
vn 0.0000 -0.3921 -0.9199
vn 0.0000 0.3921 -0.9199
vn 0.0000 0.9277 -0.3732
vn -0.0000 0.9278 0.3732
vn 0.0000 0.9278 -0.3732
vn -0.0000 0.3921 0.9199
vn -0.0000 -0.3921 0.9199
vn -0.0000 0.3922 0.9199
vn 0.3754 -0.8633 -0.3373
vn 0.3754 -0.8633 0.3373
vn 0.3420 0.3782 -0.8602
vn 0.3420 -0.3782 -0.8602
vn 0.3754 0.8633 0.3373
vn 0.3754 0.8633 -0.3373
vn 0.3420 -0.3782 0.8602
vn 0.3420 0.3781 0.8602
vn -0.0000 -0.9277 -0.3732
vn -0.4682 -0.8226 -0.3225
vn -0.4407 -0.3607 -0.8220
vn -0.0000 -0.3921 -0.9199
vn -0.0000 0.3921 -0.9199
vn -0.4407 0.3607 -0.8220
vn -0.4682 0.8226 -0.3225
vn -0.0000 0.9278 -0.3732
vn 0.0000 0.9278 0.3732
vn -0.4682 0.8227 0.3225
vn -0.4407 0.3607 0.8220
vn -0.4407 -0.3607 0.8220
vn -0.4682 -0.8226 0.3225
vn -0.9456 -0.1893 0.2645
vn -0.9456 -0.1893 -0.2645
vn -0.9456 0.1893 -0.2645
vn -0.9456 0.1893 0.2645
vn 0.8859 -0.2856 -0.3655
vn 0.8859 -0.2856 0.3655
vn 0.8859 0.2856 -0.3655
vn 0.8859 0.2856 0.3655
vn -0.0000 -0.3922 0.9199
vn 0.4532 -0.8274 -0.3316
vn 0.4532 -0.8275 0.3316
vn 0.4645 0.3401 -0.8177
vn 0.4645 -0.3401 -0.8177
vn 0.4532 0.8275 0.3316
vn 0.4532 0.8274 -0.3316
vn 0.4645 -0.3402 0.8176
vn 0.4645 0.3402 0.8176
vn -0.4165 -0.8439 -0.3381
vn -0.4298 -0.3463 -0.8339
vn -0.4298 0.3463 -0.8339
vn -0.4165 0.8439 -0.3381
vn -0.4165 0.8439 0.3381
vn -0.4298 0.3463 0.8339
vn 0.0000 0.3921 0.9199
vn 0.0000 -0.3922 0.9199
vn -0.4298 -0.3463 0.8339
vn -0.4165 -0.8439 0.3381
vn 0.0000 -0.9278 0.3732
vn 0.4527 -0.8277 -0.3317
vn 0.4527 -0.8277 0.3317
vn 0.4640 0.3402 -0.8179
vn 0.4640 -0.3402 -0.8179
vn -0.0000 0.9277 0.3732
vn 0.4527 0.8277 0.3317
vn 0.4527 0.8277 -0.3317
vn 0.4641 -0.3403 0.8178
vn 0.4641 0.3403 0.8179
vn -0.4157 -0.8443 -0.3382
vn -0.4290 -0.3464 -0.8342
vn -0.4290 0.3464 -0.8342
vn -0.4157 0.8443 -0.3382
vn -0.4157 0.8443 0.3383
vn -0.4290 0.3464 0.8342
vn -0.4290 -0.3464 0.8342
vn -0.4157 -0.8443 0.3383
vn -0.9316 -0.2720 0.2410
vn -0.9316 -0.2720 -0.2410
vn -0.9316 0.2720 -0.2410
vn -0.9316 0.2720 0.2410
vn -0.9321 -0.2711 -0.2402
vn -0.9321 0.2711 -0.2402
vn -0.9321 0.2711 0.2402
vn -0.9321 -0.2711 0.2402
vn 0.9513 -0.2318 -0.2031
vn 0.9513 -0.2318 0.2031
vn 0.9513 0.2318 -0.2031
vn 0.9513 0.2318 0.2031
vn 0.9515 -0.2313 -0.2027
vn 0.9515 -0.2313 0.2026
vn 0.9515 0.2313 -0.2027
vn 0.9516 0.2313 0.2026
# 134 vertex normals

vt 0.7500 0.0000 1.0000
vt 0.8750 0.0000 1.0000
vt 0.8750 1.0000 1.0000
vt 0.7500 1.0000 1.0000
vt -0.1250 0.0000 1.0000
vt 0.0000 0.0000 1.0000
vt 0.0000 1.0000 1.0000
vt -0.1250 1.0000 1.0000
vt 0.1250 0.0000 1.0000
vt 0.1250 1.0000 1.0000
vt 0.2500 0.0000 1.0000
vt 0.2500 1.0000 1.0000
vt 0.3750 0.0000 1.0000
vt 0.3750 1.0000 1.0000
vt 0.5000 0.0000 1.0000
vt 0.5000 1.0000 1.0000
vt 0.6250 0.0000 1.0000
vt 0.6250 1.0000 1.0000
vt 0.8414 0.0000 1.0000
vt 0.8414 1.0000 1.0000
vt 0.6586 1.0000 1.0000
vt 0.6586 0.0000 1.0000
vt -0.1045 0.0000 1.0000
vt 0.1045 0.0000 1.0000
vt 0.1045 1.0000 1.0000
vt -0.1045 1.0000 1.0000
vt 0.1586 0.0000 1.0000
vt 0.3414 0.0000 1.0000
vt 0.3414 1.0000 1.0000
vt 0.1586 1.0000 1.0000
vt 0.3955 0.0000 1.0000
vt 0.6045 0.0000 1.0000
vt 0.6045 1.0000 1.0000
vt 0.3955 1.0000 1.0000
vt 0.4714 0.0000 1.0000
vt 0.4714 1.0000 1.0000
vt -0.0286 0.0000 1.0000
vt -0.0286 1.0000 1.0000
vt 0.0286 0.0000 1.0000
vt 0.0286 1.0000 1.0000
vt 0.5286 0.0000 1.0000
vt 0.5286 1.0000 1.0000
vt 0.8414 0.2527 1.0000
vt 0.6586 0.2527 1.0000
vt 0.1045 0.2527 1.0000
vt -0.1045 0.2527 1.0000
vt 0.3414 0.2527 1.0000
vt 0.1586 0.2527 1.0000
vt 0.6045 0.2527 1.0000
vt 0.3955 0.2527 1.0000
vt 0.8414 0.5226 1.0000
vt 0.8750 0.5226 1.0000
vt 0.1045 0.5226 1.0000
vt 0.1586 0.5226 1.0000
vt 0.3414 0.5226 1.0000
vt 0.3955 0.5226 1.0000
vt 0.6045 0.5226 1.0000
vt 0.6586 0.5226 1.0000
vt -0.1045 0.5226 1.0000
vt 0.8750 0.2527 1.0000
vt 0.6316 0.5226 1.0000
vt 0.8582 0.5226 1.0000
vt 0.1316 0.5226 1.0000
vt 0.3684 0.5226 1.0000
vt 0.8582 0.2527 1.0000
vt 0.6316 0.2527 1.0000
vt 0.1316 0.2527 1.0000
vt 0.3684 0.2527 1.0000
vt 0.8414 0.2482 1.0000
vt 0.6586 0.2482 1.0000
vt 0.1045 0.2482 1.0000
vt -0.1045 0.2482 1.0000
vt 0.3414 0.2482 1.0000
vt 0.1586 0.2482 1.0000
vt 0.6045 0.2482 1.0000
vt 0.3955 0.2482 1.0000
vt 0.8414 0.5275 1.0000
vt 0.8750 0.5275 1.0000
vt 0.1045 0.5275 1.0000
vt 0.1586 0.5275 1.0000
vt 0.3414 0.5275 1.0000
vt 0.3955 0.5275 1.0000
vt 0.6045 0.5275 1.0000
vt 0.6586 0.5275 1.0000
vt 0.8414 0.2478 1.0000
vt 0.6586 0.2478 1.0000
vt 0.1045 0.2478 1.0000
vt -0.1045 0.2478 1.0000
vt 0.3414 0.2478 1.0000
vt 0.1586 0.2478 1.0000
vt 0.6045 0.2478 1.0000
vt 0.3955 0.2478 1.0000
vt 0.8414 0.5282 1.0000
vt 0.8750 0.5282 1.0000
vt 0.1045 0.5282 1.0000
vt 0.1586 0.5282 1.0000
vt 0.3414 0.5282 1.0000
vt 0.3955 0.5282 1.0000
vt 0.6045 0.5282 1.0000
vt 0.6586 0.5282 1.0000
vt -0.1045 0.5282 1.0000
vt -0.1045 0.5275 1.0000
vt 0.8750 0.2478 1.0000
vt 0.8750 0.2482 1.0000
vt 0.6316 0.5282 1.0000
vt 0.8582 0.5282 1.0000
vt 0.1316 0.5282 1.0000
vt 0.3684 0.5282 1.0000
vt 0.8582 0.5275 1.0000
vt 0.1316 0.5275 1.0000
vt 0.3684 0.5275 1.0000
vt 0.6316 0.5275 1.0000
vt 0.8582 0.2478 1.0000
vt 0.6316 0.2478 1.0000
vt 0.1316 0.2478 1.0000
vt 0.3684 0.2478 1.0000
vt 0.8582 0.2482 1.0000
vt 0.6316 0.2482 1.0000
vt 0.1316 0.2482 1.0000
vt 0.3684 0.2482 1.0000
vt 0.8750 0.5000 1.0000
vt 0.7500 0.5000 1.0000
vt 0.0000 0.5000 1.0000
vt -0.1250 0.5000 1.0000
vt 0.1250 0.5000 1.0000
vt 0.2500 0.5000 1.0000
vt 0.3750 0.5000 1.0000
vt 0.5000 0.5000 1.0000
vt 0.6250 0.5000 1.0000
# 129 texture coords

o JailProp_SteelBarred_N
g JailProp_SteelBarred_N
usemtl Material__65
s 8
f 1/1/1 2/2/2 3/3/2 4/4/3 
f 2/5/2 5/6/4 6/7/5 3/8/2 
f 5/6/4 7/9/6 8/10/6 6/7/5 
f 7/9/6 9/11/7 10/12/7 8/10/6 
f 9/11/7 11/13/8 12/14/8 10/12/7 
f 11/13/8 13/15/9 14/16/9 12/14/8 
f 13/15/9 15/17/10 16/18/10 14/16/9 
f 15/17/10 1/1/1 4/4/3 16/18/10 
f 17/1/3 18/2/11 19/3/11 20/4/3 
f 18/5/11 21/6/12 22/7/5 19/8/11 
f 21/6/12 23/9/6 24/10/6 22/7/5 
f 23/9/6 25/11/13 26/12/14 24/10/6 
f 25/11/13 27/13/15 28/14/8 26/12/14 
f 27/13/15 29/15/16 30/16/9 28/14/8 
f 29/15/16 31/17/17 32/18/17 30/16/9 
f 31/17/17 17/1/3 20/4/3 32/18/17 
f 33/1/18 34/2/11 35/3/11 36/4/18 
f 34/5/11 37/6/19 38/7/5 35/8/11 
f 37/6/19 39/9/6 40/10/6 38/7/5 
f 39/9/6 41/11/20 42/12/21 40/10/6 
f 41/11/20 43/13/22 44/14/22 42/12/21 
f 43/13/22 45/15/23 46/16/16 44/14/22 
f 45/15/23 47/17/10 48/18/10 46/16/16 
f 47/17/10 33/1/18 36/4/18 48/18/10 
f 49/1/24 50/2/11 51/3/11 52/4/24 
f 50/5/11 53/6/25 54/7/4 51/8/11 
f 53/6/25 55/9/26 56/10/26 54/7/4 
f 55/9/26 57/11/20 58/12/27 56/10/26 
f 57/11/20 59/13/22 60/14/22 58/12/27 
f 59/13/22 61/15/9 62/16/9 60/14/22 
f 61/15/9 63/17/10 64/18/10 62/16/9 
f 63/17/10 49/1/24 52/4/24 64/18/10 
f 65/1/1 66/2/11 67/3/11 68/4/3 
f 66/5/11 69/6/28 70/7/25 67/8/11 
f 69/6/28 71/9/26 72/10/26 70/7/25 
f 71/9/26 73/11/14 74/12/14 72/10/26 
f 73/11/14 75/13/8 76/14/8 74/12/14 
f 75/13/8 77/15/9 78/16/9 76/14/8 
f 77/15/9 79/17/17 80/18/17 78/16/9 
f 79/17/17 65/1/1 68/4/3 80/18/17 
f 81/1/3 82/2/11 83/3/11 84/4/3 
f 82/5/11 85/6/25 86/7/25 83/8/11 
f 85/6/25 87/9/6 88/10/6 86/7/25 
f 87/9/6 89/11/27 90/12/27 88/10/6 
f 89/11/27 91/13/8 92/14/29 90/12/27 
f 91/13/8 93/15/9 94/16/30 92/14/29 
f 93/15/9 95/17/17 96/18/17 94/16/30 
f 95/17/17 81/1/3 84/4/3 96/18/17 
f 97/1/18 98/2/11 99/3/11 100/4/18 
f 98/5/11 101/6/5 102/7/5 99/8/11 
f 101/6/5 103/9/31 104/10/6 102/7/5 
f 103/9/31 105/11/32 106/12/21 104/10/6 
f 105/11/32 107/13/8 108/14/8 106/12/21 
f 107/13/8 109/15/9 110/16/9 108/14/8 
f 109/15/9 111/17/10 112/18/10 110/16/9 
f 111/17/10 97/1/18 100/4/18 112/18/10 
f 113/1/18 114/2/11 115/3/11 116/4/18 
f 114/5/11 117/6/5 118/7/25 115/8/11 
f 117/6/5 119/9/26 120/10/26 118/7/25 
f 119/9/26 121/11/32 122/12/14 120/10/26 
f 121/11/32 123/13/33 124/14/8 122/12/14 
f 123/13/33 125/15/16 126/16/30 124/14/8 
f 125/15/16 127/17/17 128/18/34 126/16/30 
f 127/17/17 113/1/18 116/4/18 128/18/34 
f 129/1/3 130/2/11 131/3/11 132/4/1 
f 130/5/11 133/6/25 134/7/5 131/8/11 
f 133/6/25 135/9/26 136/10/26 134/7/5 
f 135/9/26 137/11/14 138/12/14 136/10/26 
f 137/11/14 139/13/8 140/14/8 138/12/14 
f 139/13/8 141/15/23 142/16/9 140/14/8 
f 141/15/23 143/17/10 144/18/10 142/16/9 
f 143/17/10 129/1/3 132/4/1 144/18/10 
f 145/1/35 146/2/2 147/3/36 148/4/18 
f 146/5/2 149/6/25 150/7/5 147/8/36 
f 149/6/25 151/9/26 152/10/26 150/7/5 
f 151/9/26 153/11/14 154/12/14 152/10/26 
f 153/11/14 155/13/8 156/14/8 154/12/14 
f 155/13/8 157/15/9 158/16/23 156/14/8 
f 157/15/9 159/17/10 160/18/10 158/16/23 
f 159/17/10 145/1/35 148/4/18 160/18/10 
f 161/1/18 162/2/11 163/3/11 164/4/18 
f 162/5/11 165/6/25 166/7/5 163/8/11 
f 165/6/25 167/9/26 168/10/26 166/7/5 
f 167/9/26 169/11/32 170/12/7 168/10/26 
f 169/11/32 171/13/8 172/14/8 170/12/7 
f 171/13/8 173/15/23 174/16/23 172/14/8 
f 173/15/23 175/17/10 176/18/10 174/16/23 
f 175/17/10 161/1/18 164/4/18 176/18/10 
f 177/1/3 178/2/11 179/3/11 180/4/3 
f 178/5/11 181/6/25 182/7/25 179/8/11 
f 181/6/25 183/9/26 184/10/6 182/7/25 
f 183/9/26 185/11/32 186/12/14 184/10/6 
f 185/11/32 187/13/8 188/14/8 186/12/14 
f 187/13/8 189/15/23 190/16/23 188/14/8 
f 189/15/23 191/17/10 192/18/10 190/16/23 
f 191/17/10 177/1/3 180/4/3 192/18/10 
f 193/1/18 194/2/11 195/3/37 196/4/38 
f 194/5/11 197/6/5 198/7/5 195/8/37 
f 197/6/5 199/9/26 200/10/26 198/7/5 
f 199/9/26 201/11/14 202/12/32 200/10/26 
f 201/11/14 203/13/8 204/14/8 202/12/32 
f 203/13/8 205/15/9 206/16/23 204/14/8 
f 205/15/9 207/17/17 208/18/17 206/16/23 
f 207/17/17 193/1/18 196/4/38 208/18/17 
f 209/1/3 210/2/11 211/3/11 212/4/3 
f 210/5/11 213/6/25 214/7/5 211/8/11 
f 213/6/25 215/9/26 216/10/26 214/7/5 
f 215/9/26 217/11/14 218/12/7 216/10/26 
f 217/11/14 219/13/8 220/14/8 218/12/7 
f 219/13/8 221/15/9 222/16/9 220/14/8 
f 221/15/9 223/17/17 224/18/17 222/16/9 
f 223/17/17 209/1/3 212/4/3 224/18/17 
f 225/1/18 226/2/2 227/3/2 228/4/24 
f 226/5/2 229/6/5 230/7/25 227/8/2 
f 229/6/5 231/9/6 232/10/6 230/7/25 
f 231/9/6 233/11/32 234/12/14 232/10/6 
f 233/11/32 235/13/8 236/14/8 234/12/14 
f 235/13/8 237/15/23 238/16/9 236/14/8 
f 237/15/23 239/17/10 240/18/10 238/16/9 
f 239/17/10 225/1/18 228/4/24 240/18/10 
f 241/1/24 242/2/11 243/3/11 244/4/18 
f 242/5/11 245/6/25 246/7/25 243/8/11 
f 245/6/25 247/9/26 248/10/26 246/7/25 
f 247/9/26 249/11/32 250/12/14 248/10/26 
f 249/11/32 251/13/8 252/14/15 250/12/14 
f 251/13/8 253/15/9 254/16/9 252/14/15 
f 253/15/9 255/17/17 256/18/17 254/16/9 
f 255/17/17 241/1/24 244/4/18 256/18/17 
f 257/1/18 258/2/37 259/3/11 260/4/1 
f 258/5/37 261/6/25 262/7/5 259/8/11 
f 261/6/25 263/9/26 264/10/26 262/7/5 
f 263/9/26 265/11/14 266/12/14 264/10/26 
f 265/11/14 267/13/8 268/14/29 266/12/14 
f 267/13/8 269/15/16 270/16/30 268/14/29 
f 269/15/16 271/17/10 272/18/10 270/16/30 
f 271/17/10 257/1/18 260/4/1 272/18/10 
f 273/1/3 274/2/11 275/3/11 276/4/3 
f 274/5/11 277/6/5 278/7/5 275/8/11 
f 277/6/5 279/9/26 280/10/26 278/7/5 
f 279/9/26 281/11/14 282/12/7 280/10/26 
f 281/11/14 283/13/8 284/14/8 282/12/7 
f 283/13/8 285/15/23 286/16/23 284/14/8 
f 285/15/23 287/17/10 288/18/39 286/16/23 
f 287/17/10 273/1/3 276/4/3 288/18/39 
f 289/1/18 290/2/2 291/3/2 292/4/18 
f 290/5/2 293/6/12 294/7/28 291/8/2 
f 293/6/12 295/9/26 296/10/26 294/7/28 
f 295/9/26 297/11/27 298/12/27 296/10/26 
f 297/11/27 299/13/8 300/14/8 298/12/27 
f 299/13/8 301/15/9 302/16/40 300/14/8 
f 301/15/9 303/17/10 304/18/10 302/16/40 
f 303/17/10 289/1/18 292/4/18 304/18/10 
s 1
f 305/19/41 306/20/42 307/21/43 308/22/44 
f 309/23/45 310/24/46 311/25/46 312/26/45 
f 313/27/47 314/28/48 315/29/48 316/30/49 
f 317/31/50 318/32/51 319/33/51 320/34/52 
s 2
f 306/20/42 305/19/41 309/2/45 312/3/45 
f 311/25/46 310/24/46 313/27/47 316/30/49 
f 315/29/48 314/28/48 317/31/50 320/34/52 
f 319/33/51 318/32/51 308/22/44 307/21/43 
s 1
f 321/9/6 322/13/8 323/14/8 324/10/6 
s 2
f 322/13/8 325/35/10 326/36/10 323/14/8 
s 1
f 327/2/2 328/3/2 329/18/10 330/17/10 
s 2
f 327/5/2 331/37/6 332/38/6 328/8/2 
f 333/39/2 321/9/6 324/10/6 334/40/2 
f 335/41/8 330/17/10 329/18/10 336/42/8 
s off
f 335/41/8 336/42/8 332/38/6 331/37/6 
f 333/39/2 334/40/2 326/36/10 325/35/10 
s 1
f 337/19/41 338/43/53 339/44/54 340/22/44 
f 341/23/45 342/24/46 343/45/55 344/46/56 
f 345/27/47 346/28/48 347/47/57 348/48/58 
f 349/31/50 350/32/51 351/49/59 352/50/60 
s 2
f 353/20/61 354/51/62 355/52/63 356/3/64 
f 357/25/65 358/53/66 359/54/67 360/30/68 
f 361/29/69 362/55/70 363/56/71 364/34/52 
f 365/33/51 366/57/72 367/58/73 368/21/44 
s 1
f 354/51/62 353/20/61 368/21/44 367/58/73 
f 358/53/66 357/25/65 356/26/64 355/59/63 
f 362/55/70 361/29/69 360/30/68 359/54/67 
f 366/57/72 365/33/51 364/34/52 363/56/71 
s 2
f 338/43/53 337/19/41 341/2/45 344/60/56 
f 343/45/55 342/24/46 345/27/47 348/48/58 
f 347/47/57 346/28/48 349/31/50 352/50/60 
f 351/49/59 350/32/51 340/22/44 339/44/54 
s off
f 354/51/62 367/58/73 369/61/74 370/62/75 
f 358/53/66 355/59/63 370/59/75 371/63/76 
f 362/55/70 359/54/67 371/63/76 372/64/77 
f 366/57/72 363/56/71 372/64/77 369/61/74 
f 355/52/63 354/51/62 370/62/75 
f 359/54/67 358/53/66 371/63/76 
f 363/56/71 362/55/70 372/64/77 
f 367/58/73 366/57/72 369/61/74 
f 339/44/54 338/43/53 373/65/78 374/66/79 
f 344/46/56 343/45/55 375/67/80 373/46/78 
f 348/48/58 347/47/57 376/68/81 375/67/80 
f 352/50/60 351/49/59 374/66/79 376/68/81 
f 338/43/53 344/60/56 373/65/78 
f 343/45/55 348/48/58 375/67/80 
f 347/47/57 352/50/60 376/68/81 
f 351/49/59 339/44/54 374/66/79 
s 4
f 369/61/74 372/64/77 371/63/76 370/59/75 
s 16
f 373/65/78 375/67/80 376/68/81 374/66/79 
s 1
f 377/19/41 378/20/42 379/21/44 380/22/44 
f 381/23/45 382/24/46 383/25/46 384/26/45 
f 385/27/47 386/28/48 387/29/48 388/30/49 
f 389/31/50 390/32/82 391/33/51 392/34/50 
s 2
f 378/20/42 377/19/41 381/2/45 384/3/45 
f 383/25/46 382/24/46 385/27/47 388/30/49 
f 387/29/48 386/28/48 389/31/50 392/34/50 
f 391/33/51 390/32/82 380/22/44 379/21/44 
s 1
f 393/19/41 394/69/83 395/70/84 396/22/44 
f 397/23/45 398/24/46 399/71/85 400/72/86 
f 401/27/47 402/28/48 403/73/87 404/74/88 
f 405/31/50 406/32/51 407/75/89 408/76/90 
s 2
f 409/20/42 410/77/91 411/78/92 412/3/45 
f 413/25/46 414/79/93 415/80/94 416/30/49 
f 417/29/48 418/81/95 419/82/96 420/34/97 
f 421/33/98 422/83/99 423/84/100 424/21/101 
s 1
f 425/19/41 426/85/102 427/86/103 428/22/44 
f 429/23/45 430/24/46 431/87/104 432/88/105 
f 433/27/47 434/28/106 435/89/107 436/90/108 
f 437/31/50 438/32/51 439/91/109 440/92/110 
s 2
f 441/20/42 442/93/111 443/94/112 444/3/45 
f 445/25/46 446/95/113 447/96/114 448/30/49 
f 449/29/106 450/97/115 451/98/116 452/34/50 
f 453/33/51 454/99/117 455/100/118 456/21/43 
s 1
f 442/93/111 441/20/42 456/21/43 455/100/118 
f 446/95/113 445/25/46 444/26/45 443/101/112 
f 450/97/115 449/29/106 448/30/49 447/96/114 
f 454/99/117 453/33/51 452/34/50 451/98/116 
f 410/77/91 409/20/42 424/21/101 423/84/100 
f 414/79/93 413/25/46 412/26/45 411/102/92 
f 418/81/95 417/29/48 416/30/49 415/80/94 
f 422/83/99 421/33/98 420/34/97 419/82/96 
s 2
f 426/85/102 425/19/41 429/2/45 432/103/105 
f 431/87/104 430/24/46 433/27/47 436/90/108 
f 435/89/107 434/28/106 437/31/50 440/92/110 
f 439/91/109 438/32/51 428/22/44 427/86/103 
f 394/69/83 393/19/41 397/2/45 400/104/86 
f 399/71/85 398/24/46 401/27/47 404/74/88 
f 403/73/87 402/28/48 405/31/50 408/76/90 
f 407/75/89 406/32/51 396/22/44 395/70/84 
s off
f 442/93/111 455/100/118 457/105/119 458/106/120 
f 446/95/113 443/101/112 458/101/120 459/107/121 
f 450/97/115 447/96/114 459/107/121 460/108/122 
f 454/99/117 451/98/116 460/108/122 457/105/119 
f 443/94/112 442/93/111 458/106/120 
f 447/96/114 446/95/113 459/107/121 
f 451/98/116 450/97/115 460/108/122 
f 455/100/118 454/99/117 457/105/119 
f 411/78/92 410/77/91 461/109/123 
f 415/80/94 414/79/93 462/110/124 
f 419/82/96 418/81/95 463/111/125 
f 423/84/100 422/83/99 464/112/126 
f 410/77/91 423/84/100 464/112/126 461/109/123 
f 414/79/93 411/102/92 461/102/123 462/110/124 
f 418/81/95 415/80/94 462/110/124 463/111/125 
f 422/83/99 419/82/96 463/111/125 464/112/126 
f 427/86/103 426/85/102 465/113/127 466/114/128 
f 432/88/105 431/87/104 467/115/129 465/88/127 
f 436/90/108 435/89/107 468/116/130 467/115/129 
f 440/92/110 439/91/109 466/114/128 468/116/130 
f 426/85/102 432/103/105 465/113/127 
f 431/87/104 436/90/108 467/115/129 
f 435/89/107 440/92/110 468/116/130 
f 439/91/109 427/86/103 466/114/128 
f 395/70/84 394/69/83 469/117/131 470/118/132 
f 400/72/86 399/71/85 471/119/133 469/72/131 
f 404/74/88 403/73/87 472/120/134 471/119/133 
f 408/76/90 407/75/89 470/118/132 472/120/134 
f 394/69/83 400/104/86 469/117/131 
f 399/71/85 404/74/88 471/119/133 
f 403/73/87 408/76/90 472/120/134 
f 407/75/89 395/70/84 470/118/132 
s 32
f 457/105/119 460/108/122 459/107/121 458/101/120 
f 464/112/126 463/111/125 462/110/124 461/102/123 
f 465/113/127 467/115/129 468/116/130 466/114/128 
f 469/117/131 471/119/133 472/120/134 470/118/132 
s 8
f 473/121/2 474/3/2 475/4/38 476/122/18 
f 477/123/25 478/7/25 474/8/2 473/124/2 
f 479/125/26 480/10/26 478/7/25 477/123/25 
f 481/126/13 482/12/14 480/10/26 479/125/26 
f 483/127/8 484/14/8 482/12/14 481/126/13 
f 485/128/9 486/16/23 484/14/8 483/127/8 
f 487/129/10 488/18/10 486/16/23 485/128/9 
f 476/122/18 475/4/38 488/18/10 487/129/10 
f 489/121/2 490/3/2 491/4/3 492/122/3 
f 493/123/28 494/7/12 490/8/2 489/124/2 
f 495/125/6 496/10/6 494/7/12 493/123/28 
f 497/126/27 498/12/21 496/10/6 495/125/6 
f 499/127/8 500/14/8 498/12/21 497/126/27 
f 501/128/23 502/16/9 500/14/8 499/127/8 
f 503/129/10 504/18/10 502/16/9 501/128/23 
f 492/122/3 491/4/3 504/18/10 503/129/10 
f 505/121/11 506/3/11 507/4/1 508/122/1 
f 509/123/25 510/7/25 506/8/11 505/124/11 
f 511/125/26 512/10/26 510/7/25 509/123/25 
f 513/126/32 514/12/32 512/10/26 511/125/26 
f 515/127/8 516/14/8 514/12/32 513/126/32 
f 517/128/9 518/16/23 516/14/8 515/127/8 
f 519/129/10 520/18/10 518/16/23 517/128/9 
f 508/122/1 507/4/1 520/18/10 519/129/10 
f 521/121/11 522/3/11 523/4/24 524/122/24 
f 525/123/25 526/7/5 522/8/11 521/124/11 
f 527/125/26 528/10/26 526/7/5 525/123/25 
f 529/126/32 530/12/14 528/10/26 527/125/26 
f 531/127/8 532/14/8 530/12/14 529/126/32 
f 533/128/9 534/16/23 532/14/8 531/127/8 
f 535/129/10 536/18/10 534/16/23 533/128/9 
f 524/122/24 523/4/24 536/18/10 535/129/10 
f 537/121/11 538/3/11 539/4/3 540/122/1 
f 541/123/25 542/7/5 538/8/11 537/124/11 
f 543/125/26 544/10/26 542/7/5 541/123/25 
f 545/126/14 546/12/14 544/10/26 543/125/26 
f 547/127/8 548/14/8 546/12/14 545/126/14 
f 549/128/9 550/16/9 548/14/8 547/127/8 
f 551/129/10 552/18/39 550/16/9 549/128/9 
f 540/122/1 539/4/3 552/18/39 551/129/10 
# 294 polygons - 24 triangles

