# 3ds Max Wavefront OBJ Exporter v0.99 - (c)2007 guruware
# File Created: 31.12.2025 20:55:22

mtllib JailProp_RightWall_N.mtl

#
# object JailProp_RightWall_N
#

v  -3.5062 0.1417 -4.5150
v  -3.7891 -0.8920 -4.5150
v  -3.7891 3.6398 -4.5150
v  -3.5062 3.2758 -4.5150
v  -3.5322 0.1158 2.2985
v  -3.7631 -0.8660 4.5150
v  -3.7631 3.6139 4.5150
v  -3.5322 3.3018 2.2985
# 8 vertices

vn 0.7293 -0.0977 -0.6771
vn 0.9505 -0.2601 -0.1699
vn 0.7275 0.5653 -0.3889
vn 0.7271 0.2485 -0.6400
vn 0.9946 -0.0973 0.0353
vn 0.9951 -0.0638 0.0754
vn 0.9933 0.0672 0.0940
vn 0.9546 0.2961 0.0313
# 8 vertex normals

vt 1.3711 0.1519 0.0000
vt 1.3295 -0.0000 0.0000
vt 1.3295 0.6660 0.0000
vt 1.3711 0.6125 0.0000
vt 0.0000 1.3239 0.0000
vt 0.0001 1.4814 0.0000
vt 1.0016 1.4762 0.0000
vt 1.3273 1.3278 0.0000
vt 0.1526 1.4822 0.0000
vt 0.1526 1.5500 0.0000
vt 1.4798 1.5438 0.0000
vt 1.1540 1.4870 0.0000
vt 0.3275 0.6648 0.0000
vt 0.0000 0.8091 0.0000
vt 0.0000 1.2773 0.0000
vt 0.3275 1.3232 0.0000
vt 0.0000 0.0038 0.0000
vt 0.0000 0.4638 0.0000
vt 1.0000 0.4676 0.0000
vt 1.0000 -0.0000 0.0000
# 20 texture coords

o JailProp_RightWall_N
g JailProp_RightWall_N
usemtl JailProp_LeftWall_N
s 1
f 1/1/1 2/2/2 3/3/3 4/4/4 
s off
f 2/5/2 1/6/1 5/7/5 6/8/6 
f 4/9/4 3/10/3 7/11/7 8/12/8 
f 6/13/6 5/14/5 8/15/8 7/16/7 
f 1/17/1 4/18/4 8/19/8 5/20/5 
# 5 polygons

