# 3ds Max Wavefront OBJ Exporter v0.99 - (c)2007 guruware
# File Created: 30.12.2025 18:41:55

mtllib JailProp_Base01.mtl

#
# object JailProp_Chair01
#

v  1.8644 0.1715 -1.9164
v  1.9532 0.1715 -2.0288
v  1.6162 0.1715 -2.0288
v  1.7048 0.1715 -1.9164
v  1.6162 0.1715 -1.7751
v  1.7050 0.1715 -1.7751
v  1.8645 0.1715 -1.7751
v  1.9530 0.1715 -1.7751
v  1.9687 0.1678 -2.0477
v  1.6007 0.1678 -2.0477
v  1.6007 0.1678 -1.7751
v  1.9685 0.1678 -1.7751
v  1.9738 0.1242 -2.0522
v  1.5956 0.1242 -2.0522
v  1.5956 0.1242 -1.7751
v  1.9736 0.1242 -1.7751
v  1.7081 0.5053 -1.9106
v  1.8611 0.5053 -1.9106
v  1.7082 0.5053 -1.7751
v  1.8612 0.5053 -1.7751
v  1.6666 0.5111 -1.9945
v  1.9031 0.5111 -1.9968
v  1.6668 0.5111 -1.7751
v  1.9033 0.5111 -1.7751
v  1.6737 0.5034 -1.9988
v  1.9031 0.5034 -1.9988
v  1.6668 0.5587 -1.7751
v  1.6666 0.5587 -1.9945
v  1.9031 0.5587 -1.9945
v  1.9033 0.5587 -1.7751
v  1.6737 0.5034 -2.0619
v  1.9031 0.5034 -2.0619
v  1.9372 0.5111 -1.9968
v  1.9372 0.5587 -1.9968
v  1.9452 0.5587 -2.0025
v  1.9452 0.5111 -2.0025
v  1.9452 0.5111 -2.0607
v  1.9452 0.5587 -2.0607
v  1.9372 0.5034 -1.9988
v  1.9372 0.5034 -2.0619
v  1.8947 0.5631 -1.9945
v  1.8949 0.5631 -1.7751
v  1.6709 0.5631 -1.9945
v  1.6711 0.5631 -1.7751
v  1.9031 0.5111 -2.0708
v  1.6737 0.5111 -2.0708
v  1.6737 0.5593 -2.0708
v  1.9031 0.5593 -2.0708
v  1.9372 0.5111 -2.0708
v  1.9372 0.5593 -2.0708
v  1.8947 0.5729 -2.0013
v  1.6739 0.5729 -2.0013
v  1.8947 0.5729 -2.0618
v  1.6739 0.5729 -2.0618
v  1.9394 0.5729 -2.0013
v  1.9394 0.5729 -2.0618
v  1.3910 1.1254 -2.0055
v  1.3910 1.1254 -2.0584
v  1.3392 1.1233 -2.0584
v  1.3392 1.1233 -2.0055
v  1.3394 1.1128 -1.9950
v  1.3497 0.9978 -1.9950
v  1.4024 1.0015 -1.9950
v  1.3923 1.1150 -1.9950
v  1.3296 1.1122 -2.0589
v  1.3398 0.9965 -2.0589
v  1.3398 0.9965 -2.0049
v  1.3296 1.1122 -2.0049
v  1.3923 1.1150 -2.0689
v  1.4024 1.0015 -2.0689
v  1.3497 0.9978 -2.0689
v  1.3394 1.1128 -2.0689
v  1.4022 1.1155 -2.0049
v  1.4122 1.0028 -2.0049
v  1.4122 1.0028 -2.0589
v  1.4022 1.1155 -2.0589
v  1.4230 0.8813 -1.9950
v  1.3703 0.8762 -1.9950
v  1.4083 0.7581 -1.9950
v  1.4618 0.7586 -1.9950
v  1.3607 0.8738 -2.0049
v  1.3607 0.8738 -2.0589
v  1.3991 0.7543 -2.0589
v  1.3991 0.7543 -2.0049
v  1.3703 0.8762 -2.0689
v  1.4230 0.8813 -2.0689
v  1.4618 0.7586 -2.0689
v  1.4083 0.7581 -2.0689
v  1.4327 0.8836 -2.0589
v  1.4327 0.8836 -2.0049
v  1.4710 0.7623 -2.0049
v  1.4710 0.7623 -2.0589
v  1.4734 0.6275 -1.9950
v  1.5224 0.6360 -1.9950
v  1.4650 0.6223 -2.0589
v  1.4650 0.6223 -2.0049
v  1.5224 0.6360 -2.0689
v  1.4734 0.6275 -2.0689
v  1.5309 0.6412 -2.0049
v  1.5309 0.6412 -2.0589
v  1.5376 0.5404 -1.9950
v  1.5667 0.5763 -1.9950
v  1.5311 0.5327 -2.0589
v  1.5311 0.5327 -2.0050
v  1.5667 0.5763 -2.0689
v  1.5376 0.5404 -2.0688
v  1.5731 0.5845 -2.0049
v  1.5731 0.5845 -2.0590
v  1.6235 0.5739 -2.0604
v  1.6235 0.5739 -2.0031
v  1.6196 0.5114 -2.0698
v  1.6196 0.5623 -2.0699
v  1.6196 0.5034 -2.0019
v  1.6196 0.5034 -2.0604
v  1.6196 0.5114 -1.9948
v  1.6196 0.5642 -1.9947
v  1.8644 0.1715 -1.6338
v  1.7048 0.1715 -1.6338
v  1.6162 0.1715 -1.5214
v  1.9532 0.1715 -1.5214
v  1.6007 0.1678 -1.5024
v  1.9687 0.1678 -1.5024
v  1.5956 0.1242 -1.4979
v  1.9738 0.1242 -1.4979
v  1.8611 0.5053 -1.6395
v  1.7081 0.5053 -1.6395
v  1.9031 0.5111 -1.5534
v  1.6666 0.5111 -1.5557
v  1.9031 0.5034 -1.5513
v  1.6737 0.5034 -1.5513
v  1.6666 0.5587 -1.5557
v  1.9031 0.5587 -1.5557
v  1.9031 0.5034 -1.4882
v  1.6737 0.5034 -1.4882
v  1.9372 0.5587 -1.5534
v  1.9372 0.5111 -1.5534
v  1.9452 0.5587 -1.5476
v  1.9452 0.5587 -1.4894
v  1.9452 0.5111 -1.4894
v  1.9452 0.5111 -1.5476
v  1.9372 0.5034 -1.5513
v  1.9372 0.5034 -1.4882
v  1.8947 0.5631 -1.5557
v  1.6709 0.5631 -1.5557
v  1.9031 0.5111 -1.4793
v  1.9031 0.5593 -1.4793
v  1.6737 0.5593 -1.4793
v  1.6737 0.5111 -1.4793
v  1.9372 0.5111 -1.4793
v  1.9372 0.5593 -1.4793
v  1.6739 0.5729 -1.5488
v  1.8947 0.5729 -1.5488
v  1.6739 0.5729 -1.4883
v  1.8947 0.5729 -1.4883
v  1.9394 0.5729 -1.4883
v  1.9394 0.5729 -1.5488
v  1.3910 1.1254 -1.5447
v  1.3392 1.1233 -1.5447
v  1.3392 1.1233 -1.4918
v  1.3910 1.1254 -1.4918
v  1.3394 1.1128 -1.5551
v  1.3923 1.1150 -1.5551
v  1.4024 1.0015 -1.5551
v  1.3497 0.9978 -1.5551
v  1.3296 1.1122 -1.4912
v  1.3296 1.1122 -1.5452
v  1.3398 0.9965 -1.5452
v  1.3398 0.9965 -1.4912
v  1.3923 1.1150 -1.4813
v  1.3394 1.1128 -1.4813
v  1.3497 0.9978 -1.4813
v  1.4024 1.0015 -1.4813
v  1.4022 1.1155 -1.5452
v  1.4022 1.1155 -1.4912
v  1.4122 1.0028 -1.4912
v  1.4122 1.0028 -1.5452
v  1.4230 0.8813 -1.5551
v  1.4618 0.7586 -1.5551
v  1.4083 0.7581 -1.5551
v  1.3703 0.8762 -1.5551
v  1.3607 0.8738 -1.5452
v  1.3991 0.7543 -1.5452
v  1.3991 0.7543 -1.4912
v  1.3607 0.8738 -1.4912
v  1.3703 0.8762 -1.4813
v  1.4083 0.7581 -1.4813
v  1.4618 0.7586 -1.4813
v  1.4230 0.8813 -1.4813
v  1.4327 0.8836 -1.4912
v  1.4710 0.7623 -1.4912
v  1.4710 0.7623 -1.5452
v  1.4327 0.8836 -1.5452
v  1.5224 0.6360 -1.5551
v  1.4734 0.6275 -1.5551
v  1.4650 0.6223 -1.5452
v  1.4650 0.6223 -1.4912
v  1.4734 0.6275 -1.4813
v  1.5224 0.6360 -1.4813
v  1.5309 0.6412 -1.4912
v  1.5309 0.6412 -1.5452
v  1.5667 0.5763 -1.5551
v  1.5376 0.5404 -1.5551
v  1.5311 0.5327 -1.5452
v  1.5311 0.5327 -1.4912
v  1.5376 0.5404 -1.4813
v  1.5667 0.5763 -1.4813
v  1.5731 0.5845 -1.4912
v  1.5731 0.5845 -1.5452
v  1.6235 0.5739 -1.5470
v  1.6235 0.5739 -1.4898
v  1.6196 0.5623 -1.4803
v  1.6196 0.5114 -1.4803
v  1.6196 0.5034 -1.4897
v  1.6196 0.5034 -1.5483
v  1.6196 0.5642 -1.5554
v  1.6196 0.5114 -1.5554
v  1.9486 0.5999 -1.5985
v  1.7976 0.5999 -1.5746
v  1.7976 0.6006 -1.5150
v  1.9832 0.6006 -1.5149
v  1.9486 0.5999 -1.9516
v  1.9690 0.5999 -1.7751
v  2.0203 0.6006 -1.7751
v  2.0203 0.6006 -1.9918
v  1.6467 0.5999 -1.9516
v  1.7976 0.5999 -1.9755
v  1.7976 0.6006 -2.0352
v  1.6120 0.6006 -2.0352
v  1.6467 0.5999 -1.5985
v  1.6262 0.5999 -1.7751
v  1.5749 0.6006 -1.7751
v  1.5749 0.6006 -1.5583
v  1.6120 0.6006 -1.5149
v  2.0203 0.6006 -1.5583
v  1.9832 0.6006 -2.0352
v  1.5749 0.6006 -1.9918
v  1.7976 0.5904 -1.7751
v  1.7976 0.5924 -1.5008
v  1.6075 0.5924 -1.5011
v  1.6075 0.5664 -1.5011
v  1.7976 0.5664 -1.5008
v  2.0319 0.5924 -1.7751
v  2.0316 0.5924 -1.5525
v  2.0316 0.5664 -1.5525
v  2.0319 0.5664 -1.7751
v  1.7976 0.5924 -2.0494
v  1.9877 0.5924 -2.0490
v  1.9877 0.5664 -2.0490
v  1.7976 0.5664 -2.0494
v  1.5633 0.5924 -1.7751
v  1.5636 0.5924 -1.9977
v  1.5636 0.5664 -1.9977
v  1.5633 0.5664 -1.7751
v  1.9877 0.5924 -1.5011
v  1.9877 0.5664 -1.5011
v  2.0316 0.5924 -1.9977
v  2.0316 0.5664 -1.9977
v  1.6075 0.5924 -2.0490
v  1.6075 0.5664 -2.0490
v  1.5636 0.5924 -1.5525
v  1.5636 0.5664 -1.5525
v  1.9830 0.5589 -1.5155
v  1.7976 0.5589 -1.5155
v  1.7976 0.5589 -1.7751
v  2.0199 0.5589 -1.9916
v  2.0199 0.5589 -1.7751
v  1.6122 0.5589 -2.0347
v  1.7976 0.5589 -2.0346
v  1.5753 0.5589 -1.5586
v  1.5754 0.5589 -1.7751
v  1.6122 0.5589 -1.5155
v  2.0199 0.5589 -1.5586
v  1.9830 0.5589 -2.0347
v  1.5753 0.5589 -1.9916
v  1.4619 0.8836 -1.4776
v  1.4969 0.7725 -1.4777
v  1.4971 0.7725 -1.7751
v  1.4621 0.8836 -1.7751
v  1.4415 1.0028 -1.4777
v  1.4417 1.0028 -1.7751
v  1.4319 1.1118 -1.7751
v  1.4317 1.1117 -1.4778
v  1.4619 0.8836 -2.0725
v  1.4969 0.7725 -2.0725
v  1.4415 1.0028 -2.0725
v  1.4317 1.1117 -2.0724
v  1.4298 1.0016 -1.4565
v  1.4199 1.1117 -1.4566
v  1.3954 1.1115 -1.4566
v  1.4047 1.0031 -1.4565
v  1.4847 0.7720 -1.4566
v  1.4504 0.8814 -1.4565
v  1.4252 0.8842 -1.4566
v  1.4609 0.7715 -1.4566
v  1.4897 0.7567 -1.7751
v  1.4894 0.7568 -1.4770
v  1.4640 0.7566 -1.4771
v  1.4637 0.7564 -1.7751
v  1.4193 1.1267 -1.4771
v  1.4196 1.1268 -1.7751
v  1.3935 1.1267 -1.7751
v  1.3938 1.1266 -1.4771
v  1.4504 0.8814 -2.0937
v  1.4847 0.7720 -2.0936
v  1.4609 0.7715 -2.0935
v  1.4252 0.8842 -2.0936
v  1.4894 0.7568 -2.0731
v  1.4640 0.7566 -2.0731
v  1.4298 1.0016 -2.0936
v  1.4047 1.0031 -2.0936
v  1.4193 1.1267 -2.0731
v  1.3938 1.1266 -2.0731
v  1.4199 1.1117 -2.0935
v  1.3954 1.1115 -2.0935
v  1.3835 1.1112 -2.0724
v  1.3931 1.0019 -2.0725
v  1.3929 1.0019 -1.7751
v  1.3833 1.1112 -1.7751
v  1.4137 0.8820 -2.0725
v  1.4135 0.8820 -1.7751
v  1.4490 0.7706 -2.0724
v  1.4488 0.7706 -1.7751
v  1.3931 1.0019 -1.4777
v  1.3835 1.1112 -1.4777
v  1.4137 0.8820 -1.4777
v  1.4490 0.7706 -1.4777
# 326 vertices

vn 0.2965 0.9073 -0.2982
vn 0.0912 0.9934 -0.0689
vn -0.0911 0.9934 -0.0690
vn -0.2965 0.9075 -0.2976
vn -0.1163 0.9932 -0.0000
vn -0.7039 0.7103 -0.0000
vn 0.7035 0.7107 -0.0000
vn 0.1163 0.9932 -0.0000
vn 0.5641 0.5961 -0.5713
vn -0.5639 0.5961 -0.5716
vn -0.7470 0.6648 -0.0000
vn 0.7469 0.6649 0.0000
vn 0.7016 0.1548 -0.6956
vn -0.7013 0.1547 -0.6959
vn -0.9932 0.1167 -0.0000
vn 0.9932 0.1166 -0.0000
vn -0.3683 -0.8718 -0.3231
vn 0.3675 -0.8721 -0.3231
vn -0.7577 -0.6526 -0.0000
vn 0.7567 -0.6537 -0.0000
vn -0.3007 -0.5686 0.7657
vn 0.2965 -0.4531 0.8407
vn -0.7542 -0.6566 0.0000
vn 0.7538 -0.6571 -0.0000
vn -0.0085 -0.8629 0.5054
vn 0.0000 -0.7926 0.6097
vn -0.9283 0.3719 0.0000
vn -0.5575 0.2244 0.7993
vn 0.5073 0.3155 0.8019
vn 0.8577 0.5142 -0.0000
vn -0.0054 -0.9358 -0.3525
vn 0.0000 -0.9368 -0.3498
vn 0.2969 -0.1211 0.9472
vn 0.3217 0.1195 0.9393
vn 0.8912 0.1553 0.4262
vn 0.8690 -0.3117 0.3843
vn 0.8931 -0.3471 -0.2861
vn 0.9380 0.1663 -0.3042
vn 0.3484 -0.7515 0.5602
vn 0.3484 -0.8812 -0.3194
vn 0.1623 0.8400 0.5177
vn 0.2428 0.9701 -0.0000
vn -0.1971 0.7814 0.5921
vn -0.3933 0.9194 -0.0000
vn 0.0000 -0.4150 -0.9098
vn -0.0095 -0.4147 -0.9099
vn -0.0010 0.2838 -0.9589
vn -0.0000 0.2890 -0.9573
vn 0.3849 -0.3629 -0.8486
vn 0.3932 0.2389 -0.8879
vn 0.0000 0.8881 0.4597
vn 0.0015 0.8857 0.4642
vn 0.0000 0.8813 -0.4726
vn 0.0021 0.8788 -0.4772
vn 0.4744 0.7202 0.5063
vn 0.4938 0.7666 -0.4103
vn 0.2901 0.8959 0.3365
vn 0.2901 0.8959 -0.3365
vn -0.3835 0.8593 -0.3383
vn -0.3835 0.8593 0.3383
vn -0.3639 0.3185 0.8753
vn -0.3879 -0.0501 0.9203
vn 0.3705 0.0482 0.9276
vn 0.3215 0.3676 0.8727
vn -0.8971 0.2768 -0.3443
vn -0.9177 -0.1185 -0.3791
vn -0.9177 -0.1185 0.3791
vn -0.8971 0.2768 0.3443
vn 0.3215 0.3676 -0.8727
vn 0.3705 0.0482 -0.9276
vn -0.3879 -0.0501 -0.9203
vn -0.3639 0.3185 -0.8753
vn 0.8453 0.4093 0.3434
vn 0.9145 0.1190 0.3867
vn 0.9145 0.1190 -0.3867
vn 0.8453 0.4093 -0.3434
vn 0.3570 0.0866 0.9301
vn -0.3861 -0.0943 0.9176
vn -0.3689 -0.1503 0.9172
vn 0.3389 0.1364 0.9309
vn -0.8999 -0.2198 0.3766
vn -0.8999 -0.2198 -0.3766
vn -0.8580 -0.3497 -0.3762
vn -0.8580 -0.3497 0.3762
vn -0.3861 -0.0943 -0.9176
vn 0.3570 0.0866 -0.9301
vn 0.3389 0.1364 -0.9309
vn -0.3689 -0.1503 -0.9172
vn 0.8950 0.2172 -0.3897
vn 0.8950 0.2172 0.3897
vn 0.8540 0.3437 0.3906
vn 0.8540 0.3437 -0.3906
vn -0.3415 -0.2090 0.9164
vn 0.3090 0.1891 0.9321
vn -0.7904 -0.4840 -0.3755
vn -0.7904 -0.4840 0.3755
vn 0.3090 0.1891 -0.9321
vn -0.3415 -0.2090 -0.9164
vn 0.7844 0.4805 0.3921
vn 0.7844 0.4805 -0.3921
vn -0.2580 -0.3534 0.8992
vn 0.1624 0.2477 0.9551
vn -0.5517 -0.7520 -0.3606
vn -0.5540 -0.7511 0.3591
vn 0.1628 0.2530 -0.9537
vn -0.2610 -0.3515 -0.8991
vn 0.4739 0.7721 0.4234
vn 0.4751 0.7709 -0.4243
vn 0.0852 0.8920 -0.4440
vn 0.0822 0.8989 0.4303
vn -0.0982 -0.4520 -0.8866
vn 0.0330 0.3046 -0.9519
vn -0.1593 -0.9086 0.3861
vn -0.1537 -0.9317 -0.3290
vn -0.0783 -0.3874 0.9186
vn 0.0380 0.3172 0.9476
vn 0.2965 0.9073 0.2982
vn -0.2965 0.9075 0.2976
vn -0.0911 0.9934 0.0690
vn 0.0912 0.9934 0.0689
vn -0.5639 0.5961 0.5716
vn 0.5641 0.5961 0.5713
vn -0.7013 0.1547 0.6959
vn 0.7016 0.1548 0.6956
vn 0.3675 -0.8721 0.3231
vn -0.3683 -0.8718 0.3231
vn 0.2965 -0.4531 -0.8407
vn -0.3007 -0.5686 -0.7657
vn 0.0000 -0.7926 -0.6097
vn -0.0085 -0.8629 -0.5054
vn -0.5575 0.2244 -0.7993
vn 0.5073 0.3155 -0.8019
vn 0.0000 -0.9368 0.3498
vn -0.0054 -0.9358 0.3525
vn 0.3217 0.1195 -0.9393
vn 0.2969 -0.1211 -0.9472
vn 0.8912 0.1553 -0.4262
vn 0.9380 0.1663 0.3042
vn 0.8931 -0.3471 0.2861
vn 0.8690 -0.3117 -0.3843
vn 0.3484 -0.7515 -0.5602
vn 0.3484 -0.8812 0.3194
vn 0.1623 0.8400 -0.5177
vn -0.1971 0.7814 -0.5921
vn 0.0000 -0.4150 0.9098
vn -0.0000 0.2890 0.9573
vn -0.0010 0.2838 0.9589
vn -0.0095 -0.4147 0.9099
vn 0.3849 -0.3629 0.8486
vn 0.3932 0.2389 0.8879
vn 0.0015 0.8857 -0.4642
vn 0.0000 0.8881 -0.4597
vn 0.0021 0.8788 0.4772
vn 0.0000 0.8813 0.4726
vn 0.4938 0.7666 0.4103
vn 0.4744 0.7202 -0.5063
vn 0.1624 0.2477 -0.9551
vn -0.2580 -0.3534 -0.8992
vn -0.5540 -0.7511 -0.3591
vn -0.5517 -0.7520 0.3606
vn -0.2610 -0.3515 0.8991
vn 0.1628 0.2530 0.9537
vn 0.4751 0.7709 0.4243
vn 0.4739 0.7721 -0.4234
vn 0.0822 0.8989 -0.4303
vn 0.0852 0.8920 0.4440
vn 0.0330 0.3046 0.9519
vn -0.0982 -0.4520 0.8866
vn -0.1537 -0.9317 0.3290
vn -0.1593 -0.9086 -0.3861
vn 0.0380 0.3172 -0.9476
vn -0.0783 -0.3874 -0.9186
vn -0.0121 0.9999 -0.0115
vn -0.0000 0.9996 -0.0277
vn 0.0000 0.9675 0.2530
vn 0.1444 0.9484 0.2823
vn -0.0121 0.9999 0.0115
vn -0.0329 0.9995 0.0000
vn 0.2957 0.9553 0.0000
vn 0.3216 0.9408 -0.1068
vn 0.0121 0.9999 0.0115
vn -0.0000 0.9996 0.0277
vn 0.0000 0.9675 -0.2530
vn -0.1444 0.9484 -0.2823
vn 0.0121 0.9999 -0.0115
vn 0.0329 0.9995 0.0000
vn -0.2957 0.9553 -0.0000
vn -0.3216 0.9408 0.1068
vn -0.1444 0.9484 0.2823
vn 0.3216 0.9408 0.1068
vn 0.1444 0.9484 -0.2823
vn -0.3216 0.9408 -0.1068
vn -0.0000 1.0000 -0.0000
vn -0.0000 0.4999 0.8661
vn -0.3694 0.4528 0.8115
vn -0.3656 -0.4716 0.8024
vn -0.0000 -0.5224 0.8527
vn 0.8879 0.4601 0.0000
vn 0.8412 0.4382 0.3166
vn 0.8314 -0.4594 0.3127
vn 0.8742 -0.4855 -0.0000
vn -0.0000 0.4999 -0.8661
vn 0.3694 0.4528 -0.8115
vn 0.3656 -0.4716 -0.8024
vn -0.0000 -0.5224 -0.8527
vn -0.8879 0.4601 0.0000
vn -0.8412 0.4382 -0.3166
vn -0.8314 -0.4594 -0.3127
vn -0.8742 -0.4855 0.0000
vn 0.3694 0.4528 0.8115
vn 0.3656 -0.4716 0.8024
vn 0.8412 0.4382 -0.3166
vn 0.8314 -0.4594 -0.3127
vn -0.3694 0.4528 -0.8115
vn -0.3656 -0.4716 -0.8024
vn -0.8412 0.4382 0.3166
vn -0.8314 -0.4594 0.3127
vn 0.1319 -0.9573 0.2571
vn 0.0000 -0.9724 0.2333
vn -0.0000 -1.0000 -0.0000
vn 0.2948 -0.9506 -0.0975
vn 0.2747 -0.9615 0.0000
vn -0.1319 -0.9573 -0.2571
vn -0.0000 -0.9724 -0.2333
vn -0.2948 -0.9506 0.0975
vn -0.2747 -0.9615 0.0000
vn -0.1319 -0.9573 0.2571
vn 0.2948 -0.9506 0.0975
vn 0.1319 -0.9573 -0.2571
vn -0.2948 -0.9506 -0.0975
vn 0.9400 0.2282 0.2537
vn 0.9680 -0.0621 0.2432
vn 0.9977 -0.0682 -0.0000
vn 0.9719 0.2353 -0.0000
vn 0.9594 0.1254 0.2527
vn 0.9916 0.1295 -0.0000
vn 0.9256 0.3784 -0.0000
vn 0.9057 0.3574 0.2280
vn 0.9400 0.2282 -0.2537
vn 0.9680 -0.0621 -0.2432
vn 0.9594 0.1254 -0.2527
vn 0.9057 0.3574 -0.2280
vn 0.4925 0.0646 0.8679
vn 0.4225 0.4082 0.8092
vn -0.4530 0.3592 0.8160
vn -0.5143 -0.0662 0.8551
vn 0.4770 -0.2894 0.8298
vn 0.4761 0.1140 0.8720
vn -0.5108 -0.1251 0.8506
vn -0.3747 -0.4583 0.8059
vn 0.5394 -0.8420 -0.0000
vn 0.5008 -0.8145 0.2930
vn -0.3266 -0.9060 0.2690
vn -0.3672 -0.9301 -0.0000
vn 0.3860 0.8811 0.2734
vn 0.4267 0.9044 -0.0000
vn -0.4761 0.8794 -0.0000
vn -0.4361 0.8552 0.2800
vn 0.4761 0.1140 -0.8720
vn 0.4770 -0.2894 -0.8298
vn -0.3747 -0.4583 -0.8059
vn -0.5108 -0.1251 -0.8506
vn 0.5008 -0.8145 -0.2930
vn -0.3266 -0.9060 -0.2690
vn 0.4925 0.0646 -0.8679
vn -0.5143 -0.0662 -0.8551
vn 0.3860 0.8811 -0.2734
vn -0.4361 0.8552 -0.2800
vn 0.4225 0.4082 -0.8092
vn -0.4530 0.3592 -0.8160
vn -0.9451 0.2287 -0.2333
vn -0.9606 -0.1244 -0.2486
vn -0.9917 -0.1286 -0.0000
vn -0.9697 0.2445 -0.0000
vn -0.9417 -0.2284 -0.2469
vn -0.9717 -0.2362 -0.0000
vn -0.8339 -0.5045 -0.2240
vn -0.8484 -0.5294 -0.0000
vn -0.9606 -0.1244 0.2486
vn -0.9451 0.2287 0.2333
vn -0.9417 -0.2284 0.2469
vn -0.8339 -0.5045 0.2240
# 282 vertex normals

vt 0.4813 0.5006 0.0000
vt 0.4645 0.4758 0.0000
vt 0.5239 0.4630 0.0000
vt 0.5231 0.4937 0.0000
vt 0.5622 0.4840 0.0000
vt 0.5618 0.4994 0.0000
vt 0.4523 0.5193 0.0000
vt 0.4416 0.5118 0.0000
vt 0.4621 0.4716 0.0000
vt 0.5239 0.4582 0.0000
vt 0.5623 0.4802 0.0000
vt 0.4379 0.5105 0.0000
vt 0.4565 0.4625 0.0000
vt 0.5248 0.4478 0.0000
vt 0.5626 0.4696 0.0000
vt 0.4282 0.5055 0.0000
vt 0.5305 0.5745 0.0000
vt 0.4979 0.5813 0.0000
vt 0.5597 0.5736 0.0000
vt 0.4672 0.5904 0.0000
vt 0.1718 0.4751 0.0000
vt 0.1716 0.5155 0.0000
vt 0.1493 0.5264 0.0000
vt 0.1490 0.4639 0.0000
vt 0.1717 0.3644 0.0000
vt 0.2075 0.3644 0.0000
vt 0.2075 0.3755 0.0000
vt 0.1496 0.3755 0.0000
vt 0.2076 0.4751 0.0000
vt 0.2076 0.4639 0.0000
vt 0.7581 0.0184 0.0000
vt 0.7714 0.0751 0.0000
vt 0.7690 0.0737 0.0000
vt 0.7565 0.0192 0.0000
vt 0.2075 0.3880 0.0000
vt 0.1496 0.3880 0.0000
vt 0.1496 0.4513 0.0000
vt 0.2076 0.4513 0.0000
vt 0.7539 0.0758 0.0000
vt 0.7451 0.0259 0.0000
vt 0.7630 0.0076 0.0000
vt 0.7495 0.0116 0.0000
vt 0.7559 0.0036 0.0000
vt 0.7278 0.0123 0.0000
vt 0.7462 0.0105 0.0000
vt 0.7418 0.0195 0.0000
vt 0.7330 0.0191 0.0000
vt 0.7542 0.0020 0.0000
vt 0.7490 0.0126 0.0000
vt 0.7434 0.0205 0.0000
vt 0.1496 0.4488 0.0000
vt 0.2076 0.4488 0.0000
vt 0.1496 0.3897 0.0000
vt 0.2075 0.3897 0.0000
vt 0.7428 0.0267 0.0000
vt 0.7512 0.0763 0.0000
vt 0.7399 0.0784 0.0000
vt 0.7328 0.0281 0.0000
vt 0.7416 0.0213 0.0000
vt 0.7334 0.0217 0.0000
vt 0.7193 0.0818 0.0000
vt 0.7146 0.0272 0.0000
vt 0.7173 0.0274 0.0000
vt 0.7219 0.0808 0.0000
vt 0.7295 0.0298 0.0000
vt 0.7361 0.0790 0.0000
vt 0.7239 0.0155 0.0000
vt 0.7313 0.0212 0.0000
vt 0.7223 0.0137 0.0000
vt 0.7653 0.0077 0.0000
vt 0.7387 0.2537 0.0000
vt 0.7289 0.2433 0.0000
vt 0.7406 0.2408 0.0000
vt 0.7510 0.2472 0.0000
vt 0.7543 0.2445 0.0000
vt 0.7613 0.2182 0.0000
vt 0.7733 0.2199 0.0000
vt 0.7661 0.2474 0.0000
vt 0.7421 0.2389 0.0000
vt 0.7462 0.2150 0.0000
vt 0.7582 0.2176 0.0000
vt 0.7519 0.2436 0.0000
vt 0.7292 0.2394 0.0000
vt 0.7310 0.2129 0.0000
vt 0.7430 0.2146 0.0000
vt 0.7396 0.2385 0.0000
vt 0.7145 0.2394 0.0000
vt 0.7154 0.2118 0.0000
vt 0.7278 0.2127 0.0000
vt 0.7266 0.2396 0.0000
vt 0.7774 0.1899 0.0000
vt 0.7652 0.1901 0.0000
vt 0.7681 0.1620 0.0000
vt 0.7799 0.1582 0.0000
vt 0.7620 0.1897 0.0000
vt 0.7496 0.1881 0.0000
vt 0.7523 0.1606 0.0000
vt 0.7648 0.1617 0.0000
vt 0.7463 0.1877 0.0000
vt 0.7344 0.1847 0.0000
vt 0.7380 0.1547 0.0000
vt 0.7490 0.1603 0.0000
vt 0.7312 0.1844 0.0000
vt 0.7188 0.1830 0.0000
vt 0.7223 0.1531 0.0000
vt 0.7347 0.1543 0.0000
vt 0.7704 0.1288 0.0000
vt 0.7813 0.1245 0.0000
vt 0.7545 0.1281 0.0000
vt 0.7672 0.1288 0.0000
vt 0.7409 0.1225 0.0000
vt 0.7513 0.1278 0.0000
vt 0.7252 0.1213 0.0000
vt 0.7377 0.1222 0.0000
vt 0.7706 0.1052 0.0000
vt 0.7805 0.1048 0.0000
vt 0.7555 0.1053 0.0000
vt 0.7675 0.1053 0.0000
vt 0.7423 0.1045 0.0000
vt 0.7525 0.1052 0.0000
vt 0.7259 0.1046 0.0000
vt 0.7388 0.1044 0.0000
vt 0.7122 0.2116 0.0000
vt 0.7112 0.2393 0.0000
vt 0.7191 0.1527 0.0000
vt 0.7155 0.1826 0.0000
vt 0.7220 0.1210 0.0000
vt 0.7227 0.1047 0.0000
vt 0.7646 0.2508 0.0000
vt 0.7149 0.2432 0.0000
vt 0.7128 0.2424 0.0000
vt 0.7377 0.0912 0.0000
vt 0.7245 0.0925 0.0000
vt 0.7523 0.0874 0.0000
vt 0.7413 0.0912 0.0000
vt 0.7686 0.0858 0.0000
vt 0.7551 0.0868 0.0000
vt 0.7709 0.0862 0.0000
vt 0.7821 0.0903 0.0000
vt 0.7217 0.0936 0.0000
vt 0.7843 0.0774 0.0000
vt 0.7830 0.0783 0.0000
vt 0.6420 0.5050 0.0000
vt 0.6007 0.4958 0.0000
vt 0.6016 0.4651 0.0000
vt 0.6602 0.4812 0.0000
vt 0.6700 0.5252 0.0000
vt 0.6811 0.5183 0.0000
vt 0.6018 0.4604 0.0000
vt 0.6628 0.4771 0.0000
vt 0.6849 0.5172 0.0000
vt 0.6015 0.4499 0.0000
vt 0.6689 0.4683 0.0000
vt 0.6948 0.5128 0.0000
vt 0.6211 0.5847 0.0000
vt 0.5889 0.5761 0.0000
vt 0.6512 0.5954 0.0000
vt 0.2434 0.4750 0.0000
vt 0.2661 0.4638 0.0000
vt 0.2659 0.5263 0.0000
vt 0.2436 0.5155 0.0000
vt 0.2433 0.3644 0.0000
vt 0.2655 0.3754 0.0000
vt 0.2655 0.3880 0.0000
vt 0.2655 0.4512 0.0000
vt 0.2655 0.4487 0.0000
vt 0.2655 0.3896 0.0000
vt 0.3878 0.4706 0.0000
vt 0.3944 0.4379 0.0000
vt 0.4091 0.4380 0.0000
vt 0.4041 0.4819 0.0000
vt 0.3153 0.4788 0.0000
vt 0.3520 0.4788 0.0000
vt 0.3533 0.4902 0.0000
vt 0.3104 0.4950 0.0000
vt 0.3038 0.4136 0.0000
vt 0.3014 0.4484 0.0000
vt 0.2872 0.4518 0.0000
vt 0.2845 0.4090 0.0000
vt 0.3842 0.4044 0.0000
vt 0.3430 0.3999 0.0000
vt 0.3416 0.3874 0.0000
vt 0.3931 0.3884 0.0000
vt 0.4018 0.3958 0.0000
vt 0.3961 0.4852 0.0000
vt 0.3020 0.4932 0.0000
vt 0.2916 0.3999 0.0000
vt 0.3475 0.4394 0.0000
vt 0.4131 0.4381 0.0000
vt 0.4051 0.3943 0.0000
vt 0.4100 0.3914 0.0000
vt 0.4193 0.4381 0.0000
vt 0.3536 0.4934 0.0000
vt 0.3975 0.4877 0.0000
vt 0.3992 0.4924 0.0000
vt 0.3543 0.4992 0.0000
vt 0.2834 0.4529 0.0000
vt 0.2998 0.4961 0.0000
vt 0.2965 0.5013 0.0000
vt 0.2774 0.4544 0.0000
vt 0.3412 0.3840 0.0000
vt 0.2894 0.3974 0.0000
vt 0.2859 0.3928 0.0000
vt 0.3404 0.3778 0.0000
vt 0.4070 0.4844 0.0000
vt 0.4109 0.4888 0.0000
vt 0.3096 0.4977 0.0000
vt 0.3090 0.5025 0.0000
vt 0.2810 0.4082 0.0000
vt 0.2758 0.4066 0.0000
vt 0.3948 0.3854 0.0000
vt 0.3970 0.3803 0.0000
vt 0.4131 0.4913 0.0000
vt 0.4206 0.5363 0.0000
vt 0.3603 0.5532 0.0000
vt 0.3097 0.5050 0.0000
vt 0.3547 0.5024 0.0000
vt 0.2999 0.5948 0.0000
vt 0.2977 0.5499 0.0000
vt 0.4194 0.5918 0.0000
vt 0.3656 0.6021 0.0000
vt 0.4282 0.5807 0.0000
vt 0.3992 0.4948 0.0000
vt 0.2953 0.5044 0.0000
vt 0.3109 0.6037 0.0000
vt 0.4232 0.4382 0.0000
vt 0.2736 0.4553 0.0000
vt 0.2728 0.4057 0.0000
vt 0.3401 0.3745 0.0000
vt 0.3973 0.3774 0.0000
vt 0.4125 0.3895 0.0000
vt 0.2850 0.3901 0.0000
vt 0.5749 0.7330 0.0000
vt 0.5719 0.7548 0.0000
vt 0.5154 0.7567 0.0000
vt 0.5155 0.7334 0.0000
vt 0.5744 0.7093 0.0000
vt 0.5159 0.7103 0.0000
vt 0.5162 0.6882 0.0000
vt 0.5702 0.6896 0.0000
vt 0.4561 0.7315 0.0000
vt 0.4589 0.7533 0.0000
vt 0.4574 0.7077 0.0000
vt 0.4623 0.6881 0.0000
vt 0.5792 0.7082 0.0000
vt 0.5739 0.6871 0.0000
vt 0.5763 0.6823 0.0000
vt 0.5839 0.7061 0.0000
vt 0.5759 0.7555 0.0000
vt 0.5798 0.7334 0.0000
vt 0.5847 0.7321 0.0000
vt 0.5797 0.7569 0.0000
vt 0.5153 0.7602 0.0000
vt 0.5723 0.7580 0.0000
vt 0.5743 0.7624 0.0000
vt 0.5153 0.7653 0.0000
vt 0.5704 0.6862 0.0000
vt 0.5163 0.6842 0.0000
vt 0.5164 0.6789 0.0000
vt 0.5711 0.6820 0.0000
vt 0.4512 0.7319 0.0000
vt 0.4547 0.7539 0.0000
vt 0.4509 0.7556 0.0000
vt 0.4463 0.7304 0.0000
vt 0.4583 0.7566 0.0000
vt 0.4562 0.7609 0.0000
vt 0.4526 0.7065 0.0000
vt 0.4480 0.7041 0.0000
vt 0.4623 0.6848 0.0000
vt 0.4616 0.6805 0.0000
vt 0.4587 0.6854 0.0000
vt 0.4565 0.6808 0.0000
vt 0.4611 0.6774 0.0000
vt 0.4580 0.6563 0.0000
vt 0.5168 0.6542 0.0000
vt 0.5165 0.6752 0.0000
vt 0.4574 0.6322 0.0000
vt 0.5170 0.6308 0.0000
vt 0.4573 0.6093 0.0000
vt 0.5173 0.6081 0.0000
vt 0.5756 0.6578 0.0000
vt 0.5718 0.6790 0.0000
vt 0.5767 0.6337 0.0000
vt 0.5772 0.6107 0.0000
vt 0.5819 0.6102 0.0000
vt 0.5777 0.6068 0.0000
vt 0.4527 0.6086 0.0000
vt 0.4569 0.6053 0.0000
vt 0.5803 0.6587 0.0000
vt 0.5814 0.6339 0.0000
vt 0.5173 0.6040 0.0000
vt 0.4526 0.6323 0.0000
vt 0.4533 0.6570 0.0000
# 293 texture coords

o JailProp_Chair01
g JailProp_Chair01
usemtl JailProp_ToiletSet
s 1
f 1/1/1 2/2/2 3/3/3 4/4/4 
f 4/4/4 3/3/3 5/5/5 6/6/6 
f 7/7/7 8/8/8 2/2/2 1/1/1 
f 3/3/3 2/2/2 9/9/9 10/10/10 
f 5/5/5 3/3/3 10/10/10 11/11/11 
f 2/2/2 8/8/8 12/12/12 9/9/9 
f 10/10/10 9/9/9 13/13/13 14/14/14 
f 11/11/11 10/10/10 14/14/14 15/15/15 
f 9/9/9 12/12/12 16/16/16 13/13/13 
s 4
f 1/1/1 4/4/4 17/17/17 18/18/18 
f 4/4/4 6/6/6 19/19/19 17/17/17 
f 7/7/7 1/1/1 18/18/18 20/20/20 
s 2
f 18/21/18 17/22/17 21/23/21 22/24/22 
f 17/25/17 19/26/19 23/27/23 21/28/21 
f 20/29/20 18/21/18 22/24/22 24/30/24 
s 1
f 22/31/22 21/32/21 25/33/25 26/34/26 
s 2
f 21/28/21 23/27/23 27/35/27 28/36/28 
f 24/30/24 22/24/22 29/37/29 30/38/30 
s 1
f 26/34/26 25/33/25 31/39/31 32/40/32 
f 29/41/29 22/31/22 33/42/33 34/43/34 
f 35/44/35 36/45/36 37/46/37 38/47/38 
f 34/43/34 33/42/33 36/45/36 35/48/35 
f 22/31/22 26/34/26 39/49/39 33/42/33 
f 39/49/39 26/34/26 32/40/32 40/50/40 
f 37/46/37 36/45/36 39/49/39 40/50/40 
f 33/42/33 39/49/39 36/45/36 
s 2
f 30/38/30 29/37/29 41/51/41 42/52/42 
f 42/52/42 41/51/41 43/53/43 44/54/44 
s 1
f 45/55/45 46/56/46 47/57/47 48/58/48 
f 49/59/49 45/55/45 48/58/48 50/60/50 
f 46/56/46 45/55/45 32/40/32 31/39/31 
f 45/55/45 49/59/49 40/50/40 32/40/32 
f 40/50/40 49/59/49 37/46/37 
f 38/47/38 37/46/37 49/59/49 50/60/50 
f 43/61/43 41/62/41 51/63/51 52/64/52 
f 52/64/52 51/63/51 53/65/53 54/66/54 
f 53/65/53 51/63/51 55/67/55 56/68/56 
f 35/44/35 38/47/38 56/68/56 55/67/55 
f 55/67/55 34/69/34 35/44/35 
f 34/69/34 55/67/55 51/63/51 41/62/41 
f 29/41/29 34/43/34 41/70/41 
f 50/60/50 48/58/48 53/65/53 56/68/56 
f 48/58/48 47/57/47 54/66/54 53/65/53 
f 38/47/38 50/60/50 56/68/56 
f 57/71/57 58/72/58 59/73/59 60/74/60 
f 61/75/61 62/76/62 63/77/63 64/78/64 
f 65/79/65 66/80/66 67/81/67 68/82/68 
f 69/83/69 70/84/70 71/85/71 72/86/72 
f 73/87/73 74/88/74 75/89/75 76/90/76 
f 77/91/77 78/92/78 79/93/79 80/94/80 
f 81/95/81 82/96/82 83/97/83 84/98/84 
f 85/99/85 86/100/86 87/101/87 88/102/88 
f 89/103/89 90/104/90 91/105/91 92/106/92 
f 63/77/63 62/76/62 78/92/78 77/91/77 
f 67/81/67 66/80/66 82/96/82 81/95/81 
f 71/85/71 70/84/70 86/100/86 85/99/85 
f 75/89/75 74/88/74 90/104/90 89/103/89 
f 80/94/80 79/93/79 93/107/93 94/108/94 
f 84/98/84 83/97/83 95/109/95 96/110/96 
f 88/102/88 87/101/87 97/111/97 98/112/98 
f 92/106/92 91/105/91 99/113/99 100/114/100 
f 93/107/93 101/115/101 102/116/102 94/108/94 
f 95/109/95 103/117/103 104/118/104 96/110/96 
f 97/111/97 105/119/105 106/120/106 98/112/98 
f 99/113/99 107/121/107 108/122/108 100/114/100 
f 63/123/63 74/88/74 73/87/73 64/124/64 
f 61/75/61 68/82/68 67/81/67 62/76/62 
f 65/79/65 72/86/72 71/85/71 66/80/66 
f 69/83/69 76/90/76 75/89/75 70/84/70 
f 80/125/80 91/105/91 90/104/90 77/126/77 
f 78/92/78 81/95/81 84/98/84 79/93/79 
f 82/96/82 85/99/85 88/102/88 83/97/83 
f 86/100/86 89/103/89 92/106/92 87/101/87 
f 77/126/77 90/104/90 74/88/74 63/123/63 
f 62/76/62 67/81/67 81/95/81 78/92/78 
f 66/80/66 71/85/71 85/99/85 82/96/82 
f 70/84/70 75/89/75 89/103/89 86/100/86 
f 94/127/94 99/113/99 91/105/91 80/125/80 
f 79/93/79 84/98/84 96/110/96 93/107/93 
f 83/97/83 88/102/88 98/112/98 95/109/95 
f 87/101/87 92/106/92 100/114/100 97/111/97 
f 102/128/102 107/121/107 99/113/99 94/127/94 
f 93/107/93 96/110/96 104/118/104 101/115/101 
f 95/109/95 98/112/98 106/120/106 103/117/103 
f 97/111/97 100/114/100 108/122/108 105/119/105 
f 69/83/69 72/86/72 59/73/59 58/72/58 
f 65/79/65 68/82/68 60/74/60 59/73/59 
f 61/75/61 64/78/64 57/129/57 60/74/60 
f 73/87/73 76/90/76 58/72/58 57/130/57 
f 61/75/61 60/74/60 68/82/68 
f 65/79/65 59/73/59 72/86/72 
f 69/83/69 58/72/58 76/90/76 
f 73/87/73 57/131/57 64/124/64 
f 52/64/52 54/66/54 109/132/109 110/133/110 
f 47/57/47 46/56/46 111/134/111 112/135/112 
f 31/39/31 25/33/25 113/136/113 114/137/114 
f 46/56/46 31/39/31 114/137/114 111/134/111 
f 105/119/105 108/122/108 109/132/109 112/135/112 
s 2
f 28/36/28 27/35/27 44/54/44 43/53/43 
s 1
f 102/116/102 101/115/101 115/138/115 116/139/116 
f 25/33/25 21/32/21 115/138/115 113/136/113 
f 43/61/43 52/64/52 110/133/110 116/140/116 
f 43/141/43 116/139/116 28/142/28 
f 109/132/109 108/122/108 107/121/107 110/133/110 
f 111/134/111 106/120/106 105/119/105 112/135/112 
f 113/136/113 104/118/104 103/117/103 114/137/114 
f 114/137/114 103/117/103 106/120/106 111/134/111 
f 109/132/109 54/66/54 47/57/47 112/135/112 
f 115/138/115 21/32/21 28/142/28 116/139/116 
f 115/138/115 101/115/101 104/118/104 113/136/113 
f 110/133/110 107/121/107 102/128/102 116/140/116 
f 117/143/117 118/144/118 119/145/119 120/146/120 
f 118/144/118 6/6/6 5/5/5 119/145/119 
f 7/147/7 117/143/117 120/146/120 8/148/8 
f 119/145/119 121/149/121 122/150/122 120/146/120 
f 5/5/5 11/11/11 121/149/121 119/145/119 
f 120/146/120 122/150/122 12/151/12 8/148/8 
f 121/149/121 123/152/123 124/153/124 122/150/122 
f 11/11/11 15/15/15 123/152/123 121/149/121 
f 122/150/122 124/153/124 16/154/16 12/151/12 
s 4
f 117/143/117 125/155/125 126/156/126 118/144/118 
f 118/144/118 126/156/126 19/19/19 6/6/6 
f 7/147/7 20/157/20 125/155/125 117/143/117 
s 2
f 125/158/125 127/159/127 128/160/128 126/161/126 
f 126/162/126 128/163/128 23/27/23 19/26/19 
f 20/29/20 24/30/24 127/159/127 125/158/125 
s 1
f 127/31/127 129/34/129 130/33/130 128/32/128 
s 2
f 128/163/128 131/164/131 27/35/27 23/27/23 
f 24/30/24 30/38/30 132/165/132 127/159/127 
s 1
f 129/34/129 133/40/133 134/39/134 130/33/130 
f 132/41/132 135/43/135 136/42/136 127/31/127 
f 137/44/137 138/47/138 139/46/139 140/45/140 
f 135/43/135 137/48/137 140/45/140 136/42/136 
f 127/31/127 136/42/136 141/49/141 129/34/129 
f 141/49/141 142/50/142 133/40/133 129/34/129 
f 139/46/139 142/50/142 141/49/141 140/45/140 
f 136/42/136 140/45/140 141/49/141 
s 2
f 30/38/30 42/52/42 143/166/143 132/165/132 
f 42/52/42 44/54/44 144/167/144 143/166/143 
s 1
f 145/55/145 146/58/146 147/57/147 148/56/148 
f 149/59/149 150/60/150 146/58/146 145/55/145 
f 148/56/148 134/39/134 133/40/133 145/55/145 
f 145/55/145 133/40/133 142/50/142 149/59/149 
f 142/50/142 139/46/139 149/59/149 
f 138/47/138 150/60/150 149/59/149 139/46/139 
f 144/61/144 151/64/151 152/63/152 143/62/143 
f 151/64/151 153/66/153 154/65/154 152/63/152 
f 154/65/154 155/68/155 156/67/156 152/63/152 
f 137/44/137 156/67/156 155/68/155 138/47/138 
f 156/67/156 137/44/137 135/69/135 
f 135/69/135 143/62/143 152/63/152 156/67/156 
f 132/41/132 143/70/143 135/43/135 
f 150/60/150 155/68/155 154/65/154 146/58/146 
f 146/58/146 154/65/154 153/66/153 147/57/147 
f 138/47/138 155/68/155 150/60/150 
f 157/71/58 158/74/59 159/73/60 160/72/57 
f 161/75/72 162/78/69 163/77/70 164/76/71 
f 165/79/68 166/82/65 167/81/66 168/80/67 
f 169/83/64 170/86/61 171/85/62 172/84/63 
f 173/87/76 174/90/73 175/89/74 176/88/75 
f 177/91/86 178/94/87 179/93/88 180/92/85 
f 181/95/82 182/98/83 183/97/84 184/96/81 
f 185/99/78 186/102/79 187/101/80 188/100/77 
f 189/103/90 190/106/91 191/105/92 192/104/89 
f 163/77/70 177/91/86 180/92/85 164/76/71 
f 167/81/66 181/95/82 184/96/81 168/80/67 
f 171/85/62 185/99/78 188/100/77 172/84/63 
f 175/89/74 189/103/90 192/104/89 176/88/75 
f 178/94/87 193/108/97 194/107/98 179/93/88 
f 182/98/83 195/110/95 196/109/96 183/97/84 
f 186/102/79 197/112/93 198/111/94 187/101/80 
f 190/106/91 199/114/99 200/113/100 191/105/92 
f 194/107/98 193/108/97 201/116/157 202/115/158 
f 196/109/96 195/110/95 203/118/159 204/117/160 
f 198/111/94 197/112/93 205/120/161 206/119/162 
f 200/113/100 199/114/99 207/122/163 208/121/164 
f 163/123/70 162/124/69 173/87/76 176/88/75 
f 161/75/72 164/76/71 167/81/66 166/82/65 
f 165/79/68 168/80/67 171/85/62 170/86/61 
f 169/83/64 172/84/63 175/89/74 174/90/73 
f 178/125/87 177/126/86 192/104/89 191/105/92 
f 180/92/85 179/93/88 182/98/83 181/95/82 
f 184/96/81 183/97/84 186/102/79 185/99/78 
f 188/100/77 187/101/80 190/106/91 189/103/90 
f 177/126/86 163/123/70 176/88/75 192/104/89 
f 164/76/71 180/92/85 181/95/82 167/81/66 
f 168/80/67 184/96/81 185/99/78 171/85/62 
f 172/84/63 188/100/77 189/103/90 175/89/74 
f 193/127/97 178/125/87 191/105/92 200/113/100 
f 179/93/88 194/107/98 195/110/95 182/98/83 
f 183/97/84 196/109/96 197/112/93 186/102/79 
f 187/101/80 198/111/94 199/114/99 190/106/91 
f 201/128/157 193/127/97 200/113/100 208/121/164 
f 194/107/98 202/115/158 203/118/159 195/110/95 
f 196/109/96 204/117/160 205/120/161 197/112/93 
f 198/111/94 206/119/162 207/122/163 199/114/99 
f 169/83/64 160/72/57 159/73/60 170/86/61 
f 165/79/68 159/73/60 158/74/59 166/82/65 
f 161/75/72 158/74/59 157/129/58 162/78/69 
f 173/87/76 157/130/58 160/72/57 174/90/73 
f 161/75/72 166/82/65 158/74/59 
f 165/79/68 170/86/61 159/73/60 
f 169/83/64 174/90/73 160/72/57 
f 173/87/76 162/124/69 157/131/58 
f 151/64/151 209/133/165 210/132/166 153/66/153 
f 147/57/147 211/135/167 212/134/168 148/56/148 
f 134/39/134 213/137/169 214/136/170 130/33/130 
f 148/56/148 212/134/168 213/137/169 134/39/134 
f 206/119/162 211/135/167 210/132/166 207/122/163 
s 2
f 131/164/131 144/167/144 44/54/44 27/35/27 
s 1
f 201/116/157 215/139/171 216/138/172 202/115/158 
f 130/33/130 214/136/170 216/138/172 128/32/128 
f 144/61/144 215/140/171 209/133/165 151/64/151 
f 144/141/144 131/142/131 215/139/171 
f 210/132/166 209/133/165 208/121/164 207/122/163 
f 212/134/168 211/135/167 206/119/162 205/120/161 
f 214/136/170 213/137/169 204/117/160 203/118/159 
f 213/137/169 212/134/168 205/120/161 204/117/160 
f 210/132/166 211/135/167 147/57/147 153/66/153 
f 216/138/172 215/139/171 131/142/131 128/32/128 
f 216/138/172 214/136/170 203/118/159 202/115/158 
f 209/133/165 215/140/171 201/128/157 208/121/164 
f 217/168/173 218/169/174 219/170/175 220/171/176 
f 221/172/177 222/173/178 223/174/179 224/175/180 
f 225/176/181 226/177/182 227/178/183 228/179/184 
f 229/180/185 230/181/186 231/182/187 232/183/188 
f 233/184/189 229/180/185 232/183/188 
f 217/168/173 220/171/176 234/185/190 
f 221/172/177 224/175/180 235/186/191 
f 225/176/181 228/179/184 236/187/192 
f 218/169/174 229/180/185 233/184/189 219/170/175 
f 226/177/182 221/172/177 235/186/191 227/178/183 
f 222/173/178 217/168/173 234/185/190 223/174/179 
f 230/181/186 225/176/181 236/187/192 231/182/187 
f 229/180/185 218/169/174 237/188/193 
f 218/169/174 217/168/173 237/188/193 
f 217/168/173 222/173/178 237/188/193 
f 222/173/178 221/172/177 237/188/193 
f 221/172/177 226/177/182 237/188/193 
f 226/177/182 225/176/181 237/188/193 
f 225/176/181 230/181/186 237/188/193 
f 230/181/186 229/180/185 237/188/193 
s 2
f 238/189/194 239/190/195 240/191/196 241/192/197 
f 242/193/198 243/194/199 244/195/200 245/196/201 
f 246/197/202 247/198/203 248/199/204 249/200/205 
f 250/201/206 251/202/207 252/203/208 253/204/209 
s 4
f 243/194/199 254/205/210 255/206/211 244/195/200 
f 247/198/203 256/207/212 257/208/213 248/199/204 
f 251/202/207 258/209/214 259/210/215 252/203/208 
f 239/190/195 260/211/216 261/212/217 240/191/196 
s 2
f 254/205/210 238/189/194 241/192/197 255/206/211 
f 258/209/214 246/197/202 249/200/205 259/210/215 
f 256/207/212 242/193/198 245/196/201 257/208/213 
f 260/211/216 250/201/206 253/204/209 261/212/217 
s 1
f 262/213/218 263/214/219 264/215/220 
f 265/216/221 266/217/222 264/215/220 
f 267/218/223 268/219/224 264/215/220 
f 269/220/225 270/221/226 264/215/220 
f 271/222/227 269/220/225 264/215/220 
f 264/215/220 272/223/228 262/213/218 
f 264/215/220 273/224/229 265/216/221 
f 264/215/220 274/225/230 267/218/223 
f 263/214/219 271/222/227 264/215/220 
f 268/219/224 273/224/229 264/215/220 
f 266/217/222 272/223/228 264/215/220 
f 264/215/220 270/221/226 274/225/230 
s 3
f 220/171/176 219/170/175 238/189/194 254/205/210 
f 224/175/180 223/174/179 242/193/198 256/207/212 
f 228/179/184 227/178/183 246/197/202 258/209/214 
f 232/183/188 231/182/187 250/201/206 260/211/216 
s 5
f 233/184/189 232/183/188 260/211/216 239/190/195 
f 234/185/190 220/171/176 254/205/210 243/194/199 
f 235/186/191 224/175/180 256/207/212 247/198/203 
f 236/187/192 228/179/184 258/209/214 251/202/207 
s 3
f 219/170/175 233/184/189 239/190/195 238/189/194 
f 227/178/183 235/186/191 247/198/203 246/197/202 
f 223/174/179 234/185/190 243/194/199 242/193/198 
f 231/182/187 236/187/192 251/202/207 250/201/206 
f 263/226/219 262/213/218 255/206/211 241/192/197 
f 266/217/222 265/216/221 257/208/213 245/196/201 
f 268/227/224 267/228/223 259/210/215 249/200/205 
f 270/229/226 269/230/225 261/212/217 253/204/209 
s 5
f 269/230/225 271/231/227 240/191/196 261/212/217 
f 262/213/218 272/223/228 244/195/200 255/206/211 
f 265/216/221 273/224/229 248/199/204 257/208/213 
f 267/228/223 274/232/230 252/203/208 259/210/215 
s 3
f 271/231/227 263/226/219 241/192/197 240/191/196 
f 273/224/229 268/227/224 249/200/205 248/199/204 
f 272/223/228 266/217/222 245/196/201 244/195/200 
f 274/232/230 270/229/226 253/204/209 252/203/208 
s 1
f 275/233/231 276/234/232 277/235/233 278/236/234 
f 279/237/235 275/233/231 278/236/234 280/238/236 
f 281/239/237 282/240/238 279/237/235 280/238/236 
f 283/241/239 278/236/234 277/235/233 284/242/240 
f 285/243/241 280/238/236 278/236/234 283/241/239 
f 281/239/237 280/238/236 285/243/241 286/244/242 
s 2
f 287/245/243 288/246/244 289/247/245 290/248/246 
f 291/249/247 292/250/248 293/251/249 294/252/250 
s 4
f 295/253/251 296/254/252 297/255/253 298/256/254 
s 2
f 292/250/248 287/245/243 290/248/246 293/251/249 
s 4
f 299/257/255 300/258/256 301/259/257 302/260/258 
s 2
f 303/261/259 304/262/260 305/263/261 306/264/262 
s 4
f 307/265/263 295/253/251 298/256/254 308/266/264 
s 2
f 309/267/265 303/261/259 306/264/262 310/268/266 
s 4
f 300/258/256 311/269/267 312/270/268 301/259/257 
s 2
f 313/271/269 309/267/265 310/268/266 314/272/270 
s 1
f 315/273/271 316/274/272 317/275/273 318/276/274 
f 316/274/272 319/277/275 320/278/276 317/275/273 
f 319/277/275 321/279/277 322/280/278 320/278/276 
f 317/275/273 323/281/279 324/282/280 318/276/274 
f 320/278/276 325/283/281 323/281/279 317/275/273 
f 322/280/278 326/284/282 325/283/281 320/278/276 
s 7
f 276/234/232 291/249/247 296/254/252 
f 282/240/238 299/257/255 288/246/244 
f 284/242/240 307/265/263 304/262/260 
f 286/244/242 313/271/269 311/269/267 
f 289/247/245 302/260/258 324/282/280 
f 294/285/250 326/284/282 297/286/253 
f 305/287/261 308/288/264 321/279/277 
f 312/270/268 314/272/270 315/273/271 
s 3
f 276/234/232 275/233/231 292/250/248 291/249/247 
s 5
f 277/235/233 276/234/232 296/254/252 295/253/251 
s 3
f 275/233/231 279/237/235 287/245/243 292/250/248 
s 5
f 282/240/238 281/239/237 300/258/256 299/257/255 
s 3
f 279/237/235 282/240/238 288/246/244 287/245/243 
s 5
f 284/242/240 277/235/233 295/253/251 307/265/263 
s 3
f 283/241/239 284/242/240 304/262/260 303/261/259 
f 285/243/241 283/241/239 303/261/259 309/267/265 
f 286/244/242 285/243/241 309/267/265 313/271/269 
s 5
f 281/239/237 286/244/242 311/269/267 300/258/256 
s 6
f 289/247/245 288/246/244 299/257/255 302/260/258 
s 3
f 290/289/246 289/247/245 324/282/280 323/281/279 
f 294/285/250 293/290/249 325/283/281 326/284/282 
s 6
f 291/249/247 294/252/250 297/255/253 296/254/252 
s 5
f 298/291/254 297/286/253 326/284/282 322/280/278 
s 3
f 293/290/249 290/289/246 323/281/279 325/283/281 
s 5
f 302/260/258 301/259/257 318/276/274 324/282/280 
s 6
f 305/263/261 304/262/260 307/265/263 308/266/264 
s 3
f 306/292/262 305/287/261 321/279/277 319/277/275 
s 5
f 308/288/264 298/291/254 322/280/278 321/279/277 
s 3
f 310/293/266 306/292/262 319/277/275 316/274/272 
s 6
f 312/270/268 311/269/267 313/271/269 314/272/270 
s 5
f 301/259/257 312/270/268 315/273/271 318/276/274 
s 3
f 314/272/270 310/293/266 316/274/272 315/273/271 
# 292 polygons - 52 triangles

#
# object JailProp_Desk01
#

v  3.2392 0.8973 -2.8804
v  2.7659 0.8973 -2.8804
v  2.7659 0.8976 -2.7714
v  3.2392 0.8976 -2.7714
v  3.2392 0.7903 -2.8804
v  2.7659 0.7903 -2.8804
v  3.3577 0.7903 -2.7714
v  3.3577 0.8973 -2.7714
v  3.3577 0.8973 -1.7751
v  3.3577 0.7903 -1.7751
v  3.3576 0.7904 -2.8802
v  3.3576 0.8971 -2.8802
v  3.2351 0.7901 -2.7678
v  2.7659 0.7901 -2.7678
v  2.7659 0.7901 -2.8454
v  3.2351 0.7901 -2.8454
v  3.3232 0.7901 -2.7678
v  3.3232 0.7901 -1.7751
v  3.2351 0.7901 -1.7751
v  3.3232 0.7901 -2.8454
v  3.3125 0.1393 -2.7773
v  3.3125 0.1393 -2.8360
v  3.2458 0.1393 -2.7773
v  3.2458 0.1393 -2.8360
v  3.2392 0.8976 -1.7751
v  2.7659 0.8976 -1.7751
v  2.7659 0.7901 -1.7751
v  3.3430 0.1383 -2.7505
v  3.3430 0.1383 -2.8628
v  3.2153 0.1383 -2.7505
v  3.2153 0.1383 -2.8628
v  3.3493 0.1111 -2.7449
v  3.3493 0.1111 -2.8683
v  3.2090 0.1111 -2.7449
v  3.2090 0.1111 -2.8683
v  2.2927 0.8973 -2.8804
v  2.2927 0.8976 -2.7714
v  2.2927 0.7903 -2.8804
v  2.1741 0.7903 -2.7714
v  2.1741 0.7903 -1.7751
v  2.1741 0.8973 -1.7751
v  2.1741 0.8973 -2.7714
v  2.1742 0.8971 -2.8802
v  2.1742 0.7904 -2.8802
v  2.2967 0.7901 -2.7678
v  2.2967 0.7901 -2.8454
v  2.2967 0.7901 -1.7751
v  2.2086 0.7901 -1.7751
v  2.2086 0.7901 -2.7678
v  2.2086 0.7901 -2.8454
v  2.2193 0.1393 -2.8360
v  2.2193 0.1393 -2.7773
v  2.2860 0.1393 -2.7773
v  2.2860 0.1393 -2.8360
v  2.2927 0.8976 -1.7751
v  2.1888 0.1383 -2.8628
v  2.1888 0.1383 -2.7505
v  2.3165 0.1383 -2.7505
v  2.3165 0.1383 -2.8628
v  2.1825 0.1111 -2.8683
v  2.1825 0.1111 -2.7449
v  2.3228 0.1111 -2.7449
v  2.3228 0.1111 -2.8683
v  3.2392 0.8973 -0.6698
v  3.2392 0.8976 -0.7787
v  2.7659 0.8976 -0.7787
v  2.7659 0.8973 -0.6698
v  3.2392 0.7903 -0.6698
v  2.7659 0.7903 -0.6698
v  3.3577 0.7903 -0.7787
v  3.3577 0.8973 -0.7787
v  3.3576 0.8971 -0.6699
v  3.3576 0.7904 -0.6699
v  3.2351 0.7901 -0.7823
v  3.2351 0.7901 -0.7047
v  2.7659 0.7901 -0.7047
v  2.7659 0.7901 -0.7823
v  3.3232 0.7901 -0.7823
v  3.3232 0.7901 -0.7047
v  3.3125 0.1393 -0.7142
v  3.3125 0.1393 -0.7729
v  3.2458 0.1393 -0.7729
v  3.2458 0.1393 -0.7142
v  3.3430 0.1383 -0.6874
v  3.3430 0.1383 -0.7997
v  3.2153 0.1383 -0.7997
v  3.2153 0.1383 -0.6874
v  3.3493 0.1111 -0.6818
v  3.3493 0.1111 -0.8053
v  3.2090 0.1111 -0.8053
v  3.2090 0.1111 -0.6818
v  2.2927 0.8973 -0.6698
v  2.2927 0.8976 -0.7787
v  2.2927 0.7903 -0.6698
v  2.1741 0.7903 -0.7787
v  2.1741 0.8973 -0.7787
v  2.1742 0.7904 -0.6699
v  2.1742 0.8971 -0.6699
v  2.2967 0.7901 -0.7823
v  2.2967 0.7901 -0.7047
v  2.2086 0.7901 -0.7823
v  2.2086 0.7901 -0.7047
v  2.2193 0.1393 -0.7729
v  2.2193 0.1393 -0.7142
v  2.2860 0.1393 -0.7729
v  2.2860 0.1393 -0.7142
v  2.1888 0.1383 -0.7997
v  2.1888 0.1383 -0.6874
v  2.3165 0.1383 -0.7997
v  2.3165 0.1383 -0.6874
v  2.1825 0.1111 -0.8053
v  2.1825 0.1111 -0.6818
v  2.3228 0.1111 -0.8053
v  2.3228 0.1111 -0.6818
v  3.2600 0.6807 -2.7928
v  3.2600 0.6807 -2.8172
v  2.7659 0.6807 -2.8172
v  2.7659 0.6807 -2.7928
v  3.2600 0.6223 -2.8172
v  3.2600 0.6223 -2.7928
v  2.7659 0.6223 -2.7928
v  2.7659 0.6223 -2.8172
v  2.2718 0.6807 -2.7928
v  2.2718 0.6807 -2.8172
v  2.2718 0.6223 -2.8172
v  2.2718 0.6223 -2.7928
v  3.2600 0.6807 -0.7574
v  2.7659 0.6807 -0.7574
v  2.7659 0.6807 -0.7329
v  3.2600 0.6807 -0.7329
v  3.2600 0.6223 -0.7329
v  2.7659 0.6223 -0.7329
v  2.7659 0.6223 -0.7574
v  3.2600 0.6223 -0.7574
v  2.2718 0.6807 -0.7574
v  2.2718 0.6807 -0.7329
v  2.2718 0.6223 -0.7329
v  2.2718 0.6223 -0.7574
# 138 vertices

vn 0.0008 0.7061 -0.7081
vn -0.0000 0.7061 -0.7081
vn -0.0000 1.0000 -0.0014
vn 0.0013 1.0000 -0.0014
vn 0.0009 -0.7050 -0.7092
vn -0.0000 -0.7049 -0.7093
vn 0.7093 -0.7049 -0.0009
vn 0.7080 0.7062 -0.0009
vn 0.7080 0.7062 -0.0000
vn 0.7093 -0.7049 -0.0000
vn 0.5784 -0.5752 -0.5785
vn 0.5776 0.5767 -0.5777
vn -0.2967 -0.9078 0.2964
vn 0.0000 -1.0000 -0.0000
vn -0.0000 -1.0000 -0.0031
vn -0.2964 -0.9068 -0.2997
vn 0.3001 -0.9068 0.2960
vn 0.0031 -1.0000 -0.0000
vn 0.3006 -0.9053 -0.3001
vn 0.3181 0.8919 0.3214
vn 0.3181 0.8919 -0.3214
vn -0.3181 0.8919 0.3215
vn -0.3181 0.8919 -0.3214
vn 0.0013 1.0000 -0.0000
vn 0.0000 1.0000 -0.0000
vn 0.5117 0.6823 0.5222
vn 0.5117 0.6823 -0.5222
vn -0.5117 0.6823 0.5222
vn -0.5117 0.6823 -0.5222
vn 0.6801 0.2966 0.6704
vn 0.6801 0.2966 -0.6704
vn -0.6801 0.2966 0.6704
vn -0.6801 0.2966 -0.6704
vn -0.0008 0.7061 -0.7081
vn -0.0013 1.0000 -0.0014
vn -0.0009 -0.7050 -0.7092
vn -0.7093 -0.7049 -0.0009
vn -0.7093 -0.7049 0.0000
vn -0.7080 0.7062 0.0000
vn -0.7080 0.7062 -0.0009
vn -0.5776 0.5767 -0.5777
vn -0.5784 -0.5752 -0.5785
vn 0.2967 -0.9078 0.2964
vn 0.2964 -0.9068 -0.2997
vn -0.0031 -1.0000 0.0000
vn -0.3001 -0.9068 0.2960
vn -0.3006 -0.9053 -0.3001
vn -0.3181 0.8919 0.3214
vn 0.3181 0.8919 0.3215
vn -0.0013 1.0000 0.0000
vn 0.0008 0.7061 0.7081
vn 0.0013 1.0000 0.0014
vn 0.0000 1.0000 0.0014
vn 0.0000 0.7061 0.7081
vn 0.0009 -0.7050 0.7092
vn 0.0000 -0.7049 0.7093
vn 0.7093 -0.7049 0.0009
vn 0.7080 0.7062 0.0009
vn 0.5776 0.5767 0.5777
vn 0.5784 -0.5752 0.5785
vn -0.2967 -0.9078 -0.2964
vn -0.2964 -0.9068 0.2997
vn 0.0000 -1.0000 0.0031
vn 0.3001 -0.9068 -0.2960
vn 0.3006 -0.9053 0.3001
vn -0.3181 0.8919 -0.3215
vn -0.0008 0.7061 0.7081
vn -0.0013 1.0000 0.0014
vn -0.0009 -0.7050 0.7092
vn -0.7093 -0.7049 0.0009
vn -0.7080 0.7062 0.0009
vn -0.5784 -0.5752 0.5785
vn -0.5776 0.5767 0.5777
vn 0.2967 -0.9078 -0.2964
vn 0.2964 -0.9068 0.2997
vn -0.3001 -0.9068 -0.2960
vn -0.3006 -0.9053 0.3001
vn 0.3181 0.8919 -0.3215
vn -0.0000 0.7071 0.7071
vn -0.0000 0.7071 -0.7071
vn 0.0000 0.7071 0.7071
vn 0.0000 -0.7071 -0.7071
vn 0.0000 -0.7071 0.7071
vn -0.0000 -0.7071 -0.7071
vn 0.0000 0.7071 -0.7071
vn -0.0000 -0.7071 0.7071
# 86 vertex normals

vt 0.4804 0.0220 0.0000
vt 0.5642 0.0220 0.0000
vt 0.5642 0.0413 0.0000
vt 0.4804 0.0413 0.0000
vt 0.4804 0.0031 0.0000
vt 0.5642 0.0031 0.0000
vt 0.4404 0.0413 0.0000
vt 0.4594 0.0413 0.0000
vt 0.4594 0.2179 0.0000
vt 0.4404 0.2179 0.0000
vt 0.4404 0.0220 0.0000
vt 0.4594 0.0220 0.0000
vt 0.3788 0.3381 0.0000
vt 0.3788 0.2548 0.0000
vt 0.3924 0.2548 0.0000
vt 0.3924 0.3381 0.0000
vt 0.4594 0.0031 0.0000
vt 0.3788 0.3535 0.0000
vt 0.2027 0.3535 0.0000
vt 0.2027 0.3381 0.0000
vt 0.1234 0.3946 0.0000
vt 0.1234 0.4061 0.0000
vt 0.0063 0.4061 0.0000
vt 0.0063 0.3946 0.0000
vt 0.1234 0.4195 0.0000
vt 0.0063 0.4195 0.0000
vt 0.1234 0.3669 0.0000
vt 0.1234 0.3803 0.0000
vt 0.0063 0.3803 0.0000
vt 0.0063 0.3669 0.0000
vt 0.3924 0.3535 0.0000
vt 0.3986 0.3596 0.0000
vt 0.3788 0.3596 0.0000
vt 0.3986 0.3381 0.0000
vt 0.3986 0.2548 0.0000
vt 0.4804 0.2179 0.0000
vt 0.5642 0.2179 0.0000
vt 0.2027 0.3596 0.0000
vt 0.2027 0.2548 0.0000
vt 0.1976 0.4958 0.0000
vt 0.1976 0.5147 0.0000
vt 0.1877 0.5234 0.0000
vt 0.1877 0.4871 0.0000
vt 0.2191 0.5147 0.0000
vt 0.2290 0.5234 0.0000
vt 0.2191 0.4958 0.0000
vt 0.2290 0.4871 0.0000
vt 0.1806 0.5304 0.0000
vt 0.1806 0.4801 0.0000
vt 0.2360 0.5304 0.0000
vt 0.2360 0.4801 0.0000
vt 0.6481 0.0220 0.0000
vt 0.6481 0.0413 0.0000
vt 0.6481 0.0031 0.0000
vt 0.6880 0.0413 0.0000
vt 0.6880 0.2179 0.0000
vt 0.6691 0.2179 0.0000
vt 0.6691 0.0413 0.0000
vt 0.6691 0.0220 0.0000
vt 0.6880 0.0220 0.0000
vt 0.3788 0.1715 0.0000
vt 0.3924 0.1715 0.0000
vt 0.6691 0.0031 0.0000
vt 0.2027 0.1715 0.0000
vt 0.2027 0.1561 0.0000
vt 0.3788 0.1561 0.0000
vt 0.1256 0.5099 0.0000
vt 0.0084 0.5099 0.0000
vt 0.0084 0.4983 0.0000
vt 0.1256 0.4983 0.0000
vt 0.0084 0.4841 0.0000
vt 0.1256 0.4841 0.0000
vt 0.1256 0.5368 0.0000
vt 0.0084 0.5368 0.0000
vt 0.0084 0.5242 0.0000
vt 0.1256 0.5242 0.0000
vt 0.3788 0.1499 0.0000
vt 0.3986 0.1499 0.0000
vt 0.3924 0.1561 0.0000
vt 0.3986 0.1715 0.0000
vt 0.6481 0.2179 0.0000
vt 0.2027 0.1499 0.0000
vt 0.4804 0.4137 0.0000
vt 0.4804 0.3944 0.0000
vt 0.5642 0.3944 0.0000
vt 0.5642 0.4137 0.0000
vt 0.4804 0.4326 0.0000
vt 0.5642 0.4326 0.0000
vt 0.4404 0.3944 0.0000
vt 0.4594 0.3944 0.0000
vt 0.4594 0.4137 0.0000
vt 0.4404 0.4137 0.0000
vt 0.0267 0.3381 0.0000
vt 0.0131 0.3381 0.0000
vt 0.0131 0.2548 0.0000
vt 0.0267 0.2548 0.0000
vt 0.4594 0.4326 0.0000
vt 0.0267 0.3535 0.0000
vt 0.1256 0.5100 0.0000
vt 0.0084 0.5100 0.0000
vt 0.0084 0.4984 0.0000
vt 0.1256 0.4984 0.0000
vt 0.0084 0.5243 0.0000
vt 0.1256 0.5243 0.0000
vt 0.0267 0.3596 0.0000
vt 0.0069 0.3596 0.0000
vt 0.0131 0.3535 0.0000
vt 0.0069 0.3381 0.0000
vt 0.0069 0.2548 0.0000
vt 0.6481 0.4137 0.0000
vt 0.6481 0.3944 0.0000
vt 0.6481 0.4326 0.0000
vt 0.6880 0.3944 0.0000
vt 0.6691 0.3944 0.0000
vt 0.6880 0.4137 0.0000
vt 0.6691 0.4137 0.0000
vt 0.0267 0.1715 0.0000
vt 0.0131 0.1715 0.0000
vt 0.6691 0.4326 0.0000
vt 0.0267 0.1561 0.0000
vt 0.1234 0.3948 0.0000
vt 0.1234 0.4063 0.0000
vt 0.0063 0.4063 0.0000
vt 0.0063 0.3948 0.0000
vt 0.1234 0.3805 0.0000
vt 0.0063 0.3805 0.0000
vt 0.0131 0.1561 0.0000
vt 0.0069 0.1499 0.0000
vt 0.0267 0.1499 0.0000
vt 0.0069 0.1715 0.0000
vt 0.4149 0.1493 0.0000
vt 0.4192 0.1493 0.0000
vt 0.4192 0.2368 0.0000
vt 0.4149 0.2368 0.0000
vt 0.4296 0.1493 0.0000
vt 0.4339 0.1493 0.0000
vt 0.4339 0.2368 0.0000
vt 0.4296 0.2368 0.0000
vt 0.4045 0.2368 0.0000
vt 0.4045 0.1493 0.0000
vt 0.4149 0.3243 0.0000
vt 0.4192 0.3243 0.0000
vt 0.4296 0.3243 0.0000
vt 0.4339 0.3243 0.0000
vt 0.4045 0.3243 0.0000
# 145 texture coords

o JailProp_Desk01
g JailProp_Desk01
usemtl JailProp_Desk01
s 1
f 327/294/283 328/295/284 329/296/285 330/297/286 
s 2
f 331/298/287 332/299/288 328/295/284 327/294/283 
s 4
f 333/300/289 334/301/290 335/302/291 336/303/292 
f 333/300/289 337/304/293 338/305/294 334/301/290 
s 1
f 339/306/295 340/307/296 341/308/297 342/309/298 
f 330/297/286 334/301/290 338/305/294 327/294/283 
s 2
f 327/294/283 338/305/294 337/310/293 331/298/287 
s 1
f 339/306/295 343/311/299 344/312/300 345/313/296 
s 2
f 346/314/301 343/315/299 347/316/302 348/317/303 
s 4
f 343/315/299 339/318/295 349/319/304 347/316/302 
s 2
f 339/320/295 342/321/298 350/322/305 349/323/304 
s 4
f 342/321/298 346/314/301 348/317/303 350/322/305 
s 1
f 343/311/299 346/324/301 337/325/293 333/326/289 
f 346/324/301 342/309/298 331/327/287 337/325/293 
f 342/309/298 341/308/297 332/328/288 331/327/287 
f 351/329/306 330/297/286 329/296/285 352/330/307 
f 335/302/291 334/301/290 330/297/286 351/329/306 
f 344/312/300 343/311/299 333/326/289 336/331/292 
f 340/307/296 339/306/295 345/313/296 353/332/296 
f 348/333/303 347/334/302 354/335/308 355/336/309 
f 347/334/302 349/337/304 356/338/310 354/335/308 
f 349/337/304 350/339/305 357/340/311 356/338/310 
f 350/339/305 348/333/303 355/336/309 357/340/311 
s 2
f 355/336/309 354/335/308 358/341/312 359/342/313 
s 4
f 354/335/308 356/338/310 360/343/314 358/341/312 
s 2
f 356/338/310 357/340/311 361/344/315 360/343/314 
s 4
f 357/340/311 355/336/309 359/342/313 361/344/315 
s 1
f 362/345/316 363/346/317 329/296/285 328/295/284 
s 2
f 364/347/318 362/345/316 328/295/284 332/299/288 
s 4
f 365/348/319 366/349/320 367/350/321 368/351/322 
f 365/348/319 368/351/322 369/352/323 370/353/324 
s 1
f 371/354/325 372/355/326 341/308/297 340/307/296 
f 363/346/317 362/345/316 369/352/323 368/351/322 
s 2
f 362/345/316 364/347/318 370/356/324 369/352/323 
s 1
f 371/354/325 373/357/296 374/358/327 375/359/328 
s 2
f 376/360/329 377/361/305 378/362/330 375/363/328 
s 4
f 375/363/328 378/362/330 379/364/331 371/365/325 
s 2
f 371/366/325 379/367/331 380/368/303 372/369/326 
s 4
f 372/369/326 380/368/303 377/361/305 376/360/329 
s 1
f 375/359/328 365/370/319 370/371/324 376/372/329 
f 376/372/329 370/371/324 364/373/318 372/355/326 
f 372/355/326 364/373/318 332/328/288 341/308/297 
f 381/374/332 352/330/307 329/296/285 363/346/317 
f 367/350/321 381/374/332 363/346/317 368/351/322 
f 374/358/327 366/375/320 365/370/319 375/359/328 
f 340/307/296 353/332/296 373/357/296 371/354/325 
f 377/339/305 382/340/311 383/338/310 378/337/330 
f 378/337/330 383/338/310 384/335/308 379/334/331 
f 379/334/331 384/335/308 385/336/309 380/333/303 
f 380/333/303 385/336/309 382/340/311 377/339/305 
s 2
f 382/340/311 386/344/315 387/343/314 383/338/310 
s 4
f 383/338/310 387/343/314 388/341/312 384/335/308 
s 2
f 384/335/308 388/341/312 389/342/313 385/336/309 
s 4
f 385/336/309 389/342/313 386/344/315 382/340/311 
s 1
f 390/376/333 391/377/334 392/378/335 393/379/336 
s 2
f 394/380/337 390/376/333 393/379/336 395/381/338 
s 4
f 396/382/339 336/303/292 335/302/291 397/383/340 
f 396/382/339 397/383/340 398/384/341 399/385/342 
s 1
f 400/386/343 401/387/344 402/388/345 403/389/296 
f 391/377/334 390/376/333 398/384/341 397/383/340 
s 2
f 390/376/333 394/380/337 399/390/342 398/384/341 
s 1
f 400/386/343 345/313/296 344/312/300 404/391/346 
s 2
f 405/392/347 406/393/302 407/394/303 404/395/346 
s 4
f 404/395/346 407/394/303 408/364/348 400/365/343 
s 2
f 400/366/343 408/367/348 409/396/330 401/397/344 
s 4
f 401/397/344 409/396/330 406/393/302 405/392/347 
s 1
f 404/391/346 396/398/339 399/399/342 405/400/347 
f 405/400/347 399/399/342 394/401/337 401/387/344 
f 401/387/344 394/401/337 395/402/338 402/388/345 
f 351/329/306 352/330/307 392/378/335 391/377/334 
f 335/302/291 351/329/306 391/377/334 397/383/340 
f 344/312/300 336/331/292 396/398/339 404/391/346 
f 403/389/296 353/332/296 345/313/296 400/386/343 
f 406/334/302 410/335/308 411/336/309 407/333/303 
f 407/333/303 411/336/309 412/340/311 408/339/348 
f 408/339/348 412/340/311 413/338/310 409/337/330 
f 409/337/330 413/338/310 410/335/308 406/334/302 
s 2
f 410/335/308 414/341/312 415/342/313 411/336/309 
s 4
f 411/336/309 415/342/313 416/344/315 412/340/311 
s 2
f 412/340/311 416/344/315 417/343/314 413/338/310 
s 4
f 413/338/310 417/343/314 414/341/312 410/335/308 
s 1
f 418/403/349 393/379/336 392/378/335 419/404/350 
s 2
f 420/405/351 395/381/338 393/379/336 418/403/349 
s 4
f 421/406/352 422/407/353 367/350/321 366/349/320 
f 421/406/352 423/408/354 424/409/355 422/407/353 
s 1
f 425/410/356 403/389/296 402/388/345 426/411/357 
f 419/404/350 422/407/353 424/409/355 418/403/349 
s 2
f 418/403/349 424/409/355 423/412/354 420/405/351 
s 1
f 425/410/356 427/413/358 374/358/327 373/357/296 
s 2
f 428/414/359 427/415/358 429/416/305 430/417/330 
s 4
f 427/415/358 425/318/356 431/319/360 429/416/305 
s 2
f 425/320/356 426/418/357 432/419/302 431/323/360 
s 4
f 426/418/357 428/414/359 430/417/330 432/419/302 
s 1
f 427/413/358 428/420/359 423/421/354 421/422/352 
f 428/420/359 426/411/357 420/423/351 423/421/354 
f 426/411/357 402/388/345 395/402/338 420/423/351 
f 381/374/332 419/404/350 392/378/335 352/330/307 
f 367/350/321 422/407/353 419/404/350 381/374/332 
f 374/358/327 427/413/358 421/422/352 366/375/320 
f 403/389/296 425/410/356 373/357/296 353/332/296 
f 430/337/330 429/339/305 433/340/311 434/338/310 
f 429/339/305 431/333/360 435/336/309 433/340/311 
f 431/333/360 432/334/302 436/335/308 435/336/309 
f 432/334/302 430/337/330 434/338/310 436/335/308 
s 2
f 434/338/310 433/340/311 437/344/315 438/343/314 
s 4
f 433/340/311 435/336/309 439/342/313 437/344/315 
s 2
f 435/336/309 436/335/308 440/341/312 439/342/313 
s 4
f 436/335/308 434/338/310 438/343/314 440/341/312 
s 1
f 441/424/361 442/425/362 443/426/362 444/427/363 
f 445/428/364 446/429/365 447/430/365 448/431/366 
s off
f 445/428/364 448/431/366 443/426/362 442/425/362 
f 447/432/365 446/433/365 441/424/361 444/427/363 
s 1
f 449/434/363 444/427/363 443/426/362 450/435/367 
f 451/436/366 448/431/366 447/430/365 452/437/365 
s off
f 451/436/366 450/435/367 443/426/362 448/431/366 
f 447/432/365 444/427/363 449/434/363 452/438/365 
s 1
f 453/424/362 454/427/362 455/426/363 456/425/361 
f 457/428/365 458/431/365 459/430/366 460/429/366 
s off
f 457/428/365 456/425/361 455/426/363 458/431/365 
f 459/432/366 454/427/362 453/424/362 460/433/366 
s 1
f 461/434/367 462/435/363 455/426/363 454/427/362 
f 463/436/368 464/437/366 459/430/366 458/431/365 
s off
f 463/436/368 458/431/365 455/426/363 462/435/363 
f 459/432/366 464/438/366 461/434/367 454/427/362 
# 124 polygons

#
# object JailProp_Sink01
#

v  -2.9775 0.1188 -2.1871
v  -2.8741 0.1188 -1.9089
v  -3.5102 0.1188 -1.9089
v  -3.3488 0.1188 -2.1916
v  -2.9675 0.1368 -2.1990
v  -3.3496 0.1368 -2.2038
v  -3.3502 0.1884 -2.2064
v  -2.9658 0.1884 -2.2018
v  -3.5217 0.1368 -2.1892
v  -3.5217 0.1368 -1.9089
v  -3.5217 0.1884 -1.9089
v  -3.5217 0.1884 -2.1923
v  -2.8636 0.1368 -1.9089
v  -2.8707 0.1368 -2.0837
v  -2.8676 0.1884 -2.0848
v  -2.8608 0.1884 -1.9089
v  -2.8794 0.1188 -2.0745
v  -3.3607 1.5079 -1.9089
v  -3.3607 1.5079 -2.1977
v  -3.5049 1.5079 -2.2001
v  -3.5049 1.5079 -1.9089
v  -3.3613 1.1150 -2.2524
v  -3.5030 0.1884 -2.2064
v  -3.5038 1.1150 -2.2580
v  -3.5102 0.1188 -2.1903
v  -3.2570 1.2850 -1.9089
v  -3.2570 1.2850 -2.1561
v  -3.2570 1.3743 -2.1243
v  -3.2570 1.3743 -1.9089
v  -3.5217 1.1150 -2.2466
v  -3.5217 1.1150 -1.9089
v  -3.5217 1.4958 -1.9089
v  -3.5217 1.4958 -2.1898
v  -2.9426 1.1237 -2.2369
v  -3.3411 1.1237 -2.2432
v  -3.2722 1.1167 -2.1790
v  -2.9641 1.1162 -2.1766
v  -3.3411 1.1237 -1.9089
v  -3.2835 1.1159 -1.9089
v  -2.8264 1.1237 -1.9089
v  -2.8276 1.1237 -2.1035
v  -2.8819 1.1237 -2.0761
v  -2.8829 1.1237 -1.9089
v  -3.2123 1.0134 -1.9089
v  -3.2124 1.0148 -2.1045
v  -2.9830 1.0081 -2.1054
v  -2.9267 1.0083 -2.0380
v  -2.9354 1.1150 -2.2523
v  -2.8113 1.1150 -1.9089
v  -2.8125 1.1150 -2.1047
v  -3.3468 1.4935 -1.9089
v  -3.3468 1.4935 -2.1892
v  -3.5030 0.1368 -2.2035
v  -3.0019 0.9758 -1.9261
v  -3.0156 0.9809 -1.9187
v  -3.0019 0.9780 -1.9089
v  -2.9875 0.9759 -1.9195
v  -3.0171 0.9783 -1.9089
v  -2.9861 0.9793 -1.9089
v  -2.9282 1.0136 -1.9089
v  -3.0241 0.9945 -1.9248
v  -3.0020 0.9892 -1.9361
v  -3.0257 0.9938 -1.9089
v  -2.9799 0.9892 -1.9259
v  -2.9769 0.9951 -1.9089
v  -3.3433 1.2649 -2.1679
v  -3.3433 1.3869 -2.1273
v  -3.3433 1.3871 -1.9089
v  -3.3433 1.2649 -1.9089
v  -2.9775 0.1188 -1.6307
v  -3.3488 0.1188 -1.6262
v  -2.9675 0.1368 -1.6188
v  -2.9658 0.1884 -1.6160
v  -3.3502 0.1884 -1.6115
v  -3.3496 0.1368 -1.6141
v  -3.5217 0.1368 -1.6286
v  -3.5217 0.1884 -1.6256
v  -2.8676 0.1884 -1.7330
v  -2.8707 0.1368 -1.7341
v  -2.8794 0.1188 -1.7433
v  -3.5049 1.5079 -1.6178
v  -3.3607 1.5079 -1.6202
v  -3.3613 1.1150 -1.5655
v  -3.5038 1.1150 -1.5599
v  -3.5030 0.1884 -1.6115
v  -3.5102 0.1188 -1.6276
v  -3.2570 1.3743 -1.6936
v  -3.2570 1.2850 -1.6618
v  -3.5217 1.1150 -1.5712
v  -3.5217 1.4958 -1.6281
v  -2.9426 1.1237 -1.5809
v  -2.9641 1.1162 -1.6412
v  -3.2722 1.1167 -1.6388
v  -3.3411 1.1237 -1.5747
v  -2.8819 1.1237 -1.7418
v  -2.8276 1.1237 -1.7143
v  -3.2124 1.0148 -1.7134
v  -2.9267 1.0083 -1.7798
v  -2.9830 1.0081 -1.7125
v  -2.9354 1.1150 -1.5656
v  -2.8125 1.1150 -1.7131
v  -3.3468 1.4935 -1.6286
v  -3.5030 0.1368 -1.6143
v  -3.0019 0.9758 -1.8918
v  -3.0156 0.9809 -1.8992
v  -2.9875 0.9759 -1.8984
v  -3.0020 0.9892 -1.8818
v  -3.0241 0.9945 -1.8931
v  -2.9799 0.9892 -1.8919
v  -3.3433 1.2649 -1.6500
v  -3.3433 1.3869 -1.6905
v  -3.1901 1.3541 -1.8867
v  -3.1901 1.3541 -1.9267
v  -3.2724 1.3541 -1.9267
v  -3.2724 1.3541 -1.8867
v  -3.2724 1.3470 -1.8763
v  -3.1901 1.3470 -1.8764
v  -3.2724 1.3282 -1.8821
v  -3.1901 1.3282 -1.8821
v  -3.2724 1.3211 -1.8926
v  -3.1902 1.3211 -1.8926
v  -3.2724 1.3211 -1.9208
v  -3.1902 1.3211 -1.9209
v  -3.2724 1.3282 -1.9313
v  -3.1901 1.3282 -1.9313
v  -3.2724 1.3470 -1.9371
v  -3.1901 1.3470 -1.9371
v  -3.1607 1.3453 -1.8868
v  -3.1607 1.3453 -1.9267
v  -3.1637 1.3389 -1.8764
v  -3.1717 1.3218 -1.8821
v  -3.1747 1.3154 -1.8926
v  -3.1747 1.3154 -1.9209
v  -3.1717 1.3218 -1.9313
v  -3.1637 1.3389 -1.9370
v  -3.1282 1.3067 -1.8868
v  -3.1282 1.3067 -1.9266
v  -3.1344 1.3031 -1.8765
v  -3.1506 1.2937 -1.8822
v  -3.1567 1.2902 -1.8926
v  -3.1567 1.2902 -1.9208
v  -3.1506 1.2937 -1.9312
v  -3.1344 1.3031 -1.9369
v  -3.2724 1.3492 -1.9229
v  -3.1908 1.3492 -1.9230
v  -3.1908 1.3492 -1.8904
v  -3.2724 1.3492 -1.8905
v  -3.1904 1.3454 -1.8850
v  -3.2724 1.3456 -1.8851
v  -3.1898 1.3304 -1.8904
v  -3.2724 1.3305 -1.8903
v  -3.1893 1.3260 -1.8964
v  -3.2724 1.3261 -1.8963
v  -3.1893 1.3259 -1.9170
v  -3.2724 1.3261 -1.9171
v  -3.1898 1.3304 -1.9230
v  -3.2724 1.3305 -1.9231
v  -3.1904 1.3454 -1.9284
v  -3.2724 1.3456 -1.9283
v  -3.1630 1.3399 -1.8911
v  -3.1630 1.3398 -1.9224
v  -3.1643 1.3363 -1.8860
v  -3.1697 1.3232 -1.8912
v  -3.1709 1.3191 -1.8970
v  -3.1709 1.3191 -1.9164
v  -3.1697 1.3232 -1.9222
v  -3.1643 1.3363 -1.9274
v  -3.1319 1.3037 -1.8908
v  -3.1319 1.3037 -1.9226
v  -3.1353 1.3019 -1.8854
v  -3.1481 1.2949 -1.8905
v  -3.1519 1.2928 -1.8966
v  -3.1519 1.2927 -1.9168
v  -3.1480 1.2949 -1.9229
v  -3.1353 1.3019 -1.9280
v  -3.2501 1.3539 -2.0221
v  -3.2501 1.3511 -2.0116
v  -3.2327 1.3511 -2.0116
v  -3.2327 1.3539 -2.0221
v  -3.2501 1.3434 -2.0039
v  -3.2327 1.3434 -2.0039
v  -3.2501 1.3329 -2.0011
v  -3.2327 1.3329 -2.0011
v  -3.2501 1.3224 -2.0039
v  -3.2327 1.3224 -2.0039
v  -3.2501 1.3148 -2.0116
v  -3.2327 1.3148 -2.0116
v  -3.2501 1.3120 -2.0221
v  -3.2327 1.3120 -2.0221
v  -3.2501 1.3148 -2.0325
v  -3.2327 1.3148 -2.0325
v  -3.2501 1.3224 -2.0402
v  -3.2327 1.3224 -2.0402
v  -3.2501 1.3329 -2.0430
v  -3.2327 1.3329 -2.0430
v  -3.2501 1.3434 -2.0402
v  -3.2327 1.3434 -2.0402
v  -3.2501 1.3511 -2.0325
v  -3.2327 1.3511 -2.0325
v  -3.2172 1.3537 -2.0221
v  -3.2172 1.3509 -2.0117
v  -3.2132 1.3400 -2.0150
v  -3.2132 1.3426 -2.0247
v  -3.2172 1.3433 -2.0041
v  -3.2172 1.3329 -2.0013
v  -3.2132 1.3303 -2.0124
v  -3.2172 1.3225 -2.0041
v  -3.2172 1.3149 -2.0117
v  -3.2132 1.3232 -2.0195
v  -3.2172 1.3122 -2.0221
v  -3.2172 1.3149 -2.0324
v  -3.2132 1.3258 -2.0292
v  -3.2172 1.3225 -2.0400
v  -3.2172 1.3329 -2.0428
v  -3.2132 1.3355 -2.0317
v  -3.2172 1.3433 -2.0400
v  -3.2172 1.3509 -2.0324
v  -3.2342 1.3565 -2.0085
v  -3.2316 1.3565 -2.0085
v  -3.2316 1.3601 -2.0221
v  -3.2342 1.3601 -2.0221
v  -3.2342 1.3465 -1.9985
v  -3.2316 1.3465 -1.9985
v  -3.2342 1.3329 -1.9949
v  -3.2316 1.3329 -1.9949
v  -3.2342 1.3193 -1.9985
v  -3.2316 1.3193 -1.9985
v  -3.2342 1.3094 -2.0085
v  -3.2316 1.3094 -2.0085
v  -3.2342 1.3057 -2.0221
v  -3.2316 1.3057 -2.0221
v  -3.2342 1.3094 -2.0357
v  -3.2316 1.3094 -2.0357
v  -3.2342 1.3193 -2.0456
v  -3.2316 1.3193 -2.0456
v  -3.2342 1.3329 -2.0492
v  -3.2316 1.3329 -2.0492
v  -3.2342 1.3465 -2.0456
v  -3.2316 1.3465 -2.0456
v  -3.2342 1.3565 -2.0357
v  -3.2316 1.3565 -2.0357
v  -3.2160 1.3601 -2.0221
v  -3.2160 1.3565 -2.0085
v  -3.2160 1.3565 -2.0357
v  -3.2160 1.3465 -2.0456
v  -3.2160 1.3329 -2.0492
v  -3.2160 1.3193 -2.0456
v  -3.2160 1.3094 -2.0357
v  -3.2160 1.3057 -2.0221
v  -3.2160 1.3094 -2.0085
v  -3.2160 1.3193 -1.9985
v  -3.2160 1.3329 -1.9949
v  -3.2160 1.3465 -1.9985
v  -3.2122 1.3329 -2.0221
v  -3.2181 1.3565 -2.0085
v  -3.2181 1.3601 -2.0221
v  -3.2181 1.3465 -1.9985
v  -3.2181 1.3329 -1.9949
v  -3.2181 1.3193 -1.9985
v  -3.2181 1.3094 -2.0085
v  -3.2181 1.3057 -2.0221
v  -3.2181 1.3094 -2.0357
v  -3.2181 1.3193 -2.0456
v  -3.2181 1.3329 -2.0492
v  -3.2181 1.3465 -2.0456
v  -3.2181 1.3565 -2.0357
v  -3.2501 1.3539 -1.7913
v  -3.2327 1.3539 -1.7913
v  -3.2327 1.3511 -1.8018
v  -3.2501 1.3511 -1.8018
v  -3.2327 1.3434 -1.8095
v  -3.2501 1.3434 -1.8095
v  -3.2327 1.3329 -1.8123
v  -3.2501 1.3329 -1.8123
v  -3.2327 1.3224 -1.8095
v  -3.2501 1.3224 -1.8095
v  -3.2327 1.3148 -1.8018
v  -3.2501 1.3148 -1.8018
v  -3.2327 1.3120 -1.7913
v  -3.2501 1.3120 -1.7913
v  -3.2327 1.3148 -1.7809
v  -3.2501 1.3148 -1.7809
v  -3.2327 1.3224 -1.7732
v  -3.2501 1.3224 -1.7732
v  -3.2327 1.3329 -1.7704
v  -3.2501 1.3329 -1.7704
v  -3.2327 1.3434 -1.7732
v  -3.2501 1.3434 -1.7732
v  -3.2327 1.3511 -1.7809
v  -3.2501 1.3511 -1.7809
v  -3.2172 1.3537 -1.7913
v  -3.2132 1.3426 -1.7888
v  -3.2132 1.3400 -1.7984
v  -3.2172 1.3509 -1.8017
v  -3.2172 1.3433 -1.8093
v  -3.2132 1.3303 -1.8010
v  -3.2172 1.3329 -1.8121
v  -3.2172 1.3225 -1.8093
v  -3.2132 1.3232 -1.7939
v  -3.2172 1.3149 -1.8017
v  -3.2172 1.3122 -1.7913
v  -3.2132 1.3258 -1.7843
v  -3.2172 1.3149 -1.7810
v  -3.2172 1.3225 -1.7734
v  -3.2132 1.3355 -1.7817
v  -3.2172 1.3329 -1.7706
v  -3.2172 1.3433 -1.7734
v  -3.2172 1.3509 -1.7810
v  -3.2342 1.3565 -1.8049
v  -3.2342 1.3601 -1.7913
v  -3.2316 1.3601 -1.7913
v  -3.2316 1.3565 -1.8049
v  -3.2342 1.3465 -1.8149
v  -3.2316 1.3465 -1.8149
v  -3.2342 1.3329 -1.8185
v  -3.2316 1.3329 -1.8185
v  -3.2342 1.3193 -1.8149
v  -3.2316 1.3193 -1.8149
v  -3.2342 1.3094 -1.8049
v  -3.2316 1.3094 -1.8049
v  -3.2342 1.3057 -1.7913
v  -3.2316 1.3057 -1.7913
v  -3.2342 1.3094 -1.7778
v  -3.2316 1.3094 -1.7778
v  -3.2342 1.3193 -1.7678
v  -3.2316 1.3193 -1.7678
v  -3.2342 1.3329 -1.7642
v  -3.2316 1.3329 -1.7642
v  -3.2342 1.3465 -1.7678
v  -3.2316 1.3465 -1.7678
v  -3.2342 1.3565 -1.7778
v  -3.2316 1.3565 -1.7778
v  -3.2160 1.3565 -1.8049
v  -3.2160 1.3601 -1.7913
v  -3.2160 1.3565 -1.7778
v  -3.2160 1.3465 -1.7678
v  -3.2160 1.3329 -1.7642
v  -3.2160 1.3193 -1.7678
v  -3.2160 1.3094 -1.7778
v  -3.2160 1.3057 -1.7913
v  -3.2160 1.3094 -1.8049
v  -3.2160 1.3193 -1.8149
v  -3.2160 1.3329 -1.8185
v  -3.2160 1.3465 -1.8149
v  -3.2122 1.3329 -1.7913
v  -3.2181 1.3565 -1.8049
v  -3.2181 1.3601 -1.7913
v  -3.2181 1.3465 -1.8149
v  -3.2181 1.3329 -1.8185
v  -3.2181 1.3193 -1.8149
v  -3.2181 1.3094 -1.8049
v  -3.2181 1.3057 -1.7913
v  -3.2181 1.3094 -1.7778
v  -3.2181 1.3193 -1.7678
v  -3.2181 1.3329 -1.7642
v  -3.2181 1.3465 -1.7678
v  -3.2181 1.3565 -1.7778
# 357 vertices

vn 0.1867 -0.8588 -0.4770
vn 0.5048 -0.8632 -0.0000
vn -0.4806 -0.8770 0.0000
vn 0.0010 -0.8819 -0.4715
vn 0.4126 -0.3468 -0.8423
vn 0.0050 -0.3159 -0.9488
vn 0.0060 -0.0496 -0.9988
vn 0.4270 -0.0632 -0.9020
vn -0.8831 -0.2514 -0.3961
vn -0.9599 -0.2802 0.0000
vn -1.0000 0.0000 0.0000
vn -0.8953 -0.0261 -0.4447
vn 0.9583 -0.2859 -0.0000
vn 0.8829 -0.2995 -0.3615
vn 0.9310 -0.0631 -0.3594
vn 0.9986 -0.0533 -0.0000
vn 0.5329 -0.8286 -0.1715
vn 0.3910 0.9204 -0.0000
vn 0.3713 0.7106 -0.5977
vn -0.3217 0.7148 -0.6210
vn -0.3082 0.9513 0.0000
vn 0.0876 0.0995 -0.9912
vn -0.3179 -0.0530 -0.9466
vn -0.2553 0.0427 -0.9659
vn -0.4379 -0.7954 -0.4191
vn 0.7834 -0.6215 -0.0000
vn 0.6468 -0.3959 -0.6519
vn 0.6488 0.6121 -0.4521
vn 0.7572 0.6532 -0.0000
vn -0.8629 0.0235 -0.5049
vn -0.8906 0.4547 0.0000
vn -0.8534 0.3939 -0.3415
vn 0.1063 0.9684 -0.2256
vn 0.4011 0.6615 -0.6336
vn 0.1783 0.9634 0.2004
vn -0.2107 0.9013 0.3784
vn 0.7475 0.6642 -0.0000
vn 0.5138 0.8579 -0.0000
vn 0.2585 0.9660 -0.0000
vn 0.2948 0.9458 -0.1360
vn -0.4174 0.8991 0.1318
vn -0.5578 0.8300 0.0000
vn 0.5080 0.8614 -0.0000
vn 0.4257 0.8282 0.3644
vn -0.2540 0.8059 0.5348
vn -0.6396 0.7408 0.2053
vn 0.3822 0.4405 -0.8123
vn 0.8789 0.4770 -0.0000
vn 0.8527 0.4278 -0.2997
vn 0.9210 0.3897 -0.0000
vn 0.8778 0.3312 -0.3462
vn -0.2752 -0.2856 -0.9180
vn 0.1329 0.8700 0.4748
vn 0.5200 0.7856 0.3353
vn 0.0961 0.9954 -0.0000
vn -0.4671 0.8635 0.1903
vn 0.5179 0.8554 -0.0000
vn -0.6039 0.7970 0.0000
vn -0.7008 0.7134 0.0000
vn 0.3457 0.9284 0.1360
vn 0.1335 0.8977 0.4198
vn 0.5393 0.8421 -0.0000
vn -0.5615 0.8165 0.1343
vn -0.5925 0.8056 0.0000
vn 0.9662 -0.1837 -0.1810
vn 0.8817 0.3865 -0.2706
vn 0.7463 0.6656 -0.0000
vn 0.7881 -0.6155 -0.0000
vn 0.1867 -0.8588 0.4770
vn 0.0010 -0.8819 0.4715
vn 0.4126 -0.3468 0.8423
vn 0.4270 -0.0632 0.9020
vn 0.0060 -0.0496 0.9988
vn 0.0050 -0.3159 0.9488
vn -0.8831 -0.2514 0.3961
vn -0.8953 -0.0261 0.4447
vn 0.9310 -0.0631 0.3594
vn 0.8830 -0.2995 0.3615
vn 0.5329 -0.8286 0.1715
vn -0.3217 0.7148 0.6210
vn 0.3713 0.7106 0.5977
vn 0.0876 0.0995 0.9912
vn -0.2553 0.0427 0.9659
vn -0.3179 -0.0530 0.9466
vn -0.4379 -0.7954 0.4191
vn 0.6488 0.6121 0.4521
vn 0.6468 -0.3959 0.6519
vn -0.8629 0.0235 0.5049
vn -0.8534 0.3939 0.3415
vn 0.1063 0.9684 0.2256
vn -0.2107 0.9013 -0.3784
vn 0.1783 0.9634 -0.2004
vn 0.4011 0.6615 0.6336
vn -0.4174 0.8991 -0.1318
vn 0.2948 0.9458 0.1360
vn 0.4257 0.8282 -0.3644
vn -0.6396 0.7408 -0.2053
vn -0.2540 0.8059 -0.5348
vn 0.3822 0.4405 0.8123
vn 0.8527 0.4278 0.2997
vn 0.8778 0.3312 0.3462
vn -0.2752 -0.2856 0.9180
vn 0.1329 0.8700 -0.4748
vn 0.5200 0.7856 -0.3353
vn -0.4671 0.8635 -0.1903
vn 0.1335 0.8977 -0.4198
vn 0.3457 0.9284 -0.1360
vn -0.5615 0.8165 -0.1343
vn 0.9662 -0.1837 0.1810
vn 0.8817 0.3865 0.2706
vn 0.1363 0.9484 0.2863
vn 0.1363 0.9484 -0.2863
vn 0.0000 0.9551 -0.2962
vn 0.0000 0.9551 0.2962
vn 0.0000 0.3305 0.9438
vn 0.0634 0.3759 0.9245
vn 0.0000 -0.5947 0.8039
vn -0.0947 -0.5668 0.8184
vn 0.0001 -0.9564 0.2921
vn -0.1722 -0.9390 0.2978
vn 0.0001 -0.9564 -0.2921
vn -0.1722 -0.9390 -0.2978
vn 0.0000 -0.5948 -0.8039
vn -0.0947 -0.5668 -0.8184
vn 0.0000 0.3304 -0.9438
vn 0.0634 0.3759 -0.9245
vn 0.5234 0.8050 0.2794
vn 0.5234 0.8050 -0.2794
vn 0.2492 0.3442 0.9052
vn -0.3272 -0.4490 0.8314
vn -0.5867 -0.7512 0.3025
vn -0.5867 -0.7512 -0.3025
vn -0.3272 -0.4490 -0.8314
vn 0.2492 0.3442 -0.9052
vn 0.9668 -0.0587 0.2486
vn 0.9668 -0.0598 -0.2483
vn 0.5494 -0.3205 0.7717
vn -0.0474 -0.7874 0.6146
vn -0.2746 -0.9360 0.2204
vn -0.2767 -0.9352 -0.2210
vn -0.0489 -0.7864 -0.6158
vn 0.5495 -0.3208 -0.7715
vn 0.0006 -0.9566 0.2914
vn -0.1508 -0.9446 0.2915
vn -0.1507 -0.9446 -0.2916
vn 0.0006 -0.9566 -0.2914
vn -0.0880 -0.3519 -0.9319
vn 0.0005 -0.3195 -0.9476
vn 0.0812 0.5751 -0.8141
vn 0.0001 0.5901 -0.8073
vn 0.1736 0.9330 -0.3151
vn 0.0008 0.9495 -0.3139
vn 0.1733 0.9333 0.3145
vn 0.0008 0.9494 0.3139
vn 0.0812 0.5752 0.8139
vn 0.0001 0.5902 0.8073
vn -0.0881 -0.3521 0.9318
vn 0.0004 -0.3195 0.9476
vn -0.5293 -0.7970 -0.2907
vn -0.5293 -0.7971 0.2907
vn -0.2452 -0.2998 -0.9220
vn 0.3382 0.4740 -0.8130
vn 0.5924 0.7452 -0.3060
vn 0.5923 0.7459 0.3047
vn 0.3381 0.4740 0.8130
vn -0.2456 -0.3003 0.9217
vn 0.0456 -0.9888 -0.1424
vn 0.0432 -0.9889 0.1422
vn 0.2969 -0.8731 -0.3868
vn 0.6928 -0.4930 -0.5263
vn 0.9098 -0.3581 -0.2096
vn 0.9078 -0.3625 0.2108
vn 0.6926 -0.4963 0.5234
vn 0.2981 -0.8720 0.3882
vn 0.0000 1.0000 0.0000
vn 0.0000 0.8660 0.5000
vn -0.8490 0.4576 0.2642
vn -0.8490 0.5284 0.0000
vn 0.0000 0.5000 0.8660
vn -0.8490 0.2642 0.4577
vn 0.0000 0.0000 1.0000
vn -0.8490 0.0000 0.5284
vn 0.0000 -0.5000 0.8660
vn -0.8490 -0.2642 0.4576
vn 0.0000 -0.8660 0.5000
vn -0.8490 -0.4576 0.2642
vn 0.0000 -1.0000 -0.0000
vn -0.8490 -0.5284 0.0000
vn -0.0000 -0.8660 -0.5000
vn -0.8490 -0.4576 -0.2642
vn -0.0000 -0.5000 -0.8660
vn -0.8490 -0.2642 -0.4576
vn -0.0000 0.0000 -1.0000
vn -0.8490 0.0000 -0.5284
vn -0.0000 0.5000 -0.8660
vn -0.8490 0.2642 -0.4577
vn -0.0000 0.8660 -0.5000
vn -0.8490 0.4576 -0.2642
vn 0.9995 0.0323 0.0042
vn 0.9995 0.0301 0.0125
vn 0.9709 0.1693 0.1693
vn 0.9709 0.2313 -0.0620
vn 0.9995 0.0125 0.0301
vn 0.9995 0.0042 0.0323
vn 0.9709 -0.0620 0.2313
vn 0.9995 -0.0198 0.0259
vn 0.9995 -0.0259 0.0198
vn 0.9709 -0.2313 0.0620
vn 0.9995 -0.0323 -0.0042
vn 0.9995 -0.0301 -0.0125
vn 0.9709 -0.1693 -0.1693
vn 0.9995 -0.0125 -0.0301
vn 0.9995 -0.0042 -0.0323
vn 0.9709 0.0620 -0.2313
vn 0.9995 0.0198 -0.0259
vn 0.9995 0.0259 -0.0198
vn -0.7237 0.5977 0.3451
vn -0.7237 0.6901 0.0000
vn -0.7238 0.3451 0.5976
vn -0.7238 -0.0000 0.6901
vn -0.0000 -0.0000 1.0000
vn -0.7237 -0.3451 0.5977
vn -0.7237 -0.5977 0.3451
vn -0.7237 -0.6901 0.0000
vn -0.7237 -0.5977 -0.3451
vn -0.7237 -0.3451 -0.5977
vn -0.7237 -0.0000 -0.6901
vn -0.0000 -0.0000 -1.0000
vn -0.7237 0.3451 -0.5977
vn -0.7237 0.5977 -0.3451
vn 0.7119 0.7023 0.0000
vn 0.7119 0.6082 0.3511
vn 0.7119 0.6082 -0.3511
vn 0.7119 0.3511 -0.6082
vn 0.7119 -0.0000 -0.7023
vn 0.7119 -0.3511 -0.6082
vn 0.7119 -0.6082 -0.3511
vn 0.7119 -0.7023 -0.0000
vn 0.7119 -0.6082 0.3511
vn 0.7119 -0.3511 0.6082
vn 0.7118 0.0000 0.7023
vn 0.7119 0.3511 0.6082
vn 1.0000 -0.0000 -0.0000
vn 0.0000 -0.0000 1.0000
vn 0.0000 -0.0000 -1.0000
vn -0.8490 0.2642 -0.4576
vn -0.8490 -0.5284 -0.0000
vn -0.0000 -1.0000 -0.0000
vn -0.8490 0.2642 0.4576
vn 0.9995 0.0323 -0.0042
vn 0.9709 0.2313 0.0620
vn 0.9709 0.1693 -0.1693
vn 0.9995 0.0301 -0.0125
vn 0.9995 0.0125 -0.0301
vn 0.9709 -0.0620 -0.2313
vn 0.9995 0.0042 -0.0323
vn 0.9995 -0.0198 -0.0259
vn 0.9709 -0.2313 -0.0620
vn 0.9995 -0.0259 -0.0198
vn 0.9995 -0.0323 0.0042
vn 0.9709 -0.1693 0.1693
vn 0.9995 -0.0301 0.0125
vn 0.9995 -0.0125 0.0301
vn 0.9709 0.0620 0.2313
vn 0.9995 -0.0042 0.0323
vn 0.9995 0.0198 0.0259
vn 0.9995 0.0259 0.0198
vn -0.7238 0.6901 -0.0000
vn -0.0000 1.0000 -0.0000
vn -0.7237 -0.6901 -0.0000
vn -0.7237 -0.0000 0.6901
vn -0.7237 0.3451 0.5977
vn -0.7238 0.5976 0.3451
vn 0.7119 0.7023 -0.0000
vn 0.7119 -0.0000 0.7023
# 275 vertex normals

vt 0.2608 0.6261 0.0000
vt 0.2146 0.6367 0.0000
vt 0.2096 0.5385 0.0000
vt 0.2579 0.5641 0.0000
vt 0.2643 0.6296 0.0000
vt 0.3259 0.6195 0.0000
vt 0.3275 0.6278 0.0000
vt 0.2655 0.6380 0.0000
vt 0.3544 0.6146 0.0000
vt 0.3989 0.6043 0.0000
vt 0.4008 0.6125 0.0000
vt 0.3558 0.6229 0.0000
vt 0.2147 0.6400 0.0000
vt 0.2420 0.6382 0.0000
vt 0.2427 0.6464 0.0000
vt 0.2151 0.6482 0.0000
vt 0.2407 0.6362 0.0000
vt 0.6769 0.7171 0.0000
vt 0.6366 0.7240 0.0000
vt 0.6228 0.7073 0.0000
vt 0.6739 0.6939 0.0000
vt 0.3550 0.7772 0.0000
vt 0.3520 0.6237 0.0000
vt 0.3779 0.7732 0.0000
vt 0.2565 0.5379 0.0000
vt 0.6828 0.7630 0.0000
vt 0.6474 0.7621 0.0000
vt 0.6511 0.7515 0.0000
vt 0.6810 0.7488 0.0000
vt 0.6160 0.7877 0.0000
vt 0.5926 0.7766 0.0000
vt 0.6083 0.6381 0.0000
vt 0.6658 0.6297 0.0000
vt 0.6736 0.6908 0.0000
vt 0.6245 0.7029 0.0000
vt 0.9218 0.2498 0.0000
vt 0.8905 0.3132 0.0000
vt 0.8856 0.2984 0.0000
vt 0.9113 0.2483 0.0000
vt 0.8354 0.2923 0.0000
vt 0.8395 0.2838 0.0000
vt 0.8805 0.1994 0.0000
vt 0.9114 0.2189 0.0000
vt 0.9029 0.2239 0.0000
vt 0.8765 0.2075 0.0000
vt 0.8478 0.2668 0.0000
vt 0.8767 0.2776 0.0000
vt 0.8911 0.2456 0.0000
vt 0.8854 0.2344 0.0000
vt 0.2615 0.5638 0.0000
vt 0.9250 0.2500 0.0000
vt 0.8907 0.3173 0.0000
vt 0.2097 0.5350 0.0000
vt 0.2565 0.5346 0.0000
vt 0.8818 0.1968 0.0000
vt 0.9131 0.2165 0.0000
vt 0.6773 0.7203 0.0000
vt 0.6384 0.7270 0.0000
vt 0.2602 0.5386 0.0000
vt 0.3813 0.7725 0.0000
vt 0.5895 0.7749 0.0000
vt 0.6188 0.7077 0.0000
vt 0.6202 0.7878 0.0000
vt 0.8646 0.2367 0.0000
vt 0.8631 0.2382 0.0000
vt 0.8628 0.2358 0.0000
vt 0.8649 0.2346 0.0000
vt 0.8619 0.2376 0.0000
vt 0.8639 0.2336 0.0000
vt 0.8687 0.2237 0.0000
vt 0.8632 0.2405 0.0000
vt 0.8664 0.2378 0.0000
vt 0.8609 0.2397 0.0000
vt 0.8668 0.2336 0.0000
vt 0.8649 0.2315 0.0000
vt 0.6369 0.7675 0.0000
vt 0.6456 0.7429 0.0000
vt 0.6793 0.7361 0.0000
vt 0.6846 0.7770 0.0000
vt 0.6874 0.7992 0.0000
vt 0.1675 0.6308 0.0000
vt 0.1642 0.5688 0.0000
vt 0.1644 0.6346 0.0000
vt 0.1640 0.6431 0.0000
vt 0.1014 0.6392 0.0000
vt 0.1021 0.6308 0.0000
vt 0.0733 0.6287 0.0000
vt 0.0727 0.6372 0.0000
vt 0.0269 0.6314 0.0000
vt 0.0279 0.6230 0.0000
vt 0.1876 0.6491 0.0000
vt 0.1874 0.6409 0.0000
vt 0.1885 0.6388 0.0000
vt 0.7268 0.6940 0.0000
vt 0.7176 0.7137 0.0000
vt 0.0890 0.7905 0.0000
vt 0.0658 0.7889 0.0000
vt 0.0765 0.6375 0.0000
vt 0.1629 0.5427 0.0000
vt 0.7105 0.7439 0.0000
vt 0.7168 0.7532 0.0000
vt 0.7536 0.7701 0.0000
vt 0.7735 0.7535 0.0000
vt 0.7235 0.6234 0.0000
vt 0.7241 0.6901 0.0000
vt 0.8153 0.1981 0.0000
vt 0.8230 0.2055 0.0000
vt 0.7995 0.2566 0.0000
vt 0.7849 0.2620 0.0000
vt 0.8473 0.1969 0.0000
vt 0.8461 0.1872 0.0000
vt 0.8214 0.2508 0.0000
vt 0.8500 0.2172 0.0000
vt 0.8376 0.2197 0.0000
vt 0.1606 0.5688 0.0000
vt 0.8132 0.1958 0.0000
vt 0.7815 0.2644 0.0000
vt 0.2092 0.5351 0.0000
vt 0.1626 0.5393 0.0000
vt 0.8468 0.1844 0.0000
vt 0.7167 0.7170 0.0000
vt 0.1594 0.5437 0.0000
vt 0.0623 0.7885 0.0000
vt 0.7308 0.6934 0.0000
vt 0.7761 0.7510 0.0000
vt 0.7496 0.7713 0.0000
vt 0.8610 0.2349 0.0000
vt 0.8608 0.2371 0.0000
vt 0.8625 0.2334 0.0000
vt 0.8590 0.2342 0.0000
vt 0.8589 0.2384 0.0000
vt 0.8620 0.2313 0.0000
vt 0.7283 0.7558 0.0000
vt 0.7137 0.7342 0.0000
vt 0.2867 0.7896 0.0000
vt 0.4349 0.7600 0.0000
vt 0.2551 0.7937 0.0000
vt 0.2226 0.7960 0.0000
vt 0.3506 0.6153 0.0000
vt 0.1581 0.7960 0.0000
vt 0.0077 0.7815 0.0000
vt 0.1900 0.7970 0.0000
vt 0.0771 0.6291 0.0000
vt 0.0447 0.5655 0.0000
vt 0.0447 0.5824 0.0000
vt 0.0058 0.5824 0.0000
vt 0.0058 0.5655 0.0000
vt 0.0058 0.5611 0.0000
vt 0.0447 0.5611 0.0000
vt 0.0058 0.5530 0.0000
vt 0.0447 0.5530 0.0000
vt 0.0058 0.5485 0.0000
vt 0.0447 0.5485 0.0000
vt 0.0058 0.6105 0.0000
vt 0.0058 0.5992 0.0000
vt 0.0447 0.5992 0.0000
vt 0.0447 0.6105 0.0000
vt 0.0058 0.5947 0.0000
vt 0.0447 0.5947 0.0000
vt 0.0058 0.5868 0.0000
vt 0.0447 0.5868 0.0000
vt 0.0554 0.5655 0.0000
vt 0.0554 0.5824 0.0000
vt 0.0554 0.5611 0.0000
vt 0.0554 0.5530 0.0000
vt 0.0554 0.5485 0.0000
vt 0.0554 0.5992 0.0000
vt 0.0554 0.6105 0.0000
vt 0.0554 0.5947 0.0000
vt 0.0554 0.5868 0.0000
vt 0.0739 0.5655 0.0000
vt 0.0739 0.5824 0.0000
vt 0.0739 0.5611 0.0000
vt 0.0739 0.5530 0.0000
vt 0.0739 0.5485 0.0000
vt 0.0739 0.5992 0.0000
vt 0.0739 0.6105 0.0000
vt 0.0739 0.5947 0.0000
vt 0.0739 0.5868 0.0000
vt 0.1457 0.5824 0.0000
vt 0.1067 0.5824 0.0000
vt 0.1067 0.5655 0.0000
vt 0.1457 0.5655 0.0000
vt 0.1067 0.5611 0.0000
vt 0.1457 0.5611 0.0000
vt 0.1067 0.5530 0.0000
vt 0.1457 0.5530 0.0000
vt 0.1067 0.5485 0.0000
vt 0.1457 0.5485 0.0000
vt 0.1067 0.5992 0.0000
vt 0.1457 0.5992 0.0000
vt 0.1457 0.6105 0.0000
vt 0.1067 0.6105 0.0000
vt 0.1067 0.5947 0.0000
vt 0.1457 0.5947 0.0000
vt 0.1067 0.5868 0.0000
vt 0.1457 0.5868 0.0000
vt 0.0953 0.5655 0.0000
vt 0.0953 0.5824 0.0000
vt 0.0953 0.5611 0.0000
vt 0.0953 0.5530 0.0000
vt 0.0953 0.5485 0.0000
vt 0.0953 0.5992 0.0000
vt 0.0953 0.6105 0.0000
vt 0.0953 0.5947 0.0000
vt 0.0953 0.5868 0.0000
vt 0.0770 0.5655 0.0000
vt 0.0770 0.5824 0.0000
vt 0.0770 0.5611 0.0000
vt 0.0770 0.5530 0.0000
vt 0.0770 0.5485 0.0000
vt 0.0770 0.5992 0.0000
vt 0.0770 0.6105 0.0000
vt 0.0770 0.5947 0.0000
vt 0.0770 0.5868 0.0000
vt 0.0720 0.4537 0.0000
vt 0.0824 0.4537 0.0000
vt 0.0824 0.4696 0.0000
vt 0.0720 0.4696 0.0000
vt 0.0928 0.4537 0.0000
vt 0.0928 0.4696 0.0000
vt 0.1032 0.4537 0.0000
vt 0.1032 0.4696 0.0000
vt 0.1136 0.4537 0.0000
vt 0.1136 0.4696 0.0000
vt 0.1241 0.4537 0.0000
vt 0.1241 0.4696 0.0000
vt 0.1347 0.4537 0.0000
vt 0.1347 0.4696 0.0000
vt 0.0073 0.4537 0.0000
vt 0.0197 0.4537 0.0000
vt 0.0197 0.4696 0.0000
vt 0.0073 0.4696 0.0000
vt 0.0304 0.4537 0.0000
vt 0.0304 0.4696 0.0000
vt 0.0408 0.4537 0.0000
vt 0.0408 0.4696 0.0000
vt 0.0512 0.4537 0.0000
vt 0.0512 0.4696 0.0000
vt 0.0616 0.4537 0.0000
vt 0.0616 0.4696 0.0000
vt 0.2413 0.8962 0.0000
vt 0.2359 0.8959 0.0000
vt 0.2365 0.8900 0.0000
vt 0.2413 0.8903 0.0000
vt 0.2314 0.8929 0.0000
vt 0.2289 0.8881 0.0000
vt 0.2343 0.8857 0.0000
vt 0.2293 0.8827 0.0000
vt 0.2322 0.8782 0.0000
vt 0.2370 0.8816 0.0000
vt 0.2370 0.8758 0.0000
vt 0.2424 0.8761 0.0000
vt 0.2418 0.8819 0.0000
vt 0.2469 0.8790 0.0000
vt 0.2494 0.8838 0.0000
vt 0.2440 0.8862 0.0000
vt 0.2490 0.8892 0.0000
vt 0.2461 0.8937 0.0000
vt 0.2318 0.9073 0.0000
vt 0.2323 0.9060 0.0000
vt 0.2432 0.9067 0.0000
vt 0.2435 0.9081 0.0000
vt 0.2222 0.9008 0.0000
vt 0.2232 0.8998 0.0000
vt 0.2170 0.8903 0.0000
vt 0.2184 0.8900 0.0000
vt 0.2178 0.8786 0.0000
vt 0.2192 0.8791 0.0000
vt 0.2244 0.8690 0.0000
vt 0.2253 0.8700 0.0000
vt 0.2348 0.8638 0.0000
vt 0.2351 0.8652 0.0000
vt 0.2465 0.8647 0.0000
vt 0.2460 0.8660 0.0000
vt 0.2561 0.8712 0.0000
vt 0.2551 0.8721 0.0000
vt 0.2613 0.8816 0.0000
vt 0.2599 0.8819 0.0000
vt 0.2605 0.8933 0.0000
vt 0.2591 0.8928 0.0000
vt 0.2539 0.9030 0.0000
vt 0.2530 0.9019 0.0000
vt 0.2419 0.8993 0.0000
vt 0.2349 0.8989 0.0000
vt 0.2482 0.8961 0.0000
vt 0.2521 0.8902 0.0000
vt 0.2525 0.8832 0.0000
vt 0.2493 0.8769 0.0000
vt 0.2434 0.8730 0.0000
vt 0.2364 0.8726 0.0000
vt 0.2301 0.8758 0.0000
vt 0.2262 0.8817 0.0000
vt 0.2258 0.8888 0.0000
vt 0.2290 0.8950 0.0000
vt 0.0824 0.4788 0.0000
vt 0.0720 0.4788 0.0000
vt 0.0928 0.4788 0.0000
vt 0.1032 0.4788 0.0000
vt 0.1136 0.4788 0.0000
vt 0.1241 0.4788 0.0000
vt 0.1347 0.4788 0.0000
vt 0.0197 0.4788 0.0000
vt 0.0073 0.4788 0.0000
vt 0.0304 0.4788 0.0000
vt 0.0408 0.4788 0.0000
vt 0.0512 0.4788 0.0000
vt 0.0616 0.4788 0.0000
vt 0.2391 0.8860 0.0000
vt 0.2346 0.8999 0.0000
vt 0.2421 0.9003 0.0000
vt 0.2282 0.8957 0.0000
vt 0.2248 0.8890 0.0000
vt 0.2252 0.8814 0.0000
vt 0.2294 0.8750 0.0000
vt 0.2362 0.8716 0.0000
vt 0.2437 0.8720 0.0000
vt 0.2501 0.8762 0.0000
vt 0.2535 0.8830 0.0000
vt 0.2531 0.8906 0.0000
vt 0.2489 0.8969 0.0000
vt 0.0724 0.4249 0.0000
vt 0.0724 0.4408 0.0000
vt 0.0828 0.4408 0.0000
vt 0.0828 0.4249 0.0000
vt 0.0932 0.4408 0.0000
vt 0.0932 0.4249 0.0000
vt 0.1036 0.4408 0.0000
vt 0.1036 0.4249 0.0000
vt 0.1140 0.4408 0.0000
vt 0.1140 0.4249 0.0000
vt 0.1245 0.4408 0.0000
vt 0.1245 0.4249 0.0000
vt 0.1351 0.4408 0.0000
vt 0.1351 0.4249 0.0000
vt 0.0077 0.4249 0.0000
vt 0.0077 0.4408 0.0000
vt 0.0201 0.4408 0.0000
vt 0.0201 0.4249 0.0000
vt 0.0308 0.4408 0.0000
vt 0.0308 0.4249 0.0000
vt 0.0412 0.4408 0.0000
vt 0.0412 0.4249 0.0000
vt 0.0516 0.4408 0.0000
vt 0.0516 0.4249 0.0000
vt 0.0620 0.4408 0.0000
vt 0.0620 0.4249 0.0000
vt 0.0849 0.8949 0.0000
vt 0.0849 0.8890 0.0000
vt 0.0801 0.8887 0.0000
vt 0.0795 0.8946 0.0000
vt 0.0750 0.8916 0.0000
vt 0.0779 0.8844 0.0000
vt 0.0725 0.8868 0.0000
vt 0.0729 0.8814 0.0000
vt 0.0806 0.8803 0.0000
vt 0.0758 0.8769 0.0000
vt 0.0806 0.8745 0.0000
vt 0.0854 0.8806 0.0000
vt 0.0860 0.8748 0.0000
vt 0.0905 0.8777 0.0000
vt 0.0876 0.8850 0.0000
vt 0.0930 0.8825 0.0000
vt 0.0927 0.8879 0.0000
vt 0.0897 0.8924 0.0000
vt 0.0754 0.9060 0.0000
vt 0.0871 0.9068 0.0000
vt 0.0868 0.9054 0.0000
vt 0.0759 0.9047 0.0000
vt 0.0658 0.8995 0.0000
vt 0.0668 0.8985 0.0000
vt 0.0606 0.8890 0.0000
vt 0.0620 0.8887 0.0000
vt 0.0614 0.8773 0.0000
vt 0.0628 0.8778 0.0000
vt 0.0680 0.8677 0.0000
vt 0.0689 0.8687 0.0000
vt 0.0784 0.8626 0.0000
vt 0.0787 0.8639 0.0000
vt 0.0901 0.8634 0.0000
vt 0.0896 0.8647 0.0000
vt 0.0998 0.8699 0.0000
vt 0.0987 0.8708 0.0000
vt 0.1049 0.8804 0.0000
vt 0.1035 0.8806 0.0000
vt 0.1041 0.8920 0.0000
vt 0.1027 0.8915 0.0000
vt 0.0976 0.9017 0.0000
vt 0.0966 0.9006 0.0000
vt 0.0785 0.8976 0.0000
vt 0.0855 0.8980 0.0000
vt 0.0918 0.8948 0.0000
vt 0.0957 0.8889 0.0000
vt 0.0961 0.8819 0.0000
vt 0.0929 0.8756 0.0000
vt 0.0870 0.8717 0.0000
vt 0.0800 0.8713 0.0000
vt 0.0737 0.8745 0.0000
vt 0.0698 0.8804 0.0000
vt 0.0694 0.8875 0.0000
vt 0.0726 0.8938 0.0000
vt 0.0724 0.4499 0.0000
vt 0.0828 0.4499 0.0000
vt 0.0932 0.4499 0.0000
vt 0.1036 0.4499 0.0000
vt 0.1140 0.4499 0.0000
vt 0.1245 0.4499 0.0000
vt 0.1351 0.4499 0.0000
vt 0.0077 0.4499 0.0000
vt 0.0201 0.4499 0.0000
vt 0.0308 0.4499 0.0000
vt 0.0412 0.4499 0.0000
vt 0.0516 0.4499 0.0000
vt 0.0620 0.4499 0.0000
vt 0.0828 0.8847 0.0000
vt 0.0782 0.8986 0.0000
vt 0.0858 0.8990 0.0000
vt 0.0718 0.8945 0.0000
vt 0.0684 0.8877 0.0000
vt 0.0688 0.8801 0.0000
vt 0.0730 0.8737 0.0000
vt 0.0798 0.8703 0.0000
vt 0.0873 0.8707 0.0000
vt 0.0937 0.8749 0.0000
vt 0.0971 0.8817 0.0000
vt 0.0967 0.8893 0.0000
vt 0.0925 0.8956 0.0000
# 427 texture coords

o JailProp_Sink01
g JailProp_Sink01
usemtl JailProp_Sink01
s 1
f 465/439/369 466/440/370 467/441/371 468/442/372 
f 469/443/373 470/444/374 471/445/375 472/446/376 
f 473/447/377 474/448/378 475/449/379 476/450/380 
f 477/451/381 478/452/382 479/453/383 480/454/384 
f 465/439/369 481/455/385 466/440/370 
f 469/443/373 472/446/376 479/453/383 478/452/382 
f 482/456/386 483/457/387 484/458/388 485/459/389 
f 486/460/390 471/445/375 487/461/391 488/462/392 
f 468/442/372 467/441/371 489/463/393 
f 490/464/394 491/465/395 492/466/396 493/467/397 
f 486/468/390 488/469/392 484/458/388 483/457/387 
f 494/470/398 495/471/379 496/472/399 497/473/400 
f 498/474/401 499/475/402 500/476/403 501/477/404 
f 499/475/402 502/478/405 503/479/406 500/476/403 
f 504/480/407 505/481/408 506/482/409 507/483/410 
f 505/481/408 498/474/401 501/477/404 506/482/409 
f 500/476/403 503/479/406 508/484/411 509/485/412 
f 506/482/409 501/477/404 510/486/413 511/487/414 
f 470/488/374 469/443/373 465/439/369 468/442/372 
f 512/489/415 486/490/390 499/475/402 498/474/401 
f 474/491/378 473/492/377 489/463/393 467/441/371 
f 478/452/382 477/451/381 466/440/370 481/455/385 
f 513/493/416 514/494/417 505/481/408 504/480/407 
f 514/494/417 512/489/415 498/474/401 505/481/408 
f 469/443/373 478/452/382 481/455/385 465/439/369 
f 483/457/387 482/456/386 515/495/418 516/496/419 
f 485/459/389 484/458/388 497/473/400 496/472/399 
f 517/497/420 470/488/374 468/442/372 489/463/393 
f 488/462/392 487/461/391 476/450/380 494/498/398 
f 484/458/388 488/469/392 494/499/398 497/500/400 
f 486/468/390 483/457/387 516/496/419 499/501/402 
s 2
f 518/502/421 519/503/422 520/504/423 
f 520/504/423 521/505/424 518/502/421 
f 519/503/422 522/506/425 520/504/423 
f 520/504/423 523/507/426 521/505/424 
s 1
f 501/477/404 500/476/403 509/485/412 510/486/413 
f 507/483/410 506/482/409 511/487/414 524/508/427 
f 510/486/413 509/485/412 525/509/428 526/510/429 
f 508/484/411 527/511/430 525/509/428 509/485/412 
f 524/508/427 511/487/414 528/512/431 529/513/432 
f 511/487/414 510/486/413 526/510/429 528/512/431 
s 2
f 526/510/429 525/509/428 519/503/422 518/502/421 
f 527/511/430 522/506/425 519/503/422 525/509/428 
f 528/512/431 521/505/424 523/507/426 529/513/432 
f 526/510/429 518/502/421 521/505/424 528/512/431 
s 1
f 473/492/377 517/497/420 489/463/393 
s 8
f 530/514/433 531/515/434 492/466/396 491/465/395 
s 2
f 499/501/402 516/496/419 531/515/434 530/514/433 
s 4
f 493/467/397 492/466/396 531/515/434 532/516/435 
s 2
f 532/516/435 531/515/434 516/496/419 515/495/418 
s 4
f 491/465/395 490/464/394 533/517/436 530/514/433 
s 2
f 530/514/433 533/517/436 502/518/405 499/501/402 
s 1
f 534/519/437 535/520/438 467/441/371 466/440/370 
f 536/521/439 537/522/440 538/523/441 539/524/442 
f 540/525/443 541/526/444 475/527/379 474/528/378 
f 477/451/381 480/454/384 542/529/445 543/530/446 
f 534/519/437 466/440/370 544/531/447 
f 536/521/439 543/530/446 542/529/445 537/522/440 
f 482/456/386 485/459/389 545/532/448 546/533/449 
f 547/534/450 548/535/451 549/536/452 538/523/441 
f 535/520/438 550/537/453 467/441/371 
f 490/464/394 493/467/397 551/538/454 552/539/455 
f 547/540/450 546/533/449 545/532/448 548/541/451 
f 553/542/456 554/543/457 496/472/399 495/471/379 
f 555/544/458 556/545/459 557/546/460 558/547/461 
f 558/547/461 557/546/460 503/479/406 502/478/405 
f 504/480/407 507/483/410 559/548/462 560/549/463 
f 560/549/463 559/548/462 556/545/459 555/544/458 
f 557/546/460 561/550/464 508/484/411 503/479/406 
f 559/548/462 562/551/465 563/552/466 556/545/459 
f 539/553/442 535/520/438 534/519/437 536/521/439 
f 564/554/467 555/544/458 558/547/461 547/555/450 
f 474/556/378 467/441/371 550/537/453 540/557/443 
f 543/530/446 544/531/447 466/440/370 477/451/381 
f 513/493/416 504/480/407 560/549/463 565/558/468 
f 565/558/468 560/549/463 555/544/458 564/554/467 
f 536/521/439 534/519/437 544/531/447 543/530/446 
f 546/533/449 566/559/469 515/495/418 482/456/386 
f 485/459/389 496/472/399 554/543/457 545/532/448 
f 567/560/470 550/537/453 535/520/438 539/553/442 
f 548/535/451 553/561/456 541/526/444 549/536/452 
f 545/532/448 554/562/457 553/563/456 548/541/451 
f 547/540/450 558/564/461 566/559/469 546/533/449 
s 2
f 568/565/471 520/504/423 569/566/472 
f 520/504/423 568/565/471 570/567/473 
f 569/566/472 520/504/423 522/506/425 
f 520/504/423 570/567/473 523/507/426 
s 1
f 556/545/459 563/552/466 561/550/464 557/546/460 
f 507/483/410 524/508/427 562/551/465 559/548/462 
f 563/552/466 571/568/474 572/569/475 561/550/464 
f 508/484/411 561/550/464 572/569/475 527/511/430 
f 524/508/427 529/513/432 573/570/476 562/551/465 
f 562/551/465 573/570/476 571/568/474 563/552/466 
s 2
f 571/568/474 568/565/471 569/566/472 572/569/475 
f 527/511/430 572/569/475 569/566/472 522/506/425 
f 573/570/476 529/513/432 523/507/426 570/567/473 
f 571/568/474 573/570/476 570/567/473 568/565/471 
s 1
f 540/557/443 550/537/453 567/560/470 
s 8
f 574/571/477 552/539/455 551/538/454 575/572/478 
s 2
f 558/564/461 574/571/477 575/572/478 566/559/469 
s 4
f 493/467/397 532/516/435 575/572/478 551/538/454 
s 2
f 532/516/435 515/495/418 566/559/469 575/572/478 
s 4
f 552/539/455 574/571/477 533/517/436 490/464/394 
s 2
f 574/571/477 558/564/461 502/518/405 533/517/436 
s 1
f 471/445/375 486/460/390 512/573/415 472/446/376 
f 475/449/379 495/574/379 494/498/398 476/450/380 
f 479/453/383 514/575/417 513/576/416 480/454/384 
f 472/446/376 512/573/415 514/575/417 479/453/383 
f 471/445/375 470/444/374 517/577/420 487/461/391 
f 487/461/391 517/577/420 473/447/377 476/450/380 
f 537/522/440 564/578/467 547/534/450 538/523/441 
f 541/526/444 553/561/456 495/579/379 475/527/379 
f 480/454/384 513/576/416 565/580/468 542/529/445 
f 542/529/445 565/580/468 564/578/467 537/522/440 
f 549/536/452 567/581/470 539/524/442 538/523/441 
f 541/526/444 540/525/443 567/581/470 549/536/452 
f 576/582/479 577/583/480 578/584/481 579/585/482 
f 579/585/482 580/586/483 581/587/484 576/582/479 
f 580/586/483 582/588/485 583/589/486 581/587/484 
f 582/588/485 584/590/487 585/591/488 583/589/486 
f 584/592/487 586/593/489 587/594/490 585/595/488 
f 586/593/489 588/596/491 589/597/492 587/594/490 
f 588/596/491 590/598/493 591/599/494 589/597/492 
f 590/598/493 578/584/481 577/583/480 591/599/494 
f 577/583/480 576/582/479 592/600/495 593/601/496 
f 576/582/479 581/587/484 594/602/497 592/600/495 
f 581/587/484 583/589/486 595/603/498 594/602/497 
f 583/589/486 585/591/488 596/604/499 595/603/498 
f 585/595/488 587/594/490 597/605/500 596/606/499 
f 587/594/490 589/597/492 598/607/501 597/605/500 
f 589/597/492 591/599/494 599/608/502 598/607/501 
f 591/599/494 577/583/480 593/601/496 599/608/502 
f 593/601/496 592/600/495 600/609/503 601/610/504 
f 592/600/495 594/602/497 602/611/505 600/609/503 
f 594/602/497 595/603/498 603/612/506 602/611/505 
f 595/603/498 596/604/499 604/613/507 603/612/506 
f 596/606/499 597/605/500 605/614/508 604/615/507 
f 597/605/500 598/607/501 606/616/509 605/614/508 
f 598/607/501 599/608/502 607/617/510 606/616/509 
f 599/608/502 593/601/496 601/610/504 607/617/510 
f 608/618/511 609/619/512 610/620/513 611/621/514 
f 612/622/515 613/623/516 611/621/514 610/620/513 
f 614/624/517 615/625/518 613/623/516 612/622/515 
f 616/626/519 617/627/520 615/625/518 614/624/517 
f 618/628/521 619/629/522 617/630/520 616/631/519 
f 620/632/523 621/633/524 619/629/522 618/628/521 
f 622/634/525 623/635/526 621/633/524 620/632/523 
f 609/619/512 608/618/511 623/635/526 622/634/525 
f 624/636/527 610/620/513 609/619/512 625/637/528 
f 626/638/529 612/622/515 610/620/513 624/636/527 
f 627/639/530 614/624/517 612/622/515 626/638/529 
f 628/640/531 616/626/519 614/624/517 627/639/530 
f 629/641/532 618/628/521 616/631/519 628/642/531 
f 630/643/533 620/632/523 618/628/521 629/641/532 
f 631/644/534 622/634/525 620/632/523 630/643/533 
f 625/637/528 609/619/512 622/634/525 631/644/534 
f 632/645/535 624/636/527 625/637/528 633/646/536 
f 634/647/537 626/638/529 624/636/527 632/645/535 
f 635/648/538 627/639/530 626/638/529 634/647/537 
f 636/649/539 628/640/531 627/639/530 635/648/538 
f 637/650/540 629/641/532 628/642/531 636/651/539 
f 638/652/541 630/643/533 629/641/532 637/650/540 
f 639/653/542 631/644/534 630/643/533 638/652/541 
f 633/646/536 625/637/528 631/644/534 639/653/542 
f 601/610/504 600/609/503 632/645/535 633/646/536 
f 600/609/503 602/611/505 634/647/537 632/645/535 
f 602/611/505 603/612/506 635/648/538 634/647/537 
f 603/612/506 604/613/507 636/649/539 635/648/538 
f 604/615/507 605/614/508 637/650/540 636/651/539 
f 605/614/508 606/616/509 638/652/541 637/650/540 
f 606/616/509 607/617/510 639/653/542 638/652/541 
f 607/617/510 601/610/504 633/646/536 639/653/542 
f 640/654/543 641/655/544 642/656/545 643/657/546 
f 641/655/544 644/658/547 645/659/548 642/656/545 
f 644/658/547 646/660/549 647/661/550 645/659/548 
f 646/660/549 648/662/551 649/663/552 647/661/550 
f 648/662/551 650/664/553 651/665/554 649/663/552 
f 650/664/553 652/666/555 653/667/556 651/665/554 
f 652/668/555 654/669/557 655/670/558 653/671/556 
f 654/669/557 656/672/559 657/673/560 655/670/558 
f 656/672/559 658/674/561 659/675/562 657/673/560 
f 658/674/561 660/676/563 661/677/564 659/675/562 
f 660/676/563 662/678/565 663/679/566 661/677/564 
f 662/678/565 640/654/543 643/657/546 663/679/566 
f 664/680/567 665/681/568 666/682/569 667/683/570 
f 665/681/568 668/684/571 666/682/569 
f 668/684/571 669/685/572 670/686/573 666/682/569 
f 669/685/572 671/687/574 670/686/573 
f 671/687/574 672/688/575 673/689/576 670/686/573 
f 672/688/575 674/690/577 673/689/576 
f 674/690/577 675/691/578 676/692/579 673/689/576 
f 675/691/578 677/693/580 676/692/579 
f 677/693/580 678/694/581 679/695/582 676/692/579 
f 678/694/581 680/696/583 679/695/582 
f 680/696/583 681/697/584 667/683/570 679/695/582 
f 681/697/584 664/680/567 667/683/570 
f 682/698/585 683/699/544 684/700/543 685/701/586 
f 686/702/587 687/703/547 683/699/544 682/698/585 
f 688/704/588 689/705/589 687/703/547 686/702/587 
f 690/706/590 691/707/551 689/705/589 688/704/588 
f 692/708/591 693/709/553 691/707/551 690/706/590 
f 694/710/592 695/711/555 693/709/553 692/708/591 
f 696/712/593 697/713/557 695/711/555 694/710/592 
f 698/714/594 699/715/559 697/713/557 696/712/593 
f 700/716/595 701/717/596 699/715/559 698/714/594 
f 702/718/597 703/719/563 701/717/596 700/716/595 
f 704/720/598 705/721/565 703/719/563 702/718/597 
f 685/701/586 684/700/543 705/721/565 704/720/598 
f 665/681/568 664/680/567 706/722/599 707/723/600 
f 664/680/567 681/697/584 708/724/601 706/722/599 
f 681/697/584 680/696/583 709/725/602 708/724/601 
f 680/696/583 678/694/581 710/726/603 709/725/602 
f 678/694/581 677/693/580 711/727/604 710/726/603 
f 677/693/580 675/691/578 712/728/605 711/727/604 
f 675/691/578 674/690/577 713/729/606 712/728/605 
f 674/690/577 672/688/575 714/730/607 713/729/606 
f 672/688/575 671/687/574 715/731/608 714/730/607 
f 671/687/574 669/685/572 716/732/609 715/731/608 
f 669/685/572 668/684/571 717/733/610 716/732/609 
f 668/684/571 665/681/568 707/723/600 717/733/610 
f 643/657/546 642/656/545 682/734/585 685/735/586 
f 642/656/545 645/659/548 686/736/587 682/734/585 
f 645/659/548 647/661/550 688/737/588 686/736/587 
f 647/661/550 649/663/552 690/738/590 688/737/588 
f 649/663/552 651/665/554 692/739/591 690/738/590 
f 651/665/554 653/667/556 694/740/592 692/739/591 
f 653/671/556 655/670/558 696/741/593 694/742/592 
f 655/670/558 657/673/560 698/743/594 696/741/593 
f 657/673/560 659/675/562 700/744/595 698/743/594 
f 659/675/562 661/677/564 702/745/597 700/744/595 
f 661/677/564 663/679/566 704/746/598 702/745/597 
f 663/679/566 643/657/546 685/735/586 704/746/598 
f 666/682/569 718/747/611 667/683/570 
f 670/686/573 718/747/611 666/682/569 
f 673/689/576 718/747/611 670/686/573 
f 676/692/579 718/747/611 673/689/576 
f 679/695/582 718/747/611 676/692/579 
f 667/683/570 718/747/611 679/695/582 
f 719/748/544 707/723/600 706/722/599 720/749/543 
f 721/750/547 717/733/610 707/723/600 719/748/544 
f 722/751/612 716/732/609 717/733/610 721/750/547 
f 723/752/551 715/731/608 716/732/609 722/751/612 
f 724/753/553 714/730/607 715/731/608 723/752/551 
f 725/754/555 713/729/606 714/730/607 724/753/553 
f 726/755/557 712/728/605 713/729/606 725/754/555 
f 727/756/559 711/727/604 712/728/605 726/755/557 
f 728/757/613 710/726/603 711/727/604 727/756/559 
f 729/758/563 709/725/602 710/726/603 728/757/613 
f 730/759/565 708/724/601 709/725/602 729/758/563 
f 720/749/543 706/722/599 708/724/601 730/759/565 
f 683/699/544 719/748/544 720/749/543 684/700/543 
f 687/703/547 721/750/547 719/748/544 683/699/544 
f 689/705/589 722/751/612 721/750/547 687/703/547 
f 691/707/551 723/752/551 722/751/612 689/705/589 
f 693/709/553 724/753/553 723/752/551 691/707/551 
f 695/711/555 725/754/555 724/753/553 693/709/553 
f 697/713/557 726/755/557 725/754/555 695/711/555 
f 699/715/559 727/756/559 726/755/557 697/713/557 
f 701/717/596 728/757/613 727/756/559 699/715/559 
f 703/719/563 729/758/563 728/757/613 701/717/596 
f 705/721/565 730/759/565 729/758/563 703/719/563 
f 684/700/543 720/749/543 730/759/565 705/721/565 
f 731/760/543 732/761/546 733/762/566 734/763/565 
f 734/763/565 733/762/566 735/764/614 736/765/563 
f 736/765/563 735/764/614 737/766/562 738/767/561 
f 738/767/561 737/766/562 739/768/560 740/769/559 
f 740/769/559 739/768/560 741/770/558 742/771/557 
f 742/771/557 741/770/558 743/772/615 744/773/616 
f 744/774/616 743/775/615 745/776/554 746/777/553 
f 746/777/553 745/776/554 747/778/552 748/779/551 
f 748/779/551 747/778/552 749/780/550 750/781/549 
f 750/781/549 749/780/550 751/782/617 752/783/547 
f 752/783/547 751/782/617 753/784/545 754/785/544 
f 754/785/544 753/784/545 732/761/546 731/760/543 
f 755/786/618 756/787/619 757/788/620 758/789/621 
f 758/789/621 757/788/620 759/790/622 
f 759/790/622 757/788/620 760/791/623 761/792/624 
f 761/792/624 760/791/623 762/793/625 
f 762/793/625 760/791/623 763/794/626 764/795/627 
f 764/795/627 763/794/626 765/796/628 
f 765/796/628 763/794/626 766/797/629 767/798/630 
f 767/798/630 766/797/629 768/799/631 
f 768/799/631 766/797/629 769/800/632 770/801/633 
f 770/801/633 769/800/632 771/802/634 
f 771/802/634 769/800/632 756/787/619 772/803/635 
f 772/803/635 756/787/619 755/786/618 
f 773/804/598 774/805/636 775/806/637 776/807/565 
f 777/808/597 773/804/598 776/807/565 778/809/563 
f 779/810/595 777/808/597 778/809/563 780/811/596 
f 781/812/594 779/810/595 780/811/596 782/813/559 
f 783/814/593 781/812/594 782/813/559 784/815/557 
f 785/816/638 783/814/593 784/815/557 786/817/616 
f 787/818/591 785/816/638 786/817/616 788/819/553 
f 789/820/590 787/818/591 788/819/553 790/821/551 
f 791/822/639 789/820/590 790/821/551 792/823/589 
f 793/824/640 791/822/639 792/823/589 794/825/547 
f 795/826/641 793/824/640 794/825/547 796/827/544 
f 774/805/636 795/826/641 796/827/544 775/806/637 
f 758/789/621 797/828/601 798/829/642 755/786/618 
f 755/786/618 798/829/642 799/830/600 772/803/635 
f 772/803/635 799/830/600 800/831/610 771/802/634 
f 771/802/634 800/831/610 801/832/643 770/801/633 
f 770/801/633 801/832/643 802/833/608 768/799/631 
f 768/799/631 802/833/608 803/834/607 767/798/630 
f 767/798/630 803/834/607 804/835/606 765/796/628 
f 765/796/628 804/835/606 805/836/605 764/795/627 
f 764/795/627 805/836/605 806/837/604 762/793/625 
f 762/793/625 806/837/604 807/838/603 761/792/624 
f 761/792/624 807/838/603 808/839/602 759/790/622 
f 759/790/622 808/839/602 797/828/601 758/789/621 
f 732/761/546 774/840/636 773/841/598 733/762/566 
f 733/762/566 773/841/598 777/842/597 735/764/614 
f 735/764/614 777/842/597 779/843/595 737/766/562 
f 737/766/562 779/843/595 781/844/594 739/768/560 
f 739/768/560 781/844/594 783/845/593 741/770/558 
f 741/770/558 783/845/593 785/846/638 743/772/615 
f 743/775/615 785/847/638 787/848/591 745/776/554 
f 745/776/554 787/848/591 789/849/590 747/778/552 
f 747/778/552 789/849/590 791/850/639 749/780/550 
f 749/780/550 791/850/639 793/851/640 751/782/617 
f 751/782/617 793/851/640 795/852/641 753/784/545 
f 753/784/545 795/852/641 774/840/636 732/761/546 
f 757/788/620 756/787/619 809/853/611 
f 760/791/623 757/788/620 809/853/611 
f 763/794/626 760/791/623 809/853/611 
f 766/797/629 763/794/626 809/853/611 
f 769/800/632 766/797/629 809/853/611 
f 756/787/619 769/800/632 809/853/611 
f 810/854/565 811/855/637 798/829/642 797/828/601 
f 812/856/563 810/854/565 797/828/601 808/839/602 
f 813/857/613 812/856/563 808/839/602 807/838/603 
f 814/858/559 813/857/613 807/838/603 806/837/604 
f 815/859/557 814/858/559 806/837/604 805/836/605 
f 816/860/616 815/859/557 805/836/605 804/835/606 
f 817/861/553 816/860/616 804/835/606 803/834/607 
f 818/862/551 817/861/553 803/834/607 802/833/608 
f 819/863/612 818/862/551 802/833/608 801/832/643 
f 820/864/547 819/863/612 801/832/643 800/831/610 
f 821/865/544 820/864/547 800/831/610 799/830/600 
f 811/855/637 821/865/544 799/830/600 798/829/642 
f 776/807/565 775/806/637 811/855/637 810/854/565 
f 778/809/563 776/807/565 810/854/565 812/856/563 
f 780/811/596 778/809/563 812/856/563 813/857/613 
f 782/813/559 780/811/596 813/857/613 814/858/559 
f 784/815/557 782/813/559 814/858/559 815/859/557 
f 786/817/616 784/815/557 815/859/557 816/860/616 
f 788/819/553 786/817/616 816/860/616 817/861/553 
f 790/821/551 788/819/553 817/861/553 818/862/551 
f 792/823/589 790/821/551 818/862/551 819/863/612 
f 794/825/547 792/823/589 819/863/612 820/864/547 
f 796/827/544 794/825/547 820/864/547 821/865/544 
f 775/806/637 796/827/544 821/865/544 811/855/637 
# 314 polygons - 38 triangles

