# 3ds Max Wavefront OBJ Exporter v0.99 - (c)2007 guruware
# File Created: 31.12.2025 20:14:38

mtllib JailProp_Floor_A.mtl

#
# object JailProp_Floor_A
#

v  -3.7891 -0.8920 -4.5150
v  0.4390 -0.8920 -4.5150
v  0.4390 -0.8888 -3.6740
v  -3.7859 -0.8888 -3.6740
v  -3.5062 0.1417 -4.5150
v  0.4390 0.1417 -4.5150
v  3.5322 0.1158 2.2985
v  3.5144 0.1336 -2.3860
v  1.7550 0.1336 -2.3860
v  1.7550 0.1158 2.2985
v  -3.7631 -0.8660 4.5150
v  0.4390 -0.8660 4.5150
v  0.4390 0.1158 2.2985
v  -3.5322 0.1158 2.2985
v  1.7550 -0.8920 -4.5150
v  1.7550 -0.8888 -3.6740
v  1.7550 0.1417 -4.5150
v  -3.5094 0.1385 -3.6740
v  0.4390 0.1385 -3.6740
v  1.7550 -0.8660 4.5150
v  1.7550 0.1385 -3.6740
v  3.7891 -0.8920 -4.5150
v  3.7859 -0.8888 -3.6740
v  3.5062 0.1417 -4.5150
v  3.7631 -0.8660 4.5150
v  0.4390 -0.8839 -2.3860
v  -3.7809 -0.8839 -2.3860
v  3.5094 0.1385 -3.6740
v  1.7550 -0.8839 -2.3860
v  -3.5144 0.1336 -2.3860
v  0.4390 0.1336 -2.3860
v  3.7809 -0.8839 -2.3860
v  1.6208 0.1380 -3.5426
v  1.6208 0.1341 -2.5174
v  0.5732 0.1380 -3.5426
v  0.5732 0.1341 -2.5174
v  1.4739 0.1351 -2.8102
v  1.4739 0.1370 -3.2492
v  1.3361 -0.0411 -3.1142
v  1.3361 -0.0422 -2.9449
v  1.3231 0.1377 -3.3988
v  0.8709 0.1377 -3.3988
v  1.0086 -0.0401 -3.2640
v  1.1854 -0.0401 -3.2640
v  0.7201 0.1370 -3.2492
v  0.7201 0.1351 -2.8102
v  0.8579 -0.0422 -2.9449
v  0.8579 -0.0411 -3.1142
v  0.8709 0.1345 -2.6611
v  1.3231 0.1345 -2.6611
v  1.1854 -0.0433 -2.7959
v  1.0086 -0.0433 -2.7959
v  1.4362 0.1375 -3.3614
v  1.4362 0.1346 -2.6984
v  0.7578 0.1375 -3.3614
v  0.7578 0.1346 -2.6984
v  1.2984 -0.0403 -3.2266
v  1.2984 -0.0430 -2.8332
v  0.8956 -0.0403 -3.2266
v  0.8956 -0.0430 -2.8332
v  1.0970 -0.1053 -3.0298
# 61 vertices

vn -0.6570 -0.5018 -0.5626
vn -0.0000 -0.7085 -0.7058
vn 0.0000 -1.0000 0.0038
vn -0.7937 -0.6083 0.0054
vn -0.4874 0.6414 -0.5924
vn -0.0000 0.7085 -0.7058
vn 0.5765 0.8039 0.1463
vn 0.6110 0.7917 0.0007
vn 0.0000 1.0000 0.0038
vn 0.0000 0.9779 0.2089
vn -0.5623 -0.1664 0.8100
vn 0.0000 -0.2057 0.9786
vn -0.5765 0.8039 0.1463
vn -0.6083 0.7937 0.0007
vn -0.0000 1.0000 0.0038
vn 0.6570 -0.5018 -0.5626
vn 0.7937 -0.6083 0.0054
vn 0.4874 0.6414 -0.5924
vn 0.5623 -0.1664 0.8100
vn 0.0000 -1.0000 0.0032
vn -0.7917 -0.6109 0.0045
vn 0.6083 0.7937 0.0007
vn -0.6110 0.7917 0.0007
vn 0.7917 -0.6109 0.0045
vn 0.0001 1.0000 0.0037
vn -0.0001 1.0000 0.0037
vn -0.3615 0.9297 -0.0703
vn -0.3591 0.9300 0.0781
vn -0.5444 0.8355 0.0745
vn -0.5458 0.8354 -0.0643
vn -0.0740 0.9278 0.3657
vn 0.0740 0.9278 0.3657
vn 0.0684 0.8301 0.5534
vn -0.0684 0.8301 0.5534
vn 0.3591 0.9300 0.0781
vn 0.3615 0.9297 -0.0703
vn 0.5458 0.8354 -0.0643
vn 0.5444 0.8355 0.0745
vn 0.0746 0.9289 -0.3628
vn -0.0746 0.9289 -0.3628
vn -0.0687 0.8334 -0.5483
vn 0.0687 0.8334 -0.5483
vn -0.1857 0.9641 0.1900
vn -0.1879 0.9648 -0.1840
vn 0.1857 0.9641 0.1900
vn 0.1879 0.9648 -0.1840
vn -0.3648 0.8531 0.3731
vn -0.3666 0.8551 -0.3666
vn 0.3648 0.8531 0.3731
vn 0.3666 0.8551 -0.3666
vn -0.0000 1.0000 0.0062
# 51 vertex normals

vt -0.0833 0.0000 1.0000
vt 0.0101 0.0000 1.0000
vt 0.0833 0.0000 1.0000
vt 0.0413 0.0000 1.0000
vt 0.0351 0.0000 1.0000
vt 0.0163 0.0000 1.0000
vt 0.0199 0.0000 1.0000
vt 0.0315 0.0000 1.0000
vt 0.0257 0.0000 1.0000
# 9 texture coords

o JailProp_Floor_A
g JailProp_Floor_A
usemtl Material__65
s 1
f 1/1/1 2/2/2 3/2/3 4/1/4 
s 2
f 5/1/5 6/2/6 2/2/2 1/1/1 
s 4
f 7/3/7 8/3/8 9/4/9 10/4/10 
f 11/1/11 12/2/12 13/2/10 14/1/13 
s 1
f 2/2/2 15/4/2 16/4/3 3/2/3 
s 2
f 6/2/6 17/4/6 15/4/2 2/2/2 
s 4
f 6/2/6 5/1/5 18/1/14 19/2/9 
f 12/2/12 20/4/12 10/4/10 13/2/10 
f 17/4/6 6/2/6 19/2/9 21/4/15 
s 1
f 15/4/2 22/3/16 23/3/17 16/4/3 
s 2
f 17/4/6 24/3/18 22/3/16 15/4/2 
s 4
f 20/4/12 25/3/19 7/3/7 10/4/10 
s 1
f 3/2/3 26/2/20 27/1/21 4/1/4 
s 4
f 28/3/22 24/3/18 17/4/6 21/4/15 
s 1
f 16/4/3 29/4/20 26/2/20 3/2/3 
s 4
f 18/1/14 30/1/23 31/2/15 19/2/9 
s 1
f 23/3/17 32/3/24 29/4/20 16/4/3 
s 4
f 8/3/8 28/3/22 21/4/15 9/4/9 
s 1
f 26/2/20 12/2/12 11/1/11 27/1/21 
f 29/4/20 20/4/12 12/2/12 26/2/20 
s 4
f 30/1/23 14/1/13 13/2/10 31/2/15 
f 31/2/15 13/2/10 10/4/10 9/4/9 
s 1
f 32/3/24 25/3/19 20/4/12 29/4/20 
s 4
f 9/4/9 21/4/15 33/4/25 34/4/26 
f 21/4/15 19/2/9 35/2/26 33/4/25 
f 19/2/9 31/2/15 36/2/25 35/2/26 
f 31/2/15 9/4/9 34/4/26 36/2/25 
s 8
f 1/1/1 4/1/4 18/1/14 5/1/5 
f 32/3/24 8/3/8 7/3/7 25/3/19 
f 4/1/4 27/1/21 30/1/23 18/1/14 
f 22/3/16 24/3/18 28/3/22 23/3/17 
f 23/3/17 28/3/22 8/3/8 32/3/24 
f 27/1/21 11/1/11 14/1/13 30/1/23 
s 1
f 37/4/27 38/4/28 39/4/29 40/4/30 
f 41/5/31 42/6/32 43/7/33 44/8/34 
f 45/2/35 46/2/36 47/2/37 48/2/38 
f 49/6/39 50/5/40 51/8/41 52/7/42 
s 4
f 33/4/25 53/4/43 38/4/28 
f 37/4/27 54/4/44 34/4/26 
f 35/2/26 55/2/45 42/6/32 
f 41/5/31 53/4/43 33/4/25 
f 36/2/25 56/2/46 46/2/36 
f 45/2/35 55/2/45 35/2/26 
f 34/4/26 54/4/44 50/5/40 
f 49/6/39 56/2/46 36/2/25 
s 1
f 39/4/29 38/4/28 53/4/43 57/4/47 
f 37/4/27 40/4/30 58/4/48 54/4/44 
f 43/7/33 42/6/32 55/2/45 59/2/49 
f 41/5/31 44/8/34 57/4/47 53/4/43 
f 47/2/37 46/2/36 56/2/46 60/2/50 
f 45/2/35 48/2/38 59/2/49 55/2/45 
f 51/8/41 50/5/40 54/4/44 58/4/48 
f 49/6/39 52/7/42 60/2/50 56/2/46 
f 47/2/37 60/2/50 61/9/51 
f 60/2/50 52/7/42 61/9/51 
f 52/7/42 51/8/41 61/9/51 
f 51/8/41 58/4/48 61/9/51 
f 58/4/48 40/4/30 61/9/51 
f 40/4/30 39/4/29 61/9/51 
f 39/4/29 57/4/47 61/9/51 
f 57/4/47 44/8/34 61/9/51 
f 44/8/34 43/7/33 61/9/51 
f 43/7/33 59/2/49 61/9/51 
f 59/2/49 48/2/38 61/9/51 
f 48/2/38 47/2/37 61/9/51 
s 4
f 33/4/25 38/4/28 37/4/27 34/4/26 
f 35/2/26 42/6/32 41/5/31 33/4/25 
f 36/2/25 46/2/36 45/2/35 35/2/26 
f 34/4/26 50/5/40 49/6/39 36/2/25 
# 49 polygons - 20 triangles

