# 3ds Max Wavefront OBJ Exporter v0.99 - (c)2007 guruware
# File Created: 31.12.2025 20:10:10

mtllib JailProp_LeftWall_A.mtl

#
# object JailProp_LeftWall_A
#

v  3.5062 0.1417 -4.5150
v  3.5062 1.6945 -4.5150
v  3.7891 1.3533 -4.5150
v  3.7891 -0.8920 -4.5150
v  3.5322 3.3018 2.2985
v  3.5236 3.2932 0.0448
v  3.5236 1.8772 0.0448
v  3.5322 1.8781 2.2985
v  3.7731 -0.8760 1.0602
v  3.5223 0.1257 -0.3083
v  3.5062 3.2758 -4.5150
v  3.5223 3.2918 -0.3083
v  3.7731 3.6238 1.0602
v  3.7891 3.6398 -4.5150
v  3.7631 -0.8660 4.5150
v  3.7631 1.3535 4.5150
v  3.5322 1.6943 2.2985
v  3.5322 0.1158 2.2985
v  3.5223 1.8771 -0.3083
v  3.7717 -0.8746 1.5281
v  3.5236 0.1244 0.0448
v  3.7631 3.6139 4.5150
v  3.7717 3.6225 1.5281
v  3.5062 1.8754 -4.5150
v  3.7891 1.6148 -4.5150
v  3.5236 1.6943 0.0448
v  3.7631 1.6120 4.5150
v  3.5223 1.6943 -0.3083
v  3.6496 1.6943 0.0448
v  3.6482 1.6943 -0.3083
v  3.6482 1.8771 -0.3083
v  3.6496 1.8772 0.0448
# 32 vertices

vn -0.7293 -0.0977 -0.6771
vn -0.7085 0.0000 -0.7058
vn 0.0000 0.0000 -1.0000
vn -0.9505 -0.2601 -0.1699
vn -0.9546 0.2961 0.0313
vn -0.9488 0.3160 0.0024
vn -0.9053 -0.3025 -0.2982
vn -0.9986 0.0000 0.0538
vn -0.9694 -0.2456 -0.0021
vn -0.9927 -0.1205 0.0033
vn -0.7271 0.2485 -0.6400
vn -0.9485 0.3167 0.0024
vn -0.7968 0.6042 -0.0006
vn -0.7275 0.5653 -0.3889
vn -0.9951 -0.0638 0.0754
vn -0.9946 0.0000 0.1036
vn -0.9946 -0.0973 0.0353
vn -0.9037 -0.3005 0.3048
vn -0.9698 -0.2440 -0.0021
vn -0.9928 -0.1194 0.0033
vn -0.9933 0.0672 0.0940
vn -0.7975 0.6034 -0.0006
vn -0.9053 0.3025 -0.2983
vn -0.9038 0.3006 0.3047
vn -0.5785 0.5772 -0.5764
vn -0.5762 0.5775 0.5783
vn -0.5762 -0.5774 0.5784
vn -0.5785 -0.5773 -0.5763
# 28 vertex normals

vt 1.3711 0.1519 0.0000
vt 1.3711 0.3801 0.0000
vt 1.3295 0.3300 0.0000
vt 1.3295 -0.0000 0.0000
vt 1.0000 0.4676 0.0000
vt 0.6692 0.4663 0.0000
vt 0.6692 0.2585 0.0000
vt 1.0000 0.2587 0.0000
vt 0.0000 1.3239 0.0000
vt 0.8195 1.3263 0.0000
vt 0.6184 1.4782 0.0000
vt 0.0001 1.4814 0.0000
vt 0.1526 1.4822 0.0000
vt 0.7709 1.4852 0.0000
vt 0.9720 1.5462 0.0000
vt 0.1526 1.5500 0.0000
vt 0.3275 0.6648 0.0000
vt 0.3275 0.9910 0.0000
vt 0.0000 1.0411 0.0000
vt 0.0000 0.8091 0.0000
vt 0.6174 0.4661 0.0000
vt 0.6174 0.2585 0.0000
vt 0.8882 1.3265 0.0000
vt 1.3273 1.3278 0.0000
vt 1.0016 1.4762 0.0000
vt 0.6703 1.4779 0.0000
vt 0.8228 1.4854 0.0000
vt 1.1540 1.4870 0.0000
vt 1.4798 1.5438 0.0000
vt 1.0408 1.5459 0.0000
vt 0.0000 0.4638 0.0000
vt 0.0000 0.2582 0.0000
vt 1.3711 0.4067 0.0000
vt 1.3295 0.3684 0.0000
vt 0.6692 0.2317 0.0000
vt 0.6692 0.0013 0.0000
vt 1.0000 -0.0000 0.0000
vt 1.0000 0.2317 0.0000
vt 0.3275 1.0290 0.0000
vt 0.0000 1.0681 0.0000
vt 0.6174 0.2317 0.0000
vt 0.6174 0.0015 0.0000
vt 0.0000 0.2317 0.0000
vt 0.0000 0.0038 0.0000
vt 1.3711 0.6125 0.0000
vt 1.3295 0.6660 0.0000
vt 0.3275 1.3232 0.0000
vt 0.0000 1.2773 0.0000
vt 0.6692 0.2055 0.0000
vt 0.6174 0.2055 0.0000
vt 0.6174 0.2583 0.0000
vt 0.5904 0.2583 0.0000
vt 0.5904 0.2846 0.0000
vt 0.6174 0.2846 0.0000
vt 0.6961 0.2317 0.0000
vt 0.6961 0.2055 0.0000
vt 0.6695 0.2586 0.0000
vt 0.6695 0.2849 0.0000
# 58 texture coords

o JailProp_LeftWall_A
g JailProp_LeftWall_A
usemtl JailProp_LeftWall_N
s 1
f 1/1/1 2/2/2 3/3/3 4/4/4 
s off
f 5/5/5 6/6/6 7/7/7 8/8/8 
f 4/9/4 9/10/9 10/11/10 1/12/1 
f 11/13/11 12/14/12 13/15/13 14/16/14 
f 15/17/15 16/18/16 17/19/8 18/20/17 
f 6/6/6 12/21/12 19/22/18 7/7/7 
f 20/23/19 15/24/15 18/25/17 21/26/20 
f 6/27/6 5/28/5 22/29/21 23/30/22 
f 9/10/9 20/23/19 21/26/20 10/11/10 
f 12/14/12 6/27/6 23/30/22 13/15/13 
f 12/21/12 11/31/11 24/32/2 19/22/18 
s 1
f 2/2/2 24/33/2 25/34/3 3/3/3 
s off
f 26/35/23 21/36/20 18/37/17 17/38/8 
f 16/18/16 27/39/16 8/40/8 17/19/8 
f 28/41/24 10/42/10 21/36/20 26/35/23 
f 2/43/2 1/44/1 10/42/10 28/41/24 
f 7/7/7 26/35/23 17/38/8 8/8/8 
f 24/32/2 2/43/2 28/41/24 19/22/18 
s 1
f 24/33/2 11/45/11 14/46/14 25/34/3 
s off
f 27/39/16 22/47/21 5/48/5 8/40/8 
f 28/41/24 26/35/23 29/49/25 30/50/26 
f 19/51/18 28/52/24 30/53/26 31/54/27 
f 26/35/23 7/55/7 32/56/28 29/49/25 
f 7/57/7 19/51/18 31/54/27 32/58/28 
f 31/22/27 30/41/26 29/35/25 32/7/28 
# 25 polygons

