# 3ds Max Wavefront OBJ Exporter v0.99 - (c)2007 guruware
# File Created: 01.01.2026 02:33:31

mtllib JailProp_Floor_N.mtl

#
# object JailProp_Floor_N
#

v  -3.5062 0.1417 -4.5150
v  0.4390 0.1417 -4.5150
v  0.4390 -0.8920 -4.5150
v  -3.7891 -0.8920 -4.5150
v  -3.7859 -0.8888 -3.6740
v  -3.5094 0.1385 -3.6740
v  -3.7631 -0.8660 4.5150
v  0.4702 -0.8660 4.5150
v  0.4414 0.1158 2.2985
v  -3.5322 0.1158 2.2985
v  3.7631 -0.8660 4.5150
v  3.7809 -0.8839 -2.3860
v  3.5143 0.1336 -2.3861
v  3.5322 0.1158 2.2985
v  3.5062 0.1417 -4.5150
v  1.7550 0.1417 -4.5150
v  1.7550 0.1385 -3.6740
v  3.5094 0.1385 -3.6740
v  1.7550 -0.8920 -4.5150
v  1.8816 -0.8660 4.5150
v  1.7661 0.1158 2.2985
v  0.4385 0.1385 -3.6741
v  -3.7809 -0.8839 -2.3860
v  -3.5144 0.1336 -2.3860
v  3.7859 -0.8888 -3.6740
v  0.4390 0.1336 -2.3860
v  1.7572 0.1336 -2.3861
v  3.7891 -0.8920 -4.5150
v  1.7193 0.1200 -3.6391
v  1.7193 0.1200 -2.4209
v  0.4747 0.1200 -2.4209
v  0.4747 0.1200 -3.6391
v  1.0970 0.1200 -3.0300
# 33 vertices

vn -0.4874 0.6414 -0.5924
vn -0.0000 0.7085 -0.7058
vn -0.0000 0.0000 -1.0000
vn -0.7423 0.2031 -0.6386
vn -0.9656 0.2598 0.0027
vn -0.6083 0.7937 0.0007
vn -0.2577 0.8931 0.3688
vn 0.0000 0.9143 0.4050
vn 0.0000 0.9779 0.2089
vn -0.5765 0.8039 0.1463
vn 0.2577 0.8931 0.3688
vn 0.9673 0.2535 0.0023
vn 0.6110 0.7917 0.0007
vn 0.5765 0.8039 0.1463
vn 0.4874 0.6414 -0.5924
vn -0.0627 0.9958 0.0663
vn 0.6083 0.7937 0.0007
vn 0.0623 0.9959 0.0656
vn -0.9673 0.2534 0.0023
vn -0.6110 0.7917 0.0007
vn 0.9656 0.2598 0.0027
vn 0.0477 0.9979 -0.0436
vn -0.0468 0.9980 -0.0419
vn 0.7423 0.2031 -0.6386
vn -0.1805 0.9660 0.1851
vn -0.1281 0.9814 -0.1427
vn 0.1367 0.9806 -0.1404
vn 0.1781 0.9665 0.1850
vn -0.0000 1.0000 -0.0000
# 29 vertex normals

vt 0.9963 0.9950 0.0000
vt 0.4379 0.9950 0.0000
vt 0.4378 0.8586 0.0000
vt 1.0367 0.8586 0.0000
vt -0.1489 0.9939 0.0000
vt -0.1480 0.8703 0.0000
vt 0.0149 0.8701 0.0000
vt 0.0155 0.9938 0.0000
vt 0.9953 0.9983 0.0000
vt 0.4381 0.9983 0.0000
vt 0.4374 0.5454 0.0000
vt 0.9954 0.5454 0.0000
vt 1.1206 -0.3384 0.0000
vt 1.1305 0.6759 0.0000
vt 1.0040 0.6823 0.0000
vt 1.0068 -0.0106 0.0000
vt 0.0010 0.0038 0.0000
vt 0.2502 0.0038 0.0000
vt 0.2507 0.1266 0.0000
vt 0.0015 0.1266 0.0000
vt 0.2516 0.9950 0.0000
vt 0.2514 0.8584 0.0000
vt 0.2523 0.9983 0.0000
vt 0.2514 0.5454 0.0000
vt 0.4375 0.0038 0.0000
vt 0.9990 0.0038 0.0000
vt 0.9985 0.1266 0.0000
vt 0.4377 0.1265 0.0000
vt -0.1461 0.6816 0.0000
vt -0.1448 -0.3344 0.0000
vt 0.0102 -0.0085 0.0000
vt 0.0138 0.6806 0.0000
vt 1.1256 0.8721 0.0000
vt 1.0033 0.8728 0.0000
vt 0.4378 0.3145 0.0000
vt 0.2511 0.3145 0.0000
vt 0.9979 0.3145 0.0000
vt 0.0037 0.9950 0.0000
vt -0.0367 0.8586 0.0000
vt 0.0047 0.9983 0.0000
vt 0.0034 0.5454 0.0000
vt 0.0021 0.3145 0.0000
vt 1.1236 0.9973 0.0000
vt 1.0028 0.9972 0.0000
vt 0.2557 0.1318 0.0000
vt 0.2565 0.3094 0.0000
vt 0.4327 0.3094 0.0000
vt 0.4325 0.1301 0.0000
vt 0.3442 0.2206 0.0000
# 49 texture coords

o JailProp_Floor_N
g JailProp_Floor_N
usemtl JailProp_Floor
s 1
f 1/1/1 2/2/2 3/3/3 4/4/4 
s off
f 4/5/4 5/6/5 6/7/6 1/8/1 
f 7/9/7 8/10/8 9/11/9 10/12/10 
f 11/13/11 12/14/12 13/15/13 14/16/14 
f 15/17/15 16/18/2 17/19/16 18/20/17 
s 1
f 2/2/2 16/21/2 19/22/3 3/3/3 
s off
f 8/10/8 20/23/8 21/24/9 9/11/9 
f 2/25/2 1/26/1 6/27/6 22/28/18 
f 23/29/19 7/30/7 10/31/10 24/32/20 
f 12/14/12 25/33/21 18/34/17 13/15/13 
f 26/35/22 9/10/9 21/23/9 27/36/23 
f 24/37/20 10/9/10 9/10/9 26/35/22 
f 16/18/2 2/25/2 22/28/18 17/19/16 
s 1
f 16/21/2 15/38/15 28/39/24 19/22/3 
s off
f 20/23/8 11/40/11 14/41/14 21/24/9 
f 21/23/9 14/40/14 13/42/13 27/36/23 
f 5/6/5 23/29/19 24/32/20 6/7/6 
f 17/19/16 27/36/23 13/42/13 18/20/17 
f 6/27/6 24/37/20 26/35/22 22/28/18 
f 25/33/21 28/43/24 15/44/15 18/34/17 
f 27/36/23 17/19/16 29/45/25 30/46/26 
f 22/28/18 26/35/22 31/47/27 32/48/28 
f 26/35/22 27/36/23 30/46/26 31/47/27 
f 29/45/25 17/19/16 22/28/18 32/48/28 
f 33/49/29 31/47/27 30/46/26 
f 32/48/28 31/47/27 33/49/29 
f 30/46/26 29/45/25 33/49/29 
f 33/49/29 29/45/25 32/48/28 
# 24 polygons - 4 triangles

