# 3ds Max Wavefront OBJ Exporter v0.99 - (c)2007 guruware
# File Created: 31.12.2025 20:54:48

mtllib JailProp_FrontWall.mtl

#
# object JailProp_FrontWall
#

v  -3.5322 3.3018 2.2985
v  -1.1150 3.3018 2.2985
v  -1.1150 0.7530 2.2985
v  -3.5322 0.7530 2.2985
v  3.7631 -0.8660 4.5150
v  -0.2390 -0.8660 4.5150
v  -0.2390 0.1158 2.2985
v  3.5322 0.1158 2.2985
v  -3.7631 -0.8660 4.5150
v  -3.7631 0.2100 4.5150
v  -3.5322 0.2100 2.2985
v  -3.5322 0.1158 2.2985
v  -3.7631 3.6139 4.5150
v  -1.1150 3.6139 4.5150
v  3.7631 3.6139 4.5150
v  3.7631 0.7530 4.5150
v  3.5322 0.7530 2.2985
v  3.5322 3.3018 2.2985
v  -0.2390 3.3018 2.2985
v  -0.2390 0.7530 2.2985
v  -1.1150 -0.8660 4.5150
v  -1.1150 0.1158 2.2985
v  -0.2390 3.6139 4.5150
v  -1.1150 0.2100 2.2985
v  -3.7631 0.7530 4.5150
v  3.7631 0.2100 4.5150
v  3.5322 0.2100 2.2985
v  -0.2390 0.7530 3.0848
v  -0.2390 0.2100 3.0848
v  -1.1150 0.2100 3.0848
v  -1.1150 0.7530 3.0848
v  -0.2390 0.2100 2.2985
v  -0.2390 0.2100 2.6917
v  -0.2390 0.7530 2.6917
v  -1.1150 0.2100 2.6917
v  -1.1150 0.7530 2.6917
v  0.1048 0.2100 2.6917
v  0.1048 0.2100 3.0848
v  0.1048 0.7530 3.0848
v  0.1048 0.7530 2.6917
v  -1.4588 0.7530 2.6917
v  -1.4588 0.7530 3.0848
v  -1.4588 0.2100 3.0848
v  -1.4588 0.2100 2.6917
# 44 vertices

vn -0.5499 0.5359 -0.6407
vn 0.0000 0.6560 -0.7548
vn 0.3015 -0.3015 -0.9045
vn -0.6694 0.0000 -0.7429
vn 0.6011 -0.7056 -0.3752
vn 0.0000 -0.9143 -0.4050
vn 0.0000 -0.5454 -0.8382
vn 0.5648 -0.4355 -0.7010
vn -0.6011 -0.7056 -0.3752
vn -0.9946 0.0000 -0.1036
vn -0.5648 -0.4355 -0.7010
vn -0.6895 0.7039 -0.1710
vn -0.0000 0.9902 -0.1394
vn 0.6895 0.7039 -0.1710
vn 0.9946 0.0000 -0.1036
vn 0.6695 0.0000 -0.7428
vn 0.5499 0.5359 -0.6407
vn -0.3015 -0.3015 -0.9045
vn 0.0000 0.9902 -0.1394
vn 0.3015 0.3015 -0.9045
vn 0.0000 -0.7071 -0.7071
vn 0.0000 0.7071 -0.7071
vn -0.3015 0.3015 -0.9045
vn -0.3015 0.9045 0.3015
vn -0.3015 -0.9045 0.3015
vn 0.3015 0.9045 0.3015
vn 0.3015 -0.9045 0.3015
vn -0.5774 0.5774 0.5774
vn -0.5774 0.5774 -0.5774
vn -0.5774 -0.5774 -0.5774
vn -0.5774 -0.5774 0.5774
vn 0.5774 -0.5774 0.5774
vn 0.5774 -0.5774 -0.5774
vn 0.5774 0.5774 -0.5774
vn 0.5774 0.5774 0.5774
# 35 vertex normals

vt 1.0585 0.7558 0.0000
vt 0.6909 0.7558 0.0000
vt 0.6909 0.4183 0.0000
vt 1.0585 0.4183 0.0000
vt 0.0000 0.3390 0.0000
vt 0.5328 0.3389 0.0000
vt 0.5307 0.6610 0.0000
vt 0.0307 0.6610 0.0000
vt 1.3953 0.1296 0.0000
vt 1.3953 0.2915 0.0000
vt 1.0598 0.2915 0.0000
vt 1.0598 0.2774 0.0000
vt 1.0000 0.6487 0.0000
vt 0.6530 0.6488 0.0000
vt 0.6433 0.3514 0.0000
vt 0.9693 0.3513 0.0000
vt -0.3338 0.8018 0.0000
vt -0.3338 0.3736 0.0000
vt -0.0003 0.3736 0.0000
vt -0.0003 0.7551 0.0000
vt 0.5639 0.7558 0.0000
vt 0.5639 0.4183 0.0000
vt 0.6530 0.3388 0.0000
vt 1.0000 0.3390 0.0000
vt 0.9693 0.6610 0.0000
vt 0.6433 0.6609 0.0000
vt 0.5328 0.6487 0.0000
vt 0.5307 0.3513 0.0000
vt 0.0000 0.7558 0.0000
vt -0.0000 0.4183 0.0000
vt 0.0000 0.6487 0.0000
vt 0.0307 0.3513 0.0000
vt 0.6909 0.3144 0.0000
vt 1.0585 0.3144 0.0000
vt 1.3953 0.3733 0.0000
vt 1.3953 0.8039 0.0000
vt 1.0598 0.7570 0.0000
vt 1.0598 0.3733 0.0000
vt -0.3338 0.2924 0.0000
vt -0.0003 0.2924 0.0000
vt 0.5639 0.3144 0.0000
vt 0.0000 0.3144 0.0000
vt 0.6909 0.2785 0.0000
vt 1.0585 0.2785 0.0000
vt -0.3338 0.1313 0.0000
vt -0.0003 0.2783 0.0000
vt 0.5639 0.2785 0.0000
vt 0.0000 0.2785 0.0000
vt 0.6910 0.4186 0.0000
vt 0.6910 0.3143 0.0000
vt 0.7665 0.3143 0.0000
vt 0.7665 0.4186 0.0000
vt 0.6908 0.2579 0.0000
vt 0.5639 0.2579 0.0000
vt 0.5639 0.2009 0.0000
vt 0.6908 0.2009 0.0000
vt 0.5636 0.3143 0.0000
vt 0.5636 0.4186 0.0000
vt 0.4881 0.4186 0.0000
vt 0.4881 0.3143 0.0000
vt 0.5638 0.4186 0.0000
vt 0.6909 0.4186 0.0000
vt 0.6909 0.4756 0.0000
vt 0.5638 0.4756 0.0000
vt 0.4215 0.3147 0.0000
vt 0.4970 0.3147 0.0000
vt 0.4970 0.4189 0.0000
vt 0.4215 0.4189 0.0000
vt 0.5639 0.2576 0.0000
vt 0.6905 0.2576 0.0000
vt 0.6905 0.3144 0.0000
vt 0.8343 0.4174 0.0000
vt 0.7588 0.4174 0.0000
vt 0.7588 0.3131 0.0000
vt 0.8343 0.3131 0.0000
vt 0.6910 0.4756 0.0000
vt 0.6910 0.5328 0.0000
vt 0.5635 0.5328 0.0000
vt 0.5635 0.4756 0.0000
vt 0.5639 0.4188 0.0000
vt 0.4976 0.4188 0.0000
vt 0.4976 0.3144 0.0000
vt 0.4983 0.4178 0.0000
vt 0.4983 0.4754 0.0000
vt 0.5644 0.4754 0.0000
vt 0.5644 0.4178 0.0000
vt 0.4965 0.3136 0.0000
vt 0.4965 0.2604 0.0000
vt 0.5625 0.2604 0.0000
vt 0.5625 0.3136 0.0000
vt 0.6909 0.3140 0.0000
vt 0.7569 0.3140 0.0000
vt 0.7569 0.4183 0.0000
vt 0.7569 0.2573 0.0000
vt 0.7569 0.3145 0.0000
vt 0.6909 0.3145 0.0000
vt 0.6909 0.2573 0.0000
# 97 texture coords

o JailProp_FrontWall
g JailProp_FrontWall
usemtl JailProp_LeftWall_N
s 1
f 1/1/1 2/2/2 3/3/3 4/4/4 
s 2
f 5/5/5 6/6/6 7/7/7 8/8/8 
s 4
f 9/9/9 10/10/10 11/11/4 12/12/11 
s 2
f 13/13/12 14/14/13 2/15/2 1/16/1 
s 4
f 15/17/14 16/18/15 17/19/16 18/20/17 
s 1
f 2/2/2 19/21/2 20/22/18 3/3/3 
s 2
f 21/23/6 9/24/9 12/25/11 22/26/7 
f 14/14/13 23/27/19 19/28/2 2/15/2 
f 6/6/6 21/23/6 22/26/7 7/7/7 
s 1
f 19/21/2 18/29/17 17/30/16 20/22/18 
s 2
f 23/27/19 15/31/14 18/32/17 19/28/2 
s 1
f 3/3/3 24/33/20 11/34/4 4/4/4 
s 4
f 25/35/10 13/36/12 1/37/1 4/38/4 
f 16/18/15 26/39/15 27/40/16 17/19/16 
s 1
f 28/22/21 29/41/22 30/33/22 31/3/21 
f 17/30/16 27/42/16 32/41/23 20/22/18 
s 4
f 10/10/10 25/35/10 4/38/4 11/11/4 
s 1
f 24/33/20 22/43/7 12/44/11 11/34/4 
s 4
f 26/39/15 5/45/5 8/46/8 27/40/16 
s 1
f 32/41/23 7/47/7 22/43/7 24/33/20 
f 27/42/16 8/48/8 7/47/7 32/41/23 
s off
f 20/49/18 32/50/23 33/51/24 34/52/25 
f 32/53/23 24/54/20 35/55/26 33/56/24 
f 24/57/20 3/58/3 36/59/27 35/60/26 
f 3/61/3 20/62/18 34/63/25 36/64/27 
f 37/65/28 38/66/29 39/67/30 40/68/31 
f 35/41/26 30/69/22 29/70/22 33/71/24 
f 41/72/32 42/73/33 43/74/34 44/75/35 
f 34/76/25 28/77/21 31/78/21 36/79/27 
f 29/41/22 28/80/21 39/81/30 38/82/29 
f 28/83/21 34/84/25 40/85/31 39/86/30 
f 34/22/25 33/41/24 37/41/28 40/22/31 
f 33/87/24 29/88/22 38/89/29 37/90/28 
f 31/3/21 30/91/22 43/92/34 42/93/33 
f 30/94/22 35/95/26 44/96/35 43/97/34 
f 35/33/26 36/3/27 41/3/32 44/33/35 
f 36/3/27 31/3/21 42/3/33 41/3/32 
# 37 polygons

