# 3ds Max Wavefront OBJ Exporter v0.99 - (c)2007 guruware
# File Created: 18.12.2025 20:26:21

mtllib 11??_7? ?? ?????\???_???\PW_Baton.mtl

#
# object PW_Baton_low
#

v  0.0367 0.5180 0.0098
v  0.0367 0.5180 -0.0098
v  0.0310 0.5308 -0.0083
v  0.0310 0.5308 0.0083
v  0.0268 0.5180 -0.0268
v  0.0227 0.5308 -0.0227
v  0.0098 0.5180 -0.0367
v  0.0083 0.5308 -0.0310
v  -0.0098 0.5180 -0.0367
v  -0.0083 0.5308 -0.0310
v  -0.0268 0.5180 -0.0268
v  -0.0227 0.5308 -0.0227
v  -0.0367 0.5180 -0.0098
v  -0.0310 0.5308 -0.0083
v  -0.0367 0.5180 0.0098
v  -0.0310 0.5308 0.0083
v  -0.0268 0.5180 0.0268
v  -0.0227 0.5308 0.0227
v  -0.0098 0.5180 0.0367
v  -0.0083 0.5308 0.0310
v  0.0098 0.5180 0.0367
v  0.0083 0.5308 0.0310
v  0.0268 0.5180 0.0268
v  0.0227 0.5308 0.0227
v  0.0190 0.5361 -0.0051
v  0.0190 0.5361 0.0051
v  0.0139 0.5361 -0.0139
v  0.0051 0.5361 -0.0190
v  -0.0051 0.5361 -0.0190
v  -0.0139 0.5361 -0.0139
v  -0.0190 0.5361 -0.0051
v  -0.0190 0.5361 0.0051
v  -0.0139 0.5361 0.0139
v  -0.0051 0.5361 0.0190
v  0.0051 0.5361 0.0190
v  0.0139 0.5361 0.0139
v  -0.0000 0.5381 -0.0000
v  0.0224 0.1650 -0.0000
v  0.0304 0.1544 0.0175
v  0.0304 0.1544 -0.0175
v  0.0112 0.1650 -0.0193
v  -0.0000 0.1544 -0.0350
v  -0.0112 0.1650 -0.0193
v  -0.0304 0.1544 -0.0175
v  -0.0223 0.1650 -0.0000
v  -0.0304 0.1544 0.0175
v  -0.0112 0.1650 0.0193
v  -0.0000 0.1544 0.0350
v  0.0112 0.1650 0.0194
v  0.0303 0.1500 0.0175
v  0.0220 0.1444 0.0058
v  0.0220 0.1444 -0.0058
v  0.0303 0.1500 -0.0175
v  0.0160 0.1444 -0.0161
v  0.0060 0.1444 -0.0219
v  -0.0000 0.1500 -0.0350
v  -0.0060 0.1444 -0.0219
v  -0.0160 0.1444 -0.0161
v  -0.0303 0.1500 -0.0175
v  -0.0220 0.1444 -0.0058
v  -0.0220 0.1444 0.0058
v  -0.0303 0.1500 0.0175
v  -0.0160 0.1444 0.0161
v  -0.0060 0.1444 0.0219
v  -0.0000 0.1500 0.0350
v  0.0060 0.1444 0.0219
v  0.0160 0.1444 0.0161
v  0.0307 0.1534 0.0177
v  0.0307 0.1534 -0.0177
v  -0.0000 0.1534 -0.0354
v  -0.0307 0.1534 -0.0177
v  -0.0307 0.1534 0.0177
v  -0.0000 0.1534 0.0354
v  0.0307 0.1511 0.0177
v  0.0307 0.1511 -0.0177
v  0.0000 0.1511 -0.0354
v  -0.0307 0.1511 -0.0177
v  -0.0307 0.1511 0.0177
v  -0.0000 0.1511 0.0354
v  0.0215 0.0004 -0.0058
v  0.0215 0.0004 0.0058
v  0.0255 -0.0030 0.0068
v  0.0255 -0.0030 -0.0068
v  0.0157 0.0004 -0.0157
v  0.0187 -0.0030 -0.0187
v  0.0058 0.0004 -0.0215
v  0.0068 -0.0030 -0.0255
v  -0.0058 0.0004 -0.0215
v  -0.0068 -0.0030 -0.0255
v  -0.0157 0.0004 -0.0157
v  -0.0187 -0.0030 -0.0187
v  -0.0215 0.0004 -0.0058
v  -0.0255 -0.0030 -0.0068
v  -0.0215 0.0004 0.0058
v  -0.0255 -0.0030 0.0068
v  -0.0157 0.0004 0.0157
v  -0.0187 -0.0030 0.0187
v  -0.0058 0.0004 0.0215
v  -0.0068 -0.0030 0.0255
v  0.0058 0.0004 0.0215
v  0.0068 -0.0030 0.0255
v  0.0157 0.0004 0.0157
v  0.0187 -0.0030 0.0187
v  0.0272 -0.0065 -0.0073
v  0.0272 -0.0065 0.0073
v  0.0275 -0.0076 0.0074
v  0.0275 -0.0076 -0.0074
v  0.0199 -0.0065 -0.0199
v  0.0201 -0.0076 -0.0201
v  0.0073 -0.0065 -0.0272
v  0.0074 -0.0076 -0.0275
v  -0.0073 -0.0065 -0.0272
v  -0.0074 -0.0076 -0.0275
v  -0.0199 -0.0065 -0.0199
v  -0.0201 -0.0076 -0.0201
v  -0.0272 -0.0065 -0.0073
v  -0.0275 -0.0076 -0.0074
v  -0.0272 -0.0065 0.0073
v  -0.0275 -0.0076 0.0074
v  -0.0199 -0.0065 0.0199
v  -0.0201 -0.0076 0.0201
v  -0.0073 -0.0065 0.0272
v  -0.0074 -0.0076 0.0275
v  0.0073 -0.0065 0.0272
v  0.0074 -0.0076 0.0275
v  0.0199 -0.0065 0.0199
v  0.0201 -0.0076 0.0201
v  0.0272 -0.0135 -0.0073
v  0.0272 -0.0135 0.0073
v  0.0145 -0.0186 0.0039
v  0.0145 -0.0186 -0.0039
v  0.0199 -0.0135 -0.0199
v  0.0107 -0.0186 -0.0107
v  0.0073 -0.0135 -0.0272
v  0.0039 -0.0186 -0.0145
v  -0.0073 -0.0135 -0.0272
v  -0.0039 -0.0186 -0.0145
v  -0.0199 -0.0135 -0.0199
v  -0.0107 -0.0186 -0.0107
v  -0.0272 -0.0135 -0.0073
v  -0.0145 -0.0186 -0.0039
v  -0.0272 -0.0135 0.0073
v  -0.0145 -0.0186 0.0039
v  -0.0199 -0.0135 0.0199
v  -0.0107 -0.0186 0.0107
v  -0.0073 -0.0135 0.0272
v  -0.0039 -0.0186 0.0145
v  0.0073 -0.0135 0.0272
v  0.0039 -0.0186 0.0145
v  0.0199 -0.0135 0.0199
v  0.0107 -0.0186 0.0107
v  -0.0000 -0.0187 -0.0000
v  0.0369 0.5068 -0.0099
v  0.0369 0.5068 0.0099
v  0.0270 0.5068 -0.0270
v  0.0099 0.5068 -0.0369
v  -0.0099 0.5068 -0.0369
v  -0.0270 0.5068 -0.0270
v  -0.0369 0.5068 -0.0099
v  -0.0369 0.5068 0.0099
v  -0.0270 0.5068 0.0270
v  -0.0099 0.5068 0.0369
v  0.0099 0.5068 0.0369
v  0.0270 0.5068 0.0270
v  0.0217 0.0105 0.0058
v  0.0217 0.0036 0.0058
v  0.0217 0.0036 -0.0058
v  0.0217 0.0105 -0.0058
v  0.0191 0.0655 0.0051
v  0.0192 0.0525 0.0051
v  0.0192 0.0525 -0.0051
v  0.0191 0.0655 -0.0051
v  0.0217 0.1332 -0.0058
v  0.0217 0.1401 -0.0058
v  0.0217 0.1401 0.0058
v  0.0217 0.1332 0.0058
v  0.0159 0.0036 -0.0159
v  0.0159 0.0105 -0.0159
v  0.0141 0.0525 -0.0141
v  0.0140 0.0655 -0.0140
v  0.0159 0.1332 -0.0159
v  0.0159 0.1401 -0.0159
v  0.0058 0.0036 -0.0217
v  0.0058 0.0105 -0.0217
v  0.0051 0.0525 -0.0192
v  0.0051 0.0655 -0.0191
v  0.0058 0.1332 -0.0217
v  0.0058 0.1401 -0.0217
v  -0.0058 0.0036 -0.0217
v  -0.0058 0.0105 -0.0217
v  -0.0051 0.0525 -0.0192
v  -0.0051 0.0655 -0.0191
v  -0.0058 0.1332 -0.0217
v  -0.0058 0.1401 -0.0217
v  -0.0159 0.0036 -0.0159
v  -0.0159 0.0105 -0.0159
v  -0.0141 0.0525 -0.0141
v  -0.0140 0.0655 -0.0140
v  -0.0159 0.1332 -0.0159
v  -0.0159 0.1401 -0.0159
v  -0.0217 0.0036 -0.0058
v  -0.0217 0.0105 -0.0058
v  -0.0192 0.0525 -0.0051
v  -0.0191 0.0655 -0.0051
v  -0.0217 0.1332 -0.0058
v  -0.0217 0.1401 -0.0058
v  -0.0217 0.0036 0.0058
v  -0.0217 0.0105 0.0058
v  -0.0192 0.0525 0.0051
v  -0.0191 0.0655 0.0051
v  -0.0217 0.1332 0.0058
v  -0.0217 0.1401 0.0058
v  -0.0159 0.0036 0.0159
v  -0.0159 0.0105 0.0159
v  -0.0141 0.0525 0.0141
v  -0.0140 0.0655 0.0140
v  -0.0159 0.1332 0.0159
v  -0.0159 0.1401 0.0159
v  -0.0058 0.0036 0.0217
v  -0.0058 0.0105 0.0217
v  -0.0051 0.0525 0.0192
v  -0.0051 0.0655 0.0191
v  -0.0058 0.1332 0.0217
v  -0.0058 0.1401 0.0217
v  0.0058 0.0036 0.0217
v  0.0058 0.0105 0.0217
v  0.0051 0.0525 0.0192
v  0.0051 0.0655 0.0191
v  0.0058 0.1332 0.0217
v  0.0058 0.1401 0.0217
v  0.0159 0.0036 0.0159
v  0.0159 0.0105 0.0159
v  0.0141 0.0525 0.0141
v  0.0140 0.0655 0.0140
v  0.0159 0.1332 0.0159
v  0.0159 0.1401 0.0159
v  0.0275 -0.0120 0.0074
v  0.0275 -0.0120 -0.0074
v  0.0201 -0.0120 -0.0201
v  0.0074 -0.0120 -0.0275
v  -0.0074 -0.0120 -0.0275
v  -0.0201 -0.0120 -0.0201
v  -0.0275 -0.0120 -0.0074
v  -0.0275 -0.0120 0.0074
v  -0.0201 -0.0120 0.0201
v  -0.0074 -0.0120 0.0275
v  0.0074 -0.0120 0.0275
v  0.0201 -0.0120 0.0201
v  0.0243 0.1663 -0.0065
v  0.0241 0.1677 -0.0064
v  0.0241 0.1677 0.0064
v  0.0243 0.1663 0.0065
v  0.0178 0.1663 -0.0178
v  0.0176 0.1677 -0.0176
v  0.0065 0.1663 -0.0243
v  0.0064 0.1677 -0.0241
v  -0.0065 0.1663 -0.0243
v  -0.0064 0.1677 -0.0241
v  -0.0178 0.1663 -0.0178
v  -0.0176 0.1677 -0.0176
v  -0.0243 0.1663 -0.0065
v  -0.0241 0.1677 -0.0064
v  -0.0243 0.1663 0.0065
v  -0.0241 0.1677 0.0064
v  -0.0178 0.1663 0.0178
v  -0.0176 0.1677 0.0176
v  -0.0065 0.1663 0.0243
v  -0.0064 0.1677 0.0241
v  0.0065 0.1663 0.0243
v  0.0064 0.1677 0.0241
v  0.0178 0.1663 0.0178
v  0.0176 0.1677 0.0176
v  0.0205 0.1698 -0.0055
v  0.0205 0.1707 -0.0055
v  0.0205 0.1707 0.0055
v  0.0205 0.1698 0.0055
v  0.0150 0.1698 -0.0148
v  0.0150 0.1707 -0.0148
v  0.0055 0.1698 -0.0207
v  0.0055 0.1707 -0.0207
v  -0.0055 0.1698 -0.0205
v  -0.0055 0.1707 -0.0205
v  -0.0150 0.1698 -0.0150
v  -0.0150 0.1707 -0.0150
v  -0.0205 0.1698 -0.0055
v  -0.0205 0.1707 -0.0055
v  -0.0205 0.1698 0.0055
v  -0.0205 0.1707 0.0055
v  -0.0150 0.1698 0.0150
v  -0.0150 0.1707 0.0150
v  -0.0055 0.1698 0.0205
v  -0.0055 0.1707 0.0205
v  0.0055 0.1698 0.0205
v  0.0055 0.1707 0.0205
v  0.0150 0.1698 0.0150
v  0.0150 0.1707 0.0150
v  0.0196 0.0296 0.0052
v  0.0196 0.0296 -0.0052
v  0.0143 0.0296 -0.0143
v  0.0052 0.0296 -0.0196
v  -0.0052 0.0296 -0.0196
v  -0.0143 0.0296 -0.0143
v  -0.0196 0.0296 -0.0052
v  -0.0196 0.0296 0.0052
v  -0.0143 0.0296 0.0143
v  -0.0052 0.0296 0.0196
v  0.0052 0.0296 0.0196
v  0.0143 0.0296 0.0143
v  -0.0057 0.1177 0.0213
v  0.0057 0.1177 0.0213
v  0.0156 0.1177 0.0156
v  0.0213 0.1177 0.0057
v  0.0213 0.1177 -0.0057
v  0.0156 0.1177 -0.0156
v  0.0057 0.1177 -0.0213
v  -0.0057 0.1177 -0.0213
v  -0.0156 0.1177 -0.0156
v  -0.0213 0.1177 -0.0057
v  -0.0213 0.1177 0.0057
v  -0.0156 0.1177 0.0156
v  -0.0173 0.1690 0.0173
v  -0.0063 0.1690 0.0236
v  0.0063 0.1690 0.0236
v  0.0173 0.1690 0.0173
v  0.0236 0.1690 0.0063
v  0.0236 0.1690 -0.0063
v  0.0173 0.1690 -0.0173
v  0.0063 0.1690 -0.0236
v  -0.0063 0.1690 -0.0236
v  -0.0173 0.1690 -0.0173
v  -0.0236 0.1690 -0.0063
v  -0.0236 0.1690 0.0063
v  -0.0053 0.0852 0.0198
v  0.0053 0.0852 0.0198
v  0.0145 0.0852 0.0145
v  0.0198 0.0852 0.0053
v  0.0198 0.0852 -0.0053
v  0.0145 0.0852 -0.0145
v  0.0053 0.0852 -0.0198
v  -0.0053 0.0852 -0.0198
v  -0.0145 0.0852 -0.0145
v  -0.0198 0.0852 -0.0053
v  -0.0198 0.0852 0.0053
v  -0.0145 0.0852 0.0145
# 344 vertices

vn 0.9428 0.2176 0.2526
vn 0.9428 0.2176 -0.2526
vn 0.7012 0.6877 -0.1879
vn 0.7012 0.6877 0.1879
vn 0.6902 0.2176 -0.6902
vn 0.5133 0.6877 -0.5133
vn 0.2526 0.2176 -0.9428
vn 0.1879 0.6877 -0.7012
vn -0.2526 0.2176 -0.9428
vn -0.1879 0.6877 -0.7012
vn -0.6902 0.2176 -0.6902
vn -0.5133 0.6877 -0.5133
vn -0.9428 0.2176 -0.2526
vn -0.7012 0.6877 -0.1879
vn -0.9428 0.2176 0.2526
vn -0.7012 0.6877 0.1879
vn -0.6902 0.2176 0.6902
vn -0.5133 0.6877 0.5133
vn -0.2526 0.2176 0.9428
vn -0.1879 0.6877 0.7012
vn 0.2526 0.2176 0.9428
vn 0.1879 0.6877 0.7012
vn 0.6902 0.2176 0.6902
vn 0.5133 0.6877 0.5133
vn 0.2648 0.9617 -0.0709
vn 0.2648 0.9617 0.0709
vn 0.1938 0.9617 -0.1938
vn 0.0709 0.9617 -0.2648
vn -0.0709 0.9617 -0.2648
vn -0.1938 0.9617 -0.1938
vn -0.2648 0.9617 -0.0709
vn -0.2648 0.9617 0.0709
vn -0.1938 0.9617 0.1938
vn -0.0709 0.9617 0.2648
vn 0.0709 0.9617 0.2648
vn 0.1938 0.9617 0.1938
vn -0.0000 1.0000 0.0000
vn 0.9840 -0.1784 -0.0005
vn 0.7381 0.5230 0.4262
vn 0.7378 0.5234 -0.4263
vn 0.4910 -0.1845 -0.8514
vn -0.0000 0.5238 -0.8518
vn -0.4914 -0.1846 -0.8511
vn -0.7377 0.5238 -0.4259
vn -0.9828 -0.1846 -0.0000
vn -0.7377 0.5238 0.4259
vn -0.4918 -0.1845 0.8509
vn -0.0003 0.5234 0.8521
vn 0.4915 -0.1784 0.8524
vn 0.6913 -0.6023 0.3991
vn 0.8047 -0.5682 0.1723
vn 0.8047 -0.5682 -0.1723
vn 0.6913 -0.6023 -0.3991
vn 0.5515 -0.5682 -0.6107
vn 0.2531 -0.5682 -0.7830
vn -0.0000 -0.6023 -0.7982
vn -0.2531 -0.5682 -0.7830
vn -0.5515 -0.5682 -0.6107
vn -0.6913 -0.6023 -0.3991
vn -0.8047 -0.5682 -0.1723
vn -0.8047 -0.5682 0.1723
vn -0.6913 -0.6023 0.3991
vn -0.5515 -0.5682 0.6107
vn -0.2531 -0.5682 0.7830
vn -0.0000 -0.6023 0.7983
vn 0.2531 -0.5682 0.7830
vn 0.5515 -0.5682 0.6107
vn 0.8549 0.1601 0.4936
vn 0.8549 0.1601 -0.4935
vn -0.0000 0.1601 -0.9871
vn -0.8549 0.1601 -0.4936
vn -0.8549 0.1601 0.4936
vn 0.0000 0.1601 0.9871
vn 0.8546 -0.1618 0.4934
vn 0.8546 -0.1618 -0.4934
vn -0.0000 -0.1618 -0.9868
vn -0.8546 -0.1618 -0.4934
vn -0.8546 -0.1618 0.4934
vn 0.0000 -0.1618 0.9868
vn 0.8709 0.4325 -0.2334
vn 0.8709 0.4325 0.2334
vn 0.7672 0.6076 0.2056
vn 0.7672 0.6076 -0.2056
vn 0.6375 0.4325 -0.6375
vn 0.5616 0.6076 -0.5616
vn 0.2334 0.4325 -0.8709
vn 0.2056 0.6076 -0.7672
vn -0.2334 0.4325 -0.8709
vn -0.2056 0.6076 -0.7672
vn -0.6375 0.4325 -0.6375
vn -0.5616 0.6076 -0.5616
vn -0.8709 0.4325 -0.2334
vn -0.7672 0.6076 -0.2056
vn -0.8709 0.4325 0.2334
vn -0.7672 0.6076 0.2056
vn -0.6375 0.4325 0.6375
vn -0.5616 0.6076 0.5616
vn -0.2334 0.4325 0.8709
vn -0.2056 0.6076 0.7672
vn 0.2334 0.4325 0.8709
vn 0.2056 0.6076 0.7672
vn 0.6375 0.4325 0.6375
vn 0.5616 0.6076 0.5616
vn 0.9069 0.3441 -0.2430
vn 0.9069 0.3441 0.2430
vn 0.9586 0.1226 0.2569
vn 0.9586 0.1226 -0.2569
vn 0.6639 0.3441 -0.6639
vn 0.7018 0.1226 -0.7018
vn 0.2430 0.3441 -0.9069
vn 0.2569 0.1226 -0.9586
vn -0.2430 0.3441 -0.9069
vn -0.2569 0.1226 -0.9586
vn -0.6639 0.3441 -0.6639
vn -0.7018 0.1226 -0.7018
vn -0.9069 0.3441 -0.2430
vn -0.9586 0.1226 -0.2569
vn -0.9069 0.3441 0.2430
vn -0.9586 0.1226 0.2569
vn -0.6639 0.3441 0.6639
vn -0.7018 0.1226 0.7018
vn -0.2430 0.3441 0.9069
vn -0.2569 0.1226 0.9586
vn 0.2430 0.3441 0.9069
vn 0.2569 0.1226 0.9586
vn 0.6639 0.3441 0.6639
vn 0.7018 0.1226 0.7018
vn 0.7593 -0.6182 -0.2034
vn 0.7593 -0.6182 0.2034
vn 0.2080 -0.9765 0.0557
vn 0.2080 -0.9765 -0.0557
vn 0.5558 -0.6182 -0.5558
vn 0.1523 -0.9765 -0.1523
vn 0.2034 -0.6182 -0.7593
vn 0.0557 -0.9765 -0.2080
vn -0.2034 -0.6182 -0.7593
vn -0.0557 -0.9765 -0.2080
vn -0.5558 -0.6182 -0.5558
vn -0.1523 -0.9765 -0.1523
vn -0.7593 -0.6182 -0.2034
vn -0.2080 -0.9765 -0.0557
vn -0.7593 -0.6182 0.2034
vn -0.2080 -0.9765 0.0557
vn -0.5558 -0.6182 0.5558
vn -0.1523 -0.9765 0.1523
vn -0.2034 -0.6182 0.7593
vn -0.0557 -0.9765 0.2080
vn 0.2034 -0.6182 0.7593
vn 0.0557 -0.9765 0.2080
vn 0.5558 -0.6182 0.5558
vn 0.1523 -0.9765 0.1523
vn -0.0000 -1.0000 0.0000
vn 0.9658 -0.0144 -0.2588
vn 0.9658 -0.0144 0.2588
vn 0.7070 -0.0146 -0.7071
vn 0.2588 -0.0141 -0.9658
vn -0.2588 -0.0144 -0.9658
vn -0.7070 -0.0144 -0.7070
vn -0.9658 -0.0144 -0.2588
vn -0.9658 -0.0144 0.2588
vn -0.7070 -0.0144 0.7070
vn -0.2588 -0.0144 0.9658
vn 0.2588 -0.0144 0.9658
vn 0.7070 -0.0144 0.7070
vn 0.9644 0.0560 0.2584
vn 0.9656 -0.0278 0.2587
vn 0.9656 -0.0278 -0.2587
vn 0.9644 0.0560 -0.2584
vn 0.9658 -0.0135 0.2588
vn 0.9659 0.0118 0.2588
vn 0.9659 0.0118 -0.2588
vn 0.9658 -0.0135 -0.2588
vn 0.9658 -0.0138 -0.2588
vn 0.9649 -0.0337 -0.2604
vn 0.9649 -0.0337 0.2604
vn 0.9658 -0.0138 0.2588
vn 0.7068 -0.0278 -0.7068
vn 0.7060 0.0560 -0.7060
vn 0.7071 0.0118 -0.7071
vn 0.7070 -0.0135 -0.7070
vn 0.7070 -0.0138 -0.7070
vn 0.7080 -0.0337 -0.7054
vn 0.2587 -0.0278 -0.9656
vn 0.2584 0.0560 -0.9644
vn 0.2588 0.0118 -0.9659
vn 0.2588 -0.0135 -0.9658
vn 0.2588 -0.0138 -0.9658
vn 0.2569 -0.0337 -0.9658
vn -0.2587 -0.0278 -0.9656
vn -0.2584 0.0560 -0.9644
vn -0.2588 0.0118 -0.9659
vn -0.2588 -0.0135 -0.9658
vn -0.2588 -0.0138 -0.9658
vn -0.2569 -0.0337 -0.9658
vn -0.7068 -0.0278 -0.7068
vn -0.7060 0.0560 -0.7060
vn -0.7071 0.0118 -0.7071
vn -0.7070 -0.0135 -0.7070
vn -0.7070 -0.0138 -0.7070
vn -0.7080 -0.0337 -0.7054
vn -0.9656 -0.0278 -0.2587
vn -0.9644 0.0560 -0.2584
vn -0.9659 0.0118 -0.2588
vn -0.9658 -0.0135 -0.2588
vn -0.9658 -0.0138 -0.2588
vn -0.9649 -0.0337 -0.2604
vn -0.9656 -0.0278 0.2587
vn -0.9644 0.0560 0.2584
vn -0.9659 0.0118 0.2588
vn -0.9658 -0.0135 0.2588
vn -0.9658 -0.0138 0.2588
vn -0.9649 -0.0337 0.2604
vn -0.7068 -0.0278 0.7068
vn -0.7060 0.0560 0.7060
vn -0.7071 0.0118 0.7071
vn -0.7070 -0.0135 0.7070
vn -0.7070 -0.0138 0.7070
vn -0.7080 -0.0337 0.7054
vn -0.2587 -0.0278 0.9656
vn -0.2584 0.0560 0.9644
vn -0.2588 0.0118 0.9659
vn -0.2588 -0.0135 0.9658
vn -0.2588 -0.0138 0.9658
vn -0.2569 -0.0337 0.9658
vn 0.2587 -0.0278 0.9656
vn 0.2584 0.0560 0.9644
vn 0.2588 0.0118 0.9659
vn 0.2588 -0.0135 0.9658
vn 0.2588 -0.0138 0.9658
vn 0.2569 -0.0337 0.9658
vn 0.7068 -0.0278 0.7068
vn 0.7060 0.0560 0.7060
vn 0.7071 0.0118 0.7071
vn 0.7070 -0.0135 0.7070
vn 0.7070 -0.0138 0.7070
vn 0.7080 -0.0337 0.7055
vn 0.9599 -0.1117 0.2572
vn 0.9599 -0.1117 -0.2572
vn 0.7027 -0.1117 -0.7027
vn 0.2572 -0.1117 -0.9599
vn -0.2572 -0.1117 -0.9599
vn -0.7027 -0.1117 -0.7027
vn -0.9599 -0.1117 -0.2572
vn -0.9599 -0.1117 0.2572
vn -0.7027 -0.1117 0.7027
vn -0.2572 -0.1117 0.9599
vn 0.2572 -0.1117 0.9599
vn 0.7027 -0.1117 0.7027
vn 0.8429 -0.4753 -0.2522
vn 0.9309 0.2670 -0.2494
vn 0.9309 0.2670 0.2494
vn 0.8429 -0.4753 0.2522
vn 0.6390 -0.4767 -0.6037
vn 0.6814 0.2670 -0.6814
vn 0.2033 -0.4767 -0.8552
vn 0.2494 0.2670 -0.9309
vn -0.2033 -0.4767 -0.8552
vn -0.2494 0.2670 -0.9309
vn -0.6390 -0.4767 -0.6037
vn -0.6814 0.2670 -0.6814
vn -0.8423 -0.4767 -0.2515
vn -0.9309 0.2670 -0.2494
vn -0.8423 -0.4767 0.2515
vn -0.9309 0.2670 0.2494
vn -0.6390 -0.4767 0.6037
vn -0.6814 0.2670 0.6814
vn -0.2033 -0.4767 0.8552
vn -0.2494 0.2670 0.9309
vn 0.2031 -0.4753 0.8561
vn 0.2494 0.2670 0.9309
vn 0.6398 -0.4753 0.6039
vn 0.6814 0.2670 0.6814
vn 0.7322 0.6510 -0.2003
vn 0.9637 -0.0442 -0.2632
vn 0.9650 -0.0442 0.2585
vn 0.7341 0.6500 0.1967
vn 0.5450 0.6498 -0.5299
vn 0.7145 -0.0446 -0.6982
vn 0.2016 0.6485 -0.7340
vn 0.2651 -0.0437 -0.9632
vn -0.2047 0.6478 -0.7338
vn -0.2678 -0.0442 -0.9624
vn -0.5374 0.6499 -0.5374
vn -0.7065 -0.0442 -0.7064
vn -0.7341 0.6499 -0.1967
vn -0.9650 -0.0442 -0.2586
vn -0.7341 0.6499 0.1967
vn -0.9650 -0.0442 0.2586
vn -0.5374 0.6499 0.5374
vn -0.7064 -0.0442 0.7064
vn -0.1967 0.6499 0.7341
vn -0.2586 -0.0442 0.9650
vn 0.1967 0.6499 0.7341
vn 0.2586 -0.0442 0.9650
vn 0.5374 0.6499 0.5374
vn 0.7064 -0.0442 0.7064
vn 0.9639 0.0654 0.2583
vn 0.9639 0.0654 -0.2583
vn 0.7056 0.0654 -0.7056
vn 0.2583 0.0654 -0.9639
vn -0.2583 0.0654 -0.9639
vn -0.7056 0.0654 -0.7056
vn -0.9639 0.0654 -0.2583
vn -0.9639 0.0654 0.2583
vn -0.7056 0.0654 0.7056
vn -0.2583 0.0654 0.9639
vn 0.2583 0.0654 0.9639
vn 0.7056 0.0654 0.7056
vn -0.2586 -0.0377 0.9652
vn 0.2586 -0.0377 0.9652
vn 0.7066 -0.0377 0.7066
vn 0.9652 -0.0377 0.2586
vn 0.9652 -0.0377 -0.2586
vn 0.7066 -0.0377 -0.7066
vn 0.2586 -0.0377 -0.9652
vn -0.2586 -0.0377 -0.9652
vn -0.7066 -0.0377 -0.7066
vn -0.9652 -0.0377 -0.2586
vn -0.9652 -0.0377 0.2586
vn -0.7066 -0.0377 0.7066
vn -0.4982 0.7097 0.4982
vn -0.1823 0.7097 0.6805
vn 0.1823 0.7097 0.6805
vn 0.4982 0.7097 0.4982
vn 0.6805 0.7097 0.1823
vn 0.6805 0.7097 -0.1823
vn 0.4953 0.7130 -0.4963
vn 0.1839 0.7047 -0.6853
vn -0.1823 0.7097 -0.6805
vn -0.4982 0.7097 -0.4982
vn -0.6805 0.7097 -0.1823
vn -0.6805 0.7097 0.1823
vn -0.2586 -0.0408 0.9651
vn 0.2586 -0.0408 0.9651
vn 0.7065 -0.0408 0.7065
vn 0.9651 -0.0408 0.2586
vn 0.9651 -0.0408 -0.2586
vn 0.7065 -0.0408 -0.7065
vn 0.2586 -0.0408 -0.9651
vn -0.2586 -0.0408 -0.9651
vn -0.7065 -0.0408 -0.7065
vn -0.9651 -0.0408 -0.2586
vn -0.9651 -0.0408 0.2586
vn -0.7065 -0.0408 0.7065
# 344 vertex normals

vt 0.0166 0.9449 0.0000
vt 0.1049 0.9449 0.0000
vt 0.1049 0.9655 0.0000
vt 0.0166 0.9655 0.0000
vt 0.1942 0.9449 0.0000
vt 0.1942 0.9655 0.0000
vt 0.2821 0.9449 0.0000
vt 0.2821 0.9655 0.0000
vt 0.3676 0.9449 0.0000
vt 0.3676 0.9655 0.0000
vt 0.4509 0.9449 0.0000
vt 0.4509 0.9655 0.0000
vt 0.5319 0.9449 0.0000
vt 0.5319 0.9655 0.0000
vt 0.6110 0.9449 0.0000
vt 0.6110 0.9655 0.0000
vt 0.6884 0.9449 0.0000
vt 0.6884 0.9655 0.0000
vt 0.7647 0.9449 0.0000
vt 0.7647 0.9655 0.0000
vt 0.8404 0.9449 0.0000
vt 0.8404 0.9655 0.0000
vt 0.9167 0.9449 0.0000
vt 0.9167 0.9655 0.0000
vt 0.9906 0.9449 0.0000
vt 0.9906 0.9655 0.0000
vt 0.1049 0.9849 0.0000
vt 0.0166 0.9849 0.0000
vt 0.1942 0.9849 0.0000
vt 0.2821 0.9849 0.0000
vt 0.3676 0.9849 0.0000
vt 0.4509 0.9849 0.0000
vt 0.5319 0.9849 0.0000
vt 0.6110 0.9849 0.0000
vt 0.6884 0.9849 0.0000
vt 0.7647 0.9850 0.0000
vt 0.8404 0.9849 0.0000
vt 0.9167 0.9849 0.0000
vt 0.9906 0.9849 0.0000
vt 0.0629 0.9981 0.0000
vt 0.1574 0.9981 0.0000
vt 0.2383 0.9981 0.0000
vt 0.3299 0.9981 0.0000
vt 0.4136 0.9981 0.0000
vt 0.4895 0.9981 0.0000
vt 0.5675 0.9981 0.0000
vt 0.6484 0.9981 0.0000
vt 0.7250 0.9981 0.0000
vt 0.7959 0.9981 0.0000
vt 0.8747 0.9981 0.0000
vt 0.9563 0.9981 0.0000
vt 0.9906 0.3118 0.0000
vt 0.9906 0.3535 0.0000
vt 0.8788 0.3535 0.0000
vt 0.7953 0.3118 0.0000
vt 0.7091 0.3535 0.0000
vt 0.6341 0.3118 0.0000
vt 0.5450 0.3535 0.0000
vt 0.4547 0.3118 0.0000
vt 0.3656 0.3535 0.0000
vt 0.2761 0.3118 0.0000
vt 0.1842 0.3535 0.0000
vt 0.0971 0.3118 0.0000
vt 0.0121 0.3535 0.0000
vt 0.0121 0.3118 0.0000
vt 0.9906 0.3629 0.0000
vt 0.9906 0.4023 0.0000
vt 0.9271 0.4023 0.0000
vt 0.8788 0.3629 0.0000
vt 0.8247 0.4023 0.0000
vt 0.7689 0.4023 0.0000
vt 0.7091 0.3629 0.0000
vt 0.6441 0.4023 0.0000
vt 0.6017 0.4023 0.0000
vt 0.5450 0.3629 0.0000
vt 0.4688 0.4023 0.0000
vt 0.4311 0.4023 0.0000
vt 0.3656 0.3629 0.0000
vt 0.2905 0.4023 0.0000
vt 0.2537 0.4023 0.0000
vt 0.1842 0.3629 0.0000
vt 0.1165 0.4023 0.0000
vt 0.0756 0.4023 0.0000
vt 0.0121 0.3629 0.0000
vt 0.0121 0.4023 0.0000
vt 0.9906 0.3558 0.0000
vt 0.8788 0.3558 0.0000
vt 0.7091 0.3558 0.0000
vt 0.5450 0.3558 0.0000
vt 0.3656 0.3558 0.0000
vt 0.1842 0.3558 0.0000
vt 0.0121 0.3558 0.0000
vt 0.9906 0.3605 0.0000
vt 0.8788 0.3605 0.0000
vt 0.7091 0.3605 0.0000
vt 0.5450 0.3605 0.0000
vt 0.3656 0.3605 0.0000
vt 0.1842 0.3605 0.0000
vt 0.0121 0.3605 0.0000
vt 0.1024 0.0881 0.0000
vt 0.0130 0.0881 0.0000
vt 0.0130 0.0767 0.0000
vt 0.1024 0.0767 0.0000
vt 0.1852 0.0881 0.0000
vt 0.1852 0.0767 0.0000
vt 0.2684 0.0881 0.0000
vt 0.2684 0.0767 0.0000
vt 0.3474 0.0881 0.0000
vt 0.3474 0.0767 0.0000
vt 0.4256 0.0881 0.0000
vt 0.4256 0.0767 0.0000
vt 0.5011 0.0881 0.0000
vt 0.5011 0.0767 0.0000
vt 0.5789 0.0881 0.0000
vt 0.5789 0.0767 0.0000
vt 0.6578 0.0881 0.0000
vt 0.6578 0.0767 0.0000
vt 0.7384 0.0881 0.0000
vt 0.7384 0.0767 0.0000
vt 0.8259 0.0881 0.0000
vt 0.8259 0.0767 0.0000
vt 0.9183 0.0881 0.0000
vt 0.9183 0.0767 0.0000
vt 0.9887 0.0881 0.0000
vt 0.9887 0.0767 0.0000
vt 0.1024 0.0645 0.0000
vt 0.0130 0.0645 0.0000
vt 0.0130 0.0556 0.0000
vt 0.1024 0.0556 0.0000
vt 0.1852 0.0645 0.0000
vt 0.1852 0.0556 0.0000
vt 0.2684 0.0645 0.0000
vt 0.2684 0.0556 0.0000
vt 0.3474 0.0645 0.0000
vt 0.3474 0.0556 0.0000
vt 0.4256 0.0645 0.0000
vt 0.4256 0.0556 0.0000
vt 0.5011 0.0645 0.0000
vt 0.5011 0.0556 0.0000
vt 0.5789 0.0645 0.0000
vt 0.5789 0.0556 0.0000
vt 0.6578 0.0645 0.0000
vt 0.6578 0.0556 0.0000
vt 0.7384 0.0645 0.0000
vt 0.7384 0.0556 0.0000
vt 0.8259 0.0645 0.0000
vt 0.8259 0.0556 0.0000
vt 0.9183 0.0645 0.0000
vt 0.9183 0.0556 0.0000
vt 0.9887 0.0645 0.0000
vt 0.9887 0.0556 0.0000
vt 0.1024 0.0392 0.0000
vt 0.0130 0.0392 0.0000
vt 0.0130 0.0185 0.0000
vt 0.1024 0.0185 0.0000
vt 0.1852 0.0392 0.0000
vt 0.1852 0.0185 0.0000
vt 0.2684 0.0392 0.0000
vt 0.2684 0.0185 0.0000
vt 0.3474 0.0392 0.0000
vt 0.3474 0.0185 0.0000
vt 0.4256 0.0392 0.0000
vt 0.4256 0.0185 0.0000
vt 0.5011 0.0392 0.0000
vt 0.5011 0.0185 0.0000
vt 0.5789 0.0392 0.0000
vt 0.5789 0.0185 0.0000
vt 0.6578 0.0392 0.0000
vt 0.6578 0.0185 0.0000
vt 0.7384 0.0392 0.0000
vt 0.7384 0.0185 0.0000
vt 0.8259 0.0392 0.0000
vt 0.8259 0.0185 0.0000
vt 0.9183 0.0392 0.0000
vt 0.9183 0.0185 0.0000
vt 0.9887 0.0392 0.0000
vt 0.9887 0.0185 0.0000
vt 0.0456 0.0051 0.0000
vt 0.1386 0.0051 0.0000
vt 0.2209 0.0051 0.0000
vt 0.3052 0.0051 0.0000
vt 0.3777 0.0051 0.0000
vt 0.4541 0.0051 0.0000
vt 0.5442 0.0051 0.0000
vt 0.6221 0.0051 0.0000
vt 0.6975 0.0051 0.0000
vt 0.7773 0.0051 0.0000
vt 0.8708 0.0052 0.0000
vt 0.9585 0.0051 0.0000
vt 0.1049 0.9287 0.0000
vt 0.0166 0.9287 0.0000
vt 0.1942 0.9287 0.0000
vt 0.2821 0.9287 0.0000
vt 0.3676 0.9287 0.0000
vt 0.4509 0.9287 0.0000
vt 0.5319 0.9287 0.0000
vt 0.6110 0.9287 0.0000
vt 0.6884 0.9287 0.0000
vt 0.7647 0.9287 0.0000
vt 0.8404 0.9287 0.0000
vt 0.9167 0.9287 0.0000
vt 0.9906 0.9287 0.0000
vt 0.0130 0.1223 0.0000
vt 0.0130 0.1000 0.0000
vt 0.1024 0.1000 0.0000
vt 0.1024 0.1223 0.0000
vt 0.0130 0.2079 0.0000
vt 0.0130 0.1825 0.0000
vt 0.1024 0.1825 0.0000
vt 0.1024 0.2079 0.0000
vt 0.1024 0.2943 0.0000
vt 0.1024 0.3024 0.0000
vt 0.0130 0.3024 0.0000
vt 0.0130 0.2943 0.0000
vt 0.1852 0.1000 0.0000
vt 0.1852 0.1223 0.0000
vt 0.1852 0.1825 0.0000
vt 0.1852 0.2079 0.0000
vt 0.1852 0.2943 0.0000
vt 0.1852 0.3024 0.0000
vt 0.2684 0.1000 0.0000
vt 0.2684 0.1223 0.0000
vt 0.2684 0.1825 0.0000
vt 0.2684 0.2079 0.0000
vt 0.2684 0.2943 0.0000
vt 0.2684 0.3024 0.0000
vt 0.3474 0.1000 0.0000
vt 0.3474 0.1223 0.0000
vt 0.3474 0.1825 0.0000
vt 0.3474 0.2079 0.0000
vt 0.3474 0.2943 0.0000
vt 0.3474 0.3024 0.0000
vt 0.4256 0.1000 0.0000
vt 0.4256 0.1223 0.0000
vt 0.4256 0.1825 0.0000
vt 0.4256 0.2079 0.0000
vt 0.4256 0.2943 0.0000
vt 0.4256 0.3024 0.0000
vt 0.5011 0.1000 0.0000
vt 0.5011 0.1223 0.0000
vt 0.5011 0.1825 0.0000
vt 0.5011 0.2079 0.0000
vt 0.5011 0.2943 0.0000
vt 0.5011 0.3024 0.0000
vt 0.5789 0.1000 0.0000
vt 0.5789 0.1223 0.0000
vt 0.5789 0.1825 0.0000
vt 0.5789 0.2079 0.0000
vt 0.5789 0.2943 0.0000
vt 0.5789 0.3024 0.0000
vt 0.6578 0.1000 0.0000
vt 0.6578 0.1223 0.0000
vt 0.6578 0.1825 0.0000
vt 0.6578 0.2079 0.0000
vt 0.6578 0.2943 0.0000
vt 0.6578 0.3024 0.0000
vt 0.7384 0.1000 0.0000
vt 0.7384 0.1223 0.0000
vt 0.7384 0.1825 0.0000
vt 0.7384 0.2079 0.0000
vt 0.7384 0.2943 0.0000
vt 0.7384 0.3024 0.0000
vt 0.8259 0.1000 0.0000
vt 0.8259 0.1223 0.0000
vt 0.8259 0.1825 0.0000
vt 0.8259 0.2079 0.0000
vt 0.8259 0.2943 0.0000
vt 0.8259 0.3024 0.0000
vt 0.9183 0.1000 0.0000
vt 0.9183 0.1223 0.0000
vt 0.9183 0.1825 0.0000
vt 0.9183 0.2079 0.0000
vt 0.9183 0.2943 0.0000
vt 0.9183 0.3024 0.0000
vt 0.9887 0.1000 0.0000
vt 0.9887 0.1223 0.0000
vt 0.9887 0.1825 0.0000
vt 0.9887 0.2079 0.0000
vt 0.9887 0.2943 0.0000
vt 0.9887 0.3024 0.0000
vt 0.0130 0.0473 0.0000
vt 0.1024 0.0473 0.0000
vt 0.1852 0.0473 0.0000
vt 0.2684 0.0473 0.0000
vt 0.3474 0.0473 0.0000
vt 0.4256 0.0473 0.0000
vt 0.5011 0.0473 0.0000
vt 0.5789 0.0473 0.0000
vt 0.6578 0.0473 0.0000
vt 0.7384 0.0473 0.0000
vt 0.8259 0.0473 0.0000
vt 0.9183 0.0473 0.0000
vt 0.9887 0.0473 0.0000
vt 0.1049 0.4173 0.0000
vt 0.1049 0.4206 0.0000
vt 0.0166 0.4206 0.0000
vt 0.0166 0.4173 0.0000
vt 0.1942 0.4173 0.0000
vt 0.1942 0.4206 0.0000
vt 0.2821 0.4173 0.0000
vt 0.2821 0.4206 0.0000
vt 0.3676 0.4173 0.0000
vt 0.3676 0.4206 0.0000
vt 0.4509 0.4173 0.0000
vt 0.4509 0.4206 0.0000
vt 0.5319 0.4173 0.0000
vt 0.5319 0.4206 0.0000
vt 0.6110 0.4173 0.0000
vt 0.6110 0.4206 0.0000
vt 0.6884 0.4173 0.0000
vt 0.6884 0.4206 0.0000
vt 0.7647 0.4173 0.0000
vt 0.7647 0.4206 0.0000
vt 0.8404 0.4173 0.0000
vt 0.8404 0.4206 0.0000
vt 0.9167 0.4173 0.0000
vt 0.9167 0.4206 0.0000
vt 0.9906 0.4173 0.0000
vt 0.9906 0.4206 0.0000
vt 0.1049 0.4330 0.0000
vt 0.1049 0.4446 0.0000
vt 0.0166 0.4446 0.0000
vt 0.0166 0.4330 0.0000
vt 0.1942 0.4330 0.0000
vt 0.1942 0.4446 0.0000
vt 0.2821 0.4330 0.0000
vt 0.2821 0.4446 0.0000
vt 0.3676 0.4330 0.0000
vt 0.3676 0.4446 0.0000
vt 0.4509 0.4330 0.0000
vt 0.4509 0.4446 0.0000
vt 0.5319 0.4330 0.0000
vt 0.5319 0.4446 0.0000
vt 0.6110 0.4330 0.0000
vt 0.6110 0.4446 0.0000
vt 0.6884 0.4330 0.0000
vt 0.6884 0.4446 0.0000
vt 0.7647 0.4330 0.0000
vt 0.7647 0.4446 0.0000
vt 0.8404 0.4330 0.0000
vt 0.8404 0.4446 0.0000
vt 0.9167 0.4330 0.0000
vt 0.9167 0.4446 0.0000
vt 0.9906 0.4330 0.0000
vt 0.9906 0.4446 0.0000
vt 0.0130 0.1546 0.0000
vt 0.1024 0.1546 0.0000
vt 0.1852 0.1546 0.0000
vt 0.2684 0.1546 0.0000
vt 0.3474 0.1546 0.0000
vt 0.4256 0.1546 0.0000
vt 0.5011 0.1546 0.0000
vt 0.5789 0.1546 0.0000
vt 0.6578 0.1546 0.0000
vt 0.7384 0.1546 0.0000
vt 0.8259 0.1546 0.0000
vt 0.9183 0.1546 0.0000
vt 0.9887 0.1546 0.0000
vt 0.7384 0.2781 0.0000
vt 0.8259 0.2781 0.0000
vt 0.9183 0.2781 0.0000
vt 0.9887 0.2781 0.0000
vt 0.0130 0.2781 0.0000
vt 0.1024 0.2781 0.0000
vt 0.1852 0.2781 0.0000
vt 0.2684 0.2781 0.0000
vt 0.3474 0.2781 0.0000
vt 0.4256 0.2781 0.0000
vt 0.5011 0.2781 0.0000
vt 0.5789 0.2781 0.0000
vt 0.6578 0.2781 0.0000
vt 0.8259 0.3082 0.0000
vt 0.7384 0.3082 0.0000
vt 0.6578 0.3082 0.0000
vt 0.5789 0.3082 0.0000
vt 0.5011 0.3082 0.0000
vt 0.4256 0.3082 0.0000
vt 0.3474 0.3082 0.0000
vt 0.2684 0.3082 0.0000
vt 0.1852 0.3082 0.0000
vt 0.1024 0.3082 0.0000
vt 0.0130 0.3082 0.0000
vt 0.9887 0.3082 0.0000
vt 0.9183 0.3082 0.0000
vt 0.7288 0.4060 0.0000
vt 0.8835 0.4060 0.0000
vt 0.9906 0.4060 0.0000
vt 0.0695 0.4060 0.0000
vt 0.2334 0.4060 0.0000
vt 0.4004 0.4060 0.0000
vt 0.5715 0.4060 0.0000
vt 0.6884 0.4242 0.0000
vt 0.7647 0.4242 0.0000
vt 0.8404 0.4242 0.0000
vt 0.9167 0.4242 0.0000
vt 0.9906 0.4242 0.0000
vt 0.0166 0.4242 0.0000
vt 0.1049 0.4242 0.0000
vt 0.1942 0.4242 0.0000
vt 0.2821 0.4242 0.0000
vt 0.3676 0.4242 0.0000
vt 0.4509 0.4242 0.0000
vt 0.5319 0.4242 0.0000
vt 0.6110 0.4242 0.0000
vt 0.7384 0.2447 0.0000
vt 0.8259 0.2447 0.0000
vt 0.9183 0.2447 0.0000
vt 0.9887 0.2447 0.0000
vt 0.0130 0.2447 0.0000
vt 0.1024 0.2447 0.0000
vt 0.1852 0.2447 0.0000
vt 0.2684 0.2447 0.0000
vt 0.3474 0.2447 0.0000
vt 0.4256 0.2447 0.0000
vt 0.5011 0.2447 0.0000
vt 0.5789 0.2447 0.0000
vt 0.6578 0.2447 0.0000
# 417 texture coords

o PW_Baton_low
g PW_Baton_low
usemtl wire_050124020
s 1
f 1/1/1 2/2/2 3/3/3 4/4/4 
f 2/2/2 5/5/5 6/6/6 3/3/3 
f 5/5/5 7/7/7 8/8/8 6/6/6 
f 7/7/7 9/9/9 10/10/10 8/8/8 
f 9/9/9 11/11/11 12/12/12 10/10/10 
f 11/11/11 13/13/13 14/14/14 12/12/12 
f 13/13/13 15/15/15 16/16/16 14/14/14 
f 15/15/15 17/17/17 18/18/18 16/16/16 
f 17/17/17 19/19/19 20/20/20 18/18/18 
f 19/19/19 21/21/21 22/22/22 20/20/20 
f 21/21/21 23/23/23 24/24/24 22/22/22 
f 23/23/23 1/25/1 4/26/4 24/24/24 
f 4/4/4 3/3/3 25/27/25 26/28/26 
f 3/3/3 6/6/6 27/29/27 25/27/25 
f 6/6/6 8/8/8 28/30/28 27/29/27 
f 8/8/8 10/10/10 29/31/29 28/30/28 
f 10/10/10 12/12/12 30/32/30 29/31/29 
f 12/12/12 14/14/14 31/33/31 30/32/30 
f 14/14/14 16/16/16 32/34/32 31/33/31 
f 16/16/16 18/18/18 33/35/33 32/34/32 
f 18/18/18 20/20/20 34/36/34 33/35/33 
f 20/20/20 22/22/22 35/37/35 34/36/34 
f 22/22/22 24/24/24 36/38/36 35/37/35 
f 24/24/24 4/26/4 26/39/26 36/38/36 
f 26/28/26 25/27/25 37/40/37 
f 25/27/25 27/29/27 37/41/37 
f 27/29/27 28/30/28 37/42/37 
f 28/30/28 29/31/29 37/43/37 
f 29/31/29 30/32/30 37/44/37 
f 30/32/30 31/33/31 37/45/37 
f 31/33/31 32/34/32 37/46/37 
f 32/34/32 33/35/33 37/47/37 
f 33/35/33 34/36/34 37/48/37 
f 34/36/34 35/37/35 37/49/37 
f 35/37/35 36/38/36 37/50/37 
f 36/38/36 26/39/26 37/51/37 
f 38/52/38 39/53/39 40/54/40 
f 41/55/41 38/52/38 40/54/40 
f 41/55/41 40/54/40 42/56/42 
f 43/57/43 41/55/41 42/56/42 
f 43/57/43 42/56/42 44/58/44 
f 45/59/45 43/57/43 44/58/44 
f 45/59/45 44/58/44 46/60/46 
f 47/61/47 45/59/45 46/60/46 
f 47/61/47 46/60/46 48/62/48 
f 49/63/49 47/61/47 48/62/48 
f 49/63/49 48/62/48 39/64/39 
f 38/65/38 49/63/49 39/64/39 
f 50/66/50 51/67/51 52/68/52 53/69/53 
f 53/69/53 52/68/52 54/70/54 
f 53/69/53 54/70/54 55/71/55 56/72/56 
f 56/72/56 55/71/55 57/73/57 
f 56/72/56 57/73/57 58/74/58 59/75/59 
f 59/75/59 58/74/58 60/76/60 
f 59/75/59 60/76/60 61/77/61 62/78/62 
f 62/78/62 61/77/61 63/79/63 
f 62/78/62 63/79/63 64/80/64 65/81/65 
f 65/81/65 64/80/64 66/82/66 
f 65/81/65 66/82/66 67/83/67 50/84/50 
f 50/84/50 67/83/67 51/85/51 
f 40/54/40 39/53/39 68/86/68 69/87/69 
f 42/56/42 40/54/40 69/87/69 70/88/70 
f 44/58/44 42/56/42 70/88/70 71/89/71 
f 46/60/46 44/58/44 71/89/71 72/90/72 
f 48/62/48 46/60/46 72/90/72 73/91/73 
f 39/64/39 48/62/48 73/91/73 68/92/68 
f 74/93/74 50/66/50 53/69/53 75/94/75 
f 75/94/75 53/69/53 56/72/56 76/95/76 
f 76/95/76 56/72/56 59/75/59 77/96/77 
f 77/96/77 59/75/59 62/78/62 78/97/78 
f 78/97/78 62/78/62 65/81/65 79/98/79 
f 79/98/79 65/81/65 50/84/50 74/99/74 
f 80/100/80 81/101/81 82/102/82 83/103/83 
f 84/104/84 80/100/80 83/103/83 85/105/85 
f 86/106/86 84/104/84 85/105/85 87/107/87 
f 88/108/88 86/106/86 87/107/87 89/109/89 
f 90/110/90 88/108/88 89/109/89 91/111/91 
f 92/112/92 90/110/90 91/111/91 93/113/93 
f 94/114/94 92/112/92 93/113/93 95/115/95 
f 96/116/96 94/114/94 95/115/95 97/117/97 
f 98/118/98 96/116/96 97/117/97 99/119/99 
f 100/120/100 98/118/98 99/119/99 101/121/101 
f 102/122/102 100/120/100 101/121/101 103/123/103 
f 81/124/81 102/122/102 103/123/103 82/125/82 
f 104/126/104 105/127/105 106/128/106 107/129/107 
f 108/130/108 104/126/104 107/129/107 109/131/109 
f 110/132/110 108/130/108 109/131/109 111/133/111 
f 112/134/112 110/132/110 111/133/111 113/135/113 
f 114/136/114 112/134/112 113/135/113 115/137/115 
f 116/138/116 114/136/114 115/137/115 117/139/117 
f 118/140/118 116/138/116 117/139/117 119/141/119 
f 120/142/120 118/140/118 119/141/119 121/143/121 
f 122/144/122 120/142/120 121/143/121 123/145/123 
f 124/146/124 122/144/122 123/145/123 125/147/125 
f 126/148/126 124/146/124 125/147/125 127/149/127 
f 105/150/105 126/148/126 127/149/127 106/151/106 
f 128/152/128 129/153/129 130/154/130 131/155/131 
f 132/156/132 128/152/128 131/155/131 133/157/133 
f 134/158/134 132/156/132 133/157/133 135/159/135 
f 136/160/136 134/158/134 135/159/135 137/161/137 
f 138/162/138 136/160/136 137/161/137 139/163/139 
f 140/164/140 138/162/138 139/163/139 141/165/141 
f 142/166/142 140/164/140 141/165/141 143/167/143 
f 144/168/144 142/166/142 143/167/143 145/169/145 
f 146/170/146 144/168/144 145/169/145 147/171/147 
f 148/172/148 146/170/146 147/171/147 149/173/149 
f 150/174/150 148/172/148 149/173/149 151/175/151 
f 129/176/129 150/174/150 151/175/151 130/177/130 
f 131/155/131 130/154/130 152/178/152 
f 133/157/133 131/155/131 152/179/152 
f 135/159/135 133/157/133 152/180/152 
f 137/161/137 135/159/135 152/181/152 
f 139/163/139 137/161/137 152/182/152 
f 141/165/141 139/163/139 152/183/152 
f 143/167/143 141/165/141 152/184/152 
f 145/169/145 143/167/143 152/185/152 
f 147/171/147 145/169/145 152/186/152 
f 149/173/149 147/171/147 152/187/152 
f 151/175/151 149/173/149 152/188/152 
f 130/177/130 151/175/151 152/189/152 
f 69/87/69 68/86/68 74/93/74 75/94/75 
f 70/88/70 69/87/69 75/94/75 76/95/76 
f 71/89/71 70/88/70 76/95/76 77/96/77 
f 72/90/72 71/89/71 77/96/77 78/97/78 
f 73/91/73 72/90/72 78/97/78 79/98/79 
f 68/92/68 73/91/73 79/98/79 74/99/74 
f 153/190/153 2/2/2 1/1/1 154/191/154 
f 155/192/155 5/5/5 2/2/2 153/190/153 
f 156/193/156 7/7/7 5/5/5 155/192/155 
f 157/194/157 9/9/9 7/7/7 156/193/156 
f 158/195/158 11/11/11 9/9/9 157/194/157 
f 159/196/159 13/13/13 11/11/11 158/195/158 
f 160/197/160 15/15/15 13/13/13 159/196/159 
f 161/198/161 17/17/17 15/15/15 160/197/160 
f 162/199/162 19/19/19 17/17/17 161/198/161 
f 163/200/163 21/21/21 19/19/19 162/199/162 
f 164/201/164 23/23/23 21/21/21 163/200/163 
f 154/202/154 1/25/1 23/23/23 164/201/164 
f 82/102/82 105/127/105 104/126/104 83/103/83 
f 83/103/83 104/126/104 108/130/108 85/105/85 
f 85/105/85 108/130/108 110/132/110 87/107/87 
f 87/107/87 110/132/110 112/134/112 89/109/89 
f 89/109/89 112/134/112 114/136/114 91/111/91 
f 91/111/91 114/136/114 116/138/116 93/113/93 
f 93/113/93 116/138/116 118/140/118 95/115/95 
f 95/115/95 118/140/118 120/142/120 97/117/97 
f 97/117/97 120/142/120 122/144/122 99/119/99 
f 99/119/99 122/144/122 124/146/124 101/121/101 
f 101/121/101 124/146/124 126/148/126 103/123/103 
f 103/123/103 126/148/126 105/150/105 82/125/82 
f 165/203/165 166/204/166 167/205/167 168/206/168 
f 169/207/169 170/208/170 171/209/171 172/210/172 
f 173/211/173 174/212/174 175/213/175 176/214/176 
f 168/206/168 167/205/167 177/215/177 178/216/178 
f 172/210/172 171/209/171 179/217/179 180/218/180 
f 181/219/181 182/220/182 174/212/174 173/211/173 
f 178/216/178 177/215/177 183/221/183 184/222/184 
f 180/218/180 179/217/179 185/223/185 186/224/186 
f 187/225/187 188/226/188 182/220/182 181/219/181 
f 184/222/184 183/221/183 189/227/189 190/228/190 
f 186/224/186 185/223/185 191/229/191 192/230/192 
f 193/231/193 194/232/194 188/226/188 187/225/187 
f 190/228/190 189/227/189 195/233/195 196/234/196 
f 192/230/192 191/229/191 197/235/197 198/236/198 
f 199/237/199 200/238/200 194/232/194 193/231/193 
f 196/234/196 195/233/195 201/239/201 202/240/202 
f 198/236/198 197/235/197 203/241/203 204/242/204 
f 205/243/205 206/244/206 200/238/200 199/237/199 
f 202/240/202 201/239/201 207/245/207 208/246/208 
f 204/242/204 203/241/203 209/247/209 210/248/210 
f 211/249/211 212/250/212 206/244/206 205/243/205 
f 208/246/208 207/245/207 213/251/213 214/252/214 
f 210/248/210 209/247/209 215/253/215 216/254/216 
f 217/255/217 218/256/218 212/250/212 211/249/211 
f 214/252/214 213/251/213 219/257/219 220/258/220 
f 216/254/216 215/253/215 221/259/221 222/260/222 
f 223/261/223 224/262/224 218/256/218 217/255/217 
f 220/258/220 219/257/219 225/263/225 226/264/226 
f 222/260/222 221/259/221 227/265/227 228/266/228 
f 229/267/229 230/268/230 224/262/224 223/261/223 
f 226/264/226 225/263/225 231/269/231 232/270/232 
f 228/266/228 227/265/227 233/271/233 234/272/234 
f 235/273/235 236/274/236 230/268/230 229/267/229 
f 232/270/232 231/269/231 166/275/166 165/276/165 
f 234/272/234 233/271/233 170/277/170 169/278/169 
f 176/279/176 175/280/175 236/274/236 235/273/235 
f 237/281/237 129/153/129 128/152/128 238/282/238 
f 238/282/238 128/152/128 132/156/132 239/283/239 
f 239/283/239 132/156/132 134/158/134 240/284/240 
f 240/284/240 134/158/134 136/160/136 241/285/241 
f 241/285/241 136/160/136 138/162/138 242/286/242 
f 242/286/242 138/162/138 140/164/140 243/287/243 
f 243/287/243 140/164/140 142/166/142 244/288/244 
f 244/288/244 142/166/142 144/168/144 245/289/245 
f 245/289/245 144/168/144 146/170/146 246/290/246 
f 246/290/246 146/170/146 148/172/148 247/291/247 
f 247/291/247 148/172/148 150/174/150 248/292/248 
f 248/292/248 150/174/150 129/176/129 237/293/237 
f 106/128/106 237/281/237 238/282/238 107/129/107 
f 107/129/107 238/282/238 239/283/239 109/131/109 
f 109/131/109 239/283/239 240/284/240 111/133/111 
f 111/133/111 240/284/240 241/285/241 113/135/113 
f 113/135/113 241/285/241 242/286/242 115/137/115 
f 115/137/115 242/286/242 243/287/243 117/139/117 
f 117/139/117 243/287/243 244/288/244 119/141/119 
f 119/141/119 244/288/244 245/289/245 121/143/121 
f 121/143/121 245/289/245 246/290/246 123/145/123 
f 123/145/123 246/290/246 247/291/247 125/147/125 
f 125/147/125 247/291/247 248/292/248 127/149/127 
f 127/149/127 248/292/248 237/293/237 106/151/106 
f 249/294/249 250/295/250 251/296/251 252/297/252 
f 253/298/253 254/299/254 250/295/250 249/294/249 
f 255/300/255 256/301/256 254/299/254 253/298/253 
f 257/302/257 258/303/258 256/301/256 255/300/255 
f 259/304/259 260/305/260 258/303/258 257/302/257 
f 261/306/261 262/307/262 260/305/260 259/304/259 
f 263/308/263 264/309/264 262/307/262 261/306/261 
f 265/310/265 266/311/266 264/309/264 263/308/263 
f 267/312/267 268/313/268 266/311/266 265/310/265 
f 269/314/269 270/315/270 268/313/268 267/312/267 
f 271/316/271 272/317/272 270/315/270 269/314/269 
f 252/318/252 251/319/251 272/317/272 271/316/271 
f 273/320/273 274/321/274 275/322/275 276/323/276 
f 277/324/277 278/325/278 274/321/274 273/320/273 
f 279/326/279 280/327/280 278/325/278 277/324/277 
f 281/328/281 282/329/282 280/327/280 279/326/279 
f 283/330/283 284/331/284 282/329/282 281/328/281 
f 285/332/285 286/333/286 284/331/284 283/330/283 
f 287/334/287 288/335/288 286/333/286 285/332/285 
f 289/336/289 290/337/290 288/335/288 287/334/287 
f 291/338/291 292/339/292 290/337/290 289/336/289 
f 293/340/293 294/341/294 292/339/292 291/338/291 
f 295/342/295 296/343/296 294/341/294 293/340/293 
f 276/344/276 275/345/275 296/343/296 295/342/295 
f 171/209/171 170/208/170 297/346/297 298/347/298 
f 179/217/179 171/209/171 298/347/298 299/348/299 
f 185/223/185 179/217/179 299/348/299 300/349/300 
f 191/229/191 185/223/185 300/349/300 301/350/301 
f 197/235/197 191/229/191 301/350/301 302/351/302 
f 203/241/203 197/235/197 302/351/302 303/352/303 
f 209/247/209 203/241/203 303/352/303 304/353/304 
f 215/253/215 209/247/209 304/353/304 305/354/305 
f 221/259/221 215/253/215 305/354/305 306/355/306 
f 227/265/227 221/259/221 306/355/306 307/356/307 
f 233/271/233 227/265/227 307/356/307 308/357/308 
f 170/277/170 233/271/233 308/357/308 297/358/297 
f 220/258/220 226/264/226 307/356/307 306/355/306 
f 308/357/308 307/356/307 226/264/226 232/270/232 
f 297/358/297 308/357/308 232/270/232 165/276/165 
f 298/347/298 297/346/297 165/203/165 168/206/168 
f 299/348/299 298/347/298 168/206/168 178/216/178 
f 300/349/300 299/348/299 178/216/178 184/222/184 
f 301/350/301 300/349/300 184/222/184 190/228/190 
f 302/351/302 301/350/301 190/228/190 196/234/196 
f 303/352/303 302/351/302 196/234/196 202/240/202 
f 304/353/304 303/352/303 202/240/202 208/246/208 
f 305/354/305 304/353/304 208/246/208 214/252/214 
f 306/355/306 305/354/305 214/252/214 220/258/220 
f 98/118/98 100/120/100 225/263/225 219/257/219 
f 231/269/231 225/263/225 100/120/100 102/122/102 
f 166/275/166 231/269/231 102/122/102 81/124/81 
f 167/205/167 166/204/166 81/101/81 80/100/80 
f 177/215/177 167/205/167 80/100/80 84/104/84 
f 183/221/183 177/215/177 84/104/84 86/106/86 
f 189/227/189 183/221/183 86/106/86 88/108/88 
f 195/233/195 189/227/189 88/108/88 90/110/90 
f 201/239/201 195/233/195 90/110/90 92/112/92 
f 207/245/207 201/239/201 92/112/92 94/114/94 
f 213/251/213 207/245/207 94/114/94 96/116/96 
f 219/257/219 213/251/213 96/116/96 98/118/98 
f 229/267/229 223/261/223 309/359/309 310/360/310 
f 235/273/235 229/267/229 310/360/310 311/361/311 
f 176/279/176 235/273/235 311/361/311 312/362/312 
f 173/211/173 176/214/176 312/363/312 313/364/313 
f 181/219/181 173/211/173 313/364/313 314/365/314 
f 187/225/187 181/219/181 314/365/314 315/366/315 
f 193/231/193 187/225/187 315/366/315 316/367/316 
f 199/237/199 193/231/193 316/367/316 317/368/317 
f 205/243/205 199/237/199 317/368/317 318/369/318 
f 211/249/211 205/243/205 318/369/318 319/370/319 
f 217/255/217 211/249/211 319/370/319 320/371/320 
f 223/261/223 217/255/217 320/371/320 309/359/309 
f 66/372/66 64/373/64 224/262/224 230/268/230 
f 218/256/218 224/262/224 64/373/64 63/374/63 
f 212/250/212 218/256/218 63/374/63 61/375/61 
f 206/244/206 212/250/212 61/375/61 60/376/60 
f 200/238/200 206/244/206 60/376/60 58/377/58 
f 194/232/194 200/238/200 58/377/58 57/378/57 
f 188/226/188 194/232/194 57/378/57 55/379/55 
f 182/220/182 188/226/188 55/379/55 54/380/54 
f 174/212/174 182/220/182 54/380/54 52/381/52 
f 175/213/175 174/212/174 52/381/52 51/382/51 
f 236/274/236 175/280/175 51/383/51 67/384/67 
f 230/268/230 236/274/236 67/384/67 66/372/66 
f 47/385/47 49/386/49 269/314/269 267/312/267 
f 252/318/252 271/316/271 49/386/49 38/387/38 
f 253/298/253 249/294/249 38/388/38 41/389/41 
f 257/302/257 255/300/255 41/389/41 43/390/43 
f 261/306/261 259/304/259 43/390/43 45/391/45 
f 265/310/265 263/308/263 45/391/45 47/385/47 
f 267/312/267 265/310/265 47/385/47 
f 271/316/271 269/314/269 49/386/49 
f 38/388/38 249/294/249 252/297/252 
f 255/300/255 253/298/253 41/389/41 
f 259/304/259 257/302/257 43/390/43 
f 263/308/263 261/306/261 45/391/45 
f 291/338/291 289/336/289 321/392/321 322/393/322 
f 293/340/293 291/338/291 322/393/322 323/394/323 
f 295/342/295 293/340/293 323/394/323 324/395/324 
f 276/344/276 295/342/295 324/395/324 325/396/325 
f 273/320/273 276/323/276 325/397/325 326/398/326 
f 277/324/277 273/320/273 326/398/326 327/399/327 
f 279/326/279 277/324/277 327/399/327 328/400/328 
f 281/328/281 279/326/279 328/400/328 329/401/329 
f 283/330/283 281/328/281 329/401/329 330/402/330 
f 285/332/285 283/330/283 330/402/330 331/403/331 
f 287/334/287 285/332/285 331/403/331 332/404/332 
f 289/336/289 287/334/287 332/404/332 321/392/321 
f 274/321/274 153/190/153 154/191/154 275/322/275 
f 278/325/278 155/192/155 153/190/153 274/321/274 
f 280/327/280 156/193/156 155/192/155 278/325/278 
f 282/329/282 157/194/157 156/193/156 280/327/280 
f 284/331/284 158/195/158 157/194/157 282/329/282 
f 286/333/286 159/196/159 158/195/158 284/331/284 
f 288/335/288 160/197/160 159/196/159 286/333/286 
f 290/337/290 161/198/161 160/197/160 288/335/288 
f 292/339/292 162/199/162 161/198/161 290/337/290 
f 294/341/294 163/200/163 162/199/162 292/339/292 
f 296/343/296 164/201/164 163/200/163 294/341/294 
f 275/345/275 154/202/154 164/201/164 296/343/296 
f 250/295/250 326/398/326 325/397/325 251/296/251 
f 254/299/254 327/399/327 326/398/326 250/295/250 
f 256/301/256 328/400/328 327/399/327 254/299/254 
f 258/303/258 329/401/329 328/400/328 256/301/256 
f 260/305/260 330/402/330 329/401/329 258/303/258 
f 262/307/262 331/403/331 330/402/330 260/305/260 
f 264/309/264 332/404/332 331/403/331 262/307/262 
f 266/311/266 321/392/321 332/404/332 264/309/264 
f 268/313/268 322/393/322 321/392/321 266/311/266 
f 270/315/270 323/394/323 322/393/322 268/313/268 
f 272/317/272 324/395/324 323/394/323 270/315/270 
f 251/319/251 325/396/325 324/395/324 272/317/272 
f 333/405/333 222/260/222 228/266/228 334/406/334 
f 334/406/334 228/266/228 234/272/234 335/407/335 
f 335/407/335 234/272/234 169/278/169 336/408/336 
f 336/409/336 169/207/169 172/210/172 337/410/337 
f 337/410/337 172/210/172 180/218/180 338/411/338 
f 338/411/338 180/218/180 186/224/186 339/412/339 
f 339/412/339 186/224/186 192/230/192 340/413/340 
f 340/413/340 192/230/192 198/236/198 341/414/341 
f 341/414/341 198/236/198 204/242/204 342/415/342 
f 342/415/342 204/242/204 210/248/210 343/416/343 
f 343/416/343 210/248/210 216/254/216 344/417/344 
f 344/417/344 216/254/216 222/260/222 333/405/333 
f 309/359/309 333/405/333 334/406/334 310/360/310 
f 310/360/310 334/406/334 335/407/335 311/361/311 
f 311/361/311 335/407/335 336/408/336 312/362/312 
f 312/363/312 336/409/336 337/410/337 313/364/313 
f 313/364/313 337/410/337 338/411/338 314/365/314 
f 314/365/314 338/411/338 339/412/339 315/366/315 
f 315/366/315 339/412/339 340/413/340 316/367/316 
f 316/367/316 340/413/340 341/414/341 317/368/317 
f 317/368/317 341/414/341 342/415/342 318/369/318 
f 318/369/318 342/415/342 343/416/343 319/370/319 
f 319/370/319 343/416/343 344/417/344 320/371/320 
f 320/371/320 344/417/344 333/405/333 309/359/309 
# 318 polygons - 48 triangles

