# 3ds Max Wavefront OBJ Exporter v0.99 - (c)2007 guruware
# File Created: 13.01.2026 02:27:23

mtllib IntProp_Bread01.mtl

#
# object IntProp_BreadKnife01
#

v  -0.1436 0.0030 0.0123
v  -0.1437 -0.0007 -0.0000
v  -0.1218 0.0011 -0.0000
v  -0.1217 0.0048 0.0104
v  -0.1439 0.0274 0.0124
v  -0.1218 0.0292 0.0105
v  -0.1218 0.0348 0.0052
v  -0.1441 0.0330 0.0060
v  -0.0720 0.0282 0.0113
v  -0.0719 0.0338 0.0055
v  -0.0721 0.0038 0.0112
v  -0.2039 0.0035 0.0231
v  -0.2036 -0.0210 0.0225
v  -0.2043 0.0128 0.0171
v  -0.3057 -0.0308 0.0443
v  -0.3428 -0.0230 0.0355
v  -0.3424 -0.0179 -0.0000
v  -0.3057 -0.0236 -0.0000
v  -0.3056 -0.0063 0.0447
v  -0.3392 0.0011 0.0358
v  -0.3603 -0.0110 0.0180
v  -0.3603 -0.0113 -0.0000
v  -0.3565 0.0137 0.0182
v  -0.2388 -0.0286 0.0304
v  -0.2389 -0.0204 -0.0000
v  -0.2388 -0.0040 0.0309
v  -0.0123 0.0166 0.0122
v  -0.0121 0.0221 0.0059
v  -0.0127 -0.0078 0.0121
v  0.0553 -0.0311 0.0145
v  0.0488 -0.0085 0.0130
v  -0.2038 -0.0146 -0.0000
v  -0.3566 0.0138 -0.0000
v  -0.0722 0.0001 -0.0000
v  -0.0128 -0.0115 0.0000
v  0.0617 -0.0341 0.0112
v  0.0553 -0.0348 -0.0000
v  -0.3387 0.0104 0.0272
v  -0.3056 0.0029 0.0353
v  -0.2390 0.0052 0.0233
v  -0.3494 0.0150 -0.0000
v  -0.3500 0.0160 0.0153
v  -0.3374 0.0084 -0.0000
v  -0.1218 0.0348 -0.0052
v  -0.1441 0.0330 -0.0060
v  -0.0719 0.0338 -0.0055
v  -0.0121 0.0221 -0.0059
v  -0.2043 0.0125 -0.0000
v  -0.3057 0.0068 -0.0000
v  -0.2391 0.0120 -0.0000
v  -0.1436 0.0030 -0.0123
v  -0.1217 0.0048 -0.0104
v  -0.1439 0.0274 -0.0124
v  -0.1218 0.0292 -0.0105
v  -0.0720 0.0282 -0.0113
v  -0.0721 0.0038 -0.0112
v  -0.2036 -0.0245 -0.0225
v  -0.2039 0.0035 -0.0231
v  -0.2043 0.0128 -0.0171
v  -0.3057 -0.0308 -0.0443
v  -0.3428 -0.0230 -0.0355
v  -0.3056 -0.0063 -0.0447
v  -0.3392 0.0011 -0.0358
v  -0.3603 -0.0110 -0.0180
v  -0.3565 0.0137 -0.0182
v  -0.2388 -0.0286 -0.0304
v  -0.2388 -0.0040 -0.0309
v  -0.0123 0.0166 -0.0122
v  -0.0127 -0.0078 -0.0121
v  0.0488 -0.0085 -0.0130
v  0.0553 -0.0311 -0.0145
v  0.0617 -0.0341 -0.0104
v  -0.3387 0.0104 -0.0272
v  -0.3056 0.0029 -0.0353
v  -0.2390 0.0052 -0.0233
v  -0.3500 0.0160 -0.0153
v  0.3603 -0.0329 0.0371
v  0.3503 -0.0331 0.0182
v  0.3336 -0.0295 0.0175
v  0.3432 -0.0295 0.0276
v  0.3049 -0.0331 -0.0255
v  0.2650 -0.0333 -0.0368
v  0.2644 -0.0282 -0.0266
v  0.3013 -0.0292 -0.0129
v  0.0776 -0.0340 -0.0301
v  0.1363 -0.0339 -0.0384
v  0.1495 -0.0341 0.0073
v  0.0769 -0.0341 0.0014
v  0.0701 -0.0109 0.0233
v  0.1424 -0.0125 0.0232
v  0.1424 -0.0123 0.0072
v  0.0697 -0.0106 0.0073
v  0.0754 -0.0301 0.0257
v  0.1495 -0.0340 0.0250
v  0.1436 -0.0168 0.0258
v  0.0704 -0.0149 0.0257
v  0.0752 -0.0301 -0.0324
v  0.0602 -0.0301 -0.0146
v  0.0552 -0.0153 -0.0147
v  0.0701 -0.0149 -0.0324
v  0.0774 -0.0339 0.0232
v  0.0549 -0.0107 0.0120
v  0.0550 -0.0106 -0.0000
v  0.0603 -0.0298 0.0148
v  0.0554 -0.0154 0.0148
v  0.3225 -0.0334 0.0334
v  0.2977 -0.0341 0.0101
v  0.3166 -0.0263 0.0132
v  0.2908 -0.0240 0.0089
v  0.2956 -0.0333 0.0407
v  0.1347 -0.0297 -0.0409
v  0.1301 -0.0169 -0.0330
v  0.2624 -0.0251 -0.0225
v  0.1292 -0.0125 -0.0305
v  0.2879 -0.0252 0.0352
v  0.3142 -0.0275 0.0263
v  0.0703 -0.0109 -0.0302
v  0.0549 -0.0107 -0.0119
v  0.0489 -0.0082 -0.0000
# 119 vertices

vn 0.2371 -0.5416 0.8065
vn 0.1562 -0.9877 -0.0000
vn 0.0312 -0.9995 -0.0000
vn 0.0486 -0.5731 0.8180
vn 0.0005 0.4512 0.8924
vn 0.0215 0.3840 0.9231
vn -0.0221 0.9232 0.3837
vn -0.1582 0.9321 0.3258
vn 0.0306 0.4048 0.9139
vn 0.0947 0.9251 0.3676
vn -0.0723 -0.5608 0.8248
vn 0.1170 0.2611 0.9582
vn 0.3336 -0.7768 0.5342
vn -0.1507 0.8637 0.4810
vn -0.0635 -0.7398 0.6698
vn -0.5137 -0.6362 0.5757
vn -0.2520 -0.9677 -0.0000
vn -0.0539 -0.9985 -0.0000
vn 0.0004 0.3342 0.9425
vn -0.3512 0.3597 0.8644
vn -0.8994 -0.3078 0.3104
vn -0.8568 -0.5157 -0.0000
vn -0.6656 0.6202 0.4152
vn 0.2090 -0.8028 0.5584
vn 0.1062 -0.9943 -0.0000
vn 0.1660 0.3100 0.9361
vn 0.1184 0.4195 0.9000
vn 0.2844 0.9001 0.3299
vn -0.1708 -0.5617 0.8095
vn -0.1774 -0.5820 0.7936
vn 0.2635 0.6660 0.6978
vn 0.1950 -0.9785 0.0672
vn -0.7116 0.7026 -0.0000
vn -0.1076 -0.9942 -0.0000
vn -0.2608 -0.9654 0.0000
vn -0.1658 -0.9390 0.3013
vn -0.1766 -0.9843 -0.0009
vn -0.0165 0.8994 0.4369
vn 0.0649 0.8776 0.4750
vn -0.0018 0.8296 0.5584
vn 0.1763 0.9843 -0.0000
vn 0.0400 0.9924 0.1164
vn 0.2613 0.9653 -0.0000
vn -0.0221 0.9232 -0.3837
vn -0.1582 0.9321 -0.3258
vn 0.0947 0.9251 -0.3676
vn 0.2844 0.9001 -0.3299
vn -0.1688 0.9857 -0.0000
vn -0.0135 0.9999 -0.0000
vn -0.0459 0.9989 -0.0000
vn 0.2490 -0.5314 -0.8097
vn 0.0486 -0.5731 -0.8180
vn 0.0005 0.4512 -0.8924
vn 0.0215 0.3840 -0.9231
vn 0.0306 0.4048 -0.9139
vn -0.0723 -0.5608 -0.8248
vn 0.3033 -0.8322 -0.4642
vn 0.1166 0.2624 -0.9579
vn -0.1507 0.8637 -0.4810
vn -0.0635 -0.7398 -0.6698
vn -0.5137 -0.6362 -0.5757
vn 0.0004 0.3342 -0.9425
vn -0.3512 0.3597 -0.8644
vn -0.8994 -0.3078 -0.3104
vn -0.6656 0.6202 -0.4152
vn 0.1789 -0.8003 -0.5722
vn 0.1660 0.3100 -0.9361
vn 0.1184 0.4195 -0.9000
vn -0.1709 -0.5617 -0.8095
vn 0.2646 0.6654 -0.6981
vn -0.1597 -0.5850 -0.7952
vn -0.1616 -0.9597 -0.2298
vn -0.0165 0.8994 -0.4369
vn 0.0649 0.8776 -0.4750
vn -0.0018 0.8296 -0.5584
vn 0.0400 0.9924 -0.1164
vn 0.8438 -0.0511 0.5343
vn 0.8330 -0.1129 -0.5416
vn 0.2228 0.9496 -0.2203
vn 0.1790 0.9832 0.0356
vn 0.4680 -0.1132 -0.8765
vn 0.1705 -0.2065 -0.9635
vn 0.1531 0.8624 -0.4825
vn 0.1670 0.9606 -0.2223
vn -0.2223 -0.8626 -0.4545
vn -0.0232 -0.8606 -0.5088
vn -0.0002 -1.0000 0.0027
vn -0.0008 -1.0000 0.0014
vn -0.1983 0.8148 0.5448
vn 0.0282 0.8730 0.4868
vn 0.0540 0.9985 -0.0086
vn 0.0082 0.9999 0.0060
vn -0.2750 -0.3447 0.8975
vn -0.0402 -0.7399 0.6715
vn -0.0263 0.2431 0.9696
vn -0.3168 0.1913 0.9290
vn -0.4260 -0.3894 -0.8166
vn -0.3728 -0.5037 -0.7793
vn -0.5433 0.0461 -0.8383
vn -0.4370 0.1549 -0.8860
vn -0.1449 -0.8580 0.4928
vn 0.0953 0.9071 0.4099
vn 0.1891 0.9820 -0.0002
vn -0.2842 -0.4142 0.8647
vn -0.4340 0.0811 0.8973
vn 0.1069 -0.3291 0.9382
vn 0.0098 -1.0000 0.0002
vn 0.1552 0.9842 -0.0854
vn 0.1017 0.9932 -0.0562
vn 0.1527 -0.3788 0.9128
vn -0.0524 0.0012 -0.9986
vn 0.0455 0.5215 -0.8520
vn 0.1360 0.9226 -0.3610
vn 0.0582 0.8592 -0.5083
vn 0.0867 0.8581 0.5061
vn 0.1355 0.9484 0.2867
vn -0.2751 0.7954 -0.5400
vn 0.0672 0.9247 -0.3748
vn 0.4118 0.9113 0.0000
# 119 vertex normals

vt 0.1584 0.3078 0.0000
vt 0.1761 0.3103 0.0000
vt 0.1724 0.3402 0.0000
vt 0.1577 0.3397 0.0000
vt 0.1257 0.3115 0.0000
vt 0.1251 0.3407 0.0000
vt 0.1145 0.3412 0.0000
vt 0.1145 0.3130 0.0000
vt 0.1274 0.4057 0.0000
vt 0.1168 0.4054 0.0000
vt 0.1592 0.4082 0.0000
vt 0.1390 0.2271 0.0000
vt 0.1728 0.2224 0.0000
vt 0.1235 0.2294 0.0000
vt 0.1756 0.0976 0.0000
vt 0.1725 0.0529 0.0000
vt 0.2083 0.0391 0.0000
vt 0.2263 0.0912 0.0000
vt 0.1489 0.0985 0.0000
vt 0.1458 0.0603 0.0000
vt 0.1622 0.0219 0.0000
vt 0.1964 0.0156 0.0000
vt 0.1327 0.0361 0.0000
vt 0.1770 0.1783 0.0000
vt 0.2172 0.1835 0.0000
vt 0.1437 0.1812 0.0000
vt 0.1318 0.4851 0.0000
vt 0.1213 0.4839 0.0000
vt 0.1626 0.4912 0.0000
vt 0.1676 0.5862 0.0000
vt 0.1370 0.5729 0.0000
vt 0.2030 0.2308 0.0000
vt 0.1242 0.0045 0.0000
vt 0.1144 0.0274 0.0000
vt 0.1748 0.4080 0.0000
vt 0.1795 0.4906 0.0000
vt 0.1764 0.5940 0.0000
vt 0.1887 0.5841 0.0000
vt 0.1327 0.0584 0.0000
vt 0.1345 0.0988 0.0000
vt 0.1276 0.1825 0.0000
vt 0.1103 0.0375 0.0000
vt 0.1255 0.0418 0.0000
vt 0.1037 0.0556 0.0000
vt 0.1005 0.3418 0.0000
vt 0.0985 0.3138 0.0000
vt 0.1023 0.4060 0.0000
vt 0.1062 0.4846 0.0000
vt 0.0994 0.2298 0.0000
vt 0.0938 0.0963 0.0000
vt 0.0948 0.1834 0.0000
vt 0.1927 0.3161 0.0000
vt 0.1869 0.3410 0.0000
vt 0.0873 0.3133 0.0000
vt 0.0900 0.3422 0.0000
vt 0.0551 0.3129 0.0000
vt 0.0575 0.3437 0.0000
vt 0.0918 0.4073 0.0000
vt 0.0602 0.4127 0.0000
vt 0.0268 0.2301 0.0000
vt 0.0599 0.2300 0.0000
vt 0.0754 0.2309 0.0000
vt 0.2828 0.0872 0.0000
vt 0.2574 0.0324 0.0000
vt 0.0356 0.0846 0.0000
vt 0.0036 0.0792 0.0000
vt 0.0383 0.0214 0.0000
vt 0.0595 0.0420 0.0000
vt 0.2233 0.0088 0.0000
vt 0.0847 0.0034 0.0000
vt 0.0928 0.0279 0.0000
vt 0.2592 0.1873 0.0000
vt 0.0452 0.1805 0.0000
vt 0.0124 0.1813 0.0000
vt 0.0958 0.4868 0.0000
vt 0.0658 0.4964 0.0000
vt 0.0975 0.5733 0.0000
vt 0.0690 0.5834 0.0000
vt 0.2342 0.2371 0.0000
vt 0.1905 0.4068 0.0000
vt 0.1961 0.4880 0.0000
vt 0.2061 0.5890 0.0000
vt 0.0739 0.0467 0.0000
vt 0.0518 0.0878 0.0000
vt 0.0615 0.1817 0.0000
vt 0.0939 0.0359 0.0000
vt 0.1819 0.9915 0.0000
vt 0.1574 0.9798 0.0000
vt 0.1547 0.9558 0.0000
vt 0.1703 0.9676 0.0000
vt 0.0882 0.9258 0.0000
vt 0.0651 0.8709 0.0000
vt 0.0750 0.8510 0.0000
vt 0.0963 0.9001 0.0000
vt 0.2389 0.6053 0.0000
vt 0.2615 0.6832 0.0000
vt 0.2031 0.7082 0.0000
vt 0.1980 0.6110 0.0000
vt 0.1429 0.6069 0.0000
vt 0.1492 0.7026 0.0000
vt 0.1281 0.7032 0.0000
vt 0.1242 0.6043 0.0000
vt 0.1664 0.6146 0.0000
vt 0.1793 0.7110 0.0000
vt 0.1560 0.7041 0.0000
vt 0.1484 0.6077 0.0000
vt 0.0522 0.6131 0.0000
vt 0.0671 0.5879 0.0000
vt 0.0883 0.5830 0.0000
vt 0.0724 0.6099 0.0000
vt 0.1721 0.6167 0.0000
vt 0.1359 0.5831 0.0000
vt 0.1161 0.5834 0.0000
vt 0.1677 0.5923 0.0000
vt 0.1450 0.5843 0.0000
vt 0.2056 0.9761 0.0000
vt 0.1834 0.9394 0.0000
vt 0.2198 0.9052 0.0000
vt 0.1463 0.9334 0.0000
vt 0.2780 0.8563 0.0000
vt 0.1336 0.8997 0.0000
vt 0.1807 0.9046 0.0000
vt 0.0450 0.6960 0.0000
vt 0.0615 0.6889 0.0000
vt 0.0817 0.8476 0.0000
vt 0.0680 0.6873 0.0000
vt 0.2672 0.9126 0.0000
vt 0.1683 0.8945 0.0000
vt 0.1643 0.9292 0.0000
vt 0.0781 0.6100 0.0000
vt 0.0971 0.5832 0.0000
vt 0.2085 0.5800 0.0000
vt 0.1171 0.5740 0.0000
vt 0.0615 0.5822 0.0000
vt 0.0385 0.6985 0.0000
vt 0.0459 0.6140 0.0000
# 136 texture coords

o IntProp_BreadKnife01
g IntProp_BreadKnife01
usemtl IntProp_BreadKnife01
s 8
f 1/1/1 2/2/2 3/3/3 4/4/4 
s 1
f 5/5/5 6/6/6 7/7/7 8/8/8 
f 1/1/1 4/4/4 6/6/6 5/5/5 
f 6/6/6 9/9/9 10/10/10 7/7/7 
f 4/4/4 11/11/11 9/9/9 6/6/6 
f 1/1/1 5/5/5 12/12/12 13/13/13 
f 5/5/5 8/8/8 14/14/14 12/12/12 
s 8
f 15/15/15 16/16/16 17/17/17 18/18/18 
s 1
f 19/19/19 20/20/20 16/16/16 15/15/15 
s 8
f 16/16/16 21/21/21 22/22/22 17/17/17 
s 1
f 20/20/20 23/23/23 21/21/21 16/16/16 
s 8
f 24/24/24 15/15/15 18/18/18 25/25/25 
s 1
f 26/26/26 19/19/19 15/15/15 24/24/24 
f 9/9/9 27/27/27 28/28/28 10/10/10 
f 11/11/11 29/29/29 27/27/27 9/9/9 
f 29/29/29 30/30/30 31/31/31 27/27/27 
s 8
f 13/13/13 24/24/24 25/25/25 32/32/32 
s 1
f 12/12/12 26/26/26 24/24/24 13/13/13 
f 22/33/22 21/21/21 23/23/23 33/34/33 
s 8
f 34/35/34 11/11/11 4/4/4 3/3/3 
f 35/36/35 29/29/29 11/11/11 34/35/34 
f 36/37/36 30/30/30 37/38/37 
s 1
f 38/39/38 20/20/20 19/19/19 39/40/39 
f 39/40/39 19/19/19 26/26/26 40/41/40 
f 40/41/40 26/26/26 12/12/12 14/14/14 
f 41/42/41 33/34/33 23/23/23 42/43/42 
f 42/43/42 38/39/38 43/44/43 41/42/41 
f 23/23/23 20/20/20 38/39/38 42/43/42 
f 7/7/7 44/45/44 45/46/45 8/8/8 
f 10/10/10 46/47/46 44/45/44 7/7/7 
f 28/28/28 47/48/47 46/47/46 10/10/10 
f 8/8/8 48/49/48 14/14/14 
s 8
f 2/2/2 1/1/1 13/13/13 32/32/32 
s 1
f 43/44/43 38/39/38 39/40/39 49/50/49 
f 49/50/49 39/40/39 40/41/40 50/51/50 
f 50/51/50 40/41/40 14/14/14 48/49/48 
s 8
f 51/52/51 52/53/52 3/3/3 2/2/2 
s 1
f 53/54/53 45/46/45 44/45/44 54/55/54 
f 51/56/51 53/54/53 54/55/54 52/57/52 
f 54/55/54 44/45/44 46/47/46 55/58/55 
f 52/57/52 54/55/54 55/58/55 56/59/56 
f 51/56/51 57/60/57 58/61/58 53/54/53 
f 53/54/53 58/61/58 59/62/59 45/46/45 
s 8
f 60/63/60 18/18/18 17/17/17 61/64/61 
s 1
f 62/65/62 60/66/60 61/67/61 63/68/63 
s 8
f 61/64/61 17/17/17 22/22/22 64/69/64 
s 1
f 63/68/63 61/67/61 64/70/64 65/71/65 
s 8
f 66/72/66 25/25/25 18/18/18 60/63/60 
s 1
f 67/73/67 66/74/66 60/66/60 62/65/62 
f 55/58/55 46/47/46 47/48/47 68/75/68 
f 56/59/56 55/58/55 68/75/68 69/76/69 
f 68/75/68 47/48/47 70/77/70 
f 69/76/69 68/75/68 70/77/70 71/78/71 
s 8
f 57/79/57 32/32/32 25/25/25 66/72/66 
s 1
f 58/61/58 57/60/57 66/74/66 67/73/67 
f 22/33/22 33/34/33 65/71/65 64/70/64 
s 8
f 34/35/34 3/3/3 52/53/52 56/80/56 
f 35/36/35 34/35/34 56/80/56 69/81/69 
f 36/37/36 37/38/37 72/82/72 
s 1
f 73/83/73 74/84/74 62/65/62 63/68/63 
f 74/84/74 75/85/75 67/73/67 62/65/62 
f 75/85/75 59/62/59 58/61/58 67/73/67 
f 41/42/41 76/86/76 65/71/65 33/34/33 
f 76/86/76 41/42/41 43/44/43 73/83/73 
f 65/71/65 76/86/76 73/83/73 63/68/63 
s 8
f 2/2/2 32/32/32 57/79/57 51/52/51 
s 1
f 43/44/43 49/50/49 74/84/74 73/83/73 
f 49/50/49 50/51/50 75/85/75 74/84/74 
f 50/51/50 48/49/48 59/62/59 75/85/75 
s 2
f 77/87/77 78/88/78 79/89/79 80/90/80 
f 81/91/81 82/92/82 83/93/83 84/94/84 
s 8
f 85/95/85 86/96/86 87/97/87 88/98/88 
s 1
f 89/99/89 90/100/90 91/101/91 92/102/92 
f 93/103/93 94/104/94 95/105/95 96/106/96 
f 97/107/97 98/108/98 99/109/99 100/110/100 
s 8
f 88/98/88 101/111/101 36/37/36 
s 1
f 102/112/102 89/99/89 92/102/92 103/113/103 
f 104/114/104 93/103/93 96/106/96 105/115/105 
s 2
f 78/88/78 81/91/81 84/94/84 79/89/79 
s 8
f 78/116/78 106/117/106 107/118/107 
s 1
f 79/89/79 84/94/84 108/119/108 
s 8
f 86/96/86 82/120/82 107/118/107 87/97/87 
s 1
f 90/100/90 109/121/109 91/101/91 
f 94/104/94 110/122/110 95/105/95 
s 2
f 82/92/82 111/123/111 112/124/112 83/93/83 
s 8
f 110/122/110 94/104/94 87/97/87 107/118/107 
s 1
f 113/125/113 114/126/114 91/101/91 109/121/109 
s 8
f 82/120/82 81/127/81 107/118/107 
s 1
f 115/128/115 108/119/108 109/121/109 
s 4
f 115/128/115 110/122/110 106/117/106 116/129/116 
s 8
f 106/117/106 110/122/110 107/118/107 
s 1
f 116/129/116 80/90/80 108/119/108 
s 4
f 106/117/106 80/90/80 116/129/116 
s 1
f 92/102/92 117/130/117 118/131/118 103/113/103 
f 30/30/30 104/114/104 105/115/105 31/31/31 
s 8
f 30/30/30 29/29/29 35/36/35 37/38/37 
s 1
f 70/77/70 99/109/99 98/108/98 71/78/71 
s 8
f 37/38/37 35/36/35 69/81/69 71/132/71 
s 1
f 31/31/31 102/112/102 103/113/103 119/133/119 
f 119/133/119 103/113/103 118/131/118 70/77/70 
s 2
f 111/123/111 97/107/97 100/110/100 112/124/112 
s 8
f 94/104/94 101/111/101 88/98/88 87/97/87 
s 1
f 114/126/114 117/130/117 92/102/92 91/101/91 
f 80/90/80 79/89/79 108/119/108 
f 84/94/84 109/121/109 108/119/108 
f 84/94/84 113/125/113 109/121/109 
f 115/128/115 116/129/116 108/119/108 
f 8/8/8 45/46/45 48/49/48 
f 45/46/45 59/62/59 48/49/48 
f 72/134/72 71/78/71 98/108/98 
f 104/114/104 30/30/30 36/37/36 
f 99/109/99 70/77/70 118/131/118 
f 102/112/102 31/31/31 105/115/105 
f 86/135/86 85/136/85 97/107/97 111/123/111 
f 90/100/90 89/99/89 96/106/96 95/105/95 
f 85/136/85 72/134/72 98/108/98 97/107/97 
f 36/37/36 101/111/101 93/103/93 104/114/104 
f 89/99/89 102/112/102 105/115/105 96/106/96 
f 82/92/82 86/135/86 111/123/111 
f 115/128/115 90/100/90 95/105/95 
f 114/126/114 113/125/113 83/93/83 112/124/112 
f 118/131/118 117/130/117 100/110/100 99/109/99 
f 101/111/101 94/104/94 93/103/93 
f 117/130/117 114/126/114 112/124/112 100/110/100 
f 83/93/83 113/125/113 84/94/84 
s 8
f 36/37/36 72/82/72 88/98/88 
f 72/82/72 85/95/85 88/98/88 
f 37/38/37 71/132/71 72/82/72 
s 4
f 106/117/106 77/87/77 80/90/80 
s 8
f 78/116/78 77/87/77 106/117/106 
s 1
f 28/28/28 31/31/31 119/133/119 
f 47/48/47 28/28/28 119/133/119 
f 47/48/47 119/133/119 70/77/70 
f 28/28/28 27/27/27 31/31/31 
s 8
f 81/127/81 78/116/78 107/118/107 
s 1
f 90/100/90 115/128/115 109/121/109 
s 4
f 110/122/110 115/128/115 95/105/95 
# 97 polygons - 40 triangles

#
# object IntProp_Bread01
#

v  -0.0041 -0.1516 -0.0780
v  0.0364 -0.1567 -0.0014
v  -0.0655 -0.1631 -0.0052
v  0.1525 -0.1486 -0.0314
v  0.1483 -0.1497 -0.0629
v  0.2979 -0.1290 -0.0595
v  0.2980 -0.1328 -0.0446
v  0.1404 -0.1008 -0.1266
v  0.2988 -0.0925 -0.1087
v  0.1381 -0.0350 -0.1534
v  0.2968 -0.0352 -0.1359
v  0.1365 0.0338 -0.1550
v  0.2976 0.0225 -0.1376
v  0.2096 0.0966 -0.1194
v  0.1311 0.1152 -0.1071
v  0.1996 0.1074 -0.0654
v  0.2560 0.1388 -0.0604
v  0.1258 0.1648 0.0035
v  0.1382 0.1470 0.0744
v  0.2610 0.1456 0.0715
v  0.1368 0.1024 0.1243
v  0.2899 0.1027 0.1229
v  0.1362 0.0721 0.1438
v  0.1357 0.0431 0.1625
v  0.1353 -0.0329 0.1651
v  0.2942 -0.0413 0.1612
v  0.2905 0.0396 0.1524
v  0.2252 -0.0664 0.1475
v  0.2921 -0.0974 0.0884
v  0.3030 -0.0879 0.1283
v  0.2368 -0.0833 0.1089
v  0.1414 -0.1446 0.0660
v  0.1608 -0.1494 -0.0001
v  0.2984 -0.1449 0.0029
v  0.2999 -0.1455 0.0723
v  0.3233 -0.1300 -0.0529
v  0.3650 -0.1045 -0.0723
v  0.4282 -0.0541 -0.1047
v  0.3743 -0.0070 -0.1187
v  0.2979 0.0893 -0.1090
v  0.4287 0.0386 -0.1010
v  0.3540 0.1037 -0.0688
v  0.4012 0.0746 -0.0798
v  0.2614 0.1197 -0.0353
v  0.2412 0.1303 0.0101
v  0.3192 0.1241 0.0063
v  0.4304 -0.0123 0.1384
v  0.3687 -0.0679 0.1257
v  0.3490 -0.1078 0.1066
v  0.3948 -0.1308 0.0384
v  0.3770 -0.1169 0.0819
v  0.3354 -0.1067 0.0717
v  0.4316 -0.1345 -0.0245
v  0.4868 -0.0417 -0.0458
v  0.4907 -0.0816 -0.0142
v  0.4854 0.0207 -0.0558
v  0.4576 0.0650 -0.0548
v  0.4150 0.1129 -0.0262
v  0.4839 0.0670 -0.0120
v  0.4591 0.0889 0.0200
v  0.4569 0.0503 0.0809
v  0.4857 0.0538 0.0496
v  0.4492 0.0860 0.0442
v  0.4656 -0.0548 0.0881
v  0.4902 -0.0694 0.0524
v  0.4898 -0.0091 0.0813
v  0.4623 -0.1016 0.0316
v  0.5044 -0.0076 0.0064
v  -0.0058 -0.1059 -0.1345
v  -0.0049 -0.0345 -0.1630
v  -0.0041 0.0357 -0.1614
v  -0.0098 0.0815 -0.1075
v  0.0884 0.0886 -0.0967
v  -0.0005 0.0610 -0.1185
v  0.0568 0.1478 0.0577
v  -0.0318 0.1571 0.0042
v  0.1018 0.1235 0.0952
v  0.0659 0.0938 0.1290
v  -0.0083 -0.0314 0.1622
v  -0.0080 0.0426 0.1614
v  -0.0060 -0.0987 0.1283
v  0.1373 -0.0969 0.1246
v  -0.0073 -0.0602 0.1477
v  0.0012 -0.1474 0.0705
v  0.0852 -0.1530 -0.0030
v  0.0201 -0.1524 0.0320
v  0.2386 0.1204 0.0489
v  0.1162 0.1230 -0.0049
v  0.1240 0.1228 -0.0344
v  0.0443 0.1167 -0.0491
v  0.1243 0.1042 -0.0772
v  -0.0129 0.1057 -0.0825
v  0.4159 0.1130 0.0188
v  0.3479 0.1338 0.0032
v  0.2949 0.1327 -0.0526
v  0.2977 0.1365 -0.0341
v  0.1354 0.0982 -0.1259
v  0.0877 0.1058 -0.1229
v  -0.0020 0.0656 -0.1494
v  0.3521 0.1016 0.1048
v  0.3733 0.0573 0.1270
v  0.4204 0.0616 0.1120
v  0.4336 0.0347 0.0989
v  0.4209 0.0974 0.0631
v  0.4343 0.0674 0.0781
v  0.3500 0.0875 0.0826
v  0.4192 0.0547 0.0880
v  0.3931 0.1158 0.0386
v  0.3817 0.1165 0.0496
v  0.3962 0.0852 0.0645
v  0.1897 0.1228 -0.0397
v  0.3096 0.1172 0.0376
v  0.0278 0.1541 -0.0554
v  -0.0007 0.1150 0.0740
v  -0.0104 0.1251 0.1018
v  -0.0079 0.1026 0.1262
v  0.0831 -0.1479 0.0359
v  0.2283 -0.1445 -0.0275
v  -0.0669 -0.1238 0.0684
v  -0.0577 -0.1520 0.0467
v  -0.0555 -0.1245 0.0925
v  0.3633 0.1041 0.0518
v  0.4307 -0.1133 0.0883
v  0.1431 -0.0540 0.1528
v  0.1815 -0.0784 0.1357
v  0.1154 -0.0698 0.1343
v  0.4412 -0.1123 0.0378
v  0.0678 -0.0458 0.1568
v  -0.0169 -0.1085 -0.0551
v  -0.0181 -0.0758 -0.0955
v  -0.0174 -0.0247 -0.1160
v  -0.0169 0.0256 -0.1148
v  -0.0143 0.0437 -0.0841
v  -0.0210 0.0584 -0.0762
v  -0.0368 0.1125 0.0038
v  -0.0145 0.0823 0.0538
v  -0.0214 0.0896 0.0736
v  -0.0196 0.0735 0.0911
v  -0.0197 0.0305 0.1163
v  -0.0199 -0.0224 0.1169
v  -0.0192 -0.0431 0.1065
v  -0.0183 -0.0707 0.0926
v  -0.0232 0.0757 -0.0583
v  0.0060 0.1103 -0.0389
v  -0.0154 0.0469 -0.1062
v  -0.0619 -0.0886 0.0497
v  -0.0553 -0.1088 0.0342
v  -0.0537 -0.0891 0.0670
v  -0.0609 -0.1168 -0.0030
v  -0.0195 -0.0768 -0.0382
v  -0.0203 -0.0537 -0.0668
v  -0.0198 -0.0175 -0.0813
v  -0.0195 0.0181 -0.0805
v  -0.0176 0.0309 -0.0587
v  -0.0223 0.0413 -0.0532
v  -0.0335 0.0797 0.0035
v  -0.0177 0.0583 0.0389
v  -0.0226 0.0634 0.0529
v  -0.0214 0.0520 0.0653
v  -0.0214 0.0216 0.0831
v  -0.0216 -0.0159 0.0836
v  -0.0211 -0.0305 0.0762
v  -0.0204 -0.0500 0.0664
v  -0.0239 0.0536 -0.0405
v  -0.0033 0.0781 -0.0267
v  -0.0184 0.0332 -0.0744
v  -0.0513 -0.0627 0.0360
v  -0.0466 -0.0770 0.0250
v  -0.0455 -0.0631 0.0483
v  -0.0506 -0.0827 -0.0013
v  0.0308 -0.0418 -0.0326
v  0.0312 0.0072 -0.0494
v  0.0307 0.0232 -0.0348
v  0.0271 0.0442 0.0145
v  0.0294 0.0370 0.0389
v  0.0298 0.0018 0.0544
v  0.0302 -0.0258 0.0466
v  0.0348 0.0422 -0.0205
v  0.0125 -0.0403 0.0280
v  0.0124 -0.0511 0.0086
v  0.1040 -0.0301 -0.0228
v  0.1041 0.0002 -0.0359
v  0.1048 0.0148 -0.0293
v  0.1025 0.0219 -0.0201
v  0.1047 0.0364 -0.0039
v  0.1038 0.0281 0.0227
v  0.1033 0.0170 0.0358
v  0.1033 -0.0107 0.0384
v  0.0951 -0.0271 0.0247
v  0.0907 -0.0369 0.0069
v  0.1243 0.0000 0.0027
# 191 vertices

vn -0.4295 -0.7745 -0.4645
vn 0.0549 -0.9972 0.0512
vn -0.7394 -0.6486 -0.1803
vn 0.0846 -0.9964 -0.0091
vn 0.1005 -0.9448 -0.3120
vn 0.1215 -0.8854 -0.4487
vn 0.0572 -0.9665 -0.2503
vn 0.0917 -0.5982 -0.7961
vn 0.1512 -0.6324 -0.7598
vn 0.0858 -0.2003 -0.9760
vn 0.1510 -0.2212 -0.9635
vn 0.0744 0.2015 -0.9767
vn 0.1739 0.1737 -0.9693
vn 0.1136 0.5949 -0.7957
vn -0.0895 0.9793 -0.1816
vn -0.2130 0.9630 0.1648
vn -0.1140 0.9935 0.0012
vn 0.2990 0.8232 -0.4826
vn -0.0289 0.8778 0.4781
vn 0.3865 0.9090 -0.1562
vn -0.0199 0.6593 0.7516
vn 0.1199 0.6290 0.7681
vn -0.0012 0.5422 0.8402
vn 0.0298 0.2984 0.9540
vn -0.0045 -0.2378 0.9713
vn 0.1068 -0.2456 0.9635
vn 0.1207 0.2768 0.9533
vn 0.0044 -0.7023 0.7119
vn 0.0537 -0.7229 0.6889
vn -0.0185 -0.7819 0.6232
vn 0.0632 -0.7702 0.6347
vn 0.0050 -0.9314 0.3640
vn 0.0394 -0.9990 0.0202
vn 0.0730 -0.9923 -0.1003
vn 0.1958 -0.7979 0.5701
vn 0.0865 -0.8789 -0.4690
vn 0.1865 -0.7277 -0.6600
vn 0.4643 -0.3244 -0.8241
vn 0.2508 0.0161 -0.9679
vn 0.1894 0.6072 -0.7717
vn 0.4486 0.3357 -0.8283
vn 0.2669 0.7589 -0.5939
vn 0.3314 0.6840 -0.6499
vn -0.1911 0.9716 0.1397
vn 0.0001 0.9985 0.0541
vn -0.1015 0.9559 0.2755
vn 0.4733 0.0049 0.8809
vn 0.2048 -0.4763 0.8551
vn -0.0359 -0.8469 0.5305
vn 0.1697 -0.9586 0.2288
vn -0.1048 -0.9588 0.2640
vn 0.0504 -0.8108 0.5831
vn 0.3959 -0.8808 -0.2597
vn 0.8422 -0.1909 -0.5042
vn 0.8302 -0.4949 -0.2565
vn 0.8180 0.1491 -0.5556
vn 0.5805 0.6034 -0.5468
vn 0.3963 0.8655 -0.3063
vn 0.8137 0.5543 -0.1752
vn 0.5928 0.7962 0.1208
vn 0.4815 0.4797 0.7336
vn 0.8074 0.4757 0.3490
vn 0.5426 0.7491 0.3801
vn 0.6677 -0.3307 0.6669
vn 0.8549 -0.4134 0.3135
vn 0.8388 0.0614 0.5409
vn 0.6198 -0.7689 0.1567
vn 0.9986 0.0356 -0.0382
vn -0.5496 -0.4980 -0.6707
vn -0.5486 -0.1425 -0.8239
vn -0.5650 0.1852 -0.8040
vn -0.5795 0.3762 -0.7230
vn -0.3073 0.9490 -0.0701
vn -0.6012 0.7628 -0.2382
vn -0.1366 0.8661 0.4809
vn -0.7473 0.6626 -0.0490
vn -0.1193 0.7654 0.6324
vn -0.0234 0.6994 0.7144
vn -0.5858 -0.1880 0.7884
vn -0.5698 0.2271 0.7898
vn -0.4167 -0.4409 0.7950
vn 0.0911 -0.5091 0.8559
vn -0.6039 -0.3842 0.6983
vn -0.1277 -0.9392 0.3188
vn 0.0640 -0.9951 0.0752
vn -0.1264 -0.9897 0.0668
vn 0.3381 0.8503 -0.4034
vn 0.3243 0.7049 -0.6308
vn -0.0382 0.9777 -0.2067
vn 0.3174 0.6158 -0.7211
vn -0.1377 0.9807 -0.1390
vn -0.6430 0.6749 -0.3620
vn 0.3921 0.9119 0.1211
vn 0.0210 0.9857 0.1669
vn 0.2213 0.8853 -0.4091
vn -0.0802 0.9793 0.1860
vn 0.0615 0.5823 -0.8107
vn -0.2706 0.9231 -0.2732
vn -0.5393 0.6527 -0.5322
vn 0.4450 0.8747 0.1920
vn 0.2217 0.4210 0.8795
vn 0.6382 0.6769 0.3667
vn 0.6789 0.4498 0.5803
vn 0.2445 0.6991 0.6719
vn 0.1713 0.5135 0.8408
vn 0.3653 0.9309 -0.0092
vn 0.4788 0.7404 0.4718
vn 0.2932 0.9285 0.2279
vn -0.0040 0.7807 0.6250
vn 0.0546 0.6574 0.7516
vn 0.0221 0.9447 -0.3271
vn 0.1163 0.9290 0.3513
vn -0.0580 0.6578 -0.7509
vn -0.5197 0.8345 0.1827
vn -0.4379 0.8893 0.1321
vn -0.5572 0.5128 0.6531
vn 0.0334 -0.9943 0.1008
vn -0.3096 -0.2541 -0.9163
vn -0.9205 -0.3178 0.2275
vn -0.4820 -0.6736 0.5603
vn -0.6754 -0.3890 0.6265
vn -0.0513 0.7580 0.6503
vn 0.3935 -0.7494 0.5325
vn -0.0467 -0.5965 0.8012
vn -0.0700 -0.9142 0.3992
vn -0.0011 -0.5178 0.8555
vn 0.4340 -0.8881 0.1516
vn -0.0033 -0.5537 0.8327
vn -0.9241 0.0131 -0.3819
vn -0.9860 -0.1028 -0.1314
vn -0.9848 -0.0195 -0.1724
vn -0.9837 0.0722 -0.1648
vn -0.9781 0.1613 -0.1316
vn -0.9597 -0.0815 -0.2690
vn -0.9853 0.0257 -0.1687
vn -0.9679 0.2506 -0.0183
vn -0.9360 0.3167 -0.1536
vn -0.9862 0.0730 0.1483
vn -0.9866 0.0462 0.1567
vn -0.9866 -0.0505 0.1551
vn -0.9865 -0.0989 0.1303
vn -0.8945 0.2262 0.3856
vn -0.9577 0.2619 0.1193
vn -0.9217 0.3147 -0.2268
vn -0.8838 0.4678 -0.0042
vn -0.9613 0.2742 -0.0264
vn -0.9842 0.0967 -0.1486
vn -0.7524 0.4566 0.4748
vn -0.9449 0.1867 -0.2688
vn -0.8466 0.4968 -0.1911
vn -0.9292 0.2077 0.3057
vn -0.9276 0.0908 0.3624
vn -0.9178 -0.0466 0.3944
vn -0.6323 -0.7633 0.1328
vn -0.8695 -0.4404 0.2237
vn -0.8766 -0.4160 -0.2419
vn -0.6671 -0.7387 0.0963
vn -0.9389 -0.1623 -0.3035
vn -0.8984 -0.2984 -0.3223
vn -0.9230 -0.1115 -0.3682
vn -0.9195 0.0846 -0.3840
vn -0.8769 0.1926 -0.4404
vn -0.7999 0.5992 -0.0327
vn -0.8168 -0.2033 0.5399
vn -0.9831 -0.1828 0.0123
vn -0.9751 0.0184 0.2212
vn -0.6974 0.6637 -0.2704
vn -0.7885 0.4697 -0.3971
vn -0.5994 0.7391 0.3074
vn -0.7823 0.5707 -0.2498
vn -0.4360 0.7188 0.5415
vn -0.4412 -0.1867 0.8778
vn -0.3000 -0.5961 0.7447
vn -0.3210 -0.9331 -0.1621
vn -0.3788 -0.7120 -0.5912
vn -0.3896 -0.0639 -0.9188
vn -0.3421 0.6022 -0.7213
vn -0.3743 -0.7800 0.5015
vn -0.3037 0.8683 -0.3922
vn -0.3532 0.9124 -0.2067
vn -0.5793 0.6828 0.4452
vn -0.5409 0.0210 0.8409
vn -0.5643 -0.5387 0.6256
vn -0.5146 -0.6662 0.5398
vn -0.5515 -0.8150 0.1779
vn -0.5559 -0.7247 -0.4071
vn -0.5536 -0.3783 -0.7419
vn -0.5826 0.3244 -0.7452
vn -0.4725 0.7623 -0.4424
vn -0.4078 0.8981 -0.1649
vn -0.9979 0.0570 -0.0292
# 191 vertex normals

vt 0.3937 0.8057 0.0000
vt 0.3792 0.8641 0.0000
vt 0.3262 0.7906 0.0000
vt 0.4659 0.9184 0.0000
vt 0.4741 0.9009 0.0000
vt 0.5827 0.9589 0.0000
vt 0.5793 0.9678 0.0000
vt 0.5013 0.8583 0.0000
vt 0.5996 0.9259 0.0000
vt 0.5297 0.8257 0.0000
vt 0.6160 0.8922 0.0000
vt 0.5592 0.7954 0.0000
vt 0.6354 0.8643 0.0000
vt 0.6217 0.7952 0.0000
vt 0.6015 0.7524 0.0000
vt 0.6472 0.7583 0.0000
vt 0.6702 0.7856 0.0000
vt 0.6645 0.6806 0.0000
vt 0.7047 0.6598 0.0000
vt 0.7357 0.7196 0.0000
vt 0.7387 0.6369 0.0000
vt 0.7764 0.7157 0.0000
vt 0.7577 0.6248 0.0000
vt 0.7762 0.6137 0.0000
vt 0.8185 0.5917 0.0000
vt 0.8581 0.6870 0.0000
vt 0.8131 0.7001 0.0000
vt 0.8606 0.6389 0.0000
vt 0.9122 0.6779 0.0000
vt 0.8902 0.6890 0.0000
vt 0.8870 0.6422 0.0000
vt 0.9080 0.5527 0.0000
vt 0.9537 0.5533 0.0000
vt 0.9879 0.6721 0.0000
vt 0.9442 0.6746 0.0000
vt 0.6019 0.9685 0.0000
vt 0.6436 0.9592 0.0000
vt 0.7009 0.9354 0.0000
vt 0.6749 0.8983 0.0000
vt 0.6609 0.8303 0.0000
vt 0.7203 0.8886 0.0000
vt 0.7033 0.8325 0.0000
vt 0.7186 0.8613 0.0000
vt 0.6839 0.7728 0.0000
vt 0.6977 0.7464 0.0000
vt 0.7237 0.7818 0.0000
vt 0.8554 0.7786 0.0000
vt 0.8840 0.7351 0.0000
vt 0.9086 0.7205 0.0000
vt 0.9496 0.7578 0.0000
vt 0.9226 0.7412 0.0000
vt 0.9268 0.7083 0.0000
vt 0.6949 1.0028 0.0000
vt 0.7674 0.9379 0.0000
vt 0.7668 0.9720 0.0000
vt 0.7706 0.9024 0.0000
vt 0.7550 0.8752 0.0000
vt 0.7458 0.8375 0.0000
vt 0.7848 0.8684 0.0000
vt 0.7844 0.8417 0.0000
vt 0.8183 0.8180 0.0000
vt 0.8145 0.8453 0.0000
vt 0.7915 0.8285 0.0000
vt 0.8807 0.8106 0.0000
vt 0.8916 0.8375 0.0000
vt 0.8533 0.8336 0.0000
vt 0.9243 0.8189 0.0000
vt 0.9221 0.8638 0.0000
vt 0.8325 0.8958 0.0000
vt 0.4297 0.7771 0.0000
vt 0.4696 0.7502 0.0000
vt 0.5055 0.7268 0.0000
vt 0.5460 0.6875 0.0000
vt 0.5871 0.7263 0.0000
vt 0.5375 0.7007 0.0000
vt 0.6710 0.6302 0.0000
vt 0.6145 0.6132 0.0000
vt 0.7092 0.6321 0.0000
vt 0.7207 0.5988 0.0000
vt 0.7674 0.5115 0.0000
vt 0.7294 0.5396 0.0000
vt 0.8052 0.4825 0.0000
vt 0.8633 0.5700 0.0000
vt 0.7836 0.4987 0.0000
vt 0.8471 0.4589 0.0000
vt 0.9013 0.4535 0.0000
vt 0.9244 0.4893 0.0000
vt 0.8755 0.4555 0.0000
vt 0.7147 0.7299 0.0000
vt 0.6461 0.7002 0.0000
vt 0.6347 0.7147 0.0000
vt 0.6002 0.6857 0.0000
vt 0.6120 0.7339 0.0000
vt 0.5627 0.6727 0.0000
vt 0.7643 0.8216 0.0000
vt 0.7312 0.7971 0.0000
vt 0.6880 0.7979 0.0000
vt 0.6971 0.7910 0.0000
vt 0.5916 0.7651 0.0000
vt 0.5773 0.7421 0.0000
vt 0.5235 0.7158 0.0000
vt 0.7830 0.7531 0.0000
vt 0.8120 0.7544 0.0000
vt 0.8148 0.7840 0.0000
vt 0.8256 0.7983 0.0000
vt 0.7855 0.8086 0.0000
vt 0.8050 0.8084 0.0000
vt 0.7739 0.7653 0.0000
vt 0.8090 0.7959 0.0000
vt 0.7637 0.8045 0.0000
vt 0.7643 0.7956 0.0000
vt 0.7838 0.7930 0.0000
vt 0.6564 0.7434 0.0000
vt 0.7350 0.7657 0.0000
vt 0.6038 0.6620 0.0000
vt 0.6658 0.5926 0.0000
vt 0.6752 0.5763 0.0000
vt 0.6934 0.5655 0.0000
vt 0.9015 0.5021 0.0000
vt 0.4097 0.8929 0.0000
vt 0.5676 0.9986 0.0000
vt 0.5216 0.9521 0.0000
vt 0.4603 0.9396 0.0000
vt 0.8061 0.4186 0.0000
vt 0.8272 0.4079 0.0000
vt 0.8471 0.3792 0.0000
vt 0.8022 0.4367 0.0000
vt 0.7622 0.7835 0.0000
vt 0.9143 0.7787 0.0000
vt 0.8343 0.5900 0.0000
vt 0.8612 0.6063 0.0000
vt 0.8391 0.5661 0.0000
vt 0.9782 0.8053 0.0000
vt 0.9330 0.7992 0.0000
vt 0.8031 0.5487 0.0000
vt 0.8365 0.0068 0.0000
vt 0.8955 0.0165 0.0000
vt 0.8845 0.0574 0.0000
vt 0.8379 0.0487 0.0000
vt 0.7733 0.0218 0.0000
vt 0.7891 0.0596 0.0000
vt 0.7228 0.0549 0.0000
vt 0.7509 0.0845 0.0000
vt 0.7080 0.1208 0.0000
vt 0.7175 0.0995 0.0000
vt 0.7470 0.1165 0.0000
vt 0.7384 0.1321 0.0000
vt 0.7900 0.2961 0.0000
vt 0.7185 0.2626 0.0000
vt 0.7471 0.2410 0.0000
vt 0.7991 0.2633 0.0000
vt 0.8352 0.3189 0.0000
vt 0.8069 0.3169 0.0000
vt 0.8116 0.2783 0.0000
vt 0.8331 0.2797 0.0000
vt 0.8939 0.3077 0.0000
vt 0.8776 0.2712 0.0000
vt 0.9447 0.2704 0.0000
vt 0.9167 0.2427 0.0000
vt 0.9791 0.2183 0.0000
vt 0.9586 0.2477 0.0000
vt 0.9279 0.2245 0.0000
vt 0.9438 0.2008 0.0000
vt 0.7021 0.1540 0.0000
vt 0.7340 0.1555 0.0000
vt 0.6786 0.2083 0.0000
vt 0.7194 0.1962 0.0000
vt 0.7054 0.0764 0.0000
vt 0.7377 0.1005 0.0000
vt 0.9844 0.1076 0.0000
vt 0.9792 0.1407 0.0000
vt 0.9478 0.1450 0.0000
vt 0.9503 0.1219 0.0000
vt 0.9887 0.1632 0.0000
vt 0.9540 0.1599 0.0000
vt 0.9632 0.0648 0.0000
vt 0.9353 0.0914 0.0000
vt 0.8753 0.0871 0.0000
vt 0.8381 0.0778 0.0000
vt 0.7996 0.0856 0.0000
vt 0.7696 0.1051 0.0000
vt 0.7620 0.1316 0.0000
vt 0.7565 0.1415 0.0000
vt 0.7651 0.2263 0.0000
vt 0.8037 0.2409 0.0000
vt 0.8133 0.2515 0.0000
vt 0.8309 0.2525 0.0000
vt 0.8662 0.2463 0.0000
vt 0.8976 0.2236 0.0000
vt 0.9067 0.2090 0.0000
vt 0.9169 0.1883 0.0000
vt 0.7537 0.1578 0.0000
vt 0.7501 0.1888 0.0000
vt 0.7593 0.1184 0.0000
vt 0.9269 0.1485 0.0000
vt 0.9248 0.1321 0.0000
vt 0.9287 0.1605 0.0000
vt 0.9147 0.1091 0.0000
vt 0.8447 0.1181 0.0000
vt 0.7984 0.1312 0.0000
vt 0.7889 0.1502 0.0000
vt 0.8029 0.2043 0.0000
vt 0.8253 0.2141 0.0000
vt 0.8609 0.2059 0.0000
vt 0.8772 0.1846 0.0000
vt 0.7853 0.1740 0.0000
vt 0.8856 0.1607 0.0000
vt 0.8804 0.1399 0.0000
vt 0.8362 0.1458 0.0000
vt 0.8200 0.1545 0.0000
vt 0.8131 0.1597 0.0000
vt 0.8106 0.1657 0.0000
vt 0.8122 0.1775 0.0000
vt 0.8265 0.1864 0.0000
vt 0.8366 0.1881 0.0000
vt 0.8497 0.1780 0.0000
vt 0.8559 0.1664 0.0000
vt 0.8530 0.1537 0.0000
vt 0.8321 0.1686 0.0000
# 219 texture coords

o IntProp_Bread01
g IntProp_Bread01
usemtl IntProp_Bread01
s 1
f 120/137/120 121/138/121 122/139/122 
f 123/140/123 124/141/124 125/142/125 126/143/126 
f 124/141/124 127/144/127 128/145/128 125/142/125 
f 127/144/127 129/146/129 130/147/130 128/145/128 
f 129/146/129 131/148/131 132/149/132 130/147/130 
f 131/148/131 133/150/133 132/149/132 
f 134/151/134 135/152/135 136/153/136 
f 137/154/137 138/155/138 139/156/139 
f 138/155/138 140/157/140 141/158/141 139/156/139 
f 140/157/140 142/159/142 141/158/141 
f 143/160/143 144/161/144 145/162/145 146/163/146 
f 144/161/144 147/164/147 145/162/145 
f 148/165/148 149/166/149 150/167/150 
f 151/168/151 152/169/152 153/170/153 154/171/154 
f 126/143/126 125/142/125 155/172/155 
f 125/142/125 128/145/128 156/173/156 
f 128/145/128 130/147/130 157/174/157 
f 130/147/130 132/149/132 158/175/158 
f 132/149/132 159/176/159 160/177/160 
f 159/176/159 161/178/161 162/179/162 
f 163/180/163 164/181/164 165/182/165 
f 146/163/146 145/162/145 166/183/166 
f 145/162/145 149/166/149 167/184/167 
f 149/166/149 148/165/148 168/185/168 
f 169/186/169 170/187/170 171/188/171 
f 172/189/172 157/174/157 173/190/173 174/191/174 
f 157/174/157 160/177/160 175/192/175 173/190/173 
f 176/193/176 177/194/177 178/195/178 
f 177/194/177 179/196/179 178/195/178 
f 180/197/180 181/198/181 182/199/182 
f 183/200/183 184/201/184 185/202/185 
f 186/203/186 174/204/174 184/201/184 
f 174/191/174 173/190/173 187/205/187 
f 173/190/173 175/192/175 187/205/187 
f 175/192/175 178/195/178 187/205/187 
f 178/195/178 181/198/181 187/205/187 
f 181/198/181 185/202/185 187/205/187 
f 185/202/185 184/201/184 187/205/187 
f 184/201/184 174/204/174 187/205/187 
f 120/137/120 124/141/124 121/138/121 
f 188/206/188 127/144/127 124/141/124 120/137/120 
f 189/207/189 129/146/129 127/144/127 188/206/188 
f 190/208/190 131/148/131 129/146/129 189/207/189 
f 191/209/191 192/210/192 193/211/193 
f 194/212/194 138/155/138 137/154/137 195/213/195 
f 138/155/138 194/212/194 196/214/196 
f 142/159/142 140/157/140 197/215/197 
f 198/216/198 144/161/144 143/160/143 199/217/199 
f 200/218/200 201/219/201 202/220/202 
f 203/221/203 151/168/151 201/219/201 200/218/200 
f 121/222/121 204/223/204 205/224/205 
f 139/156/139 206/225/206 137/154/137 
f 137/154/137 206/225/206 207/226/207 
f 207/226/207 208/227/208 209/228/209 
f 209/228/209 210/229/210 211/230/211 
f 212/231/212 177/194/177 213/232/213 
f 213/232/213 177/194/177 214/233/214 215/234/215 
f 215/234/215 214/233/214 136/153/136 
f 136/153/136 133/150/133 134/151/134 
f 134/151/134 216/235/216 217/236/217 
f 217/236/217 131/148/131 190/208/190 218/237/218 
f 139/156/139 141/158/141 219/238/219 
f 219/238/219 220/239/220 221/240/221 
f 166/183/166 185/202/185 222/241/222 
f 223/242/223 224/243/224 180/197/180 
f 166/183/166 221/240/221 220/239/220 
f 141/158/141 146/163/146 220/239/220 
f 220/239/220 146/163/146 166/183/166 
f 206/225/206 139/156/139 219/238/219 
f 219/238/219 141/158/141 220/239/220 
f 206/225/206 219/238/219 225/244/225 
f 225/244/225 219/238/219 221/240/221 
f 226/245/226 222/241/222 180/197/180 
f 180/197/180 185/202/185 181/198/181 
f 226/245/226 221/240/221 222/241/222 
f 222/241/222 221/240/221 166/183/166 
f 222/241/222 185/202/185 180/197/180 
f 223/242/223 227/246/227 228/247/228 
f 165/182/165 213/232/213 215/234/215 163/180/163 
f 163/180/163 215/234/215 136/153/136 135/152/135 
f 229/248/229 223/242/223 228/247/228 
f 136/153/136 214/233/214 159/176/159 133/150/133 
f 133/150/133 216/235/216 134/151/134 
f 131/148/131 216/235/216 133/150/133 
f 133/150/133 159/176/159 132/149/132 
f 226/245/226 225/244/225 221/240/221 
f 206/225/206 164/181/164 208/227/208 207/226/207 
f 163/180/163 135/152/135 230/249/230 
f 135/152/135 210/229/210 230/249/230 
f 164/181/164 231/250/231 165/182/165 
f 195/213/195 137/154/137 232/251/232 
f 211/230/211 232/251/232 209/228/209 
f 209/228/209 232/251/232 137/154/137 207/226/207 
f 210/229/210 134/151/134 217/236/217 192/210/192 
f 192/210/192 217/236/217 218/237/218 193/211/193 
f 217/236/217 216/235/216 131/148/131 
f 159/176/159 214/233/214 161/178/161 
f 178/195/178 175/192/175 176/193/176 
f 160/177/160 159/176/159 162/179/162 
f 175/192/175 160/177/160 176/193/176 
f 177/194/177 176/193/176 162/179/162 
f 162/179/162 176/193/176 160/177/160 
f 157/174/157 172/189/172 156/173/156 
f 172/189/172 155/172/155 125/142/125 156/173/156 
f 208/227/208 210/229/210 209/228/209 
f 210/229/210 192/210/192 191/209/191 211/230/211 
f 195/213/195 233/252/233 194/212/194 
f 233/252/233 197/215/197 196/214/196 
f 234/253/234 235/254/235 197/215/197 
f 197/215/197 143/160/143 142/159/142 
f 142/159/142 143/160/143 146/163/146 141/158/141 
f 194/212/194 233/252/233 196/214/196 
f 197/215/197 199/217/199 143/160/143 
f 197/215/197 235/254/235 199/217/199 
f 233/252/233 234/253/234 197/215/197 
f 197/215/197 140/157/140 196/214/196 
f 196/214/196 140/157/140 138/155/138 
f 151/168/151 203/221/203 236/255/236 
f 124/141/124 204/256/204 121/138/121 
f 155/172/155 172/189/172 153/257/153 126/143/126 
f 126/143/126 153/257/153 237/258/237 
f 153/257/153 152/259/152 237/258/237 
f 126/143/126 237/258/237 152/259/152 123/140/123 
f 123/140/123 152/259/152 204/256/204 
f 204/223/204 236/255/236 203/221/203 205/224/205 
f 205/224/205 203/221/203 238/260/238 
f 121/222/121 205/224/205 238/260/238 239/261/239 
f 239/261/239 122/262/122 121/222/121 
f 238/260/238 203/221/203 240/263/240 
f 203/221/203 200/218/200 240/263/240 
f 213/232/213 165/182/165 228/247/228 
f 228/247/228 241/264/241 229/248/229 
f 226/245/226 180/197/180 224/243/224 
f 181/198/181 178/195/178 179/196/179 
f 177/194/177 212/231/212 179/196/179 
f 179/196/179 182/199/182 181/198/181 
f 227/246/227 223/242/223 212/231/212 
f 212/231/212 182/199/182 179/196/179 
f 212/231/212 213/232/213 227/246/227 
f 227/246/227 213/232/213 228/247/228 
f 212/231/212 223/242/223 182/199/182 
f 182/199/182 223/242/223 180/197/180 
f 214/233/214 177/194/177 161/178/161 
f 161/178/161 177/194/177 162/179/162 
f 223/242/223 229/248/229 224/243/224 
f 224/243/224 229/248/229 225/244/225 226/245/226 
f 225/244/225 229/248/229 241/264/241 
f 228/247/228 165/182/165 241/264/241 
f 241/264/241 165/182/165 231/250/231 
f 164/181/164 206/225/206 231/250/231 
f 231/250/231 206/225/206 225/244/225 
f 231/250/231 225/244/225 241/264/241 
f 134/151/134 210/229/210 135/152/135 
f 210/229/210 208/227/208 230/249/230 
f 230/249/230 208/227/208 164/181/164 
f 230/249/230 164/181/164 163/180/163 
f 242/265/242 184/201/184 183/200/183 
f 185/202/185 166/183/166 183/200/183 
f 183/200/183 166/183/166 242/265/242 
f 144/161/144 243/266/243 147/164/147 
f 149/166/149 168/185/168 167/184/167 
f 242/265/242 166/183/166 167/184/167 
f 167/184/167 166/183/166 145/162/145 
f 147/164/147 149/166/149 145/162/145 
f 244/267/244 245/268/245 201/219/201 150/167/150 
f 150/167/150 201/219/201 154/171/154 148/165/148 
f 148/165/148 154/171/154 171/188/171 
f 171/188/171 154/171/154 169/186/169 
f 169/186/169 172/269/172 246/270/246 
f 153/170/153 172/269/172 169/186/169 
f 186/203/186 242/265/242 246/270/246 
f 246/270/246 242/265/242 169/186/169 
f 186/203/186 172/269/172 174/204/174 
f 186/203/186 246/270/246 172/269/172 
f 186/203/186 184/201/184 242/265/242 
f 154/171/154 153/170/153 169/186/169 
f 169/186/169 242/265/242 170/187/170 
f 170/187/170 242/265/242 168/185/168 
f 168/185/168 242/265/242 167/184/167 
f 144/161/144 198/216/198 247/271/247 
f 243/266/243 144/161/144 247/271/247 
f 201/219/201 245/268/245 202/220/202 
f 198/216/198 202/220/202 247/271/247 
f 247/271/247 245/268/245 243/266/243 
f 243/266/243 245/268/245 244/267/244 
f 243/266/243 244/267/244 147/164/147 
f 247/271/247 202/220/202 245/268/245 
f 244/267/244 150/167/150 147/164/147 
f 150/167/150 149/166/149 147/164/147 
f 201/219/201 151/168/151 154/171/154 
f 148/165/148 171/188/171 168/185/168 
f 171/188/171 170/187/170 168/185/168 
f 124/141/124 123/140/123 204/256/204 
f 204/223/204 152/169/152 236/255/236 
f 236/255/236 152/169/152 151/168/151 
f 128/145/128 157/174/157 156/173/156 
f 160/177/160 157/174/157 158/175/158 
f 132/149/132 160/177/160 158/175/158 
f 157/174/157 130/147/130 158/175/158 
s 2
f 188/272/188 120/273/120 248/274/248 249/275/249 
f 189/276/189 188/272/188 249/275/249 250/277/250 
f 190/278/190 189/276/189 250/277/250 251/279/251 
f 191/280/191 193/281/193 252/282/252 253/283/253 
f 233/284/233 195/285/195 254/286/254 255/287/255 
f 235/288/235 234/289/234 256/290/256 257/291/257 
f 199/292/199 235/288/235 257/291/257 258/293/258 
f 198/294/198 199/292/199 258/293/258 259/295/259 
f 200/296/200 202/297/202 260/298/260 261/299/261 
f 211/300/211 191/280/191 253/283/253 262/301/262 
f 232/302/232 211/300/211 262/301/262 263/303/263 
f 218/304/218 190/278/190 251/279/251 264/305/264 
f 195/285/195 232/302/232 263/303/263 254/286/254 
f 193/281/193 218/304/218 264/305/264 252/282/252 
f 234/289/234 233/284/233 255/287/255 256/290/256 
f 239/306/239 238/307/238 265/308/265 266/309/266 
f 238/307/238 240/310/240 267/311/267 265/308/265 
f 240/310/240 200/296/200 261/299/261 267/311/267 
f 202/297/202 198/294/198 259/295/259 260/298/260 
f 122/312/122 239/306/239 266/309/266 268/313/268 
f 120/273/120 122/312/122 268/313/268 248/274/248 
f 249/275/249 248/274/248 269/314/269 270/315/270 
f 250/277/250 249/275/249 270/315/270 271/316/271 
f 251/279/251 250/277/250 271/316/271 272/317/272 
f 253/283/253 252/282/252 273/318/273 274/319/274 
f 255/287/255 254/286/254 275/320/275 276/321/276 
f 257/291/257 256/290/256 277/322/277 278/323/278 
f 258/293/258 257/291/257 278/323/278 279/324/279 
f 259/295/259 258/293/258 279/324/279 280/325/280 
f 261/299/261 260/298/260 281/326/281 282/327/282 
f 262/301/262 253/283/253 274/319/274 283/328/283 
f 263/303/263 262/301/262 283/328/283 284/329/284 
f 264/305/264 251/279/251 272/317/272 285/330/285 
f 254/286/254 263/303/263 284/329/284 275/320/275 
f 252/282/252 264/305/264 285/330/285 273/318/273 
f 256/290/256 255/287/255 276/321/276 277/322/277 
f 266/309/266 265/308/265 286/331/286 287/332/287 
f 265/308/265 267/311/267 288/333/288 286/331/286 
f 267/311/267 261/299/261 282/327/282 288/333/288 
f 260/298/260 259/295/259 280/325/280 281/326/281 
f 268/313/268 266/309/266 287/332/287 289/334/289 
f 248/274/248 268/313/268 289/334/289 269/314/269 
f 270/315/270 269/314/269 290/335/290 
f 271/316/271 270/315/270 290/335/290 291/336/291 
f 272/317/272 271/316/271 291/336/291 
f 274/319/274 273/318/273 292/337/292 
f 276/321/276 275/320/275 293/338/293 
f 278/323/278 277/322/277 294/339/294 
f 279/324/279 278/323/278 294/339/294 295/340/295 
f 280/325/280 279/324/279 295/340/295 
f 282/327/282 281/326/281 296/341/296 
f 283/328/283 274/319/274 292/337/292 297/342/297 
f 284/329/284 283/328/283 297/342/297 
f 285/330/285 272/317/272 291/336/291 
f 275/320/275 284/329/284 297/342/297 293/338/293 
f 273/318/273 285/330/285 291/336/291 292/337/292 
f 277/322/277 276/321/276 293/338/293 294/339/294 
f 287/332/287 286/331/286 298/343/298 299/344/299 
f 286/331/286 288/333/288 298/343/298 
f 288/333/288 282/327/282 296/341/296 298/343/298 
f 281/326/281 280/325/280 295/340/295 296/341/296 
f 289/334/289 287/332/287 299/344/299 
f 269/314/269 289/334/289 299/344/299 290/335/290 
f 291/336/291 290/335/290 300/345/300 301/346/301 
f 292/337/292 302/347/302 303/348/303 
f 293/338/293 304/349/304 305/350/305 
f 294/339/294 305/350/305 306/351/306 
f 295/340/295 294/339/294 306/351/306 
f 295/340/295 306/351/306 307/352/307 
f 296/341/296 307/352/307 308/353/308 
f 297/342/297 292/337/292 303/348/303 
f 297/342/297 303/348/303 304/349/304 
f 291/336/291 301/346/301 302/347/302 
f 293/338/293 297/342/297 304/349/304 
f 292/337/292 291/336/291 302/347/302 
f 294/339/294 293/338/293 305/350/305 
f 299/344/299 298/343/298 308/353/308 309/354/309 
f 298/343/298 296/341/296 308/353/308 
f 296/341/296 295/340/295 307/352/307 
f 290/335/290 299/344/299 309/354/309 300/345/300 
f 301/346/301 300/345/300 310/355/310 
f 303/348/303 302/347/302 310/355/310 
f 305/350/305 304/349/304 310/355/310 
f 306/351/306 305/350/305 310/355/310 
f 307/352/307 306/351/306 310/355/310 
f 308/353/308 307/352/307 310/355/310 
f 304/349/304 303/348/303 310/355/310 
f 302/347/302 301/346/301 310/355/310 
f 309/354/309 308/353/308 310/355/310 
f 300/345/300 309/354/309 310/355/310 
# 89 polygons - 200 triangles

#
# object IntProp_Bread02
#

v  -0.3169 -0.1589 -0.0966
v  -0.3086 -0.1558 -0.0084
v  -0.3820 -0.1612 -0.0331
v  -0.4560 -0.1367 -0.0116
v  -0.4652 -0.1230 -0.0710
v  -0.4067 -0.1472 -0.0586
v  -0.4490 -0.0885 -0.1216
v  -0.3125 -0.0373 -0.1705
v  -0.3042 -0.1245 -0.1466
v  -0.4235 -0.0099 -0.1225
v  -0.3663 0.0511 -0.1107
v  -0.3013 0.0335 -0.1450
v  -0.4311 0.0297 -0.0671
v  -0.4446 0.0801 -0.0417
v  -0.3623 0.0749 -0.0392
v  -0.3724 0.1243 -0.0213
v  -0.2859 0.1020 0.0024
v  -0.3171 0.0938 -0.0151
v  -0.2927 0.1359 0.0664
v  -0.2933 0.1540 0.0072
v  -0.3517 0.1240 0.0450
v  -0.3752 0.0592 0.1013
v  -0.2958 0.0880 0.1105
v  -0.3708 0.0969 0.0699
v  -0.3825 0.0223 0.1210
v  -0.2988 0.0366 0.1415
v  -0.4624 -0.0131 0.0929
v  -0.3947 -0.0466 0.1281
v  -0.4630 -0.0595 0.0846
v  -0.3766 -0.1313 0.0651
v  -0.3043 -0.1645 0.0630
v  -0.2974 -0.1139 0.0854
v  -0.3868 -0.1541 0.0122
v  -0.4306 -0.1375 0.0298
v  -0.1506 -0.1558 -0.0825
v  -0.2284 -0.1738 -0.0084
v  -0.1522 -0.1118 -0.1390
v  -0.1532 -0.0423 -0.1629
v  -0.2151 0.0062 -0.1592
v  -0.1299 0.0362 -0.1353
v  -0.1487 0.0053 -0.1615
v  -0.2977 0.0749 -0.1099
v  -0.1557 0.0939 -0.1171
v  -0.1447 0.0664 -0.1428
v  -0.1943 0.0378 -0.1565
v  -0.1639 0.1255 -0.0707
v  -0.2183 0.1060 -0.0498
v  -0.1116 0.1327 -0.0182
v  -0.1171 0.1392 -0.0375
v  -0.1669 0.1518 0.0548
v  -0.1392 0.1231 0.0388
v  -0.2296 0.1106 0.0115
v  -0.1523 0.0991 0.1232
v  -0.1636 0.1340 0.0834
v  -0.1516 0.0399 0.1529
v  -0.3047 -0.0315 0.1491
v  -0.1519 -0.0322 0.1559
v  -0.2290 -0.0872 0.1249
v  -0.2261 -0.1421 0.0838
v  -0.2272 -0.1129 0.1042
v  -0.1481 -0.1648 -0.0060
v  -0.1434 -0.1520 0.0621
v  -0.0058 -0.1059 -0.1345
v  -0.0041 -0.1516 -0.0780
v  -0.0049 -0.0345 -0.1630
v  -0.0547 0.0350 -0.1320
v  -0.0867 0.0998 -0.1216
v  -0.0950 0.1272 -0.0791
v  -0.0318 0.1571 0.0042
v  -0.0439 0.1465 -0.0486
v  -0.0889 0.1395 0.0800
v  -0.0684 0.1292 0.0312
v  -0.0104 0.1251 0.1018
v  -0.0007 0.1150 0.0740
v  -0.0080 0.0426 0.1614
v  -0.0079 0.1026 0.1262
v  -0.0083 -0.0314 0.1622
v  -0.0073 -0.0602 0.1477
v  -0.1495 -0.1253 0.0907
v  -0.0669 -0.1238 0.0684
v  -0.5068 -0.0737 -0.0235
v  -0.4973 -0.0493 -0.0533
v  -0.4714 -0.0375 -0.0906
v  -0.4943 -0.0045 -0.0440
v  -0.4821 0.0365 -0.0380
v  -0.4593 0.0587 0.0659
v  -0.4575 0.0691 0.0104
v  -0.4972 0.0277 0.0177
v  -0.4988 -0.0149 0.0403
v  -0.4834 -0.1059 0.0072
v  -0.4778 -0.1111 -0.0302
v  -0.5033 -0.0207 -0.0093
v  -0.5088 -0.0685 0.0240
v  -0.0238 0.1320 -0.0906
v  0.0278 0.1541 -0.0554
v  -0.0129 0.1057 -0.0825
v  -0.0098 0.0815 -0.1075
v  -0.0637 0.0809 -0.1090
v  -0.0005 0.0610 -0.1185
v  -0.1819 -0.0193 -0.1648
v  -0.0020 0.0656 -0.1494
v  -0.0041 0.0357 -0.1614
v  -0.0661 0.0394 -0.1564
v  -0.4116 0.1012 0.0320
v  -0.1448 0.1265 0.0031
v  -0.1819 0.1193 -0.0206
v  -0.3262 0.0814 -0.0544
v  -0.0555 -0.1245 0.0925
v  -0.1548 -0.1045 0.1206
v  -0.0577 -0.1520 0.0467
v  -0.0060 -0.0987 0.1283
v  -0.3014 -0.0959 0.1137
v  -0.4695 -0.1073 0.0521
v  -0.3881 -0.0890 0.1066
v  -0.0655 -0.1631 -0.0052
v  0.0047 -0.0604 -0.0755
v  0.0056 -0.0864 -0.0433
v  0.0052 -0.0197 -0.0917
v  0.0056 0.0203 -0.0908
v  0.0024 0.0465 -0.0601
v  0.0077 0.0348 -0.0664
v  0.0076 0.0655 0.0434
v  -0.0101 0.0896 0.0036
v  0.0035 0.0585 0.0731
v  0.0021 0.0713 0.0592
v  0.0035 0.0243 0.0931
v  0.0033 -0.0179 0.0936
v  0.0046 -0.0563 0.0743
v  0.0039 -0.0343 0.0853
v  0.0006 0.0603 -0.0458
v  0.0239 0.0878 -0.0304
v  0.0069 0.0374 -0.0840
v  -0.0249 -0.0866 0.0278
v  -0.0301 -0.0705 0.0401
v  -0.0236 -0.0710 0.0539
v  -0.0293 -0.0929 -0.0018
v  -0.0576 -0.0394 -0.0306
v  -0.0575 0.0002 -0.0478
v  -0.0596 0.0287 -0.0272
v  -0.0565 0.0194 -0.0391
v  -0.0578 0.0368 0.0288
v  -0.0567 0.0477 -0.0059
v  -0.0586 0.0116 0.0478
v  -0.0581 -0.0243 0.0442
v  -0.0750 -0.0482 0.0082
v  -0.0749 -0.0380 0.0265
v  -0.1123 -0.0129 -0.0251
v  -0.1177 -0.0289 -0.0054
v  -0.1119 0.0093 -0.0264
v  -0.1123 0.0131 -0.0186
v  -0.1143 0.0251 0.0094
v  -0.1129 0.0166 0.0261
v  -0.1128 -0.0084 0.0308
v  -0.1170 -0.0205 0.0226
v  -0.1100 0.0239 -0.0105
v  -0.1228 -0.0254 0.0128
v  -0.1143 0.0000 0.0027
# 157 vertices

vn -0.1177 -0.9233 -0.3655
vn -0.1085 -0.9940 -0.0162
vn -0.1596 -0.9865 -0.0360
vn -0.5263 -0.8491 0.0451
vn -0.6072 -0.6896 -0.3946
vn -0.3035 -0.9116 -0.2772
vn -0.5569 -0.3029 -0.7734
vn -0.1527 0.0427 -0.9873
vn -0.0729 -0.5850 -0.8077
vn -0.4990 0.3873 -0.7752
vn -0.3833 0.7251 -0.5721
vn -0.1737 0.4892 -0.8547
vn -0.4352 0.5905 -0.6796
vn -0.4413 0.7048 -0.5554
vn -0.1445 0.8348 -0.5313
vn -0.1541 0.7681 -0.6215
vn 0.0635 0.6857 -0.7251
vn 0.0473 0.7869 -0.6153
vn -0.1954 0.8303 0.5219
vn 0.0014 0.8664 -0.4993
vn -0.3707 0.8604 0.3497
vn -0.3063 0.5551 0.7733
vn -0.2086 0.5991 0.7730
vn -0.3366 0.7039 0.6255
vn -0.3592 0.3360 0.8707
vn -0.1767 0.3312 0.9269
vn -0.6443 0.0984 0.7584
vn -0.3218 -0.1880 0.9280
vn -0.6220 -0.2674 0.7359
vn -0.2350 -0.7050 0.6692
vn -0.1249 -0.8486 0.5141
vn -0.0934 -0.6678 0.7384
vn -0.1905 -0.9713 0.1424
vn -0.3215 -0.8739 0.3646
vn 0.0546 -0.9201 -0.3879
vn 0.0180 -0.9986 0.0497
vn 0.0687 -0.5765 -0.8142
vn 0.0310 -0.1621 -0.9863
vn 0.0452 0.1497 -0.9877
vn 0.1924 0.3171 -0.9287
vn 0.0102 0.3621 -0.9321
vn 0.2915 0.4521 -0.8430
vn -0.2574 0.8568 -0.4468
vn -0.1164 0.7405 -0.6620
vn 0.1139 0.3204 -0.9404
vn 0.0753 0.2329 -0.9696
vn -0.2132 0.9371 -0.2763
vn -0.2600 0.9599 -0.1051
vn -0.2672 0.9262 0.2661
vn -0.3255 0.9385 0.1153
vn 0.1456 0.9833 -0.1093
vn -0.0851 0.8462 -0.5260
vn 0.0373 0.8118 -0.5827
vn -0.0709 0.6042 0.7936
vn -0.0513 0.7940 0.6058
vn -0.0710 0.2501 0.9656
vn -0.1320 -0.1642 0.9775
vn -0.0436 -0.2064 0.9775
vn -0.0613 -0.5312 0.8450
vn 0.0196 -0.7442 0.6677
vn -0.0783 -0.6032 0.7937
vn 0.0681 -0.9971 0.0342
vn 0.0652 -0.8850 0.4610
vn 0.6228 -0.4610 -0.6321
vn 0.6614 -0.7403 -0.1209
vn 0.6212 -0.1408 -0.7709
vn -0.2809 0.8749 -0.3944
vn 0.1773 0.4217 -0.8893
vn -0.1026 0.8637 -0.4935
vn 0.2126 0.9273 0.3081
vn -0.1270 0.9536 -0.2730
vn 0.1035 0.9584 0.2662
vn -0.1122 0.9766 0.1836
vn 0.5502 0.7845 0.2860
vn 0.8509 0.5150 0.1038
vn 0.5762 0.2180 0.7877
vn 0.6151 0.5108 0.6006
vn 0.5817 -0.1753 0.7943
vn 0.6348 -0.3292 0.6990
vn 0.0867 -0.7669 0.6359
vn 0.5105 -0.7865 0.3475
vn -0.9491 -0.2637 -0.1723
vn -0.9084 -0.0010 -0.4181
vn -0.7408 0.2039 -0.6400
vn -0.8507 0.2914 -0.4376
vn -0.7370 0.4560 -0.4989
vn -0.6206 0.5692 0.5393
vn -0.6702 0.7414 0.0337
vn -0.9043 0.4117 0.1132
vn -0.9088 0.1298 0.3966
vn -0.7575 -0.6455 0.0975
vn -0.7741 -0.6315 -0.0436
vn -0.9872 0.1374 -0.0811
vn -0.9373 -0.2282 0.2636
vn 0.2443 0.5378 -0.8069
vn 0.7697 0.6041 -0.2065
vn 0.6959 0.0782 -0.7138
vn 0.5592 0.5917 -0.5807
vn 0.2594 0.2525 -0.9322
vn 0.7014 0.6716 -0.2386
vn 0.0272 0.0753 -0.9968
vn 0.4430 0.8019 -0.4009
vn 0.5885 0.1371 -0.7968
vn -0.3142 0.8344 -0.4528
vn -0.4796 0.8499 0.2183
vn -0.1845 0.9791 0.0856
vn -0.1965 0.9737 -0.1158
vn -0.2322 0.9277 -0.2924
vn 0.2815 -0.9565 0.0759
vn -0.0713 -0.6703 0.7387
vn 0.5533 -0.7152 0.4271
vn 0.6394 -0.6545 0.4035
vn -0.0446 -0.6794 0.7324
vn -0.5828 -0.6247 0.5196
vn -0.2391 -0.5793 0.7792
vn 0.3847 -0.9145 0.1256
vn 0.9531 0.1784 0.2444
vn 0.9017 0.1179 0.4160
vn 0.9449 0.0546 0.3227
vn 0.9395 -0.1123 0.3238
vn 0.9017 -0.0241 0.4317
vn 0.8293 -0.4882 0.2719
vn 0.8568 -0.5118 -0.0627
vn 0.9643 -0.2144 0.1554
vn 0.9484 -0.1765 -0.2633
vn 0.9393 -0.3254 0.1088
vn 0.9559 -0.0808 -0.2825
vn 0.9603 0.0875 -0.2651
vn 0.8796 -0.1060 -0.4638
vn 0.9160 0.2047 -0.3450
vn 0.8566 -0.4762 0.1987
vn 0.9329 -0.3138 0.1767
vn 0.9844 -0.1193 0.1296
vn 0.9935 0.0950 0.0622
vn 0.9068 0.3265 -0.2666
vn 0.7360 -0.2865 -0.6133
vn 0.9375 0.0695 0.3410
vn 0.5152 0.5895 0.6221
vn 0.4974 -0.0202 0.8673
vn 0.3951 -0.6857 0.6114
vn 0.4194 -0.5750 0.7024
vn 0.4284 -0.7688 -0.4747
vn 0.5110 -0.8314 0.2185
vn 0.4898 -0.2361 -0.8393
vn 0.4684 0.2650 -0.8429
vn 0.5523 0.8328 -0.0389
vn 0.4659 0.6439 -0.6069
vn 0.7309 0.2408 0.6386
vn 0.7807 0.5425 0.3102
vn 0.7082 -0.3793 0.5955
vn 0.8248 -0.4587 0.3304
vn 0.7975 -0.5964 -0.0911
vn 0.7313 -0.3950 -0.5560
vn 0.7110 0.0610 -0.7005
vn 0.7478 0.2635 -0.6094
vn 0.6828 -0.6230 0.3817
vn 0.9103 0.3455 -0.2281
vn 0.9924 -0.1168 0.0401
# 158 vertex normals

vt 0.3013 0.5778 0.0000
vt 0.2502 0.5917 0.0000
vt 0.2698 0.5216 0.0000
vt 0.2817 0.4462 0.0000
vt 0.3163 0.4550 0.0000
vt 0.2936 0.5021 0.0000
vt 0.3470 0.4732 0.0000
vt 0.3885 0.5617 0.0000
vt 0.3392 0.5808 0.0000
vt 0.3922 0.4776 0.0000
vt 0.4330 0.5043 0.0000
vt 0.4292 0.5539 0.0000
vt 0.4249 0.4513 0.0000
vt 0.4532 0.4369 0.0000
vt 0.4697 0.4830 0.0000
vt 0.4938 0.4650 0.0000
vt 0.5144 0.5112 0.0000
vt 0.4960 0.5007 0.0000
vt 0.5601 0.4701 0.0000
vt 0.5331 0.4907 0.0000
vt 0.5299 0.4511 0.0000
vt 0.5502 0.4080 0.0000
vt 0.5841 0.4431 0.0000
vt 0.5349 0.4298 0.0000
vt 0.5600 0.3874 0.0000
vt 0.6046 0.4165 0.0000
vt 0.5139 0.3546 0.0000
vt 0.5707 0.3524 0.0000
vt 0.5209 0.3304 0.0000
vt 0.5971 0.2991 0.0000
vt 0.6590 0.2970 0.0000
vt 0.6514 0.3296 0.0000
vt 0.5925 0.2626 0.0000
vt 0.5546 0.2755 0.0000
vt 0.3348 0.7042 0.0000
vt 0.2667 0.6616 0.0000
vt 0.3762 0.6841 0.0000
vt 0.4186 0.6642 0.0000
vt 0.4329 0.6129 0.0000
vt 0.4759 0.6491 0.0000
vt 0.4474 0.6533 0.0000
vt 0.4579 0.5407 0.0000
vt 0.5021 0.6121 0.0000
vt 0.4855 0.6299 0.0000
vt 0.4556 0.6133 0.0000
vt 0.5286 0.5895 0.0000
vt 0.5168 0.5572 0.0000
vt 0.5746 0.5882 0.0000
vt 0.5630 0.5954 0.0000
vt 0.5950 0.5294 0.0000
vt 0.5898 0.5534 0.0000
vt 0.5420 0.5297 0.0000
vt 0.6422 0.5012 0.0000
vt 0.6125 0.5179 0.0000
vt 0.6734 0.4731 0.0000
vt 0.6236 0.3828 0.0000
vt 0.7039 0.4401 0.0000
vt 0.6851 0.3780 0.0000
vt 0.7072 0.3413 0.0000
vt 0.6961 0.3608 0.0000
vt 0.7350 0.2836 0.0000
vt 0.7935 0.3278 0.0000
vt 0.7696 0.3660 0.0000
vt 0.4297 0.7771 0.0000
vt 0.3937 0.8057 0.0000
vt 0.4696 0.7502 0.0000
vt 0.5038 0.6844 0.0000
vt 0.5246 0.6438 0.0000
vt 0.5479 0.6215 0.0000
vt 0.6145 0.6132 0.0000
vt 0.5831 0.6295 0.0000
vt 0.6348 0.5527 0.0000
vt 0.6172 0.5825 0.0000
vt 0.6752 0.5763 0.0000
vt 0.6658 0.5926 0.0000
vt 0.7294 0.5396 0.0000
vt 0.6934 0.5655 0.0000
vt 0.7674 0.5115 0.0000
vt 0.7836 0.4987 0.0000
vt 0.7514 0.3840 0.0000
vt 0.8061 0.4186 0.0000
vt 0.3501 0.3920 0.0000
vt 0.3725 0.4054 0.0000
vt 0.3791 0.4379 0.0000
vt 0.4079 0.3974 0.0000
vt 0.4322 0.4106 0.0000
vt 0.4967 0.3916 0.0000
vt 0.4704 0.4102 0.0000
vt 0.4548 0.3782 0.0000
vt 0.4678 0.3520 0.0000
vt 0.5251 0.2549 0.0000
vt 0.4969 0.2834 0.0000
vt 0.4869 0.2619 0.0000
vt 0.4217 0.3609 0.0000
vt 0.4724 0.3166 0.0000
vt 0.4530 0.2967 0.0000
vt 0.5672 0.6555 0.0000
vt 0.6038 0.6620 0.0000
vt 0.5627 0.6727 0.0000
vt 0.5460 0.6875 0.0000
vt 0.5264 0.6624 0.0000
vt 0.5375 0.7007 0.0000
vt 0.4255 0.6402 0.0000
vt 0.5235 0.7158 0.0000
vt 0.5055 0.7268 0.0000
vt 0.4897 0.6914 0.0000
vt 0.5009 0.4283 0.0000
vt 0.5714 0.5665 0.0000
vt 0.5457 0.5609 0.0000
vt 0.4740 0.5078 0.0000
vt 0.6626 0.2540 0.0000
vt 0.8022 0.4367 0.0000
vt 0.7353 0.4006 0.0000
vt 0.8272 0.4079 0.0000
vt 0.8052 0.4825 0.0000
vt 0.6427 0.3466 0.0000
vt 0.5213 0.2982 0.0000
vt 0.5964 0.2327 0.0000
vt 0.5822 0.3296 0.0000
vt 0.3128 0.4265 0.0000
vt 0.8471 0.3792 0.0000
vt 0.3262 0.7906 0.0000
vt 0.2918 0.7274 0.0000
vt 0.2891 0.1576 0.0000
vt 0.2876 0.1014 0.0000
vt 0.3414 0.1108 0.0000
vt 0.3407 0.1443 0.0000
vt 0.3144 0.0493 0.0000
vt 0.3588 0.0792 0.0000
vt 0.3527 0.0144 0.0000
vt 0.3849 0.0572 0.0000
vt 0.3910 0.0207 0.0000
vt 0.4098 0.0138 0.0000
vt 0.4210 0.0571 0.0000
vt 0.4099 0.0585 0.0000
vt 0.5302 0.0501 0.0000
vt 0.5407 0.1171 0.0000
vt 0.5005 0.1198 0.0000
vt 0.4882 0.0820 0.0000
vt 0.5604 0.1288 0.0000
vt 0.5594 0.1540 0.0000
vt 0.5089 0.1465 0.0000
vt 0.5089 0.1306 0.0000
vt 0.5446 0.2051 0.0000
vt 0.4996 0.1782 0.0000
vt 0.5048 0.2466 0.0000
vt 0.4761 0.2036 0.0000
vt 0.4806 0.2552 0.0000
vt 0.4471 0.2643 0.0000
vt 0.4440 0.2164 0.0000
vt 0.4625 0.2098 0.0000
vt 0.4368 0.0121 0.0000
vt 0.4379 0.0579 0.0000
vt 0.4890 0.0069 0.0000
vt 0.4658 0.0513 0.0000
vt 0.3738 0.0048 0.0000
vt 0.3993 0.0505 0.0000
vt 0.3821 0.2486 0.0000
vt 0.3560 0.2430 0.0000
vt 0.3866 0.1980 0.0000
vt 0.4049 0.2013 0.0000
vt 0.3980 0.2606 0.0000
vt 0.4156 0.2087 0.0000
vt 0.3229 0.2234 0.0000
vt 0.3643 0.1811 0.0000
vt 0.3843 0.1359 0.0000
vt 0.4005 0.1056 0.0000
vt 0.4279 0.1003 0.0000
vt 0.4158 0.0992 0.0000
vt 0.4618 0.1305 0.0000
vt 0.4506 0.1046 0.0000
vt 0.4572 0.1552 0.0000
vt 0.4354 0.1739 0.0000
vt 0.4008 0.1637 0.0000
vt 0.4155 0.1697 0.0000
vt 0.4104 0.1311 0.0000
vt 0.4109 0.1447 0.0000
vt 0.4188 0.1231 0.0000
vt 0.4230 0.1238 0.0000
vt 0.4362 0.1303 0.0000
vt 0.4380 0.1397 0.0000
vt 0.4303 0.1507 0.0000
vt 0.4225 0.1525 0.0000
vt 0.4299 0.1225 0.0000
vt 0.4178 0.1499 0.0000
vt 0.4246 0.1366 0.0000
# 186 texture coords

o IntProp_Bread02
g IntProp_Bread02
usemtl IntProp_Bread01
s 1
f 311/356/311 312/357/312 313/358/313 
f 314/359/314 315/360/315 316/361/316 
f 317/362/317 318/363/318 319/364/319 
f 317/362/317 320/365/320 318/363/318 
f 320/365/320 321/366/321 322/367/322 
f 323/368/323 324/369/324 325/370/325 
f 326/371/326 327/372/327 328/373/328 
f 329/374/329 330/375/330 331/376/331 
f 332/377/332 333/378/333 329/374/329 334/379/334 
f 335/380/335 336/381/336 333/378/333 332/377/332 
f 337/382/337 338/383/338 335/380/335 
f 337/382/337 339/384/339 338/383/338 
f 340/385/340 341/386/341 342/387/342 
f 343/388/343 341/386/341 340/385/340 344/389/344 
f 311/356/311 345/390/345 346/391/346 
f 311/356/311 319/364/319 347/392/347 345/390/345 
f 319/364/319 318/363/318 348/393/348 347/392/347 
f 349/394/349 350/395/350 351/396/351 349/394/352 
f 322/367/322 352/397/353 353/398/354 354/399/355 355/400/356 
f 352/397/353 356/401/357 353/398/354 
f 357/402/358 358/403/359 359/404/360 356/401/357 
f 330/375/330 360/405/361 361/406/362 362/407/363 
f 329/374/329 333/378/333 363/408/364 364/409/365 
f 333/378/333 336/381/336 365/410/366 363/408/364 
f 336/381/336 366/411/367 367/412/368 365/410/366 
f 366/411/367 368/413/369 367/412/368 
f 342/387/342 369/414/370 370/415/371 
f 346/416/346 371/417/372 372/418/373 369/414/370 
f 345/390/345 347/392/347 373/419/374 374/420/375 
f 347/392/347 348/393/348 375/421/376 373/419/374 
f 350/395/350 376/422/377 351/396/351 
f 354/399/355 353/398/354 377/423/378 
f 353/398/354 356/401/357 378/424/379 
f 359/404/360 379/425/380 380/426/381 
f 361/406/362 360/405/361 381/427/382 382/428/383 
f 383/429/384 384/430/385 381/427/382 
f 363/408/364 365/410/366 385/431/386 386/432/387 
f 365/410/366 367/412/368 387/433/388 385/431/386 
f 367/412/368 388/434/389 387/433/388 
f 389/435/390 372/418/373 390/436/391 
f 317/362/317 391/437/392 392/438/393 
f 320/365/320 393/439/394 394/440/395 
f 324/369/324 323/368/323 395/441/396 
f 396/442/397 397/443/398 398/444/399 
f 337/382/337 396/442/397 398/444/399 399/445/400 
f 339/384/339 337/382/337 399/445/400 
f 314/446/314 400/447/401 401/448/402 
f 392/438/393 391/437/392 402/449/403 
f 394/440/395 392/438/393 402/449/403 
f 398/444/399 394/440/395 402/449/403 
f 399/445/400 398/444/399 402/449/403 
f 403/450/404 399/445/400 402/449/403 
f 391/451/392 403/450/404 402/449/403 
f 404/452/405 405/453/406 406/454/407 
f 379/425/380 405/453/406 380/426/381 
f 406/454/407 407/455/408 408/456/409 
f 408/456/409 407/455/408 409/457/410 350/395/350 
f 322/367/322 355/400/356 349/394/349 
f 348/393/348 318/363/318 410/458/411 
f 349/394/349 318/363/318 322/367/322 
f 411/459/412 412/460/413 413/461/414 
f 413/461/414 412/460/413 375/421/376 348/393/348 351/396/351 
f 351/396/351 410/458/411 349/394/352 
f 405/453/406 404/452/405 380/426/381 
f 380/426/381 378/424/379 356/401/357 359/404/360 
f 359/404/360 358/403/359 379/425/380 
f 380/426/381 404/452/405 378/424/379 
f 378/424/379 377/423/378 353/398/354 
f 404/452/405 406/454/407 408/456/409 377/423/378 
f 377/423/378 408/456/409 350/395/350 354/399/355 
f 354/399/355 350/395/350 355/400/356 
f 355/400/356 350/395/350 349/394/349 
f 409/457/410 376/422/377 350/395/350 
f 409/457/410 411/459/412 413/461/414 376/422/377 
f 376/422/377 413/461/414 351/396/351 
f 378/424/379 404/452/405 377/423/378 
f 351/396/351 348/393/348 410/458/411 
f 318/363/318 349/394/349 349/394/352 410/458/411 
f 320/365/320 322/367/322 318/363/318 
f 352/397/353 357/402/358 356/401/357 
f 330/375/330 329/374/329 360/405/361 
f 360/405/361 364/409/365 381/427/382 
f 381/427/382 364/409/365 363/408/364 386/432/387 383/429/384 
f 384/430/385 379/425/380 382/428/383 
f 327/372/327 330/375/330 362/407/363 
f 325/370/325 324/369/324 328/373/328 
f 397/443/398 396/442/397 414/462/415 
f 334/379/334 329/374/329 331/376/331 
f 330/375/330 326/371/326 331/376/331 
f 331/376/331 414/462/415 334/379/334 
f 334/379/334 396/442/397 332/377/332 
f 332/377/332 396/442/397 337/382/337 335/380/335 
f 366/411/367 336/381/336 335/380/335 
f 331/376/331 326/371/326 414/462/415 
f 414/462/415 326/371/326 324/369/324 397/443/398 
f 397/443/398 324/369/324 395/441/396 
f 414/462/415 396/442/397 334/379/334 
f 329/374/329 364/409/365 360/405/361 
f 381/427/382 384/430/385 382/428/383 
f 382/428/383 415/463/416 361/406/362 
f 361/406/362 415/463/416 416/464/417 362/407/363 
f 362/407/363 416/464/417 357/402/358 327/372/327 
f 379/425/380 358/403/359 382/428/383 
f 326/371/326 330/375/330 327/372/327 
f 327/372/327 357/402/358 328/373/328 
f 328/373/328 357/402/358 417/465/418 
f 417/465/418 357/402/358 352/397/353 321/366/321 
f 321/366/321 352/397/353 322/367/322 
f 321/366/321 320/365/320 323/368/323 
f 323/368/323 320/365/320 394/440/395 
f 323/368/323 394/440/395 395/441/396 
f 320/365/320 317/362/317 393/439/394 
f 317/362/317 392/438/393 393/439/394 
f 393/439/394 392/438/393 394/440/395 
f 398/444/399 395/441/396 394/440/395 
f 397/443/398 395/441/396 398/444/399 
f 317/362/317 319/364/319 311/356/311 
f 324/369/324 326/371/326 328/373/328 
f 328/373/328 417/465/418 325/370/325 
f 325/370/325 321/366/321 323/368/323 
f 382/428/383 358/403/359 415/463/416 
f 415/463/416 358/403/359 416/464/417 
f 416/464/417 358/403/359 357/402/358 
f 325/370/325 417/465/418 321/366/321 
f 312/466/312 341/386/341 343/388/343 
f 390/436/391 418/467/419 419/468/420 389/435/390 
f 390/436/391 372/418/373 420/469/421 
f 420/469/421 372/418/373 371/417/372 
f 418/467/419 421/470/422 419/468/420 
f 369/414/370 372/418/373 389/435/390 370/415/371 
f 389/435/390 419/468/420 368/413/369 370/415/371 
f 370/415/371 368/413/369 422/471/423 342/387/342 
f 342/387/342 422/471/423 340/385/340 
f 340/385/340 423/472/424 344/389/344 
f 423/472/424 314/446/314 344/389/344 
f 344/389/344 314/446/314 343/388/343 
f 343/388/343 313/473/313 312/466/312 
f 424/474/425 423/472/424 340/385/340 
f 342/387/342 341/386/341 369/414/370 
f 340/385/340 422/471/423 424/474/425 
f 424/474/425 422/471/423 366/411/367 338/383/338 
f 338/383/338 366/411/367 335/380/335 
f 399/445/400 403/450/404 339/384/339 
f 339/384/339 423/472/424 424/474/425 
f 339/384/339 424/474/425 338/383/338 
f 403/450/404 423/472/424 339/384/339 
f 314/446/314 423/472/424 400/447/401 
f 315/360/315 314/359/314 401/475/402 
f 367/412/368 419/468/420 388/434/389 
f 419/468/420 421/470/422 388/434/389 
f 420/469/421 371/417/372 425/476/426 
f 425/477/426 345/390/345 374/420/375 
f 425/477/426 371/478/372 345/390/345 
f 369/414/370 341/386/341 346/416/346 
f 346/391/346 312/357/312 311/356/311 
f 345/390/345 371/478/372 346/391/346 
f 343/388/343 314/446/314 313/473/313 
f 313/358/313 314/359/314 316/361/316 
f 341/386/341 312/466/312 346/416/346 
f 366/411/367 422/471/423 368/413/369 
f 368/413/369 419/468/420 367/412/368 
f 391/437/392 317/362/317 315/360/315 
f 315/360/315 317/362/317 311/356/311 316/361/316 
f 316/361/316 311/356/311 313/358/313 
f 423/472/424 403/450/404 400/447/401 
f 400/447/401 403/450/404 391/451/392 
f 400/447/401 391/451/392 401/448/402 
f 401/475/402 391/437/392 315/360/315 
s 2
f 374/479/375 373/480/374 426/481/427 427/482/428 
f 373/480/374 375/483/376 428/484/429 426/481/427 
f 375/483/376 412/485/413 429/486/430 428/484/429 
f 409/487/410 407/488/408 430/489/431 431/490/432 
f 379/491/380 384/492/385 432/493/433 433/494/434 
f 383/495/384 386/496/387 434/497/435 435/498/436 
f 386/496/387 385/499/386 436/500/437 434/497/435 
f 385/499/386 387/501/388 437/502/438 436/500/437 
f 388/503/389 421/504/422 438/505/439 439/506/440 
f 407/488/408 406/507/407 440/508/441 430/489/431 
f 406/507/407 405/509/406 441/510/442 440/508/441 
f 412/485/413 411/511/412 442/512/443 429/486/430 
f 405/509/406 379/491/380 433/494/434 441/510/442 
f 411/511/412 409/487/410 431/490/432 442/512/443 
f 384/492/385 383/495/384 435/498/436 432/493/433 
f 390/513/391 420/514/421 443/515/444 444/516/445 
f 418/517/419 390/513/391 444/516/445 445/518/446 
f 421/504/422 418/517/419 445/518/446 438/505/439 
f 387/501/388 388/503/389 439/506/440 437/502/438 
f 420/514/421 425/519/426 446/520/447 443/515/444 
f 425/519/426 374/479/375 427/482/428 446/520/447 
f 427/482/428 426/481/427 447/521/448 
f 426/481/427 428/484/429 448/522/449 447/521/448 
f 428/484/429 429/486/430 448/522/449 
f 431/490/432 430/489/431 449/523/450 450/524/451 
f 433/494/434 432/493/433 451/525/452 452/526/453 
f 435/498/436 434/497/435 453/527/454 451/525/452 
f 434/497/435 436/500/437 453/527/454 
f 436/500/437 437/502/438 453/527/454 
f 439/506/440 438/505/439 454/528/455 
f 430/489/431 440/508/441 449/523/450 
f 440/508/441 441/510/442 452/526/453 449/523/450 
f 429/486/430 442/512/443 450/524/451 448/522/449 
f 441/510/442 433/494/434 452/526/453 
f 442/512/443 431/490/432 450/524/451 
f 432/493/433 435/498/436 451/525/452 
f 444/516/445 443/515/444 455/529/456 456/530/457 
f 445/518/446 444/516/445 456/530/457 
f 438/505/439 445/518/446 456/530/457 454/528/455 
f 437/502/438 439/506/440 454/528/455 453/527/454 
f 443/515/444 446/520/447 455/529/456 
f 446/520/447 427/482/428 447/521/448 455/529/456 
f 447/521/448 457/531/458 458/532/459 
f 447/521/448 448/522/449 457/531/458 
f 448/522/449 459/533/460 457/531/458 
f 450/524/451 449/523/450 460/534/461 
f 452/526/453 451/525/452 461/535/462 
f 451/525/452 453/527/454 462/536/463 
f 453/527/454 463/537/464 462/536/463 
f 454/528/455 464/538/465 463/537/464 
f 449/523/450 465/539/466 460/534/461 
f 449/523/450 452/526/453 465/539/466 
f 448/522/449 450/524/451 459/533/460 
f 452/526/453 461/535/462 465/539/466 
f 450/524/451 460/534/461 459/533/460 
f 451/525/452 462/536/463 461/535/462 
f 456/530/457 455/529/456 466/540/467 
f 456/530/457 466/540/467 464/538/465 
f 454/528/455 456/530/457 464/538/465 
f 453/527/454 454/528/455 463/537/464 
f 455/529/456 458/532/459 466/540/467 
f 455/529/456 447/521/448 458/532/459 
f 458/532/459 457/531/458 467/541/468 
f 457/531/458 459/533/460 467/541/468 
f 462/536/463 463/537/464 467/541/468 
f 463/537/464 464/538/465 467/541/468 
f 460/534/461 465/539/466 467/541/468 
f 465/539/466 461/535/462 467/541/468 
f 459/533/460 460/534/461 467/541/468 
f 461/535/462 462/536/463 467/541/468 
f 464/538/465 466/540/467 467/541/468 
f 466/540/467 458/532/459 467/541/468 
# 69 polygons - 171 triangles

