# 3ds Max Wavefront OBJ Exporter v0.99 - (c)2007 guruware
# File Created: 16.12.2025 17:31:08

mtllib JailProp_TrashCan001_Inspection.mtl

#
# object JailProp_TrashCan001_Inspection
#

v  0.2181 0.0135 -0.0000
v  0.2015 0.0135 -0.0835
v  0.2030 0.0259 -0.0841
v  0.2198 0.0259 -0.0000
v  0.1542 0.0135 -0.1542
v  0.1554 0.0259 -0.1554
v  0.0835 0.0135 -0.2015
v  0.0841 0.0259 -0.2030
v  -0.0000 0.0135 -0.2181
v  -0.0000 0.0259 -0.2198
v  -0.0835 0.0135 -0.2015
v  -0.0841 0.0259 -0.2030
v  -0.1542 0.0135 -0.1542
v  -0.1554 0.0259 -0.1554
v  -0.2015 0.0135 -0.0835
v  -0.2030 0.0259 -0.0841
v  -0.2181 0.0135 -0.0000
v  -0.2198 0.0259 -0.0000
v  -0.2015 0.0135 0.0835
v  -0.2030 0.0259 0.0841
v  -0.1542 0.0135 0.1542
v  -0.1554 0.0259 0.1554
v  -0.0835 0.0135 0.2015
v  -0.0841 0.0259 0.2030
v  0.0000 0.0135 0.2181
v  0.0000 0.0259 0.2198
v  0.0835 0.0135 0.2015
v  0.0841 0.0259 0.2030
v  0.1542 0.0135 0.1542
v  0.1554 0.0259 0.1554
v  0.2015 0.0135 0.0835
v  0.2030 0.0259 0.0841
v  0.1871 0.0000 -0.0775
v  0.2025 0.0000 -0.0000
v  0.0000 0.0000 -0.0000
v  0.1432 0.0000 -0.1432
v  0.0775 0.0000 -0.1871
v  -0.0000 0.0000 -0.2025
v  -0.0775 0.0000 -0.1871
v  -0.1432 0.0000 -0.1432
v  -0.1871 0.0000 -0.0775
v  -0.2025 0.0000 -0.0000
v  -0.1871 0.0000 0.0775
v  -0.1432 0.0000 0.1432
v  -0.0775 0.0000 0.1871
v  0.0000 0.0000 0.2025
v  0.0775 0.0000 0.1871
v  0.1432 0.0000 0.1432
v  0.1871 0.0000 0.0775
v  0.3105 0.7076 -0.0000
v  0.2868 0.7076 -0.1188
v  0.2711 0.7111 -0.1123
v  0.2934 0.7111 -0.0000
v  0.2195 0.7076 -0.2195
v  0.2075 0.7111 -0.2075
v  0.1188 0.7076 -0.2868
v  0.1123 0.7111 -0.2711
v  -0.0000 0.7076 -0.3105
v  -0.0000 0.7111 -0.2934
v  -0.1188 0.7076 -0.2868
v  -0.1123 0.7111 -0.2711
v  -0.2195 0.7076 -0.2195
v  -0.2075 0.7111 -0.2075
v  -0.2868 0.7076 -0.1188
v  -0.2711 0.7111 -0.1123
v  -0.3105 0.7076 -0.0000
v  -0.2934 0.7111 -0.0000
v  -0.2868 0.7076 0.1188
v  -0.2711 0.7111 0.1123
v  -0.2195 0.7076 0.2195
v  -0.2075 0.7111 0.2075
v  -0.1188 0.7076 0.2868
v  -0.1123 0.7111 0.2711
v  0.0000 0.7076 0.3105
v  0.0000 0.7111 0.2934
v  0.1188 0.7076 0.2868
v  0.1123 0.7111 0.2711
v  0.2195 0.7076 0.2195
v  0.2075 0.7111 0.2075
v  0.2868 0.7076 0.1188
v  0.2711 0.7111 0.1123
v  0.2703 0.7037 -0.1120
v  0.2926 0.7037 -0.0000
v  0.2069 0.7037 -0.2069
v  0.1120 0.7037 -0.2703
v  -0.0000 0.7037 -0.2926
v  -0.1120 0.7037 -0.2703
v  -0.2069 0.7037 -0.2069
v  -0.2703 0.7037 -0.1120
v  -0.2926 0.7037 -0.0000
v  -0.2703 0.7037 0.1120
v  -0.2069 0.7037 0.2069
v  -0.1120 0.7037 0.2703
v  0.0000 0.7037 0.2926
v  0.1120 0.7037 0.2703
v  0.2069 0.7037 0.2069
v  0.2703 0.7037 0.1120
v  0.1942 0.0286 -0.0000
v  0.1794 0.0286 -0.0743
v  0.0000 0.0286 -0.0000
v  0.1373 0.0286 -0.1373
v  0.0743 0.0286 -0.1794
v  -0.0000 0.0286 -0.1942
v  -0.0743 0.0286 -0.1794
v  -0.1373 0.0286 -0.1373
v  -0.1794 0.0286 -0.0743
v  -0.1942 0.0286 -0.0000
v  -0.1794 0.0286 0.0743
v  -0.1373 0.0286 0.1373
v  -0.0743 0.0286 0.1794
v  0.0000 0.0286 0.1942
v  0.0743 0.0286 0.1794
v  0.1373 0.0286 0.1373
v  0.1794 0.0286 0.0743
v  0.1973 0.0456 -0.0817
v  0.2136 0.0456 -0.0000
v  0.1510 0.0456 -0.1510
v  0.0817 0.0456 -0.1973
v  -0.0000 0.0456 -0.2136
v  -0.0817 0.0456 -0.1973
v  -0.1510 0.0456 -0.1510
v  -0.1973 0.0456 -0.0817
v  -0.2136 0.0456 -0.0000
v  -0.1973 0.0456 0.0817
v  -0.1510 0.0456 0.1510
v  -0.0817 0.0456 0.1973
v  0.0000 0.0456 0.2136
v  0.0817 0.0456 0.1973
v  0.1510 0.0456 0.1510
v  0.1973 0.0456 0.0817
v  0.2858 0.6991 -0.1184
v  0.3094 0.6991 -0.0000
v  0.2187 0.6991 -0.2187
v  0.1184 0.6991 -0.2858
v  -0.0000 0.6991 -0.3094
v  -0.1184 0.6991 -0.2858
v  -0.2187 0.6991 -0.2187
v  -0.2858 0.6991 -0.1184
v  -0.3094 0.6991 -0.0000
v  -0.2858 0.6991 0.1184
v  -0.2187 0.6991 0.2187
v  -0.1184 0.6991 0.2858
v  0.0000 0.6991 0.3094
v  0.1184 0.6991 0.2858
v  0.2187 0.6991 0.2187
v  0.2858 0.6991 0.1184
# 146 vertices

vn 0.8887 -0.4584 -0.0000
vn 0.8211 -0.4584 -0.3401
vn 0.9158 -0.1319 -0.3793
vn 0.9913 -0.1319 -0.0000
vn 0.6284 -0.4584 -0.6284
vn 0.7009 -0.1319 -0.7009
vn 0.3401 -0.4584 -0.8211
vn 0.3793 -0.1319 -0.9158
vn -0.0000 -0.4584 -0.8887
vn 0.0000 -0.1319 -0.9913
vn -0.3401 -0.4584 -0.8211
vn -0.3793 -0.1319 -0.9158
vn -0.6284 -0.4584 -0.6284
vn -0.7009 -0.1319 -0.7009
vn -0.8211 -0.4584 -0.3401
vn -0.9158 -0.1319 -0.3793
vn -0.8887 -0.4584 -0.0000
vn -0.9913 -0.1319 -0.0000
vn -0.8211 -0.4584 0.3401
vn -0.9158 -0.1319 0.3793
vn -0.6284 -0.4584 0.6284
vn -0.7009 -0.1319 0.7009
vn -0.3401 -0.4584 0.8211
vn -0.3793 -0.1319 0.9158
vn 0.0000 -0.4584 0.8887
vn 0.0000 -0.1319 0.9913
vn 0.3401 -0.4584 0.8211
vn 0.3793 -0.1319 0.9158
vn 0.6284 -0.4584 0.6284
vn 0.7009 -0.1319 0.7009
vn 0.8211 -0.4584 0.3401
vn 0.9158 -0.1319 0.3793
vn 0.3557 -0.9229 -0.1473
vn 0.3850 -0.9229 -0.0000
vn 0.0000 -1.0000 -0.0000
vn 0.2722 -0.9229 -0.2722
vn 0.1473 -0.9229 -0.3557
vn -0.0000 -0.9229 -0.3850
vn -0.1473 -0.9229 -0.3557
vn -0.2722 -0.9229 -0.2722
vn -0.3557 -0.9229 -0.1473
vn -0.3850 -0.9229 -0.0000
vn -0.3557 -0.9229 0.1473
vn -0.2722 -0.9229 0.2722
vn -0.1473 -0.9229 0.3557
vn 0.0000 -0.9229 0.3850
vn 0.1473 -0.9229 0.3557
vn 0.2722 -0.9229 0.2722
vn 0.3557 -0.9229 0.1473
vn 0.8398 0.5430 -0.0000
vn 0.7758 0.5430 -0.3214
vn -0.4787 0.8553 0.1983
vn -0.5181 0.8553 0.0000
vn 0.5938 0.5430 -0.5938
vn -0.3664 0.8553 0.3664
vn 0.3214 0.5430 -0.7758
vn -0.1983 0.8553 0.4787
vn 0.0000 0.5430 -0.8398
vn 0.0000 0.8553 0.5181
vn -0.3214 0.5430 -0.7758
vn 0.1983 0.8553 0.4787
vn -0.5938 0.5430 -0.5938
vn 0.3664 0.8553 0.3664
vn -0.7758 0.5430 -0.3214
vn 0.4787 0.8553 0.1983
vn -0.8398 0.5430 -0.0000
vn 0.5181 0.8553 0.0000
vn -0.7758 0.5430 0.3214
vn 0.4787 0.8553 -0.1983
vn -0.5938 0.5430 0.5938
vn 0.3664 0.8553 -0.3664
vn -0.3214 0.5430 0.7758
vn 0.1983 0.8553 -0.4787
vn 0.0000 0.5430 0.8398
vn -0.0000 0.8553 -0.5181
vn 0.3214 0.5430 0.7758
vn -0.1983 0.8553 -0.4787
vn 0.5938 0.5430 0.5938
vn -0.3664 0.8553 -0.3664
vn 0.7758 0.5430 0.3214
vn -0.4787 0.8553 -0.1983
vn -0.9173 0.1191 0.3800
vn -0.9929 0.1191 0.0000
vn -0.7021 0.1191 0.7021
vn -0.3800 0.1191 0.9173
vn 0.0000 0.1191 0.9929
vn 0.3800 0.1191 0.9173
vn 0.7021 0.1191 0.7021
vn 0.9173 0.1191 0.3800
vn 0.9929 0.1191 0.0000
vn 0.9173 0.1191 -0.3800
vn 0.7021 0.1191 -0.7021
vn 0.3800 0.1191 -0.9173
vn -0.0000 0.1191 -0.9929
vn -0.3800 0.1191 -0.9173
vn -0.7021 0.1191 -0.7021
vn -0.9173 0.1191 -0.3800
vn -0.3882 0.9216 0.0000
vn -0.3586 0.9216 0.1485
vn 0.0000 1.0000 -0.0000
vn -0.2745 0.9216 0.2745
vn -0.1485 0.9216 0.3586
vn -0.0000 0.9216 0.3882
vn 0.1485 0.9216 0.3586
vn 0.2745 0.9216 0.2745
vn 0.3586 0.9216 0.1485
vn 0.3882 0.9216 0.0000
vn 0.3586 0.9216 -0.1485
vn 0.2745 0.9216 -0.2745
vn 0.1485 0.9216 -0.3586
vn -0.0000 0.9216 -0.3882
vn -0.1485 0.9216 -0.3586
vn -0.2745 0.9216 -0.2745
vn -0.3586 0.9216 -0.1485
vn -0.8250 0.4501 0.3417
vn -0.8930 0.4501 0.0000
vn -0.6314 0.4501 0.6314
vn -0.3417 0.4501 0.8250
vn -0.0000 0.4501 0.8930
vn 0.3417 0.4501 0.8250
vn 0.6314 0.4501 0.6314
vn 0.8250 0.4501 0.3417
vn 0.8930 0.4501 -0.0000
vn 0.8250 0.4501 -0.3417
vn 0.6314 0.4501 -0.6314
vn 0.3417 0.4501 -0.8250
vn -0.0000 0.4501 -0.8930
vn -0.3417 0.4501 -0.8250
vn -0.6314 0.4501 -0.6314
vn -0.8250 0.4501 -0.3417
vn -0.0000 -0.1319 0.9913
# 131 vertex normals

vt 0.7500 0.0190 1.0000
vt 0.8125 0.0190 1.0000
vt 0.8125 0.0367 1.0000
vt 0.7500 0.0367 1.0000
vt 0.8750 0.0190 1.0000
vt 0.8750 0.0367 1.0000
vt 0.9375 0.0190 1.0000
vt 0.9375 0.0367 1.0000
vt -0.0625 0.0190 1.0000
vt 0.0000 0.0190 1.0000
vt 0.0000 0.0367 1.0000
vt -0.0625 0.0367 1.0000
vt 0.0625 0.0190 1.0000
vt 0.0625 0.0367 1.0000
vt 0.1250 0.0190 1.0000
vt 0.1250 0.0367 1.0000
vt 0.1875 0.0190 1.0000
vt 0.1875 0.0367 1.0000
vt 0.2500 0.0190 1.0000
vt 0.2500 0.0367 1.0000
vt 0.3125 0.0190 1.0000
vt 0.3125 0.0367 1.0000
vt 0.3750 0.0190 1.0000
vt 0.3750 0.0367 1.0000
vt 0.4375 0.0190 1.0000
vt 0.4375 0.0367 1.0000
vt 0.5000 0.0190 1.0000
vt 0.5000 0.0367 1.0000
vt 0.5625 0.0190 1.0000
vt 0.5625 0.0367 1.0000
vt 0.6250 0.0190 1.0000
vt 0.6250 0.0367 1.0000
vt 0.6875 0.0190 1.0000
vt 0.6875 0.0367 1.0000
vt 0.7885 0.0000 1.0000
vt 0.7300 0.0000 1.0000
vt 0.4375 0.0000 1.0000
vt 0.8470 0.0000 1.0000
vt 0.9055 0.0000 1.0000
vt 0.0280 0.0000 1.0000
vt -0.0305 0.0000 1.0000
vt 0.0865 0.0000 1.0000
vt 0.1450 0.0000 1.0000
vt 0.2035 0.0000 1.0000
vt 0.2620 0.0000 1.0000
vt 0.3205 0.0000 1.0000
vt 0.3790 0.0000 1.0000
vt 0.4960 0.0000 1.0000
vt 0.5545 0.0000 1.0000
vt 0.6130 0.0000 1.0000
vt 0.6715 0.0000 1.0000
vt 0.7500 1.0000 1.0000
vt 0.8125 1.0000 1.0000
vt 0.8750 1.0000 1.0000
vt 0.9375 1.0000 1.0000
vt -0.0625 1.0000 1.0000
vt 0.0000 1.0000 1.0000
vt 0.0625 1.0000 1.0000
vt 0.1250 1.0000 1.0000
vt 0.1875 1.0000 1.0000
vt 0.2500 1.0000 1.0000
vt 0.3125 1.0000 1.0000
vt 0.3750 1.0000 1.0000
vt 0.4375 1.0000 1.0000
vt 0.5000 1.0000 1.0000
vt 0.5625 1.0000 1.0000
vt 0.6250 1.0000 1.0000
vt 0.6875 1.0000 1.0000
vt 0.7243 1.0000 1.0000
vt 0.7816 1.0000 1.0000
vt 0.8390 1.0000 1.0000
vt 0.8964 1.0000 1.0000
vt -0.0214 1.0000 1.0000
vt 0.0360 1.0000 1.0000
vt 0.0934 1.0000 1.0000
vt 0.1507 1.0000 1.0000
vt 0.2081 1.0000 1.0000
vt 0.2654 1.0000 1.0000
vt 0.3228 1.0000 1.0000
vt 0.3801 1.0000 1.0000
vt 0.4949 1.0000 1.0000
vt 0.5522 1.0000 1.0000
vt 0.6096 1.0000 1.0000
vt 0.6669 1.0000 1.0000
vt 0.8125 0.9880 1.0000
vt 0.7500 0.9880 1.0000
vt 0.8750 0.9880 1.0000
vt 0.9375 0.9880 1.0000
vt 0.0000 0.9880 1.0000
vt -0.0625 0.9880 1.0000
vt 0.0625 0.9880 1.0000
vt 0.1250 0.9880 1.0000
vt 0.1875 0.9880 1.0000
vt 0.2500 0.9880 1.0000
vt 0.3125 0.9880 1.0000
vt 0.3750 0.9880 1.0000
vt 0.4375 0.9880 1.0000
vt 0.5000 0.9880 1.0000
vt 0.5625 0.9880 1.0000
vt 0.6250 0.9880 1.0000
vt 0.6875 0.9880 1.0000
# 101 texture coords

o JailProp_TrashCan001_Inspection
g JailProp_TrashCan001_Inspection
usemtl Material__65
s 1
f 1/1/1 2/2/2 3/3/3 4/4/4 
f 2/2/2 5/5/5 6/6/6 3/3/3 
f 5/5/5 7/7/7 8/8/8 6/6/6 
f 7/9/7 9/10/9 10/11/10 8/12/8 
f 9/10/9 11/13/11 12/14/12 10/11/10 
f 11/13/11 13/15/13 14/16/14 12/14/12 
f 13/15/13 15/17/15 16/18/16 14/16/14 
f 15/17/15 17/19/17 18/20/18 16/18/16 
f 17/19/17 19/21/19 20/22/20 18/20/18 
f 19/21/19 21/23/21 22/24/22 20/22/20 
f 21/23/21 23/25/23 24/26/24 22/24/22 
f 23/25/23 25/27/25 26/28/26 24/26/24 
f 25/27/25 27/29/27 28/30/28 26/28/26 
f 27/29/27 29/31/29 30/32/30 28/30/28 
f 29/31/29 31/33/31 32/34/32 30/32/30 
f 31/33/31 1/1/1 4/4/4 32/34/32 
f 33/35/33 34/36/34 35/37/35 
f 36/38/36 33/35/33 35/37/35 
f 37/39/37 36/38/36 35/37/35 
f 38/40/38 37/41/37 35/37/35 
f 39/42/39 38/40/38 35/37/35 
f 40/43/40 39/42/39 35/37/35 
f 41/44/41 40/43/40 35/37/35 
f 42/45/42 41/44/41 35/37/35 
f 43/46/43 42/45/42 35/37/35 
f 44/47/44 43/46/43 35/37/35 
f 45/37/45 44/47/44 35/37/35 
f 46/48/46 45/37/45 35/37/35 
f 47/49/47 46/48/46 35/37/35 
f 48/50/48 47/49/47 35/37/35 
f 49/51/49 48/50/48 35/37/35 
f 34/36/34 49/51/49 35/37/35 
s 2
f 2/2/2 1/1/1 34/36/34 33/35/33 
f 5/5/5 2/2/2 33/35/33 36/38/36 
f 7/7/7 5/5/5 36/38/36 37/39/37 
f 9/10/9 7/9/7 37/41/37 38/40/38 
f 11/13/11 9/10/9 38/40/38 39/42/39 
f 13/15/13 11/13/11 39/42/39 40/43/40 
f 15/17/15 13/15/13 40/43/40 41/44/41 
f 17/19/17 15/17/15 41/44/41 42/45/42 
f 19/21/19 17/19/17 42/45/42 43/46/43 
f 21/23/21 19/21/19 43/46/43 44/47/44 
f 23/25/23 21/23/21 44/47/44 45/37/45 
f 25/27/25 23/25/23 45/37/45 46/48/46 
f 27/29/27 25/27/25 46/48/46 47/49/47 
f 29/31/29 27/29/27 47/49/47 48/50/48 
f 31/33/31 29/31/29 48/50/48 49/51/49 
f 1/1/1 31/33/31 49/51/49 34/36/34 
f 50/52/50 51/53/51 52/53/52 53/52/53 
f 51/53/51 54/54/54 55/54/55 52/53/52 
f 54/54/54 56/55/56 57/55/57 55/54/55 
f 56/56/56 58/57/58 59/57/59 57/56/57 
f 58/57/58 60/58/60 61/58/61 59/57/59 
f 60/58/60 62/59/62 63/59/63 61/58/61 
f 62/59/62 64/60/64 65/60/65 63/59/63 
f 64/60/64 66/61/66 67/61/67 65/60/65 
f 66/61/66 68/62/68 69/62/69 67/61/67 
f 68/62/68 70/63/70 71/63/71 69/62/69 
f 70/63/70 72/64/72 73/64/73 71/63/71 
f 72/64/72 74/65/74 75/65/75 73/64/73 
f 74/65/74 76/66/76 77/66/77 75/65/75 
f 76/66/76 78/67/78 79/67/79 77/66/77 
f 78/67/78 80/68/80 81/68/81 79/67/79 
f 80/68/80 50/52/50 53/52/53 81/68/81 
s 1
f 53/52/53 52/53/52 82/53/82 83/52/83 
f 52/53/52 55/54/55 84/54/84 82/53/82 
f 55/54/55 57/55/57 85/55/85 84/54/84 
f 57/56/57 59/57/59 86/57/86 85/56/85 
f 59/57/59 61/58/61 87/58/87 86/57/86 
f 61/58/61 63/59/63 88/59/88 87/58/87 
f 63/59/63 65/60/65 89/60/89 88/59/88 
f 65/60/65 67/61/67 90/61/90 89/60/89 
f 67/61/67 69/62/69 91/62/91 90/61/90 
f 69/62/69 71/63/71 92/63/92 91/62/91 
f 71/63/71 73/64/73 93/64/93 92/63/92 
f 73/64/73 75/65/75 94/65/94 93/64/93 
f 75/65/75 77/66/77 95/66/95 94/65/94 
f 77/66/77 79/67/79 96/67/96 95/66/95 
f 79/67/79 81/68/81 97/68/97 96/67/96 
f 81/68/81 53/52/53 83/52/83 97/68/97 
f 98/69/98 99/70/99 100/64/100 
f 99/70/99 101/71/101 100/64/100 
f 101/71/101 102/72/102 100/64/100 
f 102/73/102 103/74/103 100/64/100 
f 103/74/103 104/75/104 100/64/100 
f 104/75/104 105/76/105 100/64/100 
f 105/76/105 106/77/106 100/64/100 
f 106/77/106 107/78/107 100/64/100 
f 107/78/107 108/79/108 100/64/100 
f 108/79/108 109/80/109 100/64/100 
f 109/80/109 110/64/110 100/64/100 
f 110/64/110 111/81/111 100/64/100 
f 111/81/111 112/82/112 100/64/100 
f 112/82/112 113/83/113 100/64/100 
f 113/83/113 114/84/114 100/64/100 
f 114/84/114 98/69/98 100/64/100 
f 82/53/82 115/53/115 116/52/116 83/52/83 
f 84/54/84 117/54/117 115/53/115 82/53/82 
f 85/55/85 118/55/118 117/54/117 84/54/84 
f 86/57/86 119/57/119 118/56/118 85/56/85 
f 87/58/87 120/58/120 119/57/119 86/57/86 
f 88/59/88 121/59/121 120/58/120 87/58/87 
f 89/60/89 122/60/122 121/59/121 88/59/88 
f 90/61/90 123/61/123 122/60/122 89/60/89 
f 91/62/91 124/62/124 123/61/123 90/61/90 
f 92/63/92 125/63/125 124/62/124 91/62/91 
f 93/64/93 126/64/126 125/63/125 92/63/92 
f 94/65/94 127/65/127 126/64/126 93/64/93 
f 95/66/95 128/66/128 127/65/127 94/65/94 
f 96/67/96 129/67/129 128/66/128 95/66/95 
f 97/68/97 130/68/130 129/67/129 96/67/96 
f 83/52/83 116/52/116 130/68/130 97/68/97 
f 131/85/3 51/53/51 50/52/50 132/86/4 
f 133/87/6 54/54/54 51/53/51 131/85/3 
f 134/88/8 56/55/56 54/54/54 133/87/6 
f 135/89/10 58/57/58 56/56/56 134/90/8 
f 136/91/12 60/58/60 58/57/58 135/89/10 
f 137/92/14 62/59/62 60/58/60 136/91/12 
f 138/93/16 64/60/64 62/59/62 137/92/14 
f 139/94/18 66/61/66 64/60/64 138/93/16 
f 140/95/20 68/62/68 66/61/66 139/94/18 
f 141/96/22 70/63/70 68/62/68 140/95/20 
f 142/97/24 72/64/72 70/63/70 141/96/22 
f 143/98/131 74/65/74 72/64/72 142/97/24 
f 144/99/28 76/66/76 74/65/74 143/98/131 
f 145/100/30 78/67/78 76/66/76 144/99/28 
f 146/101/32 80/68/80 78/67/78 145/100/30 
f 132/86/4 50/52/50 80/68/80 146/101/32 
s 2
f 99/70/99 98/69/98 116/52/116 115/53/115 
f 101/71/101 99/70/99 115/53/115 117/54/117 
f 102/72/102 101/71/101 117/54/117 118/55/118 
f 103/74/103 102/73/102 118/56/118 119/57/119 
f 104/75/104 103/74/103 119/57/119 120/58/120 
f 105/76/105 104/75/104 120/58/120 121/59/121 
f 106/77/106 105/76/105 121/59/121 122/60/122 
f 107/78/107 106/77/106 122/60/122 123/61/123 
f 108/79/108 107/78/107 123/61/123 124/62/124 
f 109/80/109 108/79/108 124/62/124 125/63/125 
f 110/64/110 109/80/109 125/63/125 126/64/126 
f 111/81/111 110/64/110 126/64/126 127/65/127 
f 112/82/112 111/81/111 127/65/127 128/66/128 
f 113/83/113 112/82/112 128/66/128 129/67/129 
f 114/84/114 113/83/113 129/67/129 130/68/130 
f 98/69/98 114/84/114 130/68/130 116/52/116 
s 1
f 3/3/3 131/85/3 132/86/4 4/4/4 
f 6/6/6 133/87/6 131/85/3 3/3/3 
f 8/8/8 134/88/8 133/87/6 6/6/6 
f 10/11/10 135/89/10 134/90/8 8/12/8 
f 12/14/12 136/91/12 135/89/10 10/11/10 
f 14/16/14 137/92/14 136/91/12 12/14/12 
f 16/18/16 138/93/16 137/92/14 14/16/14 
f 18/20/18 139/94/18 138/93/16 16/18/16 
f 20/22/20 140/95/20 139/94/18 18/20/18 
f 22/24/22 141/96/22 140/95/20 20/22/20 
f 24/26/24 142/97/24 141/96/22 22/24/22 
f 26/28/26 143/98/131 142/97/24 24/26/24 
f 28/30/28 144/99/28 143/98/131 26/28/26 
f 30/32/30 145/100/30 144/99/28 28/30/28 
f 32/34/32 146/101/32 145/100/30 30/32/30 
f 4/4/4 132/86/4 146/101/32 32/34/32 
# 128 polygons - 32 triangles

