# 3ds Max Wavefront OBJ Exporter v0.99 - (c)2007 guruware
# File Created: 14.01.2026 12:33:07

mtllib SwitProp_Poster01.mtl

#
# object SwitProp_Poster01
#

v  -0.4019 0.0000 -0.0796
v  -0.4019 0.0000 -0.0806
v  -0.3014 0.0000 -0.0299
v  -0.3014 0.0000 -0.0289
v  -0.4019 1.1570 0.0005
v  -0.3014 1.1570 0.0005
v  -0.3014 1.1570 -0.0005
v  -0.4019 1.1570 -0.0005
v  -0.3014 0.0704 -0.0146
v  -0.4019 0.0704 -0.0477
v  0.4019 0.0000 -0.0221
v  0.4019 0.0000 -0.0231
v  0.4019 0.0704 -0.0098
v  0.4019 0.0704 -0.0088
v  0.3232 0.0000 -0.0098
v  0.3232 0.0704 -0.0005
v  -0.4019 0.0704 -0.0488
v  0.0000 0.0000 -0.0005
v  0.2389 0.0000 -0.0005
v  0.2389 0.0000 0.0005
v  0.0000 0.0000 0.0005
v  0.0000 1.1570 0.0005
v  0.2389 1.1570 0.0005
v  0.2389 1.1570 -0.0005
v  0.0000 1.1570 -0.0005
v  0.2389 0.0704 0.0005
v  0.0000 0.0704 0.0005
v  -0.2009 0.0000 -0.0005
v  -0.2009 0.0704 -0.0005
v  0.0000 0.0704 -0.0005
v  0.0000 0.5785 0.0005
v  -0.2009 1.1570 0.0005
v  -0.2009 0.5785 0.0005
v  0.4019 0.5785 -0.0005
v  0.4019 1.1570 -0.0005
v  0.4019 1.1570 0.0005
v  0.4019 0.5785 0.0005
v  0.0000 0.5785 -0.0005
v  0.2389 0.5785 -0.0005
v  -0.4019 0.5785 0.0005
v  -0.4019 0.5785 -0.0005
v  0.3232 1.1570 0.0005
v  0.3232 0.5785 0.0005
v  -0.3014 0.5785 -0.0005
v  -0.2009 0.0000 0.0005
v  -0.2009 1.1570 -0.0005
v  -0.2009 0.0704 0.0005
v  -0.3014 0.0704 -0.0156
v  -0.3014 0.5785 0.0005
v  -0.2009 0.5785 -0.0005
v  -0.2009 0.2892 0.0005
v  -0.3014 0.2892 0.0005
v  0.4019 0.2892 -0.0005
v  0.4019 0.2892 0.0005
v  0.0000 0.2892 -0.0005
v  0.2389 0.2892 -0.0005
v  -0.4019 0.2892 0.0005
v  -0.4019 0.2892 -0.0005
v  0.3232 0.2892 0.0005
v  -0.2009 0.2892 -0.0005
v  0.0000 0.2892 0.0005
v  -0.3014 0.2892 -0.0005
v  -0.2009 0.1446 0.0005
v  -0.3014 0.1446 0.0005
v  0.4019 0.1446 -0.0005
v  0.4019 0.1446 0.0005
v  0.0000 0.1446 -0.0005
v  0.2389 0.1446 -0.0005
v  -0.4019 0.1446 -0.0289
v  -0.4019 0.1446 -0.0299
v  0.3232 0.1446 0.0005
v  -0.2009 0.1446 -0.0005
v  0.0000 0.1446 0.0005
v  -0.3014 0.1446 -0.0005
v  0.2389 0.0704 -0.0005
v  0.3232 0.0000 -0.0088
v  0.3232 1.1570 -0.0005
v  0.3232 0.0704 0.0005
v  0.3232 0.5785 -0.0005
v  0.2389 0.5785 0.0005
v  0.3232 0.2892 -0.0005
v  0.2389 0.2892 0.0005
v  0.3232 0.1446 -0.0005
v  0.2389 0.1446 0.0005
# 84 vertices

vn -0.6765 -0.6719 0.3014
vn -0.4039 -0.4163 -0.8146
vn 0.2786 -0.6609 -0.6969
vn -0.2446 -0.7521 0.6120
vn -0.5774 0.5774 0.5774
vn 0.0000 0.7071 0.7071
vn 0.0000 0.7071 -0.7071
vn -0.5774 0.5774 -0.5774
vn -0.2276 -0.1941 0.9542
vn -0.7897 -0.2060 0.5779
vn 0.6248 -0.6280 0.4639
vn 0.5183 -0.5136 -0.6838
vn 0.6724 0.1150 -0.7313
vn 0.7404 -0.1044 0.6640
vn -0.1032 -0.6668 -0.7381
vn -0.0584 0.0652 -0.9962
vn -0.6153 0.2647 -0.7425
vn 0.0000 -0.7071 -0.7071
vn -0.0380 -0.7196 -0.6933
vn 0.0394 -0.6950 0.7179
vn 0.0000 -0.7071 0.7071
vn 0.0000 0.0000 1.0000
vn 0.0954 -0.7405 -0.6653
vn 0.0745 0.0000 -0.9972
vn 0.0000 0.0000 -1.0000
vn 0.7071 0.0000 -0.7071
vn 0.5774 0.5774 -0.5774
vn 0.5774 0.5774 0.5774
vn 0.7071 0.0000 0.7071
vn -0.7071 0.0000 0.7071
vn -0.7071 0.0000 -0.7071
vn -0.1045 -0.6765 0.7290
vn -0.0745 -0.0000 0.9972
vn 0.2276 0.1941 -0.9542
vn -0.6853 -0.0729 0.7246
vn -0.7304 0.0684 -0.6796
vn -0.1401 -0.0983 0.9852
vn 0.7213 0.0431 -0.6913
vn 0.6933 -0.0448 0.7192
vn -0.7938 -0.1361 0.5927
vn -0.6083 0.1776 -0.7736
vn 0.1401 0.0984 -0.9852
vn 0.0923 -0.7454 0.6601
vn 0.0584 -0.0652 0.9962
# 44 vertex normals

vt 0.7024 0.0000 0.0000
vt 0.7016 0.0008 0.0000
vt 0.6151 0.0008 0.0000
vt 0.6151 0.0000 0.0000
vt 0.7024 1.0000 0.0000
vt 0.6151 1.0000 0.0000
vt 0.6151 0.9993 0.0000
vt 0.7016 0.9993 0.0000
vt 0.7033 0.9089 0.0000
vt 0.7142 0.9089 0.0000
vt 0.7142 0.9137 0.0000
vt 0.7033 0.9137 0.0000
vt 0.0000 0.0000 0.0000
vt 0.0008 0.0008 0.0000
vt 0.0008 0.0613 0.0000
vt 0.0000 0.0613 0.0000
vt 0.0675 0.0008 0.0000
vt 0.0675 0.0613 0.0000
vt 0.7024 0.0613 0.0000
vt 0.7016 0.0613 0.0000
vt 0.3496 0.0008 0.0000
vt 0.1409 0.0008 0.0000
vt 0.1409 0.0000 0.0000
vt 0.3496 0.0000 0.0000
vt 0.3496 1.0000 0.0000
vt 0.1409 1.0000 0.0000
vt 0.1409 0.9993 0.0000
vt 0.3496 0.9993 0.0000
vt 0.7530 0.9089 0.0000
vt 0.7698 0.9089 0.0000
vt 0.7698 0.9137 0.0000
vt 0.7530 0.9137 0.0000
vt 0.5258 0.0008 0.0000
vt 0.5258 0.0613 0.0000
vt 0.3496 0.0613 0.0000
vt 0.7530 0.9624 0.0000
vt 0.7530 0.9994 0.0000
vt 0.7301 0.9994 0.0000
vt 0.7301 0.9624 0.0000
vt 0.0008 0.5032 0.0000
vt 0.0008 0.9993 0.0000
vt 0.0000 1.0000 0.0000
vt 0.0000 0.5032 0.0000
vt 0.3496 0.5032 0.0000
vt 0.1409 0.5032 0.0000
vt 0.7024 0.5032 0.0000
vt 0.7016 0.5032 0.0000
vt 0.7866 0.9624 0.0000
vt 0.7866 0.9994 0.0000
vt 0.7783 0.9994 0.0000
vt 0.7783 0.9624 0.0000
vt 0.6151 0.5032 0.0000
vt 0.5258 0.0000 0.0000
vt 0.5258 1.0000 0.0000
vt 0.5258 0.9993 0.0000
vt 0.7301 0.9089 0.0000
vt 0.7301 0.9137 0.0000
vt 0.6151 0.0613 0.0000
vt 0.7142 0.9994 0.0000
vt 0.7142 0.9624 0.0000
vt 0.5258 0.5032 0.0000
vt 0.7301 0.9347 0.0000
vt 0.7142 0.9347 0.0000
vt 0.0008 0.2520 0.0000
vt 0.0000 0.2520 0.0000
vt 0.3496 0.2520 0.0000
vt 0.1409 0.2520 0.0000
vt 0.7024 0.2520 0.0000
vt 0.7016 0.2520 0.0000
vt 0.7866 0.9347 0.0000
vt 0.7783 0.9347 0.0000
vt 0.5258 0.2520 0.0000
vt 0.7530 0.9347 0.0000
vt 0.6151 0.2520 0.0000
vt 0.7301 0.9208 0.0000
vt 0.7142 0.9208 0.0000
vt 0.0008 0.1260 0.0000
vt 0.0000 0.1260 0.0000
vt 0.3496 0.1260 0.0000
vt 0.1409 0.1260 0.0000
vt 0.7024 0.1260 0.0000
vt 0.7016 0.1260 0.0000
vt 0.7866 0.9208 0.0000
vt 0.7783 0.9208 0.0000
vt 0.5258 0.1260 0.0000
vt 0.7530 0.9208 0.0000
vt 0.6151 0.1260 0.0000
vt 0.7033 0.9994 0.0000
vt 0.7033 0.9624 0.0000
vt 0.7033 0.9347 0.0000
vt 0.7033 0.9208 0.0000
vt 0.1409 0.0613 0.0000
vt 0.0675 0.0000 0.0000
vt 0.0675 1.0000 0.0000
vt 0.0675 0.9993 0.0000
vt 0.7783 0.9089 0.0000
vt 0.7866 0.9089 0.0000
vt 0.7866 0.9137 0.0000
vt 0.7783 0.9137 0.0000
vt 0.0675 0.5032 0.0000
vt 0.7698 0.9994 0.0000
vt 0.7698 0.9624 0.0000
vt 0.0675 0.2520 0.0000
vt 0.7698 0.9347 0.0000
vt 0.0675 0.1260 0.0000
vt 0.7698 0.9208 0.0000
# 106 texture coords

o SwitProp_Poster01
g SwitProp_Poster01
usemtl SwitProp_Poster01
s 2
f 1/1/1 2/2/2 3/3/3 4/4/4 
f 5/5/5 6/6/6 7/7/7 8/8/8 
s 1
f 1/9/1 4/10/4 9/11/9 10/12/10 
s 4
f 11/13/11 12/14/12 13/15/13 14/16/14 
s 1
f 12/14/12 15/17/15 16/18/16 13/15/13 
s 4
f 2/2/2 1/1/1 10/19/10 17/20/17 
s 2
f 18/21/18 19/22/19 20/23/20 21/24/21 
f 22/25/6 23/26/6 24/27/7 25/28/7 
s 1
f 21/29/21 20/30/20 26/31/22 27/32/22 
f 18/21/18 28/33/23 29/34/24 30/35/25 
f 31/36/22 22/37/6 32/38/6 33/39/22 
s 4
f 34/40/26 35/41/27 36/42/28 37/43/29 
s 1
f 38/44/25 25/28/7 24/27/7 39/45/25 
s 4
f 40/46/30 5/5/5 8/8/8 41/47/31 
s 1
f 37/48/29 36/49/28 42/50/6 43/51/22 
f 41/47/31 8/8/8 7/7/7 44/52/25 
s 2
f 28/33/23 18/21/18 21/24/21 45/53/32 
f 32/54/6 22/25/6 25/28/7 46/55/7 
s 1
f 45/56/32 21/29/21 27/32/22 47/57/33 
f 28/33/23 3/3/3 48/58/34 29/34/24 
f 32/38/6 6/59/6 49/60/22 33/39/22 
f 46/55/7 25/28/7 38/44/25 50/61/25 
f 51/62/22 33/39/22 49/60/22 52/63/22 
s 4
f 53/64/26 34/40/26 37/43/29 54/65/29 
s 1
f 55/66/25 38/44/25 39/45/25 56/67/25 
s 4
f 57/68/35 40/46/30 41/47/31 58/69/36 
s 1
f 54/70/29 37/48/29 43/51/22 59/71/22 
f 60/72/25 50/61/25 38/44/25 55/66/25 
f 61/73/22 31/36/22 33/39/22 51/62/22 
f 58/69/36 41/47/31 44/52/25 62/74/25 
f 63/75/22 51/62/22 52/63/22 64/76/37 
s 4
f 65/77/38 53/64/26 54/65/29 66/78/39 
s 1
f 67/79/25 55/66/25 56/67/25 68/80/25 
s 4
f 69/81/40 57/68/35 58/69/36 70/82/41 
s 1
f 66/83/39 54/70/29 59/71/22 71/84/22 
f 72/85/25 60/72/25 55/66/25 67/79/25 
f 73/86/22 61/73/22 51/62/22 63/75/22 
f 70/82/41 58/69/36 62/74/25 74/87/42 
s 2
f 3/3/3 28/33/23 45/53/32 4/4/4 
f 6/6/6 32/54/6 46/55/7 7/7/7 
s 1
f 4/10/4 45/56/32 47/57/33 9/11/9 
f 7/7/7 46/55/7 50/61/25 44/52/25 
f 3/3/3 2/2/2 17/20/17 48/58/34 
f 6/59/6 5/88/5 40/89/30 49/60/22 
f 49/60/22 40/89/30 57/90/35 52/63/22 
f 44/52/25 50/61/25 60/72/25 62/74/25 
f 52/63/22 57/90/35 69/91/40 64/76/37 
f 62/74/25 60/72/25 72/85/25 74/87/42 
f 15/17/15 19/22/19 75/92/25 16/18/16 
s 2
f 15/17/15 12/14/12 11/13/11 76/93/43 
f 42/94/6 36/42/28 35/41/27 77/95/7 
s 1
f 76/96/43 11/97/11 14/98/14 78/99/44 
f 77/95/7 35/41/27 34/40/26 79/100/25 
f 42/50/6 23/101/6 80/102/22 43/51/22 
f 79/100/25 34/40/26 53/64/26 81/103/25 
f 43/51/22 80/102/22 82/104/22 59/71/22 
f 81/103/25 53/64/26 65/77/38 83/105/25 
f 59/71/22 82/104/22 84/106/22 71/84/22 
s 2
f 19/22/19 15/17/15 76/93/43 20/23/20 
f 23/26/6 42/94/6 77/95/7 24/27/7 
s 1
f 20/30/20 76/96/43 78/99/44 26/31/22 
f 24/27/7 77/95/7 79/100/25 39/45/25 
f 39/45/25 79/100/25 81/103/25 56/67/25 
f 56/67/25 81/103/25 83/105/25 68/80/25 
f 19/22/19 18/21/18 30/35/25 75/92/25 
f 23/101/6 22/37/6 31/36/22 80/102/22 
f 80/102/22 31/36/22 61/73/22 82/104/22 
f 82/104/22 61/73/22 73/86/22 84/106/22 
f 9/11/9 64/76/37 69/91/40 10/12/10 
s 4
f 13/15/13 65/77/38 66/78/39 14/16/14 
s 1
f 16/18/16 83/105/25 65/77/38 13/15/13 
s 4
f 10/19/10 69/81/40 70/82/41 17/20/17 
s 1
f 26/31/22 84/106/22 73/86/22 27/32/22 
f 29/34/24 72/85/25 67/79/25 30/35/25 
f 27/32/22 73/86/22 63/75/22 47/57/33 
f 48/58/34 74/87/42 72/85/25 29/34/24 
f 47/57/33 63/75/22 64/76/37 9/11/9 
f 17/20/17 70/82/41 74/87/42 48/58/34 
f 75/92/25 68/80/25 83/105/25 16/18/16 
f 14/98/14 66/83/39 71/84/22 78/99/44 
f 78/99/44 71/84/22 84/106/22 26/31/22 
f 30/35/25 67/79/25 68/80/25 75/92/25 
# 82 polygons

