# 3ds Max Wavefront OBJ Exporter v0.99 - (c)2007 guruware
# File Created: 23.12.2025 20:50:28

mtllib Prop_OfficeTable01.mtl

#
# object Office_Desk002
#

v  -2.6154 1.1500 1.1079
v  0.0000 1.1500 1.1079
v  0.0000 1.2581 1.1079
v  -2.6154 1.2581 1.1079
v  -3.0456 1.1500 -0.9974
v  -3.0456 1.1500 -0.1395
v  -3.0456 1.2581 -0.1395
v  -3.0456 1.2581 -0.9974
v  -3.0456 1.1500 0.9974
v  -3.0456 1.1500 0.1395
v  -2.7421 1.1500 0.1395
v  -2.7421 1.1500 0.9974
v  -2.7421 1.2581 -0.1395
v  -2.7421 1.2581 -0.9974
v  -2.7421 1.2581 1.1079
v  -3.0456 1.2581 1.1079
v  -3.0456 1.1500 1.1079
v  -2.7421 1.1500 1.1079
v  -2.7421 1.1500 -1.1079
v  -3.0456 1.1500 -1.1079
v  -3.0456 1.2581 -1.1079
v  -2.7421 1.2581 -1.1079
v  -2.6154 1.1500 -1.1079
v  0.0000 1.1500 -1.1079
v  0.0000 1.1500 -0.9974
v  -2.6154 1.1500 -0.9974
v  0.0000 1.2581 0.9974
v  -2.6154 1.2581 0.9974
v  -3.0456 1.2581 0.9974
v  -2.7421 1.1500 -0.9974
v  -2.7421 1.2581 0.9974
v  -2.6349 0.0394 0.8435
v  -2.7225 0.0394 0.8435
v  -2.7225 0.0394 0.1395
v  -2.6349 0.0394 0.1395
v  -2.6154 1.2581 -0.9974
v  -2.6154 1.2581 -0.1395
v  -2.6154 1.2581 -1.1079
v  -2.6154 1.1500 0.9974
v  -2.7225 1.1500 0.1395
v  -2.7225 1.1500 0.9757
v  -2.6349 1.1500 -0.9757
v  -2.7225 1.1500 -0.9757
v  -2.6154 1.1500 -0.1395
v  -2.6349 1.1500 -0.1395
v  -2.6349 1.1500 0.9757
v  -2.7225 0.1902 0.1395
v  -2.7225 0.1902 0.8614
v  -2.6349 0.1902 -0.8614
v  -2.7225 0.1902 -0.8614
v  -2.6349 0.1902 -0.1395
v  -2.6349 0.1902 0.8614
v  0.0000 1.1500 -0.1395
v  -2.6154 1.2581 0.1395
v  0.0000 1.2581 0.1395
v  -3.0456 1.2581 0.1395
v  -2.7421 1.1500 -0.1395
v  -2.7421 1.2581 0.1395
v  -2.7225 0.0394 -0.1395
v  -2.7225 0.0394 -0.8435
v  -2.6349 0.0394 -0.8435
v  -2.6349 0.0394 -0.1395
v  -2.7225 1.1500 -0.1395
v  -2.6154 1.1500 0.1395
v  -2.6349 1.1500 0.1395
v  -2.7225 0.1902 -0.1395
v  -2.6349 0.1902 0.1395
v  -2.7225 1.1317 0.1040
v  -2.7225 0.2085 0.1040
v  -2.7225 1.1317 -0.1040
v  -2.7225 0.2085 -0.1040
v  -2.6349 1.1317 -0.1040
v  -2.6349 0.2085 -0.1040
v  -2.6349 1.1317 0.1040
v  -2.6349 0.2085 0.1040
v  0.0000 1.1500 0.9974
v  0.0000 1.1500 0.1395
v  0.0000 1.2581 -0.9974
v  0.0000 1.2581 -0.1395
v  0.0000 1.2581 -1.1079
v  0.0000 0.2125 -0.0996
v  0.0000 0.2125 0.0996
v  -2.7231 0.2125 0.0996
v  -2.7231 0.2125 -0.0996
v  0.0000 0.3206 -0.0996
v  -2.7231 0.3206 -0.0996
v  -2.7231 0.3206 0.0996
v  0.0000 0.3206 0.0996
v  -2.7444 0.2125 0.0996
v  -2.7444 0.3206 0.0996
v  2.6154 1.1500 1.1079
v  2.6154 1.2581 1.1079
v  3.0456 1.1500 -0.9974
v  3.0456 1.2581 -0.9974
v  3.0456 1.2581 -0.1395
v  3.0456 1.1500 -0.1395
v  3.0456 1.1500 0.9974
v  2.7421 1.1500 0.9974
v  2.7421 1.1500 0.1395
v  3.0456 1.1500 0.1395
v  2.7421 1.2581 -0.9974
v  2.7421 1.2581 -0.1395
v  2.7421 1.2581 1.1079
v  2.7421 1.1500 1.1079
v  3.0456 1.1500 1.1079
v  3.0456 1.2581 1.1079
v  2.7421 1.1500 -1.1079
v  2.7421 1.2581 -1.1079
v  3.0456 1.2581 -1.1079
v  3.0456 1.1500 -1.1079
v  2.6154 1.1500 -1.1079
v  2.6154 1.1500 -0.9974
v  2.6154 1.2581 0.9974
v  3.0456 1.2581 0.9974
v  2.7421 1.1500 -0.9974
v  2.7421 1.2581 0.9974
v  2.6349 0.0394 0.8435
v  2.6349 0.0394 0.1395
v  2.7225 0.0394 0.1395
v  2.7225 0.0394 0.8435
v  2.6154 1.2581 -0.9974
v  2.6154 1.2581 -0.1395
v  2.6154 1.2581 -1.1079
v  2.6154 1.1500 0.9974
v  2.7225 1.1500 0.9757
v  2.7225 1.1500 0.1395
v  2.7225 1.1500 -0.9757
v  2.6349 1.1500 -0.9757
v  2.6349 1.1500 -0.1395
v  2.6154 1.1500 -0.1395
v  2.6349 1.1500 0.9757
v  2.7225 0.1902 0.8614
v  2.7225 0.1902 0.1395
v  2.7225 0.1902 -0.8614
v  2.6349 0.1902 -0.8614
v  2.6349 0.1902 -0.1395
v  2.6349 0.1902 0.8614
v  2.6154 1.2581 0.1395
v  3.0456 1.2581 0.1395
v  2.7421 1.1500 -0.1395
v  2.7421 1.2581 0.1395
v  2.7225 0.0394 -0.1395
v  2.6349 0.0394 -0.1395
v  2.6349 0.0394 -0.8435
v  2.7225 0.0394 -0.8435
v  2.7225 1.1500 -0.1395
v  2.6154 1.1500 0.1395
v  2.6349 1.1500 0.1395
v  2.7225 0.1902 -0.1395
v  2.6349 0.1902 0.1395
v  2.7225 0.2085 0.1040
v  2.7225 1.1317 0.1040
v  2.7225 1.1317 -0.1040
v  2.7225 0.2085 -0.1040
v  2.6349 0.2085 -0.1040
v  2.6349 1.1317 -0.1040
v  2.6349 1.1317 0.1040
v  2.6349 0.2085 0.1040
v  2.7231 0.2125 -0.0996
v  2.7231 0.2125 0.0996
v  2.7231 0.3206 0.0996
v  2.7231 0.3206 -0.0996
v  2.7444 0.2125 0.0996
v  2.7444 0.3206 0.0996
v  -2.7444 0.3206 -0.0996
v  -2.7444 0.2125 -0.0996
v  -2.7736 0.2236 -0.0790
v  -2.7736 0.3094 -0.0790
v  -2.7736 0.2236 0.0790
v  -2.7736 0.3094 0.0790
v  2.7444 0.2125 -0.0996
v  2.7444 0.3206 -0.0996
v  2.7736 0.3094 -0.0790
v  2.7736 0.2236 -0.0790
v  2.7736 0.3094 0.0790
v  2.7736 0.2236 0.0790
# 176 vertices

vn 0.0000 -0.7071 0.7071
vn 0.0000 0.7071 0.7071
vn -0.7071 -0.7071 -0.0000
vn -0.7071 0.7071 -0.0000
vn 0.0000 -1.0000 -0.0000
vn 0.0000 1.0000 -0.0000
vn -0.5774 0.5774 0.5774
vn -0.5774 -0.5774 0.5774
vn 0.0000 -0.7071 -0.7071
vn -0.5774 -0.5774 -0.5774
vn -0.5774 0.5774 -0.5774
vn 0.0000 0.7071 -0.7071
vn 0.5782 -0.5815 0.5723
vn -0.5782 -0.5815 0.5723
vn 0.7071 -0.7071 -0.0000
vn -0.7071 -0.7071 0.0000
vn -0.2974 -0.9062 0.3004
vn 0.2974 -0.9062 -0.3004
vn -0.2974 -0.9062 -0.3004
vn 0.2974 -0.9062 0.3004
vn -1.0000 0.0000 -0.0000
vn -0.7071 -0.0113 0.7070
vn 0.7071 -0.0113 -0.7070
vn -0.7071 -0.0113 -0.7070
vn 1.0000 -0.0000 -0.0000
vn 0.7071 -0.0113 0.7070
vn -0.5782 -0.5815 -0.5723
vn 0.5782 -0.5815 -0.5723
vn -0.9045 -0.3015 -0.3015
vn -0.9045 0.3015 -0.3015
vn -0.9045 -0.3015 0.3015
vn -0.9045 0.3015 0.3015
vn 0.9045 -0.3015 0.3015
vn 0.9045 0.3015 0.3015
vn 0.9045 -0.3015 -0.3015
vn 0.9045 0.3015 -0.3015
vn -0.4652 -0.6449 0.6064
vn -0.4652 0.6449 0.6064
vn 0.7071 0.7071 -0.0000
vn 0.5774 -0.5774 0.5774
vn 0.5774 0.5774 0.5774
vn 0.5774 0.5774 -0.5774
vn 0.5774 -0.5774 -0.5774
vn 0.7071 -0.7071 0.0000
vn 1.0000 0.0000 -0.0000
vn -1.0000 -0.0000 -0.0000
vn 0.4652 -0.6449 0.6064
vn 0.4652 0.6449 0.6064
vn -0.4652 0.6449 -0.6064
vn -0.4652 -0.6449 -0.6064
vn -0.8927 -0.1237 -0.4334
vn -0.8927 0.1237 -0.4334
vn -0.8927 -0.1237 0.4334
vn -0.8927 0.1237 0.4334
vn 0.4652 -0.6449 -0.6064
vn 0.4652 0.6449 -0.6064
vn 0.8927 0.1237 -0.4334
vn 0.8927 -0.1237 -0.4334
vn 0.8927 0.1237 0.4334
vn 0.8927 -0.1237 0.4334
# 60 vertex normals

vt 0.0482 0.0000 0.0000
vt 0.5000 0.0000 0.0000
vt 0.5000 1.0000 0.0000
vt 0.0482 1.0000 0.0000
vt 0.0247 0.0000 0.0000
vt 0.4335 0.0000 0.0000
vt 0.4335 1.0000 0.0000
vt 0.0247 1.0000 0.0000
vt 1.0000 0.0247 0.0000
vt 1.0000 0.4335 0.0000
vt 0.9753 0.4335 0.0000
vt 0.9753 0.0247 0.0000
vt 0.0000 0.9753 0.0000
vt 0.0000 0.5665 0.0000
vt 0.0247 0.5665 0.0000
vt 0.0247 0.9753 0.0000
vt 0.0000 1.0000 0.0000
vt 0.0000 0.0000 0.0000
vt 0.9753 0.0000 0.0000
vt 1.0000 0.0000 0.0000
vt 1.0000 1.0000 0.0000
vt 0.9753 1.0000 0.0000
vt 0.9518 1.0000 0.0000
vt 0.5000 0.9753 0.0000
vt 0.9518 0.9753 0.0000
vt 0.5000 0.0247 0.0000
vt 0.0482 0.0247 0.0000
vt 1.0000 0.9753 0.0000
vt 0.9753 0.9753 0.0000
vt 0.0000 0.0247 0.0000
vt 0.0247 0.0247 0.0000
vt 0.9518 0.0247 0.0000
vt 0.9753 0.4214 0.0000
vt 0.9518 0.4214 0.0000
vt 0.0482 0.9753 0.0000
vt 0.0482 0.5665 0.0000
vt 0.9518 0.0000 0.0000
vt 0.9753 0.4320 0.0000
vt 0.9518 0.5665 0.0000
vt 0.9518 0.5680 0.0000
vt 0.9753 0.4267 0.0000
vt 0.9518 0.5733 0.0000
vt 0.5000 0.5665 0.0000
vt 0.0482 0.4335 0.0000
vt 0.5000 0.4335 0.0000
vt 0.5665 0.0000 0.0000
vt 0.5665 1.0000 0.0000
vt 1.0000 0.5665 0.0000
vt 0.9753 0.5665 0.0000
vt 0.0000 0.4335 0.0000
vt 0.0247 0.4335 0.0000
vt 0.9753 0.5786 0.0000
vt 0.9518 0.5786 0.0000
vt 0.9753 0.5680 0.0000
vt 0.9518 0.4335 0.0000
vt 0.9518 0.4320 0.0000
vt 0.9753 0.5733 0.0000
vt 0.9518 0.4267 0.0000
vt 0.9518 0.5000 0.0000
vt 0.7500 0.4335 0.0000
vt 0.7500 0.5665 0.0000
vt 0.2500 0.5665 0.0000
vt 0.2500 0.4335 0.0000
vt 0.5332 0.2168 0.0000
vt 0.4668 0.7832 0.0000
# 65 texture coords

o Office_Desk002
g Office_Desk002
usemtl Material__65
s 1
f 1/1/1 2/2/1 3/3/2 4/4/2 
s 2
f 5/5/3 6/6/3 7/7/4 8/8/4 
s 4
f 9/9/3 10/10/3 11/11/5 12/12/5 
f 8/13/4 7/14/4 13/15/6 14/16/6 
s 1
f 15/8/2 16/17/7 17/18/8 18/5/1 
f 19/19/9 20/20/10 21/21/11 22/22/12 
s 4
f 23/23/9 24/3/9 25/24/5 26/25/5 
f 4/1/2 3/2/2 27/26/6 28/27/6 
s 2
f 9/19/3 17/20/8 16/21/7 29/22/4 
f 8/8/4 21/17/11 20/18/10 5/5/3 
s 4
f 5/28/3 20/21/10 19/22/9 30/29/5 
f 12/12/5 18/19/1 17/20/8 9/9/3 
f 29/30/4 16/18/7 15/5/2 31/31/6 
f 14/16/6 22/8/12 21/17/11 8/13/4 
s 1
f 32/32/13 33/12/14 34/33/3 35/34/15 
s 4
f 36/35/6 14/16/6 13/15/6 37/36/6 
s 1
f 4/4/2 15/8/2 18/5/1 1/1/1 
f 23/37/9 19/19/9 22/22/12 38/23/12 
s 4
f 1/37/1 18/19/1 12/12/5 39/32/5 
f 26/25/5 30/29/5 19/22/9 23/23/9 
f 38/4/12 22/8/12 14/16/6 36/35/6 
f 28/27/6 31/31/6 15/5/2 4/1/2 
f 12/12/5 11/11/5 40/38/16 41/12/17 
f 30/29/5 26/25/5 42/25/18 43/29/19 
f 26/25/5 44/39/5 45/40/15 42/25/18 
f 39/32/5 12/12/5 41/12/17 46/32/20 
s 2
f 41/12/17 40/38/16 47/41/21 48/12/22 
s 8
f 43/29/19 42/25/18 49/25/23 50/29/24 
s 2
f 42/25/18 45/40/15 51/42/25 49/25/23 
s 8
f 46/32/20 41/12/17 48/12/22 52/32/26 
s 4
f 44/39/5 26/25/5 25/24/5 53/43/5 
f 54/44/6 28/27/6 27/26/6 55/45/6 
s 2
f 10/46/3 9/19/3 29/22/4 56/47/4 
s 4
f 6/48/3 5/28/3 30/29/5 57/49/5 
f 56/50/4 29/30/4 31/31/6 58/51/6 
s 1
f 59/52/3 60/29/27 61/25/28 62/53/15 
s 4
f 58/51/6 31/31/6 28/27/6 54/44/6 
f 57/49/5 30/29/5 43/29/19 63/54/3 
f 64/55/5 39/32/5 46/32/20 65/56/15 
s 2
f 63/54/3 43/29/19 50/29/24 66/57/21 
f 65/56/15 46/32/20 52/32/26 67/58/25 
f 7/7/4 6/6/3 10/46/3 56/47/4 
s 4
f 11/11/5 10/10/3 6/48/3 57/49/5 
f 13/15/6 7/14/4 56/50/4 58/51/6 
s 1
f 35/34/15 34/33/3 59/52/3 62/53/15 
s 4
f 37/36/6 13/15/6 58/51/6 54/44/6 
f 40/38/16 11/11/5 57/49/5 63/54/3 
f 45/40/15 44/39/5 64/55/5 65/56/15 
s 2
f 34/33/3 47/41/21 66/57/21 59/52/3 
f 62/53/15 51/42/25 67/58/25 35/34/15 
f 47/41/21 34/33/3 33/12/14 48/12/22 
s 8
f 49/25/23 61/25/28 60/29/27 50/29/24 
s 2
f 51/42/25 62/53/15 61/25/28 49/25/23 
s 8
f 48/12/22 33/12/14 32/32/13 52/32/26 
s 2
f 50/29/24 60/29/27 59/52/3 66/57/21 
f 52/32/26 32/32/13 35/34/15 67/58/25 
f 47/41/21 40/38/16 68/38/29 69/41/30 
f 40/38/16 63/54/3 70/54/31 68/38/29 
f 63/54/3 66/57/21 71/57/32 70/54/31 
f 66/57/21 47/41/21 69/41/30 71/57/32 
f 51/42/25 45/40/15 72/59/33 73/42/34 
f 45/40/15 65/56/15 74/56/35 72/59/33 
f 65/56/15 67/58/25 75/58/36 74/56/35 
f 67/58/25 51/42/25 73/42/34 75/58/36 
s 4
f 76/26/5 39/32/5 64/55/5 77/45/5 
f 78/24/6 36/35/6 37/36/6 79/43/6 
s 1
f 24/2/9 23/37/9 38/23/12 80/3/12 
s 4
f 2/2/1 1/37/1 39/32/5 76/26/5 
f 80/3/12 38/4/12 36/35/6 78/24/6 
f 77/45/5 64/55/5 44/39/5 53/43/5 
f 79/43/6 37/36/6 54/44/6 55/45/6 
s 1
f 71/57/32 69/41/30 75/58/36 73/42/34 
s 4
f 74/56/35 75/58/36 69/41/30 68/38/29 
f 70/54/31 71/57/32 73/42/34 72/59/33 
s 1
f 72/59/33 74/56/35 68/38/29 70/54/31 
s 2
f 81/43/9 82/45/1 83/60/1 84/61/9 
f 85/43/12 86/62/12 87/63/2 88/45/2 
s 4
f 89/46/37 83/64/1 87/63/2 90/50/38 
f 81/43/9 84/61/9 86/65/12 85/43/12 
s 1
f 91/1/1 92/4/2 3/3/2 2/2/1 
s 2
f 93/5/15 94/8/39 95/7/39 96/6/15 
s 4
f 97/9/15 98/12/5 99/11/5 100/10/15 
f 94/13/39 101/16/6 102/15/6 95/14/39 
s 1
f 103/8/2 104/5/1 105/18/40 106/17/41 
f 107/19/9 108/22/12 109/21/42 110/20/43 
s 4
f 111/23/9 112/25/5 25/24/5 24/3/9 
f 92/1/2 113/27/6 27/26/6 3/2/2 
s 2
f 97/19/15 114/22/39 106/21/41 105/20/40 
f 94/8/39 93/5/15 110/18/43 109/17/42 
s 4
f 93/28/15 115/29/5 107/22/9 110/21/43 
f 98/12/5 97/9/15 105/20/40 104/19/1 
f 114/30/39 116/31/6 103/5/2 106/18/41 
f 101/16/6 94/13/39 109/17/42 108/8/12 
s 1
f 117/32/14 118/34/3 119/33/15 120/12/13 
s 4
f 121/35/6 122/36/6 102/15/6 101/16/6 
s 1
f 92/4/2 91/1/1 104/5/1 103/8/2 
f 111/37/9 123/23/12 108/22/12 107/19/9 
s 4
f 91/37/1 124/32/5 98/12/5 104/19/1 
f 112/25/5 111/23/9 107/22/9 115/29/5 
f 123/4/12 121/35/6 101/16/6 108/8/12 
f 113/27/6 92/1/2 103/5/2 116/31/6 
f 98/12/5 125/12/20 126/38/44 99/11/5 
f 115/29/5 127/29/18 128/25/19 112/25/5 
f 112/25/5 128/25/19 129/40/3 130/39/5 
f 124/32/5 131/32/17 125/12/20 98/12/5 
s 2
f 125/12/20 132/12/26 133/41/45 126/38/44 
s 8
f 127/29/18 134/29/23 135/25/24 128/25/19 
s 2
f 128/25/19 135/25/24 136/42/46 129/40/3 
s 8
f 131/32/17 137/32/22 132/12/26 125/12/20 
s 4
f 130/39/5 53/43/5 25/24/5 112/25/5 
f 138/44/6 55/45/6 27/26/6 113/27/6 
s 2
f 100/46/15 139/47/39 114/22/39 97/19/15 
s 4
f 96/48/15 140/49/5 115/29/5 93/28/15 
f 139/50/39 141/51/6 116/31/6 114/30/39 
s 1
f 142/52/15 143/53/3 144/25/27 145/29/28 
s 4
f 141/51/6 138/44/6 113/27/6 116/31/6 
f 140/49/5 146/54/15 127/29/18 115/29/5 
f 147/55/5 148/56/3 131/32/17 124/32/5 
s 2
f 146/54/15 149/57/45 134/29/23 127/29/18 
f 148/56/3 150/58/46 137/32/22 131/32/17 
f 95/7/39 139/47/39 100/46/15 96/6/15 
s 4
f 99/11/5 140/49/5 96/48/15 100/10/15 
f 102/15/6 141/51/6 139/50/39 95/14/39 
s 1
f 118/34/3 143/53/3 142/52/15 119/33/15 
s 4
f 122/36/6 138/44/6 141/51/6 102/15/6 
f 126/38/44 146/54/15 140/49/5 99/11/5 
f 129/40/3 148/56/3 147/55/5 130/39/5 
s 2
f 119/33/15 142/52/15 149/57/45 133/41/45 
f 143/53/3 118/34/3 150/58/46 136/42/46 
f 133/41/45 132/12/26 120/12/13 119/33/15 
s 8
f 135/25/24 134/29/23 145/29/28 144/25/27 
s 2
f 136/42/46 135/25/24 144/25/27 143/53/3 
s 8
f 132/12/26 137/32/22 117/32/14 120/12/13 
s 2
f 134/29/23 149/57/45 142/52/15 145/29/28 
f 137/32/22 150/58/46 118/34/3 117/32/14 
f 133/41/45 151/41/36 152/38/35 126/38/44 
f 126/38/44 152/38/35 153/54/33 146/54/15 
f 146/54/15 153/54/33 154/57/34 149/57/45 
f 149/57/45 154/57/34 151/41/36 133/41/45 
f 136/42/46 155/42/32 156/59/31 129/40/3 
f 129/40/3 156/59/31 157/56/29 148/56/3 
f 148/56/3 157/56/29 158/58/30 150/58/46 
f 150/58/46 158/58/30 155/42/32 136/42/46 
s 4
f 76/26/5 77/45/5 147/55/5 124/32/5 
f 78/24/6 79/43/6 122/36/6 121/35/6 
s 1
f 24/2/9 80/3/12 123/23/12 111/37/9 
s 4
f 2/2/1 76/26/5 124/32/5 91/37/1 
f 80/3/12 78/24/6 121/35/6 123/4/12 
f 77/45/5 53/43/5 130/39/5 147/55/5 
f 79/43/6 55/45/6 138/44/6 122/36/6 
s 1
f 154/57/34 155/42/32 158/58/30 151/41/36 
s 4
f 157/56/29 152/38/35 151/41/36 158/58/30 
f 153/54/33 156/59/31 155/42/32 154/57/34 
s 1
f 156/59/31 153/54/33 152/38/35 157/56/29 
s 2
f 81/43/9 159/61/9 160/60/1 82/45/1 
f 85/43/12 88/45/2 161/63/2 162/62/12 
s 4
f 163/46/47 164/50/48 161/63/2 160/64/1 
f 81/43/9 85/43/12 162/65/12 159/61/9 
f 165/7/49 166/6/50 167/6/51 168/7/52 
s 1
f 166/6/50 89/46/37 169/46/53 167/6/51 
s 4
f 89/46/37 90/47/38 170/47/54 169/46/53 
s 1
f 90/47/38 165/7/49 168/7/52 170/47/54 
s 4
f 171/6/55 172/7/56 173/7/57 174/6/58 
s 1
f 172/7/56 164/47/48 175/47/59 173/7/57 
s 4
f 164/47/48 163/46/47 176/46/60 175/47/59 
s 1
f 163/46/47 171/6/55 174/6/58 176/46/60 
s 2
f 83/60/1 89/10/37 166/48/50 84/61/9 
f 86/62/12 165/14/49 90/50/38 87/63/2 
s 4
f 83/64/1 82/45/1 88/45/2 87/63/2 
f 84/61/9 166/48/50 165/7/49 86/65/12 
s 2
f 159/61/9 171/48/55 163/10/47 160/60/1 
f 161/63/2 164/50/48 172/14/56 162/62/12 
s 4
f 161/63/2 88/45/2 82/45/1 160/64/1 
f 162/65/12 172/7/56 171/48/55 159/61/9 
s 16
f 173/7/57 175/47/59 176/46/60 174/6/58 
s 32
f 167/6/51 169/46/53 170/47/54 168/7/52 
# 176 polygons

