# 3ds Max Wavefront OBJ Exporter v0.99 - (c)2007 guruware
# File Created: 16.12.2025 15:38:44

mtllib JailCellAnchor_Origin.mtl

#
# object JailCellAnchor_Origin
#

v  3.1057 0.0611 -4.4852
v  3.1057 4.2219 -4.4852
v  3.1057 4.2219 4.4678
v  3.1057 0.0611 4.4678
v  -3.1057 0.0611 4.4677
v  -3.1057 0.0611 -4.4853
v  -3.1057 4.2219 4.4677
v  -3.1057 4.2219 -4.4853
# 8 vertices

vn 0.5774 -0.5773 -0.5773
vn 0.5774 0.5773 -0.5773
vn 0.5773 0.5774 0.5774
vn 0.5773 -0.5774 0.5774
vn -0.5774 -0.5773 0.5773
vn -0.5773 -0.5774 -0.5774
vn -0.5774 0.5773 0.5773
vn -0.5773 0.5774 -0.5774
# 8 vertex normals

vt 0.5000 0.5000 0.0000
vt 0.2500 0.5000 0.0000
vt 0.2500 0.7500 0.0000
vt 0.5000 0.7500 0.0000
# 4 texture coords

o JailCellAnchor_Origin
g JailCellAnchor_Origin
usemtl Material__65
s 64
f 1/1/1 2/2/2 3/3/3 4/4/4 
s 16
f 4/4/4 5/4/5 6/1/6 1/1/1 
s 64
f 7/3/7 8/2/8 6/1/6 5/4/5 
s 2
f 2/2/2 8/2/8 7/3/7 3/3/3 
s 1
f 4/4/4 3/3/3 7/3/7 5/4/5 
f 2/2/2 1/1/1 6/1/6 8/2/8 
# 6 polygons

