# 3ds Max Wavefront OBJ Exporter v0.99 - (c)2007 guruware
# File Created: 15.12.2025 15:04:31

mtllib Jail_Module.mtl

#
# object Jail
#

v  -3.1057 0.0000 -4.6132
v  -3.5327 0.0000 -4.6132
v  -3.5327 0.0611 -4.6132
v  -3.1057 0.0611 -4.6132
v  -3.1057 0.0000 4.6131
v  -3.1057 0.0611 4.6131
v  -3.5327 0.0611 4.6131
v  -3.5327 0.0000 4.6131
v  -3.1057 0.0000 -4.4853
v  -3.5327 0.0000 -4.4853
v  -3.5327 0.0611 -4.4853
v  -3.5327 4.5102 -4.6132
v  -3.5327 4.5102 -4.4853
v  -3.1057 4.5102 -4.4853
v  -3.1057 4.5102 -4.6132
v  3.1057 0.0000 -4.6131
v  3.1057 0.0611 -4.6131
v  3.5327 0.0611 -4.6131
v  3.5327 0.0000 -4.6131
v  3.1057 0.0000 4.6132
v  3.5327 0.0000 4.6132
v  3.5327 0.0611 4.6132
v  3.1057 0.0611 4.6132
v  3.5327 0.0000 -4.4852
v  3.1057 0.0000 -4.4852
v  3.5327 0.0611 -4.4852
v  3.5327 4.5102 -4.6131
v  3.1057 4.5102 -4.6131
v  3.1057 4.5102 -4.4852
v  3.5327 4.5102 -4.4852
v  -3.5327 4.2219 -4.6132
v  -3.1057 4.2219 -4.6132
v  -3.1057 4.2219 4.6131
v  -3.5327 4.2219 4.6131
v  -3.5327 4.2219 4.4677
v  -3.5327 0.0611 4.4677
v  3.1057 4.2219 -4.6131
v  3.5327 4.2219 -4.6131
v  3.5327 4.2219 4.6132
v  3.1057 4.2219 4.6132
v  3.5327 4.2219 -4.4852
v  3.1057 0.0611 4.4678
v  -3.1057 0.0611 4.4677
v  -3.1057 0.0000 4.4677
v  -3.5327 0.0000 4.4677
v  -3.5327 4.5102 4.4677
v  -3.1057 4.5102 4.4677
v  3.5327 0.0000 4.4678
v  3.1057 0.0000 4.4678
v  3.5327 0.0611 4.4678
v  3.1057 4.5102 4.4678
v  3.5327 4.5102 4.4678
v  3.1057 0.0611 -4.4852
v  3.1057 4.2219 4.4678
v  3.1057 4.2219 -4.4852
v  -3.5327 4.2219 -4.4853
v  3.5327 4.2219 4.4678
v  -3.1057 4.2219 -4.4853
v  -3.1057 0.0611 -4.4853
v  -3.5327 4.5102 4.6131
v  -3.1057 4.5102 4.6131
v  3.1057 4.5102 4.6132
v  3.5327 4.5102 4.6132
v  -3.1057 4.2219 4.4677
v  -3.1580 2.9897 4.4791
v  3.1415 2.9897 4.4791
v  3.1415 2.9897 4.5639
v  -3.1580 2.9897 4.5639
v  -3.1580 3.0014 4.4634
v  -3.1580 3.1204 4.4634
v  3.1415 3.1204 4.4634
v  3.1415 3.0014 4.4634
v  -3.1580 3.1320 4.4791
v  -3.1580 3.1320 4.5639
v  3.1415 3.1320 4.5639
v  3.1415 3.1320 4.4791
v  -3.1580 3.1204 4.5795
v  -3.1580 3.0014 4.5795
v  3.1415 3.0014 4.5795
v  3.1415 3.1204 4.5795
v  -2.9409 0.0302 4.5228
v  -2.9514 0.0302 4.4973
v  -2.9514 4.3057 4.4973
v  -2.9409 4.3057 4.5228
v  -2.9769 0.0302 4.4867
v  -2.9769 4.3057 4.4867
v  -3.0024 0.0302 4.4973
v  -3.0024 4.3057 4.4973
v  -3.0129 0.0302 4.5228
v  -3.0129 4.3057 4.5228
v  -3.0024 0.0302 4.5482
v  -3.0024 4.3057 4.5482
v  -2.9769 0.0302 4.5588
v  -2.9769 4.3057 4.5588
v  -2.9514 0.0302 4.5482
v  -2.9514 4.3057 4.5482
v  3.0591 0.0302 4.5228
v  3.0486 0.0302 4.4973
v  3.0486 4.3057 4.4973
v  3.0591 4.3057 4.5228
v  3.0231 0.0302 4.4867
v  3.0231 4.3057 4.4867
v  2.9976 0.0302 4.4973
v  2.9976 4.3057 4.4973
v  2.9871 0.0302 4.5228
v  2.9871 4.3057 4.5228
v  2.9976 0.0302 4.5482
v  2.9976 4.3057 4.5482
v  3.0231 0.0302 4.5588
v  3.0231 4.3057 4.5588
v  3.0486 0.0302 4.5482
v  3.0486 4.3057 4.5482
v  2.7591 0.0302 4.5228
v  2.7486 0.0302 4.4973
v  2.7486 4.3057 4.4973
v  2.7591 4.3057 4.5228
v  2.7231 0.0302 4.4867
v  2.7231 4.3057 4.4867
v  2.6976 0.0302 4.4973
v  2.6976 4.3057 4.4973
v  2.6871 0.0302 4.5228
v  2.6871 4.3057 4.5228
v  2.6976 0.0302 4.5482
v  2.6976 4.3057 4.5482
v  2.7231 0.0302 4.5588
v  2.7231 4.3057 4.5588
v  2.7486 0.0302 4.5482
v  2.7486 4.3057 4.5482
v  2.4591 0.0302 4.5228
v  2.4486 0.0302 4.4973
v  2.4486 4.3057 4.4973
v  2.4591 4.3057 4.5228
v  2.4231 0.0302 4.4867
v  2.4231 4.3057 4.4867
v  2.3976 0.0302 4.4973
v  2.3976 4.3057 4.4973
v  2.3871 0.0302 4.5228
v  2.3871 4.3057 4.5228
v  2.3976 0.0302 4.5482
v  2.3976 4.3057 4.5482
v  2.4231 0.0302 4.5588
v  2.4231 4.3057 4.5588
v  2.4486 0.0302 4.5482
v  2.4486 4.3057 4.5482
v  2.1591 0.0302 4.5228
v  2.1486 0.0302 4.4973
v  2.1486 4.3057 4.4973
v  2.1591 4.3057 4.5228
v  2.1231 0.0302 4.4867
v  2.1231 4.3057 4.4867
v  2.0976 0.0302 4.4973
v  2.0976 4.3057 4.4973
v  2.0871 0.0302 4.5228
v  2.0871 4.3057 4.5228
v  2.0976 0.0302 4.5482
v  2.0976 4.3057 4.5482
v  2.1231 0.0302 4.5588
v  2.1231 4.3057 4.5588
v  2.1486 0.0302 4.5482
v  2.1486 4.3057 4.5482
v  1.8591 0.0302 4.5228
v  1.8486 0.0302 4.4973
v  1.8486 4.3057 4.4973
v  1.8591 4.3057 4.5228
v  1.8231 0.0302 4.4867
v  1.8231 4.3057 4.4867
v  1.7976 0.0302 4.4973
v  1.7976 4.3057 4.4973
v  1.7871 0.0302 4.5228
v  1.7871 4.3057 4.5228
v  1.7976 0.0302 4.5482
v  1.7976 4.3057 4.5482
v  1.8231 0.0302 4.5588
v  1.8231 4.3057 4.5588
v  1.8486 0.0302 4.5482
v  1.8486 4.3057 4.5482
v  1.5591 0.0302 4.5228
v  1.5486 0.0302 4.4973
v  1.5486 4.3057 4.4973
v  1.5591 4.3057 4.5228
v  1.5231 0.0302 4.4867
v  1.5231 4.3057 4.4867
v  1.4976 0.0302 4.4973
v  1.4976 4.3057 4.4973
v  1.4871 0.0302 4.5228
v  1.4871 4.3057 4.5228
v  1.4976 0.0302 4.5482
v  1.4976 4.3057 4.5482
v  1.5231 0.0302 4.5588
v  1.5231 4.3057 4.5588
v  1.5486 0.0302 4.5482
v  1.5486 4.3057 4.5482
v  1.2591 0.0302 4.5228
v  1.2486 0.0302 4.4973
v  1.2486 4.3057 4.4973
v  1.2591 4.3057 4.5228
v  1.2231 0.0302 4.4867
v  1.2231 4.3057 4.4867
v  1.1976 0.0302 4.4973
v  1.1976 4.3057 4.4973
v  1.1871 0.0302 4.5228
v  1.1871 4.3057 4.5228
v  1.1976 0.0302 4.5482
v  1.1976 4.3057 4.5482
v  1.2231 0.0302 4.5588
v  1.2231 4.3057 4.5588
v  1.2486 0.0302 4.5482
v  1.2486 4.3057 4.5482
v  0.9591 0.0302 4.5228
v  0.9486 0.0302 4.4973
v  0.9486 4.3057 4.4973
v  0.9591 4.3057 4.5228
v  0.9231 0.0302 4.4867
v  0.9231 4.3057 4.4867
v  0.8976 0.0302 4.4973
v  0.8976 4.3057 4.4973
v  0.8871 0.0302 4.5228
v  0.8871 4.3057 4.5228
v  0.8976 0.0302 4.5482
v  0.8976 4.3057 4.5482
v  0.9231 0.0302 4.5588
v  0.9231 4.3057 4.5588
v  0.9486 0.0302 4.5482
v  0.9486 4.3057 4.5482
v  0.6591 0.0302 4.5228
v  0.6486 0.0302 4.4973
v  0.6486 4.3057 4.4973
v  0.6591 4.3057 4.5228
v  0.6231 0.0302 4.4867
v  0.6231 4.3057 4.4867
v  0.5976 0.0302 4.4973
v  0.5976 4.3057 4.4973
v  0.5871 0.0302 4.5228
v  0.5871 4.3057 4.5228
v  0.5976 0.0302 4.5482
v  0.5976 4.3057 4.5482
v  0.6231 0.0302 4.5588
v  0.6231 4.3057 4.5588
v  0.6486 0.0302 4.5482
v  0.6486 4.3057 4.5482
v  0.3591 0.0302 4.5228
v  0.3486 0.0302 4.4973
v  0.3486 4.3057 4.4973
v  0.3591 4.3057 4.5228
v  0.3231 0.0302 4.4867
v  0.3231 4.3057 4.4867
v  0.2976 0.0302 4.4973
v  0.2976 4.3057 4.4973
v  0.2871 0.0302 4.5228
v  0.2871 4.3057 4.5228
v  0.2976 0.0302 4.5482
v  0.2976 4.3057 4.5482
v  0.3231 0.0302 4.5588
v  0.3231 4.3057 4.5588
v  0.3486 0.0302 4.5482
v  0.3486 4.3057 4.5482
v  -1.7409 0.0302 4.5228
v  -1.7514 0.0302 4.4973
v  -1.7514 4.3057 4.4973
v  -1.7409 4.3057 4.5228
v  -1.7769 0.0302 4.4867
v  -1.7769 4.3057 4.4867
v  -1.8024 0.0302 4.4973
v  -1.8024 4.3057 4.4973
v  -1.8129 0.0302 4.5228
v  -1.8129 4.3057 4.5228
v  -1.8024 0.0302 4.5482
v  -1.8024 4.3057 4.5482
v  -1.7769 0.0302 4.5588
v  -1.7769 4.3057 4.5588
v  -1.7514 0.0302 4.5482
v  -1.7514 4.3057 4.5482
v  -2.0409 0.0302 4.5228
v  -2.0514 0.0302 4.4973
v  -2.0514 4.3057 4.4973
v  -2.0409 4.3057 4.5228
v  -2.0769 0.0302 4.4867
v  -2.0769 4.3057 4.4867
v  -2.1024 0.0302 4.4973
v  -2.1024 4.3057 4.4973
v  -2.1129 0.0302 4.5228
v  -2.1129 4.3057 4.5228
v  -2.1024 0.0302 4.5482
v  -2.1024 4.3057 4.5482
v  -2.0769 0.0302 4.5588
v  -2.0769 4.3057 4.5588
v  -2.0514 0.0302 4.5482
v  -2.0514 4.3057 4.5482
v  -2.3409 0.0302 4.5228
v  -2.3514 0.0302 4.4973
v  -2.3514 4.3057 4.4973
v  -2.3409 4.3057 4.5228
v  -2.3769 0.0302 4.4867
v  -2.3769 4.3057 4.4867
v  -2.4024 0.0302 4.4973
v  -2.4024 4.3057 4.4973
v  -2.4129 0.0302 4.5228
v  -2.4129 4.3057 4.5228
v  -2.4024 0.0302 4.5482
v  -2.4024 4.3057 4.5482
v  -2.3769 0.0302 4.5588
v  -2.3769 4.3057 4.5588
v  -2.3514 0.0302 4.5482
v  -2.3514 4.3057 4.5482
v  -2.6409 0.0302 4.5228
v  -2.6514 0.0302 4.4973
v  -2.6514 4.3057 4.4973
v  -2.6409 4.3057 4.5228
v  -2.6769 0.0302 4.4867
v  -2.6769 4.3057 4.4867
v  -2.7024 0.0302 4.4973
v  -2.7024 4.3057 4.4973
v  -2.7129 0.0302 4.5228
v  -2.7129 4.3057 4.5228
v  -2.7024 0.0302 4.5482
v  -2.7024 4.3057 4.5482
v  -2.6769 0.0302 4.5588
v  -2.6769 4.3057 4.5588
v  -2.6514 0.0302 4.5482
v  -2.6514 4.3057 4.5482
v  -0.3667 3.0303 4.4973
v  -0.3667 4.3057 4.4973
v  -0.3561 4.3057 4.5228
v  -0.3561 3.0303 4.5228
v  -0.3921 3.0303 4.4867
v  -0.3921 4.3057 4.4867
v  -0.4176 3.0303 4.4973
v  -0.4176 4.3057 4.4973
v  -0.4282 3.0303 4.5228
v  -0.4282 4.3057 4.5228
v  -0.4176 3.0303 4.5482
v  -0.4176 4.3057 4.5482
v  -0.3921 3.0303 4.5588
v  -0.3921 4.3057 4.5588
v  -0.3667 3.0303 4.5482
v  -0.3667 4.3057 4.5482
v  -0.6667 3.0303 4.4973
v  -0.6667 4.3057 4.4973
v  -0.6561 4.3057 4.5228
v  -0.6561 3.0303 4.5228
v  -0.6921 3.0303 4.4867
v  -0.6921 4.3057 4.4867
v  -0.7176 3.0303 4.4973
v  -0.7176 4.3057 4.4973
v  -0.7282 3.0303 4.5228
v  -0.7282 4.3057 4.5228
v  -0.7176 3.0303 4.5482
v  -0.7176 4.3057 4.5482
v  -0.6921 3.0303 4.5588
v  -0.6921 4.3057 4.5588
v  -0.6667 3.0303 4.5482
v  -0.6667 4.3057 4.5482
v  -0.9667 3.0303 4.4973
v  -0.9667 4.3057 4.4973
v  -0.9561 4.3057 4.5228
v  -0.9561 3.0303 4.5228
v  -0.9921 3.0303 4.4867
v  -0.9921 4.3057 4.4867
v  -1.0176 3.0303 4.4973
v  -1.0176 4.3057 4.4973
v  -1.0282 3.0303 4.5228
v  -1.0282 4.3057 4.5228
v  -1.0176 3.0303 4.5482
v  -1.0176 4.3057 4.5482
v  -0.9921 3.0303 4.5588
v  -0.9921 4.3057 4.5588
v  -0.9667 3.0303 4.5482
v  -0.9667 4.3057 4.5482
v  -1.2667 3.0303 4.4973
v  -1.2667 4.3057 4.4973
v  -1.2561 4.3057 4.5228
v  -1.2561 3.0303 4.5228
v  -1.2921 3.0303 4.4867
v  -1.2921 4.3057 4.4867
v  -1.3176 3.0303 4.4973
v  -1.3176 4.3057 4.4973
v  -1.3282 3.0303 4.5228
v  -1.3282 4.3057 4.5228
v  -1.3176 3.0303 4.5482
v  -1.3176 4.3057 4.5482
v  -1.2921 3.0303 4.5588
v  -1.2921 4.3057 4.5588
v  -1.2667 3.0303 4.5482
v  -1.2667 4.3057 4.5482
v  -0.0701 3.0303 4.4973
v  -0.0701 4.3057 4.4973
v  -0.0595 4.3057 4.5228
v  -0.0595 3.0303 4.5228
v  -0.0955 3.0303 4.4867
v  -0.0955 4.3057 4.4867
v  -0.1210 3.0303 4.4973
v  -0.1210 4.3057 4.4973
v  -0.1316 3.0303 4.5228
v  -0.1316 4.3057 4.5228
v  -0.1210 3.0303 4.5482
v  -0.1210 4.3057 4.5482
v  -0.0955 3.0303 4.5588
v  -0.0955 4.3057 4.5588
v  -0.0701 3.0303 4.5482
v  -0.0701 4.3057 4.5482
v  -1.6328 0.0302 4.4911
v  -1.6328 0.0302 4.5544
v  -1.6328 4.3057 4.5544
v  -1.6328 4.3057 4.4911
v  -1.5596 0.0302 4.5544
v  -1.5596 4.3057 4.5544
v  0.2005 0.0302 4.4911
v  0.2005 4.3057 4.4911
v  0.2005 4.3057 4.5544
v  0.2005 0.0302 4.5544
v  0.1273 0.0302 4.4911
v  0.1273 4.3057 4.4911
v  -1.5596 0.0302 4.4911
v  -1.5596 4.3057 4.4911
v  0.1273 0.0302 4.5544
v  0.1273 4.3057 4.5544
v  -3.1580 0.0297 4.4791
v  -1.5836 0.0297 4.4791
v  -1.5836 0.0297 4.5639
v  -3.1580 0.0297 4.5639
v  -3.1580 0.0414 4.4634
v  -3.1580 0.1603 4.4634
v  -1.5836 0.1603 4.4634
v  -1.5836 0.0414 4.4634
v  -3.1580 0.1720 4.4791
v  -3.1580 0.1720 4.5639
v  -1.5836 0.1720 4.5639
v  -1.5836 0.1720 4.4791
v  -3.1580 0.1603 4.5795
v  -3.1580 0.0414 4.5795
v  -1.5836 0.0414 4.5795
v  -1.5836 0.1603 4.5795
v  3.1415 0.0297 4.4791
v  0.1435 0.0297 4.4791
v  0.1435 0.0414 4.4634
v  3.1415 0.0414 4.4634
v  3.1415 0.1603 4.4634
v  0.1435 0.1603 4.4634
v  0.1435 0.1720 4.4791
v  3.1415 0.1720 4.4791
v  3.1415 0.1720 4.5639
v  0.1435 0.1720 4.5639
v  0.1435 0.1603 4.5795
v  3.1415 0.1603 4.5795
v  3.1415 0.0414 4.5795
v  0.1435 0.0414 4.5795
v  0.1435 0.0297 4.5639
v  3.1415 0.0297 4.5639
v  0.1311 0.0531 4.5582
v  0.1311 0.0531 4.4848
v  0.1311 0.1486 4.4848
v  0.1311 0.1486 4.5582
v  -1.5626 0.0531 4.4848
v  -1.5626 0.0531 4.5582
v  -1.5626 0.1486 4.4848
v  -1.5626 0.1486 4.5582
v  -3.1580 4.0969 4.4791
v  3.1415 4.0969 4.4791
v  3.1415 4.0969 4.5639
v  -3.1580 4.0969 4.5639
v  -3.1580 4.1086 4.4634
v  -3.1580 4.2276 4.4634
v  3.1415 4.2276 4.4634
v  3.1415 4.1086 4.4634
v  -3.1580 4.2393 4.4791
v  -3.1580 4.2393 4.5639
v  3.1415 4.2393 4.5639
v  3.1415 4.2393 4.4791
v  -3.1580 4.2276 4.5795
v  -3.1580 4.1086 4.5795
v  3.1415 4.1086 4.5795
v  3.1415 4.2276 4.5795
v  -3.1580 1.2542 4.4791
v  -1.5744 1.2542 4.4791
v  -1.5744 1.2542 4.5639
v  -3.1580 1.2542 4.5639
v  -3.1580 1.2659 4.4634
v  -3.1580 1.3188 4.4634
v  -1.5744 1.3188 4.4634
v  -1.5744 1.2659 4.4634
v  -3.1580 1.3305 4.4791
v  -3.1580 1.3305 4.5639
v  -1.5744 1.3305 4.5639
v  -1.5744 1.3305 4.4791
v  -3.1580 1.3188 4.5795
v  -3.1580 1.2659 4.5795
v  -1.5744 1.2659 4.5795
v  -1.5744 1.3188 4.5795
v  3.1415 1.2542 4.4791
v  0.1424 1.2542 4.4791
v  0.1424 1.2659 4.4634
v  3.1415 1.2659 4.4634
v  3.1415 1.3188 4.4634
v  0.1424 1.3188 4.4634
v  0.1424 1.3305 4.4791
v  3.1415 1.3305 4.4791
v  3.1415 1.3305 4.5639
v  0.1424 1.3305 4.5639
v  0.1424 1.3188 4.5795
v  3.1415 1.3188 4.5795
v  3.1415 1.2659 4.5795
v  0.1424 1.2659 4.5795
v  0.1424 1.2542 4.5639
v  3.1415 1.2542 4.5639
v  -3.1580 1.5295 4.4791
v  -1.5758 1.5295 4.4791
v  -1.5758 1.5295 4.5639
v  -3.1580 1.5295 4.5639
v  -3.1580 1.5412 4.4634
v  -3.1580 1.5942 4.4634
v  -1.5758 1.5942 4.4634
v  -1.5758 1.5412 4.4634
v  -3.1580 1.6058 4.4791
v  -3.1580 1.6058 4.5639
v  -1.5758 1.6058 4.5639
v  -1.5758 1.6058 4.4791
v  -3.1580 1.5942 4.5795
v  -3.1580 1.5412 4.5795
v  -1.5758 1.5412 4.5795
v  -1.5758 1.5942 4.5795
v  3.1415 1.5295 4.4791
v  0.1449 1.5295 4.4791
v  0.1449 1.5412 4.4634
v  3.1415 1.5412 4.4634
v  3.1415 1.5942 4.4634
v  0.1449 1.5942 4.4634
v  0.1449 1.6058 4.4791
v  3.1415 1.6058 4.4791
v  3.1415 1.6058 4.5639
v  0.1449 1.6058 4.5639
v  0.1449 1.5942 4.5795
v  3.1415 1.5942 4.5795
v  3.1415 1.5412 4.5795
v  0.1449 1.5412 4.5795
v  0.1449 1.5295 4.5639
v  3.1415 1.5295 4.5639
v  0.1328 1.5452 4.5565
v  0.1328 1.5452 4.4865
v  0.1328 1.5902 4.4865
v  0.1328 1.5902 4.5565
v  0.1303 1.2698 4.4865
v  0.1303 1.3149 4.4865
v  0.1303 1.3149 4.5565
v  0.1303 1.2698 4.5565
v  -1.5660 1.5452 4.4865
v  -1.5660 1.5452 4.5565
v  -1.5660 1.5902 4.4865
v  -1.5660 1.5902 4.5565
v  -1.5647 1.2698 4.4865
v  -1.5647 1.2698 4.5565
v  -1.5647 1.3149 4.4865
v  -1.5647 1.3149 4.5565
v  -1.4835 0.3325 4.5642
v  -1.4954 0.3325 4.5354
v  -1.4954 0.5158 4.5354
v  -1.4835 0.5158 4.5642
v  -1.5242 0.3325 4.5235
v  -1.5242 0.5158 4.5235
v  -1.5529 0.3325 4.5354
v  -1.5529 0.5158 4.5354
v  -1.5648 0.3325 4.5642
v  -1.5648 0.5158 4.5642
v  -1.5529 0.3325 4.5929
v  -1.5529 0.5158 4.5929
v  -1.5242 0.3325 4.6048
v  -1.5242 0.5158 4.6048
v  -1.4954 0.3325 4.5929
v  -1.4954 0.5158 4.5929
v  -1.4954 1.7350 4.5354
v  -1.4835 1.7350 4.5642
v  -1.4835 1.5516 4.5642
v  -1.4954 1.5516 4.5354
v  -1.5242 1.7350 4.5235
v  -1.5242 1.5516 4.5235
v  -1.5529 1.7350 4.5354
v  -1.5529 1.5516 4.5354
v  -1.5648 1.7350 4.5642
v  -1.5648 1.5516 4.5642
v  -1.5529 1.7350 4.5929
v  -1.5529 1.5516 4.5929
v  -1.5242 1.7350 4.6048
v  -1.5242 1.5516 4.6048
v  -1.4954 1.7350 4.5929
v  -1.4954 1.5516 4.5929
v  -1.4835 2.4040 4.5642
v  -1.4954 2.4040 4.5354
v  -1.4954 2.5874 4.5354
v  -1.4835 2.5874 4.5642
v  -1.5242 2.4040 4.5235
v  -1.5242 2.5874 4.5235
v  -1.5529 2.4040 4.5354
v  -1.5529 2.5874 4.5354
v  -1.5648 2.4040 4.5642
v  -1.5648 2.5874 4.5642
v  -1.5529 2.4040 4.5929
v  -1.5529 2.5874 4.5929
v  -1.5242 2.4040 4.6048
v  -1.5242 2.5874 4.6048
v  -1.4954 2.4040 4.5929
v  -1.4954 2.5874 4.5929
v  -1.4954 0.6992 4.5354
v  -1.4835 0.6992 4.5642
v  -1.5242 0.6992 4.5235
v  -1.5529 0.6992 4.5354
v  -1.5648 0.6992 4.5642
v  -1.5529 0.6992 4.5929
v  -1.5242 0.6992 4.6048
v  -1.4954 0.6992 4.5929
v  -1.4954 2.7708 4.5354
v  -1.4835 2.7708 4.5642
v  -1.5242 2.7708 4.5235
v  -1.5529 2.7708 4.5354
v  -1.5648 2.7708 4.5642
v  -1.5529 2.7708 4.5929
v  -1.5242 2.7708 4.6048
v  -1.4954 2.7708 4.5929
v  -1.4835 1.3683 4.5642
v  -1.4954 1.3683 4.5354
v  -1.5242 1.3683 4.5235
v  -1.5529 1.3683 4.5354
v  -1.5648 1.3683 4.5642
v  -1.5529 1.3683 4.5929
v  -1.5242 1.3683 4.6048
v  -1.4954 1.3683 4.5929
v  -1.5020 0.3239 4.5420
v  -1.4928 0.3239 4.5642
v  -1.5242 0.3239 4.5642
v  -1.5242 0.3239 4.5328
v  -1.5464 0.3239 4.5420
v  -1.5556 0.3239 4.5642
v  -1.5464 0.3239 4.5864
v  -1.5242 0.3239 4.5956
v  -1.5020 0.3239 4.5864
v  -1.4928 1.7435 4.5642
v  -1.5020 1.7435 4.5420
v  -1.5242 1.7435 4.5642
v  -1.5242 1.7435 4.5328
v  -1.5464 1.7435 4.5420
v  -1.5556 1.7435 4.5642
v  -1.5464 1.7435 4.5864
v  -1.5242 1.7435 4.5956
v  -1.5020 1.7435 4.5864
v  -1.5020 2.3955 4.5420
v  -1.4928 2.3955 4.5642
v  -1.5242 2.3955 4.5642
v  -1.5242 2.3955 4.5328
v  -1.5464 2.3955 4.5420
v  -1.5556 2.3955 4.5642
v  -1.5464 2.3955 4.5864
v  -1.5242 2.3955 4.5956
v  -1.5020 2.3955 4.5864
v  -1.4928 0.7078 4.5642
v  -1.5020 0.7078 4.5420
v  -1.5242 0.7078 4.5642
v  -1.5242 0.7078 4.5328
v  -1.5464 0.7078 4.5420
v  -1.5556 0.7078 4.5642
v  -1.5464 0.7078 4.5864
v  -1.5242 0.7078 4.5956
v  -1.5020 0.7078 4.5864
v  -1.4928 2.7793 4.5642
v  -1.5020 2.7793 4.5420
v  -1.5242 2.7793 4.5642
v  -1.5242 2.7793 4.5328
v  -1.5464 2.7793 4.5420
v  -1.5556 2.7793 4.5642
v  -1.5464 2.7793 4.5864
v  -1.5242 2.7793 4.5956
v  -1.5020 2.7793 4.5864
v  -1.5020 1.3597 4.5420
v  -1.4928 1.3597 4.5642
v  -1.5242 1.3597 4.5642
v  -1.5242 1.3597 4.5328
v  -1.5464 1.3597 4.5420
v  -1.5556 1.3597 4.5642
v  -1.5464 1.3597 4.5864
v  -1.5242 1.3597 4.5956
v  -1.5020 1.3597 4.5864
v  -0.3561 0.0952 4.5228
v  -0.3667 0.0952 4.4973
v  -0.3667 1.2999 4.4973
v  -0.3561 1.2999 4.5228
v  -0.3921 0.0952 4.4867
v  -0.3921 1.2999 4.4867
v  -0.4176 0.0952 4.4973
v  -0.4176 1.2999 4.4973
v  -0.4282 0.0952 4.5228
v  -0.4282 1.2999 4.5228
v  -0.4176 0.0952 4.5482
v  -0.4176 1.2999 4.5482
v  -0.3921 0.0952 4.5588
v  -0.3921 1.2999 4.5588
v  -0.3667 0.0952 4.5482
v  -0.3667 1.2999 4.5482
v  -0.6561 0.0952 4.5228
v  -0.6667 0.0952 4.4973
v  -0.6667 1.2999 4.4973
v  -0.6561 1.2999 4.5228
v  -0.6921 0.0952 4.4867
v  -0.6921 1.2999 4.4867
v  -0.7176 0.0952 4.4973
v  -0.7176 1.2999 4.4973
v  -0.7282 0.0952 4.5228
v  -0.7282 1.2999 4.5228
v  -0.7176 0.0952 4.5482
v  -0.7176 1.2999 4.5482
v  -0.6921 0.0952 4.5588
v  -0.6921 1.2999 4.5588
v  -0.6667 0.0952 4.5482
v  -0.6667 1.2999 4.5482
v  -0.9561 0.0952 4.5228
v  -0.9667 0.0952 4.4973
v  -0.9667 1.2999 4.4973
v  -0.9561 1.2999 4.5228
v  -0.9921 0.0952 4.4867
v  -0.9921 1.2999 4.4867
v  -1.0176 0.0952 4.4973
v  -1.0176 1.2999 4.4973
v  -1.0282 0.0952 4.5228
v  -1.0282 1.2999 4.5228
v  -1.0176 0.0952 4.5482
v  -1.0176 1.2999 4.5482
v  -0.9921 0.0952 4.5588
v  -0.9921 1.2999 4.5588
v  -0.9667 0.0952 4.5482
v  -0.9667 1.2999 4.5482
v  -1.2561 0.0952 4.5228
v  -1.2667 0.0952 4.4973
v  -1.2667 2.8875 4.4973
v  -1.2561 2.8875 4.5228
v  -1.2921 0.0952 4.4867
v  -1.2921 2.8875 4.4867
v  -1.3176 0.0952 4.4973
v  -1.3176 2.8875 4.4973
v  -1.3282 0.0952 4.5228
v  -1.3282 2.8875 4.5228
v  -1.3176 0.0952 4.5482
v  -1.3176 2.8875 4.5482
v  -1.2921 0.0952 4.5588
v  -1.2921 2.8875 4.5588
v  -1.2667 0.0952 4.5482
v  -1.2667 2.8875 4.5482
v  -0.0595 0.0952 4.5228
v  -0.0701 0.0952 4.4973
v  -0.0701 2.8875 4.4973
v  -0.0595 2.8875 4.5228
v  -0.0955 0.0952 4.4867
v  -0.0955 2.8875 4.4867
v  -0.1210 0.0952 4.4973
v  -0.1210 2.8875 4.4973
v  -0.1316 0.0952 4.5228
v  -0.1316 2.8875 4.5228
v  -0.1210 0.0952 4.5482
v  -0.1210 2.8875 4.5482
v  -0.0955 0.0952 4.5588
v  -0.0955 2.8875 4.5588
v  -0.0701 0.0952 4.5482
v  -0.0701 2.8875 4.5482
v  -1.4833 2.8681 4.4791
v  -0.6925 2.8681 4.4791
v  -0.6925 2.8681 4.5639
v  -1.4833 2.8681 4.5639
v  -1.4833 2.9533 4.4634
v  -0.6925 2.9533 4.4634
v  -0.6925 2.8798 4.4634
v  -1.4833 2.8798 4.4634
v  -1.4833 2.9650 4.5639
v  -0.6925 2.9650 4.5639
v  -0.6925 2.9650 4.4791
v  -1.4833 2.9650 4.4791
v  -1.4833 2.8798 4.5795
v  -0.6925 2.8798 4.5795
v  -0.6925 2.9533 4.5795
v  -1.4833 2.9533 4.5795
v  -1.4915 2.8770 4.5562
v  -1.4915 2.8770 4.4868
v  -1.4915 2.8865 4.4740
v  -1.4915 2.9466 4.4740
v  -1.4915 2.9562 4.4868
v  -1.4915 2.9562 4.5562
v  -1.4915 2.9466 4.5690
v  -1.4915 2.8865 4.5690
v  -1.4915 2.8869 4.5565
v  -1.4915 2.8869 4.4865
v  -1.4915 2.9462 4.4865
v  -1.4915 2.9462 4.5565
v  0.0983 2.8681 4.4791
v  0.0983 2.8681 4.5639
v  0.0983 2.9533 4.4634
v  0.0983 2.8798 4.4634
v  0.0983 2.9650 4.5639
v  0.0983 2.9650 4.4791
v  0.0983 2.8798 4.5795
v  0.0983 2.9533 4.5795
v  0.1064 2.8770 4.4868
v  0.1064 2.8770 4.5562
v  0.1064 2.9466 4.4740
v  0.1064 2.8865 4.4740
v  0.1064 2.9562 4.5562
v  0.1064 2.9562 4.4868
v  0.1064 2.8865 4.5690
v  0.1064 2.9466 4.5690
v  0.1064 2.8869 4.4865
v  0.1064 2.8869 4.5565
v  0.1064 2.9462 4.4865
v  0.1064 2.9462 4.5565
v  -1.4833 0.0877 4.4791
v  -0.6925 0.0877 4.4791
v  -0.6925 0.0877 4.5639
v  -1.4833 0.0877 4.5639
v  -1.4833 0.1729 4.4634
v  -0.6925 0.1729 4.4634
v  -0.6925 0.0994 4.4634
v  -1.4833 0.0994 4.4634
v  -1.4833 0.1845 4.5639
v  -0.6925 0.1845 4.5639
v  -0.6925 0.1845 4.4791
v  -1.4833 0.1845 4.4791
v  -1.4833 0.0994 4.5795
v  -0.6925 0.0994 4.5795
v  -0.6925 0.1729 4.5795
v  -1.4833 0.1729 4.5795
v  -1.4915 0.0965 4.5562
v  -1.4915 0.0965 4.4868
v  -1.4915 0.1061 4.4740
v  -1.4915 0.1662 4.4740
v  -1.4915 0.1757 4.4868
v  -1.4915 0.1757 4.5562
v  -1.4915 0.1662 4.5690
v  -1.4915 0.1061 4.5690
v  -1.4915 0.1065 4.5565
v  -1.4915 0.1065 4.4865
v  -1.4915 0.1658 4.4865
v  -1.4915 0.1658 4.5565
v  0.0983 0.0877 4.4791
v  0.0983 0.0877 4.5639
v  0.0983 0.1729 4.4634
v  0.0983 0.0994 4.4634
v  0.0983 0.1845 4.5639
v  0.0983 0.1845 4.4791
v  0.0983 0.0994 4.5795
v  0.0983 0.1729 4.5795
v  0.1064 0.0965 4.4868
v  0.1064 0.0965 4.5562
v  0.1064 0.1662 4.4740
v  0.1064 0.1061 4.4740
v  0.1064 0.1757 4.5562
v  0.1064 0.1757 4.4868
v  0.1064 0.1061 4.5690
v  0.1064 0.1662 4.5690
v  0.1064 0.1065 4.4865
v  0.1064 0.1065 4.5565
v  0.1064 0.1658 4.4865
v  0.1064 0.1658 4.5565
v  0.0937 2.9276 4.5544
v  0.0937 0.1508 4.5544
v  0.0937 0.1508 4.4911
v  0.0937 2.9276 4.4911
v  -1.4164 0.1508 4.4911
v  -1.4164 2.9276 4.4911
v  -1.4164 2.9276 4.5544
v  -1.4164 0.1508 4.5544
v  -1.4895 0.1508 4.4911
v  -1.4895 2.9276 4.4911
v  0.0206 0.1508 4.5544
v  0.0206 2.9276 4.5544
v  0.0206 2.9276 4.4911
v  0.0206 0.1508 4.4911
v  -1.4895 2.9276 4.5544
v  -1.4895 0.1508 4.5544
v  -0.3667 1.5937 4.4973
v  -0.3667 2.8875 4.4973
v  -0.3561 2.8875 4.5228
v  -0.3561 1.5937 4.5228
v  -0.3921 1.5937 4.4867
v  -0.3921 2.8875 4.4867
v  -0.4176 1.5937 4.4973
v  -0.4176 2.8875 4.4973
v  -0.4282 1.5937 4.5228
v  -0.4282 2.8875 4.5228
v  -0.4176 1.5937 4.5482
v  -0.4176 2.8875 4.5482
v  -0.3921 1.5937 4.5588
v  -0.3921 2.8875 4.5588
v  -0.3667 1.5937 4.5482
v  -0.3667 2.8875 4.5482
v  -0.6667 1.5937 4.4973
v  -0.6667 2.8875 4.4973
v  -0.6561 2.8875 4.5228
v  -0.6561 1.5937 4.5228
v  -0.6921 1.5937 4.4867
v  -0.6921 2.8875 4.4867
v  -0.7176 1.5937 4.4973
v  -0.7176 2.8875 4.4973
v  -0.7282 1.5937 4.5228
v  -0.7282 2.8875 4.5228
v  -0.7176 1.5937 4.5482
v  -0.7176 2.8875 4.5482
v  -0.6921 1.5937 4.5588
v  -0.6921 2.8875 4.5588
v  -0.6667 1.5937 4.5482
v  -0.6667 2.8875 4.5482
v  -0.9667 1.5937 4.4973
v  -0.9667 2.8875 4.4973
v  -0.9561 2.8875 4.5228
v  -0.9561 1.5937 4.5228
v  -0.9921 1.5937 4.4867
v  -0.9921 2.8875 4.4867
v  -1.0176 1.5937 4.4973
v  -1.0176 2.8875 4.4973
v  -1.0282 1.5937 4.5228
v  -1.0282 2.8875 4.5228
v  -1.0176 1.5937 4.5482
v  -1.0176 2.8875 4.5482
v  -0.9921 1.5937 4.5588
v  -0.9921 2.8875 4.5588
v  -0.9667 1.5937 4.5482
v  -0.9667 2.8875 4.5482
v  0.0611 1.5295 4.4791
v  -1.4536 1.5295 4.4791
v  -1.4536 1.5412 4.4634
v  0.0611 1.5412 4.4634
v  0.0611 1.5942 4.4634
v  -1.4536 1.5942 4.4634
v  -1.4536 1.6058 4.4791
v  0.0611 1.6058 4.4791
v  0.0611 1.6058 4.5639
v  -1.4536 1.6058 4.5639
v  -1.4536 1.5942 4.5795
v  0.0611 1.5942 4.5795
v  0.0611 1.5412 4.5795
v  -1.4536 1.5412 4.5795
v  -1.4536 1.5295 4.5639
v  0.0611 1.5295 4.5639
v  0.0585 1.2542 4.4791
v  -1.4549 1.2542 4.4791
v  -1.4549 1.2659 4.4634
v  0.0585 1.2659 4.4634
v  0.0585 1.3188 4.4634
v  -1.4549 1.3188 4.4634
v  -1.4549 1.3305 4.4791
v  0.0585 1.3305 4.4791
v  0.0585 1.3305 4.5639
v  -1.4549 1.3305 4.5639
v  -1.4549 1.3188 4.5795
v  0.0585 1.3188 4.5795
v  0.0585 1.2659 4.5795
v  -1.4549 1.2659 4.5795
v  -1.4549 1.2542 4.5639
v  0.0585 1.2542 4.5639
v  0.0763 1.5481 4.4910
v  0.0763 1.5481 4.5520
v  0.0763 1.5873 4.4910
v  0.0763 1.5873 4.5520
v  0.0736 1.2728 4.4910
v  0.0736 1.2728 4.5520
v  0.0736 1.3120 4.4910
v  0.0736 1.3120 4.5520
v  -1.4688 1.5481 4.4910
v  -1.4688 1.5873 4.4910
v  -1.4688 1.5873 4.5520
v  -1.4688 1.5481 4.5520
v  -1.4701 1.2728 4.5520
v  -1.4701 1.2728 4.4910
v  -1.4701 1.3120 4.4910
v  -1.4701 1.3120 4.5520
v  0.0611 1.5973 4.4791
v  -0.4290 1.5973 4.4791
v  -0.4290 1.6090 4.4634
v  0.0611 1.6090 4.4634
v  0.0611 1.8367 4.4634
v  -0.4290 1.8367 4.4634
v  -0.4290 1.8484 4.4791
v  0.0611 1.8484 4.4791
v  0.0611 1.8484 4.5639
v  -0.4290 1.8484 4.5639
v  -0.4290 1.8367 4.5795
v  0.0611 1.8367 4.5795
v  0.0611 1.6090 4.5795
v  -0.4290 1.6090 4.5795
v  -0.4290 1.5973 4.5639
v  0.0611 1.5973 4.5639
v  0.0763 1.6159 4.4910
v  0.0763 1.6159 4.5520
v  0.0763 1.8299 4.4910
v  0.0763 1.8299 4.5520
v  -0.4442 1.6159 4.4910
v  -0.4442 1.8299 4.4910
v  -0.4442 1.8299 4.5520
v  -0.4442 1.6159 4.5520
v  -0.0447 1.7712 4.5986
v  -0.0254 1.7247 4.5986
v  -0.0254 1.7247 4.5210
v  -0.0447 1.7712 4.5210
v  -0.0912 1.7905 4.5986
v  -0.0912 1.7905 4.5210
v  -0.1378 1.7712 4.5986
v  -0.1378 1.7712 4.5210
v  -0.1571 1.7247 4.5986
v  -0.1571 1.7247 4.5210
v  -0.1378 1.6781 4.5986
v  -0.1378 1.6781 4.5210
v  -0.0912 1.6588 4.5986
v  -0.0912 1.6588 4.5210
v  -0.0447 1.6781 4.5986
v  -0.0447 1.6781 4.5210
v  -0.0574 1.7247 4.5931
v  -0.0673 1.7486 4.5931
v  -0.0912 1.7247 4.5931
v  -0.0912 1.7585 4.5931
v  -0.1151 1.7486 4.5931
v  -0.1251 1.7247 4.5931
v  -0.1151 1.7007 4.5931
v  -0.0912 1.6908 4.5931
v  -0.0673 1.7007 4.5931
v  -0.0640 1.7519 4.6007
v  -0.0527 1.7247 4.6007
v  -0.0912 1.7632 4.6007
v  -0.1185 1.7519 4.6007
v  -0.1298 1.7247 4.6007
v  -0.1185 1.6974 4.6007
v  -0.0912 1.6861 4.6007
v  -0.0640 1.6974 4.6007
v  -0.0447 1.7712 4.4435
v  -0.0254 1.7247 4.4435
v  -0.0912 1.7905 4.4435
v  -0.1378 1.7712 4.4435
v  -0.1571 1.7247 4.4435
v  -0.1378 1.6781 4.4435
v  -0.0912 1.6588 4.4435
v  -0.0447 1.6781 4.4435
v  -0.0574 1.7247 4.4489
v  -0.0912 1.7247 4.4489
v  -0.0673 1.7486 4.4489
v  -0.0912 1.7585 4.4489
v  -0.1151 1.7486 4.4489
v  -0.1251 1.7247 4.4489
v  -0.1151 1.7007 4.4489
v  -0.0912 1.6908 4.4489
v  -0.0673 1.7007 4.4489
v  -0.0527 1.7247 4.4413
v  -0.0640 1.7519 4.4413
v  -0.0912 1.7632 4.4413
v  -0.1185 1.7519 4.4413
v  -0.1298 1.7247 4.4413
v  -0.1185 1.6974 4.4413
v  -0.0912 1.6861 4.4413
v  -0.0640 1.6974 4.4413
# 1048 vertices

vn 0.0000 -0.7071 -0.7071
vn -0.5774 -0.5774 -0.5773
vn -0.7071 0.0000 -0.7071
vn 0.0000 0.0000 -1.0000
vn -0.0000 -0.7071 0.7071
vn 0.3015 0.3015 0.9045
vn -0.7071 0.0000 0.7071
vn -0.5774 -0.5774 0.5774
vn 0.0000 -1.0000 -0.0000
vn -0.7071 -0.7071 0.0000
vn -1.0000 0.0000 0.0000
vn -0.5774 0.5774 -0.5773
vn -0.7071 0.7071 0.0000
vn -0.0000 1.0000 0.0000
vn 0.0000 0.7071 -0.7071
vn 0.7071 0.0000 -0.7071
vn 0.5773 -0.5773 -0.5774
vn 0.5774 -0.5774 0.5774
vn 0.7071 0.0000 0.7071
vn -0.3015 0.3015 0.9045
vn 0.7071 -0.7071 -0.0000
vn 1.0000 0.0000 -0.0000
vn 0.5774 0.5774 -0.5773
vn 0.0000 1.0000 0.0000
vn 0.7071 0.7071 0.0000
vn 0.3015 -0.3015 0.9045
vn -1.0000 0.0000 -0.0000
vn -0.3015 -0.3015 0.9045
vn -0.7071 0.7071 -0.0000
vn 0.7071 0.7071 -0.0000
vn -0.7071 -0.7071 -0.0000
vn -0.5774 0.5773 0.5773
vn -0.5774 -0.5773 0.5773
vn 0.5773 -0.5774 0.5774
vn 0.5773 0.5774 0.5774
vn -0.5774 0.5774 0.5774
vn -0.0000 0.7071 0.7071
vn 0.5773 0.5773 0.5774
vn 0.0000 -0.9489 -0.3155
vn 0.0000 -0.9489 0.3155
vn 0.0000 -0.4480 -0.8941
vn -0.0000 0.4479 -0.8941
vn -0.0000 0.4480 -0.8941
vn 0.0000 -0.4479 -0.8941
vn -0.0000 0.9489 -0.3155
vn -0.0000 0.9489 0.3155
vn -0.0000 0.4479 0.8941
vn 0.0000 -0.4480 0.8941
vn 0.0000 -0.4479 0.8941
vn -0.0000 0.4480 0.8941
vn -0.0000 0.0000 -1.0000
vn -0.0000 0.0000 1.0000
vn 0.0000 0.0000 1.0000
vn -1.0000 0.0000 -0.0001
vn 0.3844 -0.8771 -0.2880
vn 0.3844 -0.8771 0.2880
vn 0.0000 0.4479 -0.8941
vn 0.3763 0.4168 -0.8275
vn 0.3763 -0.4168 -0.8275
vn 0.3844 0.8771 0.2880
vn 0.3844 0.8771 -0.2880
vn 0.3763 -0.4168 0.8275
vn 0.3762 0.4168 0.8275
vn -0.4783 -0.8343 -0.2743
vn -0.4649 -0.3981 -0.7909
vn -0.4648 0.3981 -0.7909
vn -0.4782 0.8343 -0.2743
vn 0.0000 0.9489 -0.3155
vn 0.0000 0.9489 0.3155
vn -0.4783 0.8343 0.2743
vn -0.4648 0.3981 0.7909
vn 0.0000 0.4479 0.8941
vn -0.4648 -0.3981 0.7909
vn -0.4782 -0.8343 0.2743
vn -0.0000 -0.9489 0.3155
vn -0.9575 -0.1946 0.2130
vn -0.9575 -0.1946 -0.2130
vn -0.9575 0.1946 -0.2130
vn -0.9575 0.1946 0.2130
vn 0.9045 -0.2908 -0.3119
vn 0.9045 -0.2908 0.3119
vn 0.9045 0.2908 -0.3119
vn 0.9045 0.2908 0.3119
vn 0.4648 -0.8388 -0.2836
vn 0.4648 -0.8388 0.2836
vn 0.4889 0.3803 -0.7851
vn 0.4889 -0.3802 -0.7851
vn 0.4648 0.8388 0.2836
vn 0.4648 0.8388 -0.2836
vn 0.4889 -0.3802 0.7851
vn 0.4889 0.3803 0.7851
vn -0.4279 -0.8561 -0.2897
vn -0.4598 -0.3858 -0.7998
vn -0.4598 0.3858 -0.7998
vn -0.4279 0.8561 -0.2898
vn -0.4279 0.8561 0.2898
vn -0.4598 0.3858 0.7998
vn -0.4598 -0.3858 0.7998
vn -0.4279 -0.8561 0.2897
vn 0.4643 -0.8390 -0.2837
vn 0.4643 -0.8390 0.2837
vn 0.4885 0.3803 -0.7853
vn 0.4885 -0.3803 -0.7853
vn 0.4643 0.8390 0.2837
vn 0.4643 0.8390 -0.2837
vn 0.4885 -0.3803 0.7853
vn 0.4885 0.3803 0.7853
vn -0.4271 -0.8565 -0.2899
vn -0.4592 -0.3859 -0.8001
vn -0.4591 0.3860 -0.8001
vn -0.4270 0.8565 -0.2899
vn -0.4270 0.8565 0.2899
vn -0.4591 0.3860 0.8001
vn -0.4592 -0.3859 0.8001
vn -0.4271 -0.8565 0.2899
vn -0.9411 -0.2776 0.1929
vn -0.9411 -0.2776 -0.1929
vn -0.9411 0.2776 -0.1929
vn -0.9411 0.2776 0.1929
vn -0.9415 -0.2768 -0.1921
vn -0.9415 0.2768 -0.1921
vn -0.9415 0.2768 0.1921
vn -0.9415 -0.2768 0.1921
vn 0.9583 -0.2367 -0.1599
vn 0.9583 -0.2367 0.1599
vn 0.9583 0.2367 -0.1599
vn 0.9583 0.2367 0.1599
vn 0.9585 -0.2362 -0.1594
vn 0.9585 -0.2362 0.1594
vn 0.9585 0.2362 -0.1594
vn 0.9585 0.2362 0.1594
vn 0.9295 -0.3689 0.0000
vn 0.6572 -0.3689 -0.6572
vn 1.0000 0.0000 0.0000
vn 0.0000 -0.3689 -0.9295
vn -0.6572 -0.3689 -0.6572
vn -0.9295 -0.3689 0.0000
vn -0.6573 -0.3689 0.6572
vn 0.0000 -0.3689 0.9295
vn 0.6573 -0.3689 0.6572
vn 0.6572 0.3689 -0.6573
vn 0.9295 0.3689 0.0000
vn 0.0000 0.3689 -0.9295
vn -0.6572 0.3689 -0.6572
vn -0.9295 0.3689 0.0000
vn -0.6573 0.3689 0.6572
vn -0.0000 0.3689 0.9295
vn 0.6573 0.3689 0.6572
vn 0.6572 0.3688 -0.6573
vn 0.9295 0.3688 0.0000
vn 0.0000 0.3688 -0.9295
vn -0.9295 0.3688 0.0000
vn 0.0000 0.3689 0.9295
vn 0.6572 0.3689 -0.6572
vn 0.9295 -0.3688 0.0000
vn 0.3095 -0.8991 -0.3095
vn 0.4377 -0.8991 -0.0000
vn -0.0000 -0.8991 -0.4377
vn -0.3095 -0.8991 -0.3095
vn -0.4377 -0.8991 -0.0000
vn -0.3095 -0.8991 0.3095
vn -0.0000 -0.8991 0.4377
vn 0.3095 -0.8991 0.3095
vn 0.4377 0.8991 -0.0000
vn 0.3095 0.8991 -0.3095
vn -0.0000 1.0000 -0.0000
vn -0.0000 0.8991 -0.4377
vn -0.3095 0.8991 -0.3095
vn -0.4377 0.8991 -0.0000
vn -0.3095 0.8991 0.3095
vn -0.0000 0.8991 0.4377
vn 0.3095 0.8991 0.3095
vn -0.0000 -1.0000 0.0000
vn -0.4377 -0.8991 0.0000
vn -0.4377 0.8991 0.0000
vn 0.0000 1.0000 -0.0000
vn 0.4377 -0.8991 0.0000
vn -0.4180 -0.8568 -0.3020
vn -0.4180 -0.8568 0.3020
vn -0.4269 0.4094 -0.8063
vn 0.0000 0.4480 -0.8941
vn -0.4269 -0.4095 -0.8063
vn -0.4180 0.8568 0.3020
vn -0.4180 0.8568 -0.3020
vn -0.4269 -0.4095 0.8063
vn 0.0000 0.4480 0.8941
vn -0.4269 0.4094 0.8063
vn -0.9236 -0.3727 0.0897
vn -0.9236 -0.3727 -0.0897
vn -0.9330 -0.1492 -0.3275
vn -0.9330 0.1492 -0.3275
vn -0.9236 0.3727 -0.0897
vn -0.9236 0.3727 0.0897
vn -0.9330 0.1492 0.3275
vn -0.9330 -0.1492 0.3275
vn 0.4180 -0.8568 -0.3020
vn 0.4180 -0.8568 0.3020
vn 0.4269 0.4094 -0.8063
vn 0.4269 -0.4095 -0.8063
vn 0.4180 0.8568 0.3020
vn 0.4180 0.8568 -0.3020
vn 0.4269 -0.4095 0.8063
vn 0.4269 0.4094 0.8063
vn 0.9236 -0.3727 -0.0897
vn 0.9236 -0.3727 0.0897
vn 0.9330 0.1492 -0.3275
vn 0.9330 -0.1492 -0.3275
vn 0.9236 0.3727 0.0897
vn 0.9236 0.3727 -0.0897
vn 0.9330 -0.1492 0.3275
vn 0.9330 0.1492 0.3275
vn -0.4269 -0.4094 -0.8063
vn -0.4269 -0.4094 0.8063
vn -0.9236 -0.3726 0.0897
vn -0.9236 -0.3726 -0.0897
vn 0.4269 -0.4094 -0.8063
vn 0.4269 -0.4094 0.8063
vn 0.9236 -0.3726 -0.0897
vn 0.9236 -0.3726 0.0897
vn 0.4257 -0.8554 -0.2950
vn -0.4262 -0.8552 -0.2949
vn -0.4558 -0.3897 -0.8002
vn 0.4555 -0.3897 -0.8004
vn 0.4555 0.3897 -0.8004
vn -0.4559 0.3896 -0.8002
vn -0.4262 0.8552 -0.2949
vn 0.4257 0.8554 -0.2950
vn 0.4257 0.8554 0.2950
vn -0.4262 0.8552 0.2949
vn -0.4559 0.3896 0.8002
vn 0.4555 0.3897 0.8004
vn 0.4555 -0.3897 0.8004
vn -0.4559 -0.3896 0.8002
vn -0.4262 -0.8552 0.2949
vn 0.4257 -0.8554 0.2950
vn 0.4263 -0.8551 -0.2949
vn -0.4259 -0.8553 -0.2950
vn -0.4556 -0.3897 -0.8003
vn 0.4560 -0.3896 -0.8002
vn 0.4560 0.3896 -0.8002
vn -0.4557 0.3897 -0.8003
vn -0.4259 0.8553 -0.2950
vn 0.4264 0.8551 -0.2949
vn 0.4264 0.8551 0.2949
vn -0.4259 0.8553 0.2950
vn -0.4557 0.3897 0.8003
vn 0.4560 0.3896 0.8002
vn 0.4560 -0.3896 0.8002
vn -0.4556 -0.3897 0.8003
vn -0.4259 -0.8553 0.2950
vn 0.4263 -0.8551 0.2949
vn 0.9388 -0.2842 -0.1944
vn 0.9388 -0.2842 0.1944
vn 0.9388 0.2842 -0.1944
vn 0.9388 0.2842 0.1944
vn 0.9392 -0.2835 -0.1938
vn 0.9392 -0.2835 0.1938
vn 0.9392 0.2835 -0.1938
vn 0.9392 0.2835 0.1938
vn -0.9391 -0.2837 -0.1940
vn -0.9391 0.2837 -0.1940
vn -0.9391 0.2837 0.1940
vn -0.9391 -0.2837 0.1940
vn -0.9389 -0.2840 0.1943
vn -0.9389 -0.2840 -0.1943
vn -0.9389 0.2840 -0.1943
vn -0.9389 0.2840 0.1943
vn -0.4559 -0.3897 -0.8002
vn 0.5625 0.5625 0.6059
vn 0.7955 0.0000 0.6059
vn 0.0000 0.7955 0.6059
vn -0.5625 0.5625 0.6059
vn -0.7955 0.0000 0.6059
vn -0.5625 -0.5625 0.6059
vn 0.0000 -0.7955 0.6059
vn 0.5625 -0.5625 0.6059
vn -0.5664 0.0000 0.8241
vn -0.4004 -0.4004 0.8242
vn -0.0000 -0.5663 0.8242
vn 0.4004 -0.4004 0.8242
vn 0.5664 0.0000 0.8241
vn 0.4004 0.4004 0.8242
vn 0.0000 0.5663 0.8242
vn -0.4004 0.4004 0.8242
vn -0.2373 -0.2373 0.9420
vn -0.3357 -0.0000 0.9420
vn -0.0000 -0.3356 0.9420
vn 0.2373 -0.2373 0.9420
vn 0.3357 0.0000 0.9420
vn 0.2373 0.2373 0.9420
vn 0.0000 0.3356 0.9420
vn -0.2373 0.2373 0.9420
vn 0.5625 0.5625 -0.6059
vn 0.7955 0.0000 -0.6059
vn 0.0000 0.7955 -0.6059
vn -0.5625 0.5625 -0.6059
vn -0.7955 0.0000 -0.6059
vn -0.5625 -0.5625 -0.6059
vn 0.0000 -0.7955 -0.6059
vn 0.5625 -0.5625 -0.6059
vn -0.5664 0.0000 -0.8241
vn -0.4004 -0.4004 -0.8242
vn -0.0000 -0.5663 -0.8242
vn 0.4004 -0.4004 -0.8242
vn 0.5664 0.0000 -0.8241
vn 0.4004 0.4004 -0.8242
vn 0.0000 0.5663 -0.8242
vn -0.4004 0.4004 -0.8242
vn -0.3357 -0.0000 -0.9420
vn -0.2373 -0.2373 -0.9420
vn -0.0000 -0.3356 -0.9420
vn 0.2373 -0.2373 -0.9420
vn 0.3357 0.0000 -0.9420
vn 0.2373 0.2373 -0.9420
vn 0.0000 0.3356 -0.9420
vn -0.2373 0.2373 -0.9420
# 316 vertex normals

vt 1.0000 0.0000 0.0000
vt 0.0000 0.0000 0.0000
vt 0.0000 0.5000 0.0000
vt 1.0000 0.5000 0.0000
vt 0.5000 0.5000 0.0000
vt 0.5000 0.0000 0.0000
vt 0.0000 0.7500 0.0000
vt 1.0000 0.7500 0.0000
vt 0.5000 1.0000 0.0000
vt 0.7500 1.0000 0.0000
vt 0.7500 0.7500 0.0000
vt 0.5000 0.7500 0.0000
vt 0.7500 0.0000 0.0000
vt 0.7500 0.5000 0.0000
vt 0.2500 0.7500 0.0000
vt 0.2500 0.5000 0.0000
vt 1.0000 1.0000 0.0000
vt 0.0000 1.0000 0.0000
vt 0.2500 1.0000 0.0000
vt 0.8414 0.0000 1.0000
vt 0.8414 1.0000 1.0000
vt 0.6586 1.0000 1.0000
vt 0.6586 0.0000 1.0000
vt -0.1045 0.0000 1.0000
vt 0.1045 0.0000 1.0000
vt 0.1045 1.0000 1.0000
vt -0.1045 1.0000 1.0000
vt 0.1586 0.0000 1.0000
vt 0.3414 0.0000 1.0000
vt 0.3414 1.0000 1.0000
vt 0.1586 1.0000 1.0000
vt 0.3955 0.0000 1.0000
vt 0.6045 0.0000 1.0000
vt 0.6045 1.0000 1.0000
vt 0.3955 1.0000 1.0000
vt 0.8750 0.0000 1.0000
vt 0.8750 1.0000 1.0000
vt 0.7500 0.0000 1.0000
vt 0.7500 1.0000 1.0000
vt -0.1250 0.0000 1.0000
vt 0.0000 0.0000 1.0000
vt 0.0000 1.0000 1.0000
vt -0.1250 1.0000 1.0000
vt 0.1250 0.0000 1.0000
vt 0.1250 1.0000 1.0000
vt 0.2500 0.0000 1.0000
vt 0.2500 1.0000 1.0000
vt 0.3750 0.0000 1.0000
vt 0.3750 1.0000 1.0000
vt 0.5000 0.0000 1.0000
vt 0.5000 1.0000 1.0000
vt 0.6250 0.0000 1.0000
vt 0.6250 1.0000 1.0000
vt 0.8750 0.5265 1.0000
vt 0.7500 0.5265 1.0000
vt 0.0000 0.5265 1.0000
vt -0.1250 0.5265 1.0000
vt 0.1250 0.5265 1.0000
vt 0.2500 0.5265 1.0000
vt 0.3750 0.5265 1.0000
vt 0.5000 0.5265 1.0000
vt 0.6250 0.5265 1.0000
vt 0.4714 0.0000 1.0000
vt 0.4714 1.0000 1.0000
vt -0.0286 0.0000 1.0000
vt -0.0286 1.0000 1.0000
vt 0.0286 0.0000 1.0000
vt 0.0286 1.0000 1.0000
vt 0.5286 0.0000 1.0000
vt 0.5286 1.0000 1.0000
vt 0.8414 0.2527 1.0000
vt 0.6586 0.2527 1.0000
vt 0.1045 0.2527 1.0000
vt -0.1045 0.2527 1.0000
vt 0.3414 0.2527 1.0000
vt 0.1586 0.2527 1.0000
vt 0.6045 0.2527 1.0000
vt 0.3955 0.2527 1.0000
vt 0.8414 0.5226 1.0000
vt 0.8750 0.5226 1.0000
vt 0.1045 0.5226 1.0000
vt 0.1586 0.5226 1.0000
vt 0.3414 0.5226 1.0000
vt 0.3955 0.5226 1.0000
vt 0.6045 0.5226 1.0000
vt 0.6586 0.5226 1.0000
vt -0.1045 0.5226 1.0000
vt 0.8750 0.2527 1.0000
vt 0.6316 0.5226 1.0000
vt 0.8582 0.5226 1.0000
vt 0.1316 0.5226 1.0000
vt 0.3684 0.5226 1.0000
vt 0.8582 0.2527 1.0000
vt 0.6316 0.2527 1.0000
vt 0.1316 0.2527 1.0000
vt 0.3684 0.2527 1.0000
vt 0.8414 0.2482 1.0000
vt 0.6586 0.2482 1.0000
vt 0.1045 0.2482 1.0000
vt -0.1045 0.2482 1.0000
vt 0.3414 0.2482 1.0000
vt 0.1586 0.2482 1.0000
vt 0.6045 0.2482 1.0000
vt 0.3955 0.2482 1.0000
vt 0.8414 0.5275 1.0000
vt 0.8750 0.5275 1.0000
vt 0.1045 0.5275 1.0000
vt 0.1586 0.5275 1.0000
vt 0.3414 0.5275 1.0000
vt 0.3955 0.5275 1.0000
vt 0.6045 0.5275 1.0000
vt 0.6586 0.5275 1.0000
vt 0.8414 0.2478 1.0000
vt 0.6586 0.2478 1.0000
vt 0.1045 0.2478 1.0000
vt -0.1045 0.2478 1.0000
vt 0.3414 0.2478 1.0000
vt 0.1586 0.2478 1.0000
vt 0.6045 0.2478 1.0000
vt 0.3955 0.2478 1.0000
vt 0.8414 0.5282 1.0000
vt 0.8750 0.5282 1.0000
vt 0.1045 0.5282 1.0000
vt 0.1586 0.5282 1.0000
vt 0.3414 0.5282 1.0000
vt 0.3955 0.5282 1.0000
vt 0.6045 0.5282 1.0000
vt 0.6586 0.5282 1.0000
vt -0.1045 0.5282 1.0000
vt -0.1045 0.5275 1.0000
vt 0.8750 0.2478 1.0000
vt 0.8750 0.2482 1.0000
vt 0.6316 0.5282 1.0000
vt 0.8582 0.5282 1.0000
vt 0.1316 0.5282 1.0000
vt 0.3684 0.5282 1.0000
vt 0.8582 0.5275 1.0000
vt 0.1316 0.5275 1.0000
vt 0.3684 0.5275 1.0000
vt 0.6316 0.5275 1.0000
vt 0.8582 0.2478 1.0000
vt 0.6316 0.2478 1.0000
vt 0.1316 0.2478 1.0000
vt 0.3684 0.2478 1.0000
vt 0.8582 0.2482 1.0000
vt 0.6316 0.2482 1.0000
vt 0.1316 0.2482 1.0000
vt 0.3684 0.2482 1.0000
vt 0.7500 0.0707 1.0000
vt 0.8750 0.0707 1.0000
vt 0.8750 0.1136 1.0000
vt 0.7500 0.1136 1.0000
vt -0.1250 0.0707 1.0000
vt 0.0000 0.0707 1.0000
vt 0.0000 0.1136 1.0000
vt -0.1250 0.1136 1.0000
vt 0.1250 0.0707 1.0000
vt 0.1250 0.1136 1.0000
vt 0.2500 0.0707 1.0000
vt 0.2500 0.1136 1.0000
vt 0.3750 0.0707 1.0000
vt 0.3750 0.1136 1.0000
vt 0.5000 0.0707 1.0000
vt 0.5000 0.1136 1.0000
vt 0.6250 0.0707 1.0000
vt 0.6250 0.1136 1.0000
vt 0.8750 0.3987 1.0000
vt 0.7500 0.3987 1.0000
vt 0.7500 0.3558 1.0000
vt 0.8750 0.3558 1.0000
vt 0.0000 0.3987 1.0000
vt -0.1250 0.3987 1.0000
vt -0.1250 0.3558 1.0000
vt 0.0000 0.3558 1.0000
vt 0.1250 0.3987 1.0000
vt 0.1250 0.3558 1.0000
vt 0.2500 0.3987 1.0000
vt 0.2500 0.3558 1.0000
vt 0.3750 0.3987 1.0000
vt 0.3750 0.3558 1.0000
vt 0.5000 0.3987 1.0000
vt 0.5000 0.3558 1.0000
vt 0.6250 0.3987 1.0000
vt 0.6250 0.3558 1.0000
vt 0.7500 0.5552 1.0000
vt 0.8750 0.5552 1.0000
vt 0.8750 0.5981 1.0000
vt 0.7500 0.5981 1.0000
vt -0.1250 0.5552 1.0000
vt 0.0000 0.5552 1.0000
vt 0.0000 0.5981 1.0000
vt -0.1250 0.5981 1.0000
vt 0.1250 0.5552 1.0000
vt 0.1250 0.5981 1.0000
vt 0.2500 0.5552 1.0000
vt 0.2500 0.5981 1.0000
vt 0.3750 0.5552 1.0000
vt 0.3750 0.5981 1.0000
vt 0.5000 0.5552 1.0000
vt 0.5000 0.5981 1.0000
vt 0.6250 0.5552 1.0000
vt 0.6250 0.5981 1.0000
vt 0.8750 0.1565 1.0000
vt 0.7500 0.1565 1.0000
vt 0.0000 0.1565 1.0000
vt -0.1250 0.1565 1.0000
vt 0.1250 0.1565 1.0000
vt 0.2500 0.1565 1.0000
vt 0.3750 0.1565 1.0000
vt 0.5000 0.1565 1.0000
vt 0.6250 0.1565 1.0000
vt 0.8750 0.6410 1.0000
vt 0.7500 0.6410 1.0000
vt 0.0000 0.6410 1.0000
vt -0.1250 0.6410 1.0000
vt 0.1250 0.6410 1.0000
vt 0.2500 0.6410 1.0000
vt 0.3750 0.6410 1.0000
vt 0.5000 0.6410 1.0000
vt 0.6250 0.6410 1.0000
vt 0.7500 0.3130 1.0000
vt 0.8750 0.3130 1.0000
vt -0.1250 0.3130 1.0000
vt 0.0000 0.3130 1.0000
vt 0.1250 0.3130 1.0000
vt 0.2500 0.3130 1.0000
vt 0.3750 0.3130 1.0000
vt 0.5000 0.3130 1.0000
vt 0.6250 0.3130 1.0000
vt 0.7610 0.0687 1.0000
vt 0.6645 0.0687 1.0000
vt 0.3750 0.0687 1.0000
vt 0.0855 0.0687 1.0000
vt -0.0110 0.0687 1.0000
vt 0.1820 0.0687 1.0000
vt 0.2785 0.0687 1.0000
vt 0.4715 0.0687 1.0000
vt 0.5680 0.0687 1.0000
vt 0.6645 0.4007 1.0000
vt 0.7610 0.4007 1.0000
vt 0.3750 0.4007 1.0000
vt -0.0110 0.4007 1.0000
vt 0.0855 0.4007 1.0000
vt 0.1820 0.4007 1.0000
vt 0.2785 0.4007 1.0000
vt 0.4715 0.4007 1.0000
vt 0.5680 0.4007 1.0000
vt 0.7610 0.5532 1.0000
vt 0.6645 0.5532 1.0000
vt 0.3750 0.5532 1.0000
vt 0.0855 0.5532 1.0000
vt -0.0110 0.5532 1.0000
vt 0.1820 0.5532 1.0000
vt 0.2785 0.5532 1.0000
vt 0.4715 0.5532 1.0000
vt 0.5680 0.5532 1.0000
vt 0.6645 0.1585 1.0000
vt 0.7610 0.1585 1.0000
vt 0.3750 0.1585 1.0000
vt -0.0110 0.1585 1.0000
vt 0.0855 0.1585 1.0000
vt 0.1820 0.1585 1.0000
vt 0.2785 0.1585 1.0000
vt 0.4715 0.1585 1.0000
vt 0.5680 0.1585 1.0000
vt 0.6645 0.6430 1.0000
vt 0.7610 0.6430 1.0000
vt 0.3750 0.6430 1.0000
vt -0.0110 0.6430 1.0000
vt 0.0855 0.6430 1.0000
vt 0.1820 0.6430 1.0000
vt 0.2785 0.6430 1.0000
vt 0.4715 0.6430 1.0000
vt 0.5680 0.6430 1.0000
vt 0.7610 0.3110 1.0000
vt 0.6645 0.3110 1.0000
vt 0.3750 0.3110 1.0000
vt 0.0855 0.3110 1.0000
vt -0.0110 0.3110 1.0000
vt 0.1820 0.3110 1.0000
vt 0.2785 0.3110 1.0000
vt 0.4715 0.3110 1.0000
vt 0.5680 0.3110 1.0000
vt 0.8750 0.1220 1.0000
vt 0.7500 0.1220 1.0000
vt 0.0000 0.1220 1.0000
vt -0.1250 0.1220 1.0000
vt 0.1250 0.1220 1.0000
vt 0.2500 0.1220 1.0000
vt 0.3750 0.1220 1.0000
vt 0.5000 0.1220 1.0000
vt 0.6250 0.1220 1.0000
vt 0.8750 0.4878 1.0000
vt 0.7500 0.4878 1.0000
vt 0.0000 0.4878 1.0000
vt -0.1250 0.4878 1.0000
vt 0.1250 0.4878 1.0000
vt 0.2500 0.4878 1.0000
vt 0.3750 0.4878 1.0000
vt 0.5000 0.4878 1.0000
vt 0.6250 0.4878 1.0000
vt 0.8414 0.2658 1.0000
vt 0.8414 0.3914 1.0000
vt 0.6586 0.3914 1.0000
vt 0.6586 0.2658 1.0000
vt 0.1045 0.2658 1.0000
vt 0.1045 0.3914 1.0000
vt -0.1045 0.3914 1.0000
vt -0.1045 0.2658 1.0000
vt 0.3414 0.2658 1.0000
vt 0.3414 0.3914 1.0000
vt 0.1586 0.3914 1.0000
vt 0.1586 0.2658 1.0000
vt 0.6045 0.2658 1.0000
vt 0.6045 0.3914 1.0000
vt 0.3955 0.3914 1.0000
vt 0.3955 0.2658 1.0000
vt 0.8750 0.2658 1.0000
vt 0.6316 0.2658 1.0000
vt 0.8582 0.2658 1.0000
vt 0.1316 0.2658 1.0000
vt 0.3684 0.2658 1.0000
vt 0.8750 0.3914 1.0000
vt 0.4714 0.5000 1.0000
vt 0.4714 0.2500 1.0000
vt 0.0286 0.2500 1.0000
vt 0.0286 0.5000 1.0000
vt 0.8750 0.2500 1.0000
vt 0.8750 0.5000 1.0000
vt 0.6250 0.5000 1.0000
vt 0.6250 0.2500 1.0000
vt -0.0286 0.2500 1.0000
vt -0.0286 0.5000 1.0000
vt -0.1250 0.5000 1.0000
vt -0.1250 0.2500 1.0000
vt 0.3750 0.2500 1.0000
vt 0.3750 0.5000 1.0000
vt 0.1250 0.5000 1.0000
vt 0.1250 0.2500 1.0000
vt 0.5286 0.5000 1.0000
vt 0.5286 0.2500 1.0000
vt 0.8750 0.2439 1.0000
vt 0.7500 0.2439 1.0000
vt 0.0000 0.2439 1.0000
vt -0.1250 0.2439 1.0000
vt 0.1250 0.2439 1.0000
vt 0.2500 0.2439 1.0000
vt 0.3750 0.2439 1.0000
vt 0.5000 0.2439 1.0000
vt 0.6250 0.2439 1.0000
vt 0.8414 0.5110 1.0000
vt 0.8414 0.2706 1.0000
vt 0.8750 0.2706 1.0000
vt 0.8750 0.5110 1.0000
vt 0.1045 0.5110 1.0000
vt 0.1045 0.2706 1.0000
vt 0.1586 0.2706 1.0000
vt 0.1586 0.5110 1.0000
vt 0.3414 0.5110 1.0000
vt 0.3414 0.2706 1.0000
vt 0.3955 0.2706 1.0000
vt 0.3955 0.5110 1.0000
vt 0.6045 0.5110 1.0000
vt 0.6045 0.2706 1.0000
vt 0.6586 0.2706 1.0000
vt 0.6586 0.5110 1.0000
vt 0.8414 0.5106 1.0000
vt 0.8414 0.2704 1.0000
vt 0.8750 0.2704 1.0000
vt 0.8750 0.5106 1.0000
vt 0.1045 0.5106 1.0000
vt 0.1045 0.2704 1.0000
vt 0.1586 0.2704 1.0000
vt 0.1586 0.5106 1.0000
vt 0.3414 0.5106 1.0000
vt 0.3414 0.2704 1.0000
vt 0.3955 0.2704 1.0000
vt 0.3955 0.5106 1.0000
vt 0.6045 0.5106 1.0000
vt 0.6045 0.2704 1.0000
vt 0.6586 0.2704 1.0000
vt 0.6586 0.5106 1.0000
vt -0.1045 0.5110 1.0000
vt -0.1045 0.2706 1.0000
vt -0.1045 0.5106 1.0000
vt -0.1045 0.2704 1.0000
vt 0.8582 0.5110 1.0000
vt 0.6316 0.5110 1.0000
vt 0.1316 0.5110 1.0000
vt 0.3684 0.5110 1.0000
vt 0.8582 0.5106 1.0000
vt 0.6316 0.5106 1.0000
vt 0.1316 0.5106 1.0000
vt 0.3684 0.5106 1.0000
vt 0.8582 0.2706 1.0000
vt 0.1316 0.2706 1.0000
vt 0.3684 0.2706 1.0000
vt 0.6316 0.2706 1.0000
vt 0.6316 0.2704 1.0000
vt 0.8582 0.2704 1.0000
vt 0.1316 0.2704 1.0000
vt 0.3684 0.2704 1.0000
# 402 texture coords

o Jail
g Jail
usemtl Material__65
s 2
f 1/1/1 2/2/2 3/3/3 4/4/4 
s 4
f 5/2/5 6/3/6 7/4/7 8/1/8 
s 8
f 1/2/1 9/3/9 10/4/10 2/1/2 
s 16
f 2/2/2 10/3/10 11/5/11 3/6/3 
s 32
f 12/2/12 13/3/13 14/4/14 15/1/15 
s 2
f 16/1/1 17/4/4 18/3/16 19/2/17 
s 4
f 20/2/5 21/1/18 22/4/19 23/3/20 
s 8
f 16/2/1 19/1/17 24/4/21 25/3/9 
s 16
f 19/2/17 18/6/16 26/5/22 24/3/21 
s 32
f 27/2/23 28/1/15 29/4/24 30/3/25 
s 2
f 3/3/3 31/7/3 32/8/4 4/4/4 
s 4
f 6/3/6 33/7/26 34/8/7 7/4/7 
s 16
f 7/9/7 34/10/7 35/11/27 36/12/27 
s 2
f 17/4/4 37/8/4 38/7/16 18/3/16 
s 4
f 22/4/19 39/8/19 40/7/28 23/3/20 
s 16
f 18/6/16 38/13/16 41/14/22 26/5/22 
f 16/2/1 25/3/9 9/3/9 1/2/1 
s 1
f 20/2/5 23/3/20 6/3/6 5/2/5 
s 16
f 23/9/20 42/12/29 43/12/30 6/9/6 
s 8
f 9/3/9 44/7/9 45/8/31 10/4/10 
s 16
f 10/3/10 45/7/31 36/12/27 11/5/11 
s 32
f 13/3/13 46/7/13 47/8/14 14/4/14 
s 8
f 24/4/21 48/8/21 49/7/9 25/3/9 
s 16
f 26/5/22 50/12/22 48/7/21 24/3/21 
s 32
f 29/4/24 51/8/14 52/7/25 30/3/25 
s 64
f 53/5/32 42/12/29 54/15/31 55/16/33 
s 16
f 13/4/13 12/1/12 31/13/3 56/14/11 
f 30/4/25 52/8/25 57/11/22 41/14/22 
f 25/3/9 49/7/9 44/7/9 9/3/9 
s 4
f 28/17/15 37/8/4 32/8/4 15/17/15 
f 53/5/32 55/16/33 58/16/34 59/5/35 
s off
f 16/1/1 1/1/1 4/4/4 17/4/4 
s 16
f 46/8/13 13/4/13 56/14/11 35/11/27 
f 42/12/29 53/5/32 59/5/35 43/12/30 
s 8
f 44/7/9 5/18/5 8/17/8 45/8/31 
s 16
f 45/7/31 8/18/8 7/9/7 36/12/27 
s 32
f 46/7/13 60/18/36 61/17/37 47/8/14 
s 8
f 48/8/21 21/17/18 20/18/5 49/7/9 
s 16
f 50/12/22 22/9/19 21/18/18 48/7/21 
s 32
f 51/8/14 62/17/37 63/18/38 52/7/25 
s 64
f 42/12/29 23/9/20 40/19/28 54/15/31 
s 16
f 52/8/25 63/17/38 39/10/19 57/11/22 
f 49/7/9 20/18/5 5/18/5 44/7/9 
s 2
f 31/7/3 12/18/12 15/17/15 32/8/4 
s 4
f 33/7/26 61/18/37 60/17/36 34/8/7 
s 16
f 34/10/7 60/17/36 46/8/13 35/11/27 
s 2
f 37/8/4 28/17/15 27/18/23 38/7/16 
s 4
f 39/8/19 63/17/38 62/18/37 40/7/28 
s 16
f 38/13/16 27/1/23 30/4/25 41/14/22 
s 64
f 64/15/21 43/12/30 59/5/35 58/16/34 
s 16
f 31/13/3 3/6/3 11/5/11 56/14/11 
f 57/11/22 50/12/22 26/5/22 41/14/22 
s 4
f 37/8/4 17/4/4 4/4/4 32/8/4 
s 16
f 56/14/11 11/5/11 36/12/27 35/11/27 
s 64
f 33/19/26 6/9/6 43/12/30 64/15/21 
s 16
f 39/10/19 22/9/19 50/12/22 57/11/22 
s 2
f 55/16/33 54/15/31 64/15/21 58/16/34 
s off
f 14/4/14 47/8/14 51/7/14 29/4/24 
f 28/1/15 15/17/15 14/4/14 29/4/24 
f 62/18/37 51/8/14 47/8/14 61/17/37 
f 61/17/37 33/7/26 40/7/28 62/18/37 
f 54/15/31 40/7/28 33/7/26 64/15/21 
s 1
f 65/20/39 66/21/39 67/22/40 68/23/40 
f 69/24/41 70/25/42 71/26/43 72/27/44 
f 73/28/45 74/29/46 75/30/46 76/31/45 
f 77/32/47 78/33/48 79/34/49 80/35/50 
s 2
f 66/21/39 65/20/39 69/36/41 72/37/44 
f 71/26/43 70/25/42 73/28/45 76/31/45 
f 75/30/46 74/29/46 77/32/47 80/35/50 
f 79/34/49 78/33/48 68/23/40 67/22/40 
s 8
f 81/38/22 82/36/16 83/37/16 84/39/22 
f 82/40/16 85/41/51 86/42/51 83/43/16 
f 85/41/51 87/44/3 88/45/3 86/42/51 
f 87/44/3 89/46/27 90/47/27 88/45/3 
f 89/46/27 91/48/7 92/49/7 90/47/27 
f 91/48/7 93/50/52 94/51/52 92/49/7 
f 93/50/52 95/52/19 96/53/19 94/51/52 
f 95/52/19 81/38/22 84/39/22 96/53/19 
f 97/38/22 98/36/16 99/37/16 100/39/22 
f 98/40/16 101/41/4 102/42/4 99/43/16 
f 101/41/4 103/44/3 104/45/3 102/42/4 
f 103/44/3 105/46/27 106/47/27 104/45/3 
f 105/46/27 107/48/7 108/49/7 106/47/27 
f 107/48/7 109/50/53 110/51/53 108/49/7 
f 109/50/53 111/52/19 112/53/19 110/51/53 
f 111/52/19 97/38/22 100/39/22 112/53/19 
f 113/38/22 114/36/16 115/37/16 116/39/22 
f 114/40/16 117/41/4 118/42/4 115/43/16 
f 117/41/4 119/44/3 120/45/3 118/42/4 
f 119/44/3 121/46/54 122/47/54 120/45/3 
f 121/46/54 123/48/7 124/49/7 122/47/54 
f 123/48/7 125/50/53 126/51/53 124/49/7 
f 125/50/53 127/52/19 128/53/19 126/51/53 
f 127/52/19 113/38/22 116/39/22 128/53/19 
f 129/38/22 130/36/16 131/37/16 132/39/22 
f 130/40/16 133/41/4 134/42/4 131/43/16 
f 133/41/4 135/44/3 136/45/3 134/42/4 
f 135/44/3 137/46/27 138/47/27 136/45/3 
f 137/46/27 139/48/7 140/49/7 138/47/27 
f 139/48/7 141/50/53 142/51/53 140/49/7 
f 141/50/53 143/52/19 144/53/19 142/51/53 
f 143/52/19 129/38/22 132/39/22 144/53/19 
f 145/38/22 146/36/16 147/37/16 148/39/22 
f 146/40/16 149/41/4 150/42/4 147/43/16 
f 149/41/4 151/44/3 152/45/3 150/42/4 
f 151/44/3 153/46/54 154/47/54 152/45/3 
f 153/46/54 155/48/7 156/49/7 154/47/54 
f 155/48/7 157/50/53 158/51/53 156/49/7 
f 157/50/53 159/52/19 160/53/19 158/51/53 
f 159/52/19 145/38/22 148/39/22 160/53/19 
f 161/38/22 162/36/16 163/37/16 164/39/22 
f 162/40/16 165/41/4 166/42/4 163/43/16 
f 165/41/4 167/44/3 168/45/3 166/42/4 
f 167/44/3 169/46/27 170/47/27 168/45/3 
f 169/46/27 171/48/7 172/49/7 170/47/27 
f 171/48/7 173/50/53 174/51/53 172/49/7 
f 173/50/53 175/52/19 176/53/19 174/51/53 
f 175/52/19 161/38/22 164/39/22 176/53/19 
f 177/38/22 178/36/16 179/37/16 180/39/22 
f 178/40/16 181/41/4 182/42/4 179/43/16 
f 181/41/4 183/44/3 184/45/3 182/42/4 
f 183/44/3 185/46/27 186/47/27 184/45/3 
f 185/46/27 187/48/7 188/49/7 186/47/27 
f 187/48/7 189/50/53 190/51/53 188/49/7 
f 189/50/53 191/52/19 192/53/19 190/51/53 
f 191/52/19 177/38/22 180/39/22 192/53/19 
f 193/38/22 194/36/16 195/37/16 196/39/22 
f 194/40/16 197/41/51 198/42/51 195/43/16 
f 197/41/51 199/44/3 200/45/3 198/42/51 
f 199/44/3 201/46/27 202/47/27 200/45/3 
f 201/46/27 203/48/7 204/49/7 202/47/27 
f 203/48/7 205/50/52 206/51/52 204/49/7 
f 205/50/52 207/52/19 208/53/19 206/51/52 
f 207/52/19 193/38/22 196/39/22 208/53/19 
f 209/38/22 210/36/16 211/37/16 212/39/22 
f 210/40/16 213/41/4 214/42/4 211/43/16 
f 213/41/4 215/44/3 216/45/3 214/42/4 
f 215/44/3 217/46/27 218/47/27 216/45/3 
f 217/46/27 219/48/7 220/49/7 218/47/27 
f 219/48/7 221/50/53 222/51/53 220/49/7 
f 221/50/53 223/52/19 224/53/19 222/51/53 
f 223/52/19 209/38/22 212/39/22 224/53/19 
f 225/38/22 226/36/16 227/37/16 228/39/22 
f 226/40/16 229/41/4 230/42/4 227/43/16 
f 229/41/4 231/44/3 232/45/3 230/42/4 
f 231/44/3 233/46/27 234/47/27 232/45/3 
f 233/46/27 235/48/7 236/49/7 234/47/27 
f 235/48/7 237/50/53 238/51/53 236/49/7 
f 237/50/53 239/52/19 240/53/19 238/51/53 
f 239/52/19 225/38/22 228/39/22 240/53/19 
f 241/38/22 242/36/16 243/37/16 244/39/22 
f 242/40/16 245/41/4 246/42/4 243/43/16 
f 245/41/4 247/44/3 248/45/3 246/42/4 
f 247/44/3 249/46/27 250/47/27 248/45/3 
f 249/46/27 251/48/7 252/49/7 250/47/27 
f 251/48/7 253/50/53 254/51/53 252/49/7 
f 253/50/53 255/52/19 256/53/19 254/51/53 
f 255/52/19 241/38/22 244/39/22 256/53/19 
f 257/38/22 258/36/16 259/37/16 260/39/22 
f 258/40/16 261/41/51 262/42/51 259/43/16 
f 261/41/51 263/44/3 264/45/3 262/42/51 
f 263/44/3 265/46/27 266/47/27 264/45/3 
f 265/46/27 267/48/7 268/49/7 266/47/27 
f 267/48/7 269/50/52 270/51/52 268/49/7 
f 269/50/52 271/52/19 272/53/19 270/51/52 
f 271/52/19 257/38/22 260/39/22 272/53/19 
f 273/38/22 274/36/16 275/37/16 276/39/22 
f 274/40/16 277/41/4 278/42/4 275/43/16 
f 277/41/4 279/44/3 280/45/3 278/42/4 
f 279/44/3 281/46/27 282/47/27 280/45/3 
f 281/46/27 283/48/7 284/49/7 282/47/27 
f 283/48/7 285/50/53 286/51/53 284/49/7 
f 285/50/53 287/52/19 288/53/19 286/51/53 
f 287/52/19 273/38/22 276/39/22 288/53/19 
f 289/38/22 290/36/16 291/37/16 292/39/22 
f 290/40/16 293/41/51 294/42/51 291/43/16 
f 293/41/51 295/44/3 296/45/3 294/42/51 
f 295/44/3 297/46/27 298/47/27 296/45/3 
f 297/46/27 299/48/7 300/49/7 298/47/27 
f 299/48/7 301/50/52 302/51/52 300/49/7 
f 301/50/52 303/52/19 304/53/19 302/51/52 
f 303/52/19 289/38/22 292/39/22 304/53/19 
f 305/38/22 306/36/16 307/37/16 308/39/22 
f 306/40/16 309/41/4 310/42/4 307/43/16 
f 309/41/4 311/44/3 312/45/3 310/42/4 
f 311/44/3 313/46/27 314/47/27 312/45/3 
f 313/46/27 315/48/7 316/49/7 314/47/27 
f 315/48/7 317/50/53 318/51/53 316/49/7 
f 317/50/53 319/52/19 320/53/19 318/51/53 
f 319/52/19 305/38/22 308/39/22 320/53/19 
s 1
f 321/54/16 322/37/16 323/39/22 324/55/22 
s 2
f 325/56/4 326/42/4 322/43/16 321/57/16 
s 1
f 327/58/3 328/45/3 326/42/4 325/56/4 
s 2
f 329/59/27 330/47/27 328/45/3 327/58/3 
s 1
f 331/60/7 332/49/7 330/47/27 329/59/27 
s 2
f 333/61/53 334/51/53 332/49/7 331/60/7 
s 1
f 335/62/19 336/53/19 334/51/53 333/61/53 
s 2
f 324/55/22 323/39/22 336/53/19 335/62/19 
s 1
f 337/54/16 338/37/16 339/39/22 340/55/22 
s 2
f 341/56/51 342/42/51 338/43/16 337/57/16 
s 1
f 343/58/3 344/45/3 342/42/51 341/56/51 
s 2
f 345/59/27 346/47/27 344/45/3 343/58/3 
s 1
f 347/60/7 348/49/7 346/47/27 345/59/27 
s 2
f 349/61/52 350/51/52 348/49/7 347/60/7 
s 1
f 351/62/19 352/53/19 350/51/52 349/61/52 
s 2
f 340/55/22 339/39/22 352/53/19 351/62/19 
s 1
f 353/54/16 354/37/16 355/39/22 356/55/22 
s 2
f 357/56/4 358/42/4 354/43/16 353/57/16 
s 1
f 359/58/3 360/45/3 358/42/4 357/56/4 
s 2
f 361/59/27 362/47/27 360/45/3 359/58/3 
s 1
f 363/60/7 364/49/7 362/47/27 361/59/27 
s 2
f 365/61/53 366/51/53 364/49/7 363/60/7 
s 1
f 367/62/19 368/53/19 366/51/53 365/61/53 
s 2
f 356/55/22 355/39/22 368/53/19 367/62/19 
s 1
f 369/54/16 370/37/16 371/39/22 372/55/22 
s 2
f 373/56/51 374/42/51 370/43/16 369/57/16 
s 1
f 375/58/3 376/45/3 374/42/51 373/56/51 
s 2
f 377/59/27 378/47/27 376/45/3 375/58/3 
s 1
f 379/60/7 380/49/7 378/47/27 377/59/27 
s 2
f 381/61/52 382/51/52 380/49/7 379/60/7 
s 1
f 383/62/19 384/53/19 382/51/52 381/61/52 
s 2
f 372/55/22 371/39/22 384/53/19 383/62/19 
s 1
f 385/54/16 386/37/16 387/39/22 388/55/22 
s 2
f 389/56/4 390/42/4 386/43/16 385/57/16 
s 1
f 391/58/3 392/45/3 390/42/4 389/56/4 
s 2
f 393/59/27 394/47/27 392/45/3 391/58/3 
s 1
f 395/60/7 396/49/7 394/47/27 393/59/27 
s 2
f 397/61/53 398/51/53 396/49/7 395/60/7 
s 1
f 399/62/19 400/53/19 398/51/53 397/61/53 
s 2
f 388/55/22 387/39/22 400/53/19 399/62/19 
s 1
f 401/44/3 402/48/7 403/49/7 404/45/3 
s 2
f 402/48/7 405/63/19 406/64/19 403/49/7 
s 1
f 407/36/16 408/37/16 409/53/19 410/52/19 
s 2
f 407/40/16 411/65/3 412/66/3 408/43/16 
f 413/67/16 401/44/3 404/45/3 414/68/16 
f 415/69/7 410/52/19 409/53/19 416/70/7 
s off
f 415/69/7 416/70/7 412/66/3 411/65/3 
f 413/67/16 414/68/16 406/64/19 405/63/19 
s 1
f 417/20/39 418/71/55 419/72/56 420/23/40 
f 421/24/44 422/25/57 423/73/58 424/74/59 
f 425/28/45 426/29/46 427/75/60 428/76/61 
f 429/32/47 430/33/49 431/77/62 432/78/63 
s 2
f 433/21/39 434/79/64 435/80/65 436/37/44 
f 437/26/57 438/81/66 439/82/67 440/31/68 
f 441/30/69 442/83/70 443/84/71 444/35/72 
f 445/34/49 446/85/73 447/86/74 448/22/75 
s 1
f 434/79/64 433/21/39 448/22/75 447/86/74 
f 438/81/66 437/26/57 436/27/44 435/87/65 
f 442/83/70 441/30/69 440/31/68 439/82/67 
f 446/85/73 445/34/49 444/35/72 443/84/71 
s 2
f 418/71/55 417/20/39 421/36/44 424/88/59 
f 423/73/58 422/25/57 425/28/45 428/76/61 
f 427/75/60 426/29/46 429/32/47 432/78/63 
f 431/77/62 430/33/49 420/23/40 419/72/56 
s off
f 434/79/64 447/86/74 449/89/76 450/90/77 
f 438/81/66 435/87/65 450/87/77 451/91/78 
f 442/83/70 439/82/67 451/91/78 452/92/79 
f 446/85/73 443/84/71 452/92/79 449/89/76 
f 435/80/65 434/79/64 450/90/77 
f 439/82/67 438/81/66 451/91/78 
f 443/84/71 442/83/70 452/92/79 
f 447/86/74 446/85/73 449/89/76 
f 419/72/56 418/71/55 453/93/80 454/94/81 
f 424/74/59 423/73/58 455/95/82 453/74/80 
f 428/76/61 427/75/60 456/96/83 455/95/82 
f 432/78/63 431/77/62 454/94/81 456/96/83 
f 418/71/55 424/88/59 453/93/80 
f 423/73/58 428/76/61 455/95/82 
f 427/75/60 432/78/63 456/96/83 
f 431/77/62 419/72/56 454/94/81 
s 4
f 449/89/76 452/92/79 451/91/78 450/87/77 
s 16
f 453/93/80 455/95/82 456/96/83 454/94/81 
s 1
f 457/20/39 458/21/39 459/22/40 460/23/40 
f 461/24/44 462/25/42 463/26/43 464/27/44 
f 465/28/45 466/29/46 467/30/46 468/31/45 
f 469/32/47 470/33/49 471/34/49 472/35/50 
s 2
f 458/21/39 457/20/39 461/36/44 464/37/44 
f 463/26/43 462/25/42 465/28/45 468/31/45 
f 467/30/46 466/29/46 469/32/47 472/35/50 
f 471/34/49 470/33/49 460/23/40 459/22/40 
s 1
f 473/20/39 474/97/84 475/98/85 476/23/40 
f 477/24/44 478/25/42 479/99/86 480/100/87 
f 481/28/45 482/29/46 483/101/88 484/102/89 
f 485/32/47 486/33/49 487/103/90 488/104/91 
s 2
f 489/21/39 490/105/92 491/106/93 492/37/44 
f 493/26/57 494/107/94 495/108/95 496/31/68 
f 497/30/69 498/109/96 499/110/97 500/35/72 
f 501/34/49 502/111/98 503/112/99 504/22/40 
s 1
f 505/20/39 506/113/100 507/114/101 508/23/40 
f 509/24/41 510/25/57 511/115/102 512/116/103 
f 513/28/68 514/29/69 515/117/104 516/118/105 
f 517/32/72 518/33/48 519/119/106 520/120/107 
s 2
f 521/21/39 522/121/108 523/122/109 524/37/44 
f 525/26/57 526/123/110 527/124/111 528/31/68 
f 529/30/69 530/125/112 531/126/113 532/35/72 
f 533/34/49 534/127/114 535/128/115 536/22/40 
s 1
f 522/121/108 521/21/39 536/22/40 535/128/115 
f 526/123/110 525/26/57 524/27/44 523/129/109 
f 530/125/112 529/30/69 528/31/68 527/124/111 
f 534/127/114 533/34/49 532/35/72 531/126/113 
f 490/105/92 489/21/39 504/22/40 503/112/99 
f 494/107/94 493/26/57 492/27/44 491/130/93 
f 498/109/96 497/30/69 496/31/68 495/108/95 
f 502/111/98 501/34/49 500/35/72 499/110/97 
s 2
f 506/113/100 505/20/39 509/36/41 512/131/103 
f 511/115/102 510/25/57 513/28/68 516/118/105 
f 515/117/104 514/29/69 517/32/72 520/120/107 
f 519/119/106 518/33/48 508/23/40 507/114/101 
f 474/97/84 473/20/39 477/36/44 480/132/87 
f 479/99/86 478/25/42 481/28/45 484/102/89 
f 483/101/88 482/29/46 485/32/47 488/104/91 
f 487/103/90 486/33/49 476/23/40 475/98/85 
s off
f 522/121/108 535/128/115 537/133/116 538/134/117 
f 526/123/110 523/129/109 538/129/117 539/135/118 
f 530/125/112 527/124/111 539/135/118 540/136/119 
f 534/127/114 531/126/113 540/136/119 537/133/116 
f 523/122/109 522/121/108 538/134/117 
f 527/124/111 526/123/110 539/135/118 
f 531/126/113 530/125/112 540/136/119 
f 535/128/115 534/127/114 537/133/116 
f 491/106/93 490/105/92 541/137/120 
f 495/108/95 494/107/94 542/138/121 
f 499/110/97 498/109/96 543/139/122 
f 503/112/99 502/111/98 544/140/123 
f 490/105/92 503/112/99 544/140/123 541/137/120 
f 494/107/94 491/130/93 541/130/120 542/138/121 
f 498/109/96 495/108/95 542/138/121 543/139/122 
f 502/111/98 499/110/97 543/139/122 544/140/123 
f 507/114/101 506/113/100 545/141/124 546/142/125 
f 512/116/103 511/115/102 547/143/126 545/116/124 
f 516/118/105 515/117/104 548/144/127 547/143/126 
f 520/120/107 519/119/106 546/142/125 548/144/127 
f 506/113/100 512/131/103 545/141/124 
f 511/115/102 516/118/105 547/143/126 
f 515/117/104 520/120/107 548/144/127 
f 519/119/106 507/114/101 546/142/125 
f 475/98/85 474/97/84 549/145/128 550/146/129 
f 480/100/87 479/99/86 551/147/130 549/100/128 
f 484/102/89 483/101/88 552/148/131 551/147/130 
f 488/104/91 487/103/90 550/146/129 552/148/131 
f 474/97/84 480/132/87 549/145/128 
f 479/99/86 484/102/89 551/147/130 
f 483/101/88 488/104/91 552/148/131 
f 487/103/90 475/98/85 550/146/129 
s 32
f 537/133/116 540/136/119 539/135/118 538/129/117 
f 544/140/123 543/139/122 542/138/121 541/130/120 
f 545/141/124 547/143/126 548/144/127 546/142/125 
f 549/145/128 551/147/130 552/148/131 550/146/129 
s 1
f 553/149/132 554/150/133 555/151/16 556/152/134 
s 2
f 554/153/133 557/154/135 558/155/4 555/156/16 
s 1
f 557/154/135 559/157/136 560/158/3 558/155/4 
s 2
f 559/157/136 561/159/137 562/160/11 560/158/3 
s 1
f 561/159/137 563/161/138 564/162/7 562/160/11 
s 2
f 563/161/138 565/163/139 566/164/53 564/162/7 
s 1
f 565/163/139 567/165/140 568/166/19 566/164/53 
s 2
f 567/165/140 553/149/132 556/152/134 568/166/19 
s 1
f 569/167/141 570/168/142 571/169/134 572/170/16 
s 2
f 573/171/143 569/172/141 572/173/16 574/174/4 
s 1
f 575/175/144 573/171/143 574/174/4 576/176/3 
s 2
f 577/177/145 575/175/144 576/176/3 578/178/11 
s 1
f 579/179/146 577/177/145 578/178/11 580/180/7 
s 2
f 581/181/147 579/179/146 580/180/7 582/182/53 
s 1
f 583/183/148 581/181/147 582/182/53 584/184/19 
s 2
f 570/168/142 583/183/148 584/184/19 571/169/134 
s 1
f 585/185/132 586/186/133 587/187/16 588/188/134 
s 2
f 586/189/133 589/190/135 590/191/4 587/192/16 
s 1
f 589/190/135 591/193/136 592/194/3 590/191/4 
s 2
f 591/193/136 593/195/137 594/196/11 592/194/3 
s 1
f 593/195/137 595/197/138 596/198/7 594/196/11 
s 2
f 595/197/138 597/199/139 598/200/53 596/198/7 
s 1
f 597/199/139 599/201/140 600/202/19 598/200/53 
s 2
f 599/201/140 585/185/132 588/188/134 600/202/19 
s 1
f 601/203/149 602/204/150 556/152/134 555/151/16 
s 2
f 603/205/151 601/206/149 555/156/16 558/155/4 
s 1
f 604/207/144 603/205/151 558/155/4 560/158/3 
s 2
f 605/208/152 604/207/144 560/158/3 562/160/11 
s 1
f 606/209/146 605/208/152 562/160/11 564/162/7 
s 2
f 607/210/153 606/209/146 564/162/7 566/164/53 
s 1
f 608/211/148 607/210/153 566/164/53 568/166/19 
s 2
f 602/204/150 608/211/148 568/166/19 556/152/134 
s 1
f 609/212/154 610/213/142 588/188/134 587/187/16 
s 2
f 611/214/143 609/215/154 587/192/16 590/191/4 
s 1
f 612/216/144 611/214/143 590/191/4 592/194/3 
s 2
f 613/217/145 612/216/144 592/194/3 594/196/11 
s 1
f 614/218/146 613/217/145 594/196/11 596/198/7 
s 2
f 615/219/153 614/218/146 596/198/7 598/200/53 
s 1
f 616/220/148 615/219/153 598/200/53 600/202/19 
s 2
f 610/213/142 616/220/148 600/202/19 588/188/134 
s 1
f 617/221/155 618/222/133 572/170/16 571/169/134 
s 2
f 618/223/133 619/224/135 574/174/4 572/173/16 
s 1
f 619/224/135 620/225/136 576/176/3 574/174/4 
s 2
f 620/225/136 621/226/137 578/178/11 576/176/3 
s 1
f 621/226/137 622/227/138 580/180/7 578/178/11 
s 2
f 622/227/138 623/228/139 582/182/53 580/180/7 
s 1
f 623/228/139 624/229/140 584/184/19 582/182/53 
s 2
f 624/229/140 617/221/155 571/169/134 584/184/19 
s 1
f 625/230/156 626/231/157 627/232/9 
f 628/233/158 625/234/156 627/232/9 
f 629/235/159 628/233/158 627/232/9 
f 630/236/160 629/235/159 627/232/9 
f 631/232/161 630/236/160 627/232/9 
f 632/237/162 631/232/161 627/232/9 
f 633/238/163 632/237/162 627/232/9 
f 626/231/157 633/238/163 627/232/9 
f 634/239/164 635/240/165 636/241/166 
f 635/242/165 637/243/167 636/241/166 
f 637/243/167 638/244/168 636/241/166 
f 638/244/168 639/245/169 636/241/166 
f 639/245/169 640/241/170 636/241/166 
f 640/241/170 641/246/171 636/241/166 
f 641/246/171 642/247/172 636/241/166 
f 642/247/172 634/239/164 636/241/166 
f 643/248/156 644/249/157 645/250/173 
f 646/251/158 643/252/156 645/250/173 
f 647/253/159 646/251/158 645/250/173 
f 648/254/174 647/253/159 645/250/173 
f 649/250/161 648/254/174 645/250/173 
f 650/255/162 649/250/161 645/250/173 
f 651/256/163 650/255/162 645/250/173 
f 644/249/157 651/256/163 645/250/173 
f 652/257/164 653/258/165 654/259/166 
f 653/260/165 655/261/167 654/259/166 
f 655/261/167 656/262/168 654/259/166 
f 656/262/168 657/263/175 654/259/166 
f 657/263/175 658/259/170 654/259/166 
f 658/259/170 659/264/171 654/259/166 
f 659/264/171 660/265/172 654/259/166 
f 660/265/172 652/257/164 654/259/166 
f 661/266/164 662/267/165 663/268/176 
f 662/269/165 664/270/167 663/268/176 
f 664/270/167 665/271/168 663/268/176 
f 665/271/168 666/272/169 663/268/176 
f 666/272/169 667/268/170 663/268/176 
f 667/268/170 668/273/171 663/268/176 
f 668/273/171 669/274/172 663/268/176 
f 669/274/172 661/266/164 663/268/176 
f 670/275/156 671/276/177 672/277/9 
f 673/278/158 670/279/156 672/277/9 
f 674/280/159 673/278/158 672/277/9 
f 675/281/160 674/280/159 672/277/9 
f 676/277/161 675/281/160 672/277/9 
f 677/282/162 676/277/161 672/277/9 
f 678/283/163 677/282/162 672/277/9 
f 671/276/177 678/283/163 672/277/9 
f 679/38/22 680/36/16 681/284/16 682/285/22 
s 2
f 680/40/16 683/41/4 684/286/4 681/287/16 
s 1
f 683/41/4 685/44/3 686/288/3 684/286/4 
s 2
f 685/44/3 687/46/27 688/289/27 686/288/3 
s 1
f 687/46/27 689/48/7 690/290/7 688/289/27 
s 2
f 689/48/7 691/50/53 692/291/53 690/290/7 
s 1
f 691/50/53 693/52/19 694/292/19 692/291/53 
s 2
f 693/52/19 679/38/22 682/285/22 694/292/19 
s 1
f 695/38/22 696/36/16 697/284/16 698/285/22 
s 2
f 696/40/16 699/41/51 700/286/51 697/287/16 
s 1
f 699/41/51 701/44/3 702/288/3 700/286/51 
s 2
f 701/44/3 703/46/27 704/289/27 702/288/3 
s 1
f 703/46/27 705/48/7 706/290/7 704/289/27 
s 2
f 705/48/7 707/50/52 708/291/52 706/290/7 
s 1
f 707/50/52 709/52/19 710/292/19 708/291/52 
s 2
f 709/52/19 695/38/22 698/285/22 710/292/19 
s 1
f 711/38/22 712/36/16 713/284/16 714/285/22 
s 2
f 712/40/16 715/41/4 716/286/4 713/287/16 
s 1
f 715/41/4 717/44/3 718/288/3 716/286/4 
s 2
f 717/44/3 719/46/27 720/289/27 718/288/3 
s 1
f 719/46/27 721/48/7 722/290/7 720/289/27 
s 2
f 721/48/7 723/50/53 724/291/53 722/290/7 
s 1
f 723/50/53 725/52/19 726/292/19 724/291/53 
s 2
f 725/52/19 711/38/22 714/285/22 726/292/19 
s 1
f 727/38/22 728/36/16 729/293/16 730/294/22 
s 2
f 728/40/16 731/41/4 732/295/4 729/296/16 
s 1
f 731/41/4 733/44/3 734/297/3 732/295/4 
s 2
f 733/44/3 735/46/27 736/298/27 734/297/3 
s 1
f 735/46/27 737/48/7 738/299/7 736/298/27 
s 2
f 737/48/7 739/50/53 740/300/53 738/299/7 
s 1
f 739/50/53 741/52/19 742/301/19 740/300/53 
s 2
f 741/52/19 727/38/22 730/294/22 742/301/19 
s 1
f 743/38/22 744/36/16 745/293/16 746/294/22 
s 2
f 744/40/16 747/41/4 748/295/4 745/296/16 
s 1
f 747/41/4 749/44/3 750/297/3 748/295/4 
s 2
f 749/44/3 751/46/27 752/298/27 750/297/3 
s 1
f 751/46/27 753/48/7 754/299/7 752/298/27 
s 2
f 753/48/7 755/50/53 756/300/53 754/299/7 
s 1
f 755/50/53 757/52/19 758/301/19 756/300/53 
s 2
f 757/52/19 743/38/22 746/294/22 758/301/19 
s 1
f 759/302/178 760/303/39 761/304/40 762/305/179 
f 763/306/180 764/307/181 765/308/44 766/309/182 
f 767/310/183 768/311/69 769/312/68 770/313/184 
f 771/314/185 772/315/49 773/316/186 774/317/187 
s 2
f 759/302/178 762/305/179 775/305/188 776/302/189 
s 4
f 763/306/180 766/309/182 777/309/190 778/306/191 
s 2
f 767/310/183 770/313/184 779/313/192 780/310/193 
s 4
f 771/314/185 774/317/187 781/317/194 782/314/195 
s 2
f 766/318/182 759/302/178 776/302/189 777/318/190 
f 770/313/184 763/306/180 778/306/191 779/313/192 
f 774/317/187 767/310/183 780/310/193 781/317/194 
f 762/305/179 771/314/185 782/314/195 775/305/188 
s 1
f 776/302/189 775/305/188 783/319/27 784/320/27 
f 778/306/191 777/309/190 784/309/27 785/321/27 
f 780/310/193 779/313/192 785/321/27 786/322/27 
f 782/314/195 781/317/194 786/322/27 783/319/27 
f 777/318/190 776/302/189 784/320/27 
f 779/313/192 778/306/191 785/321/27 
f 781/317/194 780/310/193 786/322/27 
f 775/305/188 782/314/195 783/319/27 
f 783/319/27 786/322/27 785/321/27 784/309/27 
s 8
f 760/303/39 759/302/178 766/318/182 765/323/44 
f 764/307/181 763/306/180 770/313/184 769/312/68 
f 768/311/69 767/310/183 774/317/187 773/316/186 
f 772/315/49 771/314/185 762/305/179 761/304/40 
s 1
f 787/302/196 788/305/197 761/304/40 760/303/39 
f 789/306/198 790/309/199 765/308/44 764/307/181 
f 791/310/200 792/313/201 769/312/68 768/311/69 
f 793/314/202 794/317/203 773/316/186 772/315/49 
s 2
f 787/302/196 795/302/204 796/305/205 788/305/197 
s 4
f 789/306/198 797/306/206 798/309/207 790/309/199 
s 2
f 791/310/200 799/310/208 800/313/209 792/313/201 
s 4
f 793/314/202 801/314/210 802/317/211 794/317/203 
s 2
f 790/318/199 798/318/207 795/302/204 787/302/196 
f 792/313/201 800/313/209 797/306/206 789/306/198 
f 794/317/203 802/317/211 799/310/208 791/310/200 
f 788/305/197 796/305/205 801/314/210 793/314/202 
s 1
f 795/302/204 803/320/22 804/319/22 796/305/205 
f 797/306/206 805/321/22 803/309/22 798/309/207 
f 799/310/208 806/322/22 805/321/22 800/313/209 
f 801/314/210 804/319/22 806/322/22 802/317/211 
f 798/318/207 803/320/22 795/302/204 
f 800/313/209 805/321/22 797/306/206 
f 802/317/211 806/322/22 799/310/208 
f 796/305/205 804/319/22 801/314/210 
f 804/319/22 803/309/22 805/321/22 806/322/22 
s 8
f 760/303/39 765/323/44 790/318/199 787/302/196 
f 764/307/181 769/312/68 792/313/201 789/306/198 
f 768/311/69 773/316/186 794/317/203 791/310/200 
f 772/315/49 761/304/40 788/305/197 793/314/202 
s 1
f 807/302/178 808/303/39 809/304/40 810/305/179 
f 811/306/180 812/307/57 813/308/44 814/309/212 
f 815/310/183 816/311/69 817/312/68 818/313/184 
f 819/314/213 820/315/49 821/316/72 822/317/187 
s 2
f 807/302/178 810/305/179 823/305/214 824/302/215 
s 4
f 811/306/180 814/309/212 825/309/190 826/306/191 
s 2
f 815/310/183 818/313/184 827/313/192 828/310/193 
s 4
f 819/314/213 822/317/187 829/317/194 830/314/195 
s 2
f 814/318/212 807/302/178 824/302/215 825/318/190 
f 818/313/184 811/306/180 826/306/191 827/313/192 
f 822/317/187 815/310/183 828/310/193 829/317/194 
f 810/305/179 819/314/213 830/314/195 823/305/214 
s 1
f 824/302/215 823/305/214 831/319/27 832/320/27 
f 826/306/191 825/309/190 832/309/27 833/321/27 
f 828/310/193 827/313/192 833/321/27 834/322/27 
f 830/314/195 829/317/194 834/322/27 831/319/27 
f 825/318/190 824/302/215 832/320/27 
f 827/313/192 826/306/191 833/321/27 
f 829/317/194 828/310/193 834/322/27 
f 823/305/214 830/314/195 831/319/27 
f 831/319/27 834/322/27 833/321/27 832/309/27 
s 8
f 808/303/39 807/302/178 814/318/212 813/323/44 
f 812/307/57 811/306/180 818/313/184 817/312/68 
f 816/311/69 815/310/183 822/317/187 821/316/72 
f 820/315/49 819/314/213 810/305/179 809/304/40 
s 1
f 835/302/196 836/305/197 809/304/40 808/303/39 
f 837/306/198 838/309/216 813/308/44 812/307/57 
f 839/310/200 840/313/201 817/312/68 816/311/69 
f 841/314/217 842/317/203 821/316/72 820/315/49 
s 2
f 835/302/196 843/302/218 844/305/219 836/305/197 
s 4
f 837/306/198 845/306/206 846/309/207 838/309/216 
s 2
f 839/310/200 847/310/208 848/313/209 840/313/201 
s 4
f 841/314/217 849/314/210 850/317/211 842/317/203 
s 2
f 838/318/216 846/318/207 843/302/218 835/302/196 
f 840/313/201 848/313/209 845/306/206 837/306/198 
f 842/317/203 850/317/211 847/310/208 839/310/200 
f 836/305/197 844/305/219 849/314/210 841/314/217 
s 1
f 843/302/218 851/320/22 852/319/22 844/305/219 
f 845/306/206 853/321/22 851/309/22 846/309/207 
f 847/310/208 854/322/22 853/321/22 848/313/209 
f 849/314/210 852/319/22 854/322/22 850/317/211 
f 846/318/207 851/320/22 843/302/218 
f 848/313/209 853/321/22 845/306/206 
f 850/317/211 854/322/22 847/310/208 
f 844/305/219 852/319/22 849/314/210 
f 852/319/22 851/309/22 853/321/22 854/322/22 
s 8
f 808/303/39 813/323/44 838/318/216 835/302/196 
f 812/307/57 817/312/68 840/313/201 837/306/198 
f 816/311/69 821/316/72 842/317/203 839/310/200 
f 820/315/49 809/304/40 836/305/197 841/314/217 
s 1
f 855/324/19 856/325/19 857/326/16 858/327/16 
f 859/328/16 860/329/16 861/330/19 862/331/19 
s 2
f 863/332/3 864/333/3 860/334/16 859/335/16 
s 1
f 865/336/7 866/337/7 867/338/3 868/339/3 
s 2
f 856/325/19 855/324/19 866/337/7 865/336/7 
f 862/331/19 861/330/19 869/340/7 870/341/7 
f 868/339/3 867/338/3 858/327/16 857/326/16 
s 1
f 870/341/7 869/340/7 864/333/3 863/332/3 
f 871/342/16 872/293/16 873/294/22 874/343/22 
s 2
f 875/344/4 876/295/4 872/296/16 871/345/16 
s 1
f 877/346/3 878/297/3 876/295/4 875/344/4 
s 2
f 879/347/27 880/298/27 878/297/3 877/346/3 
s 1
f 881/348/7 882/299/7 880/298/27 879/347/27 
s 2
f 883/349/53 884/300/53 882/299/7 881/348/7 
s 1
f 885/350/19 886/301/19 884/300/53 883/349/53 
s 2
f 874/343/22 873/294/22 886/301/19 885/350/19 
s 1
f 887/342/16 888/293/16 889/294/22 890/343/22 
s 2
f 891/344/51 892/295/51 888/296/16 887/345/16 
s 1
f 893/346/3 894/297/3 892/295/51 891/344/51 
s 2
f 895/347/27 896/298/27 894/297/3 893/346/3 
s 1
f 897/348/7 898/299/7 896/298/27 895/347/27 
s 2
f 899/349/52 900/300/52 898/299/7 897/348/7 
s 1
f 901/350/19 902/301/19 900/300/52 899/349/52 
s 2
f 890/343/22 889/294/22 902/301/19 901/350/19 
s 1
f 903/342/16 904/293/16 905/294/22 906/343/22 
s 2
f 907/344/4 908/295/4 904/296/16 903/345/16 
s 1
f 909/346/3 910/297/3 908/295/4 907/344/4 
s 2
f 911/347/27 912/298/27 910/297/3 909/346/3 
s 1
f 913/348/7 914/299/7 912/298/27 911/347/27 
s 2
f 915/349/53 916/300/53 914/299/7 913/348/7 
s 1
f 917/350/19 918/301/19 916/300/53 915/349/53 
s 2
f 906/343/22 905/294/22 918/301/19 917/350/19 
s 1
f 919/351/220 920/352/221 921/353/222 922/354/223 
f 923/355/224 924/356/225 925/357/226 926/358/227 
f 927/359/228 928/360/229 929/361/230 930/362/231 
f 931/363/232 932/364/233 933/365/234 934/366/235 
f 935/367/236 936/368/237 937/369/238 938/370/239 
f 939/371/240 940/372/241 941/373/242 942/374/243 
f 943/375/244 944/376/245 945/377/246 946/378/247 
f 947/379/248 948/380/249 949/381/250 950/382/251 
s 2
f 920/352/221 919/351/220 934/366/235 933/365/234 
f 924/356/225 923/355/224 922/383/223 921/384/222 
f 928/360/229 927/359/228 926/358/227 925/357/226 
f 932/364/233 931/363/232 930/362/231 929/361/230 
f 936/368/237 935/367/236 950/382/251 949/381/250 
f 940/372/241 939/371/240 938/385/239 937/386/238 
f 944/376/245 943/375/244 942/374/243 941/373/242 
f 948/380/249 947/379/248 946/378/247 945/377/246 
s 4
f 934/366/235 919/351/220 951/387/252 952/388/253 
f 922/383/223 923/355/224 953/389/254 951/383/252 
f 926/358/227 927/359/228 954/390/255 953/389/254 
f 930/362/231 931/363/232 952/388/253 954/390/255 
f 919/351/220 922/354/223 951/387/252 
f 923/355/224 926/358/227 953/389/254 
f 927/359/228 930/362/231 954/390/255 
f 931/363/232 934/366/235 952/388/253 
f 950/382/251 935/367/236 955/391/256 956/392/257 
f 938/385/239 939/371/240 957/393/258 955/385/256 
f 942/374/243 943/375/244 958/394/259 957/393/258 
f 946/378/247 947/379/248 956/392/257 958/394/259 
f 935/367/236 938/370/239 955/391/256 
f 939/371/240 942/374/243 957/393/258 
f 943/375/244 946/378/247 958/394/259 
f 947/379/248 950/382/251 956/392/257 
f 921/353/222 920/352/221 959/395/260 
f 925/357/226 924/356/225 960/396/261 
f 929/361/230 928/360/229 961/397/262 
f 933/365/234 932/364/233 962/398/263 
f 920/352/221 933/365/234 962/398/263 959/395/260 
f 924/356/225 921/384/222 959/384/260 960/396/261 
f 928/360/229 925/357/226 960/396/261 961/397/262 
f 932/364/233 929/361/230 961/397/262 962/398/263 
f 936/368/237 949/381/250 963/399/264 964/400/265 
f 940/372/241 937/386/238 964/386/265 965/401/266 
f 944/376/245 941/373/242 965/401/266 966/402/267 
f 948/380/249 945/377/246 966/402/267 963/399/264 
f 937/369/238 936/368/237 964/400/265 
f 941/373/242 940/372/241 965/401/266 
f 945/377/246 944/376/245 966/402/267 
f 949/381/250 948/380/249 963/399/264 
f 951/387/252 953/389/254 954/390/255 952/388/253 
f 955/391/256 957/393/258 958/394/259 956/392/257 
f 962/398/263 961/397/262 960/396/261 959/384/260 
f 963/399/264 966/402/267 965/401/266 964/386/265 
f 554/150/133 553/149/132 626/231/157 625/230/156 
s 8
f 557/154/135 554/153/133 625/234/156 628/233/158 
s 4
f 559/157/136 557/154/135 628/233/158 629/235/159 
s 8
f 561/159/137 559/157/136 629/235/159 630/236/160 
s 4
f 563/161/138 561/159/137 630/236/160 631/232/161 
s 8
f 565/163/139 563/161/138 631/232/161 632/237/162 
s 4
f 567/165/140 565/163/139 632/237/162 633/238/163 
s 8
f 553/149/132 567/165/140 633/238/163 626/231/157 
s 4
f 570/168/142 569/167/141 635/240/165 634/239/164 
s 8
f 569/172/141 573/171/143 637/243/167 635/242/165 
s 4
f 573/171/143 575/175/144 638/244/168 637/243/167 
s 8
f 575/175/144 577/177/145 639/245/169 638/244/168 
s 4
f 577/177/145 579/179/146 640/241/170 639/245/169 
s 8
f 579/179/146 581/181/147 641/246/171 640/241/170 
s 4
f 581/181/147 583/183/148 642/247/172 641/246/171 
s 8
f 583/183/148 570/168/142 634/239/164 642/247/172 
s 4
f 586/186/133 585/185/132 644/249/157 643/248/156 
s 8
f 589/190/135 586/189/133 643/252/156 646/251/158 
s 4
f 591/193/136 589/190/135 646/251/158 647/253/159 
s 8
f 593/195/137 591/193/136 647/253/159 648/254/174 
s 4
f 595/197/138 593/195/137 648/254/174 649/250/161 
s 8
f 597/199/139 595/197/138 649/250/161 650/255/162 
s 4
f 599/201/140 597/199/139 650/255/162 651/256/163 
s 8
f 585/185/132 599/201/140 651/256/163 644/249/157 
s 4
f 602/204/150 601/203/149 653/258/165 652/257/164 
s 8
f 601/206/149 603/205/151 655/261/167 653/260/165 
s 4
f 603/205/151 604/207/144 656/262/168 655/261/167 
s 8
f 604/207/144 605/208/152 657/263/175 656/262/168 
s 4
f 605/208/152 606/209/146 658/259/170 657/263/175 
s 8
f 606/209/146 607/210/153 659/264/171 658/259/170 
s 4
f 607/210/153 608/211/148 660/265/172 659/264/171 
s 8
f 608/211/148 602/204/150 652/257/164 660/265/172 
s 4
f 610/213/142 609/212/154 662/267/165 661/266/164 
s 8
f 609/215/154 611/214/143 664/270/167 662/269/165 
s 4
f 611/214/143 612/216/144 665/271/168 664/270/167 
s 8
f 612/216/144 613/217/145 666/272/169 665/271/168 
s 4
f 613/217/145 614/218/146 667/268/170 666/272/169 
s 8
f 614/218/146 615/219/153 668/273/171 667/268/170 
s 4
f 615/219/153 616/220/148 669/274/172 668/273/171 
s 8
f 616/220/148 610/213/142 661/266/164 669/274/172 
s 4
f 618/222/133 617/221/155 671/276/177 670/275/156 
s 8
f 619/224/135 618/223/133 670/279/156 673/278/158 
s 4
f 620/225/136 619/224/135 673/278/158 674/280/159 
s 8
f 621/226/137 620/225/136 674/280/159 675/281/160 
s 4
f 622/227/138 621/226/137 675/281/160 676/277/161 
s 8
f 623/228/139 622/227/138 676/277/161 677/282/162 
s 4
f 624/229/140 623/228/139 677/282/162 678/283/163 
s 8
f 617/221/155 624/229/140 678/283/163 671/276/177 
s 1
f 967/351/220 968/352/221 969/353/268 970/354/223 
f 971/355/224 972/356/225 973/357/226 974/358/227 
f 975/359/228 976/360/229 977/361/230 978/362/231 
f 979/363/232 980/364/233 981/365/234 982/366/235 
s 2
f 968/352/221 967/351/220 982/366/235 981/365/234 
f 972/356/225 971/355/224 970/383/223 969/384/268 
f 976/360/229 975/359/228 974/358/227 973/357/226 
f 980/364/233 979/363/232 978/362/231 977/361/230 
s 4
f 982/366/235 967/351/220 983/387/252 984/388/253 
f 970/383/223 971/355/224 985/389/254 983/383/252 
f 974/358/227 975/359/228 986/390/255 985/389/254 
f 978/362/231 979/363/232 984/388/253 986/390/255 
f 967/351/220 970/354/223 983/387/252 
f 971/355/224 974/358/227 985/389/254 
f 975/359/228 978/362/231 986/390/255 
f 979/363/232 982/366/235 984/388/253 
f 969/353/268 968/352/221 987/395/260 
f 973/357/226 972/356/225 988/396/261 
f 977/361/230 976/360/229 989/397/262 
f 981/365/234 980/364/233 990/398/263 
f 968/352/221 981/365/234 990/398/263 987/395/260 
f 972/356/225 969/384/268 987/384/260 988/396/261 
f 976/360/229 973/357/226 988/396/261 989/397/262 
f 980/364/233 977/361/230 989/397/262 990/398/263 
f 983/387/252 985/389/254 986/390/255 984/388/253 
f 990/398/263 989/397/262 988/396/261 987/384/260 
s 1
f 991/167/269 992/168/270 993/169/22 994/170/30 
s 2
f 995/171/271 991/172/269 994/173/30 996/174/176 
s 1
f 997/175/272 995/171/271 996/174/176 998/176/29 
s 2
f 999/177/273 997/175/272 998/176/29 1000/178/27 
s 1
f 1001/179/274 999/177/273 1000/178/27 1002/180/31 
s 2
f 1003/181/275 1001/179/274 1002/180/31 1004/182/9 
s 1
f 1005/183/276 1003/181/275 1004/182/9 1006/184/21 
s 2
f 992/168/270 1005/183/276 1006/184/21 993/169/22 
s 1
f 1007/239/277 1008/240/278 1009/241/53 
f 1008/242/278 1010/243/279 1009/241/53 
f 1010/243/279 1011/244/280 1009/241/53 
f 1011/244/280 1012/245/281 1009/241/53 
f 1012/245/281 1013/241/282 1009/241/53 
f 1013/241/282 1014/246/283 1009/241/53 
f 1014/246/283 1015/247/284 1009/241/53 
f 1015/247/284 1007/239/277 1009/241/53 
s 4
f 992/168/270 991/167/269 1016/240/285 1017/239/286 
s 8
f 991/172/269 995/171/271 1018/243/287 1016/242/285 
s 4
f 995/171/271 997/175/272 1019/244/288 1018/243/287 
s 8
f 997/175/272 999/177/273 1020/245/289 1019/244/288 
s 4
f 999/177/273 1001/179/274 1021/241/290 1020/245/289 
s 8
f 1001/179/274 1003/181/275 1022/246/291 1021/241/290 
s 4
f 1003/181/275 1005/183/276 1023/247/292 1022/246/291 
s 8
f 1005/183/276 992/168/270 1017/239/286 1023/247/292 
s off
f 1017/239/286 1016/240/285 1008/240/278 1007/239/277 
f 1016/242/285 1018/243/287 1010/243/279 1008/242/278 
f 1018/243/287 1019/244/288 1011/244/280 1010/243/279 
f 1019/244/288 1020/245/289 1012/245/281 1011/244/280 
f 1020/245/289 1021/241/290 1013/241/282 1012/245/281 
f 1021/241/290 1022/246/291 1014/246/283 1013/241/282 
f 1022/246/291 1023/247/292 1015/247/284 1014/246/283 
f 1023/247/292 1017/239/286 1007/239/277 1015/247/284 
s 1
f 1024/167/293 994/170/30 993/169/22 1025/168/294 
s 2
f 1026/171/295 996/174/176 994/173/30 1024/172/293 
s 1
f 1027/175/296 998/176/29 996/174/176 1026/171/295 
s 2
f 1028/177/297 1000/178/27 998/176/29 1027/175/296 
s 1
f 1029/179/298 1002/180/31 1000/178/27 1028/177/297 
s 2
f 1030/181/299 1004/182/9 1002/180/31 1029/179/298 
s 1
f 1031/183/300 1006/184/21 1004/182/9 1030/181/299 
s 2
f 1025/168/294 993/169/22 1006/184/21 1031/183/300 
s 1
f 1032/239/301 1033/241/4 1034/240/302 
f 1034/242/302 1033/241/4 1035/243/303 
f 1035/243/303 1033/241/4 1036/244/304 
f 1036/244/304 1033/241/4 1037/245/305 
f 1037/245/305 1033/241/4 1038/241/306 
f 1038/241/306 1033/241/4 1039/246/307 
f 1039/246/307 1033/241/4 1040/247/308 
f 1040/247/308 1033/241/4 1032/239/301 
s 4
f 1025/168/294 1041/239/309 1042/240/310 1024/167/293 
s 8
f 1024/172/293 1042/242/310 1043/243/311 1026/171/295 
s 4
f 1026/171/295 1043/243/311 1044/244/312 1027/175/296 
s 8
f 1027/175/296 1044/244/312 1045/245/313 1028/177/297 
s 4
f 1028/177/297 1045/245/313 1046/241/314 1029/179/298 
s 8
f 1029/179/298 1046/241/314 1047/246/315 1030/181/299 
s 4
f 1030/181/299 1047/246/315 1048/247/316 1031/183/300 
s 8
f 1031/183/300 1048/247/316 1041/239/309 1025/168/294 
s off
f 1041/239/309 1032/239/301 1034/240/302 1042/240/310 
f 1042/242/310 1034/242/302 1035/243/303 1043/243/311 
f 1043/243/311 1035/243/303 1036/244/304 1044/244/312 
f 1044/244/312 1036/244/304 1037/245/305 1045/245/313 
f 1045/245/313 1037/245/305 1038/241/306 1046/241/314 
f 1046/241/314 1038/241/306 1039/246/307 1047/246/315 
f 1047/246/315 1039/246/307 1040/247/308 1048/247/316 
f 1048/247/316 1040/247/308 1032/239/301 1041/239/309 
# 678 polygons - 128 triangles

