# 3ds Max Wavefront OBJ Exporter v0.99 - (c)2007 guruware
# File Created: 29.12.2025 20:30:52

mtllib low.mtl

#
# object Plane004
#

v  -20.0000 0.0128 -20.0000
v  -20.0000 0.0128 20.0000
v  20.0000 0.0128 20.0000
v  20.0000 0.0128 -20.0000
# 4 vertices

vn 0.0000 1.0000 -0.0000
# 1 vertex normals

vt 0.0000 1.0000 0.0000
vt 0.0000 0.0000 0.0000
vt 1.0000 0.0000 0.0000
vt 1.0000 1.0000 0.0000
# 4 texture coords

o Plane004
g Plane004
usemtl wire_203160209
s 1
f 1/1/1 2/2/1 3/3/1 4/4/1 
# 1 polygons

#
# object Plane005
#

v  -2.3092 4.5273 -3.5555
v  1.8469 4.5273 -3.5555
v  3.8149 4.5273 -20.0000
v  -3.9863 4.5273 -20.0000
# 4 vertices

vn 0.0000 1.0000 -0.0000
# 1 vertex normals

vt 0.4003 0.5889 0.0000
vt 0.5954 0.5889 0.0000
vt 0.5954 1.0000 0.0000
vt 0.4003 1.0000 0.0000
# 4 texture coords

o Plane005
g Plane005
usemtl wire_203160209
s 1
f 5/5/2 6/6/2 7/7/2 8/8/2 
# 1 polygons

#
# object Plane006
#

v  3.4354 8.8881 0.3879
v  -0.8151 8.8881 0.3879
v  -3.4111 8.8881 1.5891
v  -3.4111 8.8881 30.3424
v  3.4354 8.8881 30.3424
# 5 vertices

vn 0.0000 1.0000 -0.0000
# 1 vertex normals

vt 0.3425 0.5407 0.0000
vt 0.3425 0.5950 0.0000
vt 0.2961 0.5950 0.0000
vt 0.2961 0.0000 0.0000
vt 0.3425 0.0000 0.0000
# 5 texture coords

o Plane006
g Plane006
usemtl wire_203160209
s 1
f 9/9/3 10/10/3 11/11/3 
f 12/12/3 13/13/3 9/9/3 11/11/3 
# 1 polygons - 1 triangles

#
# object Object027
#

v  1.8469 4.5273 -3.5555
v  20.0000 4.5273 -3.5555
v  20.0000 4.5273 -20.0000
v  3.8149 4.5273 -20.0000
v  3.8149 4.5273 0.2993
v  20.0000 4.5273 0.2993
# 6 vertices

vn 0.0000 1.0000 -0.0000
# 1 vertex normals

vt 0.5954 0.5889 0.0000
vt 1.0000 0.5889 0.0000
vt 1.0000 1.0000 0.0000
vt 0.5954 1.0000 0.0000
vt 0.5954 0.4925 0.0000
vt 1.0000 0.4925 0.0000
# 6 texture coords

o Object027
g Object027
usemtl wire_203160209
s 1
f 14/14/4 15/15/4 16/16/4 17/17/4 
f 18/18/4 19/19/4 15/15/4 14/14/4 
# 2 polygons

#
# object Object028
#

v  -20.0000 4.5273 -20.0000
v  -20.0000 4.5273 -3.5555
v  -2.3092 4.5273 -3.5555
v  -3.9863 4.5273 -20.0000
v  -20.0000 4.5273 0.2993
v  -3.9863 4.5273 0.2993
# 6 vertices

vn 0.0000 1.0000 -0.0000
# 1 vertex normals

vt 0.0000 1.0000 0.0000
vt 0.0000 0.5889 0.0000
vt 0.4003 0.5889 0.0000
vt 0.4003 1.0000 0.0000
vt 0.0000 0.4925 0.0000
vt 0.4003 0.4925 0.0000
# 6 texture coords

o Object028
g Object028
usemtl wire_203160209
s 1
f 20/20/5 21/21/5 22/22/5 23/23/5 
f 21/21/5 24/24/5 25/25/5 22/22/5 
# 2 polygons

#
# object Object029
#

v  -20.0000 4.5273 0.2993
v  -20.0000 4.5273 20.0000
v  -3.9863 4.5273 20.0000
v  -3.9863 4.5273 0.2993
v  3.8149 4.5273 20.0000
v  3.8149 4.5273 0.2993
v  20.0000 4.5273 20.0000
v  20.0000 4.5273 0.2993
# 8 vertices

vn 0.0000 1.0000 -0.0000
# 1 vertex normals

vt 0.0000 0.4925 0.0000
vt 0.0000 0.0000 0.0000
vt 0.4003 0.0000 0.0000
vt 0.4003 0.4925 0.0000
vt 0.5954 0.0000 0.0000
vt 0.5954 0.4925 0.0000
vt 1.0000 0.0000 0.0000
vt 1.0000 0.4925 0.0000
# 8 texture coords

o Object029
g Object029
usemtl wire_203160209
s 1
f 26/26/6 27/27/6 28/28/6 29/29/6 
f 28/28/6 30/30/6 31/31/6 29/29/6 
f 30/30/6 32/32/6 33/33/6 31/31/6 
# 3 polygons

#
# object Object030
#

v  3.4354 8.8881 30.3424
v  36.0187 8.8881 30.3424
v  36.0187 8.8881 -20.0000
v  3.4354 8.8881 -20.0000
# 4 vertices

vn 0.0000 1.0000 -0.0000
# 1 vertex normals

vt 0.3425 0.0000 0.0000
vt 1.0000 0.0000 0.0000
vt 1.0000 1.0000 0.0000
vt 0.4183 1.0000 0.0000
# 4 texture coords

o Object030
g Object030
usemtl wire_203160209
s 1
f 34/34/7 35/35/7 36/36/7 37/37/7 
# 1 polygons

#
# object Object031
#

v  -20.0000 8.8881 -20.0000
v  -20.0000 8.8881 -3.1772
v  3.4354 8.8881 -3.1772
v  3.4354 8.8881 -20.0000
# 4 vertices

vn 0.0000 1.0000 -0.0000
# 1 vertex normals

vt 0.0000 1.0000 0.0000
vt 0.0000 0.6658 0.0000
vt 0.4183 0.6658 0.0000
vt 0.4183 1.0000 0.0000
# 4 texture coords

o Object031
g Object031
usemtl wire_203160209
s 1
f 38/38/8 39/39/8 40/40/8 41/41/8 
# 1 polygons

#
# object Object032
#

v  -20.0000 8.8881 -3.1772
v  -20.0000 8.8881 30.3424
v  -3.4111 8.8881 30.3424
v  -3.4111 8.8881 -3.1772
# 4 vertices

vn 0.0000 1.0000 -0.0000
# 1 vertex normals

vt 0.0000 0.6658 0.0000
vt 0.0000 0.0000 0.0000
vt 0.2961 0.0000 0.0000
vt 0.2961 0.6658 0.0000
# 4 texture coords

o Object032
g Object032
usemtl wire_203160209
s 1
f 42/42/9 43/43/9 44/44/9 45/45/9 
# 1 polygons

#
# object Object041
#

v  -0.7226 8.5051 -0.0867
v  -3.6808 8.3555 -0.5862
v  -3.4299 9.0527 1.4930
v  -0.6755 9.0527 0.3043
# 4 vertices

vn 0.1084 0.5715 -0.8134
vn 0.0058 0.9479 -0.3186
vn -0.1299 0.9447 -0.3011
vn -0.3262 0.5678 -0.7558
# 4 vertex normals

vt 0.0000 1.0000 0.0000
vt 1.0000 1.0000 0.0000
# 2 texture coords

o Object041
g Object041
usemtl wire_084166149
s off
f 46/46/10 47/47/11 48/47/12 49/46/13 
# 1 polygons

#
# object Object074
#

v  -0.7226 3.9736 -0.0867
v  -3.6808 3.8240 -0.5862
v  -3.4299 4.5212 1.4930
v  -0.6755 4.5212 0.3043
# 4 vertices

vn 0.1084 0.5715 -0.8134
vn 0.0058 0.9479 -0.3186
vn -0.1299 0.9447 -0.3011
vn -0.3262 0.5678 -0.7558
# 4 vertex normals

vt 0.0000 1.0000 0.0000
vt 1.0000 1.0000 0.0000
# 2 texture coords

o Object074
g Object074
usemtl wire_084166149
s off
f 50/48/14 51/49/15 52/49/16 53/48/17 
# 1 polygons

#
# object Object075
#

v  0.6538 5.6175 -0.0411
v  0.3759 4.6319 0.5874
v  2.1610 4.6319 2.9985
v  3.6385 5.6175 -0.3433
# 4 vertices

vn 0.0862 0.5182 0.8509
vn -0.6874 0.5182 0.5089
vn -0.2382 0.9551 0.1764
vn 0.0299 0.9551 0.2949
# 4 vertex normals

vt 0.0000 1.0000 0.0000
vt 0.0000 0.0000 0.0000
vt 1.0000 0.0000 0.0000
vt 1.0000 1.0000 0.0000
# 4 texture coords

o Object075
g Object075
usemtl wire_084166149
s 1
f 54/50/18 55/51/19 56/52/20 57/53/21 
# 1 polygons

#
# object Object076
#

v  0.6538 5.6175 -0.0411
v  3.6385 5.6175 -0.3433
v  2.2433 6.3842 -2.8779
v  0.1814 6.7127 -0.6305
# 4 vertices

vn 0.0872 0.5010 0.8610
vn 0.0279 0.9609 0.2753
vn 0.2899 0.9485 0.1273
vn 0.6505 0.5579 0.5153
# 4 vertex normals

vt 0.0000 1.0000 0.0000
vt 1.0000 1.0000 0.0000
# 2 texture coords

o Object076
g Object076
usemtl wire_084166149
s off
f 58/54/22 59/55/23 60/55/24 61/54/25 
# 1 polygons

#
# object Object077
#

v  0.1814 6.7127 -0.6305
v  2.2433 6.3842 -2.8779
v  -0.5503 7.1508 -3.6301
v  -0.2122 7.2603 -0.6436
# 4 vertices

vn 0.6742 0.4976 0.5458
vn 0.2432 0.9665 0.0818
vn 0.2808 0.9574 -0.0669
vn 0.8081 0.5782 -0.1127
# 4 vertex normals

vt 0.0000 1.0000 0.0000
vt 1.0000 1.0000 0.0000
# 2 texture coords

o Object077
g Object077
usemtl wire_084166149
s off
f 62/56/26 63/57/27 64/57/28 65/56/29 
# 1 polygons

#
# object Object078
#

v  -0.2122 7.2603 -0.6436
v  -0.5503 7.1508 -3.6301
v  -2.7612 7.8079 -2.4677
v  -0.6002 7.9174 -0.3787
# 4 vertices

vn 0.8346 0.5388 -0.1142
vn 0.2532 0.9653 -0.0641
vn 0.1677 0.9601 -0.2238
vn 0.5552 0.5714 -0.6043
# 4 vertex normals

vt 0.0000 1.0000 0.0000
vt 1.0000 1.0000 0.0000
# 2 texture coords

o Object078
g Object078
usemtl wire_084166149
s off
f 66/58/30 67/59/31 68/59/32 69/58/33 
# 1 polygons

#
# object Object079
#

v  -0.6002 7.9174 -0.3787
v  -2.7612 7.8079 -2.4677
v  -3.6808 8.3555 -0.5862
v  -0.7226 8.5051 -0.0867
# 4 vertices

vn 0.6083 0.4512 -0.6530
vn 0.1514 0.9665 -0.2073
vn -0.0013 0.9600 -0.2800
vn 0.1248 0.4622 -0.8779
# 4 vertex normals

vt 0.0000 1.0000 0.0000
vt 1.0000 1.0000 0.0000
# 2 texture coords

o Object079
g Object079
usemtl wire_084166149
s off
f 70/60/34 71/61/35 72/61/36 73/60/37 
# 1 polygons

#
# object Object080
#

v  0.6538 1.0860 -0.0411
v  0.3759 0.1004 0.5874
v  2.1610 0.1004 2.9985
v  3.6385 1.0860 -0.3433
# 4 vertices

vn 0.0862 0.5182 0.8509
vn -0.6874 0.5182 0.5089
vn -0.2382 0.9551 0.1764
vn 0.0299 0.9551 0.2949
# 4 vertex normals

vt 0.0000 1.0000 0.0000
vt 0.0000 0.0000 0.0000
vt 1.0000 0.0000 0.0000
vt 1.0000 1.0000 0.0000
# 4 texture coords

o Object080
g Object080
usemtl wire_084166149
s 1
f 74/62/38 75/63/39 76/64/40 77/65/41 
# 1 polygons

#
# object Object081
#

v  0.6538 1.0860 -0.0411
v  3.6385 1.0860 -0.3433
v  2.2433 1.8526 -2.8779
v  0.1814 2.1812 -0.6305
# 4 vertices

vn 0.0872 0.5010 0.8610
vn 0.0279 0.9609 0.2753
vn 0.2899 0.9485 0.1273
vn 0.6505 0.5579 0.5153
# 4 vertex normals

vt 0.0000 1.0000 0.0000
vt 1.0000 1.0000 0.0000
# 2 texture coords

o Object081
g Object081
usemtl wire_084166149
s off
f 78/66/42 79/67/43 80/67/44 81/66/45 
# 1 polygons

#
# object Object082
#

v  0.1814 2.1812 -0.6305
v  2.2433 1.8526 -2.8779
v  -0.5503 2.6193 -3.6301
v  -0.2122 2.7288 -0.6436
# 4 vertices

vn 0.6742 0.4976 0.5458
vn 0.2432 0.9665 0.0818
vn 0.2808 0.9574 -0.0669
vn 0.8081 0.5782 -0.1127
# 4 vertex normals

vt 0.0000 1.0000 0.0000
vt 1.0000 1.0000 0.0000
# 2 texture coords

o Object082
g Object082
usemtl wire_084166149
s off
f 82/68/46 83/69/47 84/69/48 85/68/49 
# 1 polygons

#
# object Object083
#

v  -0.2122 2.7288 -0.6436
v  -0.5503 2.6193 -3.6301
v  -2.7612 3.2764 -2.4677
v  -0.6002 3.3859 -0.3787
# 4 vertices

vn 0.8346 0.5388 -0.1142
vn 0.2532 0.9653 -0.0641
vn 0.1677 0.9601 -0.2238
vn 0.5552 0.5714 -0.6043
# 4 vertex normals

vt 0.0000 1.0000 0.0000
vt 1.0000 1.0000 0.0000
# 2 texture coords

o Object083
g Object083
usemtl wire_084166149
s off
f 86/70/50 87/71/51 88/71/52 89/70/53 
# 1 polygons

#
# object Object084
#

v  -0.6002 3.3859 -0.3787
v  -2.7612 3.2764 -2.4677
v  -3.6808 3.8240 -0.5862
v  -0.7226 3.9736 -0.0867
# 4 vertices

vn 0.6083 0.4512 -0.6530
vn 0.1514 0.9665 -0.2073
vn -0.0013 0.9600 -0.2800
vn 0.1248 0.4622 -0.8779
# 4 vertex normals

vt 0.0000 1.0000 0.0000
vt 1.0000 1.0000 0.0000
# 2 texture coords

o Object084
g Object084
usemtl wire_084166149
s off
f 90/72/54 91/73/55 92/73/56 93/72/57 
# 1 polygons

