# 3ds Max Wavefront OBJ Exporter v0.99 - (c)2007 guruware
# File Created: 20.01.2026 12:32:30

mtllib JailProp_RightWall_N_Collider.mtl

#
# object JailProp_RightWall_N_Colli01
#

v  -3.8179 -0.8680 2.2985
v  -3.7919 -0.8940 -4.5150
v  -3.5062 -0.8940 -4.5150
v  -3.5322 -0.8680 2.2985
v  -3.8179 3.3018 2.2985
v  -3.5322 3.3018 2.2985
v  -3.5062 3.2758 -4.5150
v  -3.7919 3.2758 -4.5150
# 8 vertices

vn -0.5788 -0.5759 0.5773
vn -0.5759 -0.5788 -0.5773
vn 0.5783 -0.5783 -0.5754
vn 0.5763 -0.5763 0.5793
vn -0.5783 0.5783 0.5754
vn 0.5759 0.5788 0.5773
vn 0.5788 0.5759 -0.5773
vn -0.5763 0.5763 -0.5793
# 8 vertex normals

vt 1.0000 0.0000 0.0000
vt 1.0000 0.7878 0.0000
vt 0.0000 0.7878 0.0000
vt 0.0000 0.0000 0.0000
vt 1.0000 1.0000 0.0000
vt 0.0000 1.0000 0.0000
vt 0.7878 0.0000 0.0000
vt 0.7878 1.0000 0.0000
vt 0.2122 0.0000 0.0000
vt 0.2122 1.0000 0.0000
# 10 texture coords

o JailProp_RightWall_N_Colli01
g JailProp_RightWall_N_Colli01
usemtl wire_137214151
s 2
f 1/1/1 2/2/2 3/3/3 4/4/4 
s 4
f 5/4/5 6/1/6 7/2/7 8/3/8 
s 8
f 1/4/1 4/1/4 6/5/6 5/6/5 
s 16
f 4/4/4 3/7/3 7/8/7 6/6/6 
s 64
f 2/9/2 1/1/1 5/5/5 8/10/8 
s off
f 2/2/2 8/3/8 7/2/7 3/3/3 
# 6 polygons

