# 3ds Max Wavefront OBJ Exporter v0.99 - (c)2007 guruware
# File Created: 20.01.2026 12:32:06

mtllib JailProp_RightWall_A_Collider.mtl

#
# object JailProp_RightWall_A_Colli01
#

v  -3.8179 -0.8818 2.2985
v  -3.7975 -0.9022 -3.0690
v  -3.5117 -0.9022 -3.0690
v  -3.5322 -0.8818 2.2985
v  -3.8179 3.3018 2.2985
v  -3.5322 3.3018 2.2985
v  -3.5117 3.2813 -3.0690
v  -3.7975 3.2813 -3.0690
# 8 vertices

vn -0.5788 -0.5759 0.5773
vn -0.5759 -0.5788 -0.5773
vn 0.5783 -0.5783 -0.5754
vn 0.5763 -0.5763 0.5793
vn -0.5783 0.5783 0.5754
vn 0.5759 0.5788 0.5773
vn 0.5788 0.5759 -0.5773
vn -0.5763 0.5763 -0.5793
# 8 vertex normals

vt 1.0000 0.0000 0.0000
vt 1.0000 0.7878 0.0000
vt 0.0000 0.7878 0.0000
vt 0.0000 0.0000 0.0000
vt 1.0000 1.0000 0.0000
vt 0.0000 1.0000 0.0000
vt 0.7878 0.0000 0.0000
vt 0.7878 1.0000 0.0000
vt 0.2122 0.0000 0.0000
vt 0.2122 1.0000 0.0000
# 10 texture coords

o JailProp_RightWall_A_Colli01
g JailProp_RightWall_A_Colli01
usemtl wire_137214151
s 2
f 1/1/1 2/2/2 3/3/3 4/4/4 
s 4
f 5/4/5 6/1/6 7/2/7 8/3/8 
s 8
f 1/4/1 4/1/4 6/5/6 5/6/5 
s 16
f 4/4/4 3/7/3 7/8/7 6/6/6 
s 64
f 2/9/2 1/1/1 5/5/5 8/10/8 
s off
f 2/2/2 8/3/8 7/2/7 3/3/3 
# 6 polygons

#
# object JailProp_RightWall_A_Colli03
#

v  -3.5102 3.2797 -3.4841
v  -3.5117 3.2813 -3.0690
v  -3.5117 2.5280 -3.0690
v  -3.5102 2.5264 -3.4841
v  -3.7959 3.2797 -3.4841
v  -3.7975 3.2813 -3.0690
v  -3.7959 2.5264 -3.4841
v  -3.7975 2.5280 -3.0690
# 8 vertices

vn 0.5788 0.5759 -0.5773
vn 0.5759 0.5788 0.5773
vn 0.5763 -0.5763 0.5793
vn 0.5783 -0.5783 -0.5754
vn -0.5763 0.5763 -0.5793
vn -0.5783 0.5783 0.5754
vn -0.5759 -0.5788 -0.5773
vn -0.5788 -0.5759 0.5773
# 8 vertex normals

vt 0.8487 1.0000 0.0000
vt 0.7878 1.0000 0.0000
vt 0.7878 0.7337 0.0000
vt 0.8487 0.7337 0.0000
vt 1.0000 0.7878 0.0000
vt 1.0000 0.8487 0.0000
vt 0.0000 0.8487 0.0000
vt 0.0000 0.7878 0.0000
vt 0.2122 1.0000 0.0000
vt 0.1513 1.0000 0.0000
vt 0.1513 0.7337 0.0000
vt 0.2122 0.7337 0.0000
# 12 texture coords

o JailProp_RightWall_A_Colli03
g JailProp_RightWall_A_Colli03
usemtl wire_137214151
s 16
f 9/11/9 10/12/10 11/13/11 12/14/12 
s 4
f 10/15/10 9/16/9 13/17/13 14/18/14 
s 64
f 14/19/14 13/20/13 15/21/15 16/22/16 
s off
f 16/22/16 15/21/15 12/14/12 11/13/11 
f 15/21/15 13/17/13 9/16/9 12/14/12 
f 14/18/14 16/22/16 11/13/11 10/12/10 
# 6 polygons

#
# object JailProp_RightWall_A_Colli04
#

v  -3.7959 -0.8928 -3.4841
v  -3.7975 -0.8912 -3.0690
v  -3.7975 2.0128 -3.0690
v  -3.7959 2.0112 -3.4841
v  -3.5102 -0.8928 -3.4841
v  -3.5117 -0.8912 -3.0690
v  -3.5102 2.0112 -3.4841
v  -3.5117 2.0128 -3.0690
# 8 vertices

vn -0.5759 -0.5788 -0.5773
vn -0.5788 -0.5759 0.5773
vn -0.5783 0.5783 0.5754
vn -0.5763 0.5763 -0.5793
vn 0.5783 -0.5783 -0.5754
vn 0.5763 -0.5763 0.5793
vn 0.5788 0.5759 -0.5773
vn 0.5759 0.5788 0.5773
# 8 vertex normals

vt 0.1513 0.0000 0.0000
vt 0.2122 0.0000 0.0000
vt 0.2122 0.5515 0.0000
vt 0.1513 0.5515 0.0000
vt 1.0000 0.7878 0.0000
vt 1.0000 0.8487 0.0000
vt 0.0000 0.8487 0.0000
vt 0.0000 0.7878 0.0000
vt 0.7878 0.0000 0.0000
vt 0.8487 0.0000 0.0000
vt 0.8487 0.5515 0.0000
vt 0.7878 0.5515 0.0000
# 12 texture coords

o JailProp_RightWall_A_Colli04
g JailProp_RightWall_A_Colli04
usemtl wire_137214151
s 64
f 17/23/17 18/24/18 19/25/19 20/26/20 
s 2
f 18/27/18 17/28/17 21/29/21 22/30/22 
s 16
f 22/31/22 21/32/21 23/33/23 24/34/24 
s off
f 17/28/17 20/26/20 23/33/23 21/29/21 
f 20/26/20 19/25/19 24/34/24 23/33/23 
f 19/25/19 18/24/18 22/30/22 24/34/24 
# 6 polygons

#
# object JailProp_RightWall_A_Colli02
#

v  -3.5062 -0.8940 -4.5150
v  -3.7919 -0.8940 -4.5150
v  -3.7919 3.2758 -4.5150
v  -3.5062 3.2758 -4.5150
v  -3.7959 -0.8900 -3.4841
v  -3.7959 3.2797 -3.4841
v  -3.5102 -0.8900 -3.4841
v  -3.5102 3.2797 -3.4841
# 8 vertices

vn 0.5783 -0.5783 -0.5754
vn -0.5759 -0.5788 -0.5773
vn -0.5763 0.5763 -0.5793
vn 0.5788 0.5759 -0.5773
vn -0.5788 -0.5759 0.5773
vn -0.5783 0.5783 0.5754
vn 0.5763 -0.5763 0.5793
vn 0.5759 0.5788 0.5773
# 8 vertex normals

vt 0.0000 0.0000 0.0000
vt 1.0000 0.0000 0.0000
vt 1.0000 1.0000 0.0000
vt 0.0000 1.0000 0.0000
vt 0.1513 0.0000 0.0000
vt 0.1513 1.0000 0.0000
vt 0.8487 0.0000 0.0000
vt 0.8487 1.0000 0.0000
vt 1.0000 0.8487 0.0000
vt 0.0000 0.8487 0.0000
# 10 texture coords

o JailProp_RightWall_A_Colli02
g JailProp_RightWall_A_Colli02
usemtl wire_137214151
s 32
f 25/35/25 26/36/26 27/37/27 28/38/28 
s 64
f 26/35/26 29/39/29 30/40/30 27/38/27 
s 16
f 31/41/31 25/36/25 28/37/28 32/42/32 
s 2
f 29/43/29 26/37/26 25/38/25 31/44/31 
s 4
f 32/43/32 28/37/28 27/38/27 30/44/30 
s off
f 31/41/31 32/42/32 30/40/30 29/39/29 
# 6 polygons

#
# object JailProp_RightWall_A_Colli05
#

v  -3.6901 2.5264 -3.4841
v  -3.6917 2.5280 -3.0690
v  -3.6917 2.0128 -3.0690
v  -3.6901 2.0112 -3.4841
v  -3.7975 2.5280 -3.0690
v  -3.7959 2.5264 -3.4841
v  -3.7959 2.0112 -3.4841
v  -3.7975 2.0128 -3.0690
# 8 vertices

vn 0.5788 0.5759 -0.5773
vn 0.5759 0.5788 0.5773
vn 0.5763 -0.5763 0.5793
vn 0.5783 -0.5783 -0.5754
vn -0.5783 0.5783 0.5754
vn -0.5763 0.5763 -0.5793
vn -0.5759 -0.5788 -0.5773
vn -0.5788 -0.5759 0.5773
# 8 vertex normals

vt 0.8487 0.7337 0.0000
vt 0.7878 0.7337 0.0000
vt 0.7878 0.5515 0.0000
vt 0.8487 0.5515 0.0000
vt 0.2122 0.7337 0.0000
vt 0.1513 0.7337 0.0000
vt 0.1513 0.5515 0.0000
vt 0.2122 0.5515 0.0000
# 8 texture coords

o JailProp_RightWall_A_Colli05
g JailProp_RightWall_A_Colli05
usemtl wire_137214151
s 16
f 33/45/33 34/46/34 35/47/35 36/48/36 
s 64
f 37/49/37 38/50/38 39/51/39 40/52/40 
s off
f 39/51/39 38/50/38 33/45/33 36/48/36 
f 38/50/38 37/49/37 34/46/34 33/45/33 
f 40/52/40 39/51/39 36/48/36 35/47/35 
f 37/49/37 40/52/40 35/47/35 34/46/34 
# 6 polygons

