# 3ds Max Wavefront OBJ Exporter v0.99 - (c)2007 guruware
# File Created: 20.01.2026 12:30:02

mtllib JailProp_Floor_N_Collier.mtl

#
# object JailProp_Floor_N_Colli05
#

v  1.7616 -0.8562 -3.6941
v  1.7567 -0.8611 -2.4014
v  0.4160 -0.8611 -2.4014
v  0.4209 -0.8562 -3.6941
v  1.7567 0.1094 -2.4014
v  1.7616 0.1143 -3.6941
v  0.4209 0.1143 -3.6941
v  0.4160 0.1094 -2.4014
# 8 vertices

vn 0.5788 -0.5759 -0.5773
vn 0.5759 -0.5788 0.5773
vn -0.5783 -0.5783 0.5754
vn -0.5763 -0.5763 -0.5793
vn 0.5763 0.5763 0.5793
vn 0.5783 0.5783 -0.5754
vn -0.5759 0.5788 -0.5773
vn -0.5788 0.5759 0.5773
# 8 vertex normals

vt 0.6929 0.7517 0.0000
vt 0.5434 0.7517 0.0000
vt 0.5434 0.5605 0.0000
vt 0.6929 0.5605 0.0000
vt 0.4566 0.7517 0.0000
vt 0.3071 0.7517 0.0000
vt 0.3071 0.5605 0.0000
vt 0.4566 0.5605 0.0000
# 8 texture coords

o JailProp_Floor_N_Colli05
g JailProp_Floor_N_Colli05
usemtl wire_137214151
s 16
f 1/1/1 2/2/2 3/3/3 4/4/4 
s 64
f 5/5/5 6/6/6 7/7/7 8/8/8 
s off
f 2/2/2 1/1/1 6/6/6 5/5/5 
f 1/1/1 4/4/4 7/7/7 6/6/6 
f 4/4/4 3/3/3 8/8/8 7/7/7 
f 3/3/3 2/2/2 5/5/5 8/8/8 
# 6 polygons

#
# object JailProp_Floor_N_Colli02
#

v  -3.5322 0.1158 2.2985
v  -3.5062 0.1417 -4.5150
v  -3.5062 -0.8530 -4.5150
v  -3.5322 -0.8790 2.2985
v  0.3981 -0.8790 2.2985
v  0.3981 0.1158 2.2985
v  0.4241 -0.8530 -4.5150
v  0.4241 0.1417 -4.5150
# 8 vertices

vn -0.5788 0.5759 0.5773
vn -0.5759 0.5788 -0.5773
vn -0.5763 -0.5763 -0.5793
vn -0.5783 -0.5783 0.5754
vn 0.5759 -0.5788 0.5773
vn 0.5763 0.5763 0.5793
vn 0.5788 -0.5759 -0.5773
vn 0.5783 0.5783 -0.5754
# 8 vertex normals

vt 1.0000 0.0000 0.0000
vt 1.0000 0.7878 0.0000
vt 0.0000 0.7878 0.0000
vt 0.0000 0.0000 0.0000
vt 1.0000 0.5605 0.0000
vt 0.0000 0.5605 0.0000
vt 0.7878 0.0000 0.0000
vt 0.7878 0.5605 0.0000
vt 0.2122 0.0000 0.0000
vt 0.2122 0.5605 0.0000
vt 0.4395 0.7878 0.0000
vt 0.5605 0.7878 0.0000
# 12 texture coords

o JailProp_Floor_N_Colli02
g JailProp_Floor_N_Colli02
usemtl wire_137214151
s 2
f 9/9/9 10/10/10 11/11/11 12/12/12 
s 8
f 9/12/9 12/9/12 13/13/13 14/14/14 
s 16
f 12/12/12 11/15/11 15/16/15 13/14/13 
s 64
f 10/17/10 9/9/9 14/13/14 16/18/16 
s off
f 10/10/10 16/19/16 15/20/15 11/11/11 
f 13/13/13 15/16/15 16/18/16 14/14/14 
# 6 polygons

#
# object JailProp_Floor_N_Colli01
#

v  3.4803 0.1158 2.2985
v  3.4803 -0.8790 2.2985
v  3.4982 -0.8611 -2.4014
v  3.4982 0.1337 -2.4014
v  0.3981 0.1158 2.2985
v  0.4160 0.1337 -2.4014
v  0.3981 -0.8790 2.2985
v  0.4160 -0.8611 -2.4014
# 8 vertices

vn 0.5763 0.5763 0.5793
vn 0.5759 -0.5788 0.5773
vn 0.5788 -0.5759 -0.5773
vn 0.5783 0.5783 -0.5754
vn -0.5788 0.5759 0.5773
vn -0.5759 0.5788 -0.5773
vn -0.5783 -0.5783 0.5754
vn -0.5763 -0.5763 -0.5793
# 8 vertex normals

vt 0.0000 0.0000 0.0000
vt 1.0000 0.0000 0.0000
vt 1.0000 0.5434 0.0000
vt 0.0000 0.5434 0.0000
vt 1.0000 0.5605 0.0000
vt 1.0000 1.0000 0.0000
vt 0.4566 1.0000 0.0000
vt 0.4566 0.5605 0.0000
vt 0.5434 1.0000 0.0000
vt 0.0000 1.0000 0.0000
vt 0.0000 0.5605 0.0000
vt 0.5434 0.5605 0.0000
# 12 texture coords

o JailProp_Floor_N_Colli01
g JailProp_Floor_N_Colli01
usemtl wire_137214151
s 4
f 17/21/17 18/22/18 19/23/19 20/24/20 
s 64
f 21/25/21 17/26/17 20/27/20 22/28/22 
s 16
f 19/29/19 18/30/18 23/31/23 24/32/24 
s 8
f 23/25/23 18/26/18 17/30/17 21/31/21 
s off
f 24/32/24 23/31/23 21/25/21 22/28/22 
f 19/23/19 24/32/24 22/28/22 20/24/20 
# 6 polygons

#
# object JailProp_Floor_N_Colli03
#

v  1.7648 -0.8530 -4.5150
v  3.5062 -0.8530 -4.5150
v  3.4982 -0.8611 -2.4014
v  1.7567 -0.8611 -2.4014
v  1.7648 0.1417 -4.5150
v  3.5062 0.1417 -4.5150
v  3.4982 0.1337 -2.4014
v  1.7567 0.1337 -2.4014
# 8 vertices

vn -0.5763 -0.5763 -0.5793
vn 0.5788 -0.5759 -0.5773
vn 0.5759 -0.5788 0.5773
vn -0.5783 -0.5783 0.5754
vn -0.5759 0.5788 -0.5773
vn 0.5783 0.5783 -0.5754
vn 0.5763 0.5763 0.5793
vn -0.5788 0.5759 0.5773
# 8 vertex normals

vt 0.7878 0.7517 0.0000
vt 0.7878 1.0000 0.0000
vt 0.5434 1.0000 0.0000
vt 0.5434 0.7517 0.0000
vt 0.2483 0.7878 0.0000
vt 0.0000 0.7878 0.0000
vt 1.0000 0.7878 0.0000
vt 0.7517 0.7878 0.0000
vt 1.0000 0.5434 0.0000
vt 0.0000 0.5434 0.0000
vt 0.4566 1.0000 0.0000
vt 0.2122 1.0000 0.0000
vt 0.2122 0.7517 0.0000
vt 0.4566 0.7517 0.0000
# 14 texture coords

o JailProp_Floor_N_Colli03
g JailProp_Floor_N_Colli03
usemtl wire_137214151
s 16
f 25/33/25 26/34/26 27/35/27 28/36/28 
s off
f 29/37/29 30/38/30 26/39/26 25/40/25 
s 4
f 27/41/27 26/39/26 30/38/30 31/42/31 
s 64
f 31/43/31 30/44/30 29/45/29 32/46/32 
s off
f 25/33/25 28/36/28 32/46/32 29/45/29 
f 28/36/28 27/35/27 31/42/31 32/46/32 
# 6 polygons

#
# object JailProp_Floor_N_Colli04
#

v  0.4241 -0.8530 -4.5150
v  1.7648 -0.8530 -4.5150
v  1.7616 -0.8561 -3.6941
v  0.4209 -0.8561 -3.6941
v  0.4241 0.1417 -4.5150
v  1.7648 0.1417 -4.5150
v  1.7616 0.1386 -3.6941
v  0.4209 0.1386 -3.6941
# 8 vertices

vn -0.5763 -0.5763 -0.5793
vn 0.5788 -0.5759 -0.5773
vn 0.5759 -0.5788 0.5773
vn -0.5783 -0.5783 0.5754
vn -0.5759 0.5788 -0.5773
vn 0.5783 0.5783 -0.5754
vn 0.5763 0.5763 0.5793
vn -0.5788 0.5759 0.5773
# 8 vertex normals

vt 0.7878 0.5605 0.0000
vt 0.7878 0.7517 0.0000
vt 0.6929 0.7517 0.0000
vt 0.6929 0.5605 0.0000
vt 0.4395 0.7878 0.0000
vt 0.2483 0.7878 0.0000
vt 0.7517 0.7878 0.0000
vt 0.5605 0.7878 0.0000
vt 0.3071 0.7517 0.0000
vt 0.2122 0.7517 0.0000
vt 0.2122 0.5605 0.0000
vt 0.3071 0.5605 0.0000
# 12 texture coords

o JailProp_Floor_N_Colli04
g JailProp_Floor_N_Colli04
usemtl wire_137214151
s 16
f 33/47/33 34/48/34 35/49/35 36/50/36 
s off
f 37/51/37 38/52/38 34/53/34 33/54/33 
s 64
f 39/55/39 38/56/38 37/57/37 40/58/40 
s off
f 33/47/33 36/50/36 40/58/40 37/57/37 
f 36/50/36 35/49/35 39/55/39 40/58/40 
f 35/49/35 34/48/34 38/56/38 39/55/39 
# 6 polygons

