# 3ds Max Wavefront OBJ Exporter v0.99 - (c)2007 guruware
# File Created: 20.01.2026 12:29:10

mtllib JailProp_Floor_A_Collier.mtl

#
# object JailProp_Floor_A_Colli06
#

v  0.4060 -0.5203 -2.3946
v  1.0981 -0.5204 -3.2598
v  1.7634 -0.5203 -2.3913
v  0.7400 0.1367 -2.7181
v  0.4160 0.1368 -2.4014
v  1.7567 0.1368 -2.4014
v  1.4399 0.1367 -2.7253
# 7 vertices

vn -0.7565 -0.5434 0.3639
vn 0.0075 -0.4054 -0.9141
vn 0.7496 -0.5447 0.3761
vn -0.3426 0.7678 -0.5414
vn -0.7489 0.5687 0.3403
vn 0.7470 0.5681 0.3454
vn 0.3490 0.7639 -0.5429
# 7 vertex normals

vt 0.6929 0.7517 0.0000
vt 0.5434 0.6561 0.0000
vt 0.6929 0.5605 0.0000
vt 0.4566 0.7517 0.0000
vt 0.3071 0.7517 0.0000
vt 0.3071 0.5605 0.0000
vt 0.4566 0.5605 0.0000
# 7 texture coords

o JailProp_Floor_A_Colli06
g JailProp_Floor_A_Colli06
usemtl wire_137214151
s 16
f 1/1/1 2/2/2 3/3/3 
s 64
f 4/4/4 5/5/5 6/6/6 7/7/7 
s off
f 2/2/2 5/5/5 4/4/4 
f 1/1/1 3/3/3 6/6/6 5/5/5 
f 3/3/3 2/2/2 6/6/6 
f 2/2/2 4/4/4 7/7/7 
f 2/2/2 1/1/1 5/5/5 
f 2/2/2 7/7/7 6/6/6 
# 2 polygons - 6 triangles

#
# object JailProp_Floor_A_Colli07
#

v  0.4092 -0.5203 -3.7522
v  1.2744 -0.5204 -3.4045
v  1.2744 -0.5204 -2.7155
v  0.4059 -0.5203 -2.3947
v  0.7327 0.1367 -3.4181
v  0.4160 0.1368 -3.7421
v  0.4160 0.1368 -2.4014
v  0.7399 0.1367 -2.7182
# 8 vertices

vn -0.4657 -0.5532 -0.6907
vn 0.8375 -0.3766 -0.3961
vn 0.8314 -0.3769 0.4083
vn -0.4789 -0.5546 0.6805
vn 0.4755 0.8459 -0.2415
vn -0.3978 0.6018 -0.6925
vn -0.4037 0.6019 0.6890
vn 0.4785 0.8437 0.2431
# 8 vertex normals

vt 0.6929 0.7517 0.0000
vt 0.5434 0.7517 0.0000
vt 0.5434 0.5605 0.0000
vt 0.6929 0.5605 0.0000
vt 0.4566 0.7517 0.0000
vt 0.3071 0.7517 0.0000
vt 0.3071 0.5605 0.0000
vt 0.4566 0.5605 0.0000
# 8 texture coords

o JailProp_Floor_A_Colli07
g JailProp_Floor_A_Colli07
usemtl wire_137214151
s 16
f 8/8/8 9/9/9 10/10/10 11/11/11 
s 64
f 12/12/12 13/13/13 14/14/14 15/15/15 
s off
f 9/9/9 13/13/13 12/12/12 
f 8/8/8 11/11/11 14/14/14 13/13/13 
f 11/11/11 10/10/10 14/14/14 
f 10/10/10 9/9/9 12/12/12 15/15/15 
f 9/9/9 8/8/8 13/13/13 
f 10/10/10 15/15/15 14/14/14 
# 4 polygons - 4 triangles

#
# object JailProp_Floor_A_Colli08
#

v  1.7667 -0.5203 -3.7489
v  1.4191 -0.5204 -2.8838
v  0.7301 -0.5204 -2.8838
v  0.4093 -0.5203 -3.7522
v  1.4326 0.1367 -3.4255
v  1.7567 0.1368 -3.7421
v  0.4160 0.1368 -3.7421
v  0.7328 0.1367 -3.4182
# 8 vertices

vn 0.6907 -0.5532 -0.4657
vn 0.3961 -0.3765 0.8375
vn -0.4083 -0.3769 0.8314
vn -0.6805 -0.5546 -0.4789
vn 0.2414 0.8460 0.4754
vn 0.6925 0.6019 -0.3978
vn -0.6890 0.6019 -0.4036
vn -0.2431 0.8437 0.4785
# 8 vertex normals

vt 0.6929 0.7517 0.0000
vt 0.5434 0.7517 0.0000
vt 0.5434 0.5605 0.0000
vt 0.6929 0.5605 0.0000
vt 0.4566 0.7517 0.0000
vt 0.3071 0.7517 0.0000
vt 0.3071 0.5605 0.0000
vt 0.4566 0.5605 0.0000
# 8 texture coords

o JailProp_Floor_A_Colli08
g JailProp_Floor_A_Colli08
usemtl wire_137214151
s 16
f 16/16/16 17/17/17 18/18/18 19/19/19 
s 64
f 20/20/20 21/21/21 22/22/22 23/23/23 
s off
f 17/17/17 21/21/21 20/20/20 
f 16/16/16 19/19/19 22/22/22 21/21/21 
f 19/19/19 18/18/18 22/22/22 
f 18/18/18 17/17/17 20/20/20 23/23/23 
f 17/17/17 16/16/16 21/21/21 
f 18/18/18 23/23/23 22/22/22 
# 4 polygons - 4 triangles

#
# object JailProp_Floor_A_Colli01
#

v  3.4803 0.1158 2.2985
v  3.4803 -0.8790 2.2985
v  3.4982 -0.8611 -2.4014
v  3.4982 0.1337 -2.4014
v  0.3981 0.1158 2.2985
v  0.4160 0.1337 -2.4014
v  0.3981 -0.8790 2.2985
v  0.4160 -0.8611 -2.4014
# 8 vertices

vn 0.5763 0.5763 0.5793
vn 0.5759 -0.5788 0.5773
vn 0.5788 -0.5759 -0.5773
vn 0.5783 0.5783 -0.5754
vn -0.5788 0.5759 0.5773
vn -0.5759 0.5788 -0.5773
vn -0.5783 -0.5783 0.5754
vn -0.5763 -0.5763 -0.5793
# 8 vertex normals

vt 0.0000 0.0000 0.0000
vt 1.0000 0.0000 0.0000
vt 1.0000 0.5434 0.0000
vt 0.0000 0.5434 0.0000
vt 1.0000 0.5605 0.0000
vt 1.0000 1.0000 0.0000
vt 0.4566 1.0000 0.0000
vt 0.4566 0.5605 0.0000
vt 0.5434 1.0000 0.0000
vt 0.0000 1.0000 0.0000
vt 0.0000 0.5605 0.0000
vt 0.5434 0.5605 0.0000
# 12 texture coords

o JailProp_Floor_A_Colli01
g JailProp_Floor_A_Colli01
usemtl wire_137214151
s 4
f 24/24/24 25/25/25 26/26/26 27/27/27 
s 64
f 28/28/28 24/29/24 27/30/27 29/31/29 
s 16
f 26/32/26 25/33/25 30/34/30 31/35/31 
s 8
f 30/28/30 25/29/25 24/33/24 28/34/28 
s off
f 31/35/31 30/34/30 28/28/28 29/31/29 
f 26/26/26 31/35/31 29/31/29 27/27/27 
# 6 polygons

#
# object JailProp_Floor_A_Colli02
#

v  -3.5322 0.1158 2.2985
v  -3.5062 0.1417 -4.5150
v  -3.5062 -0.8530 -4.5150
v  -3.5322 -0.8790 2.2985
v  0.3981 -0.8790 2.2985
v  0.3981 0.1158 2.2985
v  0.4241 -0.8530 -4.5150
v  0.4241 0.1417 -4.5150
# 8 vertices

vn -0.5788 0.5759 0.5773
vn -0.5759 0.5788 -0.5773
vn -0.5763 -0.5763 -0.5793
vn -0.5783 -0.5783 0.5754
vn 0.5759 -0.5788 0.5773
vn 0.5763 0.5763 0.5793
vn 0.5788 -0.5759 -0.5773
vn 0.5783 0.5783 -0.5754
# 8 vertex normals

vt 1.0000 0.0000 0.0000
vt 1.0000 0.7878 0.0000
vt 0.0000 0.7878 0.0000
vt 0.0000 0.0000 0.0000
vt 1.0000 0.5605 0.0000
vt 0.0000 0.5605 0.0000
vt 0.7878 0.0000 0.0000
vt 0.7878 0.5605 0.0000
vt 0.2122 0.0000 0.0000
vt 0.2122 0.5605 0.0000
vt 0.4395 0.7878 0.0000
vt 0.5605 0.7878 0.0000
# 12 texture coords

o JailProp_Floor_A_Colli02
g JailProp_Floor_A_Colli02
usemtl wire_137214151
s 2
f 32/36/32 33/37/33 34/38/34 35/39/35 
s 8
f 32/39/32 35/36/35 36/40/36 37/41/37 
s 16
f 35/39/35 34/42/34 38/43/38 36/41/36 
s 64
f 33/44/33 32/36/32 37/40/37 39/45/39 
s off
f 33/37/33 39/46/39 38/47/38 34/38/34 
f 36/40/36 38/43/38 39/45/39 37/41/37 
# 6 polygons

#
# object JailProp_Floor_A_Colli03
#

v  1.7648 -0.8530 -4.5150
v  3.5062 -0.8530 -4.5150
v  3.4982 -0.8611 -2.4014
v  1.7567 -0.8611 -2.4014
v  1.7648 0.1417 -4.5150
v  3.5062 0.1417 -4.5150
v  3.4982 0.1337 -2.4014
v  1.7567 0.1337 -2.4014
# 8 vertices

vn -0.5763 -0.5763 -0.5793
vn 0.5788 -0.5759 -0.5773
vn 0.5759 -0.5788 0.5773
vn -0.5783 -0.5783 0.5754
vn -0.5759 0.5788 -0.5773
vn 0.5783 0.5783 -0.5754
vn 0.5763 0.5763 0.5793
vn -0.5788 0.5759 0.5773
# 8 vertex normals

vt 0.7878 0.7517 0.0000
vt 0.7878 1.0000 0.0000
vt 0.5434 1.0000 0.0000
vt 0.5434 0.7517 0.0000
vt 0.2483 0.7878 0.0000
vt 0.0000 0.7878 0.0000
vt 1.0000 0.7878 0.0000
vt 0.7517 0.7878 0.0000
vt 1.0000 0.5434 0.0000
vt 0.0000 0.5434 0.0000
vt 0.4566 1.0000 0.0000
vt 0.2122 1.0000 0.0000
vt 0.2122 0.7517 0.0000
vt 0.4566 0.7517 0.0000
# 14 texture coords

o JailProp_Floor_A_Colli03
g JailProp_Floor_A_Colli03
usemtl wire_137214151
s 16
f 40/48/40 41/49/41 42/50/42 43/51/43 
s off
f 44/52/44 45/53/45 41/54/41 40/55/40 
s 4
f 42/56/42 41/54/41 45/53/45 46/57/46 
s 64
f 46/58/46 45/59/45 44/60/44 47/61/47 
s off
f 40/48/40 43/51/43 47/61/47 44/60/44 
f 43/51/43 42/50/42 46/57/46 47/61/47 
# 6 polygons

#
# object JailProp_Floor_A_Colli04
#

v  0.4241 -0.8530 -4.5150
v  1.7648 -0.8530 -4.5150
v  1.7616 -0.8561 -3.6941
v  0.4209 -0.8561 -3.6941
v  0.4241 0.1417 -4.5150
v  1.7648 0.1417 -4.5150
v  1.7616 0.1386 -3.6941
v  0.4209 0.1386 -3.6941
# 8 vertices

vn -0.5763 -0.5763 -0.5793
vn 0.5788 -0.5759 -0.5773
vn 0.5759 -0.5788 0.5773
vn -0.5783 -0.5783 0.5754
vn -0.5759 0.5788 -0.5773
vn 0.5783 0.5783 -0.5754
vn 0.5763 0.5763 0.5793
vn -0.5788 0.5759 0.5773
# 8 vertex normals

vt 0.7878 0.5605 0.0000
vt 0.7878 0.7517 0.0000
vt 0.6929 0.7517 0.0000
vt 0.6929 0.5605 0.0000
vt 0.4395 0.7878 0.0000
vt 0.2483 0.7878 0.0000
vt 0.7517 0.7878 0.0000
vt 0.5605 0.7878 0.0000
vt 0.3071 0.7517 0.0000
vt 0.2122 0.7517 0.0000
vt 0.2122 0.5605 0.0000
vt 0.3071 0.5605 0.0000
# 12 texture coords

o JailProp_Floor_A_Colli04
g JailProp_Floor_A_Colli04
usemtl wire_137214151
s 16
f 48/62/48 49/63/49 50/64/50 51/65/51 
s off
f 52/66/52 53/67/53 49/68/49 48/69/48 
s 64
f 54/70/54 53/71/53 52/72/52 55/73/55 
s off
f 48/62/48 51/65/51 55/73/55 52/72/52 
f 51/65/51 50/64/50 54/70/54 55/73/55 
f 50/64/50 49/63/49 53/71/53 54/70/54 
# 6 polygons

#
# object JailProp_Floor_A_Colli09
#

v  1.7635 -0.5203 -2.3914
v  0.8984 -0.5204 -2.7391
v  0.8984 -0.5204 -3.4281
v  1.7668 -0.5203 -3.7488
v  1.4401 0.1367 -2.7255
v  1.7567 0.1368 -2.4014
v  1.7567 0.1368 -3.7421
v  1.4328 0.1367 -3.4254
# 8 vertices

vn 0.4657 -0.5532 0.6907
vn -0.8375 -0.3765 0.3961
vn -0.8314 -0.3769 -0.4083
vn 0.4789 -0.5546 -0.6805
vn -0.4754 0.8460 0.2414
vn 0.3978 0.6019 0.6925
vn 0.4036 0.6019 -0.6890
vn -0.4785 0.8437 -0.2431
# 8 vertex normals

vt 0.6929 0.7517 0.0000
vt 0.5434 0.7517 0.0000
vt 0.5434 0.5605 0.0000
vt 0.6929 0.5605 0.0000
vt 0.4566 0.7517 0.0000
vt 0.3071 0.7517 0.0000
vt 0.3071 0.5605 0.0000
vt 0.4566 0.5605 0.0000
# 8 texture coords

o JailProp_Floor_A_Colli09
g JailProp_Floor_A_Colli09
usemtl wire_137214151
s 16
f 56/74/56 57/75/57 58/76/58 59/77/59 
s 64
f 60/78/60 61/79/61 62/80/62 63/81/63 
s off
f 57/75/57 61/79/61 60/78/60 
f 56/74/56 59/77/59 62/80/62 61/79/61 
f 59/77/59 58/76/58 62/80/62 
f 58/76/58 57/75/57 60/78/60 63/81/63 
f 57/75/57 56/74/56 61/79/61 
f 58/76/58 63/81/63 62/80/62 
# 4 polygons - 4 triangles

#
# object JailProp_Floor_A_Colli05
#

v  1.7616 -0.8562 -3.6941
v  1.7567 -0.8611 -2.4014
v  0.4160 -0.8611 -2.4014
v  0.4209 -0.8562 -3.6941
v  1.7567 -0.0509 -2.4014
v  1.7616 -0.0460 -3.6941
v  0.4209 -0.0460 -3.6941
v  0.4160 -0.0509 -2.4014
# 8 vertices

vn 0.5788 -0.5759 -0.5773
vn 0.5759 -0.5788 0.5773
vn -0.5783 -0.5783 0.5754
vn -0.5763 -0.5763 -0.5793
vn 0.5763 0.5763 0.5793
vn 0.5783 0.5783 -0.5754
vn -0.5759 0.5788 -0.5773
vn -0.5788 0.5759 0.5773
# 8 vertex normals

vt 0.6929 0.7517 0.0000
vt 0.5434 0.7517 0.0000
vt 0.5434 0.5605 0.0000
vt 0.6929 0.5605 0.0000
vt 0.4566 0.7517 0.0000
vt 0.3071 0.7517 0.0000
vt 0.3071 0.5605 0.0000
vt 0.4566 0.5605 0.0000
# 8 texture coords

o JailProp_Floor_A_Colli05
g JailProp_Floor_A_Colli05
usemtl wire_137214151
s 16
f 64/82/64 65/83/65 66/84/66 67/85/67 
s 64
f 68/86/68 69/87/69 70/88/70 71/89/71 
s off
f 65/83/65 64/82/64 69/87/69 68/86/68 
f 64/82/64 67/85/67 70/88/70 69/87/69 
f 67/85/67 66/84/66 71/89/71 70/88/70 
f 66/84/66 65/83/65 68/86/68 71/89/71 
# 6 polygons

