# 3ds Max Wavefront OBJ Exporter v0.99 - (c)2007 guruware
# File Created: 20.01.2026 12:30:42

mtllib JailProp_FrontWall_Collider.mtl

#
# object JailProp_FrontWall_Colli_01
#

v  3.5322 -0.8660 4.5150
v  -0.2445 -0.8660 4.5150
v  -0.2445 -0.8660 2.2985
v  3.5322 -0.8660 2.2985
v  3.5322 3.3018 4.5150
v  3.5322 3.3018 2.2985
v  -0.2445 3.3018 2.2985
v  -0.2445 3.3018 4.5150
# 8 vertices

vn 0.5774 -0.5774 0.5774
vn -0.5774 -0.5774 0.5774
vn -0.5774 -0.5774 -0.5774
vn 0.5774 -0.5774 -0.5774
vn 0.5774 0.5774 0.5774
vn 0.5774 0.5774 -0.5774
vn -0.5774 0.5774 -0.5774
vn -0.5774 0.5774 0.5774
# 8 vertex normals

vt 1.0000 0.0000 0.0000
vt 1.0000 0.4212 0.0000
vt 0.0000 0.4212 0.0000
vt 0.0000 0.0000 0.0000
vt 1.0000 1.0000 0.0000
vt 0.0000 1.0000 0.0000
vt 0.4212 0.0000 0.0000
vt 0.4212 1.0000 0.0000
vt 0.5788 0.0000 0.0000
vt 0.5788 1.0000 0.0000
# 10 texture coords

o JailProp_FrontWall_Colli_01
g JailProp_FrontWall_Colli_01
usemtl wire_137214151
s 2
f 1/1/1 2/2/2 3/3/3 4/4/4 
s 4
f 5/4/5 6/1/6 7/2/7 8/3/8 
s 8
f 1/4/1 4/1/4 6/5/6 5/6/5 
s 16
f 4/4/4 3/7/3 7/8/7 6/6/6 
s 64
f 2/9/2 1/1/1 5/5/5 8/10/8 
s off
f 2/2/2 8/3/8 7/2/7 3/3/3 
# 6 polygons

#
# object JailProp_FrontWall_Colli_02
#

v  -3.5322 -0.8660 4.5150
v  -1.1105 -0.8660 4.5150
v  -1.1105 3.3018 4.5150
v  -3.5322 3.3018 4.5150
v  -3.5322 3.3018 2.2985
v  -3.5322 -0.8660 2.2985
v  -1.1105 -0.8660 2.2985
v  -1.1105 3.3018 2.2985
# 8 vertices

vn -0.5774 -0.5774 0.5774
vn 0.5774 -0.5774 0.5774
vn 0.5774 0.5774 0.5774
vn -0.5774 0.5774 0.5774
vn -0.5774 0.5774 -0.5774
vn -0.5774 -0.5774 -0.5774
vn 0.5774 -0.5774 -0.5774
vn 0.5774 0.5774 -0.5774
# 8 vertex normals

vt 0.2122 0.0000 0.0000
vt 0.4823 0.0000 0.0000
vt 0.4823 1.0000 0.0000
vt 0.2122 1.0000 0.0000
vt 1.0000 0.7878 0.0000
vt 0.0000 0.7878 0.0000
vt 1.0000 0.5177 0.0000
vt 0.0000 0.5177 0.0000
vt 0.5177 0.0000 0.0000
vt 0.7878 0.0000 0.0000
vt 0.7878 1.0000 0.0000
vt 0.5177 1.0000 0.0000
# 12 texture coords

o JailProp_FrontWall_Colli_02
g JailProp_FrontWall_Colli_02
usemtl wire_137214151
s 64
f 9/11/9 10/12/10 11/13/11 12/14/12 
s off
f 9/15/9 12/16/12 13/15/13 14/16/14 
s 2
f 10/17/10 9/15/9 14/16/14 15/18/15 
s 16
f 15/19/15 14/20/14 13/21/13 16/22/16 
s off
f 11/13/11 10/12/10 15/18/15 16/22/16 
f 12/14/12 11/13/11 16/22/16 13/21/13 
# 6 polygons

#
# object JailProp_FrontWall_Colli_03
#

v  -0.2445 3.3018 2.2985
v  -1.1105 3.3018 2.2985
v  -1.1105 3.3018 4.5150
v  -0.2445 3.3018 4.5150
v  -0.2445 0.7469 4.5150
v  -1.1105 0.7469 4.5150
v  -1.1105 0.7469 2.2985
v  -0.2445 0.7469 2.2985
# 8 vertices

vn 0.5774 0.5774 -0.5774
vn -0.5774 0.5774 -0.5774
vn -0.5774 0.5774 0.5774
vn 0.5774 0.5774 0.5774
vn 0.5774 -0.5774 0.5774
vn -0.5774 -0.5774 0.5774
vn -0.5774 -0.5774 -0.5774
vn 0.5774 -0.5774 -0.5774
# 8 vertex normals

vt 1.0000 0.4212 0.0000
vt 1.0000 0.5177 0.0000
vt 0.0000 0.5177 0.0000
vt 0.0000 0.4212 0.0000
vt 0.5788 0.1981 0.0000
vt 0.5788 1.0000 0.0000
vt 0.4823 1.0000 0.0000
vt 0.4823 0.1981 0.0000
vt 0.5177 0.1981 0.0000
vt 0.5177 1.0000 0.0000
vt 0.4212 1.0000 0.0000
vt 0.4212 0.1981 0.0000
# 12 texture coords

o JailProp_FrontWall_Colli_03
g JailProp_FrontWall_Colli_03
usemtl wire_137214151
s 4
f 17/23/17 18/24/18 19/25/19 20/26/20 
s 64
f 21/27/21 20/28/20 19/29/19 22/30/22 
s 16
f 23/31/23 18/32/18 17/33/17 24/34/24 
s off
f 21/27/21 22/30/22 23/31/23 24/34/24 
f 20/28/20 21/27/21 24/34/24 17/23/17 
f 22/30/22 19/25/19 18/24/18 23/31/23 
# 6 polygons

#
# object JailProp_FrontWall_Colli_05
#

v  -0.2445 0.1623 4.5150
v  -0.2445 0.7469 4.5150
v  -1.1105 0.7469 4.5150
v  -1.1105 0.1623 4.5150
v  -1.1105 0.1623 2.9348
v  -1.1105 0.7469 2.9348
v  -0.2445 0.7469 2.9348
v  -0.2445 0.1623 2.9348
# 8 vertices

vn 0.5774 -0.5774 0.5774
vn 0.5774 0.5774 0.5774
vn -0.5774 0.5774 0.5774
vn -0.5774 -0.5774 0.5774
vn -0.5774 -0.5774 -0.5774
vn -0.5774 0.5774 -0.5774
vn 0.5774 0.5774 -0.5774
vn 0.5774 -0.5774 -0.5774
# 8 vertex normals

vt 0.5788 0.0322 0.0000
vt 0.5788 0.1981 0.0000
vt 0.4823 0.1981 0.0000
vt 0.4823 0.0322 0.0000
vt 0.5177 0.0322 0.0000
vt 0.5177 0.1981 0.0000
vt 0.4212 0.1981 0.0000
vt 0.4212 0.0322 0.0000
# 8 texture coords

o JailProp_FrontWall_Colli_05
g JailProp_FrontWall_Colli_05
usemtl wire_137214151
s 64
f 25/35/25 26/36/26 27/37/27 28/38/28 
s 16
f 29/39/29 30/40/30 31/41/31 32/42/32 
s off
f 27/37/27 26/36/26 31/41/31 30/40/30 
f 26/36/26 25/35/25 32/42/32 31/41/31 
f 28/38/28 27/37/27 30/40/30 29/39/29 
f 25/35/25 28/38/28 29/39/29 32/42/32 
# 6 polygons

#
# object JailProp_FrontWall_Colli_04
#

v  -1.1105 -0.8660 4.5150
v  -0.2445 -0.8660 4.5150
v  -0.2445 0.2183 4.5150
v  -1.1105 0.2183 4.5150
v  -1.1105 -0.8660 2.2985
v  -0.2445 -0.8660 2.2985
v  -1.1105 0.2183 2.2985
v  -0.2445 0.2183 2.2985
# 8 vertices

vn -0.5774 -0.5774 0.5774
vn 0.5774 -0.5774 0.5774
vn 0.5774 0.5774 0.5774
vn -0.5774 0.5774 0.5774
vn -0.5774 -0.5774 -0.5774
vn 0.5774 -0.5774 -0.5774
vn -0.5774 0.5774 -0.5774
vn 0.5774 0.5774 -0.5774
# 8 vertex normals

vt 0.4823 0.0000 0.0000
vt 0.5788 0.0000 0.0000
vt 0.5788 0.0322 0.0000
vt 0.4823 0.0322 0.0000
vt 1.0000 0.4212 0.0000
vt 1.0000 0.5177 0.0000
vt 0.0000 0.5177 0.0000
vt 0.0000 0.4212 0.0000
vt 0.4212 0.0000 0.0000
vt 0.5177 0.0000 0.0000
vt 0.5177 0.0322 0.0000
vt 0.4212 0.0322 0.0000
# 12 texture coords

o JailProp_FrontWall_Colli_04
g JailProp_FrontWall_Colli_04
usemtl wire_137214151
s 64
f 33/43/33 34/44/34 35/45/35 36/46/36 
s 2
f 34/47/34 33/48/33 37/49/37 38/50/38 
s 16
f 38/51/38 37/52/37 39/53/39 40/54/40 
s off
f 33/48/33 36/46/36 39/53/39 37/49/37 
f 36/46/36 35/45/35 40/54/40 39/53/39 
f 35/45/35 34/44/34 38/50/38 40/54/40 
# 6 polygons

