# 3ds Max Wavefront OBJ Exporter v0.99 - (c)2007 guruware
# File Created: 20.01.2026 12:31:09

mtllib JailProp_LeftWall_A_Collider.mtl

#
# object JailProp_LeftWall_A_Colli01
#

v  3.5062 0.1417 -4.5150
v  3.5222 0.1257 -0.3127
v  3.5222 3.2918 -0.3127
v  3.5062 3.2758 -4.5150
v  3.7919 3.2758 -4.5150
v  3.7919 0.1417 -4.5150
v  3.8080 0.1257 -0.3127
v  3.8080 3.2918 -0.3127
# 8 vertices

vn -0.5788 -0.5759 -0.5773
vn -0.5759 -0.5788 0.5773
vn -0.5759 0.5788 0.5773
vn -0.5788 0.5759 -0.5773
vn 0.5763 0.5763 -0.5793
vn 0.5763 -0.5763 -0.5793
vn 0.5783 -0.5783 0.5754
vn 0.5783 0.5783 0.5754
# 8 vertex normals

vt 0.2122 0.0000 0.0000
vt 0.6981 0.0000 0.0000
vt 0.6981 1.0000 0.0000
vt 0.2122 1.0000 0.0000
vt 1.0000 0.7878 0.0000
vt 0.0000 0.7878 0.0000
vt 1.0000 0.3019 0.0000
vt 0.0000 0.3019 0.0000
vt 0.3019 0.0000 0.0000
vt 0.7878 0.0000 0.0000
vt 0.7878 1.0000 0.0000
vt 0.3019 1.0000 0.0000
# 12 texture coords

o JailProp_LeftWall_A_Colli01
g JailProp_LeftWall_A_Colli01
usemtl wire_137214151
s 64
f 1/1/1 2/2/2 3/3/3 4/4/4 
s off
f 1/5/1 4/6/4 5/5/5 6/6/6 
s 2
f 2/7/2 1/5/1 6/6/6 7/8/7 
s 4
f 8/7/8 5/5/5 4/6/4 3/8/3 
s 16
f 7/9/7 6/10/6 5/11/5 8/12/8 
s off
f 7/8/7 8/7/8 3/3/3 2/2/2 
# 6 polygons

#
# object JailProp_LeftWall_A_Colli02
#

v  3.5322 0.1158 2.2985
v  3.5236 0.1244 0.0450
v  3.8093 0.1244 0.0450
v  3.8179 0.1158 2.2985
v  3.5322 3.3018 2.2985
v  3.8179 3.3018 2.2985
v  3.8093 3.2932 0.0450
v  3.5236 3.2932 0.0450
# 8 vertices

vn -0.5759 -0.5788 0.5773
vn -0.5788 -0.5759 -0.5773
vn 0.5763 -0.5763 -0.5793
vn 0.5783 -0.5783 0.5754
vn -0.5759 0.5788 0.5773
vn 0.5783 0.5783 0.5754
vn 0.5763 0.5763 -0.5793
vn -0.5788 0.5759 -0.5773
# 8 vertex normals

vt 1.0000 0.0000 0.0000
vt 1.0000 0.2606 0.0000
vt 0.0000 0.2606 0.0000
vt 0.0000 0.0000 0.0000
vt 1.0000 1.0000 0.0000
vt 0.0000 1.0000 0.0000
vt 0.2606 0.0000 0.0000
vt 0.2606 1.0000 0.0000
vt 0.7394 0.0000 0.0000
vt 0.7394 1.0000 0.0000
# 10 texture coords

o JailProp_LeftWall_A_Colli02
g JailProp_LeftWall_A_Colli02
usemtl wire_137214151
s 2
f 9/13/9 10/14/10 11/15/11 12/16/12 
s 4
f 13/16/13 14/13/14 15/14/15 16/15/16 
s 8
f 9/16/9 12/13/12 14/17/14 13/18/13 
s 16
f 12/16/12 11/19/11 15/20/15 14/18/14 
s 64
f 10/21/10 9/13/9 13/17/13 16/22/16 
s off
f 15/14/15 11/15/11 10/14/10 16/15/16 
# 6 polygons

#
# object JailProp_LeftWall_A_Colli03
#

v  3.8093 3.2932 0.0450
v  3.8080 3.2918 -0.3127
v  3.5222 3.2918 -0.3127
v  3.5236 3.2932 0.0450
v  3.5236 1.8802 0.0450
v  3.5222 1.8801 -0.3127
v  3.8080 1.8801 -0.3127
v  3.8093 1.8802 0.0450
# 8 vertices

vn 0.5783 0.5783 0.5754
vn 0.5763 0.5763 -0.5793
vn -0.5788 0.5760 -0.5773
vn -0.5759 0.5788 0.5773
vn -0.5762 -0.5774 0.5784
vn -0.5785 -0.5773 -0.5763
vn 0.5761 -0.5777 -0.5782
vn 0.5786 -0.5770 0.5764
# 8 vertex normals

vt 1.0000 0.2606 0.0000
vt 1.0000 0.3019 0.0000
vt 0.0000 0.3019 0.0000
vt 0.0000 0.2606 0.0000
vt 0.7394 0.5541 0.0000
vt 0.7394 1.0000 0.0000
vt 0.6981 1.0000 0.0000
vt 0.6981 0.5541 0.0000
vt 0.3019 0.5541 0.0000
vt 0.3019 1.0000 0.0000
vt 0.2606 1.0000 0.0000
vt 0.2606 0.5541 0.0000
# 12 texture coords

o JailProp_LeftWall_A_Colli03
g JailProp_LeftWall_A_Colli03
usemtl wire_137214151
s 4
f 17/23/17 18/24/18 19/25/19 20/26/20 
s 64
f 21/27/21 20/28/20 19/29/19 22/30/22 
s 16
f 23/31/23 18/32/18 17/33/17 24/34/24 
s off
f 18/24/18 23/31/23 22/30/22 19/25/19 
f 24/34/24 17/23/17 20/28/20 21/27/21 
f 23/31/23 24/34/24 21/27/21 22/30/22 
# 6 polygons

#
# object JailProp_LeftWall_A_Colli04
#

v  3.5222 0.1257 -0.3127
v  3.5236 0.1244 0.0450
v  3.5236 1.6949 0.0450
v  3.5222 1.6950 -0.3127
v  3.8080 0.1257 -0.3127
v  3.8093 0.1244 0.0450
v  3.8080 1.6950 -0.3127
v  3.8093 1.6949 0.0450
# 8 vertices

vn -0.5788 -0.5759 -0.5773
vn -0.5759 -0.5788 0.5773
vn -0.5762 0.5775 0.5783
vn -0.5785 0.5772 -0.5764
vn 0.5763 -0.5763 -0.5793
vn 0.5783 -0.5783 0.5754
vn 0.5761 0.5776 -0.5784
vn 0.5786 0.5771 0.5763
# 8 vertex normals

vt 0.6981 0.0000 0.0000
vt 0.7394 0.0000 0.0000
vt 0.7394 0.4956 0.0000
vt 0.6981 0.4956 0.0000
vt 1.0000 0.2606 0.0000
vt 1.0000 0.3019 0.0000
vt 0.0000 0.3019 0.0000
vt 0.0000 0.2606 0.0000
vt 0.2606 0.0000 0.0000
vt 0.3019 0.0000 0.0000
vt 0.3019 0.4956 0.0000
vt 0.2606 0.4956 0.0000
# 12 texture coords

o JailProp_LeftWall_A_Colli04
g JailProp_LeftWall_A_Colli04
usemtl wire_137214151
s 64
f 25/35/25 26/36/26 27/37/27 28/38/28 
s 2
f 26/39/26 25/40/25 29/41/29 30/42/30 
s 16
f 30/43/30 29/44/29 31/45/31 32/46/32 
s off
f 31/45/31 29/41/29 25/40/25 28/38/28 
f 30/42/30 32/46/32 27/37/27 26/36/26 
f 32/46/32 31/45/31 28/38/28 27/37/27 
# 6 polygons

#
# object JailProp_LeftWall_A_Colli05
#

v  3.6490 1.6949 0.0450
v  3.6490 1.8802 0.0450
v  3.6489 1.8801 -0.3127
v  3.6489 1.6950 -0.3127
v  3.8080 1.6950 -0.3127
v  3.8080 1.8801 -0.3127
v  3.8093 1.8802 0.0450
v  3.8093 1.6949 0.0450
# 8 vertices

vn -0.5772 -0.5774 0.5775
vn -0.5772 0.5775 0.5774
vn -0.5775 0.5772 -0.5773
vn -0.5775 -0.5773 -0.5772
vn 0.5762 -0.5775 -0.5783
vn 0.5762 0.5774 -0.5784
vn 0.5785 0.5773 0.5763
vn 0.5785 -0.5772 0.5764
# 8 vertex normals

vt 0.7394 0.4956 0.0000
vt 0.7394 0.5541 0.0000
vt 0.6981 0.5541 0.0000
vt 0.6981 0.4956 0.0000
vt 0.3019 0.4956 0.0000
vt 0.3019 0.5541 0.0000
vt 0.2606 0.5541 0.0000
vt 0.2606 0.4956 0.0000
# 8 texture coords

o JailProp_LeftWall_A_Colli05
g JailProp_LeftWall_A_Colli05
usemtl wire_137214151
s 64
f 33/47/33 34/48/34 35/49/35 36/50/36 
s 16
f 37/51/37 38/52/38 39/53/39 40/54/40 
s off
f 38/52/38 37/51/37 36/50/36 35/49/35 
f 39/53/39 38/52/38 35/49/35 34/48/34 
f 37/51/37 40/54/40 33/47/33 36/50/36 
f 40/54/40 39/53/39 34/48/34 33/47/33 
# 6 polygons

