# 3ds Max Wavefront OBJ Exporter v0.99 - (c)2007 guruware
# File Created: 20.01.2026 12:49:17

mtllib JailProp_SteelBarred_Collider.mtl

#
# object JailProp_SteelBarred_Colli01
#

v  3.6264 -0.8920 -4.0515
v  3.6264 -0.8920 -4.4000
v  3.6264 2.6324 -4.4000
v  3.6264 2.6324 -4.0515
v  0.8466 -0.8920 -4.4000
v  0.8466 2.6324 -4.4000
v  0.8466 -0.8920 -4.0515
v  0.8466 2.6324 -4.0515
# 8 vertices

vn 0.5774 -0.5774 0.5774
vn 0.5774 -0.5774 -0.5774
vn 0.5774 0.5774 -0.5774
vn 0.5774 0.5774 0.5774
vn -0.5774 -0.5774 -0.5774
vn -0.5774 0.5774 -0.5774
vn -0.5774 -0.5774 0.5774
vn -0.5774 0.5774 0.5774
# 8 vertex normals

vt 0.0000 0.0000 0.0000
vt 1.0000 0.0000 0.0000
vt 1.0000 0.7777 0.0000
vt 0.0000 0.7777 0.0000
vt 0.3808 0.0000 0.0000
vt 0.3808 0.7777 0.0000
vt 0.3808 1.0000 0.0000
vt 0.0000 1.0000 0.0000
vt 0.6192 0.0000 0.0000
vt 0.6192 0.7777 0.0000
# 10 texture coords

o JailProp_SteelBarred_Colli01
g JailProp_SteelBarred_Colli01
usemtl wire_168183223
s 16
f 1/1/1 2/2/2 3/3/3 4/4/4 
s 32
f 2/1/2 5/5/5 6/6/6 3/4/3 
s 2
f 5/7/5 2/8/2 1/1/1 7/5/7 
s 8
f 7/9/7 1/2/1 4/3/4 8/10/8 
s off
f 7/5/7 8/10/8 6/6/6 5/5/5 
f 8/10/8 4/3/4 3/3/3 6/6/6 
# 6 polygons

#
# object JailProp_SteelBarred_Colli03
#

v  -3.6743 3.6400 -4.0515
v  3.6264 3.6400 -4.0515
v  3.6264 3.6400 -4.4000
v  -3.6743 3.6400 -4.4000
v  3.6264 2.6324 -4.0515
v  -3.6743 2.6324 -4.0515
v  3.6264 2.6324 -4.4000
v  -3.6743 2.6324 -4.4000
# 8 vertices

vn -0.5774 0.5774 0.5774
vn 0.5774 0.5774 0.5774
vn 0.5774 0.5774 -0.5774
vn -0.5774 0.5774 -0.5774
vn 0.5774 -0.5774 0.5774
vn -0.5774 -0.5774 0.5774
vn 0.5774 -0.5774 -0.5774
vn -0.5774 -0.5774 -0.5774
# 8 vertex normals

vt 0.0000 0.0000 0.0000
vt 1.0000 0.0000 0.0000
vt 1.0000 1.0000 0.0000
vt 0.0000 1.0000 0.0000
vt 1.0000 0.7777 0.0000
vt 0.0000 0.7777 0.0000
# 6 texture coords

o JailProp_SteelBarred_Colli03
g JailProp_SteelBarred_Colli03
usemtl wire_168183223
s 4
f 9/11/9 10/12/10 11/13/11 12/14/12 
s 8
f 13/15/13 10/13/10 9/14/9 14/16/14 
s 16
f 15/15/15 11/13/11 10/14/10 13/16/13 
s 32
f 16/15/16 12/13/12 11/14/11 15/16/15 
s 64
f 14/15/14 9/13/9 12/14/12 16/16/16 
s off
f 13/16/13 14/16/14 16/16/16 15/15/15 
# 6 polygons

#
# object JailProp_SteelBarred_Colli02
#

v  -3.6743 -0.8920 -4.0515
v  -3.6743 -0.8920 -4.4000
v  -0.5935 -0.8920 -4.4000
v  -0.5935 -0.8920 -4.0515
v  -0.5935 2.6324 -4.0515
v  -3.6743 2.6324 -4.0515
v  -3.6743 2.6324 -4.4000
v  -0.5935 2.6324 -4.4000
# 8 vertices

vn -0.5774 -0.5774 0.5774
vn -0.5774 -0.5774 -0.5774
vn 0.5774 -0.5774 -0.5774
vn 0.5774 -0.5774 0.5774
vn 0.5774 0.5774 0.5774
vn -0.5774 0.5774 0.5774
vn -0.5774 0.5774 -0.5774
vn 0.5774 0.5774 -0.5774
# 8 vertex normals

vt 1.0000 0.0000 0.0000
vt 1.0000 1.0000 0.0000
vt 0.5780 1.0000 0.0000
vt 0.5780 0.0000 0.0000
vt 0.0000 0.0000 0.0000
vt 0.4220 0.0000 0.0000
vt 0.4220 0.7777 0.0000
vt 0.0000 0.7777 0.0000
vt 1.0000 0.7777 0.0000
vt 0.5780 0.7777 0.0000
# 10 texture coords

o JailProp_SteelBarred_Colli02
g JailProp_SteelBarred_Colli02
usemtl wire_168183223
s 2
f 17/17/17 18/18/18 19/19/19 20/20/20 
s 8
f 17/21/17 20/22/20 21/23/21 22/24/22 
s 64
f 18/21/18 17/17/17 22/25/22 23/24/23 
s 32
f 19/20/19 18/17/18 23/25/23 24/26/24 
s off
f 19/19/19 24/26/24 21/23/21 20/20/20 
f 22/24/22 21/23/21 24/26/24 23/25/23 
# 6 polygons

