# 3ds Max Wavefront OBJ Exporter v0.99 - (c)2007 guruware
# File Created: 18.12.2025 18:47:17

mtllib ExitHingedDoor_00.mtl

#
# object ExitHingedDoor_00
#

v  0.0454 1.4847 -1.6950
v  0.0000 1.4847 -1.6950
v  0.0000 1.4847 -0.0001
v  0.0454 1.4847 -0.0001
v  0.0454 -1.4847 -1.6950
v  0.0454 1.4033 -1.6485
v  0.0454 -1.4033 -1.6485
v  0.0454 1.4033 -0.0466
v  0.0454 -1.4847 -0.0001
v  0.0454 -1.4033 -0.0466
v  0.0454 0.7054 -1.3792
v  0.0454 0.7054 -0.3159
v  0.0243 0.7054 -0.3159
v  0.0243 0.7054 -1.3792
v  0.0454 0.4988 -0.3159
v  0.0243 0.4988 -0.3159
v  0.0454 0.4988 -1.3792
v  0.0243 0.4988 -1.3792
v  0.0162 0.7325 -1.4101
v  0.0162 0.7325 -0.2850
v  0.0000 0.7325 -0.2850
v  0.0000 0.7325 -1.4101
v  0.0162 0.4717 -0.2850
v  0.0000 0.4717 -0.2850
v  0.0162 0.4717 -1.4101
v  0.0454 0.7370 -1.4153
v  0.0454 0.4672 -1.4153
v  0.0454 0.7370 -0.2798
v  0.0454 0.4672 -0.2798
v  0.0775 1.3642 -1.6094
v  0.0775 0.7761 -1.4543
v  0.0775 0.4281 -1.4543
v  0.0775 -1.3642 -1.6094
v  0.0775 1.3642 -0.0857
v  0.0775 0.7761 -0.2408
v  0.0775 -1.3642 -0.0857
v  0.0775 0.4281 -0.2408
v  0.0674 0.4672 -1.4153
v  0.0674 0.7370 -1.4153
v  0.0674 0.4672 -0.2798
v  0.0674 0.7370 -0.2798
v  0.0674 1.4033 -1.6485
v  0.0674 -1.4033 -1.6485
v  0.0674 1.4033 -0.0466
v  0.0674 -1.4033 -0.0466
v  0.0000 -1.4847 -0.0001
v  0.0000 -1.4847 -1.6950
v  0.0000 0.4717 -1.4101
v  -0.0454 1.4847 -1.6950
v  -0.0454 1.4847 -0.0001
v  -0.0454 -1.4847 -1.6950
v  -0.0454 -1.4033 -1.6485
v  -0.0454 1.4033 -1.6485
v  -0.0454 1.4033 -0.0466
v  -0.0454 -1.4033 -0.0466
v  -0.0454 -1.4847 -0.0001
v  -0.0454 0.7054 -1.3792
v  -0.0243 0.7054 -1.3792
v  -0.0243 0.7054 -0.3159
v  -0.0454 0.7054 -0.3159
v  -0.0243 0.4988 -0.3159
v  -0.0454 0.4988 -0.3159
v  -0.0243 0.4988 -1.3792
v  -0.0454 0.4988 -1.3792
v  -0.0162 0.7325 -1.4101
v  -0.0162 0.7325 -0.2850
v  -0.0162 0.4717 -0.2850
v  -0.0162 0.4717 -1.4101
v  -0.0454 0.7370 -1.4153
v  -0.0454 0.4672 -1.4153
v  -0.0454 0.7370 -0.2798
v  -0.0454 0.4672 -0.2798
v  -0.0775 1.3642 -1.6094
v  -0.0775 -1.3642 -1.6094
v  -0.0775 0.4281 -1.4543
v  -0.0775 0.7761 -1.4543
v  -0.0775 1.3642 -0.0857
v  -0.0775 0.7761 -0.2408
v  -0.0775 -1.3642 -0.0857
v  -0.0775 0.4281 -0.2408
v  -0.0674 0.7370 -1.4153
v  -0.0674 0.4672 -1.4153
v  -0.0674 0.4672 -0.2798
v  -0.0674 0.7370 -0.2798
v  -0.0674 -1.4033 -1.6485
v  -0.0674 1.4033 -1.6485
v  -0.0674 1.4033 -0.0466
v  -0.0674 -1.4033 -0.0466
v  -0.0868 0.0788 -1.4714
v  -0.0848 0.0812 -1.4700
v  -0.0849 0.0881 -1.4957
v  -0.0868 0.0853 -1.4957
v  -0.0868 0.0610 -1.4536
v  -0.0848 0.0624 -1.4512
v  -0.0868 0.0367 -1.4471
v  -0.0848 0.0367 -1.4443
v  -0.0868 0.0124 -1.4536
v  -0.0848 0.0110 -1.4512
v  -0.0868 -0.0054 -1.4714
v  -0.0848 -0.0078 -1.4700
v  -0.0868 -0.0119 -1.4957
v  -0.0849 -0.0147 -1.4957
v  -0.0796 0.0812 -1.4700
v  -0.0796 0.0881 -1.4957
v  -0.0796 0.0624 -1.4512
v  -0.0796 0.0367 -1.4443
v  -0.0796 0.0110 -1.4512
v  -0.0796 -0.0078 -1.4700
v  -0.0796 -0.0147 -1.4957
v  -0.0895 0.0678 -1.4957
v  -0.0895 0.0636 -1.4801
v  -0.0895 0.0523 -1.4687
v  -0.0895 0.0367 -1.4646
v  -0.0895 0.0212 -1.4687
v  -0.0895 0.0098 -1.4801
v  -0.0895 0.0056 -1.4957
v  -0.0895 0.0658 -1.4957
v  -0.0895 0.0619 -1.4811
v  -0.0895 0.0513 -1.4704
v  -0.0895 0.0367 -1.4665
v  -0.0895 0.0221 -1.4704
v  -0.0895 0.0115 -1.4811
v  -0.0895 0.0076 -1.4957
v  -0.0872 0.0658 -1.4957
v  -0.0872 0.0619 -1.4811
v  -0.0872 0.0513 -1.4704
v  -0.0872 0.0367 -1.4665
v  -0.0872 0.0221 -1.4704
v  -0.0872 0.0115 -1.4811
v  -0.0872 0.0076 -1.4957
v  0.0000 0.0658 -1.4957
v  0.0000 0.0619 -1.4811
v  0.0000 0.0513 -1.4704
v  0.0000 0.0367 -1.4665
v  0.0000 0.0221 -1.4704
v  0.0000 0.0115 -1.4811
v  0.0000 0.0076 -1.4957
v  -0.0822 0.0565 -1.4957
v  -0.0822 0.0546 -1.4893
v  -0.0850 0.0610 -1.4816
v  -0.0850 0.0648 -1.4957
v  -0.0822 0.0496 -1.4847
v  -0.0850 0.0508 -1.4713
v  -0.0822 0.0445 -1.4833
v  -0.0850 0.0367 -1.4676
v  -0.0822 0.0387 -1.4847
v  -0.0850 0.0227 -1.4713
v  -0.0822 0.0356 -1.4889
v  -0.0822 0.0352 -1.4892
v  -0.0853 0.0617 -1.4812
v  -0.0853 0.0656 -1.4957
v  -0.0853 0.0511 -1.4706
v  -0.0853 0.0367 -1.4668
v  -0.0853 0.0223 -1.4706
v  -0.0850 0.0124 -1.4816
v  -0.0853 0.0117 -1.4812
v  -0.0850 0.0086 -1.4957
v  -0.0853 0.0078 -1.4957
v  0.0000 0.0617 -1.4812
v  0.0000 0.0656 -1.4957
v  0.0000 0.0511 -1.4706
v  0.0000 0.0367 -1.4668
v  0.0000 0.0223 -1.4706
v  0.0000 0.0117 -1.4812
v  0.0000 0.0078 -1.4957
v  -0.0822 0.0164 -1.4870
v  -0.0822 0.0156 -1.4957
v  -0.0811 0.0559 -1.4957
v  -0.0811 0.0542 -1.4898
v  -0.0811 0.0496 -1.4854
v  -0.0811 0.0445 -1.4842
v  -0.0811 0.0387 -1.4855
v  -0.0811 0.0356 -1.4894
v  -0.0822 0.0177 -1.4862
v  -0.0811 0.0175 -1.4868
v  -0.0811 0.0167 -1.4874
v  -0.0811 0.0160 -1.4957
v  -0.0792 0.0559 -1.4957
v  -0.0792 0.0542 -1.4898
v  -0.0792 0.0496 -1.4854
v  -0.0792 0.0445 -1.4842
v  -0.0792 0.0387 -1.4855
v  -0.0792 0.0356 -1.4894
v  -0.0811 0.0347 -1.4897
v  -0.0792 0.0347 -1.4897
v  -0.0792 0.0175 -1.4868
v  -0.0792 0.0167 -1.4874
v  -0.0792 0.0160 -1.4957
v  0.0000 0.0559 -1.4957
v  0.0000 0.0542 -1.4898
v  0.0000 0.0496 -1.4854
v  0.0000 0.0445 -1.4842
v  0.0000 0.0387 -1.4855
v  0.0000 0.0356 -1.4894
v  0.0000 0.0347 -1.4897
v  0.0000 0.0175 -1.4868
v  0.0000 0.0167 -1.4874
v  0.0000 0.0160 -1.4957
v  -0.0822 0.0347 -1.4892
v  -0.0811 0.0352 -1.4898
v  -0.0792 0.0352 -1.4898
v  0.0000 0.0352 -1.4898
v  -0.0868 0.0788 -1.5199
v  -0.0849 0.0812 -1.5214
v  -0.0868 0.0610 -1.5377
v  -0.0849 0.0624 -1.5402
v  -0.0868 0.0367 -1.5442
v  -0.0849 0.0367 -1.5470
v  -0.0868 0.0124 -1.5377
v  -0.0849 0.0110 -1.5402
v  -0.0868 -0.0054 -1.5199
v  -0.0849 -0.0078 -1.5214
v  -0.0796 0.0812 -1.5214
v  -0.0796 0.0624 -1.5402
v  -0.0796 0.0367 -1.5470
v  -0.0796 0.0110 -1.5402
v  -0.0796 -0.0078 -1.5214
v  -0.0895 0.0636 -1.5112
v  -0.0895 0.0523 -1.5226
v  -0.0895 0.0367 -1.5268
v  -0.0895 0.0212 -1.5226
v  -0.0895 0.0098 -1.5112
v  -0.0895 0.0619 -1.5102
v  -0.0895 0.0513 -1.5209
v  -0.0895 0.0367 -1.5248
v  -0.0895 0.0221 -1.5209
v  -0.0895 0.0115 -1.5102
v  -0.0872 0.0619 -1.5102
v  -0.0872 0.0513 -1.5209
v  -0.0872 0.0367 -1.5248
v  -0.0872 0.0221 -1.5209
v  -0.0872 0.0115 -1.5102
v  0.0000 0.0619 -1.5102
v  0.0000 0.0513 -1.5209
v  0.0000 0.0367 -1.5248
v  0.0000 0.0221 -1.5209
v  0.0000 0.0115 -1.5102
v  -0.0850 0.0610 -1.5097
v  -0.0822 0.0546 -1.5020
v  -0.0850 0.0508 -1.5200
v  -0.0822 0.0496 -1.5067
v  -0.0850 0.0367 -1.5238
v  -0.0822 0.0445 -1.5081
v  -0.0850 0.0227 -1.5200
v  -0.0822 0.0387 -1.5066
v  -0.0822 0.0352 -1.5021
v  -0.0822 0.0356 -1.5024
v  -0.0853 0.0617 -1.5101
v  -0.0853 0.0511 -1.5207
v  -0.0853 0.0367 -1.5246
v  -0.0853 0.0223 -1.5207
v  -0.0850 0.0124 -1.5097
v  -0.0853 0.0117 -1.5101
v  0.0000 0.0617 -1.5101
v  0.0000 0.0511 -1.5207
v  0.0000 0.0367 -1.5246
v  0.0000 0.0223 -1.5207
v  0.0000 0.0117 -1.5101
v  -0.0822 0.0164 -1.5043
v  -0.0811 0.0542 -1.5016
v  -0.0811 0.0496 -1.5059
v  -0.0811 0.0445 -1.5072
v  -0.0811 0.0387 -1.5058
v  -0.0811 0.0356 -1.5019
v  -0.0811 0.0167 -1.5039
v  -0.0811 0.0175 -1.5045
v  -0.0822 0.0177 -1.5051
v  -0.0792 0.0542 -1.5016
v  -0.0792 0.0496 -1.5059
v  -0.0792 0.0445 -1.5072
v  -0.0792 0.0387 -1.5058
v  -0.0792 0.0356 -1.5019
v  -0.0792 0.0175 -1.5045
v  -0.0792 0.0347 -1.5017
v  -0.0811 0.0347 -1.5017
v  -0.0792 0.0167 -1.5039
v  0.0000 0.0542 -1.5016
v  0.0000 0.0496 -1.5059
v  0.0000 0.0445 -1.5072
v  0.0000 0.0387 -1.5058
v  0.0000 0.0356 -1.5019
v  0.0000 0.0175 -1.5045
v  0.0000 0.0347 -1.5017
v  0.0000 0.0167 -1.5039
v  -0.0822 0.0347 -1.5021
v  -0.0811 0.0352 -1.5016
v  -0.0792 0.0352 -1.5016
v  0.0000 0.0352 -1.5016
v  0.0000 0.0812 -1.4700
v  0.0000 0.0881 -1.4957
v  0.0000 0.0624 -1.4512
v  0.0000 0.0367 -1.4443
v  0.0000 0.0110 -1.4512
v  0.0000 -0.0078 -1.4700
v  0.0000 -0.0147 -1.4957
v  0.0000 0.0812 -1.5214
v  0.0000 0.0624 -1.5402
v  0.0000 0.0367 -1.5471
v  0.0000 0.0110 -1.5402
v  0.0000 -0.0078 -1.5214
v  0.0868 0.0788 -1.4714
v  0.0868 0.0853 -1.4957
v  0.0849 0.0881 -1.4957
v  0.0849 0.0812 -1.4700
v  0.0868 0.0610 -1.4536
v  0.0849 0.0624 -1.4512
v  0.0868 0.0367 -1.4471
v  0.0849 0.0367 -1.4443
v  0.0868 0.0124 -1.4536
v  0.0849 0.0110 -1.4512
v  0.0868 -0.0054 -1.4714
v  0.0849 -0.0078 -1.4700
v  0.0868 -0.0119 -1.4957
v  0.0849 -0.0147 -1.4957
v  0.0796 0.0881 -1.4957
v  0.0796 0.0812 -1.4700
v  0.0796 0.0624 -1.4512
v  0.0796 0.0367 -1.4443
v  0.0796 0.0110 -1.4512
v  0.0796 -0.0078 -1.4700
v  0.0796 -0.0147 -1.4957
v  0.0895 0.0636 -1.4801
v  0.0895 0.0678 -1.4957
v  0.0895 0.0523 -1.4687
v  0.0895 0.0367 -1.4646
v  0.0895 0.0212 -1.4687
v  0.0895 0.0098 -1.4801
v  0.0895 0.0056 -1.4957
v  0.0895 0.0619 -1.4811
v  0.0895 0.0658 -1.4957
v  0.0895 0.0513 -1.4704
v  0.0895 0.0367 -1.4665
v  0.0895 0.0221 -1.4704
v  0.0895 0.0115 -1.4811
v  0.0895 0.0076 -1.4957
v  0.0872 0.0619 -1.4811
v  0.0872 0.0658 -1.4957
v  0.0872 0.0513 -1.4704
v  0.0872 0.0367 -1.4665
v  0.0872 0.0221 -1.4704
v  0.0872 0.0115 -1.4811
v  0.0872 0.0076 -1.4957
v  0.0822 0.0565 -1.4957
v  0.0850 0.0648 -1.4957
v  0.0850 0.0610 -1.4816
v  0.0822 0.0546 -1.4893
v  0.0850 0.0508 -1.4713
v  0.0822 0.0496 -1.4847
v  0.0850 0.0367 -1.4676
v  0.0822 0.0445 -1.4833
v  0.0850 0.0227 -1.4713
v  0.0822 0.0387 -1.4847
v  0.0822 0.0352 -1.4892
v  0.0822 0.0356 -1.4889
v  0.0853 0.0656 -1.4957
v  0.0853 0.0617 -1.4812
v  0.0853 0.0511 -1.4706
v  0.0853 0.0367 -1.4668
v  0.0853 0.0223 -1.4706
v  0.0850 0.0124 -1.4816
v  0.0853 0.0117 -1.4812
v  0.0850 0.0086 -1.4957
v  0.0853 0.0078 -1.4957
v  0.0822 0.0156 -1.4957
v  0.0822 0.0164 -1.4870
v  0.0811 0.0542 -1.4898
v  0.0811 0.0559 -1.4957
v  0.0811 0.0496 -1.4854
v  0.0811 0.0445 -1.4842
v  0.0811 0.0387 -1.4855
v  0.0811 0.0356 -1.4894
v  0.0811 0.0167 -1.4874
v  0.0811 0.0175 -1.4868
v  0.0822 0.0177 -1.4862
v  0.0811 0.0160 -1.4957
v  0.0792 0.0542 -1.4898
v  0.0792 0.0559 -1.4957
v  0.0792 0.0496 -1.4854
v  0.0792 0.0445 -1.4842
v  0.0792 0.0387 -1.4855
v  0.0792 0.0356 -1.4894
v  0.0792 0.0175 -1.4868
v  0.0792 0.0347 -1.4897
v  0.0811 0.0347 -1.4897
v  0.0792 0.0160 -1.4957
v  0.0792 0.0167 -1.4874
v  0.0822 0.0347 -1.4892
v  0.0811 0.0352 -1.4898
v  0.0792 0.0352 -1.4898
v  0.0868 0.0788 -1.5199
v  0.0849 0.0812 -1.5214
v  0.0868 0.0610 -1.5377
v  0.0849 0.0624 -1.5402
v  0.0868 0.0367 -1.5442
v  0.0849 0.0367 -1.5470
v  0.0868 0.0124 -1.5377
v  0.0849 0.0110 -1.5402
v  0.0868 -0.0054 -1.5199
v  0.0849 -0.0078 -1.5214
v  0.0796 0.0812 -1.5214
v  0.0796 0.0624 -1.5402
v  0.0796 0.0367 -1.5470
v  0.0796 0.0110 -1.5402
v  0.0796 -0.0078 -1.5214
v  0.0895 0.0636 -1.5112
v  0.0895 0.0523 -1.5226
v  0.0895 0.0367 -1.5268
v  0.0895 0.0212 -1.5226
v  0.0895 0.0098 -1.5112
v  0.0895 0.0619 -1.5102
v  0.0895 0.0513 -1.5209
v  0.0895 0.0367 -1.5248
v  0.0895 0.0221 -1.5209
v  0.0895 0.0115 -1.5102
v  0.0872 0.0619 -1.5102
v  0.0872 0.0513 -1.5209
v  0.0872 0.0367 -1.5248
v  0.0872 0.0221 -1.5209
v  0.0872 0.0115 -1.5102
v  0.0822 0.0546 -1.5020
v  0.0850 0.0610 -1.5097
v  0.0822 0.0496 -1.5067
v  0.0850 0.0508 -1.5200
v  0.0822 0.0445 -1.5081
v  0.0850 0.0367 -1.5238
v  0.0822 0.0387 -1.5066
v  0.0850 0.0227 -1.5200
v  0.0822 0.0356 -1.5024
v  0.0822 0.0352 -1.5021
v  0.0853 0.0617 -1.5101
v  0.0853 0.0511 -1.5207
v  0.0853 0.0367 -1.5246
v  0.0853 0.0223 -1.5207
v  0.0850 0.0124 -1.5097
v  0.0853 0.0117 -1.5101
v  0.0822 0.0164 -1.5043
v  0.0811 0.0542 -1.5016
v  0.0811 0.0496 -1.5059
v  0.0811 0.0445 -1.5072
v  0.0811 0.0387 -1.5058
v  0.0811 0.0356 -1.5019
v  0.0822 0.0177 -1.5051
v  0.0811 0.0175 -1.5045
v  0.0811 0.0167 -1.5039
v  0.0792 0.0542 -1.5016
v  0.0792 0.0496 -1.5059
v  0.0792 0.0445 -1.5072
v  0.0792 0.0387 -1.5058
v  0.0792 0.0356 -1.5019
v  0.0811 0.0347 -1.5017
v  0.0792 0.0347 -1.5017
v  0.0792 0.0175 -1.5045
v  0.0792 0.0167 -1.5039
v  0.0822 0.0347 -1.5021
v  0.0811 0.0352 -1.5016
v  0.0792 0.0352 -1.5016
# 456 vertices

vn 0.5773 0.5774 -0.5774
vn 0.0000 0.7071 -0.7071
vn -0.0000 0.7071 0.7071
vn 0.5773 0.5774 0.5774
vn 0.5773 -0.5774 -0.5774
vn 0.9045 0.3016 -0.3016
vn 0.9045 -0.3016 -0.3016
vn 0.9045 0.3016 0.3016
vn 0.5773 -0.5774 0.5774
vn 0.9045 -0.3016 0.3016
vn 0.9044 -0.3017 0.3016
vn 0.9044 -0.3017 -0.3016
vn -0.2887 -0.6847 -0.6692
vn -0.2887 -0.6847 0.6692
vn 0.9044 0.3017 -0.3016
vn -0.2887 0.6847 -0.6692
vn 0.9044 0.3017 0.3016
vn -0.2887 0.6847 0.6692
vn -0.2307 -0.6849 0.6911
vn -0.2307 -0.6849 -0.6911
vn 0.0000 -0.7071 -0.7071
vn -0.0000 -0.7071 0.7071
vn -0.2307 0.6849 -0.6912
vn -0.2307 0.6849 0.6912
vn 0.7770 0.4451 -0.4452
vn 0.9646 -0.1864 0.1864
vn 0.9646 0.1864 0.1864
vn 0.7770 -0.4451 -0.4452
vn 0.7770 0.4451 0.4452
vn 0.9646 -0.1864 -0.1864
vn 0.7770 -0.4451 0.4452
vn 0.9646 0.1864 -0.1864
vn 0.3103 0.6722 0.6722
vn 0.3103 -0.6722 0.6722
vn 0.3103 0.6722 -0.6722
vn 0.3103 -0.6722 -0.6722
vn 0.2441 0.6857 -0.6857
vn 0.2441 -0.6857 -0.6857
vn 0.2441 0.6857 0.6857
vn 0.2441 -0.6857 0.6857
vn -0.5773 0.5774 -0.5774
vn -0.5773 0.5774 0.5774
vn -0.5773 -0.5774 -0.5774
vn -0.9045 -0.3016 -0.3016
vn -0.9045 0.3016 -0.3016
vn -0.9045 0.3016 0.3016
vn -0.9045 -0.3016 0.3016
vn -0.5773 -0.5774 0.5774
vn -0.9044 -0.3017 0.3016
vn 0.2887 -0.6847 0.6692
vn 0.2887 -0.6847 -0.6692
vn -0.9044 -0.3017 -0.3016
vn 0.2887 0.6847 -0.6692
vn -0.9044 0.3017 -0.3016
vn 0.2887 0.6847 0.6692
vn -0.9044 0.3017 0.3016
vn 0.2307 -0.6849 0.6911
vn 0.2307 -0.6849 -0.6911
vn 0.2307 0.6849 -0.6912
vn 0.2307 0.6849 0.6912
vn -0.7770 0.4451 -0.4452
vn -0.7770 -0.4451 -0.4452
vn -0.9646 0.1864 0.1864
vn -0.9646 -0.1864 0.1864
vn -0.7770 0.4451 0.4452
vn -0.9646 -0.1864 -0.1864
vn -0.7770 -0.4451 0.4452
vn -0.9646 0.1864 -0.1864
vn -0.3103 -0.6722 0.6722
vn -0.3103 0.6722 0.6722
vn -0.3103 0.6722 -0.6722
vn -0.3103 -0.6722 -0.6722
vn -0.2441 -0.6857 -0.6857
vn -0.2441 0.6857 -0.6857
vn -0.2441 0.6857 0.6857
vn -0.2441 -0.6857 0.6857
vn -0.3695 0.8047 0.4646
vn -0.0810 0.8632 0.4984
vn -0.0810 0.9967 0.0000
vn -0.3695 0.9292 0.0000
vn -0.3695 0.4646 0.8048
vn -0.0810 0.4984 0.8632
vn -0.3694 0.0000 0.9293
vn -0.0810 0.0000 0.9967
vn -0.3695 -0.4646 0.8048
vn -0.0810 -0.4984 0.8632
vn -0.3695 -0.8047 0.4646
vn -0.0810 -0.8632 0.4983
vn -0.3695 -0.9292 0.0000
vn -0.0810 -0.9967 0.0000
vn -0.0000 0.8660 0.5000
vn 0.0000 1.0000 -0.0000
vn 0.0000 0.5000 0.8660
vn -0.0000 0.0000 1.0000
vn 0.0000 -0.5000 0.8660
vn -0.0000 -0.8660 0.5000
vn 0.0000 -1.0000 -0.0000
vn -0.8578 0.5140 0.0001
vn -0.8578 0.4452 0.2571
vn -0.8578 0.2570 0.4452
vn -0.8578 -0.0000 0.5140
vn -0.8578 -0.2570 0.4452
vn -0.8578 -0.4451 0.2571
vn -0.8578 -0.5139 0.0001
vn -0.7704 -0.6376 0.0001
vn -0.7704 -0.5522 -0.3187
vn -0.7704 -0.3189 -0.5522
vn -0.7703 -0.0000 -0.6377
vn -0.7704 0.3189 -0.5522
vn -0.7704 0.5522 -0.3187
vn -0.7703 0.6377 0.0001
vn -0.0000 -1.0000 0.0000
vn -0.0000 -0.8660 -0.5000
vn -0.0000 -0.5000 -0.8660
vn 0.0000 0.0000 -1.0000
vn -0.0000 0.5000 -0.8660
vn -0.0000 0.8660 -0.5000
vn -0.0000 1.0000 0.0000
vn 0.0000 -0.8660 -0.5000
vn 0.0000 -0.5001 -0.8660
vn 0.0000 0.5001 -0.8660
vn 0.0000 0.8660 -0.5000
vn -0.1937 -0.9811 0.0001
vn -0.2130 -0.8320 -0.5123
vn -0.3329 -0.8124 -0.4788
vn -0.3139 -0.9495 0.0000
vn -0.2611 -0.4789 -0.8381
vn -0.3740 -0.4530 -0.8093
vn -0.3219 -0.0353 -0.9461
vn -0.4206 0.0149 -0.9071
vn -0.3789 0.4960 -0.7813
vn -0.3962 0.4240 -0.8144
vn -0.6790 0.5027 -0.5351
vn -0.3477 0.2830 -0.8939
vn -0.9506 0.2689 0.1552
vn -0.9505 0.3108 0.0001
vn -0.9504 0.1555 0.2693
vn -0.9506 0.0000 0.3105
vn -0.9504 -0.1554 0.2694
vn -0.2814 0.8274 -0.4861
vn -0.9506 -0.2689 0.1553
vn -0.2941 0.9558 0.0000
vn -0.9505 -0.3108 0.0001
vn -0.0000 0.5000 0.8660
vn -0.0000 -0.5000 0.8660
vn -0.1463 0.8518 -0.5031
vn -0.1536 0.9881 0.0000
vn -0.0345 -0.9994 0.0000
vn -0.0321 -0.8522 -0.5223
vn -0.0363 -0.4811 -0.8759
vn -0.0481 -0.0120 -0.9988
vn -0.0350 0.5401 -0.8409
vn -0.0172 0.7354 -0.6775
vn -0.2761 0.2179 -0.9361
vn -0.0289 0.2433 -0.9695
vn -0.0232 0.8750 -0.4836
vn -0.0187 0.9998 0.0000
vn 0.0000 -0.8519 -0.5238
vn 0.0000 -0.4787 -0.8780
vn 0.0000 -0.0119 -0.9999
vn 0.0000 0.5363 -0.8440
vn 0.0000 0.7361 -0.6769
vn -0.0239 -0.1796 -0.9835
vn -0.0000 -0.1793 -0.9838
vn -0.0000 0.2380 -0.9713
vn -0.0000 0.8739 -0.4862
vn 0.0000 -0.1793 -0.9838
vn 0.0000 0.2380 -0.9713
vn 0.0000 0.8739 -0.4861
vn -0.7050 -0.0510 -0.7074
vn -0.0293 0.2694 -0.9626
vn 0.0000 0.2717 -0.9624
vn -0.3695 0.8047 -0.4646
vn -0.0810 0.8632 -0.4984
vn -0.3695 0.4646 -0.8047
vn -0.0810 0.4983 -0.8632
vn -0.3695 0.0000 -0.9292
vn -0.0810 0.0000 -0.9967
vn -0.3695 -0.4646 -0.8047
vn -0.0810 -0.4983 -0.8632
vn -0.3695 -0.8048 -0.4646
vn -0.0810 -0.8632 -0.4984
vn -0.0000 0.0000 -1.0000
vn -0.8578 0.4452 -0.2570
vn -0.8578 0.2570 -0.4451
vn -0.8578 -0.0000 -0.5139
vn -0.8578 -0.2570 -0.4451
vn -0.8578 -0.4451 -0.2570
vn -0.7704 -0.5522 0.3188
vn -0.7703 -0.3188 0.5522
vn -0.7703 0.0000 0.6377
vn -0.7703 0.3188 0.5522
vn -0.7704 0.5522 0.3188
vn 0.0000 -0.8660 0.5000
vn 0.0000 0.0000 1.0000
vn 0.0000 0.8660 0.5000
vn -0.0000 -0.4999 0.8661
vn -0.0000 0.4999 0.8661
vn -0.3327 -0.8124 0.4790
vn -0.2129 -0.8320 0.5123
vn -0.3740 -0.4529 0.8093
vn -0.2611 -0.4789 0.8381
vn -0.4206 0.0149 0.9071
vn -0.3218 -0.0353 0.9462
vn -0.3962 0.4239 0.8144
vn -0.3789 0.4959 0.7814
vn -0.3473 0.2828 0.8941
vn -0.6797 0.5030 0.5339
vn -0.9504 0.2691 -0.1557
vn -0.9506 0.1552 -0.2688
vn -0.9505 0.0000 -0.3106
vn -0.9506 -0.1551 -0.2690
vn -0.2812 0.8273 0.4862
vn -0.9504 -0.2692 -0.1558
vn 0.0000 0.5000 -0.8660
vn 0.0000 -0.5000 -0.8660
vn -0.1463 0.8518 0.5031
vn -0.0320 -0.8521 0.5224
vn -0.0363 -0.4812 0.8759
vn -0.0480 -0.0120 0.9988
vn -0.0350 0.5401 0.8409
vn -0.0172 0.7353 0.6775
vn -0.0232 0.8754 0.4829
vn -0.0289 0.2441 0.9693
vn -0.2760 0.2179 0.9361
vn 0.0000 -0.8518 0.5239
vn 0.0000 -0.4787 0.8780
vn 0.0000 -0.0121 0.9999
vn 0.0000 0.5363 0.8440
vn 0.0000 0.7361 0.6769
vn -0.0001 0.2380 0.9713
vn -0.0000 -0.1774 0.9841
vn -0.0240 -0.1778 0.9838
vn -0.0000 0.8739 0.4862
vn -0.0000 -0.8518 0.5238
vn -0.0000 -0.4787 0.8780
vn -0.0000 -0.0120 0.9999
vn -0.0000 0.5363 0.8440
vn -0.0000 0.7361 0.6769
vn -0.0000 0.2380 0.9713
vn -0.0000 0.8739 0.4861
vn -0.7055 -0.0524 0.7068
vn -0.0292 0.2712 0.9621
vn 0.0000 0.2734 0.9619
vn -0.0000 0.2734 0.9619
vn 0.3695 0.8047 0.4646
vn 0.3695 0.9292 0.0000
vn 0.0810 0.9967 -0.0000
vn 0.0810 0.8632 0.4984
vn 0.3695 0.4646 0.8048
vn 0.0810 0.4984 0.8632
vn 0.3694 0.0000 0.9293
vn 0.0810 0.0000 0.9967
vn 0.3695 -0.4646 0.8048
vn 0.0810 -0.4984 0.8632
vn 0.3695 -0.8047 0.4646
vn 0.0810 -0.8632 0.4983
vn 0.3695 -0.9292 0.0000
vn 0.0810 -0.9967 0.0000
vn 0.8577 0.4452 0.2571
vn 0.8578 0.5140 0.0001
vn 0.8578 0.2570 0.4452
vn 0.8578 -0.0000 0.5140
vn 0.8578 -0.2570 0.4452
vn 0.8578 -0.4451 0.2571
vn 0.8578 -0.5140 0.0001
vn 0.7705 -0.5521 -0.3186
vn 0.7704 -0.6376 0.0001
vn 0.7704 -0.3189 -0.5521
vn 0.7703 -0.0000 -0.6377
vn 0.7704 0.3189 -0.5522
vn 0.7703 0.5523 -0.3187
vn 0.7704 0.6376 0.0001
vn 0.1937 -0.9811 0.0000
vn 0.3139 -0.9495 0.0000
vn 0.3329 -0.8124 -0.4788
vn 0.2130 -0.8320 -0.5123
vn 0.3741 -0.4530 -0.8093
vn 0.2611 -0.4789 -0.8381
vn 0.4206 0.0149 -0.9071
vn 0.3219 -0.0351 -0.9461
vn 0.3962 0.4240 -0.8144
vn 0.3788 0.4961 -0.7813
vn 0.3478 0.2831 -0.8938
vn 0.6783 0.5033 -0.5354
vn 0.9505 0.3109 0.0001
vn 0.9506 0.2689 0.1552
vn 0.9504 0.1555 0.2693
vn 0.9506 0.0000 0.3105
vn 0.9504 -0.1555 0.2694
vn 0.2814 0.8274 -0.4861
vn 0.9505 -0.2689 0.1553
vn 0.2942 0.9558 0.0000
vn 0.9505 -0.3109 0.0001
vn 0.1536 0.9881 0.0000
vn 0.1463 0.8518 -0.5031
vn 0.0321 -0.8522 -0.5223
vn 0.0345 -0.9994 0.0000
vn 0.0363 -0.4811 -0.8759
vn 0.0481 -0.0120 -0.9988
vn 0.0349 0.5401 -0.8409
vn 0.0172 0.7354 -0.6775
vn 0.0232 0.8750 -0.4836
vn 0.0289 0.2433 -0.9695
vn 0.2761 0.2178 -0.9361
vn 0.0187 0.9998 0.0000
vn 0.0239 -0.1796 -0.9835
vn 0.0000 0.8739 -0.4862
vn 0.7037 -0.0514 -0.7087
vn 0.0293 0.2694 -0.9626
vn 0.3695 0.8047 -0.4646
vn 0.0810 0.8632 -0.4984
vn 0.3695 0.4646 -0.8047
vn 0.0810 0.4983 -0.8632
vn 0.3695 0.0000 -0.9292
vn 0.0810 0.0000 -0.9967
vn 0.3695 -0.4646 -0.8047
vn 0.0810 -0.4983 -0.8632
vn 0.3695 -0.8048 -0.4646
vn 0.0810 -0.8632 -0.4984
vn 0.8578 0.4451 -0.2570
vn 0.8578 0.2570 -0.4451
vn 0.8578 -0.0000 -0.5139
vn 0.8578 -0.2570 -0.4450
vn 0.8578 -0.4452 -0.2570
vn 0.7704 -0.5522 0.3188
vn 0.7703 -0.3189 0.5523
vn 0.7702 0.0000 0.6379
vn 0.7703 0.3189 0.5523
vn 0.7704 0.5521 0.3188
vn 0.2130 -0.8319 0.5124
vn 0.3326 -0.8124 0.4790
vn 0.2611 -0.4788 0.8382
vn 0.3741 -0.4529 0.8093
vn 0.3218 -0.0353 0.9462
vn 0.4206 0.0149 0.9071
vn 0.3788 0.4959 0.7814
vn 0.3962 0.4239 0.8144
vn 0.6801 0.5026 0.5337
vn 0.3472 0.2828 0.8941
vn 0.9504 0.2691 -0.1557
vn 0.9506 0.1552 -0.2689
vn 0.9505 0.0000 -0.3106
vn 0.9506 -0.1551 -0.2690
vn 0.2812 0.8273 0.4862
vn 0.9504 -0.2692 -0.1558
vn 0.1463 0.8518 0.5031
vn 0.0321 -0.8521 0.5224
vn 0.0363 -0.4812 0.8759
vn 0.0480 -0.0121 0.9988
vn 0.0349 0.5401 0.8409
vn 0.0172 0.7354 0.6775
vn 0.2760 0.2179 0.9361
vn 0.0289 0.2441 0.9693
vn 0.0232 0.8754 0.4829
vn -0.0000 -0.8518 0.5239
vn -0.0000 -0.0121 0.9999
vn 0.0240 -0.1778 0.9838
vn 0.0000 -0.1774 0.9841
vn 0.0001 0.2380 0.9713
vn 0.0000 0.8739 0.4862
vn 0.7065 -0.0521 0.7058
vn 0.0292 0.2712 0.9621
# 363 vertex normals

vt 0.1042 0.7500 0.0000
vt 0.0833 0.0000 1.0000
vt 0.0000 0.0000 1.0000
vt 0.1667 0.0000 1.0000
vt 0.2500 0.0000 1.0000
vt 0.3333 0.0000 1.0000
vt 0.4167 0.0000 1.0000
vt 0.5000 0.0000 1.0000
vt 0.4100 0.0000 1.0000
vt 0.4538 0.0000 1.0000
vt 0.4564 0.0000 1.0000
vt 0.4540 0.0000 1.0000
vt 0.4616 0.0000 1.0000
vt 0.4180 0.0000 1.0000
vt 0.4565 0.0000 1.0000
# 15 texture coords

o ExitHingedDoor_00
g ExitHingedDoor_00
usemtl Material__65
s 2
f 1/1/1 2/1/2 3/1/3 4/1/4 
s 4
f 5/1/5 1/1/1 6/1/6 7/1/7 
f 1/1/1 4/1/4 8/1/8 6/1/6 
f 4/1/4 9/1/9 10/1/10 8/1/8 
f 9/1/9 5/1/5 7/1/7 10/1/10 
s 1
f 11/1/11 12/1/12 13/1/13 14/1/14 
s 2
f 12/1/12 15/1/15 16/1/16 13/1/13 
s 1
f 16/1/16 15/1/15 17/1/17 18/1/18 
s 2
f 18/1/18 17/1/17 11/1/11 14/1/14 
s 1
f 19/1/19 20/1/20 21/1/21 22/1/22 
s 2
f 20/1/20 23/1/23 24/1/2 21/1/21 
s off
f 14/1/14 13/1/13 20/1/20 19/1/19 
f 13/1/13 16/1/16 23/1/23 20/1/20 
f 16/1/16 18/1/18 25/1/24 23/1/23 
f 18/1/18 14/1/14 19/1/19 25/1/24 
s 4
f 26/1/9 11/1/11 17/1/17 27/1/4 
f 28/1/5 12/1/12 11/1/11 26/1/9 
f 29/1/1 15/1/15 12/1/12 28/1/5 
f 27/1/4 17/1/17 15/1/15 29/1/1 
f 30/1/25 31/1/26 32/1/27 33/1/28 
f 34/1/29 35/1/30 31/1/26 30/1/25 
f 36/1/31 37/1/32 35/1/30 34/1/29 
f 33/1/28 32/1/27 37/1/32 36/1/31 
s off
f 26/1/9 27/1/4 38/1/33 39/1/34 
f 27/1/4 29/1/1 40/1/35 38/1/33 
f 29/1/1 28/1/5 41/1/36 40/1/35 
f 28/1/5 26/1/9 39/1/34 41/1/36 
f 7/1/7 6/1/6 42/1/37 43/1/38 
f 6/1/6 8/1/8 44/1/39 42/1/37 
f 8/1/8 10/1/10 45/1/40 44/1/39 
f 10/1/10 7/1/7 43/1/38 45/1/40 
f 39/1/34 38/1/33 32/1/27 31/1/26 
f 38/1/33 40/1/35 37/1/32 32/1/27 
f 40/1/35 41/1/36 35/1/30 37/1/32 
f 41/1/36 39/1/34 31/1/26 35/1/30 
f 43/1/38 42/1/37 30/1/25 33/1/28 
f 42/1/37 44/1/39 34/1/29 30/1/25 
f 44/1/39 45/1/40 36/1/31 34/1/29 
f 45/1/40 43/1/38 33/1/28 36/1/31 
s 1
f 46/1/22 9/1/9 4/1/4 3/1/3 
s 2
f 47/1/21 5/1/5 9/1/9 46/1/22 
s 1
f 2/1/2 1/1/1 5/1/5 47/1/21 
f 24/1/2 23/1/23 25/1/24 48/1/3 
s 2
f 48/1/3 25/1/24 19/1/19 22/1/22 
f 49/1/41 50/1/42 3/1/3 2/1/2 
s 4
f 51/1/43 52/1/44 53/1/45 49/1/41 
f 49/1/41 53/1/45 54/1/46 50/1/42 
f 50/1/42 54/1/46 55/1/47 56/1/48 
f 56/1/48 55/1/47 52/1/44 51/1/43 
s 1
f 57/1/49 58/1/50 59/1/51 60/1/52 
s 2
f 60/1/52 59/1/51 61/1/53 62/1/54 
s 1
f 61/1/53 63/1/55 64/1/56 62/1/54 
s 2
f 63/1/55 58/1/50 57/1/49 64/1/56 
s 1
f 65/1/57 22/1/22 21/1/21 66/1/58 
s 2
f 66/1/58 21/1/21 24/1/2 67/1/59 
s off
f 58/1/50 65/1/57 66/1/58 59/1/51 
f 59/1/51 66/1/58 67/1/59 61/1/53 
f 61/1/53 67/1/59 68/1/60 63/1/55 
f 63/1/55 68/1/60 65/1/57 58/1/50 
s 4
f 69/1/48 70/1/42 64/1/56 57/1/49 
f 71/1/43 69/1/48 57/1/49 60/1/52 
f 72/1/41 71/1/43 60/1/52 62/1/54 
f 70/1/42 72/1/41 62/1/54 64/1/56 
f 73/1/61 74/1/62 75/1/63 76/1/64 
f 77/1/65 73/1/61 76/1/64 78/1/66 
f 79/1/67 77/1/65 78/1/66 80/1/68 
f 74/1/62 79/1/67 80/1/68 75/1/63 
s off
f 69/1/48 81/1/69 82/1/70 70/1/42 
f 70/1/42 82/1/70 83/1/71 72/1/41 
f 72/1/41 83/1/71 84/1/72 71/1/43 
f 71/1/43 84/1/72 81/1/69 69/1/48 
f 52/1/44 85/1/73 86/1/74 53/1/45 
f 53/1/45 86/1/74 87/1/75 54/1/46 
f 54/1/46 87/1/75 88/1/76 55/1/47 
f 55/1/47 88/1/76 85/1/73 52/1/44 
f 81/1/69 76/1/64 75/1/63 82/1/70 
f 82/1/70 75/1/63 80/1/68 83/1/71 
f 83/1/71 80/1/68 78/1/66 84/1/72 
f 84/1/72 78/1/66 76/1/64 81/1/69 
f 85/1/73 74/1/62 73/1/61 86/1/74 
f 86/1/74 73/1/61 77/1/65 87/1/75 
f 87/1/75 77/1/65 79/1/67 88/1/76 
f 88/1/76 79/1/67 74/1/62 85/1/73 
s 1
f 46/1/22 3/1/3 50/1/42 56/1/48 
s 2
f 47/1/21 46/1/22 56/1/48 51/1/43 
s 1
f 2/1/2 47/1/21 51/1/43 49/1/41 
f 24/1/2 48/1/3 68/1/60 67/1/59 
s 2
f 48/1/3 22/1/22 65/1/57 68/1/60 
s 1
f 89/2/77 90/2/78 91/3/79 92/3/80 
f 93/4/81 94/4/82 90/2/78 89/2/77 
f 95/5/83 96/5/84 94/4/82 93/4/81 
f 97/6/85 98/6/86 96/5/84 95/5/83 
f 99/7/87 100/7/88 98/6/86 97/6/85 
f 101/8/89 102/8/90 100/7/88 99/7/87 
f 91/3/79 90/2/78 103/2/91 104/3/92 
f 90/2/78 94/4/82 105/4/93 103/2/91 
f 94/4/82 96/5/84 106/5/94 105/4/93 
f 96/5/84 98/6/86 107/6/95 106/5/94 
f 98/6/86 100/7/88 108/7/96 107/6/95 
f 100/7/88 102/8/90 109/8/97 108/7/96 
f 92/3/80 110/3/98 111/2/99 89/2/77 
f 89/2/77 111/2/99 112/4/100 93/4/81 
f 93/4/81 112/4/100 113/5/101 95/5/83 
f 95/5/83 113/5/101 114/6/102 97/6/85 
f 97/6/85 114/6/102 115/7/103 99/7/87 
f 99/7/87 115/7/103 116/8/104 101/8/89 
f 110/3/98 117/3/105 118/2/106 111/2/99 
f 111/2/99 118/2/106 119/4/107 112/4/100 
f 112/4/100 119/4/107 120/5/108 113/5/101 
f 113/5/101 120/5/108 121/6/109 114/6/102 
f 114/6/102 121/6/109 122/7/110 115/7/103 
f 115/7/103 122/7/110 123/8/111 116/8/104 
f 117/3/105 124/3/112 125/2/113 118/2/106 
f 118/2/106 125/2/113 126/4/114 119/4/107 
f 119/4/107 126/4/114 127/5/115 120/5/108 
f 120/5/108 127/5/115 128/6/116 121/6/109 
f 121/6/109 128/6/116 129/7/117 122/7/110 
f 122/7/110 129/7/117 130/8/118 123/8/111 
f 124/3/112 131/3/97 132/2/119 125/2/113 
f 125/2/113 132/2/119 133/4/120 126/4/114 
f 126/4/114 133/4/120 134/5/115 127/5/115 
f 127/5/115 134/5/115 135/6/121 128/6/116 
f 128/6/116 135/6/121 136/7/122 129/7/117 
f 129/7/117 136/7/122 137/8/92 130/8/118 
f 138/3/123 139/2/124 140/2/125 141/3/126 
f 139/2/124 142/4/127 143/4/128 140/2/125 
f 142/4/127 144/5/129 145/5/130 143/4/128 
f 144/5/129 146/6/131 147/6/132 145/5/130 
f 146/6/131 148/9/133 149/7/134 147/6/132 
f 140/2/125 150/2/135 151/3/136 141/3/126 
f 143/4/128 152/4/137 150/2/135 140/2/125 
f 145/5/130 153/5/138 152/4/137 143/4/128 
f 147/6/132 154/6/139 153/5/138 145/5/130 
f 155/10/140 156/7/141 154/6/139 147/6/132 
f 157/8/142 158/8/143 156/7/141 155/10/140 
f 151/3/136 150/2/135 159/2/91 160/3/118 
f 150/2/135 152/4/137 161/4/144 159/2/91 
f 152/4/137 153/5/138 162/5/94 161/4/144 
f 153/5/138 154/6/139 163/6/145 162/5/94 
f 154/6/139 156/7/141 164/7/96 163/6/145 
f 156/7/141 158/8/143 165/8/112 164/7/96 
f 155/10/140 166/11/146 167/8/147 157/8/142 
f 139/2/124 138/3/123 168/3/148 169/2/149 
f 142/4/127 139/2/124 169/2/149 170/4/150 
f 144/5/129 142/4/127 170/4/150 171/5/151 
f 146/6/131 144/5/129 171/5/151 172/6/152 
f 148/9/133 146/6/131 172/6/152 173/9/153 
f 166/11/146 174/12/154 175/11/155 176/13/156 
f 167/8/147 166/11/146 176/13/156 177/8/157 
f 169/2/149 168/3/148 178/3/97 179/2/158 
f 170/4/150 169/2/149 179/2/158 180/4/159 
f 171/5/151 170/4/150 180/4/159 181/5/160 
f 172/6/152 171/5/151 181/5/160 182/6/161 
f 173/9/153 172/6/152 182/6/161 183/9/162 
f 175/11/155 184/14/163 185/14/164 186/15/165 
f 177/8/157 176/13/156 187/13/166 188/8/118 
f 178/3/97 189/3/97 190/2/158 179/2/158 
f 179/2/158 190/2/158 191/4/159 180/4/159 
f 180/4/159 191/4/159 192/5/160 181/5/160 
f 181/5/160 192/5/160 193/6/161 182/6/161 
f 182/6/161 193/6/161 194/9/162 183/9/162 
f 185/14/164 195/14/167 196/15/168 186/15/165 
f 187/13/166 197/13/169 198/8/92 188/8/118 
f 175/11/155 186/15/165 187/13/166 176/13/156 
f 186/15/165 196/15/168 197/13/169 187/13/166 
f 174/12/154 199/14/170 184/14/163 175/11/155 
f 174/12/154 166/11/146 155/10/140 147/6/132 
f 148/9/133 173/9/153 200/7/171 149/7/134 
f 173/9/153 183/9/162 201/7/172 200/7/171 
f 185/14/164 184/14/163 200/7/171 201/7/172 
f 183/9/162 194/9/162 202/7/172 201/7/172 
f 195/14/167 185/14/164 201/7/172 202/7/172 
f 184/14/163 199/14/170 149/7/134 200/7/171 
f 149/7/134 199/14/170 174/12/154 147/6/132 
f 203/2/173 92/3/80 91/3/79 204/2/174 
f 205/4/175 203/2/173 204/2/174 206/4/176 
f 207/5/177 205/4/175 206/4/176 208/5/178 
f 209/6/179 207/5/177 208/5/178 210/6/180 
f 211/7/181 209/6/179 210/6/180 212/7/182 
f 101/8/89 211/7/181 212/7/182 102/8/90 
f 91/3/79 104/3/92 213/2/117 204/2/174 
f 204/2/174 213/2/117 214/4/116 206/4/176 
f 206/4/176 214/4/116 215/5/183 208/5/178 
f 208/5/178 215/5/183 216/6/114 210/6/180 
f 210/6/180 216/6/114 217/7/113 212/7/182 
f 212/7/182 217/7/113 109/8/97 102/8/90 
f 92/3/80 203/2/173 218/2/184 110/3/98 
f 203/2/173 205/4/175 219/4/185 218/2/184 
f 205/4/175 207/5/177 220/5/186 219/4/185 
f 207/5/177 209/6/179 221/6/187 220/5/186 
f 209/6/179 211/7/181 222/7/188 221/6/187 
f 211/7/181 101/8/89 116/8/104 222/7/188 
f 110/3/98 218/2/184 223/2/189 117/3/105 
f 218/2/184 219/4/185 224/4/190 223/2/189 
f 219/4/185 220/5/186 225/5/191 224/4/190 
f 220/5/186 221/6/187 226/6/192 225/5/191 
f 221/6/187 222/7/188 227/7/193 226/6/192 
f 222/7/188 116/8/104 123/8/111 227/7/193 
f 117/3/105 223/2/189 228/2/194 124/3/112 
f 223/2/189 224/4/190 229/4/95 228/2/194 
f 224/4/190 225/5/191 230/5/195 229/4/95 
f 225/5/191 226/6/192 231/6/93 230/5/195 
f 226/6/192 227/7/193 232/7/196 231/6/93 
f 227/7/193 123/8/111 130/8/118 232/7/196 
f 124/3/112 228/2/194 233/2/96 131/3/97 
f 228/2/194 229/4/95 234/4/197 233/2/96 
f 229/4/95 230/5/195 235/5/195 234/4/197 
f 230/5/195 231/6/93 236/6/198 235/5/195 
f 231/6/93 232/7/196 237/7/91 236/6/198 
f 232/7/196 130/8/118 137/8/92 237/7/91 
f 138/3/123 141/3/126 238/2/199 239/2/200 
f 239/2/200 238/2/199 240/4/201 241/4/202 
f 241/4/202 240/4/201 242/5/203 243/5/204 
f 243/5/204 242/5/203 244/6/205 245/6/206 
f 245/6/206 244/6/205 246/7/207 247/9/208 
f 238/2/199 141/3/126 151/3/136 248/2/209 
f 240/4/201 238/2/199 248/2/209 249/4/210 
f 242/5/203 240/4/201 249/4/210 250/5/211 
f 244/6/205 242/5/203 250/5/211 251/6/212 
f 252/10/213 244/6/205 251/6/212 253/7/214 
f 157/8/142 252/10/213 253/7/214 158/8/143 
f 151/3/136 160/3/118 254/2/122 248/2/209 
f 248/2/209 254/2/122 255/4/215 249/4/210 
f 249/4/210 255/4/215 256/5/115 250/5/211 
f 250/5/211 256/5/115 257/6/216 251/6/212 
f 251/6/212 257/6/216 258/7/119 253/7/214 
f 253/7/214 258/7/119 165/8/112 158/8/143 
f 252/10/213 157/8/142 167/8/147 259/11/217 
f 239/2/200 260/2/218 168/3/148 138/3/123 
f 241/4/202 261/4/219 260/2/218 239/2/200 
f 243/5/204 262/5/220 261/4/219 241/4/202 
f 245/6/206 263/6/221 262/5/220 243/5/204 
f 247/9/208 264/9/222 263/6/221 245/6/206 
f 259/11/217 265/13/223 266/11/224 267/12/225 
f 167/8/147 177/8/157 265/13/223 259/11/217 
f 260/2/218 268/2/226 178/3/97 168/3/148 
f 261/4/219 269/4/227 268/2/226 260/2/218 
f 262/5/220 270/5/228 269/4/227 261/4/219 
f 263/6/221 271/6/229 270/5/228 262/5/220 
f 264/9/222 272/9/230 271/6/229 263/6/221 
f 266/11/224 273/15/231 274/14/232 275/14/233 
f 177/8/157 188/8/118 276/13/234 265/13/223 
f 178/3/97 268/2/226 277/2/235 189/3/97 
f 268/2/226 269/4/227 278/4/236 277/2/235 
f 269/4/227 270/5/228 279/5/237 278/4/236 
f 270/5/228 271/6/229 280/6/238 279/5/237 
f 271/6/229 272/9/230 281/9/239 280/6/238 
f 274/14/232 273/15/231 282/15/240 283/14/232 
f 276/13/234 188/8/118 198/8/92 284/13/241 
f 266/11/224 265/13/223 276/13/234 273/15/231 
f 273/15/231 276/13/234 284/13/241 282/15/240 
f 267/12/225 266/11/224 275/14/233 285/14/242 
f 267/12/225 244/6/205 252/10/213 259/11/217 
f 247/9/208 246/7/207 286/7/243 264/9/222 
f 264/9/222 286/7/243 287/7/244 272/9/230 
f 274/14/232 287/7/244 286/7/243 275/14/233 
f 272/9/230 287/7/244 288/7/245 281/9/239 
f 283/14/232 288/7/245 287/7/244 274/14/232 
f 275/14/233 286/7/243 246/7/207 285/14/242 
f 246/7/207 244/6/205 267/12/225 285/14/242 
f 103/2/91 289/2/91 290/3/92 104/3/92 
f 105/4/93 291/4/144 289/2/91 103/2/91 
f 106/5/94 292/5/94 291/4/144 105/4/93 
f 107/6/95 293/6/145 292/5/94 106/5/94 
f 108/7/96 294/7/96 293/6/145 107/6/95 
f 109/8/97 295/8/97 294/7/96 108/7/96 
f 104/3/92 290/3/92 296/2/122 213/2/117 
f 213/2/117 296/2/122 297/4/215 214/4/116 
f 214/4/116 297/4/215 298/5/115 215/5/183 
f 215/5/183 298/5/115 299/6/216 216/6/114 
f 216/6/114 299/6/216 300/7/119 217/7/113 
f 217/7/113 300/7/119 295/8/97 109/8/97 
f 301/2/246 302/3/247 303/3/248 304/2/249 
f 305/4/250 301/2/246 304/2/249 306/4/251 
f 307/5/252 305/4/250 306/4/251 308/5/253 
f 309/6/254 307/5/252 308/5/253 310/6/255 
f 311/7/256 309/6/254 310/6/255 312/7/257 
f 313/8/258 311/7/256 312/7/257 314/8/259 
f 303/3/248 315/3/92 316/2/91 304/2/249 
f 304/2/249 316/2/91 317/4/144 306/4/251 
f 306/4/251 317/4/144 318/5/94 308/5/253 
f 308/5/253 318/5/94 319/6/145 310/6/255 
f 310/6/255 319/6/145 320/7/96 312/7/257 
f 312/7/257 320/7/96 321/8/97 314/8/259 
f 302/3/247 301/2/246 322/2/260 323/3/261 
f 301/2/246 305/4/250 324/4/262 322/2/260 
f 305/4/250 307/5/252 325/5/263 324/4/262 
f 307/5/252 309/6/254 326/6/264 325/5/263 
f 309/6/254 311/7/256 327/7/265 326/6/264 
f 311/7/256 313/8/258 328/8/266 327/7/265 
f 323/3/261 322/2/260 329/2/267 330/3/268 
f 322/2/260 324/4/262 331/4/269 329/2/267 
f 324/4/262 325/5/263 332/5/270 331/4/269 
f 325/5/263 326/6/264 333/6/271 332/5/270 
f 326/6/264 327/7/265 334/7/272 333/6/271 
f 327/7/265 328/8/266 335/8/273 334/7/272 
f 330/3/268 329/2/267 336/2/119 337/3/112 
f 329/2/267 331/4/269 338/4/216 336/2/119 
f 331/4/269 332/5/270 339/5/115 338/4/216 
f 332/5/270 333/6/271 340/6/215 339/5/115 
f 333/6/271 334/7/272 341/7/122 340/6/215 
f 334/7/272 335/8/273 342/8/118 341/7/122 
f 337/3/112 336/2/119 132/2/119 131/3/97 
f 336/2/119 338/4/216 133/4/120 132/2/119 
f 338/4/216 339/5/115 134/5/115 133/4/120 
f 339/5/115 340/6/215 135/6/121 134/5/115 
f 340/6/215 341/7/122 136/7/122 135/6/121 
f 341/7/122 342/8/118 137/8/92 136/7/122 
f 343/3/274 344/3/275 345/2/276 346/2/277 
f 346/2/277 345/2/276 347/4/278 348/4/279 
f 348/4/279 347/4/278 349/5/280 350/5/281 
f 350/5/281 349/5/280 351/6/282 352/6/283 
f 352/6/283 351/6/282 353/7/284 354/9/285 
f 345/2/276 344/3/275 355/3/286 356/2/287 
f 347/4/278 345/2/276 356/2/287 357/4/288 
f 349/5/280 347/4/278 357/4/288 358/5/289 
f 351/6/282 349/5/280 358/5/289 359/6/290 
f 360/10/291 351/6/282 359/6/290 361/7/292 
f 362/8/293 360/10/291 361/7/292 363/8/294 
f 355/3/286 160/3/118 159/2/91 356/2/287 
f 356/2/287 159/2/91 161/4/144 357/4/288 
f 357/4/288 161/4/144 162/5/94 358/5/289 
f 358/5/289 162/5/94 163/6/145 359/6/290 
f 359/6/290 163/6/145 164/7/96 361/7/292 
f 361/7/292 164/7/96 165/8/112 363/8/294 
f 360/10/291 362/8/293 364/8/295 365/11/296 
f 346/2/277 366/2/297 367/3/298 343/3/274 
f 348/4/279 368/4/299 366/2/297 346/2/277 
f 350/5/281 369/5/300 368/4/299 348/4/279 
f 352/6/283 370/6/301 369/5/300 350/5/281 
f 354/9/285 371/9/302 370/6/301 352/6/283 
f 365/11/296 372/13/303 373/11/304 374/12/305 
f 364/8/295 375/8/306 372/13/303 365/11/296 
f 366/2/297 376/2/158 377/3/97 367/3/298 
f 368/4/299 378/4/159 376/2/158 366/2/297 
f 369/5/300 379/5/160 378/4/159 368/4/299 
f 370/6/301 380/6/161 379/5/160 369/5/300 
f 371/9/302 381/9/162 380/6/161 370/6/301 
f 373/11/304 382/15/168 383/14/167 384/14/307 
f 375/8/306 385/8/118 386/13/308 372/13/303 
f 377/3/97 376/2/158 190/2/158 189/3/97 
f 376/2/158 378/4/159 191/4/159 190/2/158 
f 378/4/159 379/5/160 192/5/160 191/4/159 
f 379/5/160 380/6/161 193/6/161 192/5/160 
f 380/6/161 381/9/162 194/9/162 193/6/161 
f 383/14/167 382/15/168 196/15/168 195/14/167 
f 386/13/308 385/8/118 198/8/92 197/13/169 
f 373/11/304 372/13/303 386/13/308 382/15/168 
f 382/15/168 386/13/308 197/13/169 196/15/168 
f 374/12/305 373/11/304 384/14/307 387/14/309 
f 374/12/305 351/6/282 360/10/291 365/11/296 
f 354/9/285 353/7/284 388/7/310 371/9/302 
f 371/9/302 388/7/310 389/7/172 381/9/162 
f 383/14/167 389/7/172 388/7/310 384/14/307 
f 381/9/162 389/7/172 202/7/172 194/9/162 
f 195/14/167 202/7/172 389/7/172 383/14/167 
f 384/14/307 388/7/310 353/7/284 387/14/309 
f 353/7/284 351/6/282 374/12/305 387/14/309 
f 390/2/311 391/2/312 303/3/248 302/3/247 
f 392/4/313 393/4/314 391/2/312 390/2/311 
f 394/5/315 395/5/316 393/4/314 392/4/313 
f 396/6/317 397/6/318 395/5/316 394/5/315 
f 398/7/319 399/7/320 397/6/318 396/6/317 
f 313/8/258 314/8/259 399/7/320 398/7/319 
f 303/3/248 391/2/312 400/2/122 315/3/92 
f 391/2/312 393/4/314 401/4/215 400/2/122 
f 393/4/314 395/5/316 402/5/115 401/4/215 
f 395/5/316 397/6/318 403/6/216 402/5/115 
f 397/6/318 399/7/320 404/7/119 403/6/216 
f 399/7/320 314/8/259 321/8/97 404/7/119 
f 302/3/247 323/3/261 405/2/321 390/2/311 
f 390/2/311 405/2/321 406/4/322 392/4/313 
f 392/4/313 406/4/322 407/5/323 394/5/315 
f 394/5/315 407/5/323 408/6/324 396/6/317 
f 396/6/317 408/6/324 409/7/325 398/7/319 
f 398/7/319 409/7/325 328/8/266 313/8/258 
f 323/3/261 330/3/268 410/2/326 405/2/321 
f 405/2/321 410/2/326 411/4/327 406/4/322 
f 406/4/322 411/4/327 412/5/328 407/5/323 
f 407/5/323 412/5/328 413/6/329 408/6/324 
f 408/6/324 413/6/329 414/7/330 409/7/325 
f 409/7/325 414/7/330 335/8/273 328/8/266 
f 330/3/268 337/3/112 415/2/96 410/2/326 
f 410/2/326 415/2/96 416/4/145 411/4/327 
f 411/4/327 416/4/145 417/5/94 412/5/328 
f 412/5/328 417/5/94 418/6/144 413/6/329 
f 413/6/329 418/6/144 419/7/91 414/7/330 
f 414/7/330 419/7/91 342/8/118 335/8/273 
f 337/3/112 131/3/97 233/2/96 415/2/96 
f 415/2/96 233/2/96 234/4/197 416/4/145 
f 416/4/145 234/4/197 235/5/195 417/5/94 
f 417/5/94 235/5/195 236/6/198 418/6/144 
f 418/6/144 236/6/198 237/7/91 419/7/91 
f 419/7/91 237/7/91 137/8/92 342/8/118 
f 343/3/274 420/2/331 421/2/332 344/3/275 
f 420/2/331 422/4/333 423/4/334 421/2/332 
f 422/4/333 424/5/335 425/5/336 423/4/334 
f 424/5/335 426/6/337 427/6/338 425/5/336 
f 426/6/337 428/9/339 429/7/340 427/6/338 
f 421/2/332 430/2/341 355/3/286 344/3/275 
f 423/4/334 431/4/342 430/2/341 421/2/332 
f 425/5/336 432/5/343 431/4/342 423/4/334 
f 427/6/338 433/6/344 432/5/343 425/5/336 
f 434/10/345 435/7/346 433/6/344 427/6/338 
f 362/8/293 363/8/294 435/7/346 434/10/345 
f 355/3/286 430/2/341 254/2/122 160/3/118 
f 430/2/341 431/4/342 255/4/215 254/2/122 
f 431/4/342 432/5/343 256/5/115 255/4/215 
f 432/5/343 433/6/344 257/6/216 256/5/115 
f 433/6/344 435/7/346 258/7/119 257/6/216 
f 435/7/346 363/8/294 165/8/112 258/7/119 
f 434/10/345 436/11/347 364/8/295 362/8/293 
f 420/2/331 343/3/274 367/3/298 437/2/348 
f 422/4/333 420/2/331 437/2/348 438/4/349 
f 424/5/335 422/4/333 438/4/349 439/5/350 
f 426/6/337 424/5/335 439/5/350 440/6/351 
f 428/9/339 426/6/337 440/6/351 441/9/352 
f 436/11/347 442/12/353 443/11/354 444/13/355 
f 364/8/295 436/11/347 444/13/355 375/8/306 
f 437/2/348 367/3/298 377/3/97 445/2/356 
f 438/4/349 437/2/348 445/2/356 446/4/236 
f 439/5/350 438/4/349 446/4/236 447/5/357 
f 440/6/351 439/5/350 447/5/357 448/6/238 
f 441/9/352 440/6/351 448/6/238 449/9/239 
f 443/11/354 450/14/358 451/14/359 452/15/360 
f 375/8/306 444/13/355 453/13/361 385/8/118 
f 377/3/97 189/3/97 277/2/235 445/2/356 
f 445/2/356 277/2/235 278/4/236 446/4/236 
f 446/4/236 278/4/236 279/5/237 447/5/357 
f 447/5/357 279/5/237 280/6/238 448/6/238 
f 448/6/238 280/6/238 281/9/239 449/9/239 
f 451/14/359 283/14/232 282/15/240 452/15/360 
f 453/13/361 284/13/241 198/8/92 385/8/118 
f 443/11/354 452/15/360 453/13/361 444/13/355 
f 452/15/360 282/15/240 284/13/241 453/13/361 
f 442/12/353 454/14/362 450/14/358 443/11/354 
f 442/12/353 436/11/347 434/10/345 427/6/338 
f 428/9/339 441/9/352 455/7/363 429/7/340 
f 441/9/352 449/9/239 456/7/245 455/7/363 
f 451/14/359 450/14/358 455/7/363 456/7/245 
f 449/9/239 281/9/239 288/7/245 456/7/245 
f 283/14/232 451/14/359 456/7/245 288/7/245 
f 450/14/358 454/14/362 429/7/340 455/7/363 
f 429/7/340 454/14/362 442/12/353 427/6/338 
f 316/2/91 315/3/92 290/3/92 289/2/91 
f 317/4/144 316/2/91 289/2/91 291/4/144 
f 318/5/94 317/4/144 291/4/144 292/5/94 
f 319/6/145 318/5/94 292/5/94 293/6/145 
f 320/7/96 319/6/145 293/6/145 294/7/96 
f 321/8/97 320/7/96 294/7/96 295/8/97 
f 315/3/92 400/2/122 296/2/122 290/3/92 
f 400/2/122 401/4/215 297/4/215 296/2/122 
f 401/4/215 402/5/115 298/5/115 297/4/215 
f 402/5/115 403/6/216 299/6/216 298/5/115 
f 403/6/216 404/7/119 300/7/119 299/6/216 
f 404/7/119 321/8/97 295/8/97 300/7/119 
# 456 polygons

