# 3ds Max Wavefront OBJ Exporter v0.99 - (c)2007 guruware
# File Created: 18.12.2025 12:27:01

mtllib JailHingedDoor_01.mtl

#
# object JailHingedDoor_01
#

v  -0.0414 0.0952 -1.1681
v  -0.0669 0.0952 -1.1575
v  -0.0669 1.2999 -1.1575
v  -0.0414 1.2999 -1.1681
v  -0.0774 0.0952 -1.1320
v  -0.0774 1.2999 -1.1320
v  -0.0669 0.0952 -1.1066
v  -0.0669 1.2999 -1.1066
v  -0.0414 0.0952 -1.0960
v  -0.0414 1.2999 -1.0960
v  -0.0159 0.0952 -1.1066
v  -0.0159 1.2999 -1.1066
v  -0.0054 0.0952 -1.1320
v  -0.0054 1.2999 -1.1320
v  -0.0159 0.0952 -1.1575
v  -0.0159 1.2999 -1.1575
v  -0.0414 0.0952 -0.8681
v  -0.0669 0.0952 -0.8575
v  -0.0669 1.2999 -0.8575
v  -0.0414 1.2999 -0.8681
v  -0.0774 0.0952 -0.8320
v  -0.0774 1.2999 -0.8320
v  -0.0669 0.0952 -0.8066
v  -0.0669 1.2999 -0.8066
v  -0.0414 0.0952 -0.7960
v  -0.0414 1.2999 -0.7960
v  -0.0159 0.0952 -0.8066
v  -0.0159 1.2999 -0.8066
v  -0.0054 0.0952 -0.8320
v  -0.0054 1.2999 -0.8320
v  -0.0159 0.0952 -0.8575
v  -0.0159 1.2999 -0.8575
v  -0.0414 0.0952 -0.5681
v  -0.0669 0.0952 -0.5575
v  -0.0669 1.2999 -0.5575
v  -0.0414 1.2999 -0.5681
v  -0.0774 0.0952 -0.5320
v  -0.0774 1.2999 -0.5320
v  -0.0669 0.0952 -0.5066
v  -0.0669 1.2999 -0.5066
v  -0.0414 0.0952 -0.4960
v  -0.0414 1.2999 -0.4960
v  -0.0159 0.0952 -0.5066
v  -0.0159 1.2999 -0.5066
v  -0.0054 0.0952 -0.5320
v  -0.0054 1.2999 -0.5320
v  -0.0159 0.0952 -0.5575
v  -0.0159 1.2999 -0.5575
v  -0.0414 0.0952 -0.2681
v  -0.0669 0.0952 -0.2575
v  -0.0669 2.8875 -0.2575
v  -0.0414 2.8875 -0.2681
v  -0.0774 0.0952 -0.2320
v  -0.0774 2.8875 -0.2320
v  -0.0669 0.0952 -0.2066
v  -0.0669 2.8875 -0.2066
v  -0.0414 0.0952 -0.1960
v  -0.0414 2.8875 -0.1960
v  -0.0159 0.0952 -0.2066
v  -0.0159 2.8875 -0.2066
v  -0.0054 0.0952 -0.2320
v  -0.0054 2.8875 -0.2320
v  -0.0159 0.0952 -0.2575
v  -0.0159 2.8875 -0.2575
v  -0.0414 0.0952 -1.4647
v  -0.0669 0.0952 -1.4541
v  -0.0669 2.8875 -1.4541
v  -0.0414 2.8875 -1.4647
v  -0.0774 0.0952 -1.4287
v  -0.0774 2.8875 -1.4287
v  -0.0669 0.0952 -1.4032
v  -0.0669 2.8875 -1.4032
v  -0.0414 0.0952 -1.3926
v  -0.0414 2.8875 -1.3926
v  -0.0159 0.0952 -1.4032
v  -0.0159 2.8875 -1.4032
v  -0.0054 0.0952 -1.4287
v  -0.0054 2.8875 -1.4287
v  -0.0159 0.0952 -1.4541
v  -0.0159 2.8875 -1.4541
v  -0.0851 2.8681 -0.0409
v  -0.0851 2.8681 -0.8317
v  -0.0003 2.8681 -0.8317
v  -0.0003 2.8681 -0.0409
v  -0.1007 2.9533 -0.0409
v  -0.1007 2.9533 -0.8317
v  -0.1007 2.8798 -0.8317
v  -0.1007 2.8798 -0.0409
v  -0.0003 2.9650 -0.0409
v  -0.0003 2.9650 -0.8317
v  -0.0851 2.9650 -0.8317
v  -0.0851 2.9650 -0.0409
v  0.0153 2.8798 -0.0409
v  0.0153 2.8798 -0.8317
v  0.0153 2.9533 -0.8317
v  0.0153 2.9533 -0.0409
v  -0.0080 2.8770 -0.0327
v  -0.0774 2.8770 -0.0327
v  -0.0902 2.8865 -0.0327
v  -0.0902 2.9466 -0.0327
v  -0.0774 2.9562 -0.0327
v  -0.0080 2.9562 -0.0327
v  0.0048 2.9466 -0.0327
v  0.0048 2.8865 -0.0327
v  -0.0077 2.8869 -0.0327
v  -0.0777 2.8869 -0.0327
v  -0.0777 2.9462 -0.0327
v  -0.0077 2.9462 -0.0327
v  -0.0851 2.8681 -1.6225
v  -0.0003 2.8681 -1.6225
v  -0.1007 2.9533 -1.6225
v  -0.1007 2.8798 -1.6225
v  -0.0003 2.9650 -1.6225
v  -0.0851 2.9650 -1.6225
v  0.0153 2.8798 -1.6225
v  0.0153 2.9533 -1.6225
v  -0.0774 2.8770 -1.6306
v  -0.0080 2.8770 -1.6306
v  -0.0902 2.9466 -1.6306
v  -0.0902 2.8865 -1.6306
v  -0.0080 2.9562 -1.6306
v  -0.0774 2.9562 -1.6306
v  0.0048 2.8865 -1.6306
v  0.0048 2.9466 -1.6306
v  -0.0777 2.8869 -1.6306
v  -0.0077 2.8869 -1.6306
v  -0.0777 2.9462 -1.6306
v  -0.0077 2.9462 -1.6306
v  -0.0851 0.0877 -0.0409
v  -0.0851 0.0877 -0.8317
v  -0.0003 0.0877 -0.8317
v  -0.0003 0.0877 -0.0409
v  -0.1007 0.1729 -0.0409
v  -0.1007 0.1729 -0.8317
v  -0.1007 0.0994 -0.8317
v  -0.1007 0.0994 -0.0409
v  -0.0003 0.1845 -0.0409
v  -0.0003 0.1845 -0.8317
v  -0.0851 0.1845 -0.8317
v  -0.0851 0.1845 -0.0409
v  0.0153 0.0994 -0.0409
v  0.0153 0.0994 -0.8317
v  0.0153 0.1729 -0.8317
v  0.0153 0.1729 -0.0409
v  -0.0080 0.0965 -0.0327
v  -0.0774 0.0965 -0.0327
v  -0.0902 0.1061 -0.0327
v  -0.0902 0.1662 -0.0327
v  -0.0774 0.1757 -0.0327
v  -0.0080 0.1757 -0.0327
v  0.0048 0.1662 -0.0327
v  0.0048 0.1061 -0.0327
v  -0.0077 0.1065 -0.0327
v  -0.0777 0.1065 -0.0327
v  -0.0777 0.1658 -0.0327
v  -0.0077 0.1658 -0.0327
v  -0.0851 0.0877 -1.6225
v  -0.0003 0.0877 -1.6225
v  -0.1007 0.1729 -1.6225
v  -0.1007 0.0994 -1.6225
v  -0.0003 0.1845 -1.6225
v  -0.0851 0.1845 -1.6225
v  0.0153 0.0994 -1.6225
v  0.0153 0.1729 -1.6225
v  -0.0774 0.0965 -1.6306
v  -0.0080 0.0965 -1.6306
v  -0.0902 0.1662 -1.6306
v  -0.0902 0.1061 -1.6306
v  -0.0080 0.1757 -1.6306
v  -0.0774 0.1757 -1.6306
v  0.0048 0.1061 -1.6306
v  0.0048 0.1662 -1.6306
v  -0.0777 0.1065 -1.6306
v  -0.0077 0.1065 -1.6306
v  -0.0777 0.1658 -1.6306
v  -0.0077 0.1658 -1.6306
v  -0.0098 2.9276 -1.6179
v  -0.0098 0.1508 -1.6179
v  -0.0731 0.1508 -1.6179
v  -0.0731 2.9276 -1.6179
v  -0.0731 0.1508 -0.1078
v  -0.0731 2.9276 -0.1078
v  -0.0098 2.9276 -0.1078
v  -0.0098 0.1508 -0.1078
v  -0.0731 0.1508 -0.0346
v  -0.0731 2.9276 -0.0346
v  -0.0098 0.1508 -1.5448
v  -0.0098 2.9276 -1.5448
v  -0.0731 2.9276 -1.5448
v  -0.0731 0.1508 -1.5448
v  -0.0098 2.9276 -0.0346
v  -0.0098 0.1508 -0.0346
v  -0.0669 1.5937 -1.1575
v  -0.0669 2.8875 -1.1575
v  -0.0414 2.8875 -1.1681
v  -0.0414 1.5937 -1.1681
v  -0.0774 1.5937 -1.1320
v  -0.0774 2.8875 -1.1320
v  -0.0669 1.5937 -1.1066
v  -0.0669 2.8875 -1.1066
v  -0.0414 1.5937 -1.0960
v  -0.0414 2.8875 -1.0960
v  -0.0159 1.5937 -1.1066
v  -0.0159 2.8875 -1.1066
v  -0.0054 1.5937 -1.1320
v  -0.0054 2.8875 -1.1320
v  -0.0159 1.5937 -1.1575
v  -0.0159 2.8875 -1.1575
v  -0.0669 1.5937 -0.8575
v  -0.0669 2.8875 -0.8575
v  -0.0414 2.8875 -0.8681
v  -0.0414 1.5937 -0.8681
v  -0.0774 1.5937 -0.8320
v  -0.0774 2.8875 -0.8320
v  -0.0669 1.5937 -0.8066
v  -0.0669 2.8875 -0.8066
v  -0.0414 1.5937 -0.7960
v  -0.0414 2.8875 -0.7960
v  -0.0159 1.5937 -0.8066
v  -0.0159 2.8875 -0.8066
v  -0.0054 1.5937 -0.8320
v  -0.0054 2.8875 -0.8320
v  -0.0159 1.5937 -0.8575
v  -0.0159 2.8875 -0.8575
v  -0.0669 1.5937 -0.5575
v  -0.0669 2.8875 -0.5575
v  -0.0414 2.8875 -0.5681
v  -0.0414 1.5937 -0.5681
v  -0.0774 1.5937 -0.5320
v  -0.0774 2.8875 -0.5320
v  -0.0669 1.5937 -0.5066
v  -0.0669 2.8875 -0.5066
v  -0.0414 1.5937 -0.4960
v  -0.0414 2.8875 -0.4960
v  -0.0159 1.5937 -0.5066
v  -0.0159 2.8875 -0.5066
v  -0.0054 1.5937 -0.5320
v  -0.0054 2.8875 -0.5320
v  -0.0159 1.5937 -0.5575
v  -0.0159 2.8875 -0.5575
v  -0.0851 1.5295 -1.5853
v  -0.0851 1.5295 -0.0706
v  -0.1007 1.5412 -0.0706
v  -0.1007 1.5412 -1.5853
v  -0.1007 1.5942 -1.5853
v  -0.1007 1.5942 -0.0706
v  -0.0851 1.6058 -0.0706
v  -0.0851 1.6058 -1.5853
v  -0.0003 1.6058 -1.5853
v  -0.0003 1.6058 -0.0706
v  0.0153 1.5942 -0.0706
v  0.0153 1.5942 -1.5853
v  0.0153 1.5412 -1.5853
v  0.0153 1.5412 -0.0706
v  -0.0003 1.5295 -0.0706
v  -0.0003 1.5295 -1.5853
v  -0.0851 1.2542 -1.5827
v  -0.0851 1.2542 -0.0693
v  -0.1007 1.2659 -0.0693
v  -0.1007 1.2659 -1.5827
v  -0.1007 1.3188 -1.5827
v  -0.1007 1.3188 -0.0693
v  -0.0851 1.3305 -0.0693
v  -0.0851 1.3305 -1.5827
v  -0.0003 1.3305 -1.5827
v  -0.0003 1.3305 -0.0693
v  0.0153 1.3188 -0.0693
v  0.0153 1.3188 -1.5827
v  0.0153 1.2659 -1.5827
v  0.0153 1.2659 -0.0693
v  -0.0003 1.2542 -0.0693
v  -0.0003 1.2542 -1.5827
v  -0.0732 1.5481 -1.6005
v  -0.0122 1.5481 -1.6005
v  -0.0732 1.5873 -1.6005
v  -0.0122 1.5873 -1.6005
v  -0.0732 1.2728 -1.5978
v  -0.0122 1.2728 -1.5978
v  -0.0732 1.3120 -1.5978
v  -0.0122 1.3120 -1.5978
v  -0.0732 1.5481 -0.0554
v  -0.0732 1.5873 -0.0554
v  -0.0122 1.5873 -0.0554
v  -0.0122 1.5481 -0.0554
v  -0.0122 1.2728 -0.0541
v  -0.0732 1.2728 -0.0541
v  -0.0732 1.3120 -0.0541
v  -0.0122 1.3120 -0.0541
v  -0.0851 1.5973 -1.5853
v  -0.0851 1.5973 -1.0952
v  -0.1007 1.6090 -1.0952
v  -0.1007 1.6090 -1.5853
v  -0.1007 1.8367 -1.5853
v  -0.1007 1.8367 -1.0952
v  -0.0851 1.8484 -1.0952
v  -0.0851 1.8484 -1.5853
v  -0.0003 1.8484 -1.5853
v  -0.0003 1.8484 -1.0952
v  0.0153 1.8367 -1.0952
v  0.0153 1.8367 -1.5853
v  0.0153 1.6090 -1.5853
v  0.0153 1.6090 -1.0952
v  -0.0003 1.5973 -1.0952
v  -0.0003 1.5973 -1.5853
v  -0.0732 1.6159 -1.6005
v  -0.0122 1.6159 -1.6005
v  -0.0732 1.8299 -1.6005
v  -0.0122 1.8299 -1.6005
v  -0.0732 1.6159 -1.0800
v  -0.0732 1.8299 -1.0800
v  -0.0122 1.8299 -1.0800
v  -0.0122 1.6159 -1.0800
v  0.0344 1.7712 -1.4795
v  0.0344 1.7247 -1.4988
v  -0.0432 1.7247 -1.4988
v  -0.0432 1.7712 -1.4795
v  0.0344 1.7905 -1.4330
v  -0.0432 1.7905 -1.4330
v  0.0344 1.7712 -1.3864
v  -0.0432 1.7712 -1.3864
v  0.0344 1.7247 -1.3671
v  -0.0432 1.7247 -1.3671
v  0.0344 1.6781 -1.3864
v  -0.0432 1.6781 -1.3864
v  0.0344 1.6588 -1.4330
v  -0.0432 1.6588 -1.4330
v  0.0344 1.6781 -1.4795
v  -0.0432 1.6781 -1.4795
v  0.0290 1.7247 -1.4668
v  0.0290 1.7486 -1.4569
v  0.0290 1.7247 -1.4330
v  0.0290 1.7585 -1.4330
v  0.0290 1.7486 -1.4090
v  0.0290 1.7247 -1.3991
v  0.0290 1.7007 -1.4090
v  0.0290 1.6908 -1.4330
v  0.0290 1.7007 -1.4569
v  0.0365 1.7519 -1.4602
v  0.0365 1.7247 -1.4715
v  0.0365 1.7632 -1.4330
v  0.0365 1.7519 -1.4057
v  0.0365 1.7247 -1.3944
v  0.0365 1.6974 -1.4057
v  0.0365 1.6861 -1.4330
v  0.0365 1.6974 -1.4602
v  -0.1207 1.7712 -1.4795
v  -0.1207 1.7247 -1.4988
v  -0.1207 1.7905 -1.4330
v  -0.1207 1.7712 -1.3864
v  -0.1207 1.7247 -1.3671
v  -0.1207 1.6781 -1.3864
v  -0.1207 1.6588 -1.4330
v  -0.1207 1.6781 -1.4795
v  -0.1153 1.7247 -1.4668
v  -0.1153 1.7247 -1.4330
v  -0.1153 1.7486 -1.4569
v  -0.1153 1.7585 -1.4330
v  -0.1153 1.7486 -1.4090
v  -0.1153 1.7247 -1.3991
v  -0.1153 1.7007 -1.4090
v  -0.1153 1.6908 -1.4330
v  -0.1153 1.7007 -1.4569
v  -0.1229 1.7247 -1.4715
v  -0.1229 1.7519 -1.4602
v  -0.1229 1.7632 -1.4330
v  -0.1229 1.7519 -1.4057
v  -0.1229 1.7247 -1.3944
v  -0.1229 1.6974 -1.4057
v  -0.1229 1.6861 -1.4330
v  -0.1229 1.6974 -1.4602
v  0.0000 0.3325 -0.0407
v  -0.0287 0.3325 -0.0287
v  -0.0287 0.5158 -0.0287
v  0.0000 0.5158 -0.0407
v  -0.0407 0.3325 -0.0000
v  -0.0407 0.5158 -0.0000
v  -0.0287 0.3325 0.0287
v  -0.0287 0.5158 0.0287
v  0.0000 0.3325 0.0407
v  0.0000 0.5158 0.0407
v  0.0287 0.3325 0.0287
v  0.0287 0.5158 0.0287
v  0.0407 0.3325 -0.0000
v  0.0407 0.5158 -0.0000
v  0.0287 0.3325 -0.0287
v  0.0287 0.5158 -0.0287
v  -0.0287 1.7350 -0.0287
v  0.0000 1.7350 -0.0407
v  0.0000 1.5516 -0.0407
v  -0.0287 1.5516 -0.0287
v  -0.0407 1.7350 -0.0000
v  -0.0407 1.5516 -0.0000
v  -0.0287 1.7350 0.0287
v  -0.0287 1.5516 0.0287
v  0.0000 1.7350 0.0407
v  0.0000 1.5516 0.0407
v  0.0287 1.7350 0.0287
v  0.0287 1.5516 0.0287
v  0.0407 1.7350 -0.0000
v  0.0407 1.5516 -0.0000
v  0.0287 1.7350 -0.0287
v  0.0287 1.5516 -0.0287
v  0.0000 2.4040 -0.0407
v  -0.0287 2.4040 -0.0287
v  -0.0287 2.5874 -0.0287
v  0.0000 2.5874 -0.0407
v  -0.0407 2.4040 -0.0000
v  -0.0407 2.5874 -0.0000
v  -0.0287 2.4040 0.0287
v  -0.0287 2.5874 0.0287
v  0.0000 2.4040 0.0407
v  0.0000 2.5874 0.0407
v  0.0287 2.4040 0.0287
v  0.0287 2.5874 0.0287
v  0.0407 2.4040 -0.0000
v  0.0407 2.5874 -0.0000
v  0.0287 2.4040 -0.0287
v  0.0287 2.5874 -0.0287
v  -0.0287 0.6992 -0.0287
v  0.0000 0.6992 -0.0407
v  -0.0407 0.6992 -0.0000
v  -0.0287 0.6992 0.0287
v  0.0000 0.6992 0.0407
v  0.0287 0.6992 0.0287
v  0.0407 0.6992 -0.0000
v  0.0287 0.6992 -0.0287
v  -0.0287 2.7708 -0.0287
v  0.0000 2.7708 -0.0407
v  -0.0407 2.7708 -0.0000
v  -0.0287 2.7708 0.0287
v  0.0000 2.7708 0.0407
v  0.0287 2.7708 0.0287
v  0.0407 2.7708 -0.0000
v  0.0287 2.7708 -0.0287
v  0.0000 1.3683 -0.0407
v  -0.0287 1.3683 -0.0287
v  -0.0407 1.3683 -0.0000
v  -0.0287 1.3683 0.0287
v  0.0000 1.3683 0.0407
v  0.0287 1.3683 0.0287
v  0.0407 1.3683 -0.0000
v  0.0287 1.3683 -0.0287
v  -0.0222 0.3239 -0.0222
v  0.0000 0.3239 -0.0314
v  0.0000 0.3239 -0.0000
v  -0.0314 0.3239 -0.0000
v  -0.0222 0.3239 0.0222
v  0.0000 0.3239 0.0314
v  0.0222 0.3239 0.0222
v  0.0314 0.3239 -0.0000
v  0.0222 0.3239 -0.0222
v  0.0000 1.7435 -0.0314
v  -0.0222 1.7435 -0.0222
v  0.0000 1.7435 -0.0000
v  -0.0314 1.7435 -0.0000
v  -0.0222 1.7435 0.0222
v  0.0000 1.7435 0.0314
v  0.0222 1.7435 0.0222
v  0.0314 1.7435 -0.0000
v  0.0222 1.7435 -0.0222
v  -0.0222 2.3955 -0.0222
v  0.0000 2.3955 -0.0314
v  0.0000 2.3955 -0.0000
v  -0.0314 2.3955 -0.0000
v  -0.0222 2.3955 0.0222
v  0.0000 2.3955 0.0314
v  0.0222 2.3955 0.0222
v  0.0314 2.3955 -0.0000
v  0.0222 2.3955 -0.0222
v  0.0000 0.7078 -0.0314
v  -0.0222 0.7078 -0.0222
v  0.0000 0.7078 -0.0000
v  -0.0314 0.7078 -0.0000
v  -0.0222 0.7078 0.0222
v  0.0000 0.7078 0.0314
v  0.0222 0.7078 0.0222
v  0.0314 0.7078 -0.0000
v  0.0222 0.7078 -0.0222
v  0.0000 2.7793 -0.0314
v  -0.0222 2.7793 -0.0222
v  0.0000 2.7793 -0.0000
v  -0.0314 2.7793 -0.0000
v  -0.0222 2.7793 0.0222
v  0.0000 2.7793 0.0314
v  0.0222 2.7793 0.0222
v  0.0314 2.7793 -0.0000
v  0.0222 2.7793 -0.0222
v  -0.0222 1.3597 -0.0222
v  0.0000 1.3597 -0.0314
v  0.0000 1.3597 -0.0000
v  -0.0314 1.3597 -0.0000
v  -0.0222 1.3597 0.0222
v  0.0000 1.3597 0.0314
v  0.0222 1.3597 0.0222
v  0.0314 1.3597 -0.0000
v  0.0222 1.3597 -0.0222
# 496 vertices

vn 0.0000 0.0000 -1.0000
vn -0.7071 0.0000 -0.7071
vn -1.0000 0.0000 -0.0000
vn -0.7071 0.0000 0.7071
vn 0.0000 0.0000 1.0000
vn 0.7071 0.0000 0.7071
vn 1.0000 0.0000 -0.0000
vn 0.7071 0.0000 -0.7071
vn -1.0000 0.0000 0.0000
vn 1.0000 0.0000 0.0000
vn -0.3020 -0.8568 0.4180
vn -0.3155 -0.9489 -0.0000
vn 0.3155 -0.9489 -0.0000
vn 0.3020 -0.8568 0.4180
vn -0.8063 0.4095 0.4269
vn -0.8941 0.4480 -0.0000
vn -0.8941 -0.4479 -0.0000
vn -0.8063 -0.4095 0.4269
vn 0.3020 0.8568 0.4180
vn 0.3155 0.9489 -0.0000
vn -0.3155 0.9489 -0.0000
vn -0.3020 0.8568 0.4180
vn 0.8063 -0.4095 0.4269
vn 0.8941 -0.4479 -0.0000
vn 0.8941 0.4480 -0.0000
vn 0.8063 0.4094 0.4269
vn 0.0897 -0.3727 0.9236
vn -0.0897 -0.3727 0.9236
vn -0.3275 -0.1492 0.9330
vn -0.3275 0.1492 0.9330
vn -0.0897 0.3727 0.9236
vn 0.0897 0.3727 0.9236
vn 0.3275 0.1492 0.9330
vn 0.3275 -0.1492 0.9330
vn -0.3020 -0.8568 -0.4180
vn 0.3020 -0.8568 -0.4180
vn -0.8063 0.4095 -0.4269
vn -0.8063 -0.4095 -0.4269
vn 0.3020 0.8568 -0.4180
vn -0.3020 0.8568 -0.4180
vn 0.8063 -0.4095 -0.4269
vn 0.8063 0.4094 -0.4269
vn -0.0897 -0.3727 -0.9236
vn 0.0897 -0.3727 -0.9236
vn -0.3275 0.1492 -0.9330
vn -0.3275 -0.1492 -0.9330
vn 0.0897 0.3727 -0.9236
vn -0.0897 0.3727 -0.9236
vn 0.3275 -0.1492 -0.9330
vn 0.3275 0.1492 -0.9330
vn -0.8063 0.4094 0.4269
vn -0.8941 0.4479 0.0000
vn -0.8063 -0.4094 0.4269
vn 0.8063 -0.4094 0.4269
vn 0.8941 0.4479 0.0000
vn 0.0897 -0.3726 0.9236
vn -0.0897 -0.3726 0.9236
vn -0.8063 0.4094 -0.4269
vn -0.8063 -0.4094 -0.4269
vn 0.8063 -0.4094 -0.4269
vn -0.0897 -0.3726 -0.9236
vn 0.0897 -0.3726 -0.9236
vn -0.2950 -0.8554 -0.4257
vn -0.2949 -0.8552 0.4262
vn -0.8002 -0.3897 0.4558
vn -0.8004 -0.3897 -0.4555
vn -0.8004 0.3897 -0.4555
vn -0.8002 0.3896 0.4559
vn -0.2949 0.8552 0.4262
vn -0.2950 0.8554 -0.4257
vn 0.2950 0.8554 -0.4257
vn 0.2949 0.8552 0.4262
vn 0.8002 0.3896 0.4559
vn 0.8004 0.3897 -0.4555
vn 0.8004 -0.3897 -0.4555
vn 0.8002 -0.3896 0.4559
vn 0.2949 -0.8552 0.4262
vn 0.2950 -0.8554 -0.4257
vn -0.2949 -0.8551 -0.4263
vn -0.2950 -0.8553 0.4259
vn -0.8003 -0.3897 0.4556
vn -0.8002 -0.3896 -0.4560
vn -0.8002 0.3896 -0.4560
vn -0.8003 0.3897 0.4557
vn -0.2950 0.8553 0.4259
vn -0.2949 0.8551 -0.4264
vn 0.2949 0.8551 -0.4264
vn 0.2950 0.8553 0.4259
vn 0.8003 0.3897 0.4557
vn 0.8002 0.3896 -0.4560
vn 0.8002 -0.3896 -0.4560
vn 0.8003 -0.3897 0.4556
vn 0.2950 -0.8553 0.4259
vn 0.2949 -0.8551 -0.4263
vn -0.1944 -0.2842 -0.9388
vn 0.1944 -0.2842 -0.9388
vn -0.1944 0.2842 -0.9388
vn 0.1944 0.2842 -0.9388
vn -0.1938 -0.2835 -0.9392
vn 0.1938 -0.2835 -0.9392
vn -0.1938 0.2835 -0.9392
vn 0.1938 0.2835 -0.9392
vn -0.1940 -0.2837 0.9391
vn -0.1940 0.2837 0.9391
vn 0.1940 0.2837 0.9391
vn 0.1940 -0.2837 0.9391
vn 0.1943 -0.2840 0.9389
vn -0.1943 -0.2840 0.9389
vn -0.1943 0.2840 0.9389
vn 0.1943 0.2840 0.9389
vn -0.8002 -0.3897 0.4559
vn 0.6059 0.5625 -0.5625
vn 0.6059 0.0000 -0.7955
vn 0.0000 0.7071 -0.7071
vn 0.6059 0.7955 -0.0000
vn 0.0000 1.0000 -0.0000
vn 0.6059 0.5625 0.5625
vn 0.0000 0.7071 0.7071
vn 0.6059 0.0000 0.7955
vn 0.6059 -0.5625 0.5625
vn 0.0000 -0.7071 0.7071
vn 0.6059 -0.7955 -0.0000
vn 0.0000 -1.0000 -0.0000
vn 0.6059 -0.5625 -0.5625
vn 0.0000 -0.7071 -0.7071
vn 0.8241 0.0000 0.5664
vn 0.8242 -0.4004 0.4004
vn 0.8242 -0.5663 -0.0000
vn 0.8242 -0.4004 -0.4004
vn 0.8241 0.0000 -0.5664
vn 0.8242 0.4004 -0.4004
vn 0.8242 0.5663 -0.0000
vn 0.8242 0.4004 0.4004
vn 0.9420 -0.2373 0.2373
vn 0.9420 -0.0000 0.3357
vn 0.9420 -0.3356 0.0000
vn 0.9420 -0.2373 -0.2373
vn 0.9420 0.0000 -0.3357
vn 0.9420 0.2373 -0.2373
vn 0.9420 0.3356 0.0000
vn 0.9420 0.2373 0.2373
vn -0.6059 0.5625 -0.5625
vn -0.6059 0.0000 -0.7955
vn -0.6059 0.7955 -0.0000
vn -0.6059 0.5625 0.5625
vn -0.6059 0.0000 0.7955
vn -0.6059 -0.5625 0.5625
vn -0.6059 -0.7955 -0.0000
vn -0.6059 -0.5625 -0.5625
vn -0.8241 0.0000 0.5664
vn -0.8242 -0.4004 0.4004
vn -0.8242 -0.5663 -0.0000
vn -0.8242 -0.4004 -0.4004
vn -0.8241 0.0000 -0.5664
vn -0.8242 0.4004 -0.4004
vn -0.8242 0.5663 -0.0000
vn -0.8242 0.4004 0.4004
vn -0.9420 -0.0000 0.3357
vn -0.9420 -0.2373 0.2373
vn -0.9420 -0.3356 0.0000
vn -0.9420 -0.2373 -0.2373
vn -0.9420 0.0000 -0.3357
vn -0.9420 0.2373 -0.2373
vn -0.9420 0.3356 0.0000
vn -0.9420 0.2373 0.2373
vn 0.0000 -0.3689 -0.9295
vn -0.6572 -0.3689 -0.6572
vn -0.9295 -0.3689 -0.0000
vn -0.6572 -0.3689 0.6572
vn 0.0000 -0.3689 0.9295
vn 0.6572 -0.3689 0.6573
vn 0.9295 -0.3689 -0.0000
vn 0.6572 -0.3689 -0.6573
vn -0.6573 0.3689 -0.6572
vn 0.0000 0.3688 -0.9295
vn -0.9295 0.3688 -0.0000
vn -0.6572 0.3689 0.6572
vn 0.0000 0.3688 0.9295
vn 0.6572 0.3689 0.6573
vn 0.9295 0.3689 -0.0000
vn 0.6572 0.3689 -0.6573
vn -0.6573 0.3688 -0.6572
vn -0.6572 0.3689 -0.6572
vn 0.0000 0.3689 -0.9295
vn -0.9295 0.3689 -0.0000
vn 0.0000 0.3689 0.9295
vn -0.3095 -0.8991 -0.3095
vn 0.0000 -0.8991 -0.4377
vn -0.4377 -0.8991 0.0000
vn -0.3095 -0.8991 0.3095
vn 0.0000 -0.8991 0.4377
vn 0.3095 -0.8991 0.3095
vn 0.4377 -0.8991 0.0000
vn 0.3095 -0.8991 -0.3095
vn -0.0000 0.8991 -0.4377
vn -0.3095 0.8991 -0.3095
vn 0.0000 1.0000 0.0000
vn -0.4377 0.8991 0.0000
vn -0.3095 0.8991 0.3095
vn 0.0000 0.8991 0.4377
vn 0.3095 0.8991 0.3095
vn 0.4377 0.8991 0.0000
vn 0.3095 0.8991 -0.3095
vn 0.0000 -1.0000 0.0000
vn -0.0000 -0.8991 0.4377
vn 0.0000 0.8991 -0.4377
vn -0.0000 -0.8991 -0.4377
# 207 vertex normals

vt 0.7500 0.0000 1.0000
vt 0.8750 0.0000 1.0000
vt 0.8750 0.1220 1.0000
vt 0.7500 0.1220 1.0000
vt -0.1250 0.0000 1.0000
vt 0.0000 0.0000 1.0000
vt 0.0000 0.1220 1.0000
vt -0.1250 0.1220 1.0000
vt 0.1250 0.0000 1.0000
vt 0.1250 0.1220 1.0000
vt 0.2500 0.0000 1.0000
vt 0.2500 0.1220 1.0000
vt 0.3750 0.0000 1.0000
vt 0.3750 0.1220 1.0000
vt 0.5000 0.0000 1.0000
vt 0.5000 0.1220 1.0000
vt 0.6250 0.0000 1.0000
vt 0.6250 0.1220 1.0000
vt 0.8750 0.4878 1.0000
vt 0.7500 0.4878 1.0000
vt 0.0000 0.4878 1.0000
vt -0.1250 0.4878 1.0000
vt 0.1250 0.4878 1.0000
vt 0.2500 0.4878 1.0000
vt 0.3750 0.4878 1.0000
vt 0.5000 0.4878 1.0000
vt 0.6250 0.4878 1.0000
vt 0.8414 0.2658 1.0000
vt 0.8414 0.3914 1.0000
vt 0.6586 0.3914 1.0000
vt 0.6586 0.2658 1.0000
vt 0.1045 0.2658 1.0000
vt 0.1045 0.3914 1.0000
vt -0.1045 0.3914 1.0000
vt -0.1045 0.2658 1.0000
vt 0.3414 0.2658 1.0000
vt 0.3414 0.3914 1.0000
vt 0.1586 0.3914 1.0000
vt 0.1586 0.2658 1.0000
vt 0.6045 0.2658 1.0000
vt 0.6045 0.3914 1.0000
vt 0.3955 0.3914 1.0000
vt 0.3955 0.2658 1.0000
vt 0.8750 0.2658 1.0000
vt 0.6316 0.2658 1.0000
vt 0.8582 0.2658 1.0000
vt 0.1316 0.2658 1.0000
vt 0.3684 0.2658 1.0000
vt 0.8750 0.3914 1.0000
vt 0.4714 0.5000 1.0000
vt 0.4714 0.2500 1.0000
vt 0.0286 0.2500 1.0000
vt 0.0286 0.5000 1.0000
vt 0.8750 0.2500 1.0000
vt 0.8750 0.5000 1.0000
vt 0.6250 0.5000 1.0000
vt 0.6250 0.2500 1.0000
vt -0.0286 0.2500 1.0000
vt -0.0286 0.5000 1.0000
vt -0.1250 0.5000 1.0000
vt -0.1250 0.2500 1.0000
vt 0.3750 0.2500 1.0000
vt 0.3750 0.5000 1.0000
vt 0.1250 0.5000 1.0000
vt 0.1250 0.2500 1.0000
vt 0.5286 0.5000 1.0000
vt 0.5286 0.2500 1.0000
vt 0.8750 0.2439 1.0000
vt 0.7500 0.2439 1.0000
vt 0.0000 0.2439 1.0000
vt -0.1250 0.2439 1.0000
vt 0.1250 0.2439 1.0000
vt 0.2500 0.2439 1.0000
vt 0.3750 0.2439 1.0000
vt 0.5000 0.2439 1.0000
vt 0.6250 0.2439 1.0000
vt 0.8414 0.5110 1.0000
vt 0.8414 0.2706 1.0000
vt 0.8750 0.2706 1.0000
vt 0.8750 0.5110 1.0000
vt 0.1045 0.5110 1.0000
vt 0.1045 0.2706 1.0000
vt 0.1586 0.2706 1.0000
vt 0.1586 0.5110 1.0000
vt 0.3414 0.5110 1.0000
vt 0.3414 0.2706 1.0000
vt 0.3955 0.2706 1.0000
vt 0.3955 0.5110 1.0000
vt 0.6045 0.5110 1.0000
vt 0.6045 0.2706 1.0000
vt 0.6586 0.2706 1.0000
vt 0.6586 0.5110 1.0000
vt 0.8414 0.5106 1.0000
vt 0.8414 0.2704 1.0000
vt 0.8750 0.2704 1.0000
vt 0.8750 0.5106 1.0000
vt 0.1045 0.5106 1.0000
vt 0.1045 0.2704 1.0000
vt 0.1586 0.2704 1.0000
vt 0.1586 0.5106 1.0000
vt 0.3414 0.5106 1.0000
vt 0.3414 0.2704 1.0000
vt 0.3955 0.2704 1.0000
vt 0.3955 0.5106 1.0000
vt 0.6045 0.5106 1.0000
vt 0.6045 0.2704 1.0000
vt 0.6586 0.2704 1.0000
vt 0.6586 0.5106 1.0000
vt -0.1045 0.5110 1.0000
vt -0.1045 0.2706 1.0000
vt -0.1045 0.5106 1.0000
vt -0.1045 0.2704 1.0000
vt 0.8582 0.5110 1.0000
vt 0.6316 0.5110 1.0000
vt 0.1316 0.5110 1.0000
vt 0.3684 0.5110 1.0000
vt 0.8582 0.5106 1.0000
vt 0.6316 0.5106 1.0000
vt 0.1316 0.5106 1.0000
vt 0.3684 0.5106 1.0000
vt 0.8582 0.2706 1.0000
vt 0.1316 0.2706 1.0000
vt 0.3684 0.2706 1.0000
vt 0.6316 0.2706 1.0000
vt 0.6316 0.2704 1.0000
vt 0.8582 0.2704 1.0000
vt 0.1316 0.2704 1.0000
vt 0.3684 0.2704 1.0000
vt 0.8750 0.3987 1.0000
vt 0.7500 0.3987 1.0000
vt 0.7500 0.3558 1.0000
vt 0.8750 0.3558 1.0000
vt 0.0000 0.3987 1.0000
vt -0.1250 0.3987 1.0000
vt -0.1250 0.3558 1.0000
vt 0.0000 0.3558 1.0000
vt 0.1250 0.3987 1.0000
vt 0.1250 0.3558 1.0000
vt 0.2500 0.3987 1.0000
vt 0.2500 0.3558 1.0000
vt 0.3750 0.3987 1.0000
vt 0.3750 0.3558 1.0000
vt 0.5000 0.3987 1.0000
vt 0.5000 0.3558 1.0000
vt 0.6250 0.3987 1.0000
vt 0.6250 0.3558 1.0000
vt 0.6645 0.4007 1.0000
vt 0.7610 0.4007 1.0000
vt 0.3750 0.4007 1.0000
vt -0.0110 0.4007 1.0000
vt 0.0855 0.4007 1.0000
vt 0.1820 0.4007 1.0000
vt 0.2785 0.4007 1.0000
vt 0.4715 0.4007 1.0000
vt 0.5680 0.4007 1.0000
vt 0.7500 0.0707 1.0000
vt 0.8750 0.0707 1.0000
vt 0.8750 0.1136 1.0000
vt 0.7500 0.1136 1.0000
vt -0.1250 0.0707 1.0000
vt 0.0000 0.0707 1.0000
vt 0.0000 0.1136 1.0000
vt -0.1250 0.1136 1.0000
vt 0.1250 0.0707 1.0000
vt 0.1250 0.1136 1.0000
vt 0.2500 0.0707 1.0000
vt 0.2500 0.1136 1.0000
vt 0.3750 0.0707 1.0000
vt 0.3750 0.1136 1.0000
vt 0.5000 0.0707 1.0000
vt 0.5000 0.1136 1.0000
vt 0.6250 0.0707 1.0000
vt 0.6250 0.1136 1.0000
vt 0.7500 0.5552 1.0000
vt 0.8750 0.5552 1.0000
vt 0.8750 0.5981 1.0000
vt 0.7500 0.5981 1.0000
vt -0.1250 0.5552 1.0000
vt 0.0000 0.5552 1.0000
vt 0.0000 0.5981 1.0000
vt -0.1250 0.5981 1.0000
vt 0.1250 0.5552 1.0000
vt 0.1250 0.5981 1.0000
vt 0.2500 0.5552 1.0000
vt 0.2500 0.5981 1.0000
vt 0.3750 0.5552 1.0000
vt 0.3750 0.5981 1.0000
vt 0.5000 0.5552 1.0000
vt 0.5000 0.5981 1.0000
vt 0.6250 0.5552 1.0000
vt 0.6250 0.5981 1.0000
vt 0.8750 0.1565 1.0000
vt 0.7500 0.1565 1.0000
vt 0.0000 0.1565 1.0000
vt -0.1250 0.1565 1.0000
vt 0.1250 0.1565 1.0000
vt 0.2500 0.1565 1.0000
vt 0.3750 0.1565 1.0000
vt 0.5000 0.1565 1.0000
vt 0.6250 0.1565 1.0000
vt 0.8750 0.6410 1.0000
vt 0.7500 0.6410 1.0000
vt 0.0000 0.6410 1.0000
vt -0.1250 0.6410 1.0000
vt 0.1250 0.6410 1.0000
vt 0.2500 0.6410 1.0000
vt 0.3750 0.6410 1.0000
vt 0.5000 0.6410 1.0000
vt 0.6250 0.6410 1.0000
vt 0.7500 0.3130 1.0000
vt 0.8750 0.3130 1.0000
vt -0.1250 0.3130 1.0000
vt 0.0000 0.3130 1.0000
vt 0.1250 0.3130 1.0000
vt 0.2500 0.3130 1.0000
vt 0.3750 0.3130 1.0000
vt 0.5000 0.3130 1.0000
vt 0.6250 0.3130 1.0000
vt 0.7610 0.0687 1.0000
vt 0.6645 0.0687 1.0000
vt 0.3750 0.0687 1.0000
vt 0.0855 0.0687 1.0000
vt -0.0110 0.0687 1.0000
vt 0.1820 0.0687 1.0000
vt 0.2785 0.0687 1.0000
vt 0.4715 0.0687 1.0000
vt 0.5680 0.0687 1.0000
vt 0.7610 0.5532 1.0000
vt 0.6645 0.5532 1.0000
vt 0.3750 0.5532 1.0000
vt 0.0855 0.5532 1.0000
vt -0.0110 0.5532 1.0000
vt 0.1820 0.5532 1.0000
vt 0.2785 0.5532 1.0000
vt 0.4715 0.5532 1.0000
vt 0.5680 0.5532 1.0000
vt 0.6645 0.1585 1.0000
vt 0.7610 0.1585 1.0000
vt 0.3750 0.1585 1.0000
vt -0.0110 0.1585 1.0000
vt 0.0855 0.1585 1.0000
vt 0.1820 0.1585 1.0000
vt 0.2785 0.1585 1.0000
vt 0.4715 0.1585 1.0000
vt 0.5680 0.1585 1.0000
vt 0.6645 0.6430 1.0000
vt 0.7610 0.6430 1.0000
vt 0.3750 0.6430 1.0000
vt -0.0110 0.6430 1.0000
vt 0.0855 0.6430 1.0000
vt 0.1820 0.6430 1.0000
vt 0.2785 0.6430 1.0000
vt 0.4715 0.6430 1.0000
vt 0.5680 0.6430 1.0000
vt 0.7610 0.3110 1.0000
vt 0.6645 0.3110 1.0000
vt 0.3750 0.3110 1.0000
vt 0.0855 0.3110 1.0000
vt -0.0110 0.3110 1.0000
vt 0.1820 0.3110 1.0000
vt 0.2785 0.3110 1.0000
vt 0.4715 0.3110 1.0000
vt 0.5680 0.3110 1.0000
# 263 texture coords

o JailHingedDoor_01
g JailHingedDoor_01
usemtl Material__65
s 1
f 1/1/1 2/2/2 3/3/2 4/4/1 
f 2/5/2 5/6/3 6/7/3 3/8/2 
f 5/6/3 7/9/4 8/10/4 6/7/3 
f 7/9/4 9/11/5 10/12/5 8/10/4 
f 9/11/5 11/13/6 12/14/6 10/12/5 
f 11/13/6 13/15/7 14/16/7 12/14/6 
f 13/15/7 15/17/8 16/18/8 14/16/7 
f 15/17/8 1/1/1 4/4/1 16/18/8 
f 17/1/1 18/2/2 19/3/2 20/4/1 
f 18/5/2 21/6/9 22/7/9 19/8/2 
f 21/6/9 23/9/4 24/10/4 22/7/9 
f 23/9/4 25/11/5 26/12/5 24/10/4 
f 25/11/5 27/13/6 28/14/6 26/12/5 
f 27/13/6 29/15/10 30/16/10 28/14/6 
f 29/15/10 31/17/8 32/18/8 30/16/10 
f 31/17/8 17/1/1 20/4/1 32/18/8 
f 33/1/1 34/2/2 35/3/2 36/4/1 
f 34/5/2 37/6/9 38/7/9 35/8/2 
f 37/6/9 39/9/4 40/10/4 38/7/9 
f 39/9/4 41/11/5 42/12/5 40/10/4 
f 41/11/5 43/13/6 44/14/6 42/12/5 
f 43/13/6 45/15/10 46/16/10 44/14/6 
f 45/15/10 47/17/8 48/18/8 46/16/10 
f 47/17/8 33/1/1 36/4/1 48/18/8 
f 49/1/1 50/2/2 51/19/2 52/20/1 
f 50/5/2 53/6/3 54/21/3 51/22/2 
f 53/6/3 55/9/4 56/23/4 54/21/3 
f 55/9/4 57/11/5 58/24/5 56/23/4 
f 57/11/5 59/13/6 60/25/6 58/24/5 
f 59/13/6 61/15/7 62/26/7 60/25/6 
f 61/15/7 63/17/8 64/27/8 62/26/7 
f 63/17/8 49/1/1 52/20/1 64/27/8 
f 65/1/1 66/2/2 67/19/2 68/20/1 
f 66/5/2 69/6/3 70/21/3 67/22/2 
f 69/6/3 71/9/4 72/23/4 70/21/3 
f 71/9/4 73/11/5 74/24/5 72/23/4 
f 73/11/5 75/13/6 76/25/6 74/24/5 
f 75/13/6 77/15/7 78/26/7 76/25/6 
f 77/15/7 79/17/8 80/27/8 78/26/7 
f 79/17/8 65/1/1 68/20/1 80/27/8 
f 81/28/11 82/29/12 83/30/13 84/31/14 
f 85/32/15 86/33/16 87/34/17 88/35/18 
f 89/36/19 90/37/20 91/38/21 92/39/22 
f 93/40/23 94/41/24 95/42/25 96/43/26 
f 81/28/11 84/31/14 97/31/27 98/28/28 
f 85/32/15 88/35/18 99/35/29 100/32/30 
f 89/36/19 92/39/22 101/39/31 102/36/32 
f 93/40/23 96/43/26 103/43/33 104/40/34 
f 88/44/18 81/28/11 98/28/28 99/44/29 
f 92/39/22 85/32/15 100/32/30 101/39/31 
f 96/43/26 89/36/19 102/36/32 103/43/33 
f 84/31/14 93/40/23 104/40/34 97/31/27 
f 98/28/28 97/31/27 105/45/5 106/46/5 
f 100/32/30 99/35/29 106/35/5 107/47/5 
f 102/36/32 101/39/31 107/47/5 108/48/5 
f 104/40/34 103/43/33 108/48/5 105/45/5 
f 99/44/29 98/28/28 106/46/5 
f 101/39/31 100/32/30 107/47/5 
f 103/43/33 102/36/32 108/48/5 
f 97/31/27 104/40/34 105/45/5 
f 105/45/5 108/48/5 107/47/5 106/35/5 
f 82/29/12 81/28/11 88/44/18 87/49/17 
f 86/33/16 85/32/15 92/39/22 91/38/21 
f 90/37/20 89/36/19 96/43/26 95/42/25 
f 94/41/24 93/40/23 84/31/14 83/30/13 
f 109/28/35 110/31/36 83/30/13 82/29/12 
f 111/32/37 112/35/38 87/34/17 86/33/16 
f 113/36/39 114/39/40 91/38/21 90/37/20 
f 115/40/41 116/43/42 95/42/25 94/41/24 
f 109/28/35 117/28/43 118/31/44 110/31/36 
f 111/32/37 119/32/45 120/35/46 112/35/38 
f 113/36/39 121/36/47 122/39/48 114/39/40 
f 115/40/41 123/40/49 124/43/50 116/43/42 
f 112/44/38 120/44/46 117/28/43 109/28/35 
f 114/39/40 122/39/48 119/32/45 111/32/37 
f 116/43/42 124/43/50 121/36/47 113/36/39 
f 110/31/36 118/31/44 123/40/49 115/40/41 
f 117/28/43 125/46/1 126/45/1 118/31/44 
f 119/32/45 127/47/1 125/35/1 120/35/46 
f 121/36/47 128/48/1 127/47/1 122/39/48 
f 123/40/49 126/45/1 128/48/1 124/43/50 
f 120/44/46 125/46/1 117/28/43 
f 122/39/48 127/47/1 119/32/45 
f 124/43/50 128/48/1 121/36/47 
f 118/31/44 126/45/1 123/40/49 
f 126/45/1 125/35/1 127/47/1 128/48/1 
f 82/29/12 87/49/17 112/44/38 109/28/35 
f 86/33/16 91/38/21 114/39/40 111/32/37 
f 90/37/20 95/42/25 116/43/42 113/36/39 
f 94/41/24 83/30/13 110/31/36 115/40/41 
f 129/28/11 130/29/12 131/30/13 132/31/14 
f 133/32/51 134/33/52 135/34/17 136/35/53 
f 137/36/19 138/37/20 139/38/21 140/39/22 
f 141/40/54 142/41/24 143/42/55 144/43/26 
f 129/28/11 132/31/14 145/31/56 146/28/57 
f 133/32/51 136/35/53 147/35/29 148/32/30 
f 137/36/19 140/39/22 149/39/31 150/36/32 
f 141/40/54 144/43/26 151/43/33 152/40/34 
f 136/44/53 129/28/11 146/28/57 147/44/29 
f 140/39/22 133/32/51 148/32/30 149/39/31 
f 144/43/26 137/36/19 150/36/32 151/43/33 
f 132/31/14 141/40/54 152/40/34 145/31/56 
f 146/28/57 145/31/56 153/45/5 154/46/5 
f 148/32/30 147/35/29 154/35/5 155/47/5 
f 150/36/32 149/39/31 155/47/5 156/48/5 
f 152/40/34 151/43/33 156/48/5 153/45/5 
f 147/44/29 146/28/57 154/46/5 
f 149/39/31 148/32/30 155/47/5 
f 151/43/33 150/36/32 156/48/5 
f 145/31/56 152/40/34 153/45/5 
f 153/45/5 156/48/5 155/47/5 154/35/5 
f 130/29/12 129/28/11 136/44/53 135/49/17 
f 134/33/52 133/32/51 140/39/22 139/38/21 
f 138/37/20 137/36/19 144/43/26 143/42/55 
f 142/41/24 141/40/54 132/31/14 131/30/13 
f 157/28/35 158/31/36 131/30/13 130/29/12 
f 159/32/58 160/35/59 135/34/17 134/33/52 
f 161/36/39 162/39/40 139/38/21 138/37/20 
f 163/40/60 164/43/42 143/42/55 142/41/24 
f 157/28/35 165/28/61 166/31/62 158/31/36 
f 159/32/58 167/32/45 168/35/46 160/35/59 
f 161/36/39 169/36/47 170/39/48 162/39/40 
f 163/40/60 171/40/49 172/43/50 164/43/42 
f 160/44/59 168/44/46 165/28/61 157/28/35 
f 162/39/40 170/39/48 167/32/45 159/32/58 
f 164/43/42 172/43/50 169/36/47 161/36/39 
f 158/31/36 166/31/62 171/40/49 163/40/60 
f 165/28/61 173/46/1 174/45/1 166/31/62 
f 167/32/45 175/47/1 173/35/1 168/35/46 
f 169/36/47 176/48/1 175/47/1 170/39/48 
f 171/40/49 174/45/1 176/48/1 172/43/50 
f 168/44/46 173/46/1 165/28/61 
f 170/39/48 175/47/1 167/32/45 
f 172/43/50 176/48/1 169/36/47 
f 166/31/62 174/45/1 171/40/49 
f 174/45/1 173/35/1 175/47/1 176/48/1 
f 130/29/12 135/49/17 160/44/59 157/28/35 
f 134/33/52 139/38/21 162/39/40 159/32/58 
f 138/37/20 143/42/55 164/43/42 161/36/39 
f 142/41/24 131/30/13 158/31/36 163/40/60 
f 177/50/8 178/51/8 179/52/2 180/53/2 
f 181/54/2 182/55/2 183/56/8 184/57/8 
f 185/58/4 186/59/4 182/60/2 181/61/2 
f 187/62/6 188/63/6 189/64/4 190/65/4 
f 178/51/8 177/50/8 188/63/6 187/62/6 
f 184/57/8 183/56/8 191/66/6 192/67/6 
f 190/65/4 189/64/4 180/53/2 179/52/2 
f 192/67/6 191/66/6 186/59/4 185/58/4 
f 193/68/2 194/19/2 195/20/1 196/69/1 
f 197/70/3 198/21/3 194/22/2 193/71/2 
f 199/72/4 200/23/4 198/21/3 197/70/3 
f 201/73/5 202/24/5 200/23/4 199/72/4 
f 203/74/6 204/25/6 202/24/5 201/73/5 
f 205/75/7 206/26/7 204/25/6 203/74/6 
f 207/76/8 208/27/8 206/26/7 205/75/7 
f 196/69/1 195/20/1 208/27/8 207/76/8 
f 209/68/2 210/19/2 211/20/1 212/69/1 
f 213/70/9 214/21/9 210/22/2 209/71/2 
f 215/72/4 216/23/4 214/21/9 213/70/9 
f 217/73/5 218/24/5 216/23/4 215/72/4 
f 219/74/6 220/25/6 218/24/5 217/73/5 
f 221/75/10 222/26/10 220/25/6 219/74/6 
f 223/76/8 224/27/8 222/26/10 221/75/10 
f 212/69/1 211/20/1 224/27/8 223/76/8 
f 225/68/2 226/19/2 227/20/1 228/69/1 
f 229/70/9 230/21/9 226/22/2 225/71/2 
f 231/72/4 232/23/4 230/21/9 229/70/9 
f 233/73/5 234/24/5 232/23/4 231/72/4 
f 235/74/6 236/25/6 234/24/5 233/73/5 
f 237/75/10 238/26/10 236/25/6 235/74/6 
f 239/76/8 240/27/8 238/26/10 237/75/10 
f 228/69/1 227/20/1 240/27/8 239/76/8 
f 241/77/63 242/78/64 243/79/65 244/80/66 
f 245/81/67 246/82/68 247/83/69 248/84/70 
f 249/85/71 250/86/72 251/87/73 252/88/74 
f 253/89/75 254/90/76 255/91/77 256/92/78 
f 257/93/79 258/94/80 259/95/81 260/96/82 
f 261/97/83 262/98/84 263/99/85 264/100/86 
f 265/101/87 266/102/88 267/103/89 268/104/90 
f 269/105/91 270/106/92 271/107/93 272/108/94 
f 242/78/64 241/77/63 256/92/78 255/91/77 
f 246/82/68 245/81/67 244/109/66 243/110/65 
f 250/86/72 249/85/71 248/84/70 247/83/69 
f 254/90/76 253/89/75 252/88/74 251/87/73 
f 258/94/80 257/93/79 272/108/94 271/107/93 
f 262/98/84 261/97/83 260/111/82 259/112/81 
f 266/102/88 265/101/87 264/100/86 263/99/85 
f 270/106/92 269/105/91 268/104/90 267/103/89 
f 256/92/78 241/77/63 273/113/95 274/114/96 
f 244/109/66 245/81/67 275/115/97 273/109/95 
f 248/84/70 249/85/71 276/116/98 275/115/97 
f 252/88/74 253/89/75 274/114/96 276/116/98 
f 241/77/63 244/80/66 273/113/95 
f 245/81/67 248/84/70 275/115/97 
f 249/85/71 252/88/74 276/116/98 
f 253/89/75 256/92/78 274/114/96 
f 272/108/94 257/93/79 277/117/99 278/118/100 
f 260/111/82 261/97/83 279/119/101 277/111/99 
f 264/100/86 265/101/87 280/120/102 279/119/101 
f 268/104/90 269/105/91 278/118/100 280/120/102 
f 257/93/79 260/96/82 277/117/99 
f 261/97/83 264/100/86 279/119/101 
f 265/101/87 268/104/90 280/120/102 
f 269/105/91 272/108/94 278/118/100 
f 243/79/65 242/78/64 281/121/103 
f 247/83/69 246/82/68 282/122/104 
f 251/87/73 250/86/72 283/123/105 
f 255/91/77 254/90/76 284/124/106 
f 242/78/64 255/91/77 284/124/106 281/121/103 
f 246/82/68 243/110/65 281/110/103 282/122/104 
f 250/86/72 247/83/69 282/122/104 283/123/105 
f 254/90/76 251/87/73 283/123/105 284/124/106 
f 258/94/80 271/107/93 285/125/107 286/126/108 
f 262/98/84 259/112/81 286/112/108 287/127/109 
f 266/102/88 263/99/85 287/127/109 288/128/110 
f 270/106/92 267/103/89 288/128/110 285/125/107 
f 259/95/81 258/94/80 286/126/108 
f 263/99/85 262/98/84 287/127/109 
f 267/103/89 266/102/88 288/128/110 
f 271/107/93 270/106/92 285/125/107 
f 273/113/95 275/115/97 276/116/98 274/114/96 
f 277/117/99 279/119/101 280/120/102 278/118/100 
f 284/124/106 283/123/105 282/122/104 281/110/103 
f 285/125/107 288/128/110 287/127/109 286/112/108 
f 289/77/63 290/78/64 291/79/111 292/80/66 
f 293/81/67 294/82/68 295/83/69 296/84/70 
f 297/85/71 298/86/72 299/87/73 300/88/74 
f 301/89/75 302/90/76 303/91/77 304/92/78 
f 290/78/64 289/77/63 304/92/78 303/91/77 
s 2
f 294/82/68 293/81/67 292/109/66 291/110/111 
s 1
f 298/86/72 297/85/71 296/84/70 295/83/69 
s 2
f 302/90/76 301/89/75 300/88/74 299/87/73 
s 4
f 304/92/78 289/77/63 305/113/95 306/114/96 
f 292/109/66 293/81/67 307/115/97 305/109/95 
f 296/84/70 297/85/71 308/116/98 307/115/97 
f 300/88/74 301/89/75 306/114/96 308/116/98 
f 289/77/63 292/80/66 305/113/95 
f 293/81/67 296/84/70 307/115/97 
f 297/85/71 300/88/74 308/116/98 
f 301/89/75 304/92/78 306/114/96 
f 291/79/111 290/78/64 309/121/103 
f 295/83/69 294/82/68 310/122/104 
f 299/87/73 298/86/72 311/123/105 
f 303/91/77 302/90/76 312/124/106 
f 290/78/64 303/91/77 312/124/106 309/121/103 
f 294/82/68 291/110/111 309/110/103 310/122/104 
f 298/86/72 295/83/69 310/122/104 311/123/105 
f 302/90/76 299/87/73 311/123/105 312/124/106 
f 305/113/95 307/115/97 308/116/98 306/114/96 
f 312/124/106 311/123/105 310/122/104 309/110/103 
s 1
f 313/129/112 314/130/113 315/131/1 316/132/114 
f 317/133/115 313/134/112 316/135/114 318/136/116 
f 319/137/117 317/133/115 318/136/116 320/138/118 
f 321/139/119 319/137/117 320/138/118 322/140/5 
f 323/141/120 321/139/119 322/140/5 324/142/121 
f 325/143/122 323/141/120 324/142/121 326/144/123 
f 327/145/124 325/143/122 326/144/123 328/146/125 
f 314/130/113 327/145/124 328/146/125 315/131/1 
f 329/147/126 330/148/127 331/149/7 
f 330/150/127 332/151/128 331/149/7 
f 332/151/128 333/152/129 331/149/7 
f 333/152/129 334/153/130 331/149/7 
f 334/153/130 335/149/131 331/149/7 
f 335/149/131 336/154/132 331/149/7 
f 336/154/132 337/155/133 331/149/7 
f 337/155/133 329/147/126 331/149/7 
f 314/130/113 313/129/112 338/148/134 339/147/135 
f 313/134/112 317/133/115 340/151/136 338/150/134 
f 317/133/115 319/137/117 341/152/137 340/151/136 
f 319/137/117 321/139/119 342/153/138 341/152/137 
f 321/139/119 323/141/120 343/149/139 342/153/138 
f 323/141/120 325/143/122 344/154/140 343/149/139 
f 325/143/122 327/145/124 345/155/141 344/154/140 
f 327/145/124 314/130/113 339/147/135 345/155/141 
f 339/147/135 338/148/134 330/148/127 329/147/126 
f 338/150/134 340/151/136 332/151/128 330/150/127 
f 340/151/136 341/152/137 333/152/129 332/151/128 
f 341/152/137 342/153/138 334/153/130 333/152/129 
f 342/153/138 343/149/139 335/149/131 334/153/130 
f 343/149/139 344/154/140 336/154/132 335/149/131 
f 344/154/140 345/155/141 337/155/133 336/154/132 
f 345/155/141 339/147/135 329/147/126 337/155/133 
f 346/129/142 316/132/114 315/131/1 347/130/143 
f 348/133/144 318/136/116 316/135/114 346/134/142 
f 349/137/145 320/138/118 318/136/116 348/133/144 
f 350/139/146 322/140/5 320/138/118 349/137/145 
f 351/141/147 324/142/121 322/140/5 350/139/146 
f 352/143/148 326/144/123 324/142/121 351/141/147 
f 353/145/149 328/146/125 326/144/123 352/143/148 
f 347/130/143 315/131/1 328/146/125 353/145/149 
f 354/147/150 355/149/3 356/148/151 
f 356/150/151 355/149/3 357/151/152 
f 357/151/152 355/149/3 358/152/153 
f 358/152/153 355/149/3 359/153/154 
f 359/153/154 355/149/3 360/149/155 
f 360/149/155 355/149/3 361/154/156 
f 361/154/156 355/149/3 362/155/157 
f 362/155/157 355/149/3 354/147/150 
f 347/130/143 363/147/158 364/148/159 346/129/142 
f 346/134/142 364/150/159 365/151/160 348/133/144 
f 348/133/144 365/151/160 366/152/161 349/137/145 
f 349/137/145 366/152/161 367/153/162 350/139/146 
f 350/139/146 367/153/162 368/149/163 351/141/147 
f 351/141/147 368/149/163 369/154/164 352/143/148 
f 352/143/148 369/154/164 370/155/165 353/145/149 
f 353/145/149 370/155/165 363/147/158 347/130/143 
f 363/147/158 354/147/150 356/148/151 364/148/159 
f 364/150/159 356/150/151 357/151/152 365/151/160 
f 365/151/160 357/151/152 358/152/153 366/152/161 
f 366/152/161 358/152/153 359/153/154 367/153/162 
f 367/153/162 359/153/154 360/149/155 368/149/163 
f 368/149/163 360/149/155 361/154/156 369/154/164 
f 369/154/164 361/154/156 362/155/157 370/155/165 
f 370/155/165 362/155/157 354/147/150 363/147/158 
f 371/156/166 372/157/167 373/158/2 374/159/1 
f 372/160/167 375/161/168 376/162/3 373/163/2 
f 375/161/168 377/164/169 378/165/4 376/162/3 
f 377/164/169 379/166/170 380/167/5 378/165/4 
f 379/166/170 381/168/171 382/169/6 380/167/5 
f 381/168/171 383/170/172 384/171/7 382/169/6 
f 383/170/172 385/172/173 386/173/8 384/171/7 
f 385/172/173 371/156/166 374/159/1 386/173/8 
f 387/129/174 388/130/175 389/131/1 390/132/2 
f 391/133/176 387/134/174 390/135/2 392/136/3 
f 393/137/177 391/133/176 392/136/3 394/138/4 
f 395/139/178 393/137/177 394/138/4 396/140/5 
f 397/141/179 395/139/178 396/140/5 398/142/6 
f 399/143/180 397/141/179 398/142/6 400/144/7 
f 401/145/181 399/143/180 400/144/7 402/146/8 
f 388/130/175 401/145/181 402/146/8 389/131/1 
f 403/174/166 404/175/167 405/176/2 406/177/1 
f 404/178/167 407/179/168 408/180/3 405/181/2 
f 407/179/168 409/182/169 410/183/4 408/180/3 
f 409/182/169 411/184/170 412/185/5 410/183/4 
f 411/184/170 413/186/171 414/187/6 412/185/5 
f 413/186/171 415/188/172 416/189/7 414/187/6 
f 415/188/172 417/190/173 418/191/8 416/189/7 
f 417/190/173 403/174/166 406/177/1 418/191/8 
f 419/192/182 420/193/175 374/159/1 373/158/2 
f 421/194/176 419/195/182 373/163/2 376/162/3 
f 422/196/177 421/194/176 376/162/3 378/165/4 
f 423/197/178 422/196/177 378/165/4 380/167/5 
f 424/198/179 423/197/178 380/167/5 382/169/6 
f 425/199/180 424/198/179 382/169/6 384/171/7 
f 426/200/181 425/199/180 384/171/7 386/173/8 
f 420/193/175 426/200/181 386/173/8 374/159/1 
f 427/201/183 428/202/184 406/177/1 405/176/2 
f 429/203/185 427/204/183 405/181/2 408/180/3 
f 430/205/177 429/203/185 408/180/3 410/183/4 
f 431/206/186 430/205/177 410/183/4 412/185/5 
f 432/207/179 431/206/186 412/185/5 414/187/6 
f 433/208/180 432/207/179 414/187/6 416/189/7 
f 434/209/181 433/208/180 416/189/7 418/191/8 
f 428/202/184 434/209/181 418/191/8 406/177/1 
f 435/210/166 436/211/167 390/132/2 389/131/1 
f 436/212/167 437/213/168 392/136/3 390/135/2 
f 437/213/168 438/214/169 394/138/4 392/136/3 
f 438/214/169 439/215/170 396/140/5 394/138/4 
f 439/215/170 440/216/171 398/142/6 396/140/5 
f 440/216/171 441/217/172 400/144/7 398/142/6 
f 441/217/172 442/218/173 402/146/8 400/144/7 
f 442/218/173 435/210/166 389/131/1 402/146/8 
f 443/219/187 444/220/188 445/221/123 
f 446/222/189 443/223/187 445/221/123 
f 447/224/190 446/222/189 445/221/123 
f 448/225/191 447/224/190 445/221/123 
f 449/221/192 448/225/191 445/221/123 
f 450/226/193 449/221/192 445/221/123 
f 451/227/194 450/226/193 445/221/123 
f 444/220/188 451/227/194 445/221/123 
f 452/147/195 453/148/196 454/149/197 
f 453/150/196 455/151/198 454/149/197 
f 455/151/198 456/152/199 454/149/197 
f 456/152/199 457/153/200 454/149/197 
f 457/153/200 458/149/201 454/149/197 
f 458/149/201 459/154/202 454/149/197 
f 459/154/202 460/155/203 454/149/197 
f 460/155/203 452/147/195 454/149/197 
f 461/228/187 462/229/188 463/230/204 
f 464/231/189 461/232/187 463/230/204 
f 465/233/190 464/231/189 463/230/204 
f 466/234/205 465/233/190 463/230/204 
f 467/230/192 466/234/205 463/230/204 
f 468/235/193 467/230/192 463/230/204 
f 469/236/194 468/235/193 463/230/204 
f 462/229/188 469/236/194 463/230/204 
f 470/237/195 471/238/196 472/239/197 
f 471/240/196 473/241/198 472/239/197 
f 473/241/198 474/242/199 472/239/197 
f 474/242/199 475/243/200 472/239/197 
f 475/243/200 476/239/201 472/239/197 
f 476/239/201 477/244/202 472/239/197 
f 477/244/202 478/245/203 472/239/197 
f 478/245/203 470/237/195 472/239/197 
f 479/246/206 480/247/196 481/248/116 
f 480/249/196 482/250/198 481/248/116 
f 482/250/198 483/251/199 481/248/116 
f 483/251/199 484/252/200 481/248/116 
f 484/252/200 485/248/201 481/248/116 
f 485/248/201 486/253/202 481/248/116 
f 486/253/202 487/254/203 481/248/116 
f 487/254/203 479/246/206 481/248/116 
f 488/255/187 489/256/207 490/257/123 
f 491/258/189 488/259/187 490/257/123 
f 492/260/190 491/258/189 490/257/123 
f 493/261/191 492/260/190 490/257/123 
f 494/257/192 493/261/191 490/257/123 
f 495/262/193 494/257/192 490/257/123 
f 496/263/194 495/262/193 490/257/123 
f 489/256/207 496/263/194 490/257/123 
f 372/157/167 371/156/166 444/220/188 443/219/187 
f 375/161/168 372/160/167 443/223/187 446/222/189 
f 377/164/169 375/161/168 446/222/189 447/224/190 
f 379/166/170 377/164/169 447/224/190 448/225/191 
f 381/168/171 379/166/170 448/225/191 449/221/192 
f 383/170/172 381/168/171 449/221/192 450/226/193 
f 385/172/173 383/170/172 450/226/193 451/227/194 
f 371/156/166 385/172/173 451/227/194 444/220/188 
f 388/130/175 387/129/174 453/148/196 452/147/195 
f 387/134/174 391/133/176 455/151/198 453/150/196 
f 391/133/176 393/137/177 456/152/199 455/151/198 
f 393/137/177 395/139/178 457/153/200 456/152/199 
f 395/139/178 397/141/179 458/149/201 457/153/200 
f 397/141/179 399/143/180 459/154/202 458/149/201 
f 399/143/180 401/145/181 460/155/203 459/154/202 
f 401/145/181 388/130/175 452/147/195 460/155/203 
f 404/175/167 403/174/166 462/229/188 461/228/187 
f 407/179/168 404/178/167 461/232/187 464/231/189 
f 409/182/169 407/179/168 464/231/189 465/233/190 
f 411/184/170 409/182/169 465/233/190 466/234/205 
f 413/186/171 411/184/170 466/234/205 467/230/192 
f 415/188/172 413/186/171 467/230/192 468/235/193 
f 417/190/173 415/188/172 468/235/193 469/236/194 
f 403/174/166 417/190/173 469/236/194 462/229/188 
f 420/193/175 419/192/182 471/238/196 470/237/195 
f 419/195/182 421/194/176 473/241/198 471/240/196 
f 421/194/176 422/196/177 474/242/199 473/241/198 
f 422/196/177 423/197/178 475/243/200 474/242/199 
f 423/197/178 424/198/179 476/239/201 475/243/200 
f 424/198/179 425/199/180 477/244/202 476/239/201 
f 425/199/180 426/200/181 478/245/203 477/244/202 
f 426/200/181 420/193/175 470/237/195 478/245/203 
f 428/202/184 427/201/183 480/247/196 479/246/206 
f 427/204/183 429/203/185 482/250/198 480/249/196 
f 429/203/185 430/205/177 483/251/199 482/250/198 
f 430/205/177 431/206/186 484/252/200 483/251/199 
f 431/206/186 432/207/179 485/248/201 484/252/200 
f 432/207/179 433/208/180 486/253/202 485/248/201 
f 433/208/180 434/209/181 487/254/203 486/253/202 
f 434/209/181 428/202/184 479/246/206 487/254/203 
f 436/211/167 435/210/166 489/256/207 488/255/187 
f 437/213/168 436/212/167 488/259/187 491/258/189 
f 438/214/169 437/213/168 491/258/189 492/260/190 
f 439/215/170 438/214/169 492/260/190 493/261/191 
f 440/216/171 439/215/170 493/261/191 494/257/192 
f 441/217/172 440/216/171 494/257/192 495/262/193 
f 442/218/173 441/217/172 495/262/193 496/263/194 
f 435/210/166 442/218/173 496/263/194 489/256/207 
f 207/43/8 205/40/7 14/59/7 16/63/8 
f 223/39/8 221/36/10 30/61/10 32/58/8 
f 239/35/8 237/47/10 46/52/10 48/68/8 
f 196/33/1 207/43/8 16/63/8 4/71/1 
f 193/34/2 196/33/1 4/71/1 3/48/2 
f 197/36/3 193/34/2 3/48/2 6/49/3 
f 199/39/4 197/36/3 6/49/3 8/55/4 
f 201/38/5 199/39/4 8/55/4 10/60/5 
f 203/37/6 201/38/5 10/60/5 12/56/6 
f 205/40/7 203/37/6 12/56/6 14/59/7 
f 212/41/1 223/39/8 32/58/8 20/69/1 
f 209/42/2 212/41/1 20/69/1 19/64/2 
f 213/28/9 209/42/2 19/64/2 22/50/9 
f 215/31/4 213/28/9 22/50/9 24/66/4 
f 217/32/5 215/31/4 24/66/4 26/53/5 
f 219/35/6 217/32/5 26/53/5 28/54/6 
f 221/36/10 219/35/6 28/54/6 30/61/10 
f 228/43/1 239/35/8 48/68/8 36/70/1 
f 225/40/2 228/43/1 36/70/1 35/62/2 
f 229/44/9 225/40/2 35/62/2 38/51/9 
f 231/44/4 229/44/9 38/51/9 40/57/4 
f 233/46/5 231/44/4 40/57/4 42/65/5 
f 235/45/6 233/46/5 42/65/5 44/67/6 
f 237/47/10 235/45/6 44/67/6 46/52/10 
# 378 polygons - 104 triangles

