# 3ds Max Wavefront OBJ Exporter v0.99 - (c)2007 guruware
# File Created: 18.12.2025 18:40:17

mtllib OfficeHingedDoor_00.mtl

#
# object OfficeHingedDoor_00
#

v  -0.0454 1.4847 -0.0001
v  -0.0454 -1.4847 -0.0001
v  0.0454 -1.4847 -0.0001
v  0.0454 1.4847 -0.0001
v  -0.0454 -1.4847 -1.6950
v  0.0454 -1.4847 -1.6950
v  0.0454 1.4847 -1.6950
v  -0.0454 1.4847 -1.6950
v  -0.0454 -1.4033 -1.6485
v  -0.0454 1.4033 -1.6485
v  -0.0454 -1.4033 -0.0466
v  -0.0454 1.4033 -0.0466
v  0.0454 1.4033 -1.6485
v  0.0454 -1.4033 -1.6485
v  0.0454 1.4033 -0.0466
v  0.0454 -1.4033 -0.0466
v  -0.0454 0.3003 -1.3792
v  -0.0454 0.3003 -0.3159
v  -0.0243 0.3003 -0.3159
v  -0.0243 0.3003 -1.3792
v  -0.0454 1.2344 -1.3792
v  -0.0243 1.2344 -1.3792
v  0.0454 1.2344 -1.3792
v  0.0454 1.2344 -0.3159
v  0.0243 1.2344 -0.3159
v  0.0243 1.2344 -1.3792
v  0.0454 0.3003 -0.3159
v  0.0243 0.3003 -0.3159
v  0.0454 0.3003 -1.3792
v  0.0243 0.3003 -1.3792
v  -0.0243 1.2344 -0.3159
v  -0.0454 1.2344 -0.3159
v  -0.0162 0.2732 -1.4101
v  -0.0162 0.2732 -0.2850
v  0.0162 0.2732 -0.2850
v  0.0162 0.2732 -1.4101
v  -0.0162 1.2615 -1.4101
v  0.0162 1.2615 -1.4101
v  0.0162 1.2615 -0.2850
v  -0.0162 1.2615 -0.2850
v  -0.0454 0.2686 -1.4153
v  -0.0454 1.2660 -1.4152
v  -0.0454 0.2686 -0.2798
v  -0.0454 1.2660 -0.2798
v  0.0454 1.2660 -1.4153
v  0.0454 0.2686 -1.4153
v  0.0454 1.2660 -0.2798
v  0.0454 0.2686 -0.2798
v  -0.0538 0.0788 -1.4714
v  -0.0527 0.0812 -1.4700
v  -0.0527 0.0881 -1.4957
v  -0.0538 0.0853 -1.4957
v  -0.0538 0.0610 -1.4536
v  -0.0527 0.0624 -1.4512
v  -0.0538 0.0367 -1.4471
v  -0.0527 0.0367 -1.4443
v  -0.0538 0.0124 -1.4536
v  -0.0527 0.0110 -1.4512
v  -0.0538 -0.0054 -1.4714
v  -0.0527 -0.0078 -1.4700
v  -0.0538 -0.0119 -1.4957
v  -0.0527 -0.0147 -1.4957
v  -0.0494 0.0812 -1.4700
v  -0.0494 0.0881 -1.4957
v  -0.0494 0.0624 -1.4512
v  -0.0494 0.0367 -1.4443
v  -0.0494 0.0110 -1.4512
v  -0.0494 -0.0078 -1.4700
v  -0.0494 -0.0147 -1.4957
v  -0.0556 0.0678 -1.4957
v  -0.0556 0.0636 -1.4801
v  -0.0556 0.0523 -1.4687
v  -0.0556 0.0367 -1.4646
v  -0.0556 0.0212 -1.4687
v  -0.0556 0.0098 -1.4801
v  -0.0556 0.0056 -1.4957
v  -0.0556 0.0658 -1.4957
v  -0.0556 0.0619 -1.4811
v  -0.0556 0.0513 -1.4704
v  -0.0556 0.0367 -1.4665
v  -0.0556 0.0221 -1.4704
v  -0.0556 0.0115 -1.4811
v  -0.0556 0.0076 -1.4957
v  -0.0541 0.0658 -1.4957
v  -0.0541 0.0619 -1.4811
v  -0.0541 0.0513 -1.4704
v  -0.0541 0.0367 -1.4665
v  -0.0541 0.0221 -1.4704
v  -0.0541 0.0115 -1.4811
v  -0.0541 0.0076 -1.4957
v  0.0000 0.0658 -1.4957
v  0.0000 0.0619 -1.4811
v  0.0000 0.0513 -1.4704
v  0.0000 0.0367 -1.4665
v  0.0000 0.0221 -1.4704
v  0.0000 0.0115 -1.4811
v  0.0000 0.0076 -1.4957
v  -0.0510 0.0565 -1.4957
v  -0.0510 0.0546 -1.4893
v  -0.0528 0.0610 -1.4816
v  -0.0528 0.0648 -1.4957
v  -0.0510 0.0496 -1.4847
v  -0.0528 0.0508 -1.4713
v  -0.0510 0.0445 -1.4833
v  -0.0528 0.0367 -1.4676
v  -0.0510 0.0387 -1.4847
v  -0.0528 0.0227 -1.4713
v  -0.0510 0.0356 -1.4889
v  -0.0510 0.0352 -1.4892
v  -0.0529 0.0617 -1.4812
v  -0.0529 0.0656 -1.4957
v  -0.0529 0.0511 -1.4706
v  -0.0529 0.0367 -1.4668
v  -0.0529 0.0223 -1.4706
v  -0.0528 0.0124 -1.4816
v  -0.0529 0.0117 -1.4812
v  -0.0528 0.0086 -1.4957
v  -0.0529 0.0078 -1.4957
v  0.0000 0.0617 -1.4812
v  0.0000 0.0656 -1.4957
v  0.0000 0.0511 -1.4706
v  0.0000 0.0367 -1.4668
v  0.0000 0.0223 -1.4706
v  0.0000 0.0117 -1.4812
v  0.0000 0.0078 -1.4957
v  -0.0510 0.0164 -1.4870
v  -0.0510 0.0156 -1.4957
v  -0.0503 0.0559 -1.4957
v  -0.0503 0.0542 -1.4898
v  -0.0503 0.0496 -1.4854
v  -0.0503 0.0445 -1.4842
v  -0.0503 0.0387 -1.4855
v  -0.0503 0.0356 -1.4894
v  -0.0510 0.0177 -1.4862
v  -0.0503 0.0175 -1.4868
v  -0.0503 0.0167 -1.4874
v  -0.0503 0.0160 -1.4957
v  -0.0491 0.0559 -1.4957
v  -0.0491 0.0542 -1.4898
v  -0.0491 0.0496 -1.4854
v  -0.0491 0.0445 -1.4842
v  -0.0491 0.0387 -1.4855
v  -0.0491 0.0356 -1.4894
v  -0.0503 0.0347 -1.4897
v  -0.0491 0.0347 -1.4897
v  -0.0491 0.0175 -1.4868
v  -0.0491 0.0167 -1.4874
v  -0.0491 0.0160 -1.4957
v  0.0000 0.0559 -1.4957
v  0.0000 0.0542 -1.4898
v  0.0000 0.0496 -1.4854
v  0.0000 0.0445 -1.4842
v  0.0000 0.0387 -1.4855
v  0.0000 0.0356 -1.4894
v  0.0000 0.0347 -1.4897
v  0.0000 0.0175 -1.4868
v  0.0000 0.0167 -1.4874
v  0.0000 0.0160 -1.4957
v  -0.0510 0.0347 -1.4892
v  -0.0503 0.0352 -1.4898
v  -0.0491 0.0352 -1.4898
v  0.0000 0.0352 -1.4898
v  -0.0538 0.0788 -1.5199
v  -0.0527 0.0812 -1.5214
v  -0.0538 0.0610 -1.5377
v  -0.0527 0.0624 -1.5402
v  -0.0538 0.0367 -1.5442
v  -0.0527 0.0367 -1.5470
v  -0.0538 0.0124 -1.5377
v  -0.0527 0.0110 -1.5402
v  -0.0538 -0.0054 -1.5199
v  -0.0527 -0.0078 -1.5214
v  -0.0494 0.0812 -1.5214
v  -0.0494 0.0624 -1.5402
v  -0.0494 0.0367 -1.5470
v  -0.0494 0.0110 -1.5402
v  -0.0494 -0.0078 -1.5214
v  -0.0556 0.0636 -1.5112
v  -0.0556 0.0523 -1.5226
v  -0.0556 0.0367 -1.5268
v  -0.0556 0.0212 -1.5226
v  -0.0556 0.0098 -1.5112
v  -0.0556 0.0619 -1.5102
v  -0.0556 0.0513 -1.5209
v  -0.0556 0.0367 -1.5248
v  -0.0556 0.0221 -1.5209
v  -0.0556 0.0115 -1.5102
v  -0.0541 0.0619 -1.5102
v  -0.0541 0.0513 -1.5209
v  -0.0541 0.0367 -1.5248
v  -0.0541 0.0221 -1.5209
v  -0.0541 0.0115 -1.5102
v  0.0000 0.0619 -1.5102
v  0.0000 0.0513 -1.5209
v  0.0000 0.0367 -1.5248
v  0.0000 0.0221 -1.5209
v  0.0000 0.0115 -1.5102
v  -0.0528 0.0610 -1.5097
v  -0.0510 0.0546 -1.5020
v  -0.0528 0.0508 -1.5200
v  -0.0510 0.0496 -1.5067
v  -0.0528 0.0367 -1.5238
v  -0.0510 0.0445 -1.5081
v  -0.0528 0.0227 -1.5200
v  -0.0510 0.0387 -1.5066
v  -0.0510 0.0352 -1.5021
v  -0.0510 0.0356 -1.5024
v  -0.0529 0.0617 -1.5101
v  -0.0529 0.0511 -1.5207
v  -0.0529 0.0367 -1.5246
v  -0.0529 0.0223 -1.5207
v  -0.0528 0.0124 -1.5097
v  -0.0529 0.0117 -1.5101
v  0.0000 0.0617 -1.5101
v  0.0000 0.0511 -1.5207
v  0.0000 0.0367 -1.5246
v  0.0000 0.0223 -1.5207
v  0.0000 0.0117 -1.5101
v  -0.0510 0.0164 -1.5043
v  -0.0503 0.0542 -1.5016
v  -0.0503 0.0496 -1.5059
v  -0.0503 0.0445 -1.5072
v  -0.0503 0.0387 -1.5058
v  -0.0503 0.0356 -1.5019
v  -0.0503 0.0167 -1.5039
v  -0.0503 0.0175 -1.5045
v  -0.0510 0.0177 -1.5051
v  -0.0491 0.0542 -1.5016
v  -0.0491 0.0496 -1.5059
v  -0.0491 0.0445 -1.5072
v  -0.0491 0.0387 -1.5058
v  -0.0491 0.0356 -1.5019
v  -0.0491 0.0175 -1.5045
v  -0.0491 0.0347 -1.5017
v  -0.0503 0.0347 -1.5017
v  -0.0491 0.0167 -1.5039
v  0.0000 0.0542 -1.5016
v  0.0000 0.0496 -1.5059
v  0.0000 0.0445 -1.5072
v  0.0000 0.0387 -1.5058
v  0.0000 0.0356 -1.5019
v  0.0000 0.0175 -1.5045
v  0.0000 0.0347 -1.5017
v  0.0000 0.0167 -1.5039
v  -0.0510 0.0347 -1.5021
v  -0.0503 0.0352 -1.5016
v  -0.0491 0.0352 -1.5016
v  0.0000 0.0352 -1.5016
v  0.0000 0.0812 -1.4700
v  0.0000 0.0881 -1.4957
v  0.0000 0.0624 -1.4512
v  0.0000 0.0367 -1.4443
v  0.0000 0.0110 -1.4512
v  0.0000 -0.0078 -1.4700
v  0.0000 -0.0147 -1.4957
v  0.0000 0.0812 -1.5214
v  0.0000 0.0624 -1.5402
v  0.0000 0.0367 -1.5471
v  0.0000 0.0110 -1.5402
v  0.0000 -0.0078 -1.5214
v  0.0538 0.0788 -1.4714
v  0.0538 0.0853 -1.4957
v  0.0527 0.0881 -1.4957
v  0.0527 0.0812 -1.4700
v  0.0538 0.0610 -1.4536
v  0.0527 0.0624 -1.4512
v  0.0538 0.0367 -1.4471
v  0.0527 0.0367 -1.4443
v  0.0538 0.0124 -1.4536
v  0.0527 0.0110 -1.4512
v  0.0538 -0.0054 -1.4714
v  0.0527 -0.0078 -1.4700
v  0.0538 -0.0119 -1.4957
v  0.0527 -0.0147 -1.4957
v  0.0494 0.0881 -1.4957
v  0.0494 0.0812 -1.4700
v  0.0494 0.0624 -1.4512
v  0.0494 0.0367 -1.4443
v  0.0494 0.0110 -1.4512
v  0.0494 -0.0078 -1.4700
v  0.0494 -0.0147 -1.4957
v  0.0556 0.0636 -1.4801
v  0.0556 0.0678 -1.4957
v  0.0556 0.0523 -1.4687
v  0.0556 0.0367 -1.4646
v  0.0556 0.0212 -1.4687
v  0.0556 0.0098 -1.4801
v  0.0556 0.0056 -1.4957
v  0.0556 0.0619 -1.4811
v  0.0556 0.0658 -1.4957
v  0.0556 0.0513 -1.4704
v  0.0556 0.0367 -1.4665
v  0.0556 0.0221 -1.4704
v  0.0556 0.0115 -1.4811
v  0.0556 0.0076 -1.4957
v  0.0541 0.0619 -1.4811
v  0.0541 0.0658 -1.4957
v  0.0541 0.0513 -1.4704
v  0.0541 0.0367 -1.4665
v  0.0541 0.0221 -1.4704
v  0.0541 0.0115 -1.4811
v  0.0541 0.0076 -1.4957
v  0.0510 0.0565 -1.4957
v  0.0528 0.0648 -1.4957
v  0.0528 0.0610 -1.4816
v  0.0510 0.0546 -1.4893
v  0.0528 0.0508 -1.4713
v  0.0510 0.0496 -1.4847
v  0.0528 0.0367 -1.4676
v  0.0510 0.0445 -1.4833
v  0.0528 0.0227 -1.4713
v  0.0510 0.0387 -1.4847
v  0.0510 0.0352 -1.4892
v  0.0510 0.0356 -1.4889
v  0.0529 0.0656 -1.4957
v  0.0529 0.0617 -1.4812
v  0.0529 0.0511 -1.4706
v  0.0529 0.0367 -1.4668
v  0.0529 0.0223 -1.4706
v  0.0528 0.0124 -1.4816
v  0.0529 0.0117 -1.4812
v  0.0528 0.0086 -1.4957
v  0.0529 0.0078 -1.4957
v  0.0510 0.0156 -1.4957
v  0.0510 0.0164 -1.4870
v  0.0503 0.0542 -1.4898
v  0.0503 0.0559 -1.4957
v  0.0503 0.0496 -1.4854
v  0.0503 0.0445 -1.4842
v  0.0503 0.0387 -1.4855
v  0.0503 0.0356 -1.4894
v  0.0503 0.0167 -1.4874
v  0.0503 0.0175 -1.4868
v  0.0510 0.0177 -1.4862
v  0.0503 0.0160 -1.4957
v  0.0491 0.0542 -1.4898
v  0.0491 0.0559 -1.4957
v  0.0491 0.0496 -1.4854
v  0.0491 0.0445 -1.4842
v  0.0491 0.0387 -1.4855
v  0.0491 0.0356 -1.4894
v  0.0491 0.0175 -1.4868
v  0.0491 0.0347 -1.4897
v  0.0503 0.0347 -1.4897
v  0.0491 0.0160 -1.4957
v  0.0491 0.0167 -1.4874
v  0.0510 0.0347 -1.4892
v  0.0503 0.0352 -1.4898
v  0.0491 0.0352 -1.4898
v  0.0538 0.0788 -1.5199
v  0.0527 0.0812 -1.5214
v  0.0538 0.0610 -1.5377
v  0.0527 0.0624 -1.5402
v  0.0538 0.0367 -1.5442
v  0.0527 0.0367 -1.5470
v  0.0538 0.0124 -1.5377
v  0.0527 0.0110 -1.5402
v  0.0538 -0.0054 -1.5199
v  0.0527 -0.0078 -1.5214
v  0.0494 0.0812 -1.5214
v  0.0494 0.0624 -1.5402
v  0.0494 0.0367 -1.5470
v  0.0494 0.0110 -1.5402
v  0.0494 -0.0078 -1.5214
v  0.0556 0.0636 -1.5112
v  0.0556 0.0523 -1.5226
v  0.0556 0.0367 -1.5268
v  0.0556 0.0212 -1.5226
v  0.0556 0.0098 -1.5112
v  0.0556 0.0619 -1.5102
v  0.0556 0.0513 -1.5209
v  0.0556 0.0367 -1.5248
v  0.0556 0.0221 -1.5209
v  0.0556 0.0115 -1.5102
v  0.0541 0.0619 -1.5102
v  0.0541 0.0513 -1.5209
v  0.0541 0.0367 -1.5248
v  0.0541 0.0221 -1.5209
v  0.0541 0.0115 -1.5102
v  0.0510 0.0546 -1.5020
v  0.0528 0.0610 -1.5097
v  0.0510 0.0496 -1.5067
v  0.0528 0.0508 -1.5200
v  0.0510 0.0445 -1.5081
v  0.0528 0.0367 -1.5238
v  0.0510 0.0387 -1.5066
v  0.0528 0.0227 -1.5200
v  0.0510 0.0356 -1.5024
v  0.0510 0.0352 -1.5021
v  0.0529 0.0617 -1.5101
v  0.0529 0.0511 -1.5207
v  0.0529 0.0367 -1.5246
v  0.0529 0.0223 -1.5207
v  0.0528 0.0124 -1.5097
v  0.0529 0.0117 -1.5101
v  0.0510 0.0164 -1.5043
v  0.0503 0.0542 -1.5016
v  0.0503 0.0496 -1.5059
v  0.0503 0.0445 -1.5072
v  0.0503 0.0387 -1.5058
v  0.0503 0.0356 -1.5019
v  0.0510 0.0177 -1.5051
v  0.0503 0.0175 -1.5045
v  0.0503 0.0167 -1.5039
v  0.0491 0.0542 -1.5016
v  0.0491 0.0496 -1.5059
v  0.0491 0.0445 -1.5072
v  0.0491 0.0387 -1.5058
v  0.0491 0.0356 -1.5019
v  0.0503 0.0347 -1.5017
v  0.0491 0.0347 -1.5017
v  0.0491 0.0175 -1.5045
v  0.0491 0.0167 -1.5039
v  0.0510 0.0347 -1.5021
v  0.0503 0.0352 -1.5016
v  0.0491 0.0352 -1.5016
# 416 vertices

vn -0.5773 0.5774 0.5774
vn -0.5773 -0.5774 0.5774
vn 0.5773 -0.5774 0.5774
vn 0.5774 0.5774 0.5774
vn -0.5773 -0.5774 -0.5774
vn 0.5774 -0.5774 -0.5774
vn 0.5773 0.5774 -0.5774
vn -0.5774 0.5774 -0.5774
vn -1.0000 -0.0000 -0.0000
vn -1.0000 -0.0000 0.0000
vn -1.0000 0.0000 0.0000
vn 1.0000 -0.0000 0.0000
vn 1.0000 0.0000 0.0000
vn -0.9045 0.3015 0.3015
vn -0.9045 0.3015 -0.3015
vn 0.2887 0.6847 -0.6692
vn 0.2887 0.6847 0.6692
vn -0.9045 -0.3015 0.3015
vn 0.2887 -0.6847 0.6692
vn 0.9045 -0.3015 0.3015
vn 0.9045 -0.3015 -0.3015
vn -0.2887 -0.6847 -0.6692
vn -0.2887 -0.6847 0.6692
vn 0.9045 0.3015 -0.3015
vn -0.2887 0.6847 -0.6692
vn 0.9045 0.3015 0.3015
vn -0.2887 0.6847 0.6692
vn 0.2887 -0.6847 -0.6692
vn -0.9045 -0.3015 -0.3015
vn 0.2307 0.6849 0.6912
vn 0.2307 0.6849 -0.6912
vn -0.2307 0.6849 -0.6912
vn -0.2307 0.6849 0.6912
vn 0.2307 -0.6849 0.6911
vn -0.2307 -0.6849 0.6912
vn -0.2307 -0.6849 -0.6912
vn 0.2307 -0.6849 -0.6912
vn -1.0000 0.0000 -0.0000
vn -0.5088 0.7455 0.4305
vn -0.1275 0.8590 0.4959
vn -0.1275 0.9918 0.0000
vn -0.5088 0.8609 0.0000
vn -0.5088 0.4304 0.7456
vn -0.1275 0.4959 0.8590
vn -0.5088 0.0000 0.8609
vn -0.1275 0.0000 0.9918
vn -0.5088 -0.4304 0.7456
vn -0.1275 -0.4959 0.8590
vn -0.5088 -0.7455 0.4304
vn -0.1275 -0.8590 0.4959
vn -0.5088 -0.8609 0.0000
vn -0.1275 -0.9918 0.0000
vn -0.0000 0.8660 0.5000
vn 0.0000 1.0000 -0.0000
vn 0.0000 0.5000 0.8660
vn -0.0000 0.0000 1.0000
vn 0.0000 -0.5000 0.8660
vn -0.0000 -0.8660 0.5000
vn 0.0000 -1.0000 -0.0000
vn -0.9167 0.3995 0.0000
vn -0.9167 0.3460 0.1998
vn -0.9167 0.1998 0.3460
vn -0.9167 -0.0000 0.3995
vn -0.9167 -0.1997 0.3460
vn -0.9167 -0.3460 0.1998
vn -0.9168 -0.3995 0.0000
vn -0.7704 -0.6376 0.0000
vn -0.7704 -0.5522 -0.3187
vn -0.7703 -0.3189 -0.5522
vn -0.7702 -0.0000 -0.6378
vn -0.7703 0.3189 -0.5522
vn -0.7704 0.5522 -0.3187
vn -0.7703 0.6377 0.0000
vn -0.0000 -1.0000 0.0000
vn -0.0000 -0.8660 -0.5000
vn -0.0000 -0.5000 -0.8660
vn 0.0000 0.0000 -1.0000
vn -0.0000 0.5000 -0.8660
vn -0.0000 0.8660 -0.5000
vn -0.0000 1.0000 0.0000
vn 0.0000 -0.8660 -0.5000
vn 0.0000 -0.5001 -0.8660
vn 0.0000 0.5001 -0.8660
vn 0.0000 0.8660 -0.5000
vn -0.3007 -0.9537 0.0001
vn -0.3256 -0.8073 -0.4922
vn -0.4943 -0.7475 -0.4439
vn -0.4703 -0.8825 0.0000
vn -0.3871 -0.4607 -0.7987
vn -0.5419 -0.4079 -0.7348
vn -0.4608 -0.0394 -0.8866
vn -0.5896 0.0153 -0.8076
vn -0.5199 0.4513 -0.7253
vn -0.5690 0.3732 -0.7328
vn -0.6876 0.4985 -0.5280
vn -0.4608 0.2689 -0.8458
vn -0.9233 0.3326 0.1919
vn -0.9233 0.3842 0.0000
vn -0.9232 0.1922 0.3327
vn -0.9234 0.0000 0.3839
vn -0.9232 -0.1921 0.3329
vn -0.4281 0.7775 -0.4606
vn -0.9233 -0.3327 0.1921
vn -0.4447 0.8957 0.0000
vn -0.9233 -0.3842 0.0000
vn -0.0000 0.5000 0.8660
vn -0.0000 -0.5000 0.8660
vn -0.2309 0.8420 -0.4877
vn -0.2392 0.9710 0.0000
vn -0.0556 -0.9985 -0.0000
vn -0.0517 -0.8519 -0.5211
vn -0.0585 -0.4824 -0.8740
vn -0.0774 -0.0120 -0.9969
vn -0.0563 0.5421 -0.8384
vn -0.0276 0.7348 -0.6777
vn -0.4037 0.2179 -0.8885
vn -0.0465 0.2464 -0.9680
vn -0.0374 0.8754 -0.4820
vn -0.0301 0.9995 0.0000
vn 0.0000 -0.8519 -0.5238
vn 0.0000 -0.4787 -0.8780
vn 0.0000 -0.0119 -0.9999
vn 0.0000 0.5363 -0.8440
vn 0.0000 0.7361 -0.6769
vn -0.0384 -0.1795 -0.9830
vn -0.0000 -0.1793 -0.9838
vn -0.0000 0.2380 -0.9713
vn -0.0000 0.8739 -0.4862
vn 0.0000 -0.1793 -0.9838
vn 0.0000 0.2380 -0.9713
vn 0.0000 0.8739 -0.4861
vn -0.7140 -0.0509 -0.6983
vn -0.0470 0.2682 -0.9622
vn 0.0000 0.2717 -0.9624
vn -0.5088 0.7455 -0.4304
vn -0.1275 0.8589 -0.4959
vn -0.5088 0.4304 -0.7455
vn -0.1275 0.4959 -0.8590
vn -0.5088 0.0000 -0.8609
vn -0.1275 0.0000 -0.9918
vn -0.5088 -0.4304 -0.7455
vn -0.1275 -0.4959 -0.8590
vn -0.5088 -0.7455 -0.4304
vn -0.1275 -0.8590 -0.4959
vn -0.0000 0.0000 -1.0000
vn -0.9167 0.3460 -0.1997
vn -0.9168 0.1997 -0.3459
vn -0.9168 -0.0000 -0.3994
vn -0.9168 -0.1997 -0.3459
vn -0.9167 -0.3460 -0.1998
vn -0.7704 -0.5522 0.3188
vn -0.7703 -0.3188 0.5522
vn -0.7703 0.0000 0.6377
vn -0.7703 0.3188 0.5522
vn -0.7704 0.5522 0.3188
vn 0.0000 -0.8660 0.5000
vn 0.0000 0.0000 1.0000
vn 0.0000 0.8660 0.5000
vn -0.0000 -0.4999 0.8661
vn -0.0000 0.4999 0.8661
vn -0.4941 -0.7475 0.4441
vn -0.3255 -0.8073 0.4922
vn -0.5419 -0.4078 0.7348
vn -0.3871 -0.4607 0.7987
vn -0.5896 0.0153 0.8076
vn -0.4606 -0.0394 0.8867
vn -0.5691 0.3731 0.7328
vn -0.5198 0.4513 0.7254
vn -0.4603 0.2689 0.8461
vn -0.6878 0.4991 0.5270
vn -0.9233 0.3326 -0.1923
vn -0.9234 0.1919 -0.3325
vn -0.9233 0.0000 -0.3840
vn -0.9233 -0.1919 -0.3326
vn -0.4279 0.7775 0.4608
vn -0.9232 -0.3327 -0.1924
vn 0.0000 0.5000 -0.8660
vn 0.0000 -0.5000 -0.8660
vn -0.2309 0.8419 0.4877
vn -0.0517 -0.8519 0.5212
vn -0.0585 -0.4824 0.8740
vn -0.0772 -0.0120 0.9969
vn -0.0562 0.5421 0.8384
vn -0.0276 0.7347 0.6778
vn -0.0374 0.8757 0.4813
vn -0.0464 0.2472 0.9679
vn -0.4036 0.2179 0.8886
vn 0.0000 -0.8518 0.5239
vn 0.0000 -0.4787 0.8780
vn 0.0000 -0.0121 0.9999
vn 0.0001 0.5363 0.8440
vn 0.0000 0.7361 0.6769
vn -0.0001 0.2380 0.9713
vn -0.0000 -0.1774 0.9841
vn -0.0386 -0.1778 0.9833
vn -0.0000 0.8739 0.4862
vn -0.0000 -0.8518 0.5238
vn -0.0000 -0.4787 0.8780
vn -0.0000 -0.0120 0.9999
vn -0.0000 0.5363 0.8440
vn -0.0000 0.7361 0.6769
vn -0.0000 0.2380 0.9713
vn -0.0000 0.8739 0.4861
vn -0.7145 -0.0522 0.6977
vn -0.0468 0.2700 0.9617
vn 0.0000 0.2734 0.9619
vn -0.0000 0.2734 0.9619
vn 0.5088 0.7455 0.4305
vn 0.5088 0.8609 0.0000
vn 0.1275 0.9918 -0.0000
vn 0.1275 0.8590 0.4959
vn 0.5088 0.4304 0.7456
vn 0.1275 0.4959 0.8590
vn 0.5088 0.0000 0.8609
vn 0.1275 0.0000 0.9918
vn 0.5088 -0.4304 0.7455
vn 0.1275 -0.4959 0.8590
vn 0.5088 -0.7455 0.4304
vn 0.1275 -0.8590 0.4959
vn 0.5088 -0.8609 0.0000
vn 0.1275 -0.9918 0.0000
vn 0.9167 0.3460 0.1998
vn 0.9167 0.3995 0.0000
vn 0.9167 0.1997 0.3460
vn 0.9167 -0.0000 0.3995
vn 0.9167 -0.1997 0.3460
vn 0.9167 -0.3460 0.1998
vn 0.9167 -0.3995 0.0000
vn 0.7704 -0.5522 -0.3187
vn 0.7704 -0.6376 0.0000
vn 0.7703 -0.3189 -0.5522
vn 0.7704 -0.0000 -0.6376
vn 0.7703 0.3189 -0.5522
vn 0.7703 0.5522 -0.3187
vn 0.7704 0.6376 0.0001
vn 0.3007 -0.9537 0.0000
vn 0.4704 -0.8825 0.0000
vn 0.4943 -0.7474 -0.4438
vn 0.3256 -0.8073 -0.4922
vn 0.5419 -0.4079 -0.7348
vn 0.3871 -0.4607 -0.7987
vn 0.5896 0.0153 -0.8076
vn 0.4608 -0.0393 -0.8866
vn 0.5691 0.3732 -0.7327
vn 0.5197 0.4515 -0.7253
vn 0.4610 0.2691 -0.8456
vn 0.6866 0.4992 -0.5285
vn 0.9232 0.3842 0.0000
vn 0.9233 0.3326 0.1920
vn 0.9232 0.1922 0.3328
vn 0.9233 0.0000 0.3840
vn 0.9232 -0.1921 0.3329
vn 0.4281 0.7775 -0.4606
vn 0.9232 -0.3327 0.1921
vn 0.4448 0.8956 0.0000
vn 0.9232 -0.3842 0.0000
vn 0.2392 0.9710 0.0000
vn 0.2309 0.8420 -0.4877
vn 0.0517 -0.8519 -0.5211
vn 0.0556 -0.9985 0.0000
vn 0.0585 -0.4824 -0.8740
vn 0.0774 -0.0120 -0.9969
vn 0.0561 0.5421 -0.8384
vn 0.0276 0.7348 -0.6777
vn 0.0374 0.8754 -0.4820
vn 0.0465 0.2464 -0.9680
vn 0.4037 0.2179 -0.8886
vn 0.0301 0.9995 0.0000
vn 0.0384 -0.1795 -0.9830
vn 0.7131 -0.0511 -0.6992
vn 0.0469 0.2682 -0.9622
vn 0.5088 0.7455 -0.4304
vn 0.1275 0.8589 -0.4959
vn 0.5088 0.4304 -0.7455
vn 0.1275 0.4959 -0.8590
vn 0.5088 0.0000 -0.8609
vn 0.1275 0.0000 -0.9918
vn 0.5088 -0.4304 -0.7455
vn 0.1275 -0.4959 -0.8590
vn 0.5088 -0.7455 -0.4304
vn 0.1275 -0.8590 -0.4959
vn 0.9168 0.3459 -0.1997
vn 0.9168 0.1997 -0.3459
vn 0.9168 -0.0000 -0.3994
vn 0.9168 -0.1997 -0.3459
vn 0.9167 -0.3460 -0.1997
vn 0.7703 -0.5523 0.3188
vn 0.7703 -0.3188 0.5522
vn 0.7701 0.0000 0.6379
vn 0.7703 0.3188 0.5522
vn 0.7703 0.5522 0.3188
vn -0.0001 0.0000 1.0000
vn 0.3256 -0.8073 0.4923
vn 0.4940 -0.7475 0.4441
vn 0.3871 -0.4606 0.7987
vn 0.5420 -0.4078 0.7348
vn 0.4606 -0.0394 0.8867
vn 0.5896 0.0153 0.8076
vn 0.5197 0.4513 0.7254
vn 0.5691 0.3731 0.7327
vn 0.6883 0.4987 0.5268
vn 0.4602 0.2689 0.8461
vn 0.9233 0.3326 -0.1923
vn 0.9234 0.1920 -0.3325
vn 0.9233 0.0000 -0.3840
vn 0.9233 -0.1919 -0.3327
vn 0.4279 0.7775 0.4608
vn 0.9232 -0.3327 -0.1924
vn 0.2309 0.8419 0.4876
vn 0.0517 -0.8519 0.5212
vn 0.0585 -0.4824 0.8740
vn 0.0772 -0.0122 0.9969
vn 0.0561 0.5421 0.8384
vn 0.0276 0.7348 0.6777
vn 0.4035 0.2180 0.8886
vn 0.0464 0.2472 0.9679
vn 0.0374 0.8757 0.4813
vn -0.0000 -0.8518 0.5239
vn -0.0000 -0.4788 0.8779
vn -0.0000 -0.0121 0.9999
vn 0.0386 -0.1777 0.9833
vn 0.0000 -0.1774 0.9841
vn 0.0001 0.2379 0.9713
vn 0.0000 0.8739 0.4862
vn 0.7154 -0.0520 0.6968
vn 0.0468 0.2700 0.9617
# 326 vertex normals

vt 0.1042 0.7500 0.0000
vt 0.0833 0.0000 1.0000
vt 0.0000 0.0000 1.0000
vt 0.1667 0.0000 1.0000
vt 0.2500 0.0000 1.0000
vt 0.3333 0.0000 1.0000
vt 0.4167 0.0000 1.0000
vt 0.5000 0.0000 1.0000
vt 0.4100 0.0000 1.0000
vt 0.4538 0.0000 1.0000
vt 0.4564 0.0000 1.0000
vt 0.4540 0.0000 1.0000
vt 0.4616 0.0000 1.0000
vt 0.4180 0.0000 1.0000
vt 0.4565 0.0000 1.0000
# 15 texture coords

o OfficeHingedDoor_00
g OfficeHingedDoor_00
usemtl Material__65
s 1
f 1/1/1 2/1/2 3/1/3 4/1/4 
s 2
f 5/1/5 6/1/6 3/1/3 2/1/2 
f 7/1/7 8/1/8 1/1/1 4/1/4 
s 1
f 8/1/8 7/1/7 6/1/6 5/1/5 
s 4
f 8/1/8 5/1/5 9/1/9 10/1/9 
f 5/1/5 2/1/2 11/1/10 9/1/9 
f 2/1/2 1/1/1 12/1/11 11/1/10 
f 1/1/1 8/1/8 10/1/9 12/1/11 
f 6/1/6 7/1/7 13/1/12 14/1/12 
f 7/1/7 4/1/4 15/1/13 13/1/12 
f 4/1/4 3/1/3 16/1/12 15/1/13 
f 3/1/3 6/1/6 14/1/12 16/1/12 
s 1
f 17/1/14 18/1/15 19/1/16 20/1/17 
s 2
f 21/1/18 17/1/14 20/1/17 22/1/19 
s 1
f 23/1/20 24/1/21 25/1/22 26/1/23 
s 2
f 24/1/21 27/1/24 28/1/25 25/1/22 
s 1
f 28/1/25 27/1/24 29/1/26 30/1/27 
s 2
f 30/1/27 29/1/26 23/1/20 26/1/23 
s 1
f 31/1/28 32/1/29 21/1/18 22/1/19 
s 2
f 19/1/16 18/1/15 32/1/29 31/1/28 
s 1
f 33/1/30 34/1/31 35/1/32 36/1/33 
s 2
f 37/1/34 33/1/30 36/1/33 38/1/35 
s 1
f 38/1/35 39/1/36 40/1/37 37/1/34 
s 2
f 39/1/36 35/1/32 34/1/31 40/1/37 
s off
f 20/1/17 19/1/16 34/1/31 33/1/30 
f 19/1/16 31/1/28 40/1/37 34/1/31 
f 31/1/28 22/1/19 37/1/34 40/1/37 
f 22/1/19 20/1/17 33/1/30 37/1/34 
f 26/1/23 25/1/22 39/1/36 38/1/35 
f 25/1/22 28/1/25 35/1/32 39/1/36 
f 28/1/25 30/1/27 36/1/33 35/1/32 
f 30/1/27 26/1/23 38/1/35 36/1/33 
s 4
f 41/1/10 17/1/14 21/1/18 42/1/10 
f 43/1/38 18/1/15 17/1/14 41/1/10 
f 44/1/9 32/1/29 18/1/15 43/1/38 
f 42/1/10 21/1/18 32/1/29 44/1/9 
f 45/1/12 23/1/20 29/1/26 46/1/13 
f 47/1/13 24/1/21 23/1/20 45/1/12 
f 48/1/12 27/1/24 24/1/21 47/1/13 
f 46/1/13 29/1/26 27/1/24 48/1/12 
f 9/1/9 41/1/10 42/1/10 10/1/9 
f 11/1/10 43/1/38 41/1/10 9/1/9 
f 12/1/11 44/1/9 43/1/38 11/1/10 
f 10/1/9 42/1/10 44/1/9 12/1/11 
f 13/1/12 45/1/12 46/1/13 14/1/12 
f 15/1/13 47/1/13 45/1/12 13/1/12 
f 16/1/12 48/1/12 47/1/13 15/1/13 
f 14/1/12 46/1/13 48/1/12 16/1/12 
s 1
f 49/2/39 50/2/40 51/3/41 52/3/42 
f 53/4/43 54/4/44 50/2/40 49/2/39 
f 55/5/45 56/5/46 54/4/44 53/4/43 
f 57/6/47 58/6/48 56/5/46 55/5/45 
f 59/7/49 60/7/50 58/6/48 57/6/47 
f 61/8/51 62/8/52 60/7/50 59/7/49 
f 51/3/41 50/2/40 63/2/53 64/3/54 
f 50/2/40 54/4/44 65/4/55 63/2/53 
f 54/4/44 56/5/46 66/5/56 65/4/55 
f 56/5/46 58/6/48 67/6/57 66/5/56 
f 58/6/48 60/7/50 68/7/58 67/6/57 
f 60/7/50 62/8/52 69/8/59 68/7/58 
f 52/3/42 70/3/60 71/2/61 49/2/39 
f 49/2/39 71/2/61 72/4/62 53/4/43 
f 53/4/43 72/4/62 73/5/63 55/5/45 
f 55/5/45 73/5/63 74/6/64 57/6/47 
f 57/6/47 74/6/64 75/7/65 59/7/49 
f 59/7/49 75/7/65 76/8/66 61/8/51 
f 70/3/60 77/3/67 78/2/68 71/2/61 
f 71/2/61 78/2/68 79/4/69 72/4/62 
f 72/4/62 79/4/69 80/5/70 73/5/63 
f 73/5/63 80/5/70 81/6/71 74/6/64 
f 74/6/64 81/6/71 82/7/72 75/7/65 
f 75/7/65 82/7/72 83/8/73 76/8/66 
f 77/3/67 84/3/74 85/2/75 78/2/68 
f 78/2/68 85/2/75 86/4/76 79/4/69 
f 79/4/69 86/4/76 87/5/77 80/5/70 
f 80/5/70 87/5/77 88/6/78 81/6/71 
f 81/6/71 88/6/78 89/7/79 82/7/72 
f 82/7/72 89/7/79 90/8/80 83/8/73 
f 84/3/74 91/3/59 92/2/81 85/2/75 
f 85/2/75 92/2/81 93/4/82 86/4/76 
f 86/4/76 93/4/82 94/5/77 87/5/77 
f 87/5/77 94/5/77 95/6/83 88/6/78 
f 88/6/78 95/6/83 96/7/84 89/7/79 
f 89/7/79 96/7/84 97/8/54 90/8/80 
f 98/3/85 99/2/86 100/2/87 101/3/88 
f 99/2/86 102/4/89 103/4/90 100/2/87 
f 102/4/89 104/5/91 105/5/92 103/4/90 
f 104/5/91 106/6/93 107/6/94 105/5/92 
f 106/6/93 108/9/95 109/7/96 107/6/94 
f 100/2/87 110/2/97 111/3/98 101/3/88 
f 103/4/90 112/4/99 110/2/97 100/2/87 
f 105/5/92 113/5/100 112/4/99 103/4/90 
f 107/6/94 114/6/101 113/5/100 105/5/92 
f 115/10/102 116/7/103 114/6/101 107/6/94 
f 117/8/104 118/8/105 116/7/103 115/10/102 
f 111/3/98 110/2/97 119/2/53 120/3/80 
f 110/2/97 112/4/99 121/4/106 119/2/53 
f 112/4/99 113/5/100 122/5/56 121/4/106 
f 113/5/100 114/6/101 123/6/107 122/5/56 
f 114/6/101 116/7/103 124/7/58 123/6/107 
f 116/7/103 118/8/105 125/8/74 124/7/58 
f 115/10/102 126/11/108 127/8/109 117/8/104 
f 99/2/86 98/3/85 128/3/110 129/2/111 
f 102/4/89 99/2/86 129/2/111 130/4/112 
f 104/5/91 102/4/89 130/4/112 131/5/113 
f 106/6/93 104/5/91 131/5/113 132/6/114 
f 108/9/95 106/6/93 132/6/114 133/9/115 
f 126/11/108 134/12/116 135/11/117 136/13/118 
f 127/8/109 126/11/108 136/13/118 137/8/119 
f 129/2/111 128/3/110 138/3/59 139/2/120 
f 130/4/112 129/2/111 139/2/120 140/4/121 
f 131/5/113 130/4/112 140/4/121 141/5/122 
f 132/6/114 131/5/113 141/5/122 142/6/123 
f 133/9/115 132/6/114 142/6/123 143/9/124 
f 135/11/117 144/14/125 145/14/126 146/15/127 
f 137/8/119 136/13/118 147/13/128 148/8/80 
f 138/3/59 149/3/59 150/2/120 139/2/120 
f 139/2/120 150/2/120 151/4/121 140/4/121 
f 140/4/121 151/4/121 152/5/122 141/5/122 
f 141/5/122 152/5/122 153/6/123 142/6/123 
f 142/6/123 153/6/123 154/9/124 143/9/124 
f 145/14/126 155/14/129 156/15/130 146/15/127 
f 147/13/128 157/13/131 158/8/54 148/8/80 
f 135/11/117 146/15/127 147/13/128 136/13/118 
f 146/15/127 156/15/130 157/13/131 147/13/128 
f 134/12/116 159/14/132 144/14/125 135/11/117 
f 134/12/116 126/11/108 115/10/102 107/6/94 
f 108/9/95 133/9/115 160/7/133 109/7/96 
f 133/9/115 143/9/124 161/7/134 160/7/133 
f 145/14/126 144/14/125 160/7/133 161/7/134 
f 143/9/124 154/9/124 162/7/134 161/7/134 
f 155/14/129 145/14/126 161/7/134 162/7/134 
f 144/14/125 159/14/132 109/7/96 160/7/133 
f 109/7/96 159/14/132 134/12/116 107/6/94 
f 163/2/135 52/3/42 51/3/41 164/2/136 
f 165/4/137 163/2/135 164/2/136 166/4/138 
f 167/5/139 165/4/137 166/4/138 168/5/140 
f 169/6/141 167/5/139 168/5/140 170/6/142 
f 171/7/143 169/6/141 170/6/142 172/7/144 
f 61/8/51 171/7/143 172/7/144 62/8/52 
f 51/3/41 64/3/54 173/2/79 164/2/136 
f 164/2/136 173/2/79 174/4/78 166/4/138 
f 166/4/138 174/4/78 175/5/145 168/5/140 
f 168/5/140 175/5/145 176/6/76 170/6/142 
f 170/6/142 176/6/76 177/7/75 172/7/144 
f 172/7/144 177/7/75 69/8/59 62/8/52 
f 52/3/42 163/2/135 178/2/146 70/3/60 
f 163/2/135 165/4/137 179/4/147 178/2/146 
f 165/4/137 167/5/139 180/5/148 179/4/147 
f 167/5/139 169/6/141 181/6/149 180/5/148 
f 169/6/141 171/7/143 182/7/150 181/6/149 
f 171/7/143 61/8/51 76/8/66 182/7/150 
f 70/3/60 178/2/146 183/2/151 77/3/67 
f 178/2/146 179/4/147 184/4/152 183/2/151 
f 179/4/147 180/5/148 185/5/153 184/4/152 
f 180/5/148 181/6/149 186/6/154 185/5/153 
f 181/6/149 182/7/150 187/7/155 186/6/154 
f 182/7/150 76/8/66 83/8/73 187/7/155 
f 77/3/67 183/2/151 188/2/156 84/3/74 
f 183/2/151 184/4/152 189/4/57 188/2/156 
f 184/4/152 185/5/153 190/5/157 189/4/57 
f 185/5/153 186/6/154 191/6/55 190/5/157 
f 186/6/154 187/7/155 192/7/158 191/6/55 
f 187/7/155 83/8/73 90/8/80 192/7/158 
f 84/3/74 188/2/156 193/2/58 91/3/59 
f 188/2/156 189/4/57 194/4/159 193/2/58 
f 189/4/57 190/5/157 195/5/157 194/4/159 
f 190/5/157 191/6/55 196/6/160 195/5/157 
f 191/6/55 192/7/158 197/7/53 196/6/160 
f 192/7/158 90/8/80 97/8/54 197/7/53 
f 98/3/85 101/3/88 198/2/161 199/2/162 
f 199/2/162 198/2/161 200/4/163 201/4/164 
f 201/4/164 200/4/163 202/5/165 203/5/166 
f 203/5/166 202/5/165 204/6/167 205/6/168 
f 205/6/168 204/6/167 206/7/169 207/9/170 
f 198/2/161 101/3/88 111/3/98 208/2/171 
f 200/4/163 198/2/161 208/2/171 209/4/172 
f 202/5/165 200/4/163 209/4/172 210/5/173 
f 204/6/167 202/5/165 210/5/173 211/6/174 
f 212/10/175 204/6/167 211/6/174 213/7/176 
f 117/8/104 212/10/175 213/7/176 118/8/105 
f 111/3/98 120/3/80 214/2/84 208/2/171 
f 208/2/171 214/2/84 215/4/177 209/4/172 
f 209/4/172 215/4/177 216/5/77 210/5/173 
f 210/5/173 216/5/77 217/6/178 211/6/174 
f 211/6/174 217/6/178 218/7/81 213/7/176 
f 213/7/176 218/7/81 125/8/74 118/8/105 
f 212/10/175 117/8/104 127/8/109 219/11/179 
f 199/2/162 220/2/180 128/3/110 98/3/85 
f 201/4/164 221/4/181 220/2/180 199/2/162 
f 203/5/166 222/5/182 221/4/181 201/4/164 
f 205/6/168 223/6/183 222/5/182 203/5/166 
f 207/9/170 224/9/184 223/6/183 205/6/168 
f 219/11/179 225/13/185 226/11/186 227/12/187 
f 127/8/109 137/8/119 225/13/185 219/11/179 
f 220/2/180 228/2/188 138/3/59 128/3/110 
f 221/4/181 229/4/189 228/2/188 220/2/180 
f 222/5/182 230/5/190 229/4/189 221/4/181 
f 223/6/183 231/6/191 230/5/190 222/5/182 
f 224/9/184 232/9/192 231/6/191 223/6/183 
f 226/11/186 233/15/193 234/14/194 235/14/195 
f 137/8/119 148/8/80 236/13/196 225/13/185 
f 138/3/59 228/2/188 237/2/197 149/3/59 
f 228/2/188 229/4/189 238/4/198 237/2/197 
f 229/4/189 230/5/190 239/5/199 238/4/198 
f 230/5/190 231/6/191 240/6/200 239/5/199 
f 231/6/191 232/9/192 241/9/201 240/6/200 
f 234/14/194 233/15/193 242/15/202 243/14/194 
f 236/13/196 148/8/80 158/8/54 244/13/203 
f 226/11/186 225/13/185 236/13/196 233/15/193 
f 233/15/193 236/13/196 244/13/203 242/15/202 
f 227/12/187 226/11/186 235/14/195 245/14/204 
f 227/12/187 204/6/167 212/10/175 219/11/179 
f 207/9/170 206/7/169 246/7/205 224/9/184 
f 224/9/184 246/7/205 247/7/206 232/9/192 
f 234/14/194 247/7/206 246/7/205 235/14/195 
f 232/9/192 247/7/206 248/7/207 241/9/201 
f 243/14/194 248/7/207 247/7/206 234/14/194 
f 235/14/195 246/7/205 206/7/169 245/14/204 
f 206/7/169 204/6/167 227/12/187 245/14/204 
f 63/2/53 249/2/53 250/3/54 64/3/54 
f 65/4/55 251/4/106 249/2/53 63/2/53 
f 66/5/56 252/5/56 251/4/106 65/4/55 
f 67/6/57 253/6/107 252/5/56 66/5/56 
f 68/7/58 254/7/58 253/6/107 67/6/57 
f 69/8/59 255/8/59 254/7/58 68/7/58 
f 64/3/54 250/3/54 256/2/84 173/2/79 
f 173/2/79 256/2/84 257/4/177 174/4/78 
f 174/4/78 257/4/177 258/5/77 175/5/145 
f 175/5/145 258/5/77 259/6/178 176/6/76 
f 176/6/76 259/6/178 260/7/81 177/7/75 
f 177/7/75 260/7/81 255/8/59 69/8/59 
f 261/2/208 262/3/209 263/3/210 264/2/211 
f 265/4/212 261/2/208 264/2/211 266/4/213 
f 267/5/214 265/4/212 266/4/213 268/5/215 
f 269/6/216 267/5/214 268/5/215 270/6/217 
f 271/7/218 269/6/216 270/6/217 272/7/219 
f 273/8/220 271/7/218 272/7/219 274/8/221 
f 263/3/210 275/3/54 276/2/53 264/2/211 
f 264/2/211 276/2/53 277/4/106 266/4/213 
f 266/4/213 277/4/106 278/5/56 268/5/215 
f 268/5/215 278/5/56 279/6/107 270/6/217 
f 270/6/217 279/6/107 280/7/58 272/7/219 
f 272/7/219 280/7/58 281/8/59 274/8/221 
f 262/3/209 261/2/208 282/2/222 283/3/223 
f 261/2/208 265/4/212 284/4/224 282/2/222 
f 265/4/212 267/5/214 285/5/225 284/4/224 
f 267/5/214 269/6/216 286/6/226 285/5/225 
f 269/6/216 271/7/218 287/7/227 286/6/226 
f 271/7/218 273/8/220 288/8/228 287/7/227 
f 283/3/223 282/2/222 289/2/229 290/3/230 
f 282/2/222 284/4/224 291/4/231 289/2/229 
f 284/4/224 285/5/225 292/5/232 291/4/231 
f 285/5/225 286/6/226 293/6/233 292/5/232 
f 286/6/226 287/7/227 294/7/234 293/6/233 
f 287/7/227 288/8/228 295/8/235 294/7/234 
f 290/3/230 289/2/229 296/2/81 297/3/74 
f 289/2/229 291/4/231 298/4/178 296/2/81 
f 291/4/231 292/5/232 299/5/77 298/4/178 
f 292/5/232 293/6/233 300/6/177 299/5/77 
f 293/6/233 294/7/234 301/7/84 300/6/177 
f 294/7/234 295/8/235 302/8/80 301/7/84 
f 297/3/74 296/2/81 92/2/81 91/3/59 
f 296/2/81 298/4/178 93/4/82 92/2/81 
f 298/4/178 299/5/77 94/5/77 93/4/82 
f 299/5/77 300/6/177 95/6/83 94/5/77 
f 300/6/177 301/7/84 96/7/84 95/6/83 
f 301/7/84 302/8/80 97/8/54 96/7/84 
f 303/3/236 304/3/237 305/2/238 306/2/239 
f 306/2/239 305/2/238 307/4/240 308/4/241 
f 308/4/241 307/4/240 309/5/242 310/5/243 
f 310/5/243 309/5/242 311/6/244 312/6/245 
f 312/6/245 311/6/244 313/7/246 314/9/247 
f 305/2/238 304/3/237 315/3/248 316/2/249 
f 307/4/240 305/2/238 316/2/249 317/4/250 
f 309/5/242 307/4/240 317/4/250 318/5/251 
f 311/6/244 309/5/242 318/5/251 319/6/252 
f 320/10/253 311/6/244 319/6/252 321/7/254 
f 322/8/255 320/10/253 321/7/254 323/8/256 
f 315/3/248 120/3/80 119/2/53 316/2/249 
f 316/2/249 119/2/53 121/4/106 317/4/250 
f 317/4/250 121/4/106 122/5/56 318/5/251 
f 318/5/251 122/5/56 123/6/107 319/6/252 
f 319/6/252 123/6/107 124/7/58 321/7/254 
f 321/7/254 124/7/58 125/8/74 323/8/256 
f 320/10/253 322/8/255 324/8/257 325/11/258 
f 306/2/239 326/2/259 327/3/260 303/3/236 
f 308/4/241 328/4/261 326/2/259 306/2/239 
f 310/5/243 329/5/262 328/4/261 308/4/241 
f 312/6/245 330/6/263 329/5/262 310/5/243 
f 314/9/247 331/9/264 330/6/263 312/6/245 
f 325/11/258 332/13/265 333/11/266 334/12/267 
f 324/8/257 335/8/268 332/13/265 325/11/258 
f 326/2/259 336/2/120 337/3/59 327/3/260 
f 328/4/261 338/4/121 336/2/120 326/2/259 
f 329/5/262 339/5/122 338/4/121 328/4/261 
f 330/6/263 340/6/123 339/5/122 329/5/262 
f 331/9/264 341/9/124 340/6/123 330/6/263 
f 333/11/266 342/15/130 343/14/129 344/14/269 
f 335/8/268 345/8/80 346/13/131 332/13/265 
f 337/3/59 336/2/120 150/2/120 149/3/59 
f 336/2/120 338/4/121 151/4/121 150/2/120 
f 338/4/121 339/5/122 152/5/122 151/4/121 
f 339/5/122 340/6/123 153/6/123 152/5/122 
f 340/6/123 341/9/124 154/9/124 153/6/123 
f 343/14/129 342/15/130 156/15/130 155/14/129 
f 346/13/131 345/8/80 158/8/54 157/13/131 
f 333/11/266 332/13/265 346/13/131 342/15/130 
f 342/15/130 346/13/131 157/13/131 156/15/130 
f 334/12/267 333/11/266 344/14/269 347/14/270 
f 334/12/267 311/6/244 320/10/253 325/11/258 
f 314/9/247 313/7/246 348/7/271 331/9/264 
f 331/9/264 348/7/271 349/7/134 341/9/124 
f 343/14/129 349/7/134 348/7/271 344/14/269 
f 341/9/124 349/7/134 162/7/134 154/9/124 
f 155/14/129 162/7/134 349/7/134 343/14/129 
f 344/14/269 348/7/271 313/7/246 347/14/270 
f 313/7/246 311/6/244 334/12/267 347/14/270 
f 350/2/272 351/2/273 263/3/210 262/3/209 
f 352/4/274 353/4/275 351/2/273 350/2/272 
f 354/5/276 355/5/277 353/4/275 352/4/274 
f 356/6/278 357/6/279 355/5/277 354/5/276 
f 358/7/280 359/7/281 357/6/279 356/6/278 
f 273/8/220 274/8/221 359/7/281 358/7/280 
f 263/3/210 351/2/273 360/2/84 275/3/54 
f 351/2/273 353/4/275 361/4/177 360/2/84 
f 353/4/275 355/5/277 362/5/77 361/4/177 
f 355/5/277 357/6/279 363/6/178 362/5/77 
f 357/6/279 359/7/281 364/7/81 363/6/178 
f 359/7/281 274/8/221 281/8/59 364/7/81 
f 262/3/209 283/3/223 365/2/282 350/2/272 
f 350/2/272 365/2/282 366/4/283 352/4/274 
f 352/4/274 366/4/283 367/5/284 354/5/276 
f 354/5/276 367/5/284 368/6/285 356/6/278 
f 356/6/278 368/6/285 369/7/286 358/7/280 
f 358/7/280 369/7/286 288/8/228 273/8/220 
f 283/3/223 290/3/230 370/2/287 365/2/282 
f 365/2/282 370/2/287 371/4/288 366/4/283 
f 366/4/283 371/4/288 372/5/289 367/5/284 
f 367/5/284 372/5/289 373/6/290 368/6/285 
f 368/6/285 373/6/290 374/7/291 369/7/286 
f 369/7/286 374/7/291 295/8/235 288/8/228 
f 290/3/230 297/3/74 375/2/58 370/2/287 
f 370/2/287 375/2/58 376/4/107 371/4/288 
f 371/4/288 376/4/107 377/5/292 372/5/289 
f 372/5/289 377/5/292 378/6/106 373/6/290 
f 373/6/290 378/6/106 379/7/53 374/7/291 
f 374/7/291 379/7/53 302/8/80 295/8/235 
f 297/3/74 91/3/59 193/2/58 375/2/58 
f 375/2/58 193/2/58 194/4/159 376/4/107 
f 376/4/107 194/4/159 195/5/157 377/5/292 
f 377/5/292 195/5/157 196/6/160 378/6/106 
f 378/6/106 196/6/160 197/7/53 379/7/53 
f 379/7/53 197/7/53 97/8/54 302/8/80 
f 303/3/236 380/2/293 381/2/294 304/3/237 
f 380/2/293 382/4/295 383/4/296 381/2/294 
f 382/4/295 384/5/297 385/5/298 383/4/296 
f 384/5/297 386/6/299 387/6/300 385/5/298 
f 386/6/299 388/9/301 389/7/302 387/6/300 
f 381/2/294 390/2/303 315/3/248 304/3/237 
f 383/4/296 391/4/304 390/2/303 381/2/294 
f 385/5/298 392/5/305 391/4/304 383/4/296 
f 387/6/300 393/6/306 392/5/305 385/5/298 
f 394/10/307 395/7/308 393/6/306 387/6/300 
f 322/8/255 323/8/256 395/7/308 394/10/307 
f 315/3/248 390/2/303 214/2/84 120/3/80 
f 390/2/303 391/4/304 215/4/177 214/2/84 
f 391/4/304 392/5/305 216/5/77 215/4/177 
f 392/5/305 393/6/306 217/6/178 216/5/77 
f 393/6/306 395/7/308 218/7/81 217/6/178 
f 395/7/308 323/8/256 125/8/74 218/7/81 
f 394/10/307 396/11/309 324/8/257 322/8/255 
f 380/2/293 303/3/236 327/3/260 397/2/310 
f 382/4/295 380/2/293 397/2/310 398/4/311 
f 384/5/297 382/4/295 398/4/311 399/5/312 
f 386/6/299 384/5/297 399/5/312 400/6/313 
f 388/9/301 386/6/299 400/6/313 401/9/314 
f 396/11/309 402/12/315 403/11/316 404/13/317 
f 324/8/257 396/11/309 404/13/317 335/8/268 
f 397/2/310 327/3/260 337/3/59 405/2/318 
f 398/4/311 397/2/310 405/2/318 406/4/319 
f 399/5/312 398/4/311 406/4/319 407/5/320 
f 400/6/313 399/5/312 407/5/320 408/6/200 
f 401/9/314 400/6/313 408/6/200 409/9/201 
f 403/11/316 410/14/321 411/14/322 412/15/323 
f 335/8/268 404/13/317 413/13/324 345/8/80 
f 337/3/59 149/3/59 237/2/197 405/2/318 
f 405/2/318 237/2/197 238/4/198 406/4/319 
f 406/4/319 238/4/198 239/5/199 407/5/320 
f 407/5/320 239/5/199 240/6/200 408/6/200 
f 408/6/200 240/6/200 241/9/201 409/9/201 
f 411/14/322 243/14/194 242/15/202 412/15/323 
f 413/13/324 244/13/203 158/8/54 345/8/80 
f 403/11/316 412/15/323 413/13/324 404/13/317 
f 412/15/323 242/15/202 244/13/203 413/13/324 
f 402/12/315 414/14/325 410/14/321 403/11/316 
f 402/12/315 396/11/309 394/10/307 387/6/300 
f 388/9/301 401/9/314 415/7/326 389/7/302 
f 401/9/314 409/9/201 416/7/207 415/7/326 
f 411/14/322 410/14/321 415/7/326 416/7/207 
f 409/9/201 241/9/201 248/7/207 416/7/207 
f 243/14/194 411/14/322 416/7/207 248/7/207 
f 410/14/321 414/14/325 389/7/302 415/7/326 
f 389/7/302 414/14/325 402/12/315 387/6/300 
f 276/2/53 275/3/54 250/3/54 249/2/53 
f 277/4/106 276/2/53 249/2/53 251/4/106 
f 278/5/56 277/4/106 251/4/106 252/5/56 
f 279/6/107 278/5/56 252/5/56 253/6/107 
f 280/7/58 279/6/107 253/6/107 254/7/58 
f 281/8/59 280/7/58 254/7/58 255/8/59 
f 275/3/54 360/2/84 256/2/84 250/3/54 
f 360/2/84 361/4/177 257/4/177 256/2/84 
f 361/4/177 362/5/77 258/5/77 257/4/177 
f 362/5/77 363/6/178 259/6/178 258/5/77 
f 363/6/178 364/7/81 260/7/81 259/6/178 
f 364/7/81 281/8/59 255/8/59 260/7/81 
# 416 polygons

