# 3ds Max Wavefront OBJ Exporter v0.99 - (c)2007 guruware
# File Created: 18.12.2025 18:41:56

mtllib OfficeHingedDoor_Handle00.mtl

#
# object OfficeHingedDoor_Handle00
#

v  -0.1140 0.0000 -0.0313
v  -0.1243 0.0000 -0.0313
v  -0.1243 0.0157 -0.0271
v  -0.1140 0.0157 -0.0271
v  -0.1243 0.0271 -0.0157
v  -0.1140 0.0271 -0.0157
v  -0.1243 0.0313 -0.0000
v  -0.1140 0.0313 -0.0000
v  -0.1243 0.0271 0.0156
v  -0.1140 0.0271 0.0156
v  -0.1243 0.0157 0.0271
v  -0.1140 0.0157 0.0271
v  -0.1243 0.0000 0.0313
v  -0.1140 0.0000 0.0313
v  -0.1243 -0.0157 0.0271
v  -0.1140 -0.0157 0.0271
v  -0.1243 -0.0271 0.0156
v  -0.1140 -0.0271 0.0156
v  -0.1243 -0.0313 -0.0000
v  -0.1140 -0.0313 -0.0000
v  -0.1243 -0.0271 -0.0157
v  -0.1140 -0.0271 -0.0157
v  -0.1243 -0.0157 -0.0271
v  -0.1140 -0.0157 -0.0271
v  -0.2050 0.0000 0.0499
v  -0.2056 0.0000 0.0953
v  -0.2014 0.0157 0.0953
v  -0.2008 0.0157 0.0499
v  -0.1899 0.0271 0.0953
v  -0.1893 0.0271 0.0499
v  -0.1743 0.0313 0.0953
v  -0.1737 0.0313 0.0499
v  -0.1586 0.0271 0.0953
v  -0.1580 0.0271 0.0499
v  -0.1472 0.0157 0.0953
v  -0.1466 0.0157 0.0499
v  -0.1430 0.0000 0.0953
v  -0.1424 0.0000 0.0499
v  -0.1472 -0.0157 0.0953
v  -0.1466 -0.0157 0.0499
v  -0.1586 -0.0271 0.0953
v  -0.1580 -0.0271 0.0499
v  -0.1743 -0.0313 0.0953
v  -0.1737 -0.0313 0.0499
v  -0.1899 -0.0271 0.0953
v  -0.1893 -0.0271 0.0499
v  -0.2014 -0.0157 0.0953
v  -0.2008 -0.0157 0.0499
v  -0.1448 -0.0154 0.0370
v  -0.1404 0.0003 0.0396
v  -0.1362 0.0156 0.0294
v  -0.1336 -0.0000 0.0339
v  -0.1552 -0.0268 0.0303
v  -0.1440 -0.0271 0.0197
v  -0.1528 -0.0313 0.0065
v  -0.1802 -0.0268 0.0129
v  -0.1683 -0.0310 0.0212
v  -0.1512 0.0313 0.0055
v  -0.1426 0.0271 0.0190
v  -0.1673 0.0316 0.0197
v  -0.1793 0.0274 0.0115
v  -0.1919 0.0159 0.0032
v  -0.1694 -0.0000 -0.0227
v  -0.1671 0.0156 -0.0193
v  -0.1954 0.0003 0.0012
v  -0.1924 -0.0153 0.0040
v  -0.1614 -0.0271 -0.0086
v  -0.1679 -0.0156 -0.0188
v  -0.1370 -0.0157 0.0298
v  -0.1444 0.0159 0.0362
v  -0.1544 0.0274 0.0290
v  -0.1600 0.0271 -0.0094
v  -0.2068 -0.0000 0.2963
v  -0.2026 0.0157 0.2963
v  -0.1911 0.0271 0.2963
v  -0.1755 0.0313 0.2963
v  -0.1598 0.0271 0.2963
v  -0.1484 0.0157 0.2963
v  -0.1442 -0.0000 0.2963
v  -0.1484 -0.0157 0.2963
v  -0.1598 -0.0271 0.2963
v  -0.1755 -0.0313 0.2963
v  -0.1911 -0.0271 0.2963
v  -0.2026 -0.0157 0.2963
v  -0.2068 -0.0000 0.3133
v  -0.1993 -0.0000 0.3216
v  -0.1961 0.0119 0.3216
v  -0.2026 0.0157 0.3133
v  -0.1874 0.0207 0.3216
v  -0.1911 0.0271 0.3133
v  -0.1755 0.0239 0.3216
v  -0.1755 0.0313 0.3133
v  -0.1635 0.0207 0.3216
v  -0.1598 0.0271 0.3133
v  -0.1548 0.0119 0.3216
v  -0.1484 0.0157 0.3133
v  -0.1516 -0.0000 0.3216
v  -0.1442 -0.0000 0.3133
v  -0.1548 -0.0119 0.3216
v  -0.1484 -0.0157 0.3133
v  -0.1635 -0.0207 0.3216
v  -0.1598 -0.0271 0.3133
v  -0.1755 -0.0239 0.3216
v  -0.1755 -0.0313 0.3133
v  -0.1874 -0.0207 0.3216
v  -0.1911 -0.0271 0.3133
v  -0.1961 -0.0119 0.3216
v  -0.2026 -0.0157 0.3133
v  -0.1755 -0.0000 0.3216
v  -0.1083 0.0115 -0.0198
v  -0.1083 0.0000 -0.0229
v  -0.1083 0.0198 -0.0115
v  -0.1083 0.0229 -0.0000
v  -0.1083 0.0198 0.0114
v  -0.1083 0.0115 0.0198
v  -0.1083 0.0000 0.0229
v  -0.1083 -0.0115 0.0198
v  -0.1083 -0.0198 0.0114
v  -0.1083 -0.0229 -0.0000
v  -0.1083 -0.0198 -0.0115
v  -0.1083 -0.0115 -0.0198
v  -0.1078 0.0108 -0.0187
v  -0.1072 0.0108 -0.0187
v  -0.1072 0.0000 -0.0216
v  -0.1078 0.0000 -0.0216
v  -0.1078 0.0187 -0.0108
v  -0.1072 0.0187 -0.0108
v  -0.1078 0.0216 -0.0000
v  -0.1072 0.0216 -0.0000
v  -0.1078 0.0187 0.0108
v  -0.1072 0.0187 0.0108
v  -0.1078 0.0108 0.0187
v  -0.1072 0.0108 0.0187
v  -0.1078 0.0000 0.0216
v  -0.1072 0.0000 0.0216
v  -0.1078 -0.0108 0.0187
v  -0.1072 -0.0108 0.0187
v  -0.1078 -0.0187 0.0108
v  -0.1072 -0.0187 0.0108
v  -0.1078 -0.0216 -0.0000
v  -0.1072 -0.0216 -0.0000
v  -0.1078 -0.0187 -0.0108
v  -0.1072 -0.0187 -0.0108
v  -0.1078 -0.0108 -0.0187
v  -0.1072 -0.0108 -0.0187
v  -0.0976 0.0142 -0.0247
v  -0.0935 0.0142 -0.0247
v  -0.0935 0.0000 -0.0285
v  -0.0976 0.0000 -0.0285
v  -0.0976 0.0247 -0.0142
v  -0.0935 0.0247 -0.0142
v  -0.0976 0.0285 -0.0000
v  -0.0935 0.0285 -0.0000
v  -0.0976 0.0247 0.0142
v  -0.0935 0.0247 0.0142
v  -0.0976 0.0142 0.0247
v  -0.0935 0.0142 0.0247
v  -0.0976 0.0000 0.0285
v  -0.0935 0.0000 0.0285
v  -0.0976 -0.0142 0.0247
v  -0.0935 -0.0142 0.0247
v  -0.0976 -0.0247 0.0142
v  -0.0935 -0.0247 0.0142
v  -0.0976 -0.0285 -0.0000
v  -0.0935 -0.0285 -0.0000
v  -0.0976 -0.0247 -0.0142
v  -0.0935 -0.0247 -0.0142
v  -0.0976 -0.0142 -0.0247
v  -0.0935 -0.0142 -0.0247
v  -0.0979 0.0000 -0.0279
v  -0.0979 0.0140 -0.0242
v  -0.0979 0.0242 -0.0140
v  -0.0979 0.0279 -0.0000
v  -0.0979 0.0242 0.0140
v  -0.0979 0.0140 0.0242
v  -0.0979 0.0000 0.0279
v  -0.0979 -0.0140 0.0242
v  -0.0979 -0.0242 0.0140
v  -0.0979 -0.0279 -0.0000
v  -0.0979 -0.0242 -0.0140
v  -0.0979 -0.0140 -0.0242
v  -0.0978 0.0000 -0.0230
v  -0.0959 0.0000 -0.0220
v  -0.0959 0.0110 -0.0191
v  -0.0978 0.0115 -0.0199
v  -0.0959 0.0191 -0.0110
v  -0.0978 0.0199 -0.0115
v  -0.0959 0.0220 -0.0000
v  -0.0978 0.0230 -0.0000
v  -0.0959 0.0191 0.0110
v  -0.0978 0.0199 0.0115
v  -0.0959 0.0110 0.0191
v  -0.0978 0.0115 0.0199
v  -0.0959 0.0000 0.0220
v  -0.0978 0.0000 0.0230
v  -0.0959 -0.0110 0.0191
v  -0.0978 -0.0115 0.0199
v  -0.0959 -0.0191 0.0110
v  -0.0978 -0.0199 0.0115
v  -0.0959 -0.0220 -0.0000
v  -0.0978 -0.0230 -0.0000
v  -0.0959 -0.0191 -0.0110
v  -0.0978 -0.0199 -0.0115
v  -0.0959 -0.0110 -0.0191
v  -0.0978 -0.0115 -0.0199
v  -0.0226 0.0000 -0.0220
v  -0.0226 0.0110 -0.0191
v  -0.0226 0.0191 -0.0110
v  -0.0226 0.0220 -0.0000
v  -0.0226 0.0191 0.0110
v  -0.0226 0.0110 0.0190
v  -0.0226 0.0000 0.0220
v  -0.0226 -0.0110 0.0191
v  -0.0226 -0.0191 0.0110
v  -0.0226 -0.0220 -0.0000
v  -0.0226 -0.0191 -0.0110
v  -0.0226 -0.0110 -0.0191
v  -0.0979 0.0119 -0.0206
v  -0.0979 0.0000 -0.0238
v  -0.0979 0.0206 -0.0119
v  -0.0979 0.0238 -0.0000
v  -0.0979 0.0206 0.0119
v  -0.0979 0.0119 0.0206
v  -0.0979 0.0000 0.0238
v  -0.0979 -0.0119 0.0206
v  -0.0979 -0.0206 0.0119
v  -0.0979 -0.0238 -0.0000
v  -0.0979 -0.0206 -0.0119
v  -0.0979 -0.0119 -0.0206
v  -0.0226 0.0142 -0.0247
v  -0.0226 0.0000 -0.0285
v  -0.0226 0.0247 -0.0142
v  -0.0226 0.0285 -0.0000
v  -0.0226 0.0247 0.0142
v  -0.0226 0.0142 0.0247
v  -0.0226 0.0000 0.0285
v  -0.0226 -0.0142 0.0247
v  -0.0226 -0.0247 0.0142
v  -0.0226 -0.0285 -0.0000
v  -0.0226 -0.0247 -0.0142
v  -0.0226 -0.0142 -0.0247
v  -0.0474 0.0108 -0.0187
v  -0.0474 0.0000 -0.0216
v  -0.0474 0.0187 -0.0108
v  -0.0474 0.0216 -0.0000
v  -0.0474 0.0187 0.0108
v  -0.0474 0.0108 0.0187
v  -0.0474 0.0000 0.0216
v  -0.0474 -0.0108 0.0187
v  -0.0474 -0.0187 0.0108
v  -0.0474 -0.0216 -0.0000
v  -0.0474 -0.0187 -0.0108
v  -0.0474 -0.0108 -0.0187
v  -0.0834 0.0243 -0.0421
v  -0.0811 0.0257 -0.0445
v  -0.0811 0.0000 -0.0514
v  -0.0834 0.0000 -0.0486
v  -0.0834 0.0421 -0.0243
v  -0.0811 0.0445 -0.0257
v  -0.0834 0.0486 -0.0000
v  -0.0811 0.0514 -0.0000
v  -0.0834 0.0421 0.0243
v  -0.0811 0.0445 0.0257
v  -0.0834 0.0243 0.0421
v  -0.0811 0.0257 0.0445
v  -0.0834 0.0000 0.0486
v  -0.0811 0.0000 0.0514
v  -0.0834 -0.0243 0.0421
v  -0.0811 -0.0257 0.0445
v  -0.0834 -0.0421 0.0243
v  -0.0811 -0.0445 0.0257
v  -0.0834 -0.0486 -0.0000
v  -0.0811 -0.0514 -0.0000
v  -0.0834 -0.0421 -0.0243
v  -0.0811 -0.0445 -0.0257
v  -0.0834 -0.0243 -0.0421
v  -0.0811 -0.0257 -0.0445
v  -0.0000 0.0257 -0.0445
v  -0.0000 0.0000 -0.0514
v  -0.0000 0.0445 -0.0257
v  -0.0000 0.0514 -0.0000
v  -0.0000 0.0445 0.0257
v  -0.0000 0.0257 0.0445
v  -0.0000 0.0000 0.0514
v  -0.0000 -0.0257 0.0445
v  -0.0000 -0.0445 0.0257
v  -0.0000 -0.0514 -0.0000
v  -0.0000 -0.0445 -0.0257
v  -0.0000 -0.0257 -0.0445
v  -0.0866 0.0000 -0.0311
v  -0.0866 0.0156 -0.0269
v  -0.0866 0.0269 -0.0156
v  -0.0866 0.0311 -0.0000
v  -0.0866 0.0269 0.0155
v  -0.0866 0.0156 0.0269
v  -0.0866 0.0000 0.0311
v  -0.0866 -0.0156 0.0269
v  -0.0866 -0.0269 0.0156
v  -0.0866 -0.0311 -0.0000
v  -0.0866 -0.0269 -0.0156
v  -0.0866 -0.0156 -0.0269
v  -0.0866 0.0000 -0.0291
v  -0.0866 0.0146 -0.0252
v  -0.0866 0.0252 -0.0146
v  -0.0866 0.0291 -0.0000
v  -0.0866 0.0252 0.0146
v  -0.0866 0.0146 0.0252
v  -0.0866 0.0000 0.0291
v  -0.0866 -0.0146 0.0252
v  -0.0866 -0.0252 0.0146
v  -0.0866 -0.0291 -0.0000
v  -0.0866 -0.0252 -0.0146
v  -0.0866 -0.0146 -0.0252
v  -0.0839 0.0000 -0.0291
v  -0.0839 0.0146 -0.0252
v  -0.0839 0.0252 -0.0146
v  -0.0839 0.0291 -0.0000
v  -0.0839 0.0252 0.0146
v  -0.0839 0.0146 0.0252
v  -0.0839 0.0000 0.0291
v  -0.0839 -0.0146 0.0252
v  -0.0839 -0.0252 0.0146
v  -0.0839 -0.0291 -0.0000
v  -0.0839 -0.0252 -0.0146
v  -0.0839 -0.0146 -0.0252
v  -0.0226 0.0000 -0.0291
v  -0.0226 0.0146 -0.0252
v  -0.0226 0.0252 -0.0146
v  -0.0226 0.0291 -0.0000
v  -0.0226 0.0252 0.0146
v  -0.0226 0.0146 0.0252
v  -0.0226 0.0000 0.0291
v  -0.0226 -0.0146 0.0252
v  -0.0226 -0.0252 0.0146
v  -0.0226 -0.0291 -0.0000
v  -0.0226 -0.0252 -0.0146
v  -0.0226 -0.0146 -0.0252
v  -0.0226 0.0000 -0.0000
v  0.1140 0.0000 -0.0313
v  0.1140 0.0157 -0.0271
v  0.1243 0.0157 -0.0271
v  0.1243 0.0000 -0.0313
v  0.1140 0.0271 -0.0157
v  0.1243 0.0271 -0.0157
v  0.1140 0.0313 -0.0000
v  0.1243 0.0313 -0.0000
v  0.1140 0.0271 0.0156
v  0.1243 0.0271 0.0156
v  0.1140 0.0157 0.0271
v  0.1243 0.0157 0.0271
v  0.1140 0.0000 0.0313
v  0.1243 0.0000 0.0313
v  0.1140 -0.0157 0.0271
v  0.1243 -0.0157 0.0271
v  0.1140 -0.0271 0.0156
v  0.1243 -0.0271 0.0156
v  0.1140 -0.0313 -0.0000
v  0.1243 -0.0313 -0.0000
v  0.1140 -0.0271 -0.0157
v  0.1243 -0.0271 -0.0157
v  0.1140 -0.0157 -0.0271
v  0.1243 -0.0157 -0.0271
v  0.2050 0.0000 0.0499
v  0.2008 0.0157 0.0499
v  0.2014 0.0157 0.0953
v  0.2056 0.0000 0.0953
v  0.1893 0.0271 0.0499
v  0.1899 0.0271 0.0953
v  0.1737 0.0313 0.0499
v  0.1743 0.0313 0.0953
v  0.1580 0.0271 0.0499
v  0.1586 0.0271 0.0953
v  0.1466 0.0157 0.0499
v  0.1472 0.0157 0.0953
v  0.1424 0.0000 0.0499
v  0.1430 0.0000 0.0953
v  0.1466 -0.0157 0.0499
v  0.1472 -0.0157 0.0953
v  0.1580 -0.0271 0.0499
v  0.1586 -0.0271 0.0953
v  0.1737 -0.0313 0.0499
v  0.1743 -0.0313 0.0953
v  0.1893 -0.0271 0.0499
v  0.1899 -0.0271 0.0953
v  0.2008 -0.0157 0.0499
v  0.2014 -0.0157 0.0953
v  0.1404 0.0003 0.0396
v  0.1448 -0.0154 0.0370
v  0.1336 -0.0000 0.0339
v  0.1362 0.0156 0.0294
v  0.1551 -0.0268 0.0303
v  0.1528 -0.0313 0.0065
v  0.1439 -0.0271 0.0197
v  0.1683 -0.0310 0.0212
v  0.1802 -0.0268 0.0129
v  0.1426 0.0271 0.0190
v  0.1511 0.0313 0.0055
v  0.1793 0.0274 0.0115
v  0.1673 0.0316 0.0197
v  0.1919 0.0159 0.0032
v  0.1671 0.0156 -0.0193
v  0.1693 -0.0000 -0.0227
v  0.1924 -0.0153 0.0040
v  0.1954 0.0003 0.0012
v  0.1679 -0.0156 -0.0188
v  0.1614 -0.0271 -0.0086
v  0.1370 -0.0157 0.0298
v  0.1444 0.0159 0.0362
v  0.1543 0.0274 0.0289
v  0.1600 0.0271 -0.0094
v  0.2026 0.0157 0.2963
v  0.2068 0.0000 0.2963
v  0.1911 0.0271 0.2963
v  0.1755 0.0313 0.2963
v  0.1598 0.0271 0.2963
v  0.1483 0.0157 0.2963
v  0.1442 0.0000 0.2963
v  0.1483 -0.0157 0.2963
v  0.1598 -0.0271 0.2963
v  0.1755 -0.0313 0.2963
v  0.1911 -0.0271 0.2963
v  0.2026 -0.0157 0.2963
v  0.2068 0.0000 0.3133
v  0.2026 0.0157 0.3133
v  0.1961 0.0119 0.3216
v  0.1993 0.0000 0.3216
v  0.1911 0.0271 0.3133
v  0.1874 0.0207 0.3216
v  0.1755 0.0313 0.3133
v  0.1755 0.0239 0.3216
v  0.1598 0.0271 0.3133
v  0.1635 0.0207 0.3216
v  0.1483 0.0157 0.3133
v  0.1548 0.0119 0.3216
v  0.1442 0.0000 0.3133
v  0.1516 0.0000 0.3216
v  0.1483 -0.0157 0.3133
v  0.1548 -0.0119 0.3216
v  0.1598 -0.0271 0.3133
v  0.1635 -0.0207 0.3216
v  0.1755 -0.0313 0.3133
v  0.1755 -0.0239 0.3216
v  0.1911 -0.0271 0.3133
v  0.1874 -0.0207 0.3216
v  0.2026 -0.0157 0.3133
v  0.1961 -0.0119 0.3216
v  0.1755 0.0000 0.3216
v  0.1083 0.0000 -0.0229
v  0.1083 0.0115 -0.0198
v  0.1083 0.0198 -0.0115
v  0.1083 0.0229 -0.0000
v  0.1083 0.0198 0.0114
v  0.1083 0.0115 0.0198
v  0.1083 0.0000 0.0229
v  0.1083 -0.0115 0.0198
v  0.1083 -0.0198 0.0114
v  0.1083 -0.0229 -0.0000
v  0.1083 -0.0198 -0.0115
v  0.1083 -0.0115 -0.0198
v  0.1078 0.0108 -0.0187
v  0.1078 0.0000 -0.0216
v  0.1071 0.0000 -0.0216
v  0.1071 0.0108 -0.0187
v  0.1078 0.0187 -0.0108
v  0.1071 0.0187 -0.0108
v  0.1078 0.0216 -0.0000
v  0.1071 0.0216 -0.0000
v  0.1078 0.0187 0.0108
v  0.1071 0.0187 0.0108
v  0.1078 0.0108 0.0187
v  0.1071 0.0108 0.0187
v  0.1078 0.0000 0.0216
v  0.1071 0.0000 0.0216
v  0.1078 -0.0108 0.0187
v  0.1071 -0.0108 0.0187
v  0.1078 -0.0187 0.0108
v  0.1071 -0.0187 0.0108
v  0.1078 -0.0216 -0.0000
v  0.1071 -0.0216 -0.0000
v  0.1078 -0.0187 -0.0108
v  0.1071 -0.0187 -0.0108
v  0.1078 -0.0108 -0.0187
v  0.1071 -0.0108 -0.0187
v  0.0976 0.0142 -0.0247
v  0.0976 0.0000 -0.0285
v  0.0935 0.0000 -0.0285
v  0.0935 0.0142 -0.0247
v  0.0976 0.0247 -0.0142
v  0.0935 0.0247 -0.0142
v  0.0976 0.0285 -0.0000
v  0.0935 0.0285 -0.0000
v  0.0976 0.0247 0.0142
v  0.0935 0.0247 0.0142
v  0.0976 0.0142 0.0247
v  0.0935 0.0142 0.0247
v  0.0976 0.0000 0.0285
v  0.0935 0.0000 0.0285
v  0.0976 -0.0142 0.0247
v  0.0935 -0.0142 0.0247
v  0.0976 -0.0247 0.0142
v  0.0935 -0.0247 0.0142
v  0.0976 -0.0285 -0.0000
v  0.0935 -0.0285 -0.0000
v  0.0976 -0.0247 -0.0142
v  0.0935 -0.0247 -0.0142
v  0.0976 -0.0142 -0.0247
v  0.0935 -0.0142 -0.0247
v  0.0979 0.0140 -0.0242
v  0.0979 0.0000 -0.0279
v  0.0979 0.0242 -0.0140
v  0.0979 0.0279 -0.0000
v  0.0979 0.0242 0.0140
v  0.0979 0.0140 0.0242
v  0.0979 0.0000 0.0279
v  0.0979 -0.0140 0.0242
v  0.0979 -0.0242 0.0140
v  0.0979 -0.0279 -0.0000
v  0.0979 -0.0242 -0.0140
v  0.0979 -0.0140 -0.0242
v  0.0978 0.0000 -0.0230
v  0.0978 0.0115 -0.0199
v  0.0959 0.0110 -0.0191
v  0.0959 0.0000 -0.0220
v  0.0978 0.0199 -0.0115
v  0.0959 0.0191 -0.0110
v  0.0978 0.0230 -0.0000
v  0.0959 0.0220 -0.0000
v  0.0978 0.0199 0.0115
v  0.0959 0.0191 0.0110
v  0.0978 0.0115 0.0199
v  0.0959 0.0110 0.0191
v  0.0978 0.0000 0.0230
v  0.0959 0.0000 0.0220
v  0.0978 -0.0115 0.0199
v  0.0959 -0.0110 0.0191
v  0.0978 -0.0199 0.0115
v  0.0959 -0.0191 0.0110
v  0.0978 -0.0230 -0.0000
v  0.0959 -0.0220 -0.0000
v  0.0978 -0.0199 -0.0115
v  0.0959 -0.0191 -0.0110
v  0.0978 -0.0115 -0.0199
v  0.0959 -0.0110 -0.0191
v  0.0226 0.0110 -0.0191
v  0.0226 0.0000 -0.0220
v  0.0226 0.0191 -0.0110
v  0.0226 0.0220 -0.0000
v  0.0226 0.0191 0.0110
v  0.0226 0.0110 0.0190
v  0.0226 0.0000 0.0220
v  0.0226 -0.0110 0.0191
v  0.0226 -0.0191 0.0110
v  0.0226 -0.0220 -0.0000
v  0.0226 -0.0191 -0.0110
v  0.0226 -0.0110 -0.0191
v  0.0979 0.0119 -0.0206
v  0.0979 0.0000 -0.0238
v  0.0979 0.0206 -0.0119
v  0.0979 0.0238 -0.0000
v  0.0979 0.0206 0.0119
v  0.0979 0.0119 0.0206
v  0.0979 0.0000 0.0238
v  0.0979 -0.0119 0.0206
v  0.0979 -0.0206 0.0119
v  0.0979 -0.0238 -0.0000
v  0.0979 -0.0206 -0.0119
v  0.0979 -0.0119 -0.0206
v  0.0226 0.0000 -0.0285
v  0.0226 0.0142 -0.0247
v  0.0226 0.0247 -0.0142
v  0.0226 0.0285 -0.0000
v  0.0226 0.0247 0.0142
v  0.0226 0.0142 0.0247
v  0.0226 0.0000 0.0285
v  0.0226 -0.0142 0.0247
v  0.0226 -0.0247 0.0142
v  0.0226 -0.0285 -0.0000
v  0.0226 -0.0247 -0.0142
v  0.0226 -0.0142 -0.0247
v  0.0474 0.0000 -0.0216
v  0.0474 0.0108 -0.0187
v  0.0474 0.0187 -0.0108
v  0.0474 0.0216 -0.0000
v  0.0474 0.0187 0.0108
v  0.0474 0.0108 0.0187
v  0.0474 0.0000 0.0216
v  0.0474 -0.0108 0.0187
v  0.0474 -0.0187 0.0108
v  0.0474 -0.0216 -0.0000
v  0.0474 -0.0187 -0.0108
v  0.0474 -0.0108 -0.0187
v  0.0833 0.0243 -0.0421
v  0.0833 0.0000 -0.0486
v  0.0811 0.0000 -0.0514
v  0.0811 0.0257 -0.0445
v  0.0833 0.0421 -0.0243
v  0.0811 0.0445 -0.0257
v  0.0833 0.0486 -0.0000
v  0.0811 0.0514 -0.0000
v  0.0833 0.0421 0.0243
v  0.0811 0.0445 0.0257
v  0.0833 0.0243 0.0421
v  0.0811 0.0257 0.0445
v  0.0833 0.0000 0.0486
v  0.0811 0.0000 0.0514
v  0.0833 -0.0243 0.0421
v  0.0811 -0.0257 0.0445
v  0.0833 -0.0421 0.0243
v  0.0811 -0.0445 0.0257
v  0.0833 -0.0486 -0.0000
v  0.0811 -0.0514 -0.0000
v  0.0833 -0.0421 -0.0243
v  0.0811 -0.0445 -0.0257
v  0.0833 -0.0243 -0.0421
v  0.0811 -0.0257 -0.0445
v  0.0865 0.0156 -0.0269
v  0.0865 0.0000 -0.0311
v  0.0865 0.0269 -0.0156
v  0.0865 0.0311 -0.0000
v  0.0865 0.0269 0.0155
v  0.0865 0.0156 0.0269
v  0.0865 0.0000 0.0311
v  0.0865 -0.0156 0.0269
v  0.0865 -0.0269 0.0156
v  0.0865 -0.0311 -0.0000
v  0.0865 -0.0269 -0.0156
v  0.0865 -0.0156 -0.0269
v  0.0865 0.0146 -0.0252
v  0.0865 0.0000 -0.0291
v  0.0865 0.0252 -0.0146
v  0.0865 0.0291 -0.0000
v  0.0865 0.0252 0.0146
v  0.0865 0.0146 0.0252
v  0.0865 0.0000 0.0291
v  0.0865 -0.0146 0.0252
v  0.0865 -0.0252 0.0146
v  0.0865 -0.0291 -0.0000
v  0.0865 -0.0252 -0.0146
v  0.0865 -0.0146 -0.0252
v  0.0839 0.0146 -0.0252
v  0.0839 0.0000 -0.0291
v  0.0839 0.0252 -0.0146
v  0.0839 0.0291 -0.0000
v  0.0839 0.0252 0.0146
v  0.0839 0.0146 0.0252
v  0.0839 0.0000 0.0291
v  0.0839 -0.0146 0.0252
v  0.0839 -0.0252 0.0146
v  0.0839 -0.0291 -0.0000
v  0.0839 -0.0252 -0.0146
v  0.0839 -0.0146 -0.0252
v  0.0226 0.0146 -0.0252
v  0.0226 0.0000 -0.0291
v  0.0226 0.0252 -0.0146
v  0.0226 0.0291 -0.0000
v  0.0226 0.0252 0.0146
v  0.0226 0.0146 0.0252
v  0.0226 0.0000 0.0291
v  0.0226 -0.0146 0.0252
v  0.0226 -0.0252 0.0146
v  0.0226 -0.0291 -0.0000
v  0.0226 -0.0252 -0.0146
v  0.0226 -0.0146 -0.0252
v  0.0226 0.0000 -0.0000
# 664 vertices

vn 0.4392 0.0000 -0.8984
vn -0.0928 -0.0000 -0.9957
vn -0.0775 0.4925 -0.8669
vn 0.4391 0.4493 -0.7780
vn -0.0451 0.8591 -0.5098
vn 0.4389 0.7782 -0.4492
vn -0.0038 0.9999 -0.0166
vn 0.4389 0.8985 -0.0000
vn 0.0425 0.8718 0.4881
vn 0.4389 0.7782 0.4492
vn 0.0832 0.5057 0.8587
vn 0.4388 0.4493 0.7782
vn 0.1378 0.0003 0.9905
vn 0.4392 -0.0000 0.8984
vn 0.0916 -0.5057 0.8579
vn 0.4388 -0.4493 0.7782
vn 0.0494 -0.8724 0.4863
vn 0.4389 -0.7782 0.4492
vn -0.0049 -0.9998 -0.0184
vn 0.4389 -0.8985 -0.0000
vn -0.0498 -0.8584 -0.5106
vn 0.4389 -0.7782 -0.4492
vn -0.0810 -0.4922 -0.8667
vn 0.4390 -0.4493 -0.7781
vn -0.9948 -0.0005 -0.1023
vn -1.0000 -0.0000 -0.0094
vn -0.8661 0.4997 -0.0082
vn -0.8664 0.4920 -0.0856
vn -0.5004 0.8658 -0.0047
vn -0.5133 0.8555 -0.0686
vn -0.0006 1.0000 -0.0000
vn -0.0161 0.9999 0.0010
vn 0.4996 0.8663 0.0047
vn 0.4894 0.8705 0.0510
vn 0.8658 0.5002 0.0082
vn 0.8610 0.5026 0.0780
vn 1.0000 -0.0000 0.0094
vn 0.9946 -0.0022 0.1036
vn 0.8658 -0.5002 0.0082
vn 0.8611 -0.5050 0.0588
vn 0.4996 -0.8663 0.0047
vn 0.4907 -0.8707 0.0321
vn -0.0006 -1.0000 -0.0000
vn -0.0141 -0.9999 -0.0087
vn -0.5004 -0.8658 -0.0047
vn -0.5118 -0.8561 -0.0713
vn -0.8661 -0.4997 -0.0082
vn -0.8659 -0.4930 -0.0851
vn 0.7350 -0.5611 0.3807
vn 0.8660 0.0080 0.5000
vn 0.3569 0.5528 0.7530
vn 0.4623 -0.0051 0.8867
vn 0.3931 -0.8967 0.2034
vn 0.2010 -0.8929 0.4030
vn -0.0201 -0.9995 -0.0256
vn -0.4227 -0.8807 -0.2135
vn -0.0631 -0.9977 -0.0257
vn -0.0043 0.9995 -0.0319
vn 0.2000 0.8912 0.4072
vn -0.0583 0.9978 -0.0314
vn -0.4144 0.8819 -0.2247
vn -0.7406 0.5257 -0.4185
vn -0.4492 -0.0032 -0.8934
vn -0.3878 0.4852 -0.7837
vn -0.8690 0.0027 -0.4948
vn -0.7504 -0.5211 -0.4065
vn -0.2570 -0.8572 -0.4463
vn -0.4014 -0.4903 -0.7736
vn 0.3700 -0.5573 0.7433
vn 0.7178 0.5679 0.4028
vn 0.3849 0.8972 0.2165
vn -0.2364 0.8556 -0.4606
vn -1.0000 0.0000 -0.0030
vn -0.8661 0.4998 -0.0026
vn -0.5004 0.8658 -0.0015
vn -0.0005 1.0000 -0.0000
vn 0.4996 0.8662 0.0015
vn 0.8659 0.5002 0.0025
vn 1.0000 0.0001 0.0030
vn 0.8659 -0.5002 0.0026
vn 0.4996 -0.8663 0.0015
vn -0.0005 -1.0000 -0.0000
vn -0.5004 -0.8658 -0.0015
vn -0.8661 -0.4998 -0.0026
vn -0.9404 0.0000 0.3401
vn -0.4600 0.0000 0.8879
vn -0.3984 0.2300 0.8879
vn -0.8144 0.4702 0.3401
vn -0.2300 0.3984 0.8879
vn -0.4702 0.8144 0.3401
vn -0.0000 0.4600 0.8879
vn -0.0000 0.9404 0.3401
vn 0.2301 0.3984 0.8879
vn 0.4702 0.8144 0.3400
vn 0.3984 0.2300 0.8879
vn 0.8144 0.4702 0.3400
vn 0.4601 0.0000 0.8879
vn 0.9404 0.0000 0.3400
vn 0.3984 -0.2300 0.8879
vn 0.8144 -0.4702 0.3401
vn 0.2301 -0.3985 0.8879
vn 0.4702 -0.8145 0.3400
vn 0.0001 -0.4600 0.8879
vn -0.0000 -0.9404 0.3401
vn -0.2300 -0.3984 0.8879
vn -0.4702 -0.8144 0.3400
vn -0.3984 -0.2300 0.8879
vn -0.8144 -0.4702 0.3401
vn 0.0000 0.0000 1.0000
vn 0.8779 0.2395 -0.4146
vn 0.8780 0.0000 -0.4787
vn 0.8778 0.4148 -0.2395
vn 0.8779 0.4789 -0.0000
vn 0.8781 0.4143 0.2392
vn 0.8781 0.2393 0.4144
vn 0.8780 0.0000 0.4787
vn 0.8778 -0.2395 0.4149
vn 0.8779 -0.4147 0.2395
vn 0.8779 -0.4789 -0.0000
vn 0.8779 -0.4147 -0.2394
vn 0.8780 -0.2393 -0.4146
vn 0.6131 0.3950 -0.6841
vn -0.0000 0.5000 -0.8660
vn -0.0000 0.0000 -1.0000
vn 0.6133 0.0000 -0.7898
vn 0.6130 0.6842 -0.3951
vn -0.0000 0.8660 -0.5000
vn 0.6131 0.7900 0.0002
vn 0.0000 1.0000 0.0000
vn 0.6137 0.6837 0.3948
vn -0.0000 0.8660 0.5000
vn 0.6136 0.3948 0.6838
vn 0.0000 0.5000 0.8660
vn 0.6129 0.0001 0.7901
vn -0.0000 0.0000 1.0000
vn 0.6130 -0.3950 0.6843
vn 0.0000 -0.5000 0.8660
vn 0.6131 -0.6842 0.3949
vn -0.0001 -0.8660 0.5000
vn 0.6131 -0.7900 0.0001
vn -0.0000 -1.0000 -0.0000
vn 0.6132 -0.6841 -0.3949
vn -0.0000 -0.8660 -0.5000
vn 0.6133 -0.3950 -0.6839
vn -0.0000 -0.5001 -0.8660
vn -0.4399 0.4491 -0.7777
vn -0.0001 0.0000 -1.0000
vn -0.4405 0.0001 -0.8977
vn -0.4389 0.7782 -0.4492
vn -0.4390 0.8985 0.0000
vn -0.4386 0.7784 0.4492
vn -0.0001 0.8660 0.5000
vn -0.4389 0.4493 0.7781
vn -0.4380 0.0000 0.8990
vn 0.0000 0.0001 1.0000
vn -0.4394 -0.4491 0.7779
vn -0.4385 -0.7784 0.4491
vn -0.4390 -0.8985 -0.0001
vn -0.4391 -0.7780 -0.4492
vn -0.4395 -0.4491 -0.7779
vn -0.0000 -0.5000 -0.8660
vn -0.9422 0.0001 -0.3350
vn -0.9419 0.1678 -0.2908
vn -0.9414 0.2920 -0.1687
vn -0.9415 0.3370 0.0000
vn -0.9413 0.2923 0.1691
vn -0.9415 0.1686 0.2919
vn -0.9410 0.0000 0.3383
vn -0.9417 -0.1683 0.2912
vn -0.9412 -0.2924 0.1691
vn -0.9415 -0.3370 0.0002
vn -0.9416 -0.2917 -0.1683
vn -0.9418 -0.1681 -0.2911
vn -0.8484 0.0001 0.5293
vn -0.2405 0.0000 0.9707
vn -0.2412 -0.4852 0.8404
vn -0.8480 -0.2649 0.4591
vn -0.2413 -0.8404 0.4853
vn -0.8473 -0.4599 0.2656
vn -0.2411 -0.9705 -0.0000
vn -0.8473 -0.5311 -0.0001
vn -0.2412 -0.8405 -0.4852
vn -0.8473 -0.4599 -0.2656
vn -0.2408 -0.4852 -0.8406
vn -0.8479 -0.2651 -0.4591
vn -0.2416 0.0001 -0.9704
vn -0.8476 0.0000 -0.5307
vn -0.2410 0.4852 -0.8405
vn -0.8480 0.2651 -0.4590
vn -0.2407 0.8405 -0.4854
vn -0.8479 0.4591 -0.2650
vn -0.2409 0.9705 -0.0000
vn -0.8479 0.5301 -0.0000
vn -0.2411 0.8405 0.4852
vn -0.8480 0.4590 0.2651
vn -0.2411 0.4853 0.8405
vn -0.8486 0.2644 0.4582
vn -0.6532 0.0000 0.7572
vn -0.6532 -0.3786 0.6557
vn -0.6532 -0.6557 0.3786
vn -0.6532 -0.7572 -0.0000
vn -0.6533 -0.6557 -0.3786
vn -0.6532 -0.3786 -0.6557
vn -0.6532 -0.0001 -0.7572
vn -0.6532 0.3786 -0.6558
vn -0.6533 0.6557 -0.3785
vn -0.6532 0.7572 -0.0000
vn -0.6532 0.6557 0.3786
vn -0.6532 0.3786 0.6557
vn -0.9981 -0.0307 0.0530
vn -0.9982 0.0000 0.0602
vn -0.9981 -0.0539 0.0310
vn -0.9981 -0.0621 0.0000
vn -0.9981 -0.0538 -0.0311
vn -0.9981 -0.0306 -0.0529
vn -0.9981 0.0000 -0.0621
vn -0.9981 0.0306 -0.0530
vn -0.9981 0.0528 -0.0305
vn -0.9981 0.0612 0.0000
vn -0.9981 0.0531 0.0305
vn -0.9982 0.0304 0.0524
vn 0.0000 0.0000 -1.0000
vn -0.0000 1.0000 -0.0001
vn 0.0000 0.8661 0.5000
vn 0.0000 -0.8661 0.5000
vn -0.0000 -1.0000 -0.0001
vn 0.0000 -0.5000 -0.8660
vn -0.0000 1.0000 -0.0000
vn 0.0000 0.5001 0.8660
vn -0.0000 -0.8660 0.5000
vn 0.0000 -1.0000 0.0000
vn -0.8957 0.2223 -0.3851
vn -0.4099 0.4560 -0.7899
vn -0.4098 -0.0000 -0.9122
vn -0.8956 0.0000 -0.4449
vn -0.8957 0.3851 -0.2223
vn -0.4099 0.7899 -0.4561
vn -0.8957 0.4447 -0.0000
vn -0.4099 0.9121 0.0000
vn -0.8957 0.3851 0.2225
vn -0.4099 0.7899 0.4561
vn -0.8957 0.2222 0.3852
vn -0.4100 0.4561 0.7899
vn -0.8958 0.0000 0.4445
vn -0.4101 0.0000 0.9121
vn -0.8957 -0.2222 0.3851
vn -0.4100 -0.4560 0.7899
vn -0.8958 -0.3849 0.2223
vn -0.4101 -0.7898 0.4560
vn -0.8957 -0.4446 0.0000
vn -0.4099 -0.9121 0.0000
vn -0.8958 -0.3850 -0.2223
vn -0.4101 -0.7899 -0.4560
vn -0.8956 -0.2224 -0.3853
vn -0.4098 -0.4561 -0.7900
vn -0.0000 1.0000 0.0000
vn 0.0000 -0.8660 0.5000
vn -0.9944 -0.0000 -0.1056
vn -0.9944 0.0528 -0.0915
vn -0.9944 0.0914 -0.0528
vn -0.9944 0.1056 0.0000
vn -0.9944 0.0914 0.0528
vn -0.9944 0.0528 0.0916
vn -0.9943 0.0000 0.1065
vn -0.9944 -0.0528 0.0917
vn -0.9944 -0.0915 0.0528
vn -0.9944 -0.1056 0.0000
vn -0.9944 -0.0914 -0.0528
vn -0.9944 -0.0528 -0.0914
vn -0.7702 0.0000 0.6377
vn -0.7703 -0.3188 0.5523
vn -0.7703 -0.5523 0.3189
vn -0.7703 -0.6377 -0.0000
vn -0.7703 -0.5523 -0.3188
vn -0.7703 -0.3189 -0.5522
vn -0.7710 0.0000 -0.6368
vn -0.7703 0.3189 -0.5523
vn -0.7703 0.5523 -0.3189
vn -0.7703 0.6377 -0.0000
vn -0.7703 0.5523 0.3189
vn -0.7703 0.3188 0.5523
vn 0.0000 -0.4999 0.8661
vn 0.0000 -1.0000 -0.0000
vn 0.0000 0.8660 0.5000
vn -1.0000 0.0000 -0.0000
vn -0.4392 0.0000 -0.8984
vn -0.4391 0.4493 -0.7780
vn 0.0775 0.4925 -0.8669
vn 0.0928 -0.0000 -0.9957
vn -0.4390 0.7781 -0.4492
vn 0.0451 0.8591 -0.5098
vn -0.4389 0.8985 -0.0000
vn 0.0038 0.9999 -0.0166
vn -0.4389 0.7782 0.4492
vn -0.0425 0.8718 0.4880
vn -0.4389 0.4493 0.7782
vn -0.0832 0.5057 0.8587
vn -0.4390 -0.0000 0.8985
vn -0.1378 0.0003 0.9905
vn -0.4388 -0.4493 0.7782
vn -0.0916 -0.5057 0.8579
vn -0.4389 -0.7782 0.4492
vn -0.0494 -0.8724 0.4863
vn -0.4389 -0.8985 -0.0000
vn 0.0049 -0.9998 -0.0184
vn -0.4389 -0.7782 -0.4492
vn 0.0498 -0.8584 -0.5106
vn -0.4390 -0.4493 -0.7781
vn 0.0810 -0.4922 -0.8667
vn 0.9947 -0.0005 -0.1024
vn 0.8664 0.4920 -0.0856
vn 0.8661 0.4997 -0.0082
vn 1.0000 -0.0000 -0.0094
vn 0.5133 0.8555 -0.0687
vn 0.5004 0.8658 -0.0047
vn 0.0161 0.9999 0.0010
vn 0.0006 1.0000 -0.0000
vn -0.4894 0.8705 0.0510
vn -0.4996 0.8663 0.0047
vn -0.8610 0.5026 0.0780
vn -0.8658 0.5002 0.0082
vn -0.9946 -0.0022 0.1036
vn -1.0000 0.0000 0.0094
vn -0.8611 -0.5050 0.0588
vn -0.8658 -0.5002 0.0082
vn -0.4907 -0.8707 0.0321
vn -0.4996 -0.8663 0.0047
vn 0.0141 -0.9999 -0.0087
vn 0.0006 -1.0000 -0.0000
vn 0.5118 -0.8561 -0.0714
vn 0.5004 -0.8658 -0.0047
vn 0.8659 -0.4930 -0.0851
vn 0.8661 -0.4997 -0.0082
vn -0.8660 0.0080 0.5000
vn -0.7349 -0.5612 0.3808
vn -0.4623 -0.0051 0.8867
vn -0.3568 0.5527 0.7531
vn -0.3931 -0.8967 0.2035
vn 0.0201 -0.9995 -0.0256
vn -0.2009 -0.8929 0.4030
vn 0.0631 -0.9977 -0.0257
vn 0.4227 -0.8807 -0.2136
vn -0.2000 0.8912 0.4072
vn 0.0043 0.9995 -0.0319
vn 0.4144 0.8819 -0.2247
vn 0.0583 0.9978 -0.0314
vn 0.7405 0.5257 -0.4186
vn 0.3878 0.4852 -0.7837
vn 0.4492 -0.0032 -0.8934
vn 0.7504 -0.5211 -0.4066
vn 0.8690 0.0027 -0.4948
vn 0.4014 -0.4903 -0.7736
vn 0.2569 -0.8572 -0.4463
vn -0.3699 -0.5573 0.7434
vn -0.7178 0.5678 0.4029
vn -0.3849 0.8972 0.2165
vn 0.2364 0.8556 -0.4606
vn 0.8661 0.4998 -0.0026
vn 1.0000 0.0000 -0.0030
vn 0.5004 0.8658 -0.0015
vn 0.0005 1.0000 -0.0000
vn -0.4996 0.8662 0.0015
vn -0.8659 0.5002 0.0025
vn -1.0000 0.0000 0.0030
vn -0.8659 -0.5002 0.0026
vn -0.4996 -0.8663 0.0015
vn 0.0005 -1.0000 -0.0000
vn 0.5004 -0.8658 -0.0015
vn 0.8661 -0.4998 -0.0026
vn 0.9404 0.0000 0.3401
vn 0.8144 0.4702 0.3401
vn 0.4600 0.0000 0.8879
vn 0.4702 0.8144 0.3401
vn 0.2300 0.3984 0.8879
vn 0.0000 0.9404 0.3401
vn 0.0000 0.4600 0.8879
vn -0.4702 0.8144 0.3400
vn -0.2301 0.3984 0.8879
vn -0.8144 0.4702 0.3400
vn -0.3983 0.2300 0.8879
vn -0.9404 0.0000 0.3400
vn -0.4601 0.0000 0.8879
vn -0.3983 -0.2300 0.8879
vn -0.4702 -0.8145 0.3400
vn -0.2301 -0.3985 0.8879
vn 0.0000 -0.9404 0.3401
vn -0.0000 -0.4600 0.8879
vn 0.4702 -0.8144 0.3400
vn 0.2300 -0.3984 0.8879
vn 0.0000 -0.0000 1.0000
vn -0.8780 0.0000 -0.4787
vn -0.8779 0.2395 -0.4146
vn -0.8778 0.4148 -0.2395
vn -0.8779 0.4789 -0.0000
vn -0.8781 0.4143 0.2392
vn -0.8781 0.2393 0.4144
vn -0.8779 0.0000 0.4789
vn -0.8778 -0.2395 0.4149
vn -0.8779 -0.4147 0.2395
vn -0.8779 -0.4789 -0.0000
vn -0.8779 -0.4147 -0.2394
vn -0.8780 -0.2393 -0.4146
vn -0.6131 0.3950 -0.6841
vn -0.6133 0.0000 -0.7898
vn -0.6130 0.6842 -0.3951
vn -0.6131 0.7900 0.0002
vn -0.6137 0.6837 0.3948
vn -0.6136 0.3948 0.6838
vn -0.0000 0.5000 0.8660
vn -0.6129 0.0001 0.7901
vn -0.6130 -0.3950 0.6843
vn -0.0000 -0.5000 0.8660
vn -0.6131 -0.6842 0.3949
vn 0.0001 -0.8660 0.5000
vn -0.6131 -0.7900 0.0001
vn -0.6132 -0.6841 -0.3949
vn 0.0000 -0.8660 -0.5000
vn -0.6133 -0.3950 -0.6839
vn 0.0000 -0.5001 -0.8660
vn 0.4399 0.4490 -0.7777
vn 0.4405 0.0001 -0.8978
vn 0.4390 0.8985 0.0000
vn 0.4386 0.7784 0.4492
vn 0.0001 0.8660 0.5000
vn 0.4389 0.4493 0.7781
vn 0.4380 0.0001 0.8990
vn 0.4395 -0.4491 0.7779
vn 0.4385 -0.7784 0.4491
vn 0.4390 -0.8985 -0.0001
vn 0.0000 -1.0000 -0.0001
vn 0.4391 -0.7780 -0.4492
vn 0.4395 -0.4491 -0.7779
vn 0.9419 0.1678 -0.2908
vn 0.9422 0.0001 -0.3350
vn 0.9414 0.2920 -0.1687
vn 0.9415 0.3370 0.0000
vn 0.9413 0.2923 0.1691
vn 0.9415 0.1686 0.2919
vn 0.9410 0.0000 0.3383
vn 0.9417 -0.1683 0.2912
vn 0.9412 -0.2924 0.1691
vn 0.9415 -0.3370 0.0002
vn 0.9416 -0.2917 -0.1683
vn 0.9418 -0.1681 -0.2911
vn 0.8484 0.0001 0.5293
vn 0.8480 -0.2649 0.4591
vn 0.2412 -0.4852 0.8404
vn 0.2405 0.0000 0.9707
vn 0.8473 -0.4599 0.2656
vn 0.2413 -0.8404 0.4853
vn 0.8473 -0.5311 -0.0001
vn 0.2411 -0.9705 -0.0000
vn 0.8473 -0.4599 -0.2656
vn 0.2412 -0.8405 -0.4852
vn 0.8479 -0.2651 -0.4591
vn 0.2408 -0.4852 -0.8406
vn 0.8476 0.0000 -0.5307
vn 0.2416 0.0001 -0.9704
vn 0.8480 0.2652 -0.4590
vn 0.2410 0.4852 -0.8405
vn 0.8479 0.4591 -0.2650
vn 0.2407 0.8405 -0.4854
vn 0.8479 0.5301 -0.0000
vn 0.2409 0.9705 -0.0000
vn 0.8480 0.4590 0.2651
vn 0.2411 0.8405 0.4852
vn 0.8486 0.2644 0.4582
vn 0.2411 0.4853 0.8405
vn 0.6533 -0.3786 0.6557
vn 0.6532 0.0000 0.7572
vn 0.6532 -0.6557 0.3786
vn 0.6532 -0.7572 -0.0000
vn 0.6532 -0.6557 -0.3786
vn 0.6533 -0.3786 -0.6557
vn 0.6532 -0.0001 -0.7572
vn 0.6533 0.3785 -0.6557
vn 0.6532 0.6557 -0.3786
vn 0.6532 0.7572 -0.0000
vn 0.6532 0.6557 0.3786
vn 0.6532 0.3786 0.6557
vn 0.9981 -0.0307 0.0530
vn 0.9982 0.0000 0.0602
vn 0.9981 -0.0539 0.0310
vn 0.9981 -0.0621 0.0000
vn 0.9981 -0.0538 -0.0311
vn 0.9981 -0.0306 -0.0529
vn 0.9981 0.0000 -0.0621
vn 0.9981 0.0306 -0.0530
vn 0.9981 0.0528 -0.0305
vn 0.9981 0.0612 0.0000
vn 0.9981 0.0531 0.0305
vn 0.9982 0.0304 0.0524
vn 0.0000 1.0000 -0.0000
vn 0.0000 0.5000 0.8661
vn -0.0000 -0.0000 1.0000
vn 0.0000 -0.8660 0.5001
vn -0.0000 0.0001 -1.0000
vn -0.0000 0.5001 0.8660
vn 0.8957 0.2223 -0.3851
vn 0.8956 0.0000 -0.4449
vn 0.4098 0.0000 -0.9122
vn 0.4099 0.4561 -0.7899
vn 0.8957 0.3851 -0.2223
vn 0.4099 0.7899 -0.4561
vn 0.8957 0.4447 -0.0000
vn 0.4099 0.9121 0.0000
vn 0.8957 0.3851 0.2224
vn 0.4099 0.7899 0.4561
vn 0.8957 0.2223 0.3851
vn 0.4100 0.4561 0.7899
vn 0.8958 0.0000 0.4445
vn 0.4101 0.0000 0.9120
vn 0.8958 -0.2222 0.3850
vn 0.4101 -0.4560 0.7899
vn 0.8958 -0.3849 0.2223
vn 0.4101 -0.7898 0.4561
vn 0.8957 -0.4446 0.0000
vn 0.4099 -0.9121 0.0000
vn 0.8958 -0.3850 -0.2223
vn 0.4101 -0.7899 -0.4560
vn 0.8956 -0.2224 -0.3853
vn 0.4097 -0.4561 -0.7900
vn 0.9944 0.0528 -0.0915
vn 0.9944 -0.0000 -0.1056
vn 0.9944 0.0914 -0.0528
vn 0.9944 0.1056 0.0000
vn 0.9944 0.0914 0.0528
vn 0.9944 0.0528 0.0915
vn 0.9944 0.0000 0.1057
vn 0.9944 -0.0528 0.0915
vn 0.9944 -0.0915 0.0528
vn 0.9944 -0.1056 0.0000
vn 0.9944 -0.0914 -0.0528
vn 0.9944 -0.0528 -0.0914
vn 0.7703 -0.3188 0.5523
vn 0.7702 0.0000 0.6377
vn 0.7703 -0.5523 0.3189
vn 0.7703 -0.6377 -0.0000
vn 0.7702 -0.5523 -0.3188
vn 0.7703 -0.3189 -0.5522
vn 0.7703 0.0000 -0.6377
vn 0.7703 0.3189 -0.5523
vn 0.7703 0.5523 -0.3189
vn 0.7703 0.6377 -0.0000
vn 0.7703 0.5523 0.3189
vn 0.7703 0.3188 0.5523
vn 1.0000 0.0000 -0.0000
# 547 vertex normals

vt 0.7500 0.0000 1.0000
vt 0.7500 1.0000 1.0000
vt 0.8333 1.0000 1.0000
vt 0.8333 0.0000 1.0000
vt 0.9167 1.0000 1.0000
vt 0.9167 0.0000 1.0000
vt -0.0833 0.0000 1.0000
vt -0.0833 1.0000 1.0000
vt 0.0000 1.0000 1.0000
vt 0.0000 0.0000 1.0000
vt 0.0833 1.0000 1.0000
vt 0.0833 0.0000 1.0000
vt 0.1667 1.0000 1.0000
vt 0.1667 0.0000 1.0000
vt 0.2500 1.0000 1.0000
vt 0.2500 0.0000 1.0000
vt 0.3333 1.0000 1.0000
vt 0.3333 0.0000 1.0000
vt 0.4167 1.0000 1.0000
vt 0.4167 0.0000 1.0000
vt 0.5000 1.0000 1.0000
vt 0.5000 0.0000 1.0000
vt 0.5833 1.0000 1.0000
vt 0.5833 0.0000 1.0000
vt 0.6667 1.0000 1.0000
vt 0.6667 0.0000 1.0000
vt 0.3333 0.3443 1.0000
vt 0.2500 0.2811 1.0000
vt 0.1667 0.6590 1.0000
vt 0.2500 0.7240 1.0000
vt 0.4167 0.4041 1.0000
vt 0.4167 0.5908 1.0000
vt 0.5000 0.5606 1.0000
vt 0.5833 0.4540 1.0000
vt 0.5000 0.4360 1.0000
vt 0.0000 0.5648 1.0000
vt 0.0833 0.5969 1.0000
vt 0.0000 0.4397 1.0000
vt 0.9167 0.4580 1.0000
vt 0.8333 0.4661 1.0000
vt 0.7500 0.5328 1.0000
vt 0.8333 0.5348 1.0000
vt 0.7500 0.4673 1.0000
vt 0.6667 0.4654 1.0000
vt 0.5833 0.5425 1.0000
vt 0.6667 0.5341 1.0000
vt 0.3333 0.6497 1.0000
vt 0.1667 0.3527 1.0000
vt 0.0833 0.4098 1.0000
vt 0.9167 0.5464 1.0000
vt 0.5417 0.0000 1.0000
vt 0.2083 0.0000 1.0000
vt 0.1250 0.0000 1.0000
vt 0.2917 0.0000 1.0000
# 54 texture coords

o OfficeHingedDoor_Handle00
g OfficeHingedDoor_Handle00
usemtl Material__65
s 1
f 1/1/1 2/2/2 3/3/3 4/4/4 
f 4/4/4 3/3/3 5/5/5 6/6/6 
f 6/7/6 5/8/5 7/9/7 8/10/8 
f 8/10/8 7/9/7 9/11/9 10/12/10 
f 10/12/10 9/11/9 11/13/11 12/14/12 
f 12/14/12 11/13/11 13/15/13 14/16/14 
f 14/16/14 13/15/13 15/17/15 16/18/16 
f 16/18/16 15/17/15 17/19/17 18/20/18 
f 18/20/18 17/19/17 19/21/19 20/22/20 
f 20/22/20 19/21/19 21/23/21 22/24/22 
f 22/24/22 21/23/21 23/25/23 24/26/24 
f 24/26/24 23/25/23 2/2/2 1/1/1 
f 25/1/25 26/2/26 27/3/27 28/4/28 
f 28/4/28 27/3/27 29/5/29 30/6/30 
f 30/7/30 29/8/29 31/9/31 32/10/32 
f 32/10/32 31/9/31 33/11/33 34/12/34 
f 34/12/34 33/11/33 35/13/35 36/14/36 
f 36/14/36 35/13/35 37/15/37 38/16/38 
f 38/16/38 37/15/37 39/17/39 40/18/40 
f 40/18/40 39/17/39 41/19/41 42/20/42 
f 42/20/42 41/19/41 43/21/43 44/22/44 
f 44/22/44 43/21/43 45/23/45 46/24/46 
f 46/24/46 45/23/45 47/25/47 48/26/48 
f 48/26/48 47/25/47 26/2/26 25/1/25 
f 40/18/40 49/27/49 50/28/50 38/16/38 
f 11/13/11 51/29/51 52/30/52 13/15/13 
f 42/20/42 53/31/53 49/27/49 40/18/40 
f 17/19/17 54/32/54 55/33/55 19/21/19 
f 46/24/46 56/34/56 57/35/57 44/22/44 
f 7/9/7 58/36/58 59/37/59 9/11/9 
f 9/11/9 59/37/59 51/29/51 11/13/11 
f 32/10/32 60/38/60 61/39/61 30/6/30 
f 30/6/30 61/39/61 62/40/62 28/4/28 
f 2/2/2 63/41/63 64/42/64 3/3/3 
f 25/1/25 65/43/65 66/44/66 48/26/48 
f 21/23/21 67/45/67 68/46/68 23/25/23 
f 52/30/52 69/47/69 15/17/15 13/15/13 
f 50/28/50 70/48/70 36/14/36 38/16/38 
f 69/47/69 54/32/54 17/19/17 15/17/15 
f 57/35/57 53/31/53 42/20/42 44/22/44 
f 55/33/55 67/45/67 21/23/21 19/21/19 
f 71/49/71 60/38/60 32/10/32 34/12/34 
f 70/48/70 71/49/71 34/12/34 36/14/36 
f 72/50/72 58/36/58 7/9/7 5/5/5 
f 64/42/64 72/50/72 5/5/5 3/3/3 
f 62/40/62 65/43/65 25/1/25 28/4/28 
f 68/46/68 63/41/63 2/2/2 23/25/23 
f 66/44/66 56/34/56 46/24/46 48/26/48 
f 26/2/26 73/2/73 74/3/74 27/3/27 
f 27/3/27 74/3/74 75/5/75 29/5/29 
f 29/8/29 75/8/75 76/9/76 31/9/31 
f 31/9/31 76/9/76 77/11/77 33/11/33 
f 33/11/33 77/11/77 78/13/78 35/13/35 
f 35/13/35 78/13/78 79/15/79 37/15/37 
f 37/15/37 79/15/79 80/17/80 39/17/39 
f 39/17/39 80/17/80 81/19/81 41/19/41 
f 41/19/41 81/19/81 82/21/82 43/21/43 
f 43/21/43 82/21/82 83/23/83 45/23/45 
f 45/23/45 83/23/83 84/25/84 47/25/47 
f 47/25/47 84/25/84 73/2/73 26/2/26 
f 85/2/85 86/2/86 87/3/87 88/3/88 
f 88/3/88 87/3/87 89/5/89 90/5/90 
f 90/8/90 89/8/89 91/9/91 92/9/92 
f 92/9/92 91/9/91 93/11/93 94/11/94 
f 94/11/94 93/11/93 95/13/95 96/13/96 
f 96/13/96 95/13/95 97/15/97 98/15/98 
f 98/15/98 97/15/97 99/17/99 100/17/100 
f 100/17/100 99/17/99 101/19/101 102/19/102 
f 102/19/102 101/19/101 103/21/103 104/21/104 
f 104/21/104 103/21/103 105/23/105 106/23/106 
f 106/23/106 105/23/105 107/25/107 108/25/108 
f 108/25/108 107/25/107 86/2/86 85/2/85 
f 86/2/86 109/19/109 87/3/87 
f 87/3/87 109/19/109 89/5/89 
f 89/8/89 109/19/109 91/9/91 
f 91/9/91 109/19/109 93/11/93 
f 93/11/93 109/19/109 95/13/95 
f 95/13/95 109/19/109 97/15/97 
f 97/15/97 109/19/109 99/17/99 
f 99/17/99 109/19/109 101/19/101 
f 101/19/101 109/19/109 103/21/103 
f 103/21/103 109/19/109 105/23/105 
f 105/23/105 109/19/109 107/25/107 
f 107/25/107 109/19/109 86/2/86 
f 4/4/4 110/4/110 111/1/111 1/1/1 
f 6/6/6 112/6/112 110/4/110 4/4/4 
f 8/10/8 113/10/113 112/7/112 6/7/6 
f 10/12/10 114/12/114 113/10/113 8/10/8 
f 12/14/12 115/14/115 114/12/114 10/12/10 
f 14/16/14 116/16/116 115/14/115 12/14/12 
f 16/18/16 117/18/117 116/16/116 14/16/14 
f 18/20/18 118/20/118 117/18/117 16/18/16 
f 20/22/20 119/22/119 118/20/118 18/20/18 
f 22/24/22 120/24/120 119/22/119 20/22/20 
f 24/26/24 121/26/121 120/24/120 22/24/22 
f 1/1/1 111/1/111 121/26/121 24/26/24 
f 122/4/122 123/4/123 124/1/124 125/1/125 
f 126/6/126 127/6/127 123/4/123 122/4/122 
f 128/10/128 129/10/129 127/7/127 126/7/126 
f 130/12/130 131/12/131 129/10/129 128/10/128 
f 132/14/132 133/14/133 131/12/131 130/12/130 
f 134/16/134 135/16/135 133/14/133 132/14/132 
f 136/18/136 137/18/137 135/16/135 134/16/134 
f 138/20/138 139/20/139 137/18/137 136/18/136 
f 140/22/140 141/22/141 139/20/139 138/20/138 
f 142/24/142 143/24/143 141/22/141 140/22/140 
f 144/26/144 145/26/145 143/24/143 142/24/142 
f 125/1/125 124/1/124 145/26/145 144/26/144 
f 49/27/49 69/47/69 52/30/52 50/28/50 
f 51/29/51 70/48/70 50/28/50 52/30/52 
f 53/31/53 54/32/54 69/47/69 49/27/49 
f 54/32/54 53/31/53 57/35/57 55/33/55 
f 56/34/56 67/45/67 55/33/55 57/35/57 
f 58/36/58 60/38/60 71/49/71 59/37/59 
f 59/37/59 71/49/71 70/48/70 51/29/51 
f 60/38/60 58/36/58 72/50/72 61/39/61 
f 61/39/61 72/50/72 64/42/64 62/40/62 
f 63/41/63 65/43/65 62/40/62 64/42/64 
f 65/43/65 63/41/63 68/46/68 66/44/66 
f 67/45/67 56/34/56 66/44/66 68/46/68 
f 74/3/74 73/2/73 85/2/85 88/3/88 
f 75/5/75 74/3/74 88/3/88 90/5/90 
f 76/9/76 75/8/75 90/8/90 92/9/92 
f 77/11/77 76/9/76 92/9/92 94/11/94 
f 78/13/78 77/11/77 94/11/94 96/13/96 
f 79/15/79 78/13/78 96/13/96 98/15/98 
f 80/17/80 79/15/79 98/15/98 100/17/100 
f 81/19/81 80/17/80 100/17/100 102/19/102 
f 82/21/82 81/19/81 102/19/102 104/21/104 
f 83/23/83 82/21/82 104/21/104 106/23/106 
f 84/25/84 83/23/83 106/23/106 108/25/108 
f 73/2/73 84/25/84 108/25/108 85/2/85 
f 146/4/146 147/4/123 148/1/147 149/1/148 
f 150/6/149 151/6/127 147/4/123 146/4/146 
f 152/10/150 153/10/129 151/7/127 150/7/149 
f 154/12/151 155/12/152 153/10/129 152/10/150 
f 156/14/153 157/14/133 155/12/152 154/12/151 
f 158/16/154 159/16/155 157/14/133 156/14/153 
f 160/18/156 161/18/137 159/16/155 158/16/154 
f 162/20/157 163/20/139 161/18/137 160/18/156 
f 164/22/158 165/22/141 163/20/139 162/20/157 
f 166/24/159 167/24/143 165/22/141 164/22/158 
f 168/26/160 169/26/161 167/24/143 166/24/159 
f 149/1/148 148/1/147 169/26/161 168/26/160 
f 149/1/148 170/1/162 171/4/163 146/4/146 
f 146/4/146 171/4/163 172/6/164 150/6/149 
f 150/7/149 172/7/164 173/10/165 152/10/150 
f 152/10/150 173/10/165 174/12/166 154/12/151 
f 154/12/151 174/12/166 175/14/167 156/14/153 
f 156/14/153 175/14/167 176/16/168 158/16/154 
f 158/16/154 176/16/168 177/18/169 160/18/156 
f 160/18/156 177/18/169 178/20/170 162/20/157 
f 162/20/157 178/20/170 179/22/171 164/22/158 
f 164/22/158 179/22/171 180/24/172 166/24/159 
f 166/24/159 180/24/172 181/26/173 168/26/160 
f 168/26/160 181/26/173 170/1/162 149/1/148 
f 182/1/174 183/1/175 184/4/176 185/4/177 
f 185/4/177 184/4/176 186/6/178 187/6/179 
f 187/7/179 186/7/178 188/10/180 189/10/181 
f 189/10/181 188/10/180 190/12/182 191/12/183 
f 191/12/183 190/12/182 192/14/184 193/14/185 
f 193/14/185 192/14/184 194/16/186 195/16/187 
f 195/16/187 194/16/186 196/18/188 197/18/189 
f 197/18/189 196/18/188 198/20/190 199/20/191 
f 199/20/191 198/20/190 200/22/192 201/22/193 
f 201/22/193 200/22/192 202/24/194 203/24/195 
f 203/24/195 202/24/194 204/26/196 205/26/197 
f 205/26/197 204/26/196 183/1/175 182/1/174 
f 183/1/175 206/1/198 207/4/199 184/4/176 
f 184/4/176 207/4/199 208/6/200 186/6/178 
f 186/7/178 208/7/200 209/10/201 188/10/180 
f 188/10/180 209/10/201 210/12/202 190/12/182 
f 190/12/182 210/12/202 211/14/203 192/14/184 
f 192/14/184 211/14/203 212/16/204 194/16/186 
f 194/16/186 212/16/204 213/18/205 196/18/188 
f 196/18/188 213/18/205 214/20/206 198/20/190 
f 198/20/190 214/20/206 215/22/207 200/22/192 
f 200/22/192 215/22/207 216/24/208 202/24/194 
f 202/24/194 216/24/208 217/26/209 204/26/196 
f 204/26/196 217/26/209 206/1/198 183/1/175 
f 218/4/210 219/1/211 182/1/174 185/4/177 
f 220/6/212 218/4/210 185/4/177 187/6/179 
f 221/10/213 220/7/212 187/7/179 189/10/181 
f 222/12/214 221/10/213 189/10/181 191/12/183 
f 223/14/215 222/12/214 191/12/183 193/14/185 
f 224/16/216 223/14/215 193/14/185 195/16/187 
f 225/18/217 224/16/216 195/16/187 197/18/189 
f 226/20/218 225/18/217 197/18/189 199/20/191 
f 227/22/219 226/20/218 199/20/191 201/22/193 
f 228/24/220 227/22/219 201/22/193 203/24/195 
f 229/26/221 228/24/220 203/24/195 205/26/197 
f 219/1/211 229/26/221 205/26/197 182/1/174 
f 171/4/163 170/1/162 219/1/211 218/4/210 
f 172/6/164 171/4/163 218/4/210 220/6/212 
f 173/10/165 172/7/164 220/7/212 221/10/213 
f 174/12/166 173/10/165 221/10/213 222/12/214 
f 175/14/167 174/12/166 222/12/214 223/14/215 
f 176/16/168 175/14/167 223/14/215 224/16/216 
f 177/18/169 176/16/168 224/16/216 225/18/217 
f 178/20/170 177/18/169 225/18/217 226/20/218 
f 179/22/171 178/20/170 226/20/218 227/22/219 
f 180/24/172 179/22/171 227/22/219 228/24/220 
f 181/26/173 180/24/172 228/24/220 229/26/221 
f 170/1/162 181/26/173 229/26/221 219/1/211 
f 148/1/147 147/4/123 230/4/123 231/1/222 
f 147/4/123 151/6/127 232/6/127 230/4/123 
f 151/7/127 153/10/129 233/10/223 232/7/127 
f 153/10/129 155/12/152 234/12/224 233/10/223 
f 155/12/152 157/14/133 235/14/133 234/12/224 
f 157/14/133 159/16/155 236/16/109 235/14/133 
f 159/16/155 161/18/137 237/18/137 236/16/109 
f 161/18/137 163/20/139 238/20/225 237/18/137 
f 163/20/139 165/22/141 239/22/226 238/20/225 
f 165/22/141 167/24/143 240/24/143 239/22/226 
f 167/24/143 169/26/161 241/26/227 240/24/143 
f 169/26/161 148/1/147 231/1/222 241/26/227 
f 124/1/124 123/4/123 242/4/123 243/1/124 
f 123/4/123 127/6/127 244/6/127 242/4/123 
f 127/7/127 129/10/129 245/10/228 244/7/127 
f 129/10/129 131/12/131 246/12/131 245/10/228 
f 131/12/131 133/14/133 247/14/229 246/12/131 
f 133/14/133 135/16/135 248/16/135 247/14/229 
f 135/16/135 137/18/137 249/18/137 248/16/135 
f 137/18/137 139/20/139 250/20/230 249/18/137 
f 139/20/139 141/22/141 251/22/231 250/20/230 
f 141/22/141 143/24/143 252/24/143 251/22/231 
f 143/24/143 145/26/145 253/26/161 252/24/143 
f 145/26/145 124/1/124 243/1/124 253/26/161 
f 111/1/111 110/4/110 122/4/122 125/1/125 
f 110/4/110 112/6/112 126/6/126 122/4/122 
f 112/7/112 113/10/113 128/10/128 126/7/126 
f 113/10/113 114/12/114 130/12/130 128/10/128 
f 114/12/114 115/14/115 132/14/132 130/12/130 
f 115/14/115 116/16/116 134/16/134 132/14/132 
f 116/16/116 117/18/117 136/18/136 134/16/134 
f 117/18/117 118/20/118 138/20/138 136/18/136 
f 118/20/118 119/22/119 140/22/140 138/20/138 
f 119/22/119 120/24/120 142/24/142 140/22/140 
f 120/24/120 121/26/121 144/26/144 142/24/142 
f 121/26/121 111/1/111 125/1/125 144/26/144 
f 254/4/232 255/4/233 256/1/234 257/1/235 
f 258/6/236 259/51/237 255/4/233 254/4/232 
f 260/10/238 261/52/239 259/53/237 258/12/236 
f 262/54/240 263/18/241 261/52/239 260/10/238 
f 264/20/242 265/22/243 263/18/241 262/54/240 
f 266/22/244 267/24/245 265/22/243 264/20/242 
f 268/14/246 269/18/247 267/24/245 266/22/244 
f 270/20/248 271/20/249 269/18/247 268/14/246 
f 272/22/250 273/22/251 271/20/249 270/20/248 
f 274/24/252 275/24/253 273/22/251 272/22/250 
f 276/26/254 277/26/255 275/24/253 274/24/252 
f 257/1/235 256/1/234 277/26/255 276/26/254 
f 256/1/234 255/4/233 278/4/123 279/1/124 
f 255/4/233 259/51/237 280/6/127 278/4/123 
f 259/53/237 261/52/239 281/10/256 280/7/127 
f 261/52/239 263/18/241 282/12/131 281/10/256 
f 263/18/241 265/22/243 283/14/133 282/12/131 
f 265/22/243 267/24/245 284/16/109 283/14/133 
f 267/24/245 269/18/247 285/18/137 284/16/109 
f 269/18/247 271/20/249 286/20/257 285/18/137 
f 271/20/249 273/22/251 287/22/231 286/20/257 
f 273/22/251 275/24/253 288/24/143 287/22/231 
f 275/24/253 277/26/255 289/26/161 288/24/143 
f 277/26/255 256/1/234 279/1/124 289/26/161 
f 257/1/235 290/1/258 291/4/259 254/4/232 
f 254/4/232 291/4/259 292/6/260 258/6/236 
f 258/12/236 292/7/260 293/10/261 260/10/238 
f 260/10/238 293/10/261 294/12/262 262/54/240 
f 262/54/240 294/12/262 295/14/263 264/20/242 
f 264/20/242 295/14/263 296/16/264 266/22/244 
f 266/22/244 296/16/264 297/18/265 268/14/246 
f 268/14/246 297/18/265 298/20/266 270/20/248 
f 270/20/248 298/20/266 299/22/267 272/22/250 
f 272/22/250 299/22/267 300/24/268 274/24/252 
f 274/24/252 300/24/268 301/26/269 276/26/254 
f 276/26/254 301/26/269 290/1/258 257/1/235 
f 290/1/258 302/1/270 303/4/271 291/4/259 
f 291/4/259 303/4/271 304/6/272 292/6/260 
f 292/7/260 304/7/272 305/10/273 293/10/261 
f 293/10/261 305/10/273 306/12/274 294/12/262 
f 294/12/262 306/12/274 307/14/275 295/14/263 
f 295/14/263 307/14/275 308/16/276 296/16/264 
f 296/16/264 308/16/276 309/18/277 297/18/265 
f 297/18/265 309/18/277 310/20/278 298/20/266 
f 298/20/266 310/20/278 311/22/279 299/22/267 
f 299/22/267 311/22/279 312/24/280 300/24/268 
f 300/24/268 312/24/280 313/26/281 301/26/269 
f 301/26/269 313/26/281 302/1/270 290/1/258 
f 302/1/270 314/1/109 315/4/282 303/4/271 
f 303/4/271 315/4/282 316/6/230 304/6/272 
f 304/7/272 316/7/230 317/10/283 305/10/273 
f 305/10/273 317/10/283 318/12/143 306/12/274 
f 306/12/274 318/12/143 319/14/145 307/14/275 
f 307/14/275 319/14/145 320/16/124 308/16/276 
f 308/16/276 320/16/124 321/18/123 309/18/277 
f 309/18/277 321/18/123 322/20/127 310/20/278 
f 310/20/278 322/20/127 323/22/228 311/22/279 
f 311/22/279 323/22/228 324/24/284 312/24/280 
f 312/24/280 324/24/284 325/26/133 313/26/281 
f 313/26/281 325/26/133 314/1/109 302/1/270 
f 314/1/109 326/1/109 327/4/137 315/4/282 
f 315/4/282 327/4/137 328/6/257 316/6/230 
f 316/7/230 328/7/257 329/10/283 317/10/283 
f 317/10/283 329/10/283 330/12/143 318/12/143 
f 318/12/143 330/12/143 331/14/161 319/14/145 
f 319/14/145 331/14/161 332/16/124 320/16/124 
f 320/16/124 332/16/124 333/18/123 321/18/123 
f 321/18/123 333/18/123 334/20/127 322/20/127 
f 322/20/127 334/20/127 335/22/129 323/22/228 
f 323/22/228 335/22/129 336/24/284 324/24/284 
f 324/24/284 336/24/284 337/26/133 325/26/133 
f 325/26/133 337/26/133 326/1/109 314/1/109 
f 207/4/199 206/1/198 338/20/285 
f 208/6/200 207/4/199 338/20/285 
f 209/10/201 208/7/200 338/20/285 
f 210/12/202 209/10/201 338/20/285 
f 211/14/203 210/12/202 338/20/285 
f 212/16/204 211/14/203 338/20/285 
f 213/18/205 212/16/204 338/20/285 
f 214/20/206 213/18/205 338/20/285 
f 215/22/207 214/20/206 338/20/285 
f 216/24/208 215/22/207 338/20/285 
f 217/26/209 216/24/208 338/20/285 
f 206/1/198 217/26/209 338/20/285 
f 339/1/286 340/4/287 341/3/288 342/2/289 
f 340/4/287 343/6/290 344/5/291 341/3/288 
f 343/7/290 345/10/292 346/9/293 344/8/291 
f 345/10/292 347/12/294 348/11/295 346/9/293 
f 347/12/294 349/14/296 350/13/297 348/11/295 
f 349/14/296 351/16/298 352/15/299 350/13/297 
f 351/16/298 353/18/300 354/17/301 352/15/299 
f 353/18/300 355/20/302 356/19/303 354/17/301 
f 355/20/302 357/22/304 358/21/305 356/19/303 
f 357/22/304 359/24/306 360/23/307 358/21/305 
f 359/24/306 361/26/308 362/25/309 360/23/307 
f 361/26/308 339/1/286 342/2/289 362/25/309 
f 363/1/310 364/4/311 365/3/312 366/2/313 
f 364/4/311 367/6/314 368/5/315 365/3/312 
f 367/7/314 369/10/316 370/9/317 368/8/315 
f 369/10/316 371/12/318 372/11/319 370/9/317 
f 371/12/318 373/14/320 374/13/321 372/11/319 
f 373/14/320 375/16/322 376/15/323 374/13/321 
f 375/16/322 377/18/324 378/17/325 376/15/323 
f 377/18/324 379/20/326 380/19/327 378/17/325 
f 379/20/326 381/22/328 382/21/329 380/19/327 
f 381/22/328 383/24/330 384/23/331 382/21/329 
f 383/24/330 385/26/332 386/25/333 384/23/331 
f 385/26/332 363/1/310 366/2/313 386/25/333 
f 377/18/324 375/16/322 387/28/334 388/27/335 
f 350/13/297 352/15/299 389/30/336 390/29/337 
f 379/20/326 377/18/324 388/27/335 391/31/338 
f 356/19/303 358/21/305 392/33/339 393/32/340 
f 383/24/330 381/22/328 394/35/341 395/34/342 
f 346/9/293 348/11/295 396/37/343 397/36/344 
f 348/11/295 350/13/297 390/29/337 396/37/343 
f 369/10/316 367/6/314 398/39/345 399/38/346 
f 367/6/314 364/4/311 400/40/347 398/39/345 
f 342/2/289 341/3/288 401/42/348 402/41/349 
f 363/1/310 385/26/332 403/44/350 404/43/351 
f 360/23/307 362/25/309 405/46/352 406/45/353 
f 389/30/336 352/15/299 354/17/301 407/47/354 
f 387/28/334 375/16/322 373/14/320 408/48/355 
f 407/47/354 354/17/301 356/19/303 393/32/340 
f 394/35/341 381/22/328 379/20/326 391/31/338 
f 392/33/339 358/21/305 360/23/307 406/45/353 
f 409/49/356 371/12/318 369/10/316 399/38/346 
f 408/48/355 373/14/320 371/12/318 409/49/356 
f 410/50/357 344/5/291 346/9/293 397/36/344 
f 401/42/348 341/3/288 344/5/291 410/50/357 
f 400/40/347 364/4/311 363/1/310 404/43/351 
f 405/46/352 362/25/309 342/2/289 402/41/349 
f 403/44/350 385/26/332 383/24/330 395/34/342 
f 366/2/313 365/3/312 411/3/358 412/2/359 
f 365/3/312 368/5/315 413/5/360 411/3/358 
f 368/8/315 370/9/317 414/9/361 413/8/360 
f 370/9/317 372/11/319 415/11/362 414/9/361 
f 372/11/319 374/13/321 416/13/363 415/11/362 
f 374/13/321 376/15/323 417/15/364 416/13/363 
f 376/15/323 378/17/325 418/17/365 417/15/364 
f 378/17/325 380/19/327 419/19/366 418/17/365 
f 380/19/327 382/21/329 420/21/367 419/19/366 
f 382/21/329 384/23/331 421/23/368 420/21/367 
f 384/23/331 386/25/333 422/25/369 421/23/368 
f 386/25/333 366/2/313 412/2/359 422/25/369 
f 423/2/370 424/3/371 425/3/95 426/2/372 
f 424/3/371 427/5/373 428/5/374 425/3/95 
f 427/8/373 429/9/375 430/9/376 428/8/374 
f 429/9/375 431/11/377 432/11/378 430/9/376 
f 431/11/377 433/13/379 434/13/380 432/11/378 
f 433/13/379 435/15/381 436/15/382 434/13/380 
f 435/15/381 437/17/108 438/17/383 436/15/382 
f 437/17/108 439/19/384 440/19/385 438/17/383 
f 439/19/384 441/21/386 442/21/387 440/19/385 
f 441/21/386 443/23/388 444/23/389 442/21/387 
f 443/23/388 445/25/100 446/25/99 444/23/389 
f 445/25/100 423/2/370 426/2/372 446/25/99 
f 426/2/372 425/3/95 447/19/390 
f 425/3/95 428/5/374 447/19/390 
f 428/8/374 430/9/376 447/19/390 
f 430/9/376 432/11/378 447/19/390 
f 432/11/378 434/13/380 447/19/390 
f 434/13/380 436/15/382 447/19/390 
f 436/15/382 438/17/383 447/19/390 
f 438/17/383 440/19/385 447/19/390 
f 440/19/385 442/21/387 447/19/390 
f 442/21/387 444/23/389 447/19/390 
f 444/23/389 446/25/99 447/19/390 
f 446/25/99 426/2/372 447/19/390 
f 340/4/287 339/1/286 448/1/391 449/4/392 
f 343/6/290 340/4/287 449/4/392 450/6/393 
f 345/10/292 343/7/290 450/7/393 451/10/394 
f 347/12/294 345/10/292 451/10/394 452/12/395 
f 349/14/296 347/12/294 452/12/395 453/14/396 
f 351/16/298 349/14/296 453/14/396 454/16/397 
f 353/18/300 351/16/298 454/16/397 455/18/398 
f 355/20/302 353/18/300 455/18/398 456/20/399 
f 357/22/304 355/20/302 456/20/399 457/22/400 
f 359/24/306 357/22/304 457/22/400 458/24/401 
f 361/26/308 359/24/306 458/24/401 459/26/402 
f 339/1/286 361/26/308 459/26/402 448/1/391 
f 460/4/403 461/1/404 462/1/124 463/4/123 
f 464/6/405 460/4/403 463/4/123 465/6/127 
f 466/10/406 464/7/405 465/7/127 467/10/256 
f 468/12/407 466/10/406 467/10/256 469/12/284 
f 470/14/408 468/12/407 469/12/284 471/14/409 
f 472/16/410 470/14/408 471/14/409 473/16/109 
f 474/18/411 472/16/410 473/16/109 475/18/412 
f 476/20/413 474/18/411 475/18/412 477/20/414 
f 478/22/415 476/20/413 477/20/414 479/22/283 
f 480/24/416 478/22/415 479/22/283 481/24/417 
f 482/26/418 480/24/416 481/24/417 483/26/419 
f 461/1/404 482/26/418 483/26/419 462/1/124 
f 388/27/335 387/28/334 389/30/336 407/47/354 
f 390/29/337 389/30/336 387/28/334 408/48/355 
f 391/31/338 388/27/335 407/47/354 393/32/340 
f 393/32/340 392/33/339 394/35/341 391/31/338 
f 395/34/342 394/35/341 392/33/339 406/45/353 
f 397/36/344 396/37/343 409/49/356 399/38/346 
f 396/37/343 390/29/337 408/48/355 409/49/356 
f 399/38/346 398/39/345 410/50/357 397/36/344 
f 398/39/345 400/40/347 401/42/348 410/50/357 
f 402/41/349 401/42/348 400/40/347 404/43/351 
f 404/43/351 403/44/350 405/46/352 402/41/349 
f 406/45/353 405/46/352 403/44/350 395/34/342 
f 411/3/358 424/3/371 423/2/370 412/2/359 
f 413/5/360 427/5/373 424/3/371 411/3/358 
f 414/9/361 429/9/375 427/8/373 413/8/360 
f 415/11/362 431/11/377 429/9/375 414/9/361 
f 416/13/363 433/13/379 431/11/377 415/11/362 
f 417/15/364 435/15/381 433/13/379 416/13/363 
f 418/17/365 437/17/108 435/15/381 417/15/364 
f 419/19/366 439/19/384 437/17/108 418/17/365 
f 420/21/367 441/21/386 439/19/384 419/19/366 
f 421/23/368 443/23/388 441/21/386 420/21/367 
f 422/25/369 445/25/100 443/23/388 421/23/368 
f 412/2/359 423/2/370 445/25/100 422/25/369 
f 484/4/420 485/1/421 486/1/222 487/4/123 
f 488/6/6 484/4/420 487/4/123 489/6/127 
f 490/10/422 488/7/6 489/7/127 491/10/256 
f 492/12/423 490/10/422 491/10/256 493/12/424 
f 494/14/425 492/12/423 493/12/424 495/14/229 
f 496/16/426 494/14/425 495/14/229 497/16/135 
f 498/18/427 496/16/426 497/16/135 499/18/412 
f 500/20/428 498/18/427 499/18/412 501/20/414 
f 502/22/429 500/20/428 501/20/414 503/22/430 
f 504/24/431 502/22/429 503/22/430 505/24/143 
f 506/26/432 504/24/431 505/24/143 507/26/161 
f 485/1/421 506/26/432 507/26/161 486/1/222 
f 485/1/421 484/4/420 508/4/433 509/1/434 
f 484/4/420 488/6/6 510/6/435 508/4/433 
f 488/7/6 490/10/422 511/10/436 510/7/435 
f 490/10/422 492/12/423 512/12/437 511/10/436 
f 492/12/423 494/14/425 513/14/438 512/12/437 
f 494/14/425 496/16/426 514/16/439 513/14/438 
f 496/16/426 498/18/427 515/18/440 514/16/439 
f 498/18/427 500/20/428 516/20/441 515/18/440 
f 500/20/428 502/22/429 517/22/442 516/20/441 
f 502/22/429 504/24/431 518/24/443 517/22/442 
f 504/24/431 506/26/432 519/26/444 518/24/443 
f 506/26/432 485/1/421 509/1/434 519/26/444 
f 520/1/445 521/4/446 522/4/447 523/1/448 
f 521/4/446 524/6/449 525/6/450 522/4/447 
f 524/7/449 526/10/451 527/10/452 525/7/450 
f 526/10/451 528/12/453 529/12/454 527/10/452 
f 528/12/453 530/14/455 531/14/456 529/12/454 
f 530/14/455 532/16/457 533/16/458 531/14/456 
f 532/16/457 534/18/459 535/18/460 533/16/458 
f 534/18/459 536/20/461 537/20/462 535/18/460 
f 536/20/461 538/22/463 539/22/464 537/20/462 
f 538/22/463 540/24/465 541/24/466 539/22/464 
f 540/24/465 542/26/467 543/26/468 541/24/466 
f 542/26/467 520/1/445 523/1/448 543/26/468 
f 523/1/448 522/4/447 544/4/469 545/1/470 
f 522/4/447 525/6/450 546/6/471 544/4/469 
f 525/7/450 527/10/452 547/10/472 546/7/471 
f 527/10/452 529/12/454 548/12/473 547/10/472 
f 529/12/454 531/14/456 549/14/474 548/12/473 
f 531/14/456 533/16/458 550/16/475 549/14/474 
f 533/16/458 535/18/460 551/18/476 550/16/475 
f 535/18/460 537/20/462 552/20/477 551/18/476 
f 537/20/462 539/22/464 553/22/478 552/20/477 
f 539/22/464 541/24/466 554/24/479 553/22/478 
f 541/24/466 543/26/468 555/26/480 554/24/479 
f 543/26/468 523/1/448 545/1/470 555/26/480 
f 556/4/481 521/4/446 520/1/445 557/1/482 
f 558/6/483 524/6/449 521/4/446 556/4/481 
f 559/10/484 526/10/451 524/7/449 558/7/483 
f 560/12/485 528/12/453 526/10/451 559/10/484 
f 561/14/486 530/14/455 528/12/453 560/12/485 
f 562/16/487 532/16/457 530/14/455 561/14/486 
f 563/18/488 534/18/459 532/16/457 562/16/487 
f 564/20/489 536/20/461 534/18/459 563/18/488 
f 565/22/490 538/22/463 536/20/461 564/20/489 
f 566/24/491 540/24/465 538/22/463 565/22/490 
f 567/26/492 542/26/467 540/24/465 566/24/491 
f 557/1/482 520/1/445 542/26/467 567/26/492 
f 508/4/433 556/4/481 557/1/482 509/1/434 
f 510/6/435 558/6/483 556/4/481 508/4/433 
f 511/10/436 559/10/484 558/7/483 510/7/435 
f 512/12/437 560/12/485 559/10/484 511/10/436 
f 513/14/438 561/14/486 560/12/485 512/12/437 
f 514/16/439 562/16/487 561/14/486 513/14/438 
f 515/18/440 563/18/488 562/16/487 514/16/439 
f 516/20/441 564/20/489 563/18/488 515/18/440 
f 517/22/442 565/22/490 564/20/489 516/20/441 
f 518/24/443 566/24/491 565/22/490 517/22/442 
f 519/26/444 567/26/492 566/24/491 518/24/443 
f 509/1/434 557/1/482 567/26/492 519/26/444 
f 486/1/222 568/1/124 569/4/123 487/4/123 
f 487/4/123 569/4/123 570/6/127 489/6/127 
f 489/7/127 570/7/127 571/10/493 491/10/256 
f 491/10/256 571/10/493 572/12/284 493/12/424 
f 493/12/424 572/12/284 573/14/494 495/14/229 
f 495/14/229 573/14/494 574/16/495 497/16/135 
f 497/16/135 574/16/495 575/18/412 499/18/412 
f 499/18/412 575/18/412 576/20/496 501/20/414 
f 501/20/414 576/20/496 577/22/231 503/22/430 
f 503/22/430 577/22/231 578/24/143 505/24/143 
f 505/24/143 578/24/143 579/26/161 507/26/161 
f 507/26/161 579/26/161 568/1/124 486/1/222 
f 462/1/124 580/1/497 581/4/123 463/4/123 
f 463/4/123 581/4/123 582/6/127 465/6/127 
f 465/7/127 582/7/127 583/10/493 467/10/256 
f 467/10/256 583/10/493 584/12/284 469/12/284 
f 469/12/284 584/12/284 585/14/498 471/14/409 
f 471/14/409 585/14/498 586/16/109 473/16/109 
f 473/16/109 586/16/109 587/18/412 475/18/412 
f 475/18/412 587/18/412 588/20/257 477/20/414 
f 477/20/414 588/20/257 589/22/231 479/22/283 
f 479/22/283 589/22/231 590/24/417 481/24/417 
f 481/24/417 590/24/417 591/26/227 483/26/419 
f 483/26/419 591/26/227 580/1/497 462/1/124 
f 448/1/391 461/1/404 460/4/403 449/4/392 
f 449/4/392 460/4/403 464/6/405 450/6/393 
f 450/7/393 464/7/405 466/10/406 451/10/394 
f 451/10/394 466/10/406 468/12/407 452/12/395 
f 452/12/395 468/12/407 470/14/408 453/14/396 
f 453/14/396 470/14/408 472/16/410 454/16/397 
f 454/16/397 472/16/410 474/18/411 455/18/398 
f 455/18/398 474/18/411 476/20/413 456/20/399 
f 456/20/399 476/20/413 478/22/415 457/22/400 
f 457/22/400 478/22/415 480/24/416 458/24/401 
f 458/24/401 480/24/416 482/26/418 459/26/402 
f 459/26/402 482/26/418 461/1/404 448/1/391 
f 592/4/499 593/1/500 594/1/501 595/4/502 
f 596/6/503 592/4/499 595/4/502 597/51/504 
f 598/10/505 596/12/503 597/53/504 599/52/506 
f 600/54/507 598/10/505 599/52/506 601/18/508 
f 602/20/509 600/54/507 601/18/508 603/22/510 
f 604/22/511 602/20/509 603/22/510 605/24/512 
f 606/14/513 604/22/511 605/24/512 607/18/514 
f 608/20/515 606/14/513 607/18/514 609/20/516 
f 610/22/517 608/20/515 609/20/516 611/22/518 
f 612/24/519 610/22/517 611/22/518 613/24/520 
f 614/26/521 612/24/519 613/24/520 615/26/522 
f 593/1/500 614/26/521 615/26/522 594/1/501 
f 594/1/501 279/1/124 278/4/123 595/4/502 
f 595/4/502 278/4/123 280/6/127 597/51/504 
f 597/53/504 280/7/127 281/10/256 599/52/506 
f 599/52/506 281/10/256 282/12/131 601/18/508 
f 601/18/508 282/12/131 283/14/133 603/22/510 
f 603/22/510 283/14/133 284/16/109 605/24/512 
f 605/24/512 284/16/109 285/18/137 607/18/514 
f 607/18/514 285/18/137 286/20/257 609/20/516 
f 609/20/516 286/20/257 287/22/231 611/22/518 
f 611/22/518 287/22/231 288/24/143 613/24/520 
f 613/24/520 288/24/143 289/26/161 615/26/522 
f 615/26/522 289/26/161 279/1/124 594/1/501 
f 593/1/500 592/4/499 616/4/523 617/1/524 
f 592/4/499 596/6/503 618/6/525 616/4/523 
f 596/12/503 598/10/505 619/10/526 618/7/525 
f 598/10/505 600/54/507 620/12/527 619/10/526 
f 600/54/507 602/20/509 621/14/528 620/12/527 
f 602/20/509 604/22/511 622/16/529 621/14/528 
f 604/22/511 606/14/513 623/18/530 622/16/529 
f 606/14/513 608/20/515 624/20/531 623/18/530 
f 608/20/515 610/22/517 625/22/532 624/20/531 
f 610/22/517 612/24/519 626/24/533 625/22/532 
f 612/24/519 614/26/521 627/26/534 626/24/533 
f 614/26/521 593/1/500 617/1/524 627/26/534 
f 617/1/524 616/4/523 628/4/535 629/1/536 
f 616/4/523 618/6/525 630/6/537 628/4/535 
f 618/7/525 619/10/526 631/10/538 630/7/537 
f 619/10/526 620/12/527 632/12/539 631/10/538 
f 620/12/527 621/14/528 633/14/540 632/12/539 
f 621/14/528 622/16/529 634/16/541 633/14/540 
f 622/16/529 623/18/530 635/18/542 634/16/541 
f 623/18/530 624/20/531 636/20/543 635/18/542 
f 624/20/531 625/22/532 637/22/544 636/20/543 
f 625/22/532 626/24/533 638/24/545 637/22/544 
f 626/24/533 627/26/534 639/26/546 638/24/545 
f 627/26/534 617/1/524 629/1/536 639/26/546 
f 629/1/536 628/4/535 640/4/282 641/1/135 
f 628/4/535 630/6/537 642/6/257 640/4/282 
f 630/7/537 631/10/538 643/10/283 642/7/257 
f 631/10/538 632/12/539 644/12/143 643/10/283 
f 632/12/539 633/14/540 645/14/145 644/12/143 
f 633/14/540 634/16/541 646/16/222 645/14/145 
f 634/16/541 635/18/542 647/18/123 646/16/222 
f 635/18/542 636/20/543 648/20/127 647/18/123 
f 636/20/543 637/22/544 649/22/493 648/20/127 
f 637/22/544 638/24/545 650/24/284 649/22/493 
f 638/24/545 639/26/546 651/26/133 650/24/284 
f 639/26/546 629/1/536 641/1/135 651/26/133 
f 641/1/135 640/4/282 652/4/137 653/1/135 
f 640/4/282 642/6/257 654/6/257 652/4/137 
f 642/7/257 643/10/283 655/10/141 654/7/257 
f 643/10/283 644/12/143 656/12/143 655/10/141 
f 644/12/143 645/14/145 657/14/161 656/12/143 
f 645/14/145 646/16/222 658/16/222 657/14/161 
f 646/16/222 647/18/123 659/18/123 658/16/222 
f 647/18/123 648/20/127 660/20/127 659/18/123 
f 648/20/127 649/22/493 661/22/256 660/20/127 
f 649/22/493 650/24/284 662/24/284 661/22/256 
f 650/24/284 651/26/133 663/26/133 662/24/284 
f 651/26/133 641/1/135 653/1/135 663/26/133 
f 544/4/469 664/20/547 545/1/470 
f 546/6/471 664/20/547 544/4/469 
f 547/10/472 664/20/547 546/7/471 
f 548/12/473 664/20/547 547/10/472 
f 549/14/474 664/20/547 548/12/473 
f 550/16/475 664/20/547 549/14/474 
f 551/18/476 664/20/547 550/16/475 
f 552/20/477 664/20/547 551/18/476 
f 553/22/478 664/20/547 552/20/477 
f 554/24/479 664/20/547 553/22/478 
f 555/26/480 664/20/547 554/24/479 
f 545/1/470 664/20/547 555/26/480 
# 600 polygons - 48 triangles

