# 3ds Max Wavefront OBJ Exporter v0.99 - (c)2007 guruware
# File Created: 30.12.2025 18:27:06

mtllib PrisonCell_Module.mtl

#
# object CellModule_Cell
#

v  -3.7891 -0.8920 -4.5150
v  3.7891 -0.8920 -4.5150
v  3.7631 -0.8660 4.5150
v  -3.7631 -0.8660 4.5150
v  3.7891 3.6398 -4.5150
v  3.7631 3.6139 4.5150
v  -3.7891 3.6398 -4.5150
v  -3.7631 3.6139 4.5150
v  -3.5062 0.1417 -4.5150
v  3.5062 0.1417 -4.5150
v  3.5062 3.2758 -4.5150
v  -3.5062 3.2758 -4.5150
v  3.5322 0.1158 2.2985
v  -3.5322 0.1158 2.2985
v  3.5322 3.3018 2.2985
v  -3.5322 3.3018 2.2985
# 16 vertices

vn -0.5781 -0.5781 -0.5758
vn 0.5781 -0.5781 -0.5758
vn 0.5766 -0.5766 0.5789
vn -0.5766 -0.5766 0.5789
vn 0.5781 0.5781 -0.5758
vn 0.5766 0.5766 0.5789
vn -0.5781 0.5781 -0.5758
vn -0.5766 0.5766 0.5789
vn 0.3027 0.3027 -0.9037
vn -0.3027 0.3027 -0.9037
vn -0.3027 -0.3027 -0.9037
vn 0.3027 -0.3027 -0.9037
vn -0.5783 0.5783 -0.5754
vn 0.5783 0.5783 -0.5754
vn -0.5783 -0.5783 -0.5754
vn 0.5783 -0.5783 -0.5754
# 16 vertex normals

vt -0.0833 0.0000 1.0000
vt 0.0833 0.0000 1.0000
vt 0.0833 1.0000 1.0000
vt -0.0833 1.0000 1.0000
# 4 texture coords

o CellModule_Cell
g CellModule_Cell
usemtl Material__65
s off
f 1/1/1 2/2/2 3/2/3 4/1/4 
f 2/2/2 5/3/5 6/3/6 3/2/3 
f 5/3/5 7/4/7 8/4/8 6/3/6 
f 7/4/7 1/1/1 4/1/4 8/4/8 
s 1
f 3/2/3 6/3/6 8/4/8 4/1/4 
f 9/1/9 10/2/10 2/2/2 1/1/1 
f 10/2/10 11/3/11 5/3/5 2/2/2 
f 11/3/11 12/4/12 7/4/7 5/3/5 
f 12/4/12 9/1/9 1/1/1 7/4/7 
s off
f 13/2/13 10/2/10 9/1/9 14/1/14 
f 15/3/15 11/3/11 10/2/10 13/2/13 
f 16/4/16 12/4/12 11/3/11 15/3/15 
f 14/1/14 9/1/9 12/4/12 16/4/16 
s 1
f 16/4/16 15/3/15 13/2/13 14/1/14 
# 14 polygons

#
# object CellModule_SteelBarred
#

v  3.4049 0.1321 -4.2082
v  3.3960 0.1321 -4.2295
v  3.3960 3.4833 -4.2295
v  3.4049 3.4833 -4.2082
v  3.3747 0.1321 -4.2383
v  3.3747 3.4833 -4.2383
v  3.3534 0.1321 -4.2295
v  3.3534 3.4833 -4.2295
v  3.3445 0.1321 -4.2082
v  3.3446 3.4833 -4.2082
v  3.3534 0.1321 -4.1868
v  3.3534 3.4833 -4.1868
v  3.3747 0.1321 -4.1780
v  3.3747 3.4833 -4.1780
v  3.3960 0.1321 -4.1868
v  3.3960 3.4833 -4.1868
v  3.1049 0.1321 -4.2082
v  3.0960 0.1321 -4.2295
v  3.0960 3.4833 -4.2295
v  3.1049 3.4833 -4.2082
v  3.0747 0.1321 -4.2383
v  3.0747 3.4833 -4.2383
v  3.0534 0.1321 -4.2295
v  3.0534 3.4833 -4.2295
v  3.0446 0.1321 -4.2082
v  3.0446 3.4833 -4.2082
v  3.0534 0.1321 -4.1868
v  3.0534 3.4833 -4.1868
v  3.0747 0.1321 -4.1780
v  3.0747 3.4833 -4.1780
v  3.0960 0.1321 -4.1868
v  3.0960 3.4833 -4.1868
v  2.8049 0.1321 -4.2082
v  2.7960 0.1321 -4.2295
v  2.7960 3.4833 -4.2295
v  2.8049 3.4833 -4.2082
v  2.7747 0.1321 -4.2383
v  2.7747 3.4833 -4.2383
v  2.7534 0.1321 -4.2295
v  2.7534 3.4833 -4.2295
v  2.7446 0.1321 -4.2082
v  2.7445 3.4833 -4.2082
v  2.7534 0.1321 -4.1868
v  2.7534 3.4833 -4.1868
v  2.7747 0.1321 -4.1780
v  2.7747 3.4833 -4.1780
v  2.7960 0.1321 -4.1868
v  2.7960 3.4833 -4.1868
v  2.5049 0.1321 -4.2082
v  2.4960 0.1321 -4.2295
v  2.4960 3.4833 -4.2295
v  2.5049 3.4833 -4.2082
v  2.4747 0.1321 -4.2383
v  2.4747 3.4833 -4.2383
v  2.4534 0.1321 -4.2295
v  2.4534 3.4833 -4.2295
v  2.4446 0.1321 -4.2082
v  2.4445 3.4833 -4.2082
v  2.4534 0.1321 -4.1868
v  2.4534 3.4833 -4.1868
v  2.4747 0.1321 -4.1780
v  2.4747 3.4833 -4.1780
v  2.4960 0.1321 -4.1868
v  2.4960 3.4833 -4.1868
v  2.2049 0.1321 -4.2082
v  2.1960 0.1321 -4.2295
v  2.1960 3.4833 -4.2295
v  2.2049 3.4833 -4.2082
v  2.1747 0.1321 -4.2383
v  2.1747 3.4833 -4.2383
v  2.1534 0.1321 -4.2295
v  2.1534 3.4833 -4.2295
v  2.1445 0.1321 -4.2082
v  2.1446 3.4833 -4.2082
v  2.1534 0.1321 -4.1868
v  2.1534 3.4833 -4.1868
v  2.1747 0.1321 -4.1780
v  2.1747 3.4833 -4.1780
v  2.1960 0.1321 -4.1868
v  2.1960 3.4833 -4.1868
v  1.9049 0.1321 -4.2082
v  1.8960 0.1321 -4.2295
v  1.8960 3.4833 -4.2295
v  1.9049 3.4833 -4.2082
v  1.8747 0.1321 -4.2383
v  1.8747 3.4833 -4.2383
v  1.8534 0.1321 -4.2295
v  1.8534 3.4833 -4.2295
v  1.8446 0.1321 -4.2082
v  1.8446 3.4833 -4.2082
v  1.8534 0.1321 -4.1868
v  1.8534 3.4833 -4.1868
v  1.8747 0.1321 -4.1780
v  1.8747 3.4833 -4.1780
v  1.8960 0.1321 -4.1868
v  1.8960 3.4833 -4.1868
v  1.6049 0.1321 -4.2082
v  1.5960 0.1321 -4.2295
v  1.5960 3.4833 -4.2295
v  1.6049 3.4833 -4.2082
v  1.5747 0.1321 -4.2383
v  1.5747 3.4833 -4.2383
v  1.5534 0.1321 -4.2295
v  1.5534 3.4833 -4.2295
v  1.5445 0.1321 -4.2082
v  1.5445 3.4833 -4.2082
v  1.5534 0.1321 -4.1868
v  1.5534 3.4833 -4.1868
v  1.5747 0.1321 -4.1780
v  1.5747 3.4833 -4.1780
v  1.5960 0.1321 -4.1868
v  1.5960 3.4833 -4.1868
v  1.3049 0.1321 -4.2082
v  1.2960 0.1321 -4.2295
v  1.2960 3.4833 -4.2295
v  1.3049 3.4833 -4.2082
v  1.2747 0.1321 -4.2383
v  1.2747 3.4833 -4.2383
v  1.2534 0.1321 -4.2295
v  1.2534 3.4833 -4.2295
v  1.2445 0.1321 -4.2082
v  1.2446 3.4833 -4.2082
v  1.2534 0.1321 -4.1868
v  1.2534 3.4833 -4.1868
v  1.2747 0.1321 -4.1780
v  1.2747 3.4833 -4.1780
v  1.2960 0.1321 -4.1868
v  1.2960 3.4833 -4.1868
v  1.0049 0.1321 -4.2082
v  0.9960 0.1321 -4.2295
v  0.9960 3.4833 -4.2295
v  1.0049 3.4833 -4.2082
v  0.9747 0.1321 -4.2383
v  0.9747 3.4833 -4.2383
v  0.9534 0.1321 -4.2295
v  0.9534 3.4833 -4.2295
v  0.9446 0.1321 -4.2082
v  0.9446 3.4833 -4.2082
v  0.9534 0.1321 -4.1868
v  0.9534 3.4833 -4.1868
v  0.9747 0.1321 -4.1780
v  0.9747 3.4833 -4.1780
v  0.9960 0.1321 -4.1868
v  0.9960 3.4833 -4.1868
v  -0.7951 0.1321 -4.2082
v  -0.8040 0.1321 -4.2295
v  -0.8040 3.4833 -4.2295
v  -0.7951 3.4833 -4.2082
v  -0.8253 0.1321 -4.2383
v  -0.8253 3.4833 -4.2383
v  -0.8466 0.1321 -4.2295
v  -0.8466 3.4833 -4.2295
v  -0.8554 0.1321 -4.2082
v  -0.8554 3.4833 -4.2082
v  -0.8466 0.1321 -4.1868
v  -0.8466 3.4833 -4.1868
v  -0.8253 0.1321 -4.1780
v  -0.8253 3.4833 -4.1780
v  -0.8040 0.1321 -4.1868
v  -0.8040 3.4833 -4.1868
v  -1.0951 0.1321 -4.2082
v  -1.1040 0.1321 -4.2295
v  -1.1040 3.4833 -4.2295
v  -1.0951 3.4833 -4.2082
v  -1.1253 0.1321 -4.2383
v  -1.1253 3.4833 -4.2383
v  -1.1466 0.1321 -4.2295
v  -1.1466 3.4833 -4.2295
v  -1.1555 0.1321 -4.2082
v  -1.1555 3.4833 -4.2082
v  -1.1466 0.1321 -4.1868
v  -1.1466 3.4833 -4.1868
v  -1.1253 0.1321 -4.1780
v  -1.1253 3.4833 -4.1780
v  -1.1040 0.1321 -4.1868
v  -1.1040 3.4833 -4.1868
v  -1.3951 0.1321 -4.2082
v  -1.4040 0.1321 -4.2295
v  -1.4040 3.4833 -4.2295
v  -1.3951 3.4833 -4.2082
v  -1.4253 0.1321 -4.2383
v  -1.4253 3.4833 -4.2383
v  -1.4466 0.1321 -4.2295
v  -1.4466 3.4833 -4.2295
v  -1.4554 0.1321 -4.2082
v  -1.4554 3.4833 -4.2082
v  -1.4466 0.1321 -4.1868
v  -1.4466 3.4833 -4.1868
v  -1.4253 0.1321 -4.1780
v  -1.4253 3.4833 -4.1780
v  -1.4040 0.1321 -4.1868
v  -1.4040 3.4833 -4.1868
v  -1.6951 0.1321 -4.2082
v  -1.7040 0.1321 -4.2295
v  -1.7040 3.4833 -4.2295
v  -1.6951 3.4833 -4.2082
v  -1.7253 0.1321 -4.2383
v  -1.7253 3.4833 -4.2383
v  -1.7466 0.1321 -4.2295
v  -1.7466 3.4833 -4.2295
v  -1.7554 0.1321 -4.2082
v  -1.7554 3.4833 -4.2082
v  -1.7466 0.1321 -4.1868
v  -1.7466 3.4833 -4.1868
v  -1.7253 0.1321 -4.1780
v  -1.7253 3.4833 -4.1780
v  -1.7040 0.1321 -4.1868
v  -1.7040 3.4833 -4.1868
v  -1.9951 0.1321 -4.2082
v  -2.0040 0.1321 -4.2295
v  -2.0040 3.4833 -4.2295
v  -1.9951 3.4833 -4.2082
v  -2.0253 0.1321 -4.2383
v  -2.0253 3.4833 -4.2383
v  -2.0466 0.1321 -4.2295
v  -2.0466 3.4833 -4.2295
v  -2.0554 0.1321 -4.2082
v  -2.0554 3.4833 -4.2082
v  -2.0466 0.1321 -4.1868
v  -2.0466 3.4833 -4.1868
v  -2.0253 0.1321 -4.1780
v  -2.0253 3.4833 -4.1780
v  -2.0040 0.1321 -4.1868
v  -2.0040 3.4833 -4.1868
v  -2.2951 0.1321 -4.2082
v  -2.3040 0.1321 -4.2295
v  -2.3040 3.4833 -4.2295
v  -2.2951 3.4833 -4.2082
v  -2.3253 0.1321 -4.2383
v  -2.3253 3.4833 -4.2383
v  -2.3466 0.1321 -4.2295
v  -2.3466 3.4833 -4.2295
v  -2.3555 0.1321 -4.2082
v  -2.3554 3.4833 -4.2082
v  -2.3466 0.1321 -4.1868
v  -2.3466 3.4833 -4.1868
v  -2.3253 0.1321 -4.1780
v  -2.3253 3.4833 -4.1780
v  -2.3040 0.1321 -4.1868
v  -2.3040 3.4833 -4.1868
v  -2.5951 0.1321 -4.2082
v  -2.6040 0.1321 -4.2295
v  -2.6040 3.4833 -4.2295
v  -2.5951 3.4833 -4.2082
v  -2.6253 0.1321 -4.2383
v  -2.6253 3.4833 -4.2383
v  -2.6466 0.1321 -4.2295
v  -2.6466 3.4833 -4.2295
v  -2.6554 0.1321 -4.2082
v  -2.6554 3.4833 -4.2082
v  -2.6466 0.1321 -4.1868
v  -2.6466 3.4833 -4.1868
v  -2.6253 0.1321 -4.1780
v  -2.6253 3.4833 -4.1780
v  -2.6040 0.1321 -4.1868
v  -2.6040 3.4833 -4.1868
v  -2.8951 0.1321 -4.2082
v  -2.9040 0.1321 -4.2295
v  -2.9040 3.4833 -4.2295
v  -2.8951 3.4833 -4.2082
v  -2.9253 0.1321 -4.2383
v  -2.9253 3.4833 -4.2383
v  -2.9466 0.1321 -4.2295
v  -2.9466 3.4833 -4.2295
v  -2.9554 0.1321 -4.2082
v  -2.9554 3.4833 -4.2082
v  -2.9466 0.1321 -4.1868
v  -2.9466 3.4833 -4.1868
v  -2.9253 0.1321 -4.1780
v  -2.9253 3.4833 -4.1780
v  -2.9040 0.1321 -4.1868
v  -2.9040 3.4833 -4.1868
v  -3.1951 0.1321 -4.2082
v  -3.2040 0.1321 -4.2295
v  -3.2040 3.4833 -4.2295
v  -3.1951 3.4833 -4.2082
v  -3.2253 0.1321 -4.2383
v  -3.2253 3.4833 -4.2383
v  -3.2466 0.1321 -4.2295
v  -3.2466 3.4833 -4.2295
v  -3.2554 0.1321 -4.2082
v  -3.2554 3.4833 -4.2082
v  -3.2466 0.1321 -4.1868
v  -3.2466 3.4833 -4.1868
v  -3.2253 0.1321 -4.1780
v  -3.2253 3.4833 -4.1780
v  -3.2040 0.1321 -4.1868
v  -3.2040 3.4833 -4.1868
v  -3.4951 0.1321 -4.2082
v  -3.5040 0.1321 -4.2295
v  -3.5040 3.4833 -4.2295
v  -3.4951 3.4833 -4.2082
v  -3.5253 0.1321 -4.2383
v  -3.5253 3.4833 -4.2383
v  -3.5466 0.1321 -4.2295
v  -3.5466 3.4833 -4.2295
v  -3.5554 0.1321 -4.2082
v  -3.5554 3.4833 -4.2082
v  -3.5466 0.1321 -4.1868
v  -3.5466 3.4833 -4.1868
v  -3.5253 0.1321 -4.1780
v  -3.5253 3.4833 -4.1780
v  -3.5040 0.1321 -4.1868
v  -3.5040 3.4833 -4.1868
v  -3.6515 2.6321 -4.2501
v  3.6515 2.6321 -4.2501
v  3.6515 2.6321 -4.1943
v  -3.6515 2.6321 -4.1943
v  -3.6515 2.6420 -4.2604
v  -3.6515 2.7424 -4.2604
v  3.6515 2.7425 -4.2604
v  3.6515 2.6420 -4.2604
v  -3.6515 2.7523 -4.2501
v  -3.6515 2.7523 -4.1943
v  3.6515 2.7523 -4.1943
v  3.6515 2.7523 -4.2501
v  -3.6515 2.7424 -4.1840
v  -3.6515 2.6420 -4.1840
v  3.6515 2.6420 -4.1840
v  3.6515 2.7425 -4.1840
v  -0.6244 0.1321 -4.2422
v  -0.6244 0.1321 -4.2005
v  -0.6244 3.4833 -4.2005
v  -0.6244 3.4833 -4.2422
v  -0.5626 0.1321 -4.2005
v  -0.5626 3.4833 -4.2005
v  0.9242 0.1321 -4.2422
v  0.9242 3.4833 -4.2422
v  0.9242 3.4833 -4.2005
v  0.9242 0.1321 -4.2005
v  0.8624 0.1321 -4.2422
v  0.8624 3.4833 -4.2422
v  -0.5626 0.1321 -4.2422
v  -0.5626 3.4833 -4.2422
v  0.8624 0.1321 -4.2005
v  0.8624 3.4833 -4.2005
v  -3.6515 0.1317 -4.2501
v  -0.5828 0.1317 -4.2501
v  -0.5828 0.1317 -4.1943
v  -3.6515 0.1317 -4.1943
v  -3.6515 0.1416 -4.2604
v  -3.6515 0.2421 -4.2604
v  -0.5828 0.2421 -4.2604
v  -0.5828 0.1416 -4.2604
v  -3.6515 0.2519 -4.2501
v  -3.6515 0.2519 -4.1943
v  -0.5828 0.2519 -4.1943
v  -0.5828 0.2519 -4.2501
v  -3.6515 0.2421 -4.1840
v  -3.6515 0.1416 -4.1840
v  -0.5828 0.1416 -4.1840
v  -0.5828 0.2421 -4.1840
v  3.6515 0.1317 -4.2501
v  0.8761 0.1317 -4.2501
v  0.8761 0.1416 -4.2604
v  3.6515 0.1416 -4.2604
v  3.6515 0.2421 -4.2604
v  0.8761 0.2421 -4.2604
v  0.8761 0.2519 -4.2501
v  3.6515 0.2519 -4.2501
v  3.6515 0.2519 -4.1943
v  0.8761 0.2519 -4.1943
v  0.8761 0.2421 -4.1840
v  3.6515 0.2421 -4.1840
v  3.6515 0.1416 -4.1840
v  0.8761 0.1416 -4.1840
v  0.8761 0.1317 -4.1943
v  3.6515 0.1317 -4.1943
v  0.8656 0.1515 -4.1980
v  0.8656 0.1515 -4.2463
v  0.8656 0.2322 -4.2463
v  0.8656 0.2322 -4.1980
v  -0.5651 0.1515 -4.2463
v  -0.5651 0.1515 -4.1980
v  -0.5651 0.2322 -4.2463
v  -0.5651 0.2322 -4.1980
v  -3.6515 2.9661 -4.2501
v  3.6515 2.9661 -4.2501
v  3.6515 2.9661 -4.1943
v  -3.6515 2.9661 -4.1943
v  -3.6515 2.9760 -4.2604
v  -3.6515 3.0765 -4.2604
v  3.6515 3.0765 -4.2604
v  3.6515 2.9760 -4.2604
v  -3.6515 3.0864 -4.2501
v  -3.6515 3.0864 -4.1943
v  3.6515 3.0864 -4.1943
v  3.6515 3.0864 -4.2501
v  -3.6515 3.0765 -4.1840
v  -3.6515 2.9760 -4.1840
v  3.6515 2.9760 -4.1840
v  3.6515 3.0765 -4.1840
v  -3.6515 1.1661 -4.2501
v  -0.5751 1.1661 -4.2501
v  -0.5751 1.1661 -4.1943
v  -3.6515 1.1661 -4.1943
v  -3.6515 1.1759 -4.2604
v  -3.6515 1.2207 -4.2604
v  -0.5751 1.2207 -4.2604
v  -0.5751 1.1759 -4.2604
v  -3.6515 1.2305 -4.2501
v  -3.6515 1.2305 -4.1943
v  -0.5751 1.2305 -4.1943
v  -0.5751 1.2305 -4.2501
v  -3.6515 1.2207 -4.1840
v  -3.6515 1.1759 -4.1840
v  -0.5751 1.1759 -4.1840
v  -0.5751 1.2207 -4.1840
v  3.6515 1.1661 -4.2501
v  0.8751 1.1661 -4.2501
v  0.8751 1.1759 -4.2604
v  3.6515 1.1759 -4.2604
v  3.6515 1.2207 -4.2604
v  0.8751 1.2207 -4.2604
v  0.8751 1.2305 -4.2501
v  3.6515 1.2305 -4.2501
v  3.6515 1.2305 -4.1943
v  0.8751 1.2305 -4.1943
v  0.8751 1.2207 -4.1840
v  3.6515 1.2207 -4.1840
v  3.6515 1.1759 -4.1840
v  0.8751 1.1759 -4.1840
v  0.8751 1.1661 -4.1943
v  3.6515 1.1661 -4.1943
v  -3.6515 1.3987 -4.2501
v  -0.5762 1.3987 -4.2501
v  -0.5762 1.3987 -4.1943
v  -3.6515 1.3987 -4.1943
v  -3.6515 1.4085 -4.2604
v  -3.6515 1.4533 -4.2604
v  -0.5762 1.4533 -4.2604
v  -0.5762 1.4085 -4.2604
v  -3.6515 1.4631 -4.2501
v  -3.6515 1.4631 -4.1943
v  -0.5762 1.4631 -4.1943
v  -0.5762 1.4631 -4.2501
v  -3.6515 1.4533 -4.1840
v  -3.6515 1.4085 -4.1840
v  -0.5762 1.4085 -4.1840
v  -0.5762 1.4533 -4.1840
v  3.6515 1.3987 -4.2501
v  0.8773 1.3987 -4.2501
v  0.8773 1.4085 -4.2604
v  3.6515 1.4085 -4.2604
v  3.6515 1.4533 -4.2604
v  0.8773 1.4533 -4.2604
v  0.8773 1.4631 -4.2501
v  3.6515 1.4631 -4.2501
v  3.6515 1.4631 -4.1943
v  0.8773 1.4631 -4.1943
v  0.8773 1.4533 -4.1840
v  3.6515 1.4533 -4.1840
v  3.6515 1.4085 -4.1840
v  0.8773 1.4085 -4.1840
v  0.8773 1.3987 -4.1943
v  3.6515 1.3987 -4.1943
v  0.8671 1.4119 -4.1992
v  0.8671 1.4119 -4.2452
v  0.8671 1.4499 -4.2452
v  0.8671 1.4499 -4.1992
v  0.8650 1.1793 -4.2452
v  0.8650 1.2173 -4.2452
v  0.8650 1.2173 -4.1992
v  0.8650 1.1793 -4.1992
v  -0.5680 1.4119 -4.2452
v  -0.5680 1.4119 -4.1992
v  -0.5680 1.4499 -4.2452
v  -0.5680 1.4499 -4.1992
v  -0.5669 1.1793 -4.2452
v  -0.5669 1.1793 -4.1992
v  -0.5669 1.2173 -4.2452
v  -0.5669 1.2173 -4.1992
v  0.4541 0.1870 -4.2519
v  0.4452 0.1870 -4.2734
v  0.4452 1.2047 -4.2734
v  0.4541 1.2047 -4.2519
v  0.4236 0.1870 -4.2823
v  0.4236 1.2047 -4.2823
v  0.4021 0.1870 -4.2734
v  0.4021 1.2047 -4.2734
v  0.3932 0.1870 -4.2519
v  0.3932 1.2047 -4.2519
v  0.4021 0.1870 -4.2303
v  0.4021 1.2047 -4.2303
v  0.4236 0.1870 -4.2214
v  0.4236 1.2047 -4.2214
v  0.4452 0.1870 -4.2303
v  0.4452 1.2047 -4.2303
v  0.2006 0.1870 -4.2519
v  0.1917 0.1870 -4.2734
v  0.1917 1.2047 -4.2734
v  0.2006 1.2047 -4.2519
v  0.1702 0.1870 -4.2823
v  0.1702 1.2047 -4.2823
v  0.1487 0.1870 -4.2734
v  0.1487 1.2047 -4.2734
v  0.1398 0.1870 -4.2519
v  0.1398 1.2047 -4.2519
v  0.1487 0.1870 -4.2303
v  0.1487 1.2047 -4.2303
v  0.1702 0.1870 -4.2214
v  0.1702 1.2047 -4.2214
v  0.1917 0.1870 -4.2303
v  0.1917 1.2047 -4.2303
v  -0.0528 0.1870 -4.2519
v  -0.0617 0.1870 -4.2734
v  -0.0617 1.2047 -4.2734
v  -0.0528 1.2047 -4.2519
v  -0.0832 0.1870 -4.2823
v  -0.0832 1.2047 -4.2823
v  -0.1047 0.1870 -4.2734
v  -0.1047 1.2047 -4.2734
v  -0.1136 0.1870 -4.2519
v  -0.1136 1.2047 -4.2519
v  -0.1047 0.1870 -4.2303
v  -0.1047 1.2047 -4.2303
v  -0.0832 0.1870 -4.2214
v  -0.0832 1.2047 -4.2214
v  -0.0617 0.1870 -4.2303
v  -0.0617 1.2047 -4.2303
v  -0.3062 0.1870 -4.2519
v  -0.3151 0.1870 -4.2734
v  -0.3151 2.5458 -4.2734
v  -0.3062 2.5458 -4.2519
v  -0.3366 0.1870 -4.2823
v  -0.3366 2.5458 -4.2823
v  -0.3581 0.1870 -4.2734
v  -0.3581 2.5458 -4.2734
v  -0.3671 0.1870 -4.2519
v  -0.3671 2.5458 -4.2519
v  -0.3581 0.1870 -4.2303
v  -0.3581 2.5458 -4.2303
v  -0.3366 0.1870 -4.2214
v  -0.3366 2.5458 -4.2214
v  -0.3151 0.1870 -4.2303
v  -0.3151 2.5458 -4.2303
v  0.7046 0.1870 -4.2519
v  0.6957 0.1870 -4.2734
v  0.6957 2.5458 -4.2734
v  0.7046 2.5458 -4.2519
v  0.6742 0.1870 -4.2823
v  0.6742 2.5458 -4.2823
v  0.6527 0.1870 -4.2734
v  0.6527 2.5458 -4.2734
v  0.6437 0.1870 -4.2519
v  0.6437 2.5458 -4.2519
v  0.6527 0.1870 -4.2303
v  0.6527 2.5458 -4.2303
v  0.6742 0.1870 -4.2214
v  0.6742 2.5458 -4.2214
v  0.6957 0.1870 -4.2303
v  0.6957 2.5458 -4.2303
v  -0.4981 2.5294 -4.2888
v  0.1699 2.5294 -4.2888
v  0.1699 2.5294 -4.2171
v  -0.4981 2.5294 -4.2171
v  -0.4981 2.6013 -4.3020
v  0.1699 2.6013 -4.3020
v  0.1699 2.5393 -4.3020
v  -0.4981 2.5393 -4.3020
v  -0.4981 2.6112 -4.2171
v  0.1699 2.6112 -4.2171
v  0.1699 2.6112 -4.2888
v  -0.4981 2.6112 -4.2888
v  -0.4981 2.5393 -4.2039
v  0.1699 2.5393 -4.2039
v  0.1699 2.6013 -4.2039
v  -0.4981 2.6013 -4.2039
v  -0.5050 2.5368 -4.2236
v  -0.5050 2.5368 -4.2823
v  -0.5050 2.5449 -4.2931
v  -0.5050 2.5957 -4.2931
v  -0.5050 2.6038 -4.2823
v  -0.5050 2.6038 -4.2236
v  -0.5050 2.5957 -4.2128
v  -0.5050 2.5449 -4.2128
v  -0.5050 2.5453 -4.2234
v  -0.5050 2.5453 -4.2825
v  -0.5050 2.5954 -4.2825
v  -0.5050 2.5954 -4.2234
v  0.8379 2.5294 -4.2888
v  0.8379 2.5294 -4.2171
v  0.8379 2.6013 -4.3020
v  0.8379 2.5393 -4.3020
v  0.8379 2.6112 -4.2171
v  0.8379 2.6112 -4.2888
v  0.8379 2.5393 -4.2039
v  0.8379 2.6013 -4.2039
v  0.8448 2.5368 -4.2823
v  0.8448 2.5368 -4.2236
v  0.8448 2.5957 -4.2931
v  0.8448 2.5449 -4.2931
v  0.8448 2.6038 -4.2236
v  0.8448 2.6038 -4.2823
v  0.8448 2.5449 -4.2128
v  0.8448 2.5957 -4.2128
v  0.8448 2.5453 -4.2825
v  0.8448 2.5453 -4.2234
v  0.8448 2.5954 -4.2825
v  0.8448 2.5954 -4.2234
v  -0.4981 0.1807 -4.2888
v  0.1699 0.1807 -4.2888
v  0.1699 0.1807 -4.2171
v  -0.4981 0.1807 -4.2171
v  -0.4981 0.2526 -4.3020
v  0.1699 0.2526 -4.3020
v  0.1699 0.1906 -4.3020
v  -0.4981 0.1906 -4.3020
v  -0.4981 0.2625 -4.2171
v  0.1699 0.2625 -4.2171
v  0.1699 0.2625 -4.2888
v  -0.4981 0.2625 -4.2888
v  -0.4981 0.1906 -4.2039
v  0.1699 0.1906 -4.2039
v  0.1699 0.2526 -4.2039
v  -0.4981 0.2526 -4.2039
v  -0.5050 0.1881 -4.2236
v  -0.5050 0.1881 -4.2823
v  -0.5050 0.1962 -4.2931
v  -0.5050 0.2470 -4.2931
v  -0.5050 0.2551 -4.2823
v  -0.5050 0.2551 -4.2236
v  -0.5050 0.2470 -4.2128
v  -0.5050 0.1962 -4.2128
v  -0.5050 0.1965 -4.2234
v  -0.5050 0.1965 -4.2825
v  -0.5050 0.2466 -4.2825
v  -0.5050 0.2466 -4.2234
v  0.8379 0.1807 -4.2888
v  0.8379 0.1807 -4.2171
v  0.8379 0.2526 -4.3020
v  0.8379 0.1906 -4.3020
v  0.8379 0.2625 -4.2171
v  0.8379 0.2625 -4.2888
v  0.8379 0.1906 -4.2039
v  0.8379 0.2526 -4.2039
v  0.8448 0.1881 -4.2823
v  0.8448 0.1881 -4.2236
v  0.8448 0.2470 -4.2931
v  0.8448 0.1962 -4.2931
v  0.8448 0.2551 -4.2236
v  0.8448 0.2551 -4.2823
v  0.8448 0.1962 -4.2128
v  0.8448 0.2470 -4.2128
v  0.8448 0.1965 -4.2825
v  0.8448 0.1965 -4.2234
v  0.8448 0.2466 -4.2825
v  0.8448 0.2466 -4.2234
v  0.8341 2.5796 -4.2251
v  0.8341 0.2340 -4.2251
v  0.8341 0.2340 -4.2786
v  0.8341 2.5796 -4.2786
v  -0.4416 0.2340 -4.2786
v  -0.4416 2.5796 -4.2786
v  -0.4416 2.5796 -4.2251
v  -0.4416 0.2340 -4.2251
v  -0.5034 0.2340 -4.2786
v  -0.5034 2.5796 -4.2786
v  0.7723 0.2340 -4.2251
v  0.7723 2.5796 -4.2251
v  0.7723 2.5796 -4.2786
v  0.7723 0.2340 -4.2786
v  -0.5034 2.5796 -4.2251
v  -0.5034 0.2340 -4.2251
v  0.4452 1.4528 -4.2734
v  0.4452 2.5458 -4.2734
v  0.4541 2.5458 -4.2519
v  0.4541 1.4528 -4.2519
v  0.4236 1.4528 -4.2823
v  0.4236 2.5458 -4.2823
v  0.4021 1.4528 -4.2734
v  0.4021 2.5458 -4.2734
v  0.3932 1.4528 -4.2519
v  0.3932 2.5458 -4.2519
v  0.4021 1.4528 -4.2303
v  0.4021 2.5458 -4.2303
v  0.4236 1.4528 -4.2214
v  0.4236 2.5458 -4.2214
v  0.4452 1.4528 -4.2303
v  0.4452 2.5458 -4.2303
v  0.1917 1.4528 -4.2734
v  0.1917 2.5458 -4.2734
v  0.2006 2.5458 -4.2519
v  0.2006 1.4528 -4.2519
v  0.1702 1.4528 -4.2823
v  0.1702 2.5458 -4.2823
v  0.1487 1.4528 -4.2734
v  0.1487 2.5458 -4.2734
v  0.1398 1.4528 -4.2519
v  0.1398 2.5458 -4.2519
v  0.1487 1.4528 -4.2303
v  0.1487 2.5458 -4.2303
v  0.1702 1.4528 -4.2214
v  0.1702 2.5458 -4.2214
v  0.1917 1.4528 -4.2303
v  0.1917 2.5458 -4.2303
v  -0.0617 1.4528 -4.2734
v  -0.0617 2.5458 -4.2734
v  -0.0528 2.5458 -4.2519
v  -0.0528 1.4528 -4.2519
v  -0.0832 1.4528 -4.2823
v  -0.0832 2.5458 -4.2823
v  -0.1047 1.4528 -4.2734
v  -0.1047 2.5458 -4.2734
v  -0.1136 1.4528 -4.2519
v  -0.1136 2.5458 -4.2519
v  -0.1047 1.4528 -4.2303
v  -0.1047 2.5458 -4.2303
v  -0.0832 1.4528 -4.2214
v  -0.0832 2.5458 -4.2214
v  -0.0617 1.4528 -4.2303
v  -0.0617 2.5458 -4.2303
v  0.8065 1.3987 -4.2888
v  -0.4730 1.3987 -4.2888
v  -0.4730 1.4085 -4.3020
v  0.8065 1.4085 -4.3020
v  0.8065 1.4533 -4.3020
v  -0.4730 1.4533 -4.3020
v  -0.4730 1.4631 -4.2888
v  0.8065 1.4631 -4.2888
v  0.8065 1.4631 -4.2171
v  -0.4730 1.4631 -4.2171
v  -0.4730 1.4533 -4.2039
v  0.8065 1.4533 -4.2039
v  0.8065 1.4085 -4.2039
v  -0.4730 1.4085 -4.2039
v  -0.4730 1.3987 -4.2171
v  0.8065 1.3987 -4.2171
v  0.8043 1.1661 -4.2888
v  -0.4741 1.1661 -4.2888
v  -0.4741 1.1759 -4.3020
v  0.8043 1.1759 -4.3020
v  0.8043 1.2207 -4.3020
v  -0.4741 1.2207 -4.3020
v  -0.4741 1.2305 -4.2888
v  0.8043 1.2305 -4.2888
v  0.8043 1.2305 -4.2171
v  -0.4741 1.2305 -4.2171
v  -0.4741 1.2207 -4.2039
v  0.8043 1.2207 -4.2039
v  0.8043 1.1759 -4.2039
v  -0.4741 1.1759 -4.2039
v  -0.4741 1.1661 -4.2171
v  0.8043 1.1661 -4.2171
v  0.8194 1.4143 -4.2787
v  0.8194 1.4143 -4.2272
v  0.8194 1.4474 -4.2787
v  0.8194 1.4474 -4.2272
v  0.8171 1.1817 -4.2787
v  0.8171 1.1817 -4.2272
v  0.8171 1.2149 -4.2787
v  0.8171 1.2149 -4.2272
v  -0.4858 1.4143 -4.2787
v  -0.4858 1.4474 -4.2787
v  -0.4858 1.4474 -4.2272
v  -0.4858 1.4143 -4.2272
v  -0.4870 1.1817 -4.2272
v  -0.4869 1.1817 -4.2787
v  -0.4869 1.2149 -4.2787
v  -0.4870 1.2149 -4.2272
v  0.8065 1.4559 -4.2888
v  0.3925 1.4559 -4.2888
v  0.3925 1.4658 -4.3020
v  0.8065 1.4658 -4.3020
v  0.8065 1.6581 -4.3020
v  0.3925 1.6581 -4.3020
v  0.3925 1.6680 -4.2888
v  0.8065 1.6680 -4.2888
v  0.8065 1.6680 -4.2171
v  0.3925 1.6680 -4.2171
v  0.3925 1.6581 -4.2039
v  0.8065 1.6581 -4.2039
v  0.8065 1.4658 -4.2039
v  0.3925 1.4658 -4.2039
v  0.3925 1.4559 -4.2171
v  0.8065 1.4559 -4.2171
v  0.8194 1.4716 -4.2787
v  0.8194 1.4716 -4.2272
v  0.8194 1.6523 -4.2787
v  0.8194 1.6523 -4.2272
v  0.3797 1.4716 -4.2787
v  0.3797 1.6523 -4.2787
v  0.3797 1.6523 -4.2272
v  0.3797 1.4716 -4.2272
v  0.7172 1.6028 -4.1878
v  0.7335 1.5635 -4.1878
v  0.7335 1.5635 -4.2533
v  0.7172 1.6028 -4.2533
v  0.6778 1.6191 -4.1878
v  0.6778 1.6191 -4.2533
v  0.6385 1.6028 -4.1878
v  0.6385 1.6028 -4.2533
v  0.6222 1.5635 -4.1878
v  0.6222 1.5635 -4.2533
v  0.6385 1.5241 -4.1878
v  0.6385 1.5241 -4.2533
v  0.6778 1.5078 -4.1878
v  0.6778 1.5078 -4.2533
v  0.7172 1.5241 -4.1878
v  0.7172 1.5241 -4.2533
v  0.7064 1.5635 -4.1924
v  0.6980 1.5837 -4.1924
v  0.6778 1.5635 -4.1924
v  0.6778 1.5920 -4.1924
v  0.6576 1.5837 -4.1924
v  0.6492 1.5635 -4.1924
v  0.6576 1.5433 -4.1924
v  0.6778 1.5349 -4.1924
v  0.6980 1.5433 -4.1924
v  0.7008 1.5865 -4.1860
v  0.7104 1.5635 -4.1860
v  0.6778 1.5960 -4.1860
v  0.6548 1.5865 -4.1860
v  0.6452 1.5635 -4.1860
v  0.6548 1.5404 -4.1860
v  0.6778 1.5309 -4.1860
v  0.7008 1.5404 -4.1860
v  0.7172 1.6028 -4.3189
v  0.7335 1.5635 -4.3189
v  0.6778 1.6191 -4.3189
v  0.6385 1.6028 -4.3189
v  0.6222 1.5635 -4.3189
v  0.6385 1.5241 -4.3189
v  0.6778 1.5078 -4.3189
v  0.7172 1.5241 -4.3189
v  0.7064 1.5635 -4.3143
v  0.6778 1.5635 -4.3143
v  0.6980 1.5837 -4.3143
v  0.6778 1.5920 -4.3143
v  0.6576 1.5837 -4.3143
v  0.6492 1.5635 -4.3143
v  0.6576 1.5433 -4.3143
v  0.6778 1.5349 -4.3143
v  0.6980 1.5433 -4.3143
v  0.7104 1.5635 -4.3207
v  0.7008 1.5865 -4.3207
v  0.6778 1.5960 -4.3207
v  0.6548 1.5865 -4.3207
v  0.6452 1.5635 -4.3207
v  0.6548 1.5404 -4.3207
v  0.6778 1.5309 -4.3207
v  0.7008 1.5404 -4.3207
v  -0.4983 0.3875 -4.2169
v  -0.5083 0.3875 -4.2412
v  -0.5083 0.5424 -4.2412
v  -0.4983 0.5424 -4.2169
v  -0.5326 0.3875 -4.2512
v  -0.5326 0.5424 -4.2512
v  -0.5569 0.3875 -4.2412
v  -0.5569 0.5424 -4.2412
v  -0.5670 0.3875 -4.2169
v  -0.5670 0.5424 -4.2169
v  -0.5569 0.3875 -4.1926
v  -0.5569 0.5424 -4.1926
v  -0.5326 0.3875 -4.1825
v  -0.5326 0.5424 -4.1825
v  -0.5083 0.3875 -4.1926
v  -0.5083 0.5424 -4.1926
v  -0.5083 1.5722 -4.2412
v  -0.4983 1.5722 -4.2169
v  -0.4983 1.4173 -4.2169
v  -0.5083 1.4173 -4.2412
v  -0.5326 1.5722 -4.2512
v  -0.5326 1.4173 -4.2512
v  -0.5569 1.5722 -4.2412
v  -0.5569 1.4173 -4.2412
v  -0.5670 1.5722 -4.2169
v  -0.5670 1.4173 -4.2169
v  -0.5569 1.5722 -4.1926
v  -0.5569 1.4173 -4.1926
v  -0.5326 1.5722 -4.1825
v  -0.5326 1.4173 -4.1825
v  -0.5083 1.5722 -4.1926
v  -0.5083 1.4173 -4.1926
v  -0.4983 2.1374 -4.2169
v  -0.5083 2.1374 -4.2412
v  -0.5083 2.2923 -4.2412
v  -0.4983 2.2923 -4.2169
v  -0.5326 2.1374 -4.2512
v  -0.5326 2.2923 -4.2512
v  -0.5569 2.1374 -4.2412
v  -0.5569 2.2923 -4.2412
v  -0.5670 2.1374 -4.2169
v  -0.5670 2.2923 -4.2169
v  -0.5569 2.1374 -4.1926
v  -0.5569 2.2923 -4.1926
v  -0.5326 2.1374 -4.1825
v  -0.5326 2.2923 -4.1825
v  -0.5083 2.1374 -4.1926
v  -0.5083 2.2923 -4.1926
v  -0.5083 0.6973 -4.2412
v  -0.4983 0.6973 -4.2169
v  -0.5326 0.6973 -4.2512
v  -0.5569 0.6973 -4.2412
v  -0.5670 0.6973 -4.2169
v  -0.5569 0.6973 -4.1926
v  -0.5326 0.6973 -4.1825
v  -0.5083 0.6973 -4.1926
v  -0.5083 2.4471 -4.2412
v  -0.4983 2.4471 -4.2169
v  -0.5326 2.4471 -4.2512
v  -0.5569 2.4471 -4.2412
v  -0.5670 2.4471 -4.2169
v  -0.5569 2.4471 -4.1926
v  -0.5326 2.4471 -4.1825
v  -0.5083 2.4471 -4.1926
v  -0.4983 1.2624 -4.2169
v  -0.5083 1.2624 -4.2412
v  -0.5326 1.2624 -4.2512
v  -0.5569 1.2624 -4.2412
v  -0.5670 1.2624 -4.2169
v  -0.5569 1.2624 -4.1926
v  -0.5326 1.2624 -4.1825
v  -0.5083 1.2624 -4.1926
v  -0.5139 0.3802 -4.2356
v  -0.5061 0.3802 -4.2169
v  -0.5326 0.3802 -4.2169
v  -0.5326 0.3802 -4.2434
v  -0.5514 0.3802 -4.2356
v  -0.5591 0.3802 -4.2169
v  -0.5514 0.3802 -4.1981
v  -0.5326 0.3802 -4.1904
v  -0.5139 0.3802 -4.1981
v  -0.5061 1.5794 -4.2169
v  -0.5139 1.5794 -4.2356
v  -0.5326 1.5794 -4.2169
v  -0.5326 1.5794 -4.2434
v  -0.5514 1.5794 -4.2356
v  -0.5591 1.5794 -4.2169
v  -0.5514 1.5794 -4.1981
v  -0.5326 1.5794 -4.1904
v  -0.5139 1.5794 -4.1981
v  -0.5139 2.1301 -4.2356
v  -0.5061 2.1301 -4.2169
v  -0.5326 2.1301 -4.2169
v  -0.5326 2.1301 -4.2434
v  -0.5514 2.1301 -4.2356
v  -0.5591 2.1301 -4.2169
v  -0.5514 2.1301 -4.1981
v  -0.5326 2.1301 -4.1904
v  -0.5139 2.1301 -4.1981
v  -0.5061 0.7045 -4.2169
v  -0.5139 0.7045 -4.2356
v  -0.5326 0.7045 -4.2169
v  -0.5326 0.7045 -4.2434
v  -0.5514 0.7045 -4.2356
v  -0.5591 0.7045 -4.2169
v  -0.5514 0.7045 -4.1981
v  -0.5326 0.7045 -4.1904
v  -0.5139 0.7045 -4.1981
v  -0.5061 2.4544 -4.2169
v  -0.5139 2.4544 -4.2356
v  -0.5326 2.4544 -4.2169
v  -0.5326 2.4544 -4.2434
v  -0.5514 2.4544 -4.2356
v  -0.5591 2.4544 -4.2169
v  -0.5514 2.4544 -4.1981
v  -0.5326 2.4544 -4.1904
v  -0.5139 2.4544 -4.1981
v  -0.5139 1.2552 -4.2356
v  -0.5061 1.2552 -4.2169
v  -0.5326 1.2552 -4.2169
v  -0.5326 1.2552 -4.2434
v  -0.5514 1.2552 -4.2356
v  -0.5591 1.2552 -4.2169
v  -0.5514 1.2552 -4.1981
v  -0.5326 1.2552 -4.1904
v  -0.5139 1.2552 -4.1981
v  0.6960 2.7039 -4.2295
v  0.6960 3.4833 -4.2295
v  0.7049 3.4833 -4.2082
v  0.7049 2.7039 -4.2082
v  0.6747 2.7039 -4.2383
v  0.6747 3.4833 -4.2383
v  0.6534 2.7039 -4.2295
v  0.6534 3.4833 -4.2295
v  0.6446 2.7039 -4.2082
v  0.6446 3.4833 -4.2082
v  0.6534 2.7039 -4.1868
v  0.6534 3.4833 -4.1868
v  0.6747 2.7039 -4.1780
v  0.6747 3.4833 -4.1780
v  0.6960 2.7039 -4.1868
v  0.6960 3.4833 -4.1868
v  0.3960 2.7039 -4.2295
v  0.3960 3.4833 -4.2295
v  0.4049 3.4833 -4.2082
v  0.4049 2.7039 -4.2082
v  0.3747 2.7039 -4.2383
v  0.3747 3.4833 -4.2383
v  0.3534 2.7039 -4.2295
v  0.3534 3.4833 -4.2295
v  0.3445 2.7039 -4.2082
v  0.3445 3.4833 -4.2082
v  0.3534 2.7039 -4.1868
v  0.3534 3.4833 -4.1868
v  0.3747 2.7039 -4.1780
v  0.3747 3.4833 -4.1780
v  0.3960 2.7039 -4.1868
v  0.3960 3.4833 -4.1868
v  0.0960 2.7039 -4.2295
v  0.0960 3.4833 -4.2295
v  0.1049 3.4833 -4.2082
v  0.1049 2.7039 -4.2082
v  0.0747 2.7039 -4.2383
v  0.0747 3.4833 -4.2383
v  0.0534 2.7039 -4.2295
v  0.0534 3.4833 -4.2295
v  0.0446 2.7039 -4.2082
v  0.0446 3.4833 -4.2082
v  0.0534 2.7039 -4.1868
v  0.0534 3.4833 -4.1868
v  0.0747 2.7039 -4.1780
v  0.0747 3.4833 -4.1780
v  0.0960 2.7039 -4.1868
v  0.0960 3.4833 -4.1868
v  -0.2040 2.7039 -4.2295
v  -0.2040 3.4833 -4.2295
v  -0.1951 3.4833 -4.2082
v  -0.1951 2.7039 -4.2082
v  -0.2253 2.7039 -4.2383
v  -0.2253 3.4833 -4.2383
v  -0.2466 2.7039 -4.2295
v  -0.2466 3.4833 -4.2295
v  -0.2554 2.7039 -4.2082
v  -0.2554 3.4833 -4.2082
v  -0.2466 2.7039 -4.1868
v  -0.2466 3.4833 -4.1868
v  -0.2253 2.7039 -4.1780
v  -0.2253 3.4833 -4.1780
v  -0.2040 2.7039 -4.1868
v  -0.2040 3.4833 -4.1868
v  -0.5040 2.7039 -4.2295
v  -0.5040 3.4833 -4.2295
v  -0.4951 3.4833 -4.2082
v  -0.4951 2.7039 -4.2082
v  -0.5253 2.7039 -4.2383
v  -0.5253 3.4833 -4.2383
v  -0.5466 2.7039 -4.2295
v  -0.5466 3.4833 -4.2295
v  -0.5554 2.7039 -4.2082
v  -0.5554 3.4833 -4.2082
v  -0.5466 2.7039 -4.1868
v  -0.5466 3.4833 -4.1868
v  -0.5253 2.7039 -4.1780
v  -0.5253 3.4833 -4.1780
v  -0.5040 2.7039 -4.1868
v  -0.5040 3.4833 -4.1868
# 1048 vertices

vn 1.0000 0.0000 0.0000
vn 0.7071 0.0000 -0.7071
vn 1.0000 0.0000 -0.0000
vn -0.0001 -0.0000 -1.0000
vn -0.0000 -0.0000 -1.0000
vn -0.7071 0.0000 -0.7071
vn -1.0000 0.0000 -0.0001
vn -0.7071 0.0000 0.7071
vn 0.0000 0.0000 1.0000
vn 0.7071 0.0000 0.7071
vn 0.7071 -0.0000 -0.7071
vn 0.0000 0.0000 -1.0000
vn -1.0000 0.0000 0.0001
vn -1.0000 0.0000 -0.0000
vn -0.7072 0.0000 0.7071
vn 0.0001 0.0000 1.0000
vn 0.7071 -0.0000 0.7071
vn 1.0000 -0.0000 -0.0000
vn 0.0001 -0.0000 -1.0000
vn -1.0000 -0.0000 0.0000
vn -1.0000 -0.0000 -0.0001
vn -0.7071 -0.0000 0.7071
vn -0.0000 0.0000 1.0000
vn 1.0000 -0.0000 0.0000
vn 0.0000 -0.0000 -1.0000
vn -0.7071 -0.0000 -0.7071
vn -1.0000 -0.0000 -0.0000
vn -0.0000 0.0000 -1.0000
vn -0.7072 0.0000 0.7070
vn -0.0001 0.0000 1.0000
vn -0.7071 0.0000 -0.7072
vn -1.0000 0.0000 0.0000
vn -0.7070 0.0000 0.7072
vn 0.7072 -0.0000 0.7071
vn 1.0000 0.0000 0.0001
vn 0.7072 0.0000 -0.7070
vn 0.7071 -0.0000 -0.7072
vn 1.0000 -0.0000 -0.0001
vn 0.7072 0.0000 0.7071
vn -0.0001 -0.0000 1.0000
vn 0.0000 -0.9277 -0.3732
vn 0.0000 -0.9278 -0.3732
vn -0.0000 -0.9277 0.3732
vn -0.0000 -0.9278 0.3732
vn 0.0000 -0.3921 -0.9199
vn 0.0000 0.3921 -0.9199
vn 0.0000 0.9277 -0.3732
vn -0.0000 0.9278 0.3732
vn 0.0000 0.9278 -0.3732
vn -0.0000 0.3921 0.9199
vn -0.0000 -0.3921 0.9199
vn -0.0000 0.3922 0.9199
vn 0.3754 -0.8633 -0.3373
vn 0.3754 -0.8633 0.3373
vn 0.3420 0.3782 -0.8602
vn 0.3420 -0.3782 -0.8602
vn 0.3754 0.8633 0.3373
vn 0.3754 0.8633 -0.3373
vn 0.3420 -0.3782 0.8602
vn 0.3420 0.3781 0.8602
vn -0.0000 -0.9277 -0.3732
vn -0.4682 -0.8226 -0.3225
vn -0.4407 -0.3607 -0.8220
vn -0.0000 -0.3921 -0.9199
vn -0.0000 0.3921 -0.9199
vn -0.4407 0.3607 -0.8220
vn -0.4682 0.8226 -0.3225
vn -0.0000 0.9278 -0.3732
vn 0.0000 0.9278 0.3732
vn -0.4682 0.8227 0.3225
vn -0.4407 0.3607 0.8220
vn -0.4407 -0.3607 0.8220
vn -0.4682 -0.8226 0.3225
vn -0.9456 -0.1893 0.2645
vn -0.9456 -0.1893 -0.2645
vn -0.9456 0.1893 -0.2645
vn -0.9456 0.1893 0.2645
vn 0.8859 -0.2856 -0.3655
vn 0.8859 -0.2856 0.3655
vn 0.8859 0.2856 -0.3655
vn 0.8859 0.2856 0.3655
vn -0.0000 -0.3922 0.9199
vn 0.4532 -0.8274 -0.3316
vn 0.4532 -0.8275 0.3316
vn 0.4645 0.3401 -0.8177
vn 0.4645 -0.3401 -0.8177
vn 0.4532 0.8275 0.3316
vn 0.4532 0.8274 -0.3316
vn 0.4645 -0.3402 0.8176
vn 0.4645 0.3402 0.8176
vn -0.4165 -0.8439 -0.3381
vn -0.4298 -0.3463 -0.8339
vn -0.4298 0.3463 -0.8339
vn -0.4165 0.8439 -0.3381
vn -0.4165 0.8439 0.3381
vn -0.4298 0.3463 0.8339
vn 0.0000 0.3921 0.9199
vn 0.0000 -0.3922 0.9199
vn -0.4298 -0.3463 0.8339
vn -0.4165 -0.8439 0.3381
vn 0.0000 -0.9278 0.3732
vn 0.4527 -0.8277 -0.3317
vn 0.4527 -0.8277 0.3317
vn 0.4640 0.3402 -0.8179
vn 0.4640 -0.3402 -0.8179
vn -0.0000 0.9277 0.3732
vn 0.4527 0.8277 0.3317
vn 0.4527 0.8277 -0.3317
vn 0.4641 -0.3403 0.8178
vn 0.4641 0.3403 0.8179
vn -0.4157 -0.8443 -0.3382
vn -0.4290 -0.3464 -0.8342
vn -0.4290 0.3464 -0.8342
vn -0.4157 0.8443 -0.3382
vn -0.4157 0.8443 0.3383
vn -0.4290 0.3464 0.8342
vn -0.4290 -0.3464 0.8342
vn -0.4157 -0.8443 0.3383
vn -0.9316 -0.2720 0.2410
vn -0.9316 -0.2720 -0.2410
vn -0.9316 0.2720 -0.2410
vn -0.9316 0.2720 0.2410
vn -0.9321 -0.2711 -0.2402
vn -0.9321 0.2711 -0.2402
vn -0.9321 0.2711 0.2402
vn -0.9321 -0.2711 0.2402
vn 0.9513 -0.2318 -0.2031
vn 0.9513 -0.2318 0.2031
vn 0.9513 0.2318 -0.2031
vn 0.9513 0.2318 0.2031
vn 0.9515 -0.2313 -0.2027
vn 0.9515 -0.2313 0.2026
vn 0.9515 0.2313 -0.2027
vn 0.9516 0.2313 0.2026
vn -0.7072 0.0000 -0.7071
vn 0.7071 0.0000 -0.7072
vn 1.0000 0.0000 -0.0001
vn -0.4180 -0.8568 -0.3020
vn 0.0000 -0.9489 -0.3155
vn -0.0000 -0.9489 0.3155
vn -0.4180 -0.8568 0.3020
vn -0.4269 0.4095 -0.8063
vn 0.0000 0.4479 -0.8941
vn 0.0000 -0.4479 -0.8941
vn -0.4269 -0.4095 -0.8063
vn -0.4180 0.8568 0.3020
vn -0.0000 0.9489 0.3155
vn 0.0000 0.9489 -0.3155
vn -0.4180 0.8568 -0.3020
vn -0.4269 -0.4094 0.8063
vn 0.0000 -0.4479 0.8941
vn 0.0000 0.4479 0.8941
vn -0.4269 0.4094 0.8063
vn -0.9237 -0.3726 0.0897
vn -0.9236 -0.3727 -0.0897
vn -0.9330 -0.1492 -0.3276
vn -0.9330 0.1492 -0.3276
vn -0.9236 0.3727 -0.0897
vn -0.9237 0.3726 0.0897
vn -0.9330 0.1491 0.3275
vn -0.9330 -0.1491 0.3275
vn -1.0000 0.0001 -0.0000
vn -1.0000 -0.0001 -0.0000
vn 0.4180 -0.8568 -0.3020
vn 0.4180 -0.8568 0.3020
vn 0.4269 0.4095 -0.8063
vn 0.4269 -0.4095 -0.8063
vn 0.4180 0.8568 0.3020
vn 0.4180 0.8568 -0.3020
vn 0.4269 -0.4095 0.8063
vn 0.4269 0.4095 0.8063
vn 0.9236 -0.3726 -0.0897
vn 0.9236 -0.3727 0.0896
vn 0.9330 0.1492 -0.3275
vn 0.9330 -0.1492 -0.3275
vn 0.9236 0.3727 0.0896
vn 0.9236 0.3726 -0.0897
vn 0.9330 -0.1492 0.3275
vn 0.9330 0.1492 0.3275
vn 1.0000 -0.0001 0.0000
vn 1.0000 0.0001 0.0000
vn -0.0000 0.4479 -0.8941
vn 0.4269 0.4094 -0.8063
vn 0.4269 0.4094 0.8063
vn 0.4257 -0.8554 -0.2950
vn -0.4262 -0.8552 -0.2949
vn -0.4559 -0.3896 -0.8002
vn 0.4555 -0.3897 -0.8004
vn 0.4555 0.3897 -0.8004
vn -0.4559 0.3896 -0.8002
vn -0.4262 0.8552 -0.2949
vn 0.4257 0.8554 -0.2950
vn 0.4257 0.8554 0.2950
vn -0.4262 0.8552 0.2950
vn -0.4559 0.3896 0.8002
vn 0.4555 0.3897 0.8004
vn 0.4555 -0.3897 0.8004
vn -0.4559 -0.3896 0.8002
vn -0.4262 -0.8552 0.2949
vn 0.4257 -0.8554 0.2950
vn 0.4264 -0.8551 -0.2949
vn -0.4259 -0.8554 -0.2950
vn -0.4556 -0.3897 -0.8003
vn 0.4560 -0.3896 -0.8002
vn 0.4560 0.3896 -0.8002
vn -0.4556 0.3897 -0.8003
vn -0.4259 0.8554 -0.2950
vn 0.4264 0.8551 -0.2949
vn 0.4264 0.8551 0.2949
vn -0.4259 0.8554 0.2950
vn -0.4556 0.3897 0.8003
vn 0.4560 0.3896 0.8002
vn 0.4560 -0.3896 0.8002
vn -0.4556 -0.3897 0.8003
vn -0.4259 -0.8553 0.2950
vn 0.4264 -0.8551 0.2949
vn 0.9388 -0.2842 -0.1944
vn 0.9388 -0.2842 0.1944
vn 0.9388 0.2842 -0.1944
vn 0.9388 0.2842 0.1944
vn 0.9392 -0.2835 -0.1938
vn 0.9392 -0.2835 0.1938
vn 0.9392 0.2835 -0.1938
vn 0.9392 0.2835 0.1938
vn -0.9391 -0.2837 -0.1940
vn -0.9391 0.2837 -0.1940
vn -0.9391 0.2837 0.1940
vn -0.9391 -0.2837 0.1940
vn -0.9389 -0.2840 0.1943
vn -0.9389 -0.2840 -0.1943
vn -0.9389 0.2841 -0.1943
vn -0.9389 0.2841 0.1943
vn -0.4262 0.8552 0.2949
vn 0.5625 0.5625 0.6059
vn 0.7955 0.0000 0.6059
vn 0.7071 0.7071 0.0000
vn 0.0000 0.7955 0.6059
vn -0.0000 1.0000 -0.0000
vn -0.5625 0.5626 0.6059
vn -0.7071 0.7071 0.0000
vn -0.7956 0.0000 0.6059
vn -0.5625 -0.5626 0.6059
vn -0.7071 -0.7071 0.0000
vn 0.0000 -0.7955 0.6059
vn -0.0000 -1.0000 -0.0000
vn 0.5625 -0.5625 0.6059
vn 0.7071 -0.7071 0.0000
vn -0.5664 -0.0000 0.8241
vn -0.4004 -0.4004 0.8242
vn 0.0000 -0.5663 0.8242
vn 0.4004 -0.4004 0.8242
vn 0.5664 -0.0000 0.8242
vn 0.4004 0.4004 0.8242
vn 0.0000 0.5663 0.8242
vn -0.4004 0.4005 0.8242
vn -0.2373 -0.2373 0.9420
vn -0.3357 -0.0000 0.9420
vn -0.0000 -0.3356 0.9420
vn 0.2373 -0.2372 0.9420
vn 0.3356 0.0000 0.9420
vn 0.2373 0.2372 0.9420
vn -0.0000 0.3356 0.9420
vn -0.2373 0.2373 0.9420
vn 0.5625 0.5625 -0.6059
vn 0.7956 0.0000 -0.6059
vn -0.0000 0.7955 -0.6059
vn -0.5625 0.5625 -0.6059
vn -0.7955 0.0000 -0.6059
vn -0.5625 -0.5625 -0.6059
vn -0.0000 -0.7955 -0.6059
vn 0.5625 -0.5625 -0.6059
vn -0.5664 -0.0000 -0.8241
vn -0.4004 -0.4004 -0.8242
vn -0.0000 -0.5664 -0.8242
vn 0.4004 -0.4004 -0.8242
vn 0.5664 -0.0000 -0.8241
vn 0.4004 0.4005 -0.8242
vn -0.0000 0.5663 -0.8242
vn -0.4004 0.4005 -0.8242
vn -0.3357 0.0000 -0.9420
vn -0.2373 -0.2373 -0.9420
vn 0.0000 -0.3356 -0.9420
vn 0.2373 -0.2373 -0.9420
vn 0.3357 0.0000 -0.9420
vn 0.2373 0.2373 -0.9420
vn 0.0000 0.3356 -0.9420
vn -0.2373 0.2373 -0.9420
vn 0.9295 -0.3688 -0.0000
vn 0.6573 -0.3688 -0.6572
vn 0.0000 -0.3688 -0.9295
vn -0.6572 -0.3689 -0.6572
vn -0.9295 -0.3689 -0.0000
vn -0.6572 -0.3689 0.6572
vn 0.0000 -0.3688 0.9295
vn 0.6573 -0.3689 0.6572
vn 0.6573 0.3688 -0.6572
vn 0.9295 0.3688 -0.0000
vn 0.0000 0.3688 -0.9295
vn -0.6572 0.3689 -0.6572
vn -0.9295 0.3689 -0.0000
vn -0.6572 0.3689 0.6572
vn 0.0000 0.3688 0.9295
vn 0.6573 0.3688 0.6572
vn 0.6573 0.3689 0.6572
vn 0.3096 -0.8991 -0.3095
vn 0.4377 -0.8991 0.0000
vn 0.0000 -1.0000 -0.0000
vn -0.0000 -0.8991 -0.4377
vn -0.3094 -0.8992 -0.3094
vn -0.4377 -0.8991 -0.0000
vn -0.3095 -0.8991 0.3095
vn 0.0000 -0.8991 0.4378
vn 0.3095 -0.8991 0.3095
vn 0.4377 0.8991 0.0000
vn 0.3096 0.8991 -0.3095
vn 0.0000 1.0000 -0.0000
vn -0.0000 0.8991 -0.4377
vn -0.3095 0.8992 -0.3095
vn -0.4377 0.8991 -0.0000
vn -0.3095 0.8991 0.3095
vn 0.0000 0.8991 0.4378
vn 0.3095 0.8991 0.3095
vn -0.3094 0.8992 -0.3094
# 323 vertex normals

vt 0.7500 0.0000 1.0000
vt 0.8750 0.0000 1.0000
vt 0.8750 1.0000 1.0000
vt 0.7500 1.0000 1.0000
vt -0.1250 0.0000 1.0000
vt 0.0000 0.0000 1.0000
vt 0.0000 1.0000 1.0000
vt -0.1250 1.0000 1.0000
vt 0.1250 0.0000 1.0000
vt 0.1250 1.0000 1.0000
vt 0.2500 0.0000 1.0000
vt 0.2500 1.0000 1.0000
vt 0.3750 0.0000 1.0000
vt 0.3750 1.0000 1.0000
vt 0.5000 0.0000 1.0000
vt 0.5000 1.0000 1.0000
vt 0.6250 0.0000 1.0000
vt 0.6250 1.0000 1.0000
vt 0.8414 0.0000 1.0000
vt 0.8414 1.0000 1.0000
vt 0.6586 1.0000 1.0000
vt 0.6586 0.0000 1.0000
vt -0.1045 0.0000 1.0000
vt 0.1045 0.0000 1.0000
vt 0.1045 1.0000 1.0000
vt -0.1045 1.0000 1.0000
vt 0.1586 0.0000 1.0000
vt 0.3414 0.0000 1.0000
vt 0.3414 1.0000 1.0000
vt 0.1586 1.0000 1.0000
vt 0.3955 0.0000 1.0000
vt 0.6045 0.0000 1.0000
vt 0.6045 1.0000 1.0000
vt 0.3955 1.0000 1.0000
vt 0.4714 0.0000 1.0000
vt 0.4714 1.0000 1.0000
vt -0.0286 0.0000 1.0000
vt -0.0286 1.0000 1.0000
vt 0.0286 0.0000 1.0000
vt 0.0286 1.0000 1.0000
vt 0.5286 0.0000 1.0000
vt 0.5286 1.0000 1.0000
vt 0.8414 0.2527 1.0000
vt 0.6586 0.2527 1.0000
vt 0.1045 0.2527 1.0000
vt -0.1045 0.2527 1.0000
vt 0.3414 0.2527 1.0000
vt 0.1586 0.2527 1.0000
vt 0.6045 0.2527 1.0000
vt 0.3955 0.2527 1.0000
vt 0.8414 0.5226 1.0000
vt 0.8750 0.5226 1.0000
vt 0.1045 0.5226 1.0000
vt 0.1586 0.5226 1.0000
vt 0.3414 0.5226 1.0000
vt 0.3955 0.5226 1.0000
vt 0.6045 0.5226 1.0000
vt 0.6586 0.5226 1.0000
vt -0.1045 0.5226 1.0000
vt 0.8750 0.2527 1.0000
vt 0.6316 0.5226 1.0000
vt 0.8582 0.5226 1.0000
vt 0.1316 0.5226 1.0000
vt 0.3684 0.5226 1.0000
vt 0.8582 0.2527 1.0000
vt 0.6316 0.2527 1.0000
vt 0.1316 0.2527 1.0000
vt 0.3684 0.2527 1.0000
vt 0.8414 0.2482 1.0000
vt 0.6586 0.2482 1.0000
vt 0.1045 0.2482 1.0000
vt -0.1045 0.2482 1.0000
vt 0.3414 0.2482 1.0000
vt 0.1586 0.2482 1.0000
vt 0.6045 0.2482 1.0000
vt 0.3955 0.2482 1.0000
vt 0.8414 0.5275 1.0000
vt 0.8750 0.5275 1.0000
vt 0.1045 0.5275 1.0000
vt 0.1586 0.5275 1.0000
vt 0.3414 0.5275 1.0000
vt 0.3955 0.5275 1.0000
vt 0.6045 0.5275 1.0000
vt 0.6586 0.5275 1.0000
vt 0.8414 0.2478 1.0000
vt 0.6586 0.2478 1.0000
vt 0.1045 0.2478 1.0000
vt -0.1045 0.2478 1.0000
vt 0.3414 0.2478 1.0000
vt 0.1586 0.2478 1.0000
vt 0.6045 0.2478 1.0000
vt 0.3955 0.2478 1.0000
vt 0.8414 0.5282 1.0000
vt 0.8750 0.5282 1.0000
vt 0.1045 0.5282 1.0000
vt 0.1586 0.5282 1.0000
vt 0.3414 0.5282 1.0000
vt 0.3955 0.5282 1.0000
vt 0.6045 0.5282 1.0000
vt 0.6586 0.5282 1.0000
vt -0.1045 0.5282 1.0000
vt -0.1045 0.5275 1.0000
vt 0.8750 0.2478 1.0000
vt 0.8750 0.2482 1.0000
vt 0.6316 0.5282 1.0000
vt 0.8582 0.5282 1.0000
vt 0.1316 0.5282 1.0000
vt 0.3684 0.5282 1.0000
vt 0.8582 0.5275 1.0000
vt 0.1316 0.5275 1.0000
vt 0.3684 0.5275 1.0000
vt 0.6316 0.5275 1.0000
vt 0.8582 0.2478 1.0000
vt 0.6316 0.2478 1.0000
vt 0.1316 0.2478 1.0000
vt 0.3684 0.2478 1.0000
vt 0.8582 0.2482 1.0000
vt 0.6316 0.2482 1.0000
vt 0.1316 0.2482 1.0000
vt 0.3684 0.2482 1.0000
vt 0.8750 0.1220 1.0000
vt 0.7500 0.1220 1.0000
vt 0.0000 0.1220 1.0000
vt -0.1250 0.1220 1.0000
vt 0.1250 0.1220 1.0000
vt 0.2500 0.1220 1.0000
vt 0.3750 0.1220 1.0000
vt 0.5000 0.1220 1.0000
vt 0.6250 0.1220 1.0000
vt 0.8750 0.4878 1.0000
vt 0.7500 0.4878 1.0000
vt 0.0000 0.4878 1.0000
vt -0.1250 0.4878 1.0000
vt 0.1250 0.4878 1.0000
vt 0.2500 0.4878 1.0000
vt 0.3750 0.4878 1.0000
vt 0.5000 0.4878 1.0000
vt 0.6250 0.4878 1.0000
vt 0.8414 0.2658 1.0000
vt 0.8414 0.3914 1.0000
vt 0.6586 0.3914 1.0000
vt 0.6586 0.2658 1.0000
vt 0.1045 0.2658 1.0000
vt 0.1045 0.3914 1.0000
vt -0.1045 0.3914 1.0000
vt -0.1045 0.2658 1.0000
vt 0.3414 0.2658 1.0000
vt 0.3414 0.3914 1.0000
vt 0.1586 0.3914 1.0000
vt 0.1586 0.2658 1.0000
vt 0.6045 0.2658 1.0000
vt 0.6045 0.3914 1.0000
vt 0.3955 0.3914 1.0000
vt 0.3955 0.2658 1.0000
vt 0.8750 0.2658 1.0000
vt 0.6316 0.2658 1.0000
vt 0.8582 0.2658 1.0000
vt 0.1316 0.2658 1.0000
vt 0.3684 0.2658 1.0000
vt 0.8750 0.3914 1.0000
vt 0.4714 0.5000 1.0000
vt 0.4714 0.2500 1.0000
vt 0.0286 0.2500 1.0000
vt 0.0286 0.5000 1.0000
vt 0.8750 0.2500 1.0000
vt 0.8750 0.5000 1.0000
vt 0.6250 0.5000 1.0000
vt 0.6250 0.2500 1.0000
vt -0.0286 0.2500 1.0000
vt -0.0286 0.5000 1.0000
vt -0.1250 0.5000 1.0000
vt -0.1250 0.2500 1.0000
vt 0.3750 0.2500 1.0000
vt 0.3750 0.5000 1.0000
vt 0.1250 0.5000 1.0000
vt 0.1250 0.2500 1.0000
vt 0.5286 0.5000 1.0000
vt 0.5286 0.2500 1.0000
vt 0.8750 0.2439 1.0000
vt 0.7500 0.2439 1.0000
vt 0.0000 0.2439 1.0000
vt -0.1250 0.2439 1.0000
vt 0.1250 0.2439 1.0000
vt 0.2500 0.2439 1.0000
vt 0.3750 0.2439 1.0000
vt 0.5000 0.2439 1.0000
vt 0.6250 0.2439 1.0000
vt 0.8414 0.5110 1.0000
vt 0.8414 0.2706 1.0000
vt 0.8750 0.2706 1.0000
vt 0.8750 0.5110 1.0000
vt 0.1045 0.5110 1.0000
vt 0.1045 0.2706 1.0000
vt 0.1586 0.2706 1.0000
vt 0.1586 0.5110 1.0000
vt 0.3414 0.5110 1.0000
vt 0.3414 0.2706 1.0000
vt 0.3955 0.2706 1.0000
vt 0.3955 0.5110 1.0000
vt 0.6045 0.5110 1.0000
vt 0.6045 0.2706 1.0000
vt 0.6586 0.2706 1.0000
vt 0.6586 0.5110 1.0000
vt 0.8414 0.5106 1.0000
vt 0.8414 0.2704 1.0000
vt 0.8750 0.2704 1.0000
vt 0.8750 0.5106 1.0000
vt 0.1045 0.5106 1.0000
vt 0.1045 0.2704 1.0000
vt 0.1586 0.2704 1.0000
vt 0.1586 0.5106 1.0000
vt 0.3414 0.5106 1.0000
vt 0.3414 0.2704 1.0000
vt 0.3955 0.2704 1.0000
vt 0.3955 0.5106 1.0000
vt 0.6045 0.5106 1.0000
vt 0.6045 0.2704 1.0000
vt 0.6586 0.2704 1.0000
vt 0.6586 0.5106 1.0000
vt -0.1045 0.5110 1.0000
vt -0.1045 0.2706 1.0000
vt -0.1045 0.5106 1.0000
vt -0.1045 0.2704 1.0000
vt 0.8582 0.5110 1.0000
vt 0.6316 0.5110 1.0000
vt 0.1316 0.5110 1.0000
vt 0.3684 0.5110 1.0000
vt 0.8582 0.5106 1.0000
vt 0.6316 0.5106 1.0000
vt 0.1316 0.5106 1.0000
vt 0.3684 0.5106 1.0000
vt 0.8582 0.2706 1.0000
vt 0.1316 0.2706 1.0000
vt 0.3684 0.2706 1.0000
vt 0.6316 0.2706 1.0000
vt 0.6316 0.2704 1.0000
vt 0.8582 0.2704 1.0000
vt 0.1316 0.2704 1.0000
vt 0.3684 0.2704 1.0000
vt 0.8750 0.3987 1.0000
vt 0.7500 0.3987 1.0000
vt 0.7500 0.3558 1.0000
vt 0.8750 0.3558 1.0000
vt 0.0000 0.3987 1.0000
vt -0.1250 0.3987 1.0000
vt -0.1250 0.3558 1.0000
vt 0.0000 0.3558 1.0000
vt 0.1250 0.3987 1.0000
vt 0.1250 0.3558 1.0000
vt 0.2500 0.3987 1.0000
vt 0.2500 0.3558 1.0000
vt 0.3750 0.3987 1.0000
vt 0.3750 0.3558 1.0000
vt 0.5000 0.3987 1.0000
vt 0.5000 0.3558 1.0000
vt 0.6250 0.3987 1.0000
vt 0.6250 0.3558 1.0000
vt 0.6645 0.4007 1.0000
vt 0.7610 0.4007 1.0000
vt 0.3750 0.4007 1.0000
vt -0.0110 0.4007 1.0000
vt 0.0855 0.4007 1.0000
vt 0.1820 0.4007 1.0000
vt 0.2785 0.4007 1.0000
vt 0.4715 0.4007 1.0000
vt 0.5680 0.4007 1.0000
vt 0.7500 0.0707 1.0000
vt 0.8750 0.0707 1.0000
vt 0.8750 0.1136 1.0000
vt 0.7500 0.1136 1.0000
vt -0.1250 0.0707 1.0000
vt 0.0000 0.0707 1.0000
vt 0.0000 0.1136 1.0000
vt -0.1250 0.1136 1.0000
vt 0.1250 0.0707 1.0000
vt 0.1250 0.1136 1.0000
vt 0.2500 0.0707 1.0000
vt 0.2500 0.1136 1.0000
vt 0.3750 0.0707 1.0000
vt 0.3750 0.1136 1.0000
vt 0.5000 0.0707 1.0000
vt 0.5000 0.1136 1.0000
vt 0.6250 0.0707 1.0000
vt 0.6250 0.1136 1.0000
vt 0.7500 0.5552 1.0000
vt 0.8750 0.5552 1.0000
vt 0.8750 0.5981 1.0000
vt 0.7500 0.5981 1.0000
vt -0.1250 0.5552 1.0000
vt 0.0000 0.5552 1.0000
vt 0.0000 0.5981 1.0000
vt -0.1250 0.5981 1.0000
vt 0.1250 0.5552 1.0000
vt 0.1250 0.5981 1.0000
vt 0.2500 0.5552 1.0000
vt 0.2500 0.5981 1.0000
vt 0.3750 0.5552 1.0000
vt 0.3750 0.5981 1.0000
vt 0.5000 0.5552 1.0000
vt 0.5000 0.5981 1.0000
vt 0.6250 0.5552 1.0000
vt 0.6250 0.5981 1.0000
vt 0.8750 0.1565 1.0000
vt 0.7500 0.1565 1.0000
vt 0.0000 0.1565 1.0000
vt -0.1250 0.1565 1.0000
vt 0.1250 0.1565 1.0000
vt 0.2500 0.1565 1.0000
vt 0.3750 0.1565 1.0000
vt 0.5000 0.1565 1.0000
vt 0.6250 0.1565 1.0000
vt 0.8750 0.6410 1.0000
vt 0.7500 0.6410 1.0000
vt 0.0000 0.6410 1.0000
vt -0.1250 0.6410 1.0000
vt 0.1250 0.6410 1.0000
vt 0.2500 0.6410 1.0000
vt 0.3750 0.6410 1.0000
vt 0.5000 0.6410 1.0000
vt 0.6250 0.6410 1.0000
vt 0.7500 0.3130 1.0000
vt 0.8750 0.3130 1.0000
vt -0.1250 0.3130 1.0000
vt 0.0000 0.3130 1.0000
vt 0.1250 0.3130 1.0000
vt 0.2500 0.3130 1.0000
vt 0.3750 0.3130 1.0000
vt 0.5000 0.3130 1.0000
vt 0.6250 0.3130 1.0000
vt 0.7610 0.0687 1.0000
vt 0.6645 0.0687 1.0000
vt 0.3750 0.0687 1.0000
vt 0.0855 0.0687 1.0000
vt -0.0110 0.0687 1.0000
vt 0.1820 0.0687 1.0000
vt 0.2785 0.0687 1.0000
vt 0.4715 0.0687 1.0000
vt 0.5680 0.0687 1.0000
vt 0.7610 0.5532 1.0000
vt 0.6645 0.5532 1.0000
vt 0.3750 0.5532 1.0000
vt 0.0855 0.5532 1.0000
vt -0.0110 0.5532 1.0000
vt 0.1820 0.5532 1.0000
vt 0.2785 0.5532 1.0000
vt 0.4715 0.5532 1.0000
vt 0.5680 0.5532 1.0000
vt 0.6645 0.1585 1.0000
vt 0.7610 0.1585 1.0000
vt 0.3750 0.1585 1.0000
vt -0.0110 0.1585 1.0000
vt 0.0855 0.1585 1.0000
vt 0.1820 0.1585 1.0000
vt 0.2785 0.1585 1.0000
vt 0.4715 0.1585 1.0000
vt 0.5680 0.1585 1.0000
vt 0.6645 0.6430 1.0000
vt 0.7610 0.6430 1.0000
vt 0.3750 0.6430 1.0000
vt -0.0110 0.6430 1.0000
vt 0.0855 0.6430 1.0000
vt 0.1820 0.6430 1.0000
vt 0.2785 0.6430 1.0000
vt 0.4715 0.6430 1.0000
vt 0.5680 0.6430 1.0000
vt 0.7610 0.3110 1.0000
vt 0.6645 0.3110 1.0000
vt 0.3750 0.3110 1.0000
vt 0.0855 0.3110 1.0000
vt -0.0110 0.3110 1.0000
vt 0.1820 0.3110 1.0000
vt 0.2785 0.3110 1.0000
vt 0.4715 0.3110 1.0000
vt 0.5680 0.3110 1.0000
vt 0.7500 0.5000 1.0000
vt 0.0000 0.5000 1.0000
vt 0.2500 0.5000 1.0000
vt 0.5000 0.5000 1.0000
# 378 texture coords

o CellModule_SteelBarred
g CellModule_SteelBarred
usemtl Material__65
s 8
f 17/5/17 18/6/18 19/7/18 20/8/19 
f 18/9/18 21/10/20 22/11/21 19/12/18 
f 21/10/20 23/13/22 24/14/22 22/11/21 
f 23/13/22 25/15/23 26/16/23 24/14/22 
f 25/15/23 27/17/24 28/18/24 26/16/23 
f 27/17/24 29/19/25 30/20/25 28/18/24 
f 29/19/25 31/21/26 32/22/26 30/20/25 
f 31/21/26 17/5/17 20/8/19 32/22/26 
f 33/5/19 34/6/27 35/7/27 36/8/19 
f 34/9/27 37/10/28 38/11/21 35/12/27 
f 37/10/28 39/13/22 40/14/22 38/11/21 
f 39/13/22 41/15/29 42/16/30 40/14/22 
f 41/15/29 43/17/31 44/18/24 42/16/30 
f 43/17/31 45/19/32 46/20/25 44/18/24 
f 45/19/32 47/21/33 48/22/33 46/20/25 
f 47/21/33 33/5/19 36/8/19 48/22/33 
f 49/5/34 50/6/27 51/7/27 52/8/34 
f 50/9/27 53/10/35 54/11/21 51/12/27 
f 53/10/35 55/13/22 56/14/22 54/11/21 
f 55/13/22 57/15/36 58/16/37 56/14/22 
f 57/15/36 59/17/38 60/18/38 58/16/37 
f 59/17/38 61/19/39 62/20/32 60/18/38 
f 61/19/39 63/21/26 64/22/26 62/20/32 
f 63/21/26 49/5/34 52/8/34 64/22/26 
f 65/5/40 66/6/27 67/7/27 68/8/40 
f 66/9/27 69/10/41 70/11/20 67/12/27 
f 69/10/41 71/13/42 72/14/42 70/11/20 
f 71/13/42 73/15/36 74/16/43 72/14/42 
f 73/15/36 75/17/38 76/18/38 74/16/43 
f 75/17/38 77/19/25 78/20/25 76/18/38 
f 77/19/25 79/21/26 80/22/26 78/20/25 
f 79/21/26 65/5/40 68/8/40 80/22/26 
f 81/5/17 82/6/27 83/7/27 84/8/19 
f 82/9/27 85/10/44 86/11/41 83/12/27 
f 85/10/44 87/13/42 88/14/42 86/11/41 
f 87/13/42 89/15/30 90/16/30 88/14/42 
f 89/15/30 91/17/24 92/18/24 90/16/30 
f 91/17/24 93/19/25 94/20/25 92/18/24 
f 93/19/25 95/21/33 96/22/33 94/20/25 
f 95/21/33 81/5/17 84/8/19 96/22/33 
f 97/5/19 98/6/27 99/7/27 100/8/19 
f 98/9/27 101/10/41 102/11/41 99/12/27 
f 101/10/41 103/13/22 104/14/22 102/11/41 
f 103/13/22 105/15/43 106/16/43 104/14/22 
f 105/15/43 107/17/24 108/18/45 106/16/43 
f 107/17/24 109/19/25 110/20/46 108/18/45 
f 109/19/25 111/21/33 112/22/33 110/20/46 
f 111/21/33 97/5/19 100/8/19 112/22/33 
f 113/5/34 114/6/27 115/7/27 116/8/34 
f 114/9/27 117/10/21 118/11/21 115/12/27 
f 117/10/21 119/13/47 120/14/22 118/11/21 
f 119/13/47 121/15/48 122/16/37 120/14/22 
f 121/15/48 123/17/24 124/18/24 122/16/37 
f 123/17/24 125/19/25 126/20/25 124/18/24 
f 125/19/25 127/21/26 128/22/26 126/20/25 
f 127/21/26 113/5/34 116/8/34 128/22/26 
f 129/5/34 130/6/27 131/7/27 132/8/34 
f 130/9/27 133/10/21 134/11/41 131/12/27 
f 133/10/21 135/13/42 136/14/42 134/11/41 
f 135/13/42 137/15/48 138/16/30 136/14/42 
f 137/15/48 139/17/49 140/18/24 138/16/30 
f 139/17/49 141/19/32 142/20/46 140/18/24 
f 141/19/32 143/21/33 144/22/50 142/20/46 
f 143/21/33 129/5/34 132/8/34 144/22/50 
f 145/5/19 146/6/27 147/7/27 148/8/17 
f 146/9/27 149/10/41 150/11/21 147/12/27 
f 149/10/41 151/13/42 152/14/42 150/11/21 
f 151/13/42 153/15/30 154/16/30 152/14/42 
f 153/15/30 155/17/24 156/18/24 154/16/30 
f 155/17/24 157/19/39 158/20/25 156/18/24 
f 157/19/39 159/21/26 160/22/26 158/20/25 
f 159/21/26 145/5/19 148/8/17 160/22/26 
f 161/5/51 162/6/18 163/7/52 164/8/34 
f 162/9/18 165/10/41 166/11/21 163/12/52 
f 165/10/41 167/13/42 168/14/42 166/11/21 
f 167/13/42 169/15/30 170/16/30 168/14/42 
f 169/15/30 171/17/24 172/18/24 170/16/30 
f 171/17/24 173/19/25 174/20/39 172/18/24 
f 173/19/25 175/21/26 176/22/26 174/20/39 
f 175/21/26 161/5/51 164/8/34 176/22/26 
f 177/5/34 178/6/27 179/7/27 180/8/34 
f 178/9/27 181/10/41 182/11/21 179/12/27 
f 181/10/41 183/13/42 184/14/42 182/11/21 
f 183/13/42 185/15/48 186/16/23 184/14/42 
f 185/15/48 187/17/24 188/18/24 186/16/23 
f 187/17/24 189/19/39 190/20/39 188/18/24 
f 189/19/39 191/21/26 192/22/26 190/20/39 
f 191/21/26 177/5/34 180/8/34 192/22/26 
f 193/5/19 194/6/27 195/7/27 196/8/19 
f 194/9/27 197/10/41 198/11/41 195/12/27 
f 197/10/41 199/13/42 200/14/22 198/11/41 
f 199/13/42 201/15/48 202/16/30 200/14/22 
f 201/15/48 203/17/24 204/18/24 202/16/30 
f 203/17/24 205/19/39 206/20/39 204/18/24 
f 205/19/39 207/21/26 208/22/26 206/20/39 
f 207/21/26 193/5/19 196/8/19 208/22/26 
f 209/5/34 210/6/27 211/7/53 212/8/54 
f 210/9/27 213/10/21 214/11/21 211/12/53 
f 213/10/21 215/13/42 216/14/42 214/11/21 
f 215/13/42 217/15/30 218/16/48 216/14/42 
f 217/15/30 219/17/24 220/18/24 218/16/48 
f 219/17/24 221/19/25 222/20/39 220/18/24 
f 221/19/25 223/21/33 224/22/33 222/20/39 
f 223/21/33 209/5/34 212/8/54 224/22/33 
f 225/5/19 226/6/27 227/7/27 228/8/19 
f 226/9/27 229/10/41 230/11/21 227/12/27 
f 229/10/41 231/13/42 232/14/42 230/11/21 
f 231/13/42 233/15/30 234/16/23 232/14/42 
f 233/15/30 235/17/24 236/18/24 234/16/23 
f 235/17/24 237/19/25 238/20/25 236/18/24 
f 237/19/25 239/21/33 240/22/33 238/20/25 
f 239/21/33 225/5/19 228/8/19 240/22/33 
f 241/5/34 242/6/18 243/7/18 244/8/40 
f 242/9/18 245/10/21 246/11/41 243/12/18 
f 245/10/21 247/13/22 248/14/22 246/11/41 
f 247/13/22 249/15/48 250/16/30 248/14/22 
f 249/15/48 251/17/24 252/18/24 250/16/30 
f 251/17/24 253/19/39 254/20/25 252/18/24 
f 253/19/39 255/21/26 256/22/26 254/20/25 
f 255/21/26 241/5/34 244/8/40 256/22/26 
f 257/5/40 258/6/27 259/7/27 260/8/34 
f 258/9/27 261/10/41 262/11/41 259/12/27 
f 261/10/41 263/13/42 264/14/42 262/11/41 
f 263/13/42 265/15/48 266/16/30 264/14/42 
f 265/15/48 267/17/24 268/18/31 266/16/30 
f 267/17/24 269/19/25 270/20/25 268/18/31 
f 269/19/25 271/21/33 272/22/33 270/20/25 
f 271/21/33 257/5/40 260/8/34 272/22/33 
f 273/5/34 274/6/53 275/7/27 276/8/17 
f 274/9/53 277/10/41 278/11/21 275/12/27 
f 277/10/41 279/13/42 280/14/42 278/11/21 
f 279/13/42 281/15/30 282/16/30 280/14/42 
f 281/15/30 283/17/24 284/18/45 282/16/30 
f 283/17/24 285/19/32 286/20/46 284/18/45 
f 285/19/32 287/21/26 288/22/26 286/20/46 
f 287/21/26 273/5/34 276/8/17 288/22/26 
f 289/5/19 290/6/27 291/7/27 292/8/19 
f 290/9/27 293/10/21 294/11/21 291/12/27 
f 293/10/21 295/13/42 296/14/42 294/11/21 
f 295/13/42 297/15/30 298/16/23 296/14/42 
f 297/15/30 299/17/24 300/18/24 298/16/23 
f 299/17/24 301/19/39 302/20/39 300/18/24 
f 301/19/39 303/21/26 304/22/55 302/20/39 
f 303/21/26 289/5/19 292/8/19 304/22/55 
f 305/5/34 306/6/18 307/7/18 308/8/34 
f 306/9/18 309/10/28 310/11/44 307/12/18 
f 309/10/28 311/13/42 312/14/42 310/11/44 
f 311/13/42 313/15/43 314/16/43 312/14/42 
f 313/15/43 315/17/24 316/18/24 314/16/43 
f 315/17/24 317/19/25 318/20/56 316/18/24 
f 317/19/25 319/21/26 320/22/26 318/20/56 
f 319/21/26 305/5/34 308/8/34 320/22/26 
s 1
f 321/23/57 322/24/58 323/25/59 324/26/60 
f 325/27/61 326/28/62 327/29/62 328/30/61 
f 329/31/63 330/32/64 331/33/64 332/34/65 
f 333/35/66 334/36/67 335/37/67 336/38/68 
s 2
f 322/24/58 321/23/57 325/6/61 328/7/61 
f 327/29/62 326/28/62 329/31/63 332/34/65 
f 331/33/64 330/32/64 333/35/66 336/38/68 
f 335/37/67 334/36/67 324/26/60 323/25/59 
s 1
f 337/13/22 338/17/24 339/18/24 340/14/22 
s 2
f 338/17/24 341/39/26 342/40/26 339/18/24 
s 1
f 343/6/18 344/7/18 345/22/26 346/21/26 
s 2
f 343/9/18 347/41/22 348/42/22 344/12/18 
f 349/43/18 337/13/22 340/14/22 350/44/18 
f 351/45/24 346/21/26 345/22/26 352/46/24 
s off
f 351/45/24 352/46/24 348/42/22 347/41/22 
f 349/43/18 350/44/18 342/40/26 341/39/26 
s 1
f 353/23/57 354/47/69 355/48/70 356/26/60 
f 357/27/61 358/28/62 359/49/71 360/50/72 
f 361/31/63 362/32/64 363/51/73 364/52/74 
f 365/35/66 366/36/67 367/53/75 368/54/76 
s 2
f 369/24/77 370/55/78 371/56/79 372/7/80 
f 373/29/81 374/57/82 375/58/83 376/34/84 
f 377/33/85 378/59/86 379/60/87 380/38/68 
f 381/37/67 382/61/88 383/62/89 384/25/60 
s 1
f 370/55/78 369/24/77 384/25/60 383/62/89 
f 374/57/82 373/29/81 372/30/80 371/63/79 
f 378/59/86 377/33/85 376/34/84 375/58/83 
f 382/61/88 381/37/67 380/38/68 379/60/87 
s 2
f 354/47/69 353/23/57 357/6/61 360/64/72 
f 359/49/71 358/28/62 361/31/63 364/52/74 
f 363/51/73 362/32/64 365/35/66 368/54/76 
f 367/53/75 366/36/67 356/26/60 355/48/70 
s off
f 370/55/78 383/62/89 385/65/90 386/66/91 
f 374/57/82 371/63/79 386/63/91 387/67/92 
f 378/59/86 375/58/83 387/67/92 388/68/93 
f 382/61/88 379/60/87 388/68/93 385/65/90 
f 371/56/79 370/55/78 386/66/91 
f 375/58/83 374/57/82 387/67/92 
f 379/60/87 378/59/86 388/68/93 
f 383/62/89 382/61/88 385/65/90 
f 355/48/70 354/47/69 389/69/94 390/70/95 
f 360/50/72 359/49/71 391/71/96 389/50/94 
f 364/52/74 363/51/73 392/72/97 391/71/96 
f 368/54/76 367/53/75 390/70/95 392/72/97 
f 354/47/69 360/64/72 389/69/94 
f 359/49/71 364/52/74 391/71/96 
f 363/51/73 368/54/76 392/72/97 
f 367/53/75 355/48/70 390/70/95 
s 4
f 385/65/90 388/68/93 387/67/92 386/63/91 
s 16
f 389/69/94 391/71/96 392/72/97 390/70/95 
s 1
f 393/23/57 394/24/58 395/25/60 396/26/60 
f 397/27/61 398/28/62 399/29/62 400/30/61 
f 401/31/63 402/32/64 403/33/64 404/34/65 
f 405/35/66 406/36/98 407/37/67 408/38/66 
s 2
f 394/24/58 393/23/57 397/6/61 400/7/61 
f 399/29/62 398/28/62 401/31/63 404/34/65 
f 403/33/64 402/32/64 405/35/66 408/38/66 
f 407/37/67 406/36/98 396/26/60 395/25/60 
s 1
f 409/23/57 410/73/99 411/74/100 412/26/60 
f 413/27/61 414/28/62 415/75/101 416/76/102 
f 417/31/63 418/32/64 419/77/103 420/78/104 
f 421/35/66 422/36/67 423/79/105 424/80/106 
s 2
f 425/24/58 426/81/107 427/82/108 428/7/61 
f 429/29/62 430/83/109 431/84/110 432/34/65 
f 433/33/64 434/85/111 435/86/112 436/38/113 
f 437/37/114 438/87/115 439/88/116 440/25/117 
s 1
f 441/23/57 442/89/118 443/90/119 444/26/60 
f 445/27/61 446/28/62 447/91/120 448/92/121 
f 449/31/63 450/32/122 451/93/123 452/94/124 
f 453/35/66 454/36/67 455/95/125 456/96/126 
s 2
f 457/24/58 458/97/127 459/98/128 460/7/61 
f 461/29/62 462/99/129 463/100/130 464/34/65 
f 465/33/122 466/101/131 467/102/132 468/38/66 
f 469/37/67 470/103/133 471/104/134 472/25/59 
s 1
f 458/97/127 457/24/58 472/25/59 471/104/134 
f 462/99/129 461/29/62 460/30/61 459/105/128 
f 466/101/131 465/33/122 464/34/65 463/100/130 
f 470/103/133 469/37/67 468/38/66 467/102/132 
f 426/81/107 425/24/58 440/25/117 439/88/116 
f 430/83/109 429/29/62 428/30/61 427/106/108 
f 434/85/111 433/33/64 432/34/65 431/84/110 
f 438/87/115 437/37/114 436/38/113 435/86/112 
s 2
f 442/89/118 441/23/57 445/6/61 448/107/121 
f 447/91/120 446/28/62 449/31/63 452/94/124 
f 451/93/123 450/32/122 453/35/66 456/96/126 
f 455/95/125 454/36/67 444/26/60 443/90/119 
f 410/73/99 409/23/57 413/6/61 416/108/102 
f 415/75/101 414/28/62 417/31/63 420/78/104 
f 419/77/103 418/32/64 421/35/66 424/80/106 
f 423/79/105 422/36/67 412/26/60 411/74/100 
s off
f 458/97/127 471/104/134 473/109/135 474/110/136 
f 462/99/129 459/105/128 474/105/136 475/111/137 
f 466/101/131 463/100/130 475/111/137 476/112/138 
f 470/103/133 467/102/132 476/112/138 473/109/135 
f 459/98/128 458/97/127 474/110/136 
f 463/100/130 462/99/129 475/111/137 
f 467/102/132 466/101/131 476/112/138 
f 471/104/134 470/103/133 473/109/135 
f 427/82/108 426/81/107 477/113/139 
f 431/84/110 430/83/109 478/114/140 
f 435/86/112 434/85/111 479/115/141 
f 439/88/116 438/87/115 480/116/142 
f 426/81/107 439/88/116 480/116/142 477/113/139 
f 430/83/109 427/106/108 477/106/139 478/114/140 
f 434/85/111 431/84/110 478/114/140 479/115/141 
f 438/87/115 435/86/112 479/115/141 480/116/142 
f 443/90/119 442/89/118 481/117/143 482/118/144 
f 448/92/121 447/91/120 483/119/145 481/92/143 
f 452/94/124 451/93/123 484/120/146 483/119/145 
f 456/96/126 455/95/125 482/118/144 484/120/146 
f 442/89/118 448/107/121 481/117/143 
f 447/91/120 452/94/124 483/119/145 
f 451/93/123 456/96/126 484/120/146 
f 455/95/125 443/90/119 482/118/144 
f 411/74/100 410/73/99 485/121/147 486/122/148 
f 416/76/102 415/75/101 487/123/149 485/76/147 
f 420/78/104 419/77/103 488/124/150 487/123/149 
f 424/80/106 423/79/105 486/122/148 488/124/150 
f 410/73/99 416/108/102 485/121/147 
f 415/75/101 420/78/104 487/123/149 
f 419/77/103 424/80/106 488/124/150 
f 423/79/105 411/74/100 486/122/148 
s 32
f 473/109/135 476/112/138 475/111/137 474/105/136 
f 480/116/142 479/115/141 478/114/140 477/106/139 
f 481/117/143 483/119/145 484/120/146 482/118/144 
f 485/121/147 487/123/149 488/124/150 486/122/148 
s 1
f 489/5/51 490/6/18 491/125/18 492/126/51 
s 2
f 490/9/18 493/10/28 494/127/28 491/128/18 
s 1
f 493/10/28 495/13/151 496/129/151 494/127/28 
s 2
f 495/13/151 497/15/48 498/130/48 496/129/151 
s 1
f 497/15/48 499/17/24 500/131/24 498/130/48 
s 2
f 499/17/24 501/19/39 502/132/39 500/131/24 
s 1
f 501/19/39 503/21/26 504/133/26 502/132/39 
s 2
f 503/21/26 489/5/51 492/126/51 504/133/26 
s 1
f 505/5/19 506/6/18 507/125/18 508/126/19 
s 2
f 506/9/18 509/10/28 510/127/28 507/128/18 
s 1
f 509/10/28 511/13/22 512/129/22 510/127/28 
s 2
f 511/13/22 513/15/29 514/130/29 512/129/22 
s 1
f 513/15/29 515/17/24 516/131/24 514/130/29 
s 2
f 515/17/24 517/19/25 518/132/25 516/131/24 
s 1
f 517/19/25 519/21/26 520/133/26 518/132/25 
s 2
f 519/21/26 505/5/19 508/126/19 520/133/26 
s 1
f 521/5/17 522/6/152 523/125/152 524/126/17 
s 2
f 522/9/152 525/10/44 526/127/44 523/128/152 
s 1
f 525/10/44 527/13/22 528/129/22 526/127/44 
s 2
f 527/13/22 529/15/48 530/130/48 528/129/22 
s 1
f 529/15/48 531/17/24 532/131/24 530/130/48 
s 2
f 531/17/24 533/19/39 534/132/39 532/131/24 
s 1
f 533/19/39 535/21/26 536/133/26 534/132/39 
s 2
f 535/21/26 521/5/17 524/126/17 536/133/26 
s 1
f 537/5/19 538/6/18 539/134/18 540/135/19 
s 2
f 538/9/18 541/10/44 542/136/44 539/137/18 
s 1
f 541/10/44 543/13/22 544/138/22 542/136/44 
s 2
f 543/13/22 545/15/30 546/139/30 544/138/22 
s 1
f 545/15/30 547/17/24 548/140/24 546/139/30 
s 2
f 547/17/24 549/19/39 550/141/39 548/140/24 
s 1
f 549/19/39 551/21/26 552/142/26 550/141/39 
s 2
f 551/21/26 537/5/19 540/135/19 552/142/26 
s 1
f 553/5/17 554/6/18 555/134/18 556/135/153 
s 2
f 554/9/18 557/10/44 558/136/44 555/137/18 
s 1
f 557/10/44 559/13/22 560/138/22 558/136/44 
s 2
f 559/13/22 561/15/48 562/139/48 560/138/22 
s 1
f 561/15/48 563/17/24 564/140/24 562/139/48 
s 2
f 563/17/24 565/19/39 566/141/39 564/140/24 
s 1
f 565/19/39 567/21/26 568/142/26 566/141/39 
s 2
f 567/21/26 553/5/17 556/135/153 568/142/26 
s 1
f 569/143/154 570/144/155 571/145/156 572/146/157 
f 573/147/158 574/148/159 575/149/160 576/150/161 
f 577/151/162 578/152/163 579/153/164 580/154/165 
f 581/155/166 582/156/167 583/157/168 584/158/169 
s 2
f 569/143/154 572/146/157 585/146/170 586/143/171 
s 4
f 573/147/158 576/150/161 587/150/172 588/147/173 
s 2
f 577/151/162 580/154/165 589/154/174 590/151/175 
s 4
f 581/155/166 584/158/169 591/158/176 592/155/177 
s 2
f 576/159/161 569/143/154 586/143/171 587/159/172 
f 580/154/165 573/147/158 588/147/173 589/154/174 
f 584/158/169 577/151/162 590/151/175 591/158/176 
f 572/146/157 581/155/166 592/155/177 585/146/170 
s 1
f 586/143/171 585/146/170 593/160/178 594/161/179 
f 588/147/173 587/150/172 594/150/179 595/162/178 
f 590/151/175 589/154/174 595/162/178 596/163/179 
f 592/155/177 591/158/176 596/163/179 593/160/178 
f 587/159/172 586/143/171 594/161/179 
f 589/154/174 588/147/173 595/162/178 
f 591/158/176 590/151/175 596/163/179 
f 585/146/170 592/155/177 593/160/178 
f 593/160/178 596/163/179 595/162/178 594/150/179 
s 8
f 570/144/155 569/143/154 576/159/161 575/164/160 
f 574/148/159 573/147/158 580/154/165 579/153/164 
f 578/152/163 577/151/162 584/158/169 583/157/168 
f 582/156/167 581/155/166 572/146/157 571/145/156 
s 1
f 597/143/180 598/146/181 571/145/156 570/144/155 
f 599/147/182 600/150/183 575/149/160 574/148/159 
f 601/151/184 602/154/185 579/153/164 578/152/163 
f 603/155/186 604/158/187 583/157/168 582/156/167 
s 2
f 597/143/180 605/143/188 606/146/189 598/146/181 
s 4
f 599/147/182 607/147/190 608/150/191 600/150/183 
s 2
f 601/151/184 609/151/192 610/154/193 602/154/185 
s 4
f 603/155/186 611/155/194 612/158/195 604/158/187 
s 2
f 600/159/183 608/159/191 605/143/188 597/143/180 
f 602/154/185 610/154/193 607/147/190 599/147/182 
f 604/158/187 612/158/195 609/151/192 601/151/184 
f 598/146/181 606/146/189 611/155/194 603/155/186 
s 1
f 605/143/188 613/161/17 614/160/196 606/146/189 
f 607/147/190 615/162/40 613/150/17 608/150/191 
f 609/151/192 616/163/197 615/162/40 610/154/193 
f 611/155/194 614/160/196 616/163/197 612/158/195 
f 608/159/191 613/161/17 605/143/188 
f 610/154/193 615/162/40 607/147/190 
f 612/158/195 616/163/197 609/151/192 
f 606/146/189 614/160/196 611/155/194 
f 614/160/196 613/150/17 615/162/40 616/163/197 
s 8
f 570/144/155 575/164/160 600/159/183 597/143/180 
f 574/148/159 579/153/164 602/154/185 599/147/182 
f 578/152/163 583/157/168 604/158/187 601/151/184 
f 582/156/167 571/145/156 598/146/181 603/155/186 
s 1
f 617/143/154 618/144/155 619/145/156 620/146/157 
f 621/147/158 622/148/198 623/149/160 624/150/161 
f 625/151/162 626/152/163 627/153/164 628/154/165 
f 629/155/166 630/156/167 631/157/168 632/158/169 
s 2
f 617/143/154 620/146/157 633/146/170 634/143/171 
s 4
f 621/147/158 624/150/161 635/150/172 636/147/173 
s 2
f 625/151/162 628/154/165 637/154/174 638/151/175 
s 4
f 629/155/166 632/158/169 639/158/176 640/155/177 
s 2
f 624/159/161 617/143/154 634/143/171 635/159/172 
f 628/154/165 621/147/158 636/147/173 637/154/174 
f 632/158/169 625/151/162 638/151/175 639/158/176 
f 620/146/157 629/155/166 640/155/177 633/146/170 
s 1
f 634/143/171 633/146/170 641/160/178 642/161/179 
f 636/147/173 635/150/172 642/150/179 643/162/178 
f 638/151/175 637/154/174 643/162/178 644/163/179 
f 640/155/177 639/158/176 644/163/179 641/160/178 
f 635/159/172 634/143/171 642/161/179 
f 637/154/174 636/147/173 643/162/178 
f 639/158/176 638/151/175 644/163/179 
f 633/146/170 640/155/177 641/160/178 
f 641/160/178 644/163/179 643/162/178 642/150/179 
s 8
f 618/144/155 617/143/154 624/159/161 623/164/160 
f 622/148/198 621/147/158 628/154/165 627/153/164 
f 626/152/163 625/151/162 632/158/169 631/157/168 
f 630/156/167 629/155/166 620/146/157 619/145/156 
s 1
f 645/143/180 646/146/181 619/145/156 618/144/155 
f 647/147/199 648/150/183 623/149/160 622/148/198 
f 649/151/184 650/154/185 627/153/164 626/152/163 
f 651/155/186 652/158/200 631/157/168 630/156/167 
s 2
f 645/143/180 653/143/188 654/146/189 646/146/181 
s 4
f 647/147/199 655/147/190 656/150/191 648/150/183 
s 2
f 649/151/184 657/151/192 658/154/193 650/154/185 
s 4
f 651/155/186 659/155/194 660/158/195 652/158/200 
s 2
f 648/159/183 656/159/191 653/143/188 645/143/180 
f 650/154/185 658/154/193 655/147/190 647/147/199 
f 652/158/200 660/158/195 657/151/192 649/151/184 
f 646/146/181 654/146/189 659/155/194 651/155/186 
s 1
f 653/143/188 661/161/17 662/160/196 654/146/189 
f 655/147/190 663/162/40 661/150/17 656/150/191 
f 657/151/192 664/163/197 663/162/40 658/154/193 
f 659/155/194 662/160/196 664/163/197 660/158/195 
f 656/159/191 661/161/17 653/143/188 
f 658/154/193 663/162/40 655/147/190 
f 660/158/195 664/163/197 657/151/192 
f 654/146/189 662/160/196 659/155/194 
f 662/160/196 661/150/17 663/162/40 664/163/197 
s 8
f 618/144/155 623/164/160 648/159/183 645/143/180 
f 622/148/198 627/153/164 650/154/185 647/147/199 
f 626/152/163 631/157/168 652/158/200 649/151/184 
f 630/156/167 619/145/156 646/146/181 651/155/186 
s 1
f 665/165/26 666/166/26 667/167/18 668/168/18 
f 669/169/18 670/170/18 671/171/26 672/172/26 
s 2
f 673/173/22 674/174/22 670/175/18 669/176/18 
s 1
f 675/177/24 676/178/24 677/179/22 678/180/22 
s 2
f 666/166/26 665/165/26 676/178/24 675/177/24 
f 672/172/26 671/171/26 679/181/24 680/182/24 
f 678/180/22 677/179/22 668/168/18 667/167/18 
s 1
f 680/182/24 679/181/24 674/174/22 673/173/22 
f 681/183/18 682/134/18 683/135/51 684/184/51 
s 2
f 685/185/28 686/136/28 682/137/18 681/186/18 
s 1
f 687/187/151 688/138/151 686/136/28 685/185/28 
s 2
f 689/188/48 690/139/48 688/138/151 687/187/151 
s 1
f 691/189/24 692/140/24 690/139/48 689/188/48 
s 2
f 693/190/39 694/141/39 692/140/24 691/189/24 
s 1
f 695/191/26 696/142/26 694/141/39 693/190/39 
s 2
f 684/184/51 683/135/51 696/142/26 695/191/26 
s 1
f 697/183/18 698/134/18 699/135/19 700/184/19 
s 2
f 701/185/28 702/136/28 698/137/18 697/186/18 
s 1
f 703/187/22 704/138/22 702/136/28 701/185/28 
s 2
f 705/188/29 706/139/29 704/138/22 703/187/22 
s 1
f 707/189/24 708/140/24 706/139/29 705/188/29 
s 2
f 709/190/25 710/141/25 708/140/24 707/189/24 
s 1
f 711/191/26 712/142/26 710/141/25 709/190/25 
s 2
f 700/184/19 699/135/19 712/142/26 711/191/26 
s 1
f 713/183/152 714/134/152 715/135/17 716/184/17 
s 2
f 717/185/44 718/136/44 714/137/152 713/186/152 
s 1
f 719/187/22 720/138/22 718/136/44 717/185/44 
s 2
f 721/188/48 722/139/48 720/138/22 719/187/22 
s 1
f 723/189/24 724/140/24 722/139/48 721/188/48 
s 2
f 725/190/39 726/141/39 724/140/24 723/189/24 
s 1
f 727/191/26 728/142/26 726/141/39 725/190/39 
s 2
f 716/184/17 715/135/17 728/142/26 727/191/26 
s 1
f 729/192/201 730/193/202 731/194/203 732/195/204 
f 733/196/205 734/197/206 735/198/207 736/199/208 
f 737/200/209 738/201/210 739/202/211 740/203/212 
f 741/204/213 742/205/214 743/206/215 744/207/216 
f 745/208/217 746/209/218 747/210/219 748/211/220 
f 749/212/221 750/213/222 751/214/223 752/215/224 
f 753/216/225 754/217/226 755/218/227 756/219/228 
f 757/220/229 758/221/230 759/222/231 760/223/232 
s 2
f 730/193/202 729/192/201 744/207/216 743/206/215 
f 734/197/206 733/196/205 732/224/204 731/225/203 
f 738/201/210 737/200/209 736/199/208 735/198/207 
f 742/205/214 741/204/213 740/203/212 739/202/211 
f 746/209/218 745/208/217 760/223/232 759/222/231 
f 750/213/222 749/212/221 748/226/220 747/227/219 
f 754/217/226 753/216/225 752/215/224 751/214/223 
f 758/221/230 757/220/229 756/219/228 755/218/227 
s 4
f 744/207/216 729/192/201 761/228/233 762/229/234 
f 732/224/204 733/196/205 763/230/235 761/224/233 
f 736/199/208 737/200/209 764/231/236 763/230/235 
f 740/203/212 741/204/213 762/229/234 764/231/236 
f 729/192/201 732/195/204 761/228/233 
f 733/196/205 736/199/208 763/230/235 
f 737/200/209 740/203/212 764/231/236 
f 741/204/213 744/207/216 762/229/234 
f 760/223/232 745/208/217 765/232/237 766/233/238 
f 748/226/220 749/212/221 767/234/239 765/226/237 
f 752/215/224 753/216/225 768/235/240 767/234/239 
f 756/219/228 757/220/229 766/233/238 768/235/240 
f 745/208/217 748/211/220 765/232/237 
f 749/212/221 752/215/224 767/234/239 
f 753/216/225 756/219/228 768/235/240 
f 757/220/229 760/223/232 766/233/238 
f 731/194/203 730/193/202 769/236/241 
f 735/198/207 734/197/206 770/237/242 
f 739/202/211 738/201/210 771/238/243 
f 743/206/215 742/205/214 772/239/244 
f 730/193/202 743/206/215 772/239/244 769/236/241 
f 734/197/206 731/225/203 769/225/241 770/237/242 
f 738/201/210 735/198/207 770/237/242 771/238/243 
f 742/205/214 739/202/211 771/238/243 772/239/244 
f 746/209/218 759/222/231 773/240/245 774/241/246 
f 750/213/222 747/227/219 774/227/246 775/242/247 
f 754/217/226 751/214/223 775/242/247 776/243/248 
f 758/221/230 755/218/227 776/243/248 773/240/245 
f 747/210/219 746/209/218 774/241/246 
f 751/214/223 750/213/222 775/242/247 
f 755/218/227 754/217/226 776/243/248 
f 759/222/231 758/221/230 773/240/245 
f 761/228/233 763/230/235 764/231/236 762/229/234 
f 765/232/237 767/234/239 768/235/240 766/233/238 
f 772/239/244 771/238/243 770/237/242 769/225/241 
f 773/240/245 776/243/248 775/242/247 774/227/246 
s 1
f 777/192/201 778/193/202 779/194/203 780/195/204 
f 781/196/205 782/197/206 783/198/207 784/199/208 
f 785/200/209 786/201/249 787/202/211 788/203/212 
f 789/204/213 790/205/214 791/206/215 792/207/216 
s 2
f 778/193/202 777/192/201 792/207/216 791/206/215 
f 782/197/206 781/196/205 780/224/204 779/225/203 
f 786/201/249 785/200/209 784/199/208 783/198/207 
f 790/205/214 789/204/213 788/203/212 787/202/211 
s 4
f 792/207/216 777/192/201 793/228/233 794/229/234 
f 780/224/204 781/196/205 795/230/235 793/224/233 
f 784/199/208 785/200/209 796/231/236 795/230/235 
f 788/203/212 789/204/213 794/229/234 796/231/236 
f 777/192/201 780/195/204 793/228/233 
f 781/196/205 784/199/208 795/230/235 
f 785/200/209 788/203/212 796/231/236 
f 789/204/213 792/207/216 794/229/234 
f 779/194/203 778/193/202 797/236/241 
f 783/198/207 782/197/206 798/237/242 
f 787/202/211 786/201/249 799/238/243 
f 791/206/215 790/205/214 800/239/244 
f 778/193/202 791/206/215 800/239/244 797/236/241 
f 782/197/206 779/225/203 797/225/241 798/237/242 
f 786/201/249 783/198/207 798/237/242 799/238/243 
f 790/205/214 787/202/211 799/238/243 800/239/244 
f 793/228/233 795/230/235 796/231/236 794/229/234 
f 800/239/244 799/238/243 798/237/242 797/225/241 
s 1
f 801/244/250 802/245/251 803/246/17 804/247/252 
s 2
f 805/248/253 801/249/250 804/250/252 806/251/254 
s 1
f 807/252/255 805/248/253 806/251/254 808/253/256 
s 2
f 809/254/257 807/252/255 808/253/256 810/255/30 
s 1
f 811/256/258 809/254/257 810/255/30 812/257/259 
s 2
f 813/258/260 811/256/258 812/257/259 814/259/261 
s 1
f 815/260/262 813/258/260 814/259/261 816/261/263 
s 2
f 802/245/251 815/260/262 816/261/263 803/246/17 
s 1
f 817/262/264 818/263/265 819/264/25 
f 818/265/265 820/266/266 819/264/25 
f 820/266/266 821/267/267 819/264/25 
f 821/267/267 822/268/268 819/264/25 
f 822/268/268 823/264/269 819/264/25 
f 823/264/269 824/269/270 819/264/25 
f 824/269/270 825/270/271 819/264/25 
f 825/270/271 817/262/264 819/264/25 
s 4
f 802/245/251 801/244/250 826/263/272 827/262/273 
s 8
f 801/249/250 805/248/253 828/266/274 826/265/272 
s 4
f 805/248/253 807/252/255 829/267/275 828/266/274 
s 8
f 807/252/255 809/254/257 830/268/276 829/267/275 
s 4
f 809/254/257 811/256/258 831/264/277 830/268/276 
s 8
f 811/256/258 813/258/260 832/269/278 831/264/277 
s 4
f 813/258/260 815/260/262 833/270/279 832/269/278 
s 8
f 815/260/262 802/245/251 827/262/273 833/270/279 
s off
f 827/262/273 826/263/272 818/263/265 817/262/264 
f 826/265/272 828/266/274 820/266/266 818/265/265 
f 828/266/274 829/267/275 821/267/267 820/266/266 
f 829/267/275 830/268/276 822/268/268 821/267/267 
f 830/268/276 831/264/277 823/264/269 822/268/268 
f 831/264/277 832/269/278 824/269/270 823/264/269 
f 832/269/278 833/270/279 825/270/271 824/269/270 
f 833/270/279 827/262/273 817/262/264 825/270/271 
s 1
f 834/244/280 804/247/252 803/246/17 835/245/281 
s 2
f 836/248/282 806/251/254 804/250/252 834/249/280 
s 1
f 837/252/283 808/253/256 806/251/254 836/248/282 
s 2
f 838/254/284 810/255/30 808/253/256 837/252/283 
s 1
f 839/256/285 812/257/259 810/255/30 838/254/284 
s 2
f 840/258/286 814/259/261 812/257/259 839/256/285 
s 1
f 841/260/287 816/261/263 814/259/261 840/258/286 
s 2
f 835/245/281 803/246/17 816/261/263 841/260/287 
s 1
f 842/262/288 843/264/28 844/263/289 
f 844/265/289 843/264/28 845/266/290 
f 845/266/290 843/264/28 846/267/291 
f 846/267/291 843/264/28 847/268/292 
f 847/268/292 843/264/28 848/264/293 
f 848/264/293 843/264/28 849/269/294 
f 849/269/294 843/264/28 850/270/295 
f 850/270/295 843/264/28 842/262/288 
s 4
f 835/245/281 851/262/296 852/263/297 834/244/280 
s 8
f 834/249/280 852/265/297 853/266/298 836/248/282 
s 4
f 836/248/282 853/266/298 854/267/299 837/252/283 
s 8
f 837/252/283 854/267/299 855/268/300 838/254/284 
s 4
f 838/254/284 855/268/300 856/264/301 839/256/285 
s 8
f 839/256/285 856/264/301 857/269/302 840/258/286 
s 4
f 840/258/286 857/269/302 858/270/303 841/260/287 
s 8
f 841/260/287 858/270/303 851/262/296 835/245/281 
s off
f 851/262/296 842/262/288 844/263/289 852/263/297 
f 852/265/297 844/265/289 845/266/290 853/266/298 
f 853/266/298 845/266/290 846/267/291 854/267/299 
f 854/267/299 846/267/291 847/268/292 855/268/300 
f 855/268/300 847/268/292 848/264/293 856/264/301 
f 856/264/301 848/264/293 849/269/294 857/269/302 
f 857/269/302 849/269/294 850/270/295 858/270/303 
f 858/270/303 850/270/295 842/262/288 851/262/296 
s 1
f 859/271/304 860/272/305 861/273/18 862/274/19 
s 2
f 860/275/305 863/276/306 864/277/28 861/278/18 
s 1
f 863/276/306 865/279/307 866/280/22 864/277/28 
s 2
f 865/279/307 867/281/308 868/282/30 866/280/22 
s 1
f 867/281/308 869/283/309 870/284/24 868/282/30 
s 2
f 869/283/309 871/285/310 872/286/25 870/284/24 
s 1
f 871/285/310 873/287/311 874/288/26 872/286/25 
s 2
f 873/287/311 859/271/304 862/274/19 874/288/26 
s 1
f 875/244/312 876/245/313 877/246/19 878/247/18 
s 2
f 879/248/314 875/249/312 878/250/18 880/251/28 
s 1
f 881/252/315 879/248/314 880/251/28 882/253/22 
s 2
f 883/254/316 881/252/315 882/253/22 884/255/30 
s 1
f 885/256/317 883/254/316 884/255/30 886/257/24 
s 2
f 887/258/318 885/256/317 886/257/24 888/259/25 
s 1
f 889/260/319 887/258/318 888/259/25 890/261/26 
s 2
f 876/245/313 889/260/319 890/261/26 877/246/19 
s 1
f 891/289/304 892/290/305 893/291/18 894/292/19 
s 2
f 892/293/305 895/294/306 896/295/28 893/296/18 
s 1
f 895/294/306 897/297/307 898/298/22 896/295/28 
s 2
f 897/297/307 899/299/308 900/300/30 898/298/22 
s 1
f 899/299/308 901/301/309 902/302/24 900/300/30 
s 2
f 901/301/309 903/303/310 904/304/25 902/302/24 
s 1
f 903/303/310 905/305/311 906/306/26 904/304/25 
s 2
f 905/305/311 891/289/304 894/292/19 906/306/26 
s 1
f 907/307/312 908/308/313 862/274/19 861/273/18 
s 2
f 909/309/314 907/310/312 861/278/18 864/277/28 
s 1
f 910/311/315 909/309/314 864/277/28 866/280/22 
s 2
f 911/312/316 910/311/315 866/280/22 868/282/30 
s 1
f 912/313/317 911/312/316 868/282/30 870/284/24 
s 2
f 913/314/318 912/313/317 870/284/24 872/286/25 
s 1
f 914/315/320 913/314/318 872/286/25 874/288/26 
s 2
f 908/308/313 914/315/320 874/288/26 862/274/19 
s 1
f 915/316/312 916/317/313 894/292/19 893/291/18 
s 2
f 917/318/314 915/319/312 893/296/18 896/295/28 
s 1
f 918/320/315 917/318/314 896/295/28 898/298/22 
s 2
f 919/321/316 918/320/315 898/298/22 900/300/30 
s 1
f 920/322/317 919/321/316 900/300/30 902/302/24 
s 2
f 921/323/318 920/322/317 902/302/24 904/304/25 
s 1
f 922/324/320 921/323/318 904/304/25 906/306/26 
s 2
f 916/317/313 922/324/320 906/306/26 894/292/19 
s 1
f 923/325/304 924/326/305 878/247/18 877/246/19 
s 2
f 924/327/305 925/328/306 880/251/28 878/250/18 
s 1
f 925/328/306 926/329/307 882/253/22 880/251/28 
s 2
f 926/329/307 927/330/308 884/255/30 882/253/22 
s 1
f 927/330/308 928/331/309 886/257/24 884/255/30 
s 2
f 928/331/309 929/332/310 888/259/25 886/257/24 
s 1
f 929/332/310 930/333/311 890/261/26 888/259/25 
s 2
f 930/333/311 923/325/304 877/246/19 890/261/26 
s 1
f 931/334/321 932/335/322 933/336/323 
f 934/337/324 931/338/321 933/336/323 
f 935/339/325 934/337/324 933/336/323 
f 936/340/326 935/339/325 933/336/323 
f 937/336/327 936/340/326 933/336/323 
f 938/341/328 937/336/327 933/336/323 
f 939/342/329 938/341/328 933/336/323 
f 932/335/322 939/342/329 933/336/323 
f 940/262/330 941/263/331 942/264/332 
f 941/265/331 943/266/333 942/264/332 
f 943/266/333 944/267/334 942/264/332 
f 944/267/334 945/268/335 942/264/332 
f 945/268/335 946/264/336 942/264/332 
f 946/264/336 947/269/337 942/264/332 
f 947/269/337 948/270/338 942/264/332 
f 948/270/338 940/262/330 942/264/332 
f 949/343/321 950/344/322 951/345/323 
f 952/346/324 949/347/321 951/345/323 
f 953/348/325 952/346/324 951/345/323 
f 954/349/326 953/348/325 951/345/323 
f 955/345/327 954/349/326 951/345/323 
f 956/350/328 955/345/327 951/345/323 
f 957/351/329 956/350/328 951/345/323 
f 950/344/322 957/351/329 951/345/323 
f 958/352/330 959/353/331 960/354/332 
f 959/355/331 961/356/333 960/354/332 
f 961/356/333 962/357/339 960/354/332 
f 962/357/339 963/358/335 960/354/332 
f 963/358/335 964/354/336 960/354/332 
f 964/354/336 965/359/337 960/354/332 
f 965/359/337 966/360/338 960/354/332 
f 966/360/338 958/352/330 960/354/332 
f 967/361/330 968/362/331 969/363/332 
f 968/364/331 970/365/333 969/363/332 
f 970/365/333 971/366/339 969/363/332 
f 971/366/339 972/367/335 969/363/332 
f 972/367/335 973/363/336 969/363/332 
f 973/363/336 974/368/337 969/363/332 
f 974/368/337 975/369/338 969/363/332 
f 975/369/338 967/361/330 969/363/332 
f 976/370/321 977/371/322 978/372/323 
f 979/373/324 976/374/321 978/372/323 
f 980/375/325 979/373/324 978/372/323 
f 981/376/326 980/375/325 978/372/323 
f 982/372/327 981/376/326 978/372/323 
f 983/377/328 982/372/327 978/372/323 
f 984/378/329 983/377/328 978/372/323 
f 977/371/322 984/378/329 978/372/323 
s 4
f 860/272/305 859/271/304 932/335/322 931/334/321 
s 8
f 863/276/306 860/275/305 931/338/321 934/337/324 
s 4
f 865/279/307 863/276/306 934/337/324 935/339/325 
s 8
f 867/281/308 865/279/307 935/339/325 936/340/326 
s 4
f 869/283/309 867/281/308 936/340/326 937/336/327 
s 8
f 871/285/310 869/283/309 937/336/327 938/341/328 
s 4
f 873/287/311 871/285/310 938/341/328 939/342/329 
s 8
f 859/271/304 873/287/311 939/342/329 932/335/322 
s 4
f 876/245/313 875/244/312 941/263/331 940/262/330 
s 8
f 875/249/312 879/248/314 943/266/333 941/265/331 
s 4
f 879/248/314 881/252/315 944/267/334 943/266/333 
s 8
f 881/252/315 883/254/316 945/268/335 944/267/334 
s 4
f 883/254/316 885/256/317 946/264/336 945/268/335 
s 8
f 885/256/317 887/258/318 947/269/337 946/264/336 
s 4
f 887/258/318 889/260/319 948/270/338 947/269/337 
s 8
f 889/260/319 876/245/313 940/262/330 948/270/338 
s 4
f 892/290/305 891/289/304 950/344/322 949/343/321 
s 8
f 895/294/306 892/293/305 949/347/321 952/346/324 
s 4
f 897/297/307 895/294/306 952/346/324 953/348/325 
s 8
f 899/299/308 897/297/307 953/348/325 954/349/326 
s 4
f 901/301/309 899/299/308 954/349/326 955/345/327 
s 8
f 903/303/310 901/301/309 955/345/327 956/350/328 
s 4
f 905/305/311 903/303/310 956/350/328 957/351/329 
s 8
f 891/289/304 905/305/311 957/351/329 950/344/322 
s 4
f 908/308/313 907/307/312 959/353/331 958/352/330 
s 8
f 907/310/312 909/309/314 961/356/333 959/355/331 
s 4
f 909/309/314 910/311/315 962/357/339 961/356/333 
s 8
f 910/311/315 911/312/316 963/358/335 962/357/339 
s 4
f 911/312/316 912/313/317 964/354/336 963/358/335 
s 8
f 912/313/317 913/314/318 965/359/337 964/354/336 
s 4
f 913/314/318 914/315/320 966/360/338 965/359/337 
s 8
f 914/315/320 908/308/313 958/352/330 966/360/338 
s 4
f 916/317/313 915/316/312 968/362/331 967/361/330 
s 8
f 915/319/312 917/318/314 970/365/333 968/364/331 
s 4
f 917/318/314 918/320/315 971/366/339 970/365/333 
s 8
f 918/320/315 919/321/316 972/367/335 971/366/339 
s 4
f 919/321/316 920/322/317 973/363/336 972/367/335 
s 8
f 920/322/317 921/323/318 974/368/337 973/363/336 
s 4
f 921/323/318 922/324/320 975/369/338 974/368/337 
s 8
f 922/324/320 916/317/313 967/361/330 975/369/338 
s 4
f 924/326/305 923/325/304 977/371/322 976/370/321 
s 8
f 925/328/306 924/327/305 976/374/321 979/373/324 
s 4
f 926/329/307 925/328/306 979/373/324 980/375/325 
s 8
f 927/330/308 926/329/307 980/375/325 981/376/326 
s 4
f 928/331/309 927/330/308 981/376/326 982/372/327 
s 8
f 929/332/310 928/331/309 982/372/327 983/377/328 
s 4
f 930/333/311 929/332/310 983/377/328 984/378/329 
s 8
f 923/325/304 930/333/311 984/378/329 977/371/322 
f 985/170/18 986/7/18 987/8/54 988/379/34 
f 989/380/41 990/11/41 986/12/18 985/175/18 
f 991/179/42 992/14/42 990/11/41 989/380/41 
f 993/381/29 994/16/30 992/14/42 991/179/42 
f 995/178/24 996/18/24 994/16/30 993/381/29 
f 997/382/25 998/20/39 996/18/24 995/178/24 
f 999/171/26 1000/22/26 998/20/39 997/382/25 
f 988/379/34 987/8/54 1000/22/26 999/171/26 
f 1001/170/18 1002/7/18 1003/8/19 1004/379/19 
f 1005/380/44 1006/11/28 1002/12/18 1001/175/18 
f 1007/179/22 1008/14/22 1006/11/28 1005/380/44 
f 1009/381/43 1010/16/37 1008/14/22 1007/179/22 
f 1011/178/24 1012/18/24 1010/16/37 1009/381/43 
f 1013/382/39 1014/20/25 1012/18/24 1011/178/24 
f 1015/171/26 1016/22/26 1014/20/25 1013/382/39 
f 1004/379/19 1003/8/19 1016/22/26 1015/171/26 
f 1017/170/27 1018/7/27 1019/8/17 1020/379/17 
f 1021/380/41 1022/11/41 1018/12/27 1017/175/27 
f 1023/179/42 1024/14/42 1022/11/41 1021/380/41 
f 1025/381/48 1026/16/48 1024/14/42 1023/179/42 
f 1027/178/24 1028/18/24 1026/16/48 1025/381/48 
f 1029/382/25 1030/20/39 1028/18/24 1027/178/24 
f 1031/171/26 1032/22/26 1030/20/39 1029/382/25 
f 1020/379/17 1019/8/17 1032/22/26 1031/171/26 
f 1033/170/27 1034/7/27 1035/8/40 1036/379/40 
f 1037/380/41 1038/11/21 1034/12/27 1033/175/27 
f 1039/179/42 1040/14/42 1038/11/21 1037/380/41 
f 1041/381/48 1042/16/30 1040/14/42 1039/179/42 
f 1043/178/24 1044/18/24 1042/16/30 1041/381/48 
f 1045/382/25 1046/20/39 1044/18/24 1043/178/24 
f 1047/171/26 1048/22/26 1046/20/39 1045/382/25 
f 1036/379/40 1035/8/40 1048/22/26 1047/171/26 
f 1049/170/27 1050/7/27 1051/8/19 1052/379/17 
f 1053/380/41 1054/11/21 1050/12/27 1049/175/27 
f 1055/179/42 1056/14/42 1054/11/21 1053/380/41 
f 1057/381/30 1058/16/30 1056/14/42 1055/179/42 
f 1059/178/24 1060/18/24 1058/16/30 1057/381/30 
f 1061/382/25 1062/20/25 1060/18/24 1059/178/24 
f 1063/171/26 1064/22/55 1062/20/25 1061/382/25 
f 1052/379/17 1051/8/19 1064/22/55 1063/171/26 
# 648 polygons - 128 triangles

