# 3ds Max Wavefront OBJ Exporter v0.99 - (c)2007 guruware
# File Created: 30.12.2025 14:46:49

mtllib PrisonCell_Module.mtl

#
# object CellModule_Cell
#

v  -3.7891 -2.2659 -4.5150
v  3.7891 -2.2659 -4.5150
v  3.7631 -2.2400 4.5150
v  -3.7631 -2.2400 4.5150
v  3.7891 2.2659 -4.5150
v  3.7631 2.2400 4.5150
v  -3.7891 2.2659 -4.5150
v  -3.7631 2.2400 4.5150
v  -3.5062 -1.2322 -4.5150
v  3.5062 -1.2322 -4.5150
v  3.5062 1.9019 -4.5150
v  -3.5062 1.9019 -4.5150
v  3.5322 -1.2581 2.2985
v  -3.5322 -1.2581 2.2985
v  3.5322 1.9278 2.2985
v  -3.5322 1.9278 2.2985
# 16 vertices

vn -0.5781 -0.5781 -0.5758
vn 0.5781 -0.5781 -0.5758
vn 0.5766 -0.5766 0.5789
vn -0.5766 -0.5766 0.5789
vn 0.5781 0.5781 -0.5758
vn 0.5766 0.5766 0.5789
vn -0.5781 0.5781 -0.5758
vn -0.5766 0.5766 0.5789
vn 0.3027 0.3027 -0.9037
vn -0.3027 0.3027 -0.9037
vn -0.3027 -0.3027 -0.9037
vn 0.3027 -0.3027 -0.9037
vn -0.5783 0.5783 -0.5754
vn 0.5783 0.5783 -0.5754
vn -0.5783 -0.5783 -0.5754
vn 0.5783 -0.5783 -0.5754
# 16 vertex normals

vt -0.0833 0.0000 1.0000
vt 0.0833 0.0000 1.0000
vt 0.0833 1.0000 1.0000
vt -0.0833 1.0000 1.0000
# 4 texture coords

o CellModule_Cell
g CellModule_Cell
usemtl Material__65
s off
f 1/1/1 2/2/2 3/2/3 4/1/4 
f 2/2/2 5/3/5 6/3/6 3/2/3 
f 5/3/5 7/4/7 8/4/8 6/3/6 
f 7/4/7 1/1/1 4/1/4 8/4/8 
s 1
f 3/2/3 6/3/6 8/4/8 4/1/4 
f 9/1/9 10/2/10 2/2/2 1/1/1 
f 10/2/10 11/3/11 5/3/5 2/2/2 
f 11/3/11 12/4/12 7/4/7 5/3/5 
f 12/4/12 9/1/9 1/1/1 7/4/7 
s off
f 13/2/13 10/2/10 9/1/9 14/1/14 
f 15/3/15 11/3/11 10/2/10 13/2/13 
f 16/4/16 12/4/12 11/3/11 15/3/15 
f 14/1/14 9/1/9 12/4/12 16/4/16 
s 1
f 16/4/16 15/3/15 13/2/13 14/1/14 
# 14 polygons

#
# object CellModule_SteelBarred
#

v  3.7049 -1.2418 -4.2082
v  3.6960 -1.2418 -4.2295
v  3.6960 2.1094 -4.2295
v  3.7049 2.1094 -4.2082
v  3.6747 -1.2418 -4.2383
v  3.6747 2.1094 -4.2383
v  3.6534 -1.2418 -4.2295
v  3.6534 2.1094 -4.2295
v  3.6446 -1.2418 -4.2082
v  3.6446 2.1094 -4.2082
v  3.6534 -1.2418 -4.1868
v  3.6534 2.1094 -4.1868
v  3.6747 -1.2418 -4.1780
v  3.6747 2.1094 -4.1780
v  3.6960 -1.2418 -4.1868
v  3.6960 2.1094 -4.1868
v  3.4049 -1.2418 -4.2082
v  3.3960 -1.2418 -4.2295
v  3.3960 2.1094 -4.2295
v  3.4049 2.1094 -4.2082
v  3.3747 -1.2418 -4.2383
v  3.3747 2.1094 -4.2383
v  3.3534 -1.2418 -4.2295
v  3.3534 2.1094 -4.2295
v  3.3446 -1.2418 -4.2082
v  3.3446 2.1094 -4.2082
v  3.3534 -1.2418 -4.1868
v  3.3534 2.1094 -4.1868
v  3.3747 -1.2418 -4.1780
v  3.3747 2.1094 -4.1780
v  3.3960 -1.2418 -4.1868
v  3.3960 2.1094 -4.1868
v  3.1049 -1.2418 -4.2082
v  3.0960 -1.2418 -4.2295
v  3.0960 2.1094 -4.2295
v  3.1049 2.1094 -4.2082
v  3.0747 -1.2418 -4.2383
v  3.0747 2.1094 -4.2383
v  3.0534 -1.2418 -4.2295
v  3.0534 2.1094 -4.2295
v  3.0446 -1.2418 -4.2082
v  3.0446 2.1094 -4.2082
v  3.0534 -1.2418 -4.1868
v  3.0534 2.1094 -4.1868
v  3.0747 -1.2418 -4.1780
v  3.0747 2.1094 -4.1780
v  3.0960 -1.2418 -4.1868
v  3.0960 2.1094 -4.1868
v  2.8049 -1.2418 -4.2082
v  2.7960 -1.2418 -4.2295
v  2.7960 2.1094 -4.2295
v  2.8049 2.1094 -4.2082
v  2.7747 -1.2418 -4.2383
v  2.7747 2.1094 -4.2383
v  2.7534 -1.2418 -4.2295
v  2.7534 2.1094 -4.2295
v  2.7446 -1.2418 -4.2082
v  2.7446 2.1094 -4.2082
v  2.7534 -1.2418 -4.1868
v  2.7534 2.1094 -4.1868
v  2.7747 -1.2418 -4.1780
v  2.7747 2.1094 -4.1780
v  2.7960 -1.2418 -4.1868
v  2.7960 2.1094 -4.1868
v  2.5049 -1.2418 -4.2082
v  2.4960 -1.2418 -4.2295
v  2.4960 2.1094 -4.2295
v  2.5049 2.1094 -4.2082
v  2.4747 -1.2418 -4.2383
v  2.4747 2.1094 -4.2383
v  2.4534 -1.2418 -4.2295
v  2.4534 2.1094 -4.2295
v  2.4446 -1.2418 -4.2082
v  2.4446 2.1094 -4.2082
v  2.4534 -1.2418 -4.1868
v  2.4534 2.1094 -4.1868
v  2.4747 -1.2418 -4.1780
v  2.4747 2.1094 -4.1780
v  2.4960 -1.2418 -4.1868
v  2.4960 2.1094 -4.1868
v  2.2049 -1.2418 -4.2082
v  2.1960 -1.2418 -4.2295
v  2.1960 2.1094 -4.2295
v  2.2049 2.1094 -4.2082
v  2.1747 -1.2418 -4.2383
v  2.1747 2.1094 -4.2383
v  2.1534 -1.2418 -4.2295
v  2.1534 2.1094 -4.2295
v  2.1446 -1.2418 -4.2082
v  2.1446 2.1094 -4.2082
v  2.1534 -1.2418 -4.1868
v  2.1534 2.1094 -4.1868
v  2.1747 -1.2418 -4.1780
v  2.1747 2.1094 -4.1780
v  2.1960 -1.2418 -4.1868
v  2.1960 2.1094 -4.1868
v  1.9049 -1.2418 -4.2082
v  1.8960 -1.2418 -4.2295
v  1.8960 2.1094 -4.2295
v  1.9049 2.1094 -4.2082
v  1.8747 -1.2418 -4.2383
v  1.8747 2.1094 -4.2383
v  1.8534 -1.2418 -4.2295
v  1.8534 2.1094 -4.2295
v  1.8446 -1.2418 -4.2082
v  1.8446 2.1094 -4.2082
v  1.8534 -1.2418 -4.1868
v  1.8534 2.1094 -4.1868
v  1.8747 -1.2418 -4.1780
v  1.8747 2.1094 -4.1780
v  1.8960 -1.2418 -4.1868
v  1.8960 2.1094 -4.1868
v  1.6049 -1.2418 -4.2082
v  1.5960 -1.2418 -4.2295
v  1.5960 2.1094 -4.2295
v  1.6049 2.1094 -4.2082
v  1.5747 -1.2418 -4.2383
v  1.5747 2.1094 -4.2383
v  1.5534 -1.2418 -4.2295
v  1.5534 2.1094 -4.2295
v  1.5446 -1.2418 -4.2082
v  1.5446 2.1094 -4.2082
v  1.5534 -1.2418 -4.1868
v  1.5534 2.1094 -4.1868
v  1.5747 -1.2418 -4.1780
v  1.5747 2.1094 -4.1780
v  1.5960 -1.2418 -4.1868
v  1.5960 2.1094 -4.1868
v  1.3049 -1.2418 -4.2082
v  1.2960 -1.2418 -4.2295
v  1.2960 2.1094 -4.2295
v  1.3049 2.1094 -4.2082
v  1.2747 -1.2418 -4.2383
v  1.2747 2.1094 -4.2383
v  1.2534 -1.2418 -4.2295
v  1.2534 2.1094 -4.2295
v  1.2446 -1.2418 -4.2082
v  1.2446 2.1094 -4.2082
v  1.2534 -1.2418 -4.1868
v  1.2534 2.1094 -4.1868
v  1.2747 -1.2418 -4.1780
v  1.2747 2.1094 -4.1780
v  1.2960 -1.2418 -4.1868
v  1.2960 2.1094 -4.1868
v  1.0049 -1.2418 -4.2082
v  0.9960 -1.2418 -4.2295
v  0.9960 2.1094 -4.2295
v  1.0049 2.1094 -4.2082
v  0.9747 -1.2418 -4.2383
v  0.9747 2.1094 -4.2383
v  0.9534 -1.2418 -4.2295
v  0.9534 2.1094 -4.2295
v  0.9446 -1.2418 -4.2082
v  0.9446 2.1094 -4.2082
v  0.9534 -1.2418 -4.1868
v  0.9534 2.1094 -4.1868
v  0.9747 -1.2418 -4.1780
v  0.9747 2.1094 -4.1780
v  0.9960 -1.2418 -4.1868
v  0.9960 2.1094 -4.1868
v  -0.7951 -1.2418 -4.2082
v  -0.8040 -1.2418 -4.2295
v  -0.8040 2.1094 -4.2295
v  -0.7951 2.1094 -4.2082
v  -0.8253 -1.2418 -4.2383
v  -0.8253 2.1094 -4.2383
v  -0.8466 -1.2418 -4.2295
v  -0.8466 2.1094 -4.2295
v  -0.8554 -1.2418 -4.2082
v  -0.8554 2.1094 -4.2082
v  -0.8466 -1.2418 -4.1868
v  -0.8466 2.1094 -4.1868
v  -0.8253 -1.2418 -4.1780
v  -0.8253 2.1094 -4.1780
v  -0.8040 -1.2418 -4.1868
v  -0.8040 2.1094 -4.1868
v  -1.0951 -1.2418 -4.2082
v  -1.1040 -1.2418 -4.2295
v  -1.1040 2.1094 -4.2295
v  -1.0951 2.1094 -4.2082
v  -1.1253 -1.2418 -4.2383
v  -1.1253 2.1094 -4.2383
v  -1.1466 -1.2418 -4.2295
v  -1.1466 2.1094 -4.2295
v  -1.1554 -1.2418 -4.2082
v  -1.1554 2.1094 -4.2082
v  -1.1466 -1.2418 -4.1868
v  -1.1466 2.1094 -4.1868
v  -1.1253 -1.2418 -4.1780
v  -1.1253 2.1094 -4.1780
v  -1.1040 -1.2418 -4.1868
v  -1.1040 2.1094 -4.1868
v  -1.3951 -1.2418 -4.2082
v  -1.4040 -1.2418 -4.2295
v  -1.4040 2.1094 -4.2295
v  -1.3951 2.1094 -4.2082
v  -1.4253 -1.2418 -4.2383
v  -1.4253 2.1094 -4.2383
v  -1.4466 -1.2418 -4.2295
v  -1.4466 2.1094 -4.2295
v  -1.4554 -1.2418 -4.2082
v  -1.4554 2.1094 -4.2082
v  -1.4466 -1.2418 -4.1868
v  -1.4466 2.1094 -4.1868
v  -1.4253 -1.2418 -4.1780
v  -1.4253 2.1094 -4.1780
v  -1.4040 -1.2418 -4.1868
v  -1.4040 2.1094 -4.1868
v  -1.6951 -1.2418 -4.2082
v  -1.7040 -1.2418 -4.2295
v  -1.7040 2.1094 -4.2295
v  -1.6951 2.1094 -4.2082
v  -1.7253 -1.2418 -4.2383
v  -1.7253 2.1094 -4.2383
v  -1.7466 -1.2418 -4.2295
v  -1.7466 2.1094 -4.2295
v  -1.7554 -1.2418 -4.2082
v  -1.7554 2.1094 -4.2082
v  -1.7466 -1.2418 -4.1868
v  -1.7466 2.1094 -4.1868
v  -1.7253 -1.2418 -4.1780
v  -1.7253 2.1094 -4.1780
v  -1.7040 -1.2418 -4.1868
v  -1.7040 2.1094 -4.1868
v  -1.9951 -1.2418 -4.2082
v  -2.0040 -1.2418 -4.2295
v  -2.0040 2.1094 -4.2295
v  -1.9951 2.1094 -4.2082
v  -2.0253 -1.2418 -4.2383
v  -2.0253 2.1094 -4.2383
v  -2.0466 -1.2418 -4.2295
v  -2.0466 2.1094 -4.2295
v  -2.0554 -1.2418 -4.2082
v  -2.0554 2.1094 -4.2082
v  -2.0466 -1.2418 -4.1868
v  -2.0466 2.1094 -4.1868
v  -2.0253 -1.2418 -4.1780
v  -2.0253 2.1094 -4.1780
v  -2.0040 -1.2418 -4.1868
v  -2.0040 2.1094 -4.1868
v  -2.2951 -1.2418 -4.2082
v  -2.3040 -1.2418 -4.2295
v  -2.3040 2.1094 -4.2295
v  -2.2951 2.1094 -4.2082
v  -2.3253 -1.2418 -4.2383
v  -2.3253 2.1094 -4.2383
v  -2.3466 -1.2418 -4.2295
v  -2.3466 2.1094 -4.2295
v  -2.3554 -1.2418 -4.2082
v  -2.3554 2.1094 -4.2082
v  -2.3466 -1.2418 -4.1868
v  -2.3466 2.1094 -4.1868
v  -2.3253 -1.2418 -4.1780
v  -2.3253 2.1094 -4.1780
v  -2.3040 -1.2418 -4.1868
v  -2.3040 2.1094 -4.1868
v  -2.5951 -1.2418 -4.2082
v  -2.6040 -1.2418 -4.2295
v  -2.6040 2.1094 -4.2295
v  -2.5951 2.1094 -4.2082
v  -2.6253 -1.2418 -4.2383
v  -2.6253 2.1094 -4.2383
v  -2.6466 -1.2418 -4.2295
v  -2.6466 2.1094 -4.2295
v  -2.6554 -1.2418 -4.2082
v  -2.6554 2.1094 -4.2082
v  -2.6466 -1.2418 -4.1868
v  -2.6466 2.1094 -4.1868
v  -2.6253 -1.2418 -4.1780
v  -2.6253 2.1094 -4.1780
v  -2.6040 -1.2418 -4.1868
v  -2.6040 2.1094 -4.1868
v  -2.8951 -1.2418 -4.2082
v  -2.9040 -1.2418 -4.2295
v  -2.9040 2.1094 -4.2295
v  -2.8951 2.1094 -4.2082
v  -2.9253 -1.2418 -4.2383
v  -2.9253 2.1094 -4.2383
v  -2.9466 -1.2418 -4.2295
v  -2.9466 2.1094 -4.2295
v  -2.9554 -1.2418 -4.2082
v  -2.9554 2.1094 -4.2082
v  -2.9466 -1.2418 -4.1868
v  -2.9466 2.1094 -4.1868
v  -2.9253 -1.2418 -4.1780
v  -2.9253 2.1094 -4.1780
v  -2.9040 -1.2418 -4.1868
v  -2.9040 2.1094 -4.1868
v  -3.1951 -1.2418 -4.2082
v  -3.2040 -1.2418 -4.2295
v  -3.2040 2.1094 -4.2295
v  -3.1951 2.1094 -4.2082
v  -3.2253 -1.2418 -4.2383
v  -3.2253 2.1094 -4.2383
v  -3.2466 -1.2418 -4.2295
v  -3.2466 2.1094 -4.2295
v  -3.2554 -1.2418 -4.2082
v  -3.2554 2.1094 -4.2082
v  -3.2466 -1.2418 -4.1868
v  -3.2466 2.1094 -4.1868
v  -3.2253 -1.2418 -4.1780
v  -3.2253 2.1094 -4.1780
v  -3.2040 -1.2418 -4.1868
v  -3.2040 2.1094 -4.1868
v  -3.4951 -1.2418 -4.2082
v  -3.5040 -1.2418 -4.2295
v  -3.5040 2.1094 -4.2295
v  -3.4951 2.1094 -4.2082
v  -3.5253 -1.2418 -4.2383
v  -3.5253 2.1094 -4.2383
v  -3.5466 -1.2418 -4.2295
v  -3.5466 2.1094 -4.2295
v  -3.5554 -1.2418 -4.2082
v  -3.5554 2.1094 -4.2082
v  -3.5466 -1.2418 -4.1868
v  -3.5466 2.1094 -4.1868
v  -3.5253 -1.2418 -4.1780
v  -3.5253 2.1094 -4.1780
v  -3.5040 -1.2418 -4.1868
v  -3.5040 2.1094 -4.1868
v  -3.8844 1.2582 -4.2501
v  3.8844 1.2582 -4.2501
v  3.8844 1.2582 -4.1943
v  -3.8844 1.2582 -4.1943
v  -3.8844 1.2680 -4.2604
v  -3.8844 1.3685 -4.2604
v  3.8844 1.3685 -4.2604
v  3.8844 1.2680 -4.2604
v  -3.8844 1.3784 -4.2501
v  -3.8844 1.3784 -4.1943
v  3.8844 1.3784 -4.1943
v  3.8844 1.3784 -4.2501
v  -3.8844 1.3685 -4.1840
v  -3.8844 1.2680 -4.1840
v  3.8844 1.2680 -4.1840
v  3.8844 1.3685 -4.1840
v  -0.6244 -1.2418 -4.2422
v  -0.6244 -1.2418 -4.2005
v  -0.6244 2.1094 -4.2005
v  -0.6244 2.1094 -4.2422
v  -0.5626 -1.2418 -4.2005
v  -0.5626 2.1094 -4.2005
v  0.9242 -1.2418 -4.2422
v  0.9242 2.1094 -4.2422
v  0.9242 2.1094 -4.2005
v  0.9242 -1.2418 -4.2005
v  0.8624 -1.2418 -4.2422
v  0.8624 2.1094 -4.2422
v  -0.5626 -1.2418 -4.2422
v  -0.5626 2.1094 -4.2422
v  0.8624 -1.2418 -4.2005
v  0.8624 2.1094 -4.2005
v  -3.8844 -1.2422 -4.2501
v  -0.5828 -1.2422 -4.2501
v  -0.5828 -1.2422 -4.1943
v  -3.8844 -1.2422 -4.1943
v  -3.8844 -1.2323 -4.2604
v  -3.8844 -1.1318 -4.2604
v  -0.5828 -1.1318 -4.2604
v  -0.5828 -1.2323 -4.2604
v  -3.8844 -1.1220 -4.2501
v  -3.8844 -1.1220 -4.1943
v  -0.5828 -1.1220 -4.1943
v  -0.5828 -1.1220 -4.2501
v  -3.8844 -1.1318 -4.1840
v  -3.8844 -1.2323 -4.1840
v  -0.5828 -1.2323 -4.1840
v  -0.5828 -1.1318 -4.1840
v  3.8844 -1.2422 -4.2501
v  0.8761 -1.2422 -4.2501
v  0.8761 -1.2323 -4.2604
v  3.8844 -1.2323 -4.2604
v  3.8844 -1.1318 -4.2604
v  0.8761 -1.1318 -4.2604
v  0.8761 -1.1220 -4.2501
v  3.8844 -1.1220 -4.2501
v  3.8844 -1.1220 -4.1943
v  0.8761 -1.1220 -4.1943
v  0.8761 -1.1318 -4.1840
v  3.8844 -1.1318 -4.1840
v  3.8844 -1.2323 -4.1840
v  0.8761 -1.2323 -4.1840
v  0.8761 -1.2422 -4.1943
v  3.8844 -1.2422 -4.1943
v  0.8656 -1.2224 -4.1980
v  0.8656 -1.2224 -4.2463
v  0.8656 -1.1417 -4.2463
v  0.8656 -1.1417 -4.1980
v  -0.5651 -1.2224 -4.2463
v  -0.5650 -1.2224 -4.1980
v  -0.5651 -1.1417 -4.2463
v  -0.5650 -1.1417 -4.1980
v  -3.8844 1.5922 -4.2501
v  3.8844 1.5922 -4.2501
v  3.8844 1.5922 -4.1943
v  -3.8844 1.5922 -4.1943
v  -3.8844 1.6021 -4.2604
v  -3.8844 1.7026 -4.2604
v  3.8844 1.7026 -4.2604
v  3.8844 1.6021 -4.2604
v  -3.8844 1.7124 -4.2501
v  -3.8844 1.7124 -4.1943
v  3.8844 1.7124 -4.1943
v  3.8844 1.7124 -4.2501
v  -3.8844 1.7026 -4.1840
v  -3.8844 1.6021 -4.1840
v  3.8844 1.6021 -4.1840
v  3.8844 1.7026 -4.1840
v  -3.8844 -0.2078 -4.2501
v  -0.5751 -0.2078 -4.2501
v  -0.5751 -0.2078 -4.1943
v  -3.8844 -0.2078 -4.1943
v  -3.8844 -0.1980 -4.2604
v  -3.8844 -0.1532 -4.2604
v  -0.5751 -0.1532 -4.2604
v  -0.5751 -0.1980 -4.2604
v  -3.8844 -0.1434 -4.2501
v  -3.8844 -0.1434 -4.1943
v  -0.5751 -0.1434 -4.1943
v  -0.5751 -0.1434 -4.2501
v  -3.8844 -0.1532 -4.1840
v  -3.8844 -0.1980 -4.1840
v  -0.5751 -0.1980 -4.1840
v  -0.5751 -0.1532 -4.1840
v  3.8844 -0.2078 -4.2501
v  0.8752 -0.2078 -4.2501
v  0.8752 -0.1980 -4.2604
v  3.8844 -0.1980 -4.2604
v  3.8844 -0.1532 -4.2604
v  0.8752 -0.1532 -4.2604
v  0.8752 -0.1434 -4.2501
v  3.8844 -0.1434 -4.2501
v  3.8844 -0.1434 -4.1943
v  0.8752 -0.1434 -4.1943
v  0.8752 -0.1532 -4.1840
v  3.8844 -0.1532 -4.1840
v  3.8844 -0.1980 -4.1840
v  0.8752 -0.1980 -4.1840
v  0.8752 -0.2078 -4.1943
v  3.8844 -0.2078 -4.1943
v  -3.8844 0.0247 -4.2501
v  -0.5762 0.0247 -4.2501
v  -0.5762 0.0247 -4.1943
v  -3.8844 0.0247 -4.1943
v  -3.8844 0.0346 -4.2604
v  -3.8844 0.0793 -4.2604
v  -0.5762 0.0793 -4.2604
v  -0.5762 0.0346 -4.2604
v  -3.8844 0.0892 -4.2501
v  -3.8844 0.0892 -4.1943
v  -0.5762 0.0892 -4.1943
v  -0.5762 0.0892 -4.2501
v  -3.8844 0.0793 -4.1840
v  -3.8844 0.0346 -4.1840
v  -0.5762 0.0346 -4.1840
v  -0.5762 0.0793 -4.1840
v  3.8844 0.0247 -4.2501
v  0.8773 0.0247 -4.2501
v  0.8773 0.0346 -4.2604
v  3.8844 0.0346 -4.2604
v  3.8844 0.0793 -4.2604
v  0.8773 0.0793 -4.2604
v  0.8773 0.0892 -4.2501
v  3.8844 0.0892 -4.2501
v  3.8844 0.0892 -4.1943
v  0.8773 0.0892 -4.1943
v  0.8773 0.0793 -4.1840
v  3.8844 0.0793 -4.1840
v  3.8844 0.0346 -4.1840
v  0.8773 0.0346 -4.1840
v  0.8773 0.0247 -4.1943
v  3.8844 0.0247 -4.1943
v  0.8671 0.0379 -4.1992
v  0.8671 0.0379 -4.2452
v  0.8671 0.0760 -4.2452
v  0.8671 0.0760 -4.1992
v  0.8650 -0.1946 -4.2452
v  0.8650 -0.1566 -4.2452
v  0.8650 -0.1566 -4.1992
v  0.8650 -0.1946 -4.1992
v  -0.5680 0.0379 -4.2452
v  -0.5680 0.0379 -4.1992
v  -0.5680 0.0760 -4.2452
v  -0.5680 0.0760 -4.1992
v  -0.5669 -0.1946 -4.2452
v  -0.5669 -0.1946 -4.1992
v  -0.5669 -0.1566 -4.2452
v  -0.5669 -0.1566 -4.1992
v  0.4541 -1.1869 -4.2519
v  0.4452 -1.1869 -4.2734
v  0.4452 -0.1692 -4.2734
v  0.4541 -0.1692 -4.2519
v  0.4236 -1.1869 -4.2823
v  0.4236 -0.1692 -4.2823
v  0.4021 -1.1869 -4.2734
v  0.4021 -0.1692 -4.2734
v  0.3932 -1.1869 -4.2519
v  0.3932 -0.1692 -4.2519
v  0.4021 -1.1869 -4.2303
v  0.4021 -0.1692 -4.2303
v  0.4236 -1.1869 -4.2214
v  0.4236 -0.1692 -4.2214
v  0.4452 -1.1869 -4.2303
v  0.4452 -0.1692 -4.2303
v  0.2007 -1.1869 -4.2519
v  0.1917 -1.1869 -4.2734
v  0.1917 -0.1692 -4.2734
v  0.2007 -0.1692 -4.2519
v  0.1702 -1.1869 -4.2823
v  0.1702 -0.1692 -4.2823
v  0.1487 -1.1869 -4.2734
v  0.1487 -0.1692 -4.2734
v  0.1398 -1.1869 -4.2519
v  0.1398 -0.1692 -4.2519
v  0.1487 -1.1869 -4.2303
v  0.1487 -0.1692 -4.2303
v  0.1702 -1.1869 -4.2214
v  0.1702 -0.1692 -4.2214
v  0.1917 -1.1869 -4.2303
v  0.1917 -0.1692 -4.2303
v  -0.0528 -1.1869 -4.2519
v  -0.0617 -1.1869 -4.2734
v  -0.0617 -0.1692 -4.2734
v  -0.0528 -0.1692 -4.2519
v  -0.0832 -1.1869 -4.2823
v  -0.0832 -0.1692 -4.2823
v  -0.1047 -1.1869 -4.2734
v  -0.1047 -0.1692 -4.2734
v  -0.1136 -1.1869 -4.2519
v  -0.1136 -0.1692 -4.2519
v  -0.1047 -1.1869 -4.2303
v  -0.1047 -0.1692 -4.2303
v  -0.0832 -1.1869 -4.2214
v  -0.0832 -0.1692 -4.2214
v  -0.0617 -1.1869 -4.2303
v  -0.0617 -0.1692 -4.2303
v  -0.3062 -1.1869 -4.2519
v  -0.3151 -1.1869 -4.2734
v  -0.3151 1.1718 -4.2734
v  -0.3062 1.1718 -4.2519
v  -0.3366 -1.1869 -4.2823
v  -0.3366 1.1718 -4.2823
v  -0.3581 -1.1869 -4.2734
v  -0.3581 1.1718 -4.2734
v  -0.3671 -1.1869 -4.2519
v  -0.3671 1.1718 -4.2519
v  -0.3581 -1.1869 -4.2303
v  -0.3581 1.1718 -4.2303
v  -0.3366 -1.1869 -4.2214
v  -0.3366 1.1718 -4.2214
v  -0.3151 -1.1869 -4.2303
v  -0.3151 1.1718 -4.2303
v  0.7046 -1.1869 -4.2519
v  0.6957 -1.1869 -4.2734
v  0.6957 1.1718 -4.2734
v  0.7046 1.1718 -4.2519
v  0.6742 -1.1869 -4.2823
v  0.6742 1.1718 -4.2823
v  0.6527 -1.1869 -4.2734
v  0.6527 1.1718 -4.2734
v  0.6437 -1.1869 -4.2519
v  0.6437 1.1718 -4.2519
v  0.6527 -1.1869 -4.2303
v  0.6527 1.1718 -4.2303
v  0.6742 -1.1869 -4.2214
v  0.6742 1.1718 -4.2214
v  0.6957 -1.1869 -4.2303
v  0.6957 1.1718 -4.2303
v  -0.4981 1.1555 -4.2888
v  0.1699 1.1555 -4.2888
v  0.1699 1.1555 -4.2171
v  -0.4981 1.1555 -4.2171
v  -0.4981 1.2274 -4.3020
v  0.1699 1.2274 -4.3020
v  0.1699 1.1653 -4.3020
v  -0.4981 1.1653 -4.3020
v  -0.4981 1.2373 -4.2171
v  0.1699 1.2373 -4.2171
v  0.1699 1.2373 -4.2888
v  -0.4981 1.2373 -4.2888
v  -0.4981 1.1653 -4.2039
v  0.1699 1.1653 -4.2039
v  0.1699 1.2274 -4.2039
v  -0.4981 1.2274 -4.2039
v  -0.5050 1.1629 -4.2236
v  -0.5050 1.1629 -4.2823
v  -0.5050 1.1710 -4.2931
v  -0.5050 1.2218 -4.2931
v  -0.5050 1.2298 -4.2823
v  -0.5050 1.2298 -4.2236
v  -0.5050 1.2218 -4.2128
v  -0.5050 1.1710 -4.2128
v  -0.5050 1.1713 -4.2234
v  -0.5050 1.1713 -4.2825
v  -0.5050 1.2214 -4.2825
v  -0.5050 1.2214 -4.2234
v  0.8379 1.1555 -4.2888
v  0.8379 1.1555 -4.2171
v  0.8379 1.2274 -4.3020
v  0.8379 1.1653 -4.3020
v  0.8379 1.2373 -4.2171
v  0.8379 1.2373 -4.2888
v  0.8379 1.1653 -4.2039
v  0.8379 1.2274 -4.2039
v  0.8448 1.1629 -4.2823
v  0.8448 1.1629 -4.2236
v  0.8448 1.2218 -4.2931
v  0.8448 1.1710 -4.2931
v  0.8448 1.2298 -4.2236
v  0.8448 1.2298 -4.2823
v  0.8448 1.1710 -4.2128
v  0.8448 1.2218 -4.2128
v  0.8448 1.1713 -4.2825
v  0.8448 1.1713 -4.2234
v  0.8448 1.2214 -4.2825
v  0.8448 1.2214 -4.2234
v  -0.4981 -1.1932 -4.2888
v  0.1699 -1.1932 -4.2888
v  0.1699 -1.1932 -4.2171
v  -0.4981 -1.1932 -4.2171
v  -0.4981 -1.1213 -4.3020
v  0.1699 -1.1213 -4.3020
v  0.1699 -1.1834 -4.3020
v  -0.4981 -1.1834 -4.3020
v  -0.4981 -1.1114 -4.2171
v  0.1699 -1.1114 -4.2171
v  0.1699 -1.1114 -4.2888
v  -0.4981 -1.1114 -4.2888
v  -0.4981 -1.1834 -4.2039
v  0.1699 -1.1834 -4.2039
v  0.1699 -1.1213 -4.2039
v  -0.4981 -1.1213 -4.2039
v  -0.5050 -1.1858 -4.2236
v  -0.5050 -1.1858 -4.2823
v  -0.5050 -1.1777 -4.2931
v  -0.5050 -1.1269 -4.2931
v  -0.5050 -1.1189 -4.2823
v  -0.5050 -1.1189 -4.2236
v  -0.5050 -1.1269 -4.2128
v  -0.5050 -1.1777 -4.2128
v  -0.5050 -1.1774 -4.2234
v  -0.5050 -1.1774 -4.2825
v  -0.5050 -1.1273 -4.2825
v  -0.5050 -1.1273 -4.2234
v  0.8379 -1.1932 -4.2888
v  0.8379 -1.1932 -4.2171
v  0.8379 -1.1213 -4.3020
v  0.8379 -1.1834 -4.3020
v  0.8379 -1.1114 -4.2171
v  0.8379 -1.1114 -4.2888
v  0.8379 -1.1834 -4.2039
v  0.8379 -1.1213 -4.2039
v  0.8448 -1.1858 -4.2823
v  0.8448 -1.1858 -4.2236
v  0.8448 -1.1269 -4.2931
v  0.8448 -1.1777 -4.2931
v  0.8448 -1.1189 -4.2236
v  0.8448 -1.1189 -4.2823
v  0.8448 -1.1777 -4.2128
v  0.8448 -1.1269 -4.2128
v  0.8448 -1.1774 -4.2825
v  0.8448 -1.1774 -4.2234
v  0.8448 -1.1273 -4.2825
v  0.8448 -1.1273 -4.2234
v  0.8341 1.2057 -4.2251
v  0.8341 -1.1399 -4.2251
v  0.8341 -1.1399 -4.2786
v  0.8341 1.2057 -4.2786
v  -0.4416 -1.1399 -4.2786
v  -0.4416 1.2057 -4.2786
v  -0.4416 1.2057 -4.2251
v  -0.4416 -1.1399 -4.2251
v  -0.5034 -1.1399 -4.2786
v  -0.5034 1.2057 -4.2786
v  0.7723 -1.1399 -4.2251
v  0.7723 1.2057 -4.2251
v  0.7723 1.2057 -4.2786
v  0.7723 -1.1399 -4.2786
v  -0.5034 1.2057 -4.2251
v  -0.5034 -1.1399 -4.2251
v  0.4452 0.0789 -4.2734
v  0.4452 1.1718 -4.2734
v  0.4541 1.1718 -4.2519
v  0.4541 0.0789 -4.2519
v  0.4236 0.0789 -4.2823
v  0.4236 1.1718 -4.2823
v  0.4021 0.0789 -4.2734
v  0.4021 1.1718 -4.2734
v  0.3932 0.0789 -4.2519
v  0.3932 1.1718 -4.2519
v  0.4021 0.0789 -4.2303
v  0.4021 1.1718 -4.2303
v  0.4236 0.0789 -4.2214
v  0.4236 1.1718 -4.2214
v  0.4452 0.0789 -4.2303
v  0.4452 1.1718 -4.2303
v  0.1917 0.0789 -4.2734
v  0.1917 1.1718 -4.2734
v  0.2007 1.1718 -4.2519
v  0.2007 0.0789 -4.2519
v  0.1702 0.0789 -4.2823
v  0.1702 1.1718 -4.2823
v  0.1487 0.0789 -4.2734
v  0.1487 1.1718 -4.2734
v  0.1398 0.0789 -4.2519
v  0.1398 1.1718 -4.2519
v  0.1487 0.0789 -4.2303
v  0.1487 1.1718 -4.2303
v  0.1702 0.0789 -4.2214
v  0.1702 1.1718 -4.2214
v  0.1917 0.0789 -4.2303
v  0.1917 1.1718 -4.2303
v  -0.0617 0.0789 -4.2734
v  -0.0617 1.1718 -4.2734
v  -0.0528 1.1718 -4.2519
v  -0.0528 0.0789 -4.2519
v  -0.0832 0.0789 -4.2823
v  -0.0832 1.1718 -4.2823
v  -0.1047 0.0789 -4.2734
v  -0.1047 1.1718 -4.2734
v  -0.1136 0.0789 -4.2519
v  -0.1136 1.1718 -4.2519
v  -0.1047 0.0789 -4.2303
v  -0.1047 1.1718 -4.2303
v  -0.0832 0.0789 -4.2214
v  -0.0832 1.1718 -4.2214
v  -0.0617 0.0789 -4.2303
v  -0.0617 1.1718 -4.2303
v  0.8065 0.0247 -4.2888
v  -0.4730 0.0247 -4.2888
v  -0.4730 0.0346 -4.3020
v  0.8065 0.0346 -4.3020
v  0.8065 0.0793 -4.3020
v  -0.4730 0.0793 -4.3020
v  -0.4730 0.0892 -4.2888
v  0.8065 0.0892 -4.2888
v  0.8065 0.0892 -4.2171
v  -0.4730 0.0892 -4.2171
v  -0.4730 0.0793 -4.2039
v  0.8065 0.0793 -4.2039
v  0.8065 0.0346 -4.2039
v  -0.4730 0.0346 -4.2039
v  -0.4730 0.0247 -4.2171
v  0.8065 0.0247 -4.2171
v  0.8043 -0.2078 -4.2888
v  -0.4741 -0.2078 -4.2888
v  -0.4741 -0.1980 -4.3020
v  0.8043 -0.1980 -4.3020
v  0.8043 -0.1532 -4.3020
v  -0.4741 -0.1532 -4.3020
v  -0.4741 -0.1434 -4.2888
v  0.8043 -0.1434 -4.2888
v  0.8043 -0.1434 -4.2171
v  -0.4741 -0.1434 -4.2171
v  -0.4741 -0.1532 -4.2039
v  0.8043 -0.1532 -4.2039
v  0.8043 -0.1980 -4.2039
v  -0.4741 -0.1980 -4.2039
v  -0.4741 -0.2078 -4.2171
v  0.8043 -0.2078 -4.2171
v  0.8194 0.0404 -4.2787
v  0.8194 0.0404 -4.2272
v  0.8194 0.0735 -4.2787
v  0.8194 0.0735 -4.2272
v  0.8171 -0.1922 -4.2787
v  0.8171 -0.1922 -4.2272
v  0.8171 -0.1590 -4.2787
v  0.8171 -0.1590 -4.2272
v  -0.4858 0.0404 -4.2787
v  -0.4858 0.0735 -4.2787
v  -0.4858 0.0735 -4.2272
v  -0.4858 0.0404 -4.2272
v  -0.4869 -0.1922 -4.2272
v  -0.4869 -0.1922 -4.2787
v  -0.4869 -0.1590 -4.2787
v  -0.4869 -0.1590 -4.2272
v  0.8065 0.0820 -4.2888
v  0.3925 0.0820 -4.2888
v  0.3925 0.0919 -4.3020
v  0.8065 0.0919 -4.3020
v  0.8065 0.2842 -4.3020
v  0.3925 0.2842 -4.3020
v  0.3925 0.2941 -4.2888
v  0.8065 0.2941 -4.2888
v  0.8065 0.2941 -4.2171
v  0.3925 0.2941 -4.2171
v  0.3925 0.2842 -4.2039
v  0.8065 0.2842 -4.2039
v  0.8065 0.0919 -4.2039
v  0.3925 0.0919 -4.2039
v  0.3925 0.0820 -4.2171
v  0.8065 0.0820 -4.2171
v  0.8194 0.0977 -4.2787
v  0.8194 0.0977 -4.2272
v  0.8194 0.2784 -4.2787
v  0.8194 0.2784 -4.2272
v  0.3797 0.0977 -4.2787
v  0.3797 0.2784 -4.2787
v  0.3797 0.2784 -4.2272
v  0.3797 0.0977 -4.2272
v  0.7172 0.2289 -4.1878
v  0.7335 0.1896 -4.1878
v  0.7335 0.1896 -4.2533
v  0.7172 0.2289 -4.2533
v  0.6778 0.2452 -4.1878
v  0.6778 0.2452 -4.2533
v  0.6385 0.2289 -4.1878
v  0.6385 0.2289 -4.2533
v  0.6222 0.1896 -4.1878
v  0.6222 0.1896 -4.2533
v  0.6385 0.1502 -4.1878
v  0.6385 0.1502 -4.2533
v  0.6778 0.1339 -4.1878
v  0.6778 0.1339 -4.2533
v  0.7172 0.1502 -4.1878
v  0.7172 0.1502 -4.2533
v  0.7064 0.1896 -4.1924
v  0.6980 0.2097 -4.1924
v  0.6778 0.1896 -4.1924
v  0.6778 0.2181 -4.1924
v  0.6576 0.2097 -4.1924
v  0.6493 0.1896 -4.1924
v  0.6576 0.1694 -4.1924
v  0.6778 0.1610 -4.1924
v  0.6980 0.1694 -4.1924
v  0.7008 0.2126 -4.1860
v  0.7104 0.1896 -4.1860
v  0.6778 0.2221 -4.1860
v  0.6548 0.2126 -4.1860
v  0.6453 0.1896 -4.1860
v  0.6548 0.1665 -4.1860
v  0.6778 0.1570 -4.1860
v  0.7008 0.1665 -4.1860
v  0.7172 0.2289 -4.3189
v  0.7335 0.1896 -4.3189
v  0.6778 0.2452 -4.3189
v  0.6385 0.2289 -4.3189
v  0.6222 0.1896 -4.3189
v  0.6385 0.1502 -4.3189
v  0.6778 0.1339 -4.3189
v  0.7172 0.1502 -4.3189
v  0.7064 0.1896 -4.3143
v  0.6778 0.1896 -4.3143
v  0.6980 0.2097 -4.3143
v  0.6778 0.2181 -4.3143
v  0.6576 0.2097 -4.3143
v  0.6493 0.1896 -4.3143
v  0.6576 0.1694 -4.3143
v  0.6778 0.1610 -4.3143
v  0.6980 0.1694 -4.3143
v  0.7104 0.1896 -4.3207
v  0.7008 0.2126 -4.3207
v  0.6778 0.2221 -4.3207
v  0.6548 0.2126 -4.3207
v  0.6453 0.1896 -4.3207
v  0.6548 0.1665 -4.3207
v  0.6778 0.1570 -4.3207
v  0.7008 0.1665 -4.3207
v  -0.4983 -0.9865 -4.2169
v  -0.5083 -0.9865 -4.2412
v  -0.5083 -0.8316 -4.2412
v  -0.4983 -0.8316 -4.2169
v  -0.5326 -0.9865 -4.2512
v  -0.5326 -0.8316 -4.2512
v  -0.5569 -0.9865 -4.2412
v  -0.5569 -0.8316 -4.2412
v  -0.5670 -0.9865 -4.2169
v  -0.5670 -0.8316 -4.2169
v  -0.5569 -0.9865 -4.1926
v  -0.5569 -0.8316 -4.1926
v  -0.5326 -0.9865 -4.1825
v  -0.5326 -0.8316 -4.1825
v  -0.5083 -0.9865 -4.1926
v  -0.5083 -0.8316 -4.1926
v  -0.5083 0.1983 -4.2412
v  -0.4983 0.1983 -4.2169
v  -0.4983 0.0434 -4.2169
v  -0.5083 0.0434 -4.2412
v  -0.5326 0.1983 -4.2512
v  -0.5326 0.0434 -4.2512
v  -0.5569 0.1983 -4.2412
v  -0.5569 0.0434 -4.2412
v  -0.5670 0.1983 -4.2169
v  -0.5670 0.0434 -4.2169
v  -0.5569 0.1983 -4.1926
v  -0.5569 0.0434 -4.1926
v  -0.5326 0.1983 -4.1825
v  -0.5326 0.0434 -4.1825
v  -0.5083 0.1983 -4.1926
v  -0.5083 0.0434 -4.1926
v  -0.4983 0.7634 -4.2169
v  -0.5083 0.7634 -4.2412
v  -0.5083 0.9183 -4.2412
v  -0.4983 0.9183 -4.2169
v  -0.5326 0.7634 -4.2512
v  -0.5326 0.9183 -4.2512
v  -0.5569 0.7634 -4.2412
v  -0.5569 0.9183 -4.2412
v  -0.5670 0.7634 -4.2169
v  -0.5670 0.9183 -4.2169
v  -0.5569 0.7634 -4.1926
v  -0.5569 0.9183 -4.1926
v  -0.5326 0.7634 -4.1825
v  -0.5326 0.9183 -4.1825
v  -0.5083 0.7634 -4.1926
v  -0.5083 0.9183 -4.1926
v  -0.5083 -0.6767 -4.2412
v  -0.4983 -0.6767 -4.2169
v  -0.5326 -0.6767 -4.2512
v  -0.5569 -0.6767 -4.2412
v  -0.5670 -0.6767 -4.2169
v  -0.5569 -0.6767 -4.1926
v  -0.5326 -0.6767 -4.1825
v  -0.5083 -0.6767 -4.1926
v  -0.5083 1.0732 -4.2412
v  -0.4983 1.0732 -4.2169
v  -0.5326 1.0732 -4.2512
v  -0.5569 1.0732 -4.2412
v  -0.5670 1.0732 -4.2169
v  -0.5569 1.0732 -4.1926
v  -0.5326 1.0732 -4.1825
v  -0.5083 1.0732 -4.1926
v  -0.4983 -0.1115 -4.2169
v  -0.5083 -0.1115 -4.2412
v  -0.5326 -0.1115 -4.2512
v  -0.5569 -0.1115 -4.2412
v  -0.5670 -0.1115 -4.2169
v  -0.5569 -0.1115 -4.1926
v  -0.5326 -0.1115 -4.1825
v  -0.5083 -0.1115 -4.1926
v  -0.5139 -0.9937 -4.2356
v  -0.5061 -0.9937 -4.2169
v  -0.5326 -0.9937 -4.2169
v  -0.5326 -0.9937 -4.2434
v  -0.5514 -0.9937 -4.2356
v  -0.5591 -0.9937 -4.2169
v  -0.5514 -0.9937 -4.1981
v  -0.5326 -0.9937 -4.1904
v  -0.5139 -0.9937 -4.1981
v  -0.5061 0.2055 -4.2169
v  -0.5139 0.2055 -4.2356
v  -0.5326 0.2055 -4.2169
v  -0.5326 0.2055 -4.2434
v  -0.5514 0.2055 -4.2356
v  -0.5591 0.2055 -4.2169
v  -0.5514 0.2055 -4.1981
v  -0.5326 0.2055 -4.1904
v  -0.5139 0.2055 -4.1981
v  -0.5139 0.7562 -4.2356
v  -0.5061 0.7562 -4.2169
v  -0.5326 0.7562 -4.2169
v  -0.5326 0.7562 -4.2434
v  -0.5514 0.7562 -4.2356
v  -0.5591 0.7562 -4.2169
v  -0.5514 0.7562 -4.1981
v  -0.5326 0.7562 -4.1904
v  -0.5139 0.7562 -4.1981
v  -0.5061 -0.6694 -4.2169
v  -0.5139 -0.6694 -4.2356
v  -0.5326 -0.6694 -4.2169
v  -0.5326 -0.6694 -4.2434
v  -0.5514 -0.6694 -4.2356
v  -0.5591 -0.6694 -4.2169
v  -0.5514 -0.6694 -4.1981
v  -0.5326 -0.6694 -4.1904
v  -0.5139 -0.6694 -4.1981
v  -0.5061 1.0805 -4.2169
v  -0.5139 1.0805 -4.2356
v  -0.5326 1.0805 -4.2169
v  -0.5326 1.0805 -4.2434
v  -0.5514 1.0805 -4.2356
v  -0.5591 1.0805 -4.2169
v  -0.5514 1.0805 -4.1981
v  -0.5326 1.0805 -4.1904
v  -0.5139 1.0805 -4.1981
v  -0.5139 -0.1187 -4.2356
v  -0.5061 -0.1187 -4.2169
v  -0.5326 -0.1187 -4.2169
v  -0.5326 -0.1187 -4.2434
v  -0.5514 -0.1187 -4.2356
v  -0.5591 -0.1187 -4.2169
v  -0.5514 -0.1187 -4.1981
v  -0.5326 -0.1187 -4.1904
v  -0.5139 -0.1187 -4.1981
v  0.6960 1.3300 -4.2295
v  0.6960 2.1094 -4.2295
v  0.7049 2.1094 -4.2082
v  0.7049 1.3300 -4.2082
v  0.6747 1.3300 -4.2383
v  0.6747 2.1094 -4.2383
v  0.6534 1.3300 -4.2295
v  0.6534 2.1094 -4.2295
v  0.6446 1.3300 -4.2082
v  0.6446 2.1094 -4.2082
v  0.6534 1.3300 -4.1868
v  0.6534 2.1094 -4.1868
v  0.6747 1.3300 -4.1780
v  0.6747 2.1094 -4.1780
v  0.6960 1.3300 -4.1868
v  0.6960 2.1094 -4.1868
v  0.3960 1.3300 -4.2295
v  0.3960 2.1094 -4.2295
v  0.4049 2.1094 -4.2082
v  0.4049 1.3300 -4.2082
v  0.3747 1.3300 -4.2383
v  0.3747 2.1094 -4.2383
v  0.3534 1.3300 -4.2295
v  0.3534 2.1094 -4.2295
v  0.3446 1.3300 -4.2082
v  0.3446 2.1094 -4.2082
v  0.3534 1.3300 -4.1868
v  0.3534 2.1094 -4.1868
v  0.3747 1.3300 -4.1780
v  0.3747 2.1094 -4.1780
v  0.3960 1.3300 -4.1868
v  0.3960 2.1094 -4.1868
v  0.0960 1.3300 -4.2295
v  0.0960 2.1094 -4.2295
v  0.1049 2.1094 -4.2082
v  0.1049 1.3300 -4.2082
v  0.0747 1.3300 -4.2383
v  0.0747 2.1094 -4.2383
v  0.0534 1.3300 -4.2295
v  0.0534 2.1094 -4.2295
v  0.0446 1.3300 -4.2082
v  0.0446 2.1094 -4.2082
v  0.0534 1.3300 -4.1868
v  0.0534 2.1094 -4.1868
v  0.0747 1.3300 -4.1780
v  0.0747 2.1094 -4.1780
v  0.0960 1.3300 -4.1868
v  0.0960 2.1094 -4.1868
v  -0.2040 1.3300 -4.2295
v  -0.2040 2.1094 -4.2295
v  -0.1951 2.1094 -4.2082
v  -0.1951 1.3300 -4.2082
v  -0.2253 1.3300 -4.2383
v  -0.2253 2.1094 -4.2383
v  -0.2466 1.3300 -4.2295
v  -0.2466 2.1094 -4.2295
v  -0.2554 1.3300 -4.2082
v  -0.2554 2.1094 -4.2082
v  -0.2466 1.3300 -4.1868
v  -0.2466 2.1094 -4.1868
v  -0.2253 1.3300 -4.1780
v  -0.2253 2.1094 -4.1780
v  -0.2040 1.3300 -4.1868
v  -0.2040 2.1094 -4.1868
v  -0.5040 1.3300 -4.2295
v  -0.5040 2.1094 -4.2295
v  -0.4951 2.1094 -4.2082
v  -0.4951 1.3300 -4.2082
v  -0.5253 1.3300 -4.2383
v  -0.5253 2.1094 -4.2383
v  -0.5466 1.3300 -4.2295
v  -0.5466 2.1094 -4.2295
v  -0.5554 1.3300 -4.2082
v  -0.5554 2.1094 -4.2082
v  -0.5466 1.3300 -4.1868
v  -0.5466 2.1094 -4.1868
v  -0.5253 1.3300 -4.1780
v  -0.5253 2.1094 -4.1780
v  -0.5040 1.3300 -4.1868
v  -0.5040 2.1094 -4.1868
# 1064 vertices

vn 1.0000 0.0000 -0.0000
vn 0.7071 -0.0000 -0.7071
vn 1.0000 0.0000 0.0000
vn 0.0001 -0.0000 -1.0000
vn -0.0000 -0.0000 -1.0000
vn -0.7071 -0.0000 -0.7071
vn -0.7070 -0.0000 -0.7072
vn -1.0000 -0.0000 0.0000
vn -1.0000 -0.0000 -0.0000
vn -0.7071 0.0000 0.7071
vn 0.0000 0.0000 1.0000
vn 0.7071 0.0000 0.7071
vn 0.7072 0.0000 0.7071
vn -0.7071 0.0000 -0.7071
vn -1.0000 0.0000 -0.0000
vn 1.0000 0.0000 0.0001
vn -1.0000 0.0000 0.0000
vn 0.7071 -0.0000 0.7071
vn 1.0000 -0.0000 -0.0000
vn 1.0000 -0.0000 -0.0001
vn -0.7071 -0.0000 0.7071
vn -0.0000 0.0000 1.0000
vn 1.0000 -0.0000 0.0000
vn 0.7072 -0.0000 -0.7070
vn -1.0000 -0.0000 0.0001
vn 0.0000 -0.0000 -1.0000
vn -1.0000 -0.0000 -0.0001
vn 0.7072 -0.0000 0.7071
vn 0.7072 -0.0000 -0.7071
vn -0.0001 -0.0000 -1.0000
vn -1.0000 0.0000 -0.0001
vn 0.0001 0.0000 1.0000
vn -0.7071 0.0000 -0.7072
vn 0.7071 -0.0000 -0.7072
vn 0.7071 0.0000 -0.7071
vn 1.0000 0.0000 -0.0001
vn -0.0001 0.0000 1.0000
vn 0.7072 0.0000 -0.7070
vn 0.7072 0.0000 -0.7071
vn -0.0001 0.0000 -1.0000
vn -0.0000 0.0000 -1.0000
vn 0.7072 0.0000 0.7070
vn 0.0000 -0.9498 -0.3128
vn 0.0000 -0.9498 0.3128
vn -0.0000 -0.4505 -0.8928
vn -0.0000 0.4504 -0.8928
vn -0.0000 0.4505 -0.8928
vn 0.0000 0.9498 -0.3128
vn -0.0000 0.9498 0.3128
vn -0.0000 0.4505 0.8928
vn -0.0000 -0.4505 0.8928
vn -0.0000 -0.4504 0.8928
vn -0.7072 0.0000 0.7070
vn -0.7070 0.0000 -0.7072
vn 0.7070 -0.0000 0.7073
vn 0.7072 -0.0000 0.7070
vn -0.7072 0.0000 -0.7070
vn 0.7070 0.0000 -0.7072
vn -0.7072 -0.0000 0.7070
vn 0.3313 -0.8972 -0.2921
vn 0.3313 -0.8972 0.2921
vn -0.0000 -0.9498 0.3128
vn 0.0000 -0.4504 -0.8928
vn 0.0000 0.4504 -0.8928
vn 0.3271 0.4271 -0.8429
vn 0.3271 -0.4272 -0.8429
vn 0.3314 0.8971 0.2921
vn 0.3313 0.8972 -0.2921
vn 0.0000 0.4505 0.8928
vn 0.0000 -0.4505 0.8928
vn 0.3271 -0.4272 0.8429
vn 0.3271 0.4271 0.8429
vn -0.0000 -0.9498 -0.3128
vn -0.4353 -0.8560 -0.2788
vn -0.4254 -0.4090 -0.8073
vn -0.4253 0.4090 -0.8074
vn -0.4353 0.8560 -0.2788
vn -0.0000 0.9498 -0.3127
vn 0.0000 0.9498 0.3128
vn -0.4353 0.8560 0.2788
vn -0.4254 0.4090 0.8073
vn -0.4254 -0.4090 0.8073
vn -0.4353 -0.8560 0.2787
vn -0.9356 -0.2406 0.2582
vn -0.9356 -0.2407 -0.2582
vn -0.9356 0.2407 -0.2582
vn -0.9356 0.2407 0.2582
vn 0.8688 -0.3412 -0.3589
vn 0.8688 -0.3412 0.3589
vn 0.8688 0.3412 -0.3589
vn 0.8688 0.3412 0.3589
vn 0.0000 -0.9498 -0.3127
vn -0.0000 -0.9498 0.3127
vn -0.0000 0.9498 -0.3128
vn -0.0000 0.4504 0.8928
vn 0.0000 -0.4504 0.8928
vn 0.4197 -0.8605 -0.2889
vn 0.4197 -0.8605 0.2888
vn 0.0000 0.4505 -0.8928
vn 0.4541 0.3890 -0.8016
vn 0.4541 -0.3890 -0.8016
vn 0.4197 0.8605 0.2888
vn 0.4197 0.8605 -0.2888
vn 0.4541 -0.3890 0.8016
vn 0.4541 0.3890 0.8016
vn -0.3780 -0.8776 -0.2947
vn -0.4196 -0.3953 -0.8171
vn -0.4196 0.3953 -0.8171
vn -0.3780 0.8776 -0.2947
vn -0.3780 0.8776 0.2947
vn -0.4196 0.3953 0.8171
vn 0.0000 0.4504 0.8928
vn -0.4196 -0.3953 0.8171
vn -0.3780 -0.8776 0.2947
vn 0.4191 -0.8607 -0.2889
vn 0.4191 -0.8608 0.2889
vn 0.0000 -0.4505 -0.8928
vn 0.4537 0.3890 -0.8018
vn 0.4536 -0.3890 -0.8018
vn 0.4191 0.8608 0.2889
vn 0.4191 0.8607 -0.2890
vn 0.4537 -0.3891 0.8018
vn 0.4537 0.3891 0.8017
vn -0.3771 -0.8780 -0.2948
vn -0.4188 -0.3954 -0.8175
vn -0.4188 0.3954 -0.8175
vn -0.3771 0.8780 -0.2948
vn -0.3771 0.8780 0.2948
vn -0.4188 0.3954 0.8175
vn -0.4188 -0.3954 0.8175
vn -0.3771 -0.8780 0.2948
vn -0.9145 -0.3287 0.2358
vn -0.9145 -0.3287 -0.2358
vn -0.9145 0.3287 -0.2358
vn -0.9145 0.3287 0.2358
vn -0.9150 -0.3279 -0.2350
vn -0.9150 0.3279 -0.2350
vn -0.9150 0.3279 0.2350
vn -0.9150 -0.3279 0.2350
vn 0.9373 -0.2868 -0.1982
vn 0.9373 -0.2868 0.1982
vn 0.9373 0.2868 -0.1982
vn 0.9373 0.2868 0.1982
vn 0.9375 -0.2862 -0.1977
vn 0.9375 -0.2862 0.1977
vn 0.9375 0.2862 -0.1977
vn 0.9375 0.2862 0.1977
vn 0.0000 0.0000 -1.0000
vn 0.7071 0.0000 -0.7072
vn -0.3807 -0.8874 -0.2599
vn 0.0000 -0.9661 -0.2581
vn -0.0000 -0.9661 0.2581
vn -0.3808 -0.8874 0.2598
vn -0.4119 0.4529 -0.7907
vn -0.0000 0.5007 -0.8656
vn -0.0000 -0.5006 -0.8657
vn -0.4119 -0.4528 -0.7907
vn -0.3807 0.8874 0.2599
vn -0.0000 0.9661 0.2581
vn 0.0000 0.9661 -0.2581
vn -0.3807 0.8874 -0.2599
vn -0.4119 -0.4529 0.7907
vn 0.0000 -0.5006 0.8657
vn 0.0000 0.5007 0.8656
vn -0.4119 0.4529 0.7908
vn -0.8988 -0.4318 0.0751
vn -0.8987 -0.4320 -0.0751
vn -0.9233 -0.2023 -0.3264
vn -0.9233 0.2023 -0.3264
vn -0.8987 0.4320 -0.0751
vn -0.8988 0.4318 0.0751
vn -0.9234 0.2022 0.3263
vn -0.9234 -0.2022 0.3263
vn -1.0000 0.0001 -0.0000
vn -1.0000 -0.0001 -0.0000
vn 0.3808 -0.8874 -0.2599
vn 0.3808 -0.8874 0.2598
vn 0.4119 0.4528 -0.7908
vn 0.4119 -0.4529 -0.7907
vn 0.3808 0.8874 0.2599
vn 0.3808 0.8874 -0.2599
vn 0.4119 -0.4529 0.7907
vn 0.4118 0.4529 0.7908
vn 0.8988 -0.4319 -0.0750
vn 0.8988 -0.4320 0.0750
vn 0.9234 0.2023 -0.3263
vn 0.9234 -0.2023 -0.3263
vn 0.8988 0.4320 0.0750
vn 0.8988 0.4319 -0.0750
vn 0.9234 -0.2023 0.3263
vn 0.9234 0.2023 0.3263
vn 1.0000 -0.0001 -0.0000
vn 1.0000 0.0001 -0.0000
vn -0.3808 -0.8874 0.2599
vn -0.4119 0.4528 -0.7907
vn -0.0000 -0.5007 -0.8656
vn 0.0000 -0.5007 0.8656
vn 0.4118 0.4529 -0.7908
vn 0.3808 0.8874 0.2598
vn 0.4119 0.4528 0.7908
vn 0.9234 -0.2022 -0.3263
vn 0.3876 -0.8864 -0.2533
vn -0.3881 -0.8862 -0.2532
vn -0.4457 -0.4336 -0.7831
vn 0.4453 -0.4337 -0.7833
vn 0.4453 0.4337 -0.7833
vn -0.4457 0.4336 -0.7831
vn -0.3881 0.8862 -0.2532
vn 0.3876 0.8864 -0.2533
vn 0.3876 0.8864 0.2533
vn -0.3881 0.8862 0.2532
vn -0.4457 0.4336 0.7831
vn 0.4453 0.4337 0.7833
vn 0.4453 -0.4337 0.7833
vn -0.4457 -0.4336 0.7831
vn -0.3881 -0.8862 0.2532
vn 0.3876 -0.8864 0.2533
vn 0.3883 -0.8861 -0.2532
vn -0.3877 -0.8863 -0.2532
vn -0.4455 -0.4337 -0.7832
vn 0.4459 -0.4336 -0.7831
vn 0.4459 0.4336 -0.7831
vn -0.4455 0.4337 -0.7832
vn -0.3877 0.8863 -0.2532
vn 0.3883 0.8861 -0.2532
vn 0.3883 0.8861 0.2532
vn -0.3877 0.8863 0.2533
vn -0.4455 0.4337 0.7833
vn 0.4458 0.4336 0.7831
vn 0.4458 -0.4336 0.7831
vn -0.4455 -0.4337 0.7833
vn -0.3877 -0.8863 0.2532
vn 0.3883 -0.8861 0.2532
vn 0.9200 -0.3427 -0.1903
vn 0.9200 -0.3427 0.1903
vn 0.9200 0.3427 -0.1903
vn 0.9200 0.3427 0.1903
vn 0.9204 -0.3420 -0.1897
vn 0.9203 -0.3420 0.1897
vn 0.9204 0.3420 -0.1897
vn 0.9203 0.3420 0.1897
vn -0.9202 -0.3422 -0.1899
vn -0.9202 0.3422 -0.1899
vn -0.9202 0.3422 0.1899
vn -0.9202 -0.3422 0.1899
vn -0.9201 -0.3426 0.1901
vn -0.9201 -0.3426 -0.1901
vn -0.9201 0.3426 -0.1901
vn -0.9201 0.3426 0.1901
vn -0.3880 0.8862 -0.2532
vn -0.3881 -0.8861 0.2532
vn -0.9203 -0.3422 -0.1898
vn -0.9202 0.3422 0.1898
vn -0.9203 -0.3422 0.1898
vn 0.5108 0.6120 0.6038
vn 0.8068 0.0000 0.5909
vn 0.6387 0.7694 0.0000
vn -0.0000 0.7909 0.6120
vn 0.0000 1.0000 0.0000
vn -0.5108 0.6120 0.6037
vn -0.6387 0.7694 0.0000
vn -0.8068 0.0000 0.5909
vn -0.5108 -0.6120 0.6038
vn -0.6387 -0.7694 0.0000
vn -0.0000 -0.7909 0.6120
vn 0.0000 -1.0000 0.0000
vn 0.5108 -0.6120 0.6038
vn 0.6387 -0.7694 0.0000
vn -0.5838 -0.0000 0.8119
vn -0.3644 -0.4676 0.8053
vn 0.0000 -0.5988 0.8009
vn 0.3644 -0.4676 0.8054
vn 0.5838 -0.0000 0.8119
vn 0.3644 0.4676 0.8053
vn 0.0000 0.5988 0.8009
vn -0.3644 0.4676 0.8053
vn -0.2367 -0.2625 0.9355
vn -0.3030 0.0000 0.9530
vn -0.0000 -0.3936 0.9193
vn 0.2367 -0.2624 0.9355
vn 0.3029 0.0000 0.9530
vn 0.2367 0.2624 0.9355
vn -0.0000 0.3936 0.9193
vn -0.2367 0.2625 0.9355
vn 0.5108 0.6120 -0.6038
vn 0.8068 0.0000 -0.5909
vn 0.0000 0.7909 -0.6120
vn -0.5108 0.6120 -0.6037
vn -0.8067 0.0000 -0.5910
vn -0.5108 -0.6120 -0.6037
vn 0.0000 -0.7909 -0.6120
vn 0.5108 -0.6120 -0.6038
vn -0.5839 -0.0000 -0.8119
vn -0.3644 -0.4676 -0.8053
vn 0.0000 -0.5988 -0.8009
vn 0.3644 -0.4676 -0.8053
vn 0.5838 0.0000 -0.8119
vn 0.3644 0.4676 -0.8053
vn 0.0000 0.5988 -0.8009
vn -0.3644 0.4676 -0.8053
vn -0.3030 0.0000 -0.9530
vn -0.2367 -0.2625 -0.9354
vn 0.0000 -0.3936 -0.9193
vn 0.2367 -0.2625 -0.9355
vn 0.3030 0.0000 -0.9530
vn 0.2367 0.2625 -0.9355
vn 0.0000 0.3936 -0.9193
vn -0.2367 0.2625 -0.9354
vn 0.9083 -0.4182 0.0000
vn 0.6423 -0.4182 -0.6423
vn 0.0000 -0.4183 -0.9083
vn 0.0001 0.0000 -1.0000
vn -0.6423 -0.4183 -0.6422
vn -0.7072 0.0000 -0.7071
vn -0.9083 -0.4182 0.0000
vn -0.6423 -0.4183 0.6423
vn -0.0000 -0.4182 0.9083
vn 0.6423 -0.4183 0.6423
vn 0.6423 0.4182 -0.6423
vn 0.9083 0.4182 0.0000
vn 0.0000 0.4183 -0.9083
vn -0.6423 0.4183 -0.6422
vn -0.9083 0.4182 0.0000
vn -0.6423 0.4183 0.6423
vn -0.0000 0.4182 0.9083
vn 0.6423 0.4183 0.6423
vn 0.2614 -0.9292 -0.2614
vn 0.3697 -0.9292 0.0000
vn 0.0000 -1.0000 -0.0000
vn -0.0000 -0.9292 -0.3696
vn -0.2613 -0.9292 -0.2613
vn -0.3696 -0.9292 0.0000
vn -0.2613 -0.9292 0.2613
vn 0.0000 -0.9291 0.3697
vn 0.2614 -0.9292 0.2614
vn 0.3697 0.9292 0.0000
vn 0.2614 0.9292 -0.2614
vn -0.0000 1.0000 -0.0000
vn -0.0000 0.9292 -0.3696
vn -0.2613 0.9292 -0.2613
vn -0.3696 0.9292 0.0000
vn -0.2613 0.9292 0.2613
vn 0.0000 0.9291 0.3697
vn 0.2614 0.9292 0.2614
vn 0.0000 1.0000 -0.0000
vn 0.3696 -0.9292 0.0000
vn 0.0000 -0.9292 0.3697
vn -0.7072 0.0000 0.7071
vn -0.7072 -0.0000 -0.7070
vn -0.7071 -0.0000 -0.7072
# 350 vertex normals

vt 0.7500 0.0000 1.0000
vt 0.8750 0.0000 1.0000
vt 0.8750 1.0000 1.0000
vt 0.7500 1.0000 1.0000
vt -0.1250 0.0000 1.0000
vt 0.0000 0.0000 1.0000
vt 0.0000 1.0000 1.0000
vt -0.1250 1.0000 1.0000
vt 0.1250 0.0000 1.0000
vt 0.1250 1.0000 1.0000
vt 0.2500 0.0000 1.0000
vt 0.2500 1.0000 1.0000
vt 0.3750 0.0000 1.0000
vt 0.3750 1.0000 1.0000
vt 0.5000 0.0000 1.0000
vt 0.5000 1.0000 1.0000
vt 0.6250 0.0000 1.0000
vt 0.6250 1.0000 1.0000
vt 0.8414 0.0000 1.0000
vt 0.8414 1.0000 1.0000
vt 0.6586 1.0000 1.0000
vt 0.6586 0.0000 1.0000
vt -0.1045 0.0000 1.0000
vt 0.1045 0.0000 1.0000
vt 0.1045 1.0000 1.0000
vt -0.1045 1.0000 1.0000
vt 0.1586 0.0000 1.0000
vt 0.3414 0.0000 1.0000
vt 0.3414 1.0000 1.0000
vt 0.1586 1.0000 1.0000
vt 0.3955 0.0000 1.0000
vt 0.6045 0.0000 1.0000
vt 0.6045 1.0000 1.0000
vt 0.3955 1.0000 1.0000
vt 0.4714 0.0000 1.0000
vt 0.4714 1.0000 1.0000
vt -0.0286 0.0000 1.0000
vt -0.0286 1.0000 1.0000
vt 0.0286 0.0000 1.0000
vt 0.0286 1.0000 1.0000
vt 0.5286 0.0000 1.0000
vt 0.5286 1.0000 1.0000
vt 0.8414 0.2527 1.0000
vt 0.6586 0.2527 1.0000
vt 0.1045 0.2527 1.0000
vt -0.1045 0.2527 1.0000
vt 0.3414 0.2527 1.0000
vt 0.1586 0.2527 1.0000
vt 0.6045 0.2527 1.0000
vt 0.3955 0.2527 1.0000
vt 0.8414 0.5226 1.0000
vt 0.8750 0.5226 1.0000
vt 0.1045 0.5226 1.0000
vt 0.1586 0.5226 1.0000
vt 0.3414 0.5226 1.0000
vt 0.3955 0.5226 1.0000
vt 0.6045 0.5226 1.0000
vt 0.6586 0.5226 1.0000
vt -0.1045 0.5226 1.0000
vt 0.8750 0.2527 1.0000
vt 0.6316 0.5226 1.0000
vt 0.8582 0.5226 1.0000
vt 0.1316 0.5226 1.0000
vt 0.3684 0.5226 1.0000
vt 0.8582 0.2527 1.0000
vt 0.6316 0.2527 1.0000
vt 0.1316 0.2527 1.0000
vt 0.3684 0.2527 1.0000
vt 0.8414 0.2482 1.0000
vt 0.6586 0.2482 1.0000
vt 0.1045 0.2482 1.0000
vt -0.1045 0.2482 1.0000
vt 0.3414 0.2482 1.0000
vt 0.1586 0.2482 1.0000
vt 0.6045 0.2482 1.0000
vt 0.3955 0.2482 1.0000
vt 0.8414 0.5275 1.0000
vt 0.8750 0.5275 1.0000
vt 0.1045 0.5275 1.0000
vt 0.1586 0.5275 1.0000
vt 0.3414 0.5275 1.0000
vt 0.3955 0.5275 1.0000
vt 0.6045 0.5275 1.0000
vt 0.6586 0.5275 1.0000
vt 0.8414 0.2478 1.0000
vt 0.6586 0.2478 1.0000
vt 0.1045 0.2478 1.0000
vt -0.1045 0.2478 1.0000
vt 0.3414 0.2478 1.0000
vt 0.1586 0.2478 1.0000
vt 0.6045 0.2478 1.0000
vt 0.3955 0.2478 1.0000
vt 0.8414 0.5282 1.0000
vt 0.8750 0.5282 1.0000
vt 0.1045 0.5282 1.0000
vt 0.1586 0.5282 1.0000
vt 0.3414 0.5282 1.0000
vt 0.3955 0.5282 1.0000
vt 0.6045 0.5282 1.0000
vt 0.6586 0.5282 1.0000
vt -0.1045 0.5282 1.0000
vt -0.1045 0.5275 1.0000
vt 0.8750 0.2478 1.0000
vt 0.8750 0.2482 1.0000
vt 0.6316 0.5282 1.0000
vt 0.8582 0.5282 1.0000
vt 0.1316 0.5282 1.0000
vt 0.3684 0.5282 1.0000
vt 0.8582 0.5275 1.0000
vt 0.1316 0.5275 1.0000
vt 0.3684 0.5275 1.0000
vt 0.6316 0.5275 1.0000
vt 0.8582 0.2478 1.0000
vt 0.6316 0.2478 1.0000
vt 0.1316 0.2478 1.0000
vt 0.3684 0.2478 1.0000
vt 0.8582 0.2482 1.0000
vt 0.6316 0.2482 1.0000
vt 0.1316 0.2482 1.0000
vt 0.3684 0.2482 1.0000
vt 0.8750 0.1220 1.0000
vt 0.7500 0.1220 1.0000
vt 0.0000 0.1220 1.0000
vt -0.1250 0.1220 1.0000
vt 0.1250 0.1220 1.0000
vt 0.2500 0.1220 1.0000
vt 0.3750 0.1220 1.0000
vt 0.5000 0.1220 1.0000
vt 0.6250 0.1220 1.0000
vt 0.8750 0.4878 1.0000
vt 0.7500 0.4878 1.0000
vt 0.0000 0.4878 1.0000
vt -0.1250 0.4878 1.0000
vt 0.1250 0.4878 1.0000
vt 0.2500 0.4878 1.0000
vt 0.3750 0.4878 1.0000
vt 0.5000 0.4878 1.0000
vt 0.6250 0.4878 1.0000
vt 0.8414 0.2658 1.0000
vt 0.8414 0.3914 1.0000
vt 0.6586 0.3914 1.0000
vt 0.6586 0.2658 1.0000
vt 0.1045 0.2658 1.0000
vt 0.1045 0.3914 1.0000
vt -0.1045 0.3914 1.0000
vt -0.1045 0.2658 1.0000
vt 0.3414 0.2658 1.0000
vt 0.3414 0.3914 1.0000
vt 0.1586 0.3914 1.0000
vt 0.1586 0.2658 1.0000
vt 0.6045 0.2658 1.0000
vt 0.6045 0.3914 1.0000
vt 0.3955 0.3914 1.0000
vt 0.3955 0.2658 1.0000
vt 0.8750 0.2658 1.0000
vt 0.6316 0.2658 1.0000
vt 0.8582 0.2658 1.0000
vt 0.1316 0.2658 1.0000
vt 0.3684 0.2658 1.0000
vt 0.8750 0.3914 1.0000
vt 0.4714 0.5000 1.0000
vt 0.4714 0.2500 1.0000
vt 0.0286 0.2500 1.0000
vt 0.0286 0.5000 1.0000
vt 0.8750 0.2500 1.0000
vt 0.8750 0.5000 1.0000
vt 0.6250 0.5000 1.0000
vt 0.6250 0.2500 1.0000
vt -0.0286 0.2500 1.0000
vt -0.0286 0.5000 1.0000
vt -0.1250 0.5000 1.0000
vt -0.1250 0.2500 1.0000
vt 0.3750 0.2500 1.0000
vt 0.3750 0.5000 1.0000
vt 0.1250 0.5000 1.0000
vt 0.1250 0.2500 1.0000
vt 0.5286 0.5000 1.0000
vt 0.5286 0.2500 1.0000
vt 0.8750 0.2439 1.0000
vt 0.7500 0.2439 1.0000
vt 0.0000 0.2439 1.0000
vt -0.1250 0.2439 1.0000
vt 0.1250 0.2439 1.0000
vt 0.2500 0.2439 1.0000
vt 0.3750 0.2439 1.0000
vt 0.5000 0.2439 1.0000
vt 0.6250 0.2439 1.0000
vt 0.8414 0.5110 1.0000
vt 0.8414 0.2706 1.0000
vt 0.8750 0.2706 1.0000
vt 0.8750 0.5110 1.0000
vt 0.1045 0.5110 1.0000
vt 0.1045 0.2706 1.0000
vt 0.1586 0.2706 1.0000
vt 0.1586 0.5110 1.0000
vt 0.3414 0.5110 1.0000
vt 0.3414 0.2706 1.0000
vt 0.3955 0.2706 1.0000
vt 0.3955 0.5110 1.0000
vt 0.6045 0.5110 1.0000
vt 0.6045 0.2706 1.0000
vt 0.6586 0.2706 1.0000
vt 0.6586 0.5110 1.0000
vt 0.8414 0.5106 1.0000
vt 0.8414 0.2704 1.0000
vt 0.8750 0.2704 1.0000
vt 0.8750 0.5106 1.0000
vt 0.1045 0.5106 1.0000
vt 0.1045 0.2704 1.0000
vt 0.1586 0.2704 1.0000
vt 0.1586 0.5106 1.0000
vt 0.3414 0.5106 1.0000
vt 0.3414 0.2704 1.0000
vt 0.3955 0.2704 1.0000
vt 0.3955 0.5106 1.0000
vt 0.6045 0.5106 1.0000
vt 0.6045 0.2704 1.0000
vt 0.6586 0.2704 1.0000
vt 0.6586 0.5106 1.0000
vt -0.1045 0.5110 1.0000
vt -0.1045 0.2706 1.0000
vt -0.1045 0.5106 1.0000
vt -0.1045 0.2704 1.0000
vt 0.8582 0.5110 1.0000
vt 0.6316 0.5110 1.0000
vt 0.1316 0.5110 1.0000
vt 0.3684 0.5110 1.0000
vt 0.8582 0.5106 1.0000
vt 0.6316 0.5106 1.0000
vt 0.1316 0.5106 1.0000
vt 0.3684 0.5106 1.0000
vt 0.8582 0.2706 1.0000
vt 0.1316 0.2706 1.0000
vt 0.3684 0.2706 1.0000
vt 0.6316 0.2706 1.0000
vt 0.6316 0.2704 1.0000
vt 0.8582 0.2704 1.0000
vt 0.1316 0.2704 1.0000
vt 0.3684 0.2704 1.0000
vt 0.8750 0.3987 1.0000
vt 0.7500 0.3987 1.0000
vt 0.7500 0.3558 1.0000
vt 0.8750 0.3558 1.0000
vt 0.0000 0.3987 1.0000
vt -0.1250 0.3987 1.0000
vt -0.1250 0.3558 1.0000
vt 0.0000 0.3558 1.0000
vt 0.1250 0.3987 1.0000
vt 0.1250 0.3558 1.0000
vt 0.2500 0.3987 1.0000
vt 0.2500 0.3558 1.0000
vt 0.3750 0.3987 1.0000
vt 0.3750 0.3558 1.0000
vt 0.5000 0.3987 1.0000
vt 0.5000 0.3558 1.0000
vt 0.6250 0.3987 1.0000
vt 0.6250 0.3558 1.0000
vt 0.6645 0.4007 1.0000
vt 0.7610 0.4007 1.0000
vt 0.3750 0.4007 1.0000
vt -0.0110 0.4007 1.0000
vt 0.0855 0.4007 1.0000
vt 0.1820 0.4007 1.0000
vt 0.2785 0.4007 1.0000
vt 0.4715 0.4007 1.0000
vt 0.5680 0.4007 1.0000
vt 0.7500 0.0707 1.0000
vt 0.8750 0.0707 1.0000
vt 0.8750 0.1136 1.0000
vt 0.7500 0.1136 1.0000
vt -0.1250 0.0707 1.0000
vt 0.0000 0.0707 1.0000
vt 0.0000 0.1136 1.0000
vt -0.1250 0.1136 1.0000
vt 0.1250 0.0707 1.0000
vt 0.1250 0.1136 1.0000
vt 0.2500 0.0707 1.0000
vt 0.2500 0.1136 1.0000
vt 0.3750 0.0707 1.0000
vt 0.3750 0.1136 1.0000
vt 0.5000 0.0707 1.0000
vt 0.5000 0.1136 1.0000
vt 0.6250 0.0707 1.0000
vt 0.6250 0.1136 1.0000
vt 0.7500 0.5552 1.0000
vt 0.8750 0.5552 1.0000
vt 0.8750 0.5981 1.0000
vt 0.7500 0.5981 1.0000
vt -0.1250 0.5552 1.0000
vt 0.0000 0.5552 1.0000
vt 0.0000 0.5981 1.0000
vt -0.1250 0.5981 1.0000
vt 0.1250 0.5552 1.0000
vt 0.1250 0.5981 1.0000
vt 0.2500 0.5552 1.0000
vt 0.2500 0.5981 1.0000
vt 0.3750 0.5552 1.0000
vt 0.3750 0.5981 1.0000
vt 0.5000 0.5552 1.0000
vt 0.5000 0.5981 1.0000
vt 0.6250 0.5552 1.0000
vt 0.6250 0.5981 1.0000
vt 0.8750 0.1565 1.0000
vt 0.7500 0.1565 1.0000
vt 0.0000 0.1565 1.0000
vt -0.1250 0.1565 1.0000
vt 0.1250 0.1565 1.0000
vt 0.2500 0.1565 1.0000
vt 0.3750 0.1565 1.0000
vt 0.5000 0.1565 1.0000
vt 0.6250 0.1565 1.0000
vt 0.8750 0.6410 1.0000
vt 0.7500 0.6410 1.0000
vt 0.0000 0.6410 1.0000
vt -0.1250 0.6410 1.0000
vt 0.1250 0.6410 1.0000
vt 0.2500 0.6410 1.0000
vt 0.3750 0.6410 1.0000
vt 0.5000 0.6410 1.0000
vt 0.6250 0.6410 1.0000
vt 0.7500 0.3130 1.0000
vt 0.8750 0.3130 1.0000
vt -0.1250 0.3130 1.0000
vt 0.0000 0.3130 1.0000
vt 0.1250 0.3130 1.0000
vt 0.2500 0.3130 1.0000
vt 0.3750 0.3130 1.0000
vt 0.5000 0.3130 1.0000
vt 0.6250 0.3130 1.0000
vt 0.7610 0.0687 1.0000
vt 0.6645 0.0687 1.0000
vt 0.3750 0.0687 1.0000
vt 0.0855 0.0687 1.0000
vt -0.0110 0.0687 1.0000
vt 0.1820 0.0687 1.0000
vt 0.2785 0.0687 1.0000
vt 0.4715 0.0687 1.0000
vt 0.5680 0.0687 1.0000
vt 0.7610 0.5532 1.0000
vt 0.6645 0.5532 1.0000
vt 0.3750 0.5532 1.0000
vt 0.0855 0.5532 1.0000
vt -0.0110 0.5532 1.0000
vt 0.1820 0.5532 1.0000
vt 0.2785 0.5532 1.0000
vt 0.4715 0.5532 1.0000
vt 0.5680 0.5532 1.0000
vt 0.6645 0.1585 1.0000
vt 0.7610 0.1585 1.0000
vt 0.3750 0.1585 1.0000
vt -0.0110 0.1585 1.0000
vt 0.0855 0.1585 1.0000
vt 0.1820 0.1585 1.0000
vt 0.2785 0.1585 1.0000
vt 0.4715 0.1585 1.0000
vt 0.5680 0.1585 1.0000
vt 0.6645 0.6430 1.0000
vt 0.7610 0.6430 1.0000
vt 0.3750 0.6430 1.0000
vt -0.0110 0.6430 1.0000
vt 0.0855 0.6430 1.0000
vt 0.1820 0.6430 1.0000
vt 0.2785 0.6430 1.0000
vt 0.4715 0.6430 1.0000
vt 0.5680 0.6430 1.0000
vt 0.7610 0.3110 1.0000
vt 0.6645 0.3110 1.0000
vt 0.3750 0.3110 1.0000
vt 0.0855 0.3110 1.0000
vt -0.0110 0.3110 1.0000
vt 0.1820 0.3110 1.0000
vt 0.2785 0.3110 1.0000
vt 0.4715 0.3110 1.0000
vt 0.5680 0.3110 1.0000
vt 0.7500 0.5000 1.0000
vt 0.0000 0.5000 1.0000
vt 0.2500 0.5000 1.0000
vt 0.5000 0.5000 1.0000
# 378 texture coords

o CellModule_SteelBarred
g CellModule_SteelBarred
usemtl Material__65
s 8
f 17/5/17 18/6/18 19/7/18 20/8/19 
f 18/9/18 21/10/20 22/11/21 19/12/18 
f 21/10/20 23/13/22 24/14/23 22/11/21 
f 23/13/22 25/15/24 26/16/25 24/14/23 
f 25/15/24 27/17/26 28/18/26 26/16/25 
f 27/17/26 29/19/27 30/20/27 28/18/26 
f 29/19/27 31/21/28 32/22/29 30/20/27 
f 31/21/28 17/5/17 20/8/19 32/22/29 
f 33/5/19 34/6/18 35/7/18 36/8/17 
f 34/9/18 37/10/21 38/11/21 35/12/18 
f 37/10/21 39/13/30 40/14/30 38/11/21 
f 39/13/30 41/15/31 42/16/31 40/14/30 
f 41/15/31 43/17/26 44/18/26 42/16/31 
f 43/17/26 45/19/27 46/20/27 44/18/26 
f 45/19/27 47/21/28 48/22/28 46/20/27 
f 47/21/28 33/5/19 36/8/17 48/22/28 
f 49/5/32 50/6/18 51/7/18 52/8/17 
f 50/9/18 53/10/21 54/11/21 51/12/18 
f 53/10/21 55/13/30 56/14/30 54/11/21 
f 55/13/30 57/15/33 58/16/33 56/14/30 
f 57/15/33 59/17/26 60/18/26 58/16/33 
f 59/17/26 61/19/27 62/20/27 60/18/26 
f 61/19/27 63/21/34 64/22/34 62/20/27 
f 63/21/34 49/5/32 52/8/17 64/22/34 
f 65/5/35 66/6/18 67/7/18 68/8/36 
f 66/9/18 69/10/20 70/11/21 67/12/18 
f 69/10/20 71/13/22 72/14/22 70/11/21 
f 71/13/22 73/15/24 74/16/25 72/14/22 
f 73/15/24 75/17/37 76/18/37 74/16/25 
f 75/17/37 77/19/38 78/20/27 76/18/37 
f 77/19/38 79/21/28 80/22/29 78/20/27 
f 79/21/28 65/5/35 68/8/36 80/22/29 
f 81/5/39 82/6/40 83/7/18 84/8/36 
f 82/9/40 85/10/20 86/11/21 83/12/18 
f 85/10/20 87/13/22 88/14/22 86/11/21 
f 87/13/22 89/15/41 90/16/25 88/14/22 
f 89/15/41 91/17/26 92/18/26 90/16/25 
f 91/17/26 93/19/27 94/20/27 92/18/26 
f 93/19/27 95/21/28 96/22/29 94/20/27 
f 95/21/28 81/5/39 84/8/36 96/22/29 
f 97/5/19 98/6/18 99/7/18 100/8/17 
f 98/9/18 101/10/21 102/11/21 99/12/18 
f 101/10/21 103/13/22 104/14/22 102/11/21 
f 103/13/22 105/15/31 106/16/31 104/14/22 
f 105/15/31 107/17/26 108/18/26 106/16/31 
f 107/17/26 109/19/27 110/20/27 108/18/26 
f 109/19/27 111/21/34 112/22/34 110/20/27 
f 111/21/34 97/5/19 100/8/17 112/22/34 
f 113/5/17 114/6/18 115/7/18 116/8/17 
f 114/9/18 117/10/42 118/11/42 115/12/18 
f 117/10/42 119/13/30 120/14/30 118/11/42 
f 119/13/30 121/15/25 122/16/25 120/14/30 
f 121/15/25 123/17/26 124/18/26 122/16/25 
f 123/17/26 125/19/27 126/20/38 124/18/26 
f 125/19/27 127/21/34 128/22/34 126/20/38 
f 127/21/34 113/5/17 116/8/17 128/22/34 
f 129/5/35 130/6/18 131/7/18 132/8/36 
f 130/9/18 133/10/42 134/11/21 131/12/18 
f 133/10/42 135/13/30 136/14/30 134/11/21 
f 135/13/30 137/15/25 138/16/43 136/14/30 
f 137/15/25 139/17/26 140/18/26 138/16/43 
f 139/17/26 141/19/38 142/20/38 140/18/26 
f 141/19/38 143/21/34 144/22/44 142/20/38 
f 143/21/34 129/5/35 132/8/36 144/22/44 
f 145/5/35 146/6/18 147/7/18 148/8/36 
f 146/9/18 149/10/21 150/11/21 147/12/18 
f 149/10/21 151/13/22 152/14/22 150/11/21 
f 151/13/22 153/15/33 154/16/31 152/14/22 
f 153/15/33 155/17/26 156/18/26 154/16/31 
f 155/17/26 157/19/27 158/20/38 156/18/26 
f 157/19/27 159/21/34 160/22/44 158/20/38 
f 159/21/34 145/5/35 148/8/36 160/22/44 
f 161/5/19 162/6/18 163/7/18 164/8/17 
f 162/9/18 165/10/21 166/11/21 163/12/18 
f 165/10/21 167/13/22 168/14/22 166/11/21 
f 167/13/22 169/15/33 170/16/31 168/14/22 
f 169/15/33 171/17/26 172/18/26 170/16/31 
f 171/17/26 173/19/27 174/20/27 172/18/26 
f 173/19/27 175/21/28 176/22/29 174/20/27 
f 175/21/28 161/5/19 164/8/17 176/22/29 
f 177/5/19 178/6/18 179/7/45 180/8/19 
f 178/9/18 181/10/21 182/11/46 179/12/45 
f 181/10/21 183/13/30 184/14/30 182/11/46 
f 183/13/30 185/15/33 186/16/31 184/14/30 
f 185/15/33 187/17/26 188/18/26 186/16/31 
f 187/17/26 189/19/38 190/20/38 188/18/26 
f 189/19/38 191/21/28 192/22/28 190/20/38 
f 191/21/28 177/5/19 180/8/19 192/22/28 
f 193/5/35 194/6/18 195/7/18 196/8/39 
f 194/9/18 197/10/20 198/11/46 195/12/18 
f 197/10/20 199/13/30 200/14/30 198/11/46 
f 199/13/30 201/15/31 202/16/47 200/14/30 
f 201/15/31 203/17/26 204/18/26 202/16/47 
f 203/17/26 205/19/27 206/20/48 204/18/26 
f 205/19/27 207/21/28 208/22/28 206/20/48 
f 207/21/28 193/5/35 196/8/39 208/22/28 
f 209/5/35 210/6/18 211/7/40 212/8/35 
f 210/9/18 213/10/20 214/11/42 211/12/40 
f 213/10/20 215/13/30 216/14/49 214/11/42 
f 215/13/30 217/15/33 218/16/47 216/14/49 
f 217/15/33 219/17/26 220/18/26 218/16/47 
f 219/17/26 221/19/38 222/20/27 220/18/26 
f 221/19/38 223/21/28 224/22/28 222/20/27 
f 223/21/28 209/5/35 212/8/35 224/22/28 
f 225/5/39 226/6/18 227/7/50 228/8/36 
f 226/9/18 229/10/21 230/11/21 227/12/50 
f 229/10/21 231/13/22 232/14/22 230/11/21 
f 231/13/22 233/15/31 234/16/33 232/14/22 
f 233/15/31 235/17/26 236/18/26 234/16/33 
f 235/17/26 237/19/27 238/20/38 236/18/26 
f 237/19/27 239/21/34 240/22/34 238/20/38 
f 239/21/34 225/5/39 228/8/36 240/22/34 
f 241/5/17 242/6/18 243/7/18 244/8/17 
f 242/9/18 245/10/42 246/11/42 243/12/18 
f 245/10/42 247/13/22 248/14/22 246/11/42 
f 247/13/22 249/15/33 250/16/31 248/14/22 
f 249/15/33 251/17/26 252/18/26 250/16/31 
f 251/17/26 253/19/38 254/20/27 252/18/26 
f 253/19/38 255/21/34 256/22/34 254/20/27 
f 255/21/34 241/5/17 244/8/17 256/22/34 
f 257/5/35 258/6/51 259/7/51 260/8/35 
f 258/9/51 261/10/21 262/11/42 259/12/51 
f 261/10/21 263/13/30 264/14/30 262/11/42 
f 263/13/30 265/15/31 266/16/31 264/14/30 
f 265/15/31 267/17/26 268/18/26 266/16/31 
f 267/17/26 269/19/27 270/20/48 268/18/26 
f 269/19/27 271/21/28 272/22/28 270/20/48 
f 271/21/28 257/5/35 260/8/35 272/22/28 
f 273/5/39 274/6/18 275/7/18 276/8/35 
f 274/9/18 277/10/21 278/11/42 275/12/18 
f 277/10/21 279/13/22 280/14/22 278/11/42 
f 279/13/22 281/15/31 282/16/33 280/14/22 
f 281/15/31 283/17/26 284/18/26 282/16/33 
f 283/17/26 285/19/27 286/20/27 284/18/26 
f 285/19/27 287/21/34 288/22/34 286/20/27 
f 287/21/34 273/5/39 276/8/35 288/22/34 
f 289/5/32 290/6/18 291/7/18 292/8/52 
f 290/9/18 293/10/21 294/11/21 291/12/18 
f 293/10/21 295/13/22 296/14/22 294/11/21 
f 295/13/22 297/15/31 298/16/31 296/14/22 
f 297/15/31 299/17/26 300/18/26 298/16/31 
f 299/17/26 301/19/27 302/20/38 300/18/26 
f 301/19/27 303/21/28 304/22/28 302/20/38 
f 303/21/28 289/5/32 292/8/52 304/22/28 
f 305/5/17 306/6/18 307/7/18 308/8/17 
f 306/9/18 309/10/21 310/11/21 307/12/18 
f 309/10/21 311/13/30 312/14/30 310/11/21 
f 311/13/30 313/15/33 314/16/31 312/14/30 
f 313/15/33 315/17/26 316/18/26 314/16/31 
f 315/17/26 317/19/53 318/20/38 316/18/26 
f 317/19/53 319/21/28 320/22/28 318/20/38 
f 319/21/28 305/5/17 308/8/17 320/22/28 
f 321/5/39 322/6/54 323/7/55 324/8/36 
f 322/9/54 325/10/56 326/11/57 323/12/55 
f 325/10/56 327/13/22 328/14/22 326/11/57 
f 327/13/22 329/15/25 330/16/24 328/14/22 
f 329/15/25 331/17/26 332/18/26 330/16/24 
f 331/17/26 333/19/38 334/20/53 332/18/26 
f 333/19/38 335/21/28 336/22/58 334/20/53 
f 335/21/28 321/5/39 324/8/36 336/22/58 
s 1
f 337/23/59 338/24/59 339/25/60 340/26/60 
f 341/27/61 342/28/62 343/29/63 344/30/61 
f 345/31/64 346/32/65 347/33/65 348/34/64 
f 349/35/66 350/36/67 351/37/68 352/38/66 
s 2
f 338/24/59 337/23/59 341/6/61 344/7/61 
f 343/29/63 342/28/62 345/31/64 348/34/64 
f 347/33/65 346/32/65 349/35/66 352/38/66 
f 351/37/68 350/36/67 340/26/60 339/25/60 
s 1
f 353/13/30 354/17/69 355/18/26 356/14/70 
s 2
f 354/17/69 357/39/71 358/40/72 355/18/26 
s 1
f 359/6/51 360/7/51 361/22/72 362/21/34 
s 2
f 359/9/51 363/41/73 364/42/70 360/12/51 
f 365/43/74 353/13/30 356/14/70 366/44/51 
f 367/45/75 362/21/34 361/22/72 368/46/37 
s off
f 367/45/75 368/46/37 364/42/70 363/41/73 
f 365/43/74 366/44/51 358/40/72 357/39/71 
s 1
f 369/23/59 370/47/76 371/48/77 372/26/78 
f 373/27/79 374/28/80 375/49/81 376/50/82 
f 377/31/64 378/32/65 379/51/83 380/52/84 
f 381/35/85 382/36/86 383/53/87 384/54/88 
s 2
f 385/24/89 386/55/90 387/56/91 388/7/61 
f 389/29/63 390/57/92 391/58/93 392/34/94 
f 393/33/95 394/59/96 395/60/97 396/38/66 
f 397/37/67 398/61/98 399/62/99 400/25/78 
s 1
f 386/55/90 385/24/89 400/25/78 399/62/99 
f 390/57/92 389/29/63 388/30/61 387/63/91 
f 394/59/96 393/33/95 392/34/94 391/58/93 
f 398/61/98 397/37/67 396/38/66 395/60/97 
s 2
f 370/47/76 369/23/59 373/6/79 376/64/82 
f 375/49/81 374/28/80 377/31/64 380/52/84 
f 379/51/83 378/32/65 381/35/85 384/54/88 
f 383/53/87 382/36/86 372/26/78 371/48/77 
s off
f 386/55/90 399/62/99 401/65/100 402/66/101 
f 390/57/92 387/63/91 402/63/101 403/67/102 
f 394/59/96 391/58/93 403/67/102 404/68/103 
f 398/61/98 395/60/97 404/68/103 401/65/100 
f 387/56/91 386/55/90 402/66/101 
f 391/58/93 390/57/92 403/67/102 
f 395/60/97 394/59/96 404/68/103 
f 399/62/99 398/61/98 401/65/100 
f 371/48/77 370/47/76 405/69/104 406/70/105 
f 376/50/82 375/49/81 407/71/106 405/50/104 
f 380/52/84 379/51/83 408/72/107 407/71/106 
f 384/54/88 383/53/87 406/70/105 408/72/107 
f 370/47/76 376/64/82 405/69/104 
f 375/49/81 380/52/84 407/71/106 
f 379/51/83 384/54/88 408/72/107 
f 383/53/87 371/48/77 406/70/105 
s 4
f 401/65/100 404/68/103 403/67/102 402/63/101 
s 16
f 405/69/104 407/71/106 408/72/107 406/70/105 
s 1
f 409/23/59 410/24/108 411/25/109 412/26/78 
f 413/27/79 414/28/62 415/29/63 416/30/61 
f 417/31/110 418/32/65 419/33/65 420/34/110 
f 421/35/111 422/36/112 423/37/86 424/38/66 
s 2
f 410/24/108 409/23/59 413/6/79 416/7/61 
f 415/29/63 414/28/62 417/31/110 420/34/110 
f 419/33/65 418/32/65 421/35/111 424/38/66 
f 423/37/86 422/36/112 412/26/78 411/25/109 
s 1
f 425/23/59 426/73/113 427/74/114 428/26/78 
f 429/27/79 430/28/115 431/75/116 432/76/117 
f 433/31/64 434/32/65 435/77/118 436/78/119 
f 437/35/66 438/36/67 439/79/120 440/80/121 
s 2
f 441/24/108 442/81/122 443/82/123 444/7/61 
f 445/29/63 446/83/124 447/84/125 448/34/64 
f 449/33/95 450/85/126 451/86/127 452/38/128 
f 453/37/86 454/87/129 455/88/130 456/25/60 
s 1
f 457/23/59 458/89/131 459/90/132 460/26/60 
f 461/27/133 462/28/62 463/91/134 464/92/135 
f 465/31/64 466/32/95 467/93/136 468/94/137 
f 469/35/111 470/36/112 471/95/138 472/96/139 
s 2
f 473/24/89 474/97/140 475/98/141 476/7/61 
f 477/29/63 478/99/142 479/100/143 480/34/110 
f 481/33/65 482/101/144 483/102/145 484/38/128 
f 485/37/112 486/103/146 487/104/147 488/25/78 
s 1
f 474/97/140 473/24/89 488/25/78 487/104/147 
f 478/99/142 477/29/63 476/30/61 475/105/141 
f 482/101/144 481/33/65 480/34/110 479/100/143 
f 486/103/146 485/37/112 484/38/128 483/102/145 
f 442/81/122 441/24/108 456/25/60 455/88/130 
f 446/83/124 445/29/63 444/30/61 443/106/123 
f 450/85/126 449/33/95 448/34/64 447/84/125 
f 454/87/129 453/37/86 452/38/128 451/86/127 
s 2
f 458/89/131 457/23/59 461/6/133 464/107/135 
f 463/91/134 462/28/62 465/31/64 468/94/137 
f 467/93/136 466/32/95 469/35/111 472/96/139 
f 471/95/138 470/36/112 460/26/60 459/90/132 
f 426/73/113 425/23/59 429/6/79 432/108/117 
f 431/75/116 430/28/115 433/31/64 436/78/119 
f 435/77/118 434/32/65 437/35/66 440/80/121 
f 439/79/120 438/36/67 428/26/78 427/74/114 
s off
f 474/97/140 487/104/147 489/109/148 490/110/149 
f 478/99/142 475/105/141 490/105/149 491/111/150 
f 482/101/144 479/100/143 491/111/150 492/112/151 
f 486/103/146 483/102/145 492/112/151 489/109/148 
f 475/98/141 474/97/140 490/110/149 
f 479/100/143 478/99/142 491/111/150 
f 483/102/145 482/101/144 492/112/151 
f 487/104/147 486/103/146 489/109/148 
f 443/82/123 442/81/122 493/113/152 
f 447/84/125 446/83/124 494/114/153 
f 451/86/127 450/85/126 495/115/154 
f 455/88/130 454/87/129 496/116/155 
f 442/81/122 455/88/130 496/116/155 493/113/152 
f 446/83/124 443/106/123 493/106/152 494/114/153 
f 450/85/126 447/84/125 494/114/153 495/115/154 
f 454/87/129 451/86/127 495/115/154 496/116/155 
f 459/90/132 458/89/131 497/117/156 498/118/157 
f 464/92/135 463/91/134 499/119/158 497/92/156 
f 468/94/137 467/93/136 500/120/159 499/119/158 
f 472/96/139 471/95/138 498/118/157 500/120/159 
f 458/89/131 464/107/135 497/117/156 
f 463/91/134 468/94/137 499/119/158 
f 467/93/136 472/96/139 500/120/159 
f 471/95/138 459/90/132 498/118/157 
f 427/74/114 426/73/113 501/121/160 502/122/161 
f 432/76/117 431/75/116 503/123/162 501/76/160 
f 436/78/119 435/77/118 504/124/163 503/123/162 
f 440/80/121 439/79/120 502/122/161 504/124/163 
f 426/73/113 432/108/117 501/121/160 
f 431/75/116 436/78/119 503/123/162 
f 435/77/118 440/80/121 504/124/163 
f 439/79/120 427/74/114 502/122/161 
s 32
f 489/109/148 492/112/151 491/111/150 490/105/149 
f 496/116/155 495/115/154 494/114/153 493/106/152 
f 497/117/156 499/119/158 500/120/159 498/118/157 
f 501/121/160 503/123/162 504/124/163 502/122/161 
s 1
f 505/5/19 506/6/51 507/125/51 508/126/19 
s 2
f 506/9/51 509/10/164 510/127/164 507/128/51 
s 1
f 509/10/164 511/13/30 512/129/30 510/127/164 
s 2
f 511/13/30 513/15/31 514/130/31 512/129/30 
s 1
f 513/15/31 515/17/26 516/131/26 514/130/31 
s 2
f 515/17/26 517/19/38 518/132/38 516/131/26 
s 1
f 517/19/38 519/21/28 520/133/28 518/132/38 
s 2
f 519/21/28 505/5/19 508/126/19 520/133/28 
s 1
f 521/5/17 522/6/51 523/125/51 524/126/17 
s 2
f 522/9/51 525/10/164 526/127/164 523/128/51 
s 1
f 525/10/164 527/13/30 528/129/30 526/127/164 
s 2
f 527/13/30 529/15/33 530/130/33 528/129/30 
s 1
f 529/15/33 531/17/26 532/131/26 530/130/33 
s 2
f 531/17/26 533/19/27 534/132/27 532/131/26 
s 1
f 533/19/27 535/21/28 536/133/28 534/132/27 
s 2
f 535/21/28 521/5/17 524/126/17 536/133/28 
s 1
f 537/5/17 538/6/51 539/125/51 540/126/17 
s 2
f 538/9/51 541/10/57 542/127/57 539/128/51 
s 1
f 541/10/57 543/13/30 544/129/30 542/127/57 
s 2
f 543/13/30 545/15/33 546/130/33 544/129/30 
s 1
f 545/15/33 547/17/26 548/131/26 546/130/33 
s 2
f 547/17/26 549/19/38 550/132/38 548/131/26 
s 1
f 549/19/38 551/21/28 552/133/28 550/132/38 
s 2
f 551/21/28 537/5/17 540/126/17 552/133/28 
s 1
f 553/5/19 554/6/165 555/134/165 556/135/52 
s 2
f 554/9/165 557/10/164 558/136/164 555/137/165 
s 1
f 557/10/164 559/13/30 560/138/30 558/136/164 
s 2
f 559/13/30 561/15/31 562/139/31 560/138/30 
s 1
f 561/15/31 563/17/26 564/140/26 562/139/31 
s 2
f 563/17/26 565/19/53 566/141/53 564/140/26 
s 1
f 565/19/53 567/21/28 568/142/28 566/141/53 
s 2
f 567/21/28 553/5/19 556/135/52 568/142/28 
s 1
f 569/5/17 570/6/51 571/134/51 572/135/17 
s 2
f 570/9/51 573/10/164 574/136/164 571/137/51 
s 1
f 573/10/164 575/13/30 576/138/30 574/136/164 
s 2
f 575/13/30 577/15/33 578/139/33 576/138/30 
s 1
f 577/15/33 579/17/26 580/140/26 578/139/33 
s 2
f 579/17/26 581/19/38 582/141/38 580/140/26 
s 1
f 581/19/38 583/21/28 584/142/28 582/141/38 
s 2
f 583/21/28 569/5/17 572/135/17 584/142/28 
s 1
f 585/143/166 586/144/167 587/145/168 588/146/169 
f 589/147/170 590/148/171 591/149/172 592/150/173 
f 593/151/174 594/152/175 595/153/176 596/154/177 
f 597/155/178 598/156/179 599/157/180 600/158/181 
s 2
f 585/143/166 588/146/169 601/146/182 602/143/183 
s 4
f 589/147/170 592/150/173 603/150/184 604/147/185 
s 2
f 593/151/174 596/154/177 605/154/186 606/151/187 
s 4
f 597/155/178 600/158/181 607/158/188 608/155/189 
s 2
f 592/159/173 585/143/166 602/143/183 603/159/184 
f 596/154/177 589/147/170 604/147/185 605/154/186 
f 600/158/181 593/151/174 606/151/187 607/158/188 
f 588/146/169 597/155/178 608/155/189 601/146/182 
s 1
f 602/143/183 601/146/182 609/160/190 610/161/191 
f 604/147/185 603/150/184 610/150/191 611/162/190 
f 606/151/187 605/154/186 611/162/190 612/163/191 
f 608/155/189 607/158/188 612/163/191 609/160/190 
f 603/159/184 602/143/183 610/161/191 
f 605/154/186 604/147/185 611/162/190 
f 607/158/188 606/151/187 612/163/191 
f 601/146/182 608/155/189 609/160/190 
f 609/160/190 612/163/191 611/162/190 610/150/191 
s 8
f 586/144/167 585/143/166 592/159/173 591/164/172 
f 590/148/171 589/147/170 596/154/177 595/153/176 
f 594/152/175 593/151/174 600/158/181 599/157/180 
f 598/156/179 597/155/178 588/146/169 587/145/168 
s 1
f 613/143/192 614/146/193 587/145/168 586/144/167 
f 615/147/194 616/150/195 591/149/172 590/148/171 
f 617/151/196 618/154/197 595/153/176 594/152/175 
f 619/155/198 620/158/199 599/157/180 598/156/179 
s 2
f 613/143/192 621/143/200 622/146/201 614/146/193 
s 4
f 615/147/194 623/147/202 624/150/203 616/150/195 
s 2
f 617/151/196 625/151/204 626/154/205 618/154/197 
s 4
f 619/155/198 627/155/206 628/158/207 620/158/199 
s 2
f 616/159/195 624/159/203 621/143/200 613/143/192 
f 618/154/197 626/154/205 623/147/202 615/147/194 
f 620/158/199 628/158/207 625/151/204 617/151/196 
f 614/146/193 622/146/201 627/155/206 619/155/198 
s 1
f 621/143/200 629/161/19 630/160/208 622/146/201 
f 623/147/202 631/162/39 629/150/19 624/150/203 
f 625/151/204 632/163/209 631/162/39 626/154/205 
f 627/155/206 630/160/208 632/163/209 628/158/207 
f 624/159/203 629/161/19 621/143/200 
f 626/154/205 631/162/39 623/147/202 
f 628/158/207 632/163/209 625/151/204 
f 622/146/201 630/160/208 627/155/206 
f 630/160/208 629/150/19 631/162/39 632/163/209 
s 8
f 586/144/167 591/164/172 616/159/195 613/143/192 
f 590/148/171 595/153/176 618/154/197 615/147/194 
f 594/152/175 599/157/180 620/158/199 617/151/196 
f 598/156/179 587/145/168 614/146/193 619/155/198 
s 1
f 633/143/166 634/144/167 635/145/168 636/146/210 
f 637/147/211 638/148/171 639/149/212 640/150/173 
f 641/151/174 642/152/175 643/153/176 644/154/177 
f 645/155/178 646/156/213 647/157/180 648/158/181 
s 2
f 633/143/166 636/146/210 649/146/182 650/143/183 
s 4
f 637/147/211 640/150/173 651/150/184 652/147/185 
s 2
f 641/151/174 644/154/177 653/154/186 654/151/187 
s 4
f 645/155/178 648/158/181 655/158/188 656/155/189 
s 2
f 640/159/173 633/143/166 650/143/183 651/159/184 
f 644/154/177 637/147/211 652/147/185 653/154/186 
f 648/158/181 641/151/174 654/151/187 655/158/188 
f 636/146/210 645/155/178 656/155/189 649/146/182 
s 1
f 650/143/183 649/146/182 657/160/190 658/161/191 
f 652/147/185 651/150/184 658/150/191 659/162/190 
f 654/151/187 653/154/186 659/162/190 660/163/191 
f 656/155/189 655/158/188 660/163/191 657/160/190 
f 651/159/184 650/143/183 658/161/191 
f 653/154/186 652/147/185 659/162/190 
f 655/158/188 654/151/187 660/163/191 
f 649/146/182 656/155/189 657/160/190 
f 657/160/190 660/163/191 659/162/190 658/150/191 
s 8
f 634/144/167 633/143/166 640/159/173 639/164/212 
f 638/148/171 637/147/211 644/154/177 643/153/176 
f 642/152/175 641/151/174 648/158/181 647/157/180 
f 646/156/213 645/155/178 636/146/210 635/145/168 
s 1
f 661/143/192 662/146/193 635/145/168 634/144/167 
f 663/147/214 664/150/195 639/149/212 638/148/171 
f 665/151/215 666/154/197 643/153/176 642/152/175 
f 667/155/198 668/158/216 647/157/180 646/156/213 
s 2
f 661/143/192 669/143/200 670/146/201 662/146/193 
s 4
f 663/147/214 671/147/202 672/150/217 664/150/195 
s 2
f 665/151/215 673/151/204 674/154/205 666/154/197 
s 4
f 667/155/198 675/155/206 676/158/207 668/158/216 
s 2
f 664/159/195 672/159/217 669/143/200 661/143/192 
f 666/154/197 674/154/205 671/147/202 663/147/214 
f 668/158/216 676/158/207 673/151/204 665/151/215 
f 662/146/193 670/146/201 675/155/206 667/155/198 
s 1
f 669/143/200 677/161/19 678/160/208 670/146/201 
f 671/147/202 679/162/39 677/150/19 672/150/217 
f 673/151/204 680/163/209 679/162/39 674/154/205 
f 675/155/206 678/160/208 680/163/209 676/158/207 
f 672/159/217 677/161/19 669/143/200 
f 674/154/205 679/162/39 671/147/202 
f 676/158/207 680/163/209 673/151/204 
f 670/146/201 678/160/208 675/155/206 
f 678/160/208 677/150/19 679/162/39 680/163/209 
s 8
f 634/144/167 639/164/212 664/159/195 661/143/192 
f 638/148/171 643/153/176 666/154/197 663/147/214 
f 642/152/175 647/157/180 668/158/216 665/151/215 
f 646/156/213 635/145/168 662/146/193 667/155/198 
s 1
f 681/165/58 682/166/58 683/167/51 684/168/51 
f 685/169/51 686/170/51 687/171/28 688/172/28 
s 2
f 689/173/30 690/174/30 686/175/51 685/176/51 
s 1
f 691/177/69 692/178/69 693/179/30 694/180/30 
s 2
f 682/166/58 681/165/58 692/178/69 691/177/69 
f 688/172/28 687/171/28 695/181/26 696/182/26 
f 694/180/30 693/179/30 684/168/51 683/167/51 
s 1
f 696/182/26 695/181/26 690/174/30 689/173/30 
f 697/183/51 698/134/51 699/135/19 700/184/19 
s 2
f 701/185/164 702/136/164 698/137/51 697/186/51 
s 1
f 703/187/30 704/138/30 702/136/164 701/185/164 
s 2
f 705/188/31 706/139/31 704/138/30 703/187/30 
s 1
f 707/189/26 708/140/26 706/139/31 705/188/31 
s 2
f 709/190/38 710/141/38 708/140/26 707/189/26 
s 1
f 711/191/28 712/142/28 710/141/38 709/190/38 
s 2
f 700/184/19 699/135/19 712/142/28 711/191/28 
s 1
f 713/183/51 714/134/51 715/135/17 716/184/17 
s 2
f 717/185/164 718/136/164 714/137/51 713/186/51 
s 1
f 719/187/30 720/138/30 718/136/164 717/185/164 
s 2
f 721/188/33 722/139/33 720/138/30 719/187/30 
s 1
f 723/189/26 724/140/26 722/139/33 721/188/33 
s 2
f 725/190/27 726/141/27 724/140/26 723/189/26 
s 1
f 727/191/28 728/142/28 726/141/27 725/190/27 
s 2
f 716/184/17 715/135/17 728/142/28 727/191/28 
s 1
f 729/183/51 730/134/51 731/135/17 732/184/17 
s 2
f 733/185/57 734/136/57 730/137/51 729/186/51 
s 1
f 735/187/30 736/138/30 734/136/57 733/185/57 
s 2
f 737/188/33 738/139/33 736/138/30 735/187/30 
s 1
f 739/189/26 740/140/26 738/139/33 737/188/33 
s 2
f 741/190/38 742/141/38 740/140/26 739/189/26 
s 1
f 743/191/28 744/142/28 742/141/38 741/190/38 
s 2
f 732/184/17 731/135/17 744/142/28 743/191/28 
s 1
f 745/192/218 746/193/219 747/194/220 748/195/221 
f 749/196/222 750/197/223 751/198/224 752/199/225 
f 753/200/226 754/201/227 755/202/228 756/203/229 
f 757/204/230 758/205/231 759/206/232 760/207/233 
f 761/208/234 762/209/235 763/210/236 764/211/237 
f 765/212/238 766/213/239 767/214/240 768/215/241 
f 769/216/242 770/217/243 771/218/244 772/219/245 
f 773/220/246 774/221/247 775/222/248 776/223/249 
s 2
f 746/193/219 745/192/218 760/207/233 759/206/232 
f 750/197/223 749/196/222 748/224/221 747/225/220 
f 754/201/227 753/200/226 752/199/225 751/198/224 
f 758/205/231 757/204/230 756/203/229 755/202/228 
f 762/209/235 761/208/234 776/223/249 775/222/248 
f 766/213/239 765/212/238 764/226/237 763/227/236 
f 770/217/243 769/216/242 768/215/241 767/214/240 
f 774/221/247 773/220/246 772/219/245 771/218/244 
s 4
f 760/207/233 745/192/218 777/228/250 778/229/251 
f 748/224/221 749/196/222 779/230/252 777/224/250 
f 752/199/225 753/200/226 780/231/253 779/230/252 
f 756/203/229 757/204/230 778/229/251 780/231/253 
f 745/192/218 748/195/221 777/228/250 
f 749/196/222 752/199/225 779/230/252 
f 753/200/226 756/203/229 780/231/253 
f 757/204/230 760/207/233 778/229/251 
f 776/223/249 761/208/234 781/232/254 782/233/255 
f 764/226/237 765/212/238 783/234/256 781/226/254 
f 768/215/241 769/216/242 784/235/257 783/234/256 
f 772/219/245 773/220/246 782/233/255 784/235/257 
f 761/208/234 764/211/237 781/232/254 
f 765/212/238 768/215/241 783/234/256 
f 769/216/242 772/219/245 784/235/257 
f 773/220/246 776/223/249 782/233/255 
f 747/194/220 746/193/219 785/236/258 
f 751/198/224 750/197/223 786/237/259 
f 755/202/228 754/201/227 787/238/260 
f 759/206/232 758/205/231 788/239/261 
f 746/193/219 759/206/232 788/239/261 785/236/258 
f 750/197/223 747/225/220 785/225/258 786/237/259 
f 754/201/227 751/198/224 786/237/259 787/238/260 
f 758/205/231 755/202/228 787/238/260 788/239/261 
f 762/209/235 775/222/248 789/240/262 790/241/263 
f 766/213/239 763/227/236 790/227/263 791/242/264 
f 770/217/243 767/214/240 791/242/264 792/243/265 
f 774/221/247 771/218/244 792/243/265 789/240/262 
f 763/210/236 762/209/235 790/241/263 
f 767/214/240 766/213/239 791/242/264 
f 771/218/244 770/217/243 792/243/265 
f 775/222/248 774/221/247 789/240/262 
f 777/228/250 779/230/252 780/231/253 778/229/251 
f 781/232/254 783/234/256 784/235/257 782/233/255 
f 788/239/261 787/238/260 786/237/259 785/225/258 
f 789/240/262 792/243/265 791/242/264 790/227/263 
s 1
f 793/192/218 794/193/219 795/194/220 796/195/221 
f 797/196/222 798/197/223 799/198/266 800/199/225 
f 801/200/226 802/201/227 803/202/228 804/203/229 
f 805/204/230 806/205/231 807/206/267 808/207/233 
s 2
f 794/193/219 793/192/218 808/207/233 807/206/267 
f 798/197/223 797/196/222 796/224/221 795/225/220 
f 802/201/227 801/200/226 800/199/225 799/198/266 
f 806/205/231 805/204/230 804/203/229 803/202/228 
s 4
f 808/207/233 793/192/218 809/228/250 810/229/251 
f 796/224/221 797/196/222 811/230/252 809/224/250 
f 800/199/225 801/200/226 812/231/253 811/230/252 
f 804/203/229 805/204/230 810/229/251 812/231/253 
f 793/192/218 796/195/221 809/228/250 
f 797/196/222 800/199/225 811/230/252 
f 801/200/226 804/203/229 812/231/253 
f 805/204/230 808/207/233 810/229/251 
f 795/194/220 794/193/219 813/236/268 
f 799/198/266 798/197/223 814/237/259 
f 803/202/228 802/201/227 815/238/269 
f 807/206/267 806/205/231 816/239/270 
f 794/193/219 807/206/267 816/239/270 813/236/268 
f 798/197/223 795/225/220 813/225/268 814/237/259 
f 802/201/227 799/198/266 814/237/259 815/238/269 
f 806/205/231 803/202/228 815/238/269 816/239/270 
f 809/228/250 811/230/252 812/231/253 810/229/251 
f 816/239/270 815/238/269 814/237/259 813/225/268 
s 1
f 817/244/271 818/245/272 819/246/19 820/247/273 
s 2
f 821/248/274 817/249/271 820/250/273 822/251/275 
s 1
f 823/252/276 821/248/274 822/251/275 824/253/277 
s 2
f 825/254/278 823/252/276 824/253/277 826/255/31 
s 1
f 827/256/279 825/254/278 826/255/31 828/257/280 
s 2
f 829/258/281 827/256/279 828/257/280 830/259/282 
s 1
f 831/260/283 829/258/281 830/259/282 832/261/284 
s 2
f 818/245/272 831/260/283 832/261/284 819/246/19 
s 1
f 833/262/285 834/263/286 835/264/27 
f 834/265/286 836/266/287 835/264/27 
f 836/266/287 837/267/288 835/264/27 
f 837/267/288 838/268/289 835/264/27 
f 838/268/289 839/264/290 835/264/27 
f 839/264/290 840/269/291 835/264/27 
f 840/269/291 841/270/292 835/264/27 
f 841/270/292 833/262/285 835/264/27 
s 4
f 818/245/272 817/244/271 842/263/293 843/262/294 
s 8
f 817/249/271 821/248/274 844/266/295 842/265/293 
s 4
f 821/248/274 823/252/276 845/267/296 844/266/295 
s 8
f 823/252/276 825/254/278 846/268/297 845/267/296 
s 4
f 825/254/278 827/256/279 847/264/298 846/268/297 
s 8
f 827/256/279 829/258/281 848/269/299 847/264/298 
s 4
f 829/258/281 831/260/283 849/270/300 848/269/299 
s 8
f 831/260/283 818/245/272 843/262/294 849/270/300 
s off
f 843/262/294 842/263/293 834/263/286 833/262/285 
f 842/265/293 844/266/295 836/266/287 834/265/286 
f 844/266/295 845/267/296 837/267/288 836/266/287 
f 845/267/296 846/268/297 838/268/289 837/267/288 
f 846/268/297 847/264/298 839/264/290 838/268/289 
f 847/264/298 848/269/299 840/269/291 839/264/290 
f 848/269/299 849/270/300 841/270/292 840/269/291 
f 849/270/300 843/262/294 833/262/285 841/270/292 
s 1
f 850/244/301 820/247/273 819/246/19 851/245/302 
s 2
f 852/248/303 822/251/275 820/250/273 850/249/301 
s 1
f 853/252/304 824/253/277 822/251/275 852/248/303 
s 2
f 854/254/305 826/255/31 824/253/277 853/252/304 
s 1
f 855/256/306 828/257/280 826/255/31 854/254/305 
s 2
f 856/258/307 830/259/282 828/257/280 855/256/306 
s 1
f 857/260/308 832/261/284 830/259/282 856/258/307 
s 2
f 851/245/302 819/246/19 832/261/284 857/260/308 
s 1
f 858/262/309 859/264/42 860/263/310 
f 860/265/310 859/264/42 861/266/311 
f 861/266/311 859/264/42 862/267/312 
f 862/267/312 859/264/42 863/268/313 
f 863/268/313 859/264/42 864/264/314 
f 864/264/314 859/264/42 865/269/315 
f 865/269/315 859/264/42 866/270/316 
f 866/270/316 859/264/42 858/262/309 
s 4
f 851/245/302 867/262/317 868/263/318 850/244/301 
s 8
f 850/249/301 868/265/318 869/266/319 852/248/303 
s 4
f 852/248/303 869/266/319 870/267/320 853/252/304 
s 8
f 853/252/304 870/267/320 871/268/321 854/254/305 
s 4
f 854/254/305 871/268/321 872/264/322 855/256/306 
s 8
f 855/256/306 872/264/322 873/269/323 856/258/307 
s 4
f 856/258/307 873/269/323 874/270/324 857/260/308 
s 8
f 857/260/308 874/270/324 867/262/317 851/245/302 
s off
f 867/262/317 858/262/309 860/263/310 868/263/318 
f 868/265/318 860/265/310 861/266/311 869/266/319 
f 869/266/319 861/266/311 862/267/312 870/267/320 
f 870/267/320 862/267/312 863/268/313 871/268/321 
f 871/268/321 863/268/313 864/264/314 872/264/322 
f 872/264/322 864/264/314 865/269/315 873/269/323 
f 873/269/323 865/269/315 866/270/316 874/270/324 
f 874/270/324 866/270/316 858/262/309 867/262/317 
s 1
f 875/271/325 876/272/326 877/273/51 878/274/17 
s 2
f 876/275/326 879/276/327 880/277/328 877/278/51 
s 1
f 879/276/327 881/279/329 882/280/330 880/277/328 
s 2
f 881/279/329 883/281/331 884/282/33 882/280/330 
s 1
f 883/281/331 885/283/332 886/284/26 884/282/33 
s 2
f 885/283/332 887/285/333 888/286/38 886/284/26 
s 1
f 887/285/333 889/287/334 890/288/29 888/286/38 
s 2
f 889/287/334 875/271/325 878/274/17 890/288/29 
s 1
f 891/244/335 892/245/336 893/246/17 894/247/51 
s 2
f 895/248/337 891/249/335 894/250/51 896/251/328 
s 1
f 897/252/338 895/248/337 896/251/328 898/253/330 
s 2
f 899/254/339 897/252/338 898/253/330 900/255/33 
s 1
f 901/256/340 899/254/339 900/255/33 902/257/26 
s 2
f 903/258/341 901/256/340 902/257/26 904/259/38 
s 1
f 905/260/342 903/258/341 904/259/38 906/261/29 
s 2
f 892/245/336 905/260/342 906/261/29 893/246/17 
s 1
f 907/289/325 908/290/326 909/291/51 910/292/17 
s 2
f 908/293/326 911/294/327 912/295/328 909/296/51 
s 1
f 911/294/327 913/297/329 914/298/330 912/295/328 
s 2
f 913/297/329 915/299/331 916/300/33 914/298/330 
s 1
f 915/299/331 917/301/332 918/302/26 916/300/33 
s 2
f 917/301/332 919/303/333 920/304/38 918/302/26 
s 1
f 919/303/333 921/305/334 922/306/29 920/304/38 
s 2
f 921/305/334 907/289/325 910/292/17 922/306/29 
s 1
f 923/307/335 924/308/336 878/274/17 877/273/51 
s 2
f 925/309/337 923/310/335 877/278/51 880/277/328 
s 1
f 926/311/338 925/309/337 880/277/328 882/280/330 
s 2
f 927/312/339 926/311/338 882/280/330 884/282/33 
s 1
f 928/313/340 927/312/339 884/282/33 886/284/26 
s 2
f 929/314/341 928/313/340 886/284/26 888/286/38 
s 1
f 930/315/342 929/314/341 888/286/38 890/288/29 
s 2
f 924/308/336 930/315/342 890/288/29 878/274/17 
s 1
f 931/316/335 932/317/336 910/292/17 909/291/51 
s 2
f 933/318/337 931/319/335 909/296/51 912/295/328 
s 1
f 934/320/338 933/318/337 912/295/328 914/298/330 
s 2
f 935/321/339 934/320/338 914/298/330 916/300/33 
s 1
f 936/322/340 935/321/339 916/300/33 918/302/26 
s 2
f 937/323/341 936/322/340 918/302/26 920/304/38 
s 1
f 938/324/342 937/323/341 920/304/38 922/306/29 
s 2
f 932/317/336 938/324/342 922/306/29 910/292/17 
s 1
f 939/325/325 940/326/326 894/247/51 893/246/17 
s 2
f 940/327/326 941/328/327 896/251/328 894/250/51 
s 1
f 941/328/327 942/329/329 898/253/330 896/251/328 
s 2
f 942/329/329 943/330/331 900/255/33 898/253/330 
s 1
f 943/330/331 944/331/332 902/257/26 900/255/33 
s 2
f 944/331/332 945/332/333 904/259/38 902/257/26 
s 1
f 945/332/333 946/333/334 906/261/29 904/259/38 
s 2
f 946/333/334 939/325/325 893/246/17 906/261/29 
s 1
f 947/334/343 948/335/344 949/336/345 
f 950/337/346 947/338/343 949/336/345 
f 951/339/347 950/337/346 949/336/345 
f 952/340/348 951/339/347 949/336/345 
f 953/336/349 952/340/348 949/336/345 
f 954/341/350 953/336/349 949/336/345 
f 955/342/351 954/341/350 949/336/345 
f 948/335/344 955/342/351 949/336/345 
f 956/262/352 957/263/353 958/264/354 
f 957/265/353 959/266/355 958/264/354 
f 959/266/355 960/267/356 958/264/354 
f 960/267/356 961/268/357 958/264/354 
f 961/268/357 962/264/358 958/264/354 
f 962/264/358 963/269/359 958/264/354 
f 963/269/359 964/270/360 958/264/354 
f 964/270/360 956/262/352 958/264/354 
f 965/343/343 966/344/344 967/345/345 
f 968/346/346 965/347/343 967/345/345 
f 969/348/347 968/346/346 967/345/345 
f 970/349/348 969/348/347 967/345/345 
f 971/345/349 970/349/348 967/345/345 
f 972/350/350 971/345/349 967/345/345 
f 973/351/351 972/350/350 967/345/345 
f 966/344/344 973/351/351 967/345/345 
f 974/352/352 975/353/353 976/354/361 
f 975/355/353 977/356/355 976/354/361 
f 977/356/355 978/357/356 976/354/361 
f 978/357/356 979/358/357 976/354/361 
f 979/358/357 980/354/358 976/354/361 
f 980/354/358 981/359/359 976/354/361 
f 981/359/359 982/360/360 976/354/361 
f 982/360/360 974/352/352 976/354/361 
f 983/361/352 984/362/353 985/363/361 
f 984/364/353 986/365/355 985/363/361 
f 986/365/355 987/366/356 985/363/361 
f 987/366/356 988/367/357 985/363/361 
f 988/367/357 989/363/358 985/363/361 
f 989/363/358 990/368/359 985/363/361 
f 990/368/359 991/369/360 985/363/361 
f 991/369/360 983/361/352 985/363/361 
f 992/370/343 993/371/362 994/372/345 
f 995/373/346 992/374/343 994/372/345 
f 996/375/347 995/373/346 994/372/345 
f 997/376/348 996/375/347 994/372/345 
f 998/372/349 997/376/348 994/372/345 
f 999/377/363 998/372/349 994/372/345 
f 1000/378/351 999/377/363 994/372/345 
f 993/371/362 1000/378/351 994/372/345 
s 4
f 876/272/326 875/271/325 948/335/344 947/334/343 
s 8
f 879/276/327 876/275/326 947/338/343 950/337/346 
s 4
f 881/279/329 879/276/327 950/337/346 951/339/347 
s 8
f 883/281/331 881/279/329 951/339/347 952/340/348 
s 4
f 885/283/332 883/281/331 952/340/348 953/336/349 
s 8
f 887/285/333 885/283/332 953/336/349 954/341/350 
s 4
f 889/287/334 887/285/333 954/341/350 955/342/351 
s 8
f 875/271/325 889/287/334 955/342/351 948/335/344 
s 4
f 892/245/336 891/244/335 957/263/353 956/262/352 
s 8
f 891/249/335 895/248/337 959/266/355 957/265/353 
s 4
f 895/248/337 897/252/338 960/267/356 959/266/355 
s 8
f 897/252/338 899/254/339 961/268/357 960/267/356 
s 4
f 899/254/339 901/256/340 962/264/358 961/268/357 
s 8
f 901/256/340 903/258/341 963/269/359 962/264/358 
s 4
f 903/258/341 905/260/342 964/270/360 963/269/359 
s 8
f 905/260/342 892/245/336 956/262/352 964/270/360 
s 4
f 908/290/326 907/289/325 966/344/344 965/343/343 
s 8
f 911/294/327 908/293/326 965/347/343 968/346/346 
s 4
f 913/297/329 911/294/327 968/346/346 969/348/347 
s 8
f 915/299/331 913/297/329 969/348/347 970/349/348 
s 4
f 917/301/332 915/299/331 970/349/348 971/345/349 
s 8
f 919/303/333 917/301/332 971/345/349 972/350/350 
s 4
f 921/305/334 919/303/333 972/350/350 973/351/351 
s 8
f 907/289/325 921/305/334 973/351/351 966/344/344 
s 4
f 924/308/336 923/307/335 975/353/353 974/352/352 
s 8
f 923/310/335 925/309/337 977/356/355 975/355/353 
s 4
f 925/309/337 926/311/338 978/357/356 977/356/355 
s 8
f 926/311/338 927/312/339 979/358/357 978/357/356 
s 4
f 927/312/339 928/313/340 980/354/358 979/358/357 
s 8
f 928/313/340 929/314/341 981/359/359 980/354/358 
s 4
f 929/314/341 930/315/342 982/360/360 981/359/359 
s 8
f 930/315/342 924/308/336 974/352/352 982/360/360 
s 4
f 932/317/336 931/316/335 984/362/353 983/361/352 
s 8
f 931/319/335 933/318/337 986/365/355 984/364/353 
s 4
f 933/318/337 934/320/338 987/366/356 986/365/355 
s 8
f 934/320/338 935/321/339 988/367/357 987/366/356 
s 4
f 935/321/339 936/322/340 989/363/358 988/367/357 
s 8
f 936/322/340 937/323/341 990/368/359 989/363/358 
s 4
f 937/323/341 938/324/342 991/369/360 990/368/359 
s 8
f 938/324/342 932/317/336 983/361/352 991/369/360 
s 4
f 940/326/326 939/325/325 993/371/362 992/370/343 
s 8
f 941/328/327 940/327/326 992/374/343 995/373/346 
s 4
f 942/329/329 941/328/327 995/373/346 996/375/347 
s 8
f 943/330/331 942/329/329 996/375/347 997/376/348 
s 4
f 944/331/332 943/330/331 997/376/348 998/372/349 
s 8
f 945/332/333 944/331/332 998/372/349 999/377/363 
s 4
f 946/333/334 945/332/333 999/377/363 1000/378/351 
s 8
f 939/325/325 946/333/334 1000/378/351 993/371/362 
f 1001/170/51 1002/7/51 1003/8/35 1004/379/39 
f 1005/380/42 1006/11/42 1002/12/51 1001/175/51 
f 1007/179/22 1008/14/22 1006/11/42 1005/380/42 
f 1009/381/33 1010/16/33 1008/14/22 1007/179/22 
f 1011/178/26 1012/18/364 1010/16/33 1009/381/33 
f 1013/382/27 1014/20/53 1012/18/364 1011/178/26 
f 1015/171/28 1016/22/28 1014/20/53 1013/382/27 
f 1004/379/39 1003/8/35 1016/22/28 1015/171/28 
f 1017/170/51 1018/7/51 1019/8/17 1020/379/17 
f 1021/380/46 1022/11/20 1018/12/51 1017/175/51 
f 1023/179/365 1024/14/366 1022/11/20 1021/380/46 
f 1025/381/41 1026/16/43 1024/14/366 1023/179/365 
f 1027/178/26 1028/18/26 1026/16/43 1025/381/41 
f 1029/382/38 1030/20/53 1028/18/26 1027/178/26 
f 1031/171/28 1032/22/28 1030/20/53 1029/382/38 
f 1020/379/17 1019/8/17 1032/22/28 1031/171/28 
f 1033/170/18 1034/7/18 1035/8/19 1036/379/17 
f 1037/380/42 1038/11/21 1034/12/18 1033/175/18 
f 1039/179/30 1040/14/30 1038/11/21 1037/380/42 
f 1041/381/24 1042/16/25 1040/14/30 1039/179/30 
f 1043/178/26 1044/18/26 1042/16/25 1041/381/24 
f 1045/382/27 1046/20/27 1044/18/26 1043/178/26 
f 1047/171/28 1048/22/28 1046/20/27 1045/382/27 
f 1036/379/17 1035/8/19 1048/22/28 1047/171/28 
f 1049/170/18 1050/7/18 1051/8/17 1052/379/19 
f 1053/380/42 1054/11/21 1050/12/18 1049/175/18 
f 1055/179/30 1056/14/30 1054/11/21 1053/380/42 
f 1057/381/31 1058/16/47 1056/14/30 1055/179/30 
f 1059/178/26 1060/18/26 1058/16/47 1057/381/31 
f 1061/382/27 1062/20/38 1060/18/26 1059/178/26 
f 1063/171/28 1064/22/28 1062/20/38 1061/382/27 
f 1052/379/19 1051/8/17 1064/22/28 1063/171/28 
f 1065/170/18 1066/7/18 1067/8/52 1068/379/17 
f 1069/380/21 1070/11/21 1066/12/18 1065/175/18 
f 1071/179/22 1072/14/22 1070/11/21 1069/380/21 
f 1073/381/31 1074/16/31 1072/14/22 1071/179/22 
f 1075/178/26 1076/18/26 1074/16/31 1073/381/31 
f 1077/382/53 1078/20/38 1076/18/26 1075/178/26 
f 1079/171/28 1080/22/28 1078/20/38 1077/382/53 
f 1068/379/17 1067/8/52 1080/22/28 1079/171/28 
# 656 polygons - 128 triangles

