# 3ds Max Wavefront OBJ Exporter v0.99 - (c)2007 guruware
# File Created: 31.12.2025 02:30:51

mtllib low.mtl

#
# object JailFloorTile01_low
#

v  9.6420 4.0027 -9.5093
v  -10.1150 4.0027 -9.5093
v  -10.1150 4.0027 9.9657
v  9.6420 4.0027 9.9657
# 4 vertices

vn 0.0000 1.0000 -0.0000
# 1 vertex normals

vt 0.0000 1.0000 0.0000
vt 0.0000 0.0000 0.0000
vt 1.0000 0.0000 0.0000
vt 1.0000 1.0000 0.0000
# 4 texture coords

o JailFloorTile01_low
g JailFloorTile01_low
usemtl wire_107038160
s 1
f 1/1/1 2/2/1 3/3/1 4/4/1 
# 1 polygons

