# 3ds Max Wavefront OBJ Exporter v0.99 - (c)2007 guruware
# File Created: 26.12.2025 01:44:48

mtllib PSNW_Hammer01.mtl

#
# object PSNW_Hammer01
#

v  0.0922 0.2094 0.0342
v  0.0922 0.2225 0.0316
v  0.0655 0.2225 0.0316
v  0.0655 0.2094 0.0342
v  0.0922 0.2337 0.0242
v  0.0655 0.2337 0.0242
v  0.0922 0.2411 0.0131
v  0.0655 0.2411 0.0131
v  0.0922 0.2437 0.0000
v  0.0655 0.2437 0.0000
v  0.0424 0.2345 0.0269
v  0.0000 0.2345 0.0269
v  0.0000 0.2094 0.0318
v  0.0424 0.2094 0.0318
v  0.0424 0.2437 0.0000
v  0.0000 0.2437 0.0000
v  0.0000 0.2381 0.0234
v  0.0424 0.2381 0.0234
v  0.0604 0.2181 0.0209
v  0.0585 0.2181 0.0209
v  0.0585 0.2094 0.0226
v  0.0604 0.2094 0.0226
v  0.0604 0.2254 0.0160
v  0.0585 0.2254 0.0160
v  0.0604 0.2304 0.0087
v  0.0585 0.2304 0.0087
v  0.0604 0.2321 0.0000
v  0.0585 0.2321 0.0000
v  0.0447 0.2419 0.0000
v  0.0446 0.2368 0.0221
v  0.0475 0.2304 0.0087
v  0.0475 0.2321 0.0000
v  0.0446 0.2334 0.0254
v  0.0448 0.2094 0.0301
v  0.0475 0.2181 0.0209
v  0.0475 0.2254 0.0160
v  0.0475 0.2094 0.0226
v  0.0632 0.2094 0.0325
v  0.0632 0.2219 0.0300
v  0.0632 0.2324 0.0230
v  0.0632 0.2394 0.0124
v  0.0632 0.2419 0.0000
v  0.0922 0.2094 -0.0342
v  0.0655 0.2094 -0.0342
v  0.0655 0.2225 -0.0316
v  0.0922 0.2225 -0.0316
v  0.0655 0.2337 -0.0242
v  0.0922 0.2337 -0.0242
v  0.0655 0.2411 -0.0131
v  0.0922 0.2411 -0.0131
v  0.0424 0.2345 -0.0269
v  0.0424 0.2094 -0.0318
v  0.0000 0.2094 -0.0318
v  0.0000 0.2345 -0.0269
v  0.0424 0.2381 -0.0234
v  0.0000 0.2381 -0.0234
v  0.0604 0.2181 -0.0209
v  0.0604 0.2094 -0.0226
v  0.0585 0.2094 -0.0226
v  0.0585 0.2181 -0.0209
v  0.0604 0.2254 -0.0160
v  0.0585 0.2254 -0.0160
v  0.0604 0.2304 -0.0087
v  0.0585 0.2304 -0.0087
v  0.0475 0.2304 -0.0087
v  0.0446 0.2368 -0.0221
v  0.0446 0.2334 -0.0254
v  0.0475 0.2254 -0.0160
v  0.0475 0.2181 -0.0209
v  0.0448 0.2094 -0.0301
v  0.0475 0.2094 -0.0226
v  0.0632 0.2094 -0.0325
v  0.0632 0.2219 -0.0300
v  0.0632 0.2324 -0.0230
v  0.0632 0.2394 -0.0124
v  0.0655 0.1963 0.0316
v  0.0922 0.1963 0.0316
v  0.0655 0.1852 0.0242
v  0.0922 0.1852 0.0242
v  0.0655 0.1778 0.0131
v  0.0922 0.1778 0.0131
v  0.0655 0.1752 0.0000
v  0.0922 0.1752 0.0000
v  0.0424 0.1844 0.0269
v  -0.0000 0.1844 0.0269
v  0.0424 0.1752 0.0000
v  0.0424 0.1808 0.0234
v  -0.0000 0.1808 0.0234
v  -0.0000 0.1752 0.0000
v  0.0604 0.2008 0.0209
v  0.0585 0.2008 0.0209
v  0.0604 0.1934 0.0160
v  0.0585 0.1934 0.0160
v  0.0604 0.1885 0.0087
v  0.0585 0.1885 0.0087
v  0.0604 0.1868 0.0000
v  0.0585 0.1868 0.0000
v  0.0447 0.1770 0.0000
v  0.0475 0.1868 0.0000
v  0.0475 0.1885 0.0087
v  0.0446 0.1820 0.0221
v  0.0446 0.1855 0.0254
v  0.0475 0.1934 0.0160
v  0.0475 0.2008 0.0209
v  0.0632 0.1970 0.0300
v  0.0632 0.1865 0.0230
v  0.0632 0.1795 0.0124
v  0.0632 0.1770 0.0000
v  0.0922 0.1963 -0.0316
v  0.0655 0.1963 -0.0316
v  0.0922 0.1852 -0.0242
v  0.0655 0.1852 -0.0242
v  0.0922 0.1778 -0.0131
v  0.0655 0.1778 -0.0131
v  0.0424 0.1844 -0.0269
v  -0.0000 0.1844 -0.0269
v  -0.0000 0.1808 -0.0234
v  0.0424 0.1808 -0.0234
v  0.0604 0.2008 -0.0209
v  0.0585 0.2008 -0.0209
v  0.0604 0.1934 -0.0160
v  0.0585 0.1934 -0.0160
v  0.0604 0.1885 -0.0087
v  0.0585 0.1885 -0.0087
v  0.0446 0.1820 -0.0221
v  0.0475 0.1885 -0.0087
v  0.0446 0.1855 -0.0254
v  0.0475 0.2008 -0.0209
v  0.0475 0.1934 -0.0160
v  0.0632 0.1970 -0.0300
v  0.0632 0.1865 -0.0230
v  0.0632 0.1795 -0.0124
v  0.0935 0.2094 0.0309
v  0.0935 0.2213 0.0286
v  0.0935 0.2313 0.0219
v  0.0935 0.2380 0.0118
v  0.0935 0.2404 0.0000
v  0.0935 0.2213 -0.0286
v  0.0935 0.2094 -0.0309
v  0.0935 0.2313 -0.0219
v  0.0935 0.2380 -0.0118
v  0.0935 0.1976 0.0286
v  0.0935 0.1876 0.0219
v  0.0935 0.1809 0.0118
v  0.0935 0.1785 0.0000
v  0.0935 0.1976 -0.0286
v  0.0935 0.1876 -0.0219
v  0.0935 0.1809 -0.0118
v  0.0935 0.2094 0.0000
v  0.0494 0.2181 0.0209
v  0.0494 0.2094 0.0226
v  0.0494 0.2254 0.0160
v  0.0494 0.2304 0.0087
v  0.0494 0.2321 0.0000
v  0.0494 0.2094 -0.0226
v  0.0494 0.2181 -0.0209
v  0.0494 0.2254 -0.0160
v  0.0494 0.2304 -0.0087
v  0.0494 0.2008 0.0209
v  0.0494 0.1934 0.0160
v  0.0494 0.1885 0.0087
v  0.0494 0.1868 0.0000
v  0.0494 0.2008 -0.0209
v  0.0494 0.1934 -0.0160
v  0.0494 0.1885 -0.0087
v  -0.0922 0.2094 0.0342
v  -0.0655 0.2094 0.0342
v  -0.0655 0.2225 0.0316
v  -0.0922 0.2225 0.0316
v  -0.0655 0.2337 0.0242
v  -0.0922 0.2337 0.0242
v  -0.0655 0.2411 0.0131
v  -0.0922 0.2411 0.0131
v  -0.0655 0.2437 0.0000
v  -0.0922 0.2437 0.0000
v  -0.0424 0.2345 0.0269
v  -0.0424 0.2094 0.0318
v  -0.0424 0.2437 0.0000
v  -0.0424 0.2381 0.0234
v  -0.0604 0.2181 0.0209
v  -0.0604 0.2094 0.0226
v  -0.0585 0.2094 0.0226
v  -0.0585 0.2181 0.0209
v  -0.0604 0.2254 0.0160
v  -0.0585 0.2254 0.0160
v  -0.0604 0.2304 0.0087
v  -0.0585 0.2304 0.0087
v  -0.0604 0.2321 0.0000
v  -0.0585 0.2321 0.0000
v  -0.0447 0.2419 0.0000
v  -0.0475 0.2321 0.0000
v  -0.0475 0.2304 0.0087
v  -0.0446 0.2368 0.0221
v  -0.0446 0.2334 0.0254
v  -0.0475 0.2254 0.0160
v  -0.0475 0.2181 0.0209
v  -0.0448 0.2094 0.0301
v  -0.0475 0.2094 0.0226
v  -0.0632 0.2094 0.0325
v  -0.0632 0.2219 0.0300
v  -0.0632 0.2324 0.0230
v  -0.0632 0.2394 0.0124
v  -0.0632 0.2419 0.0000
v  -0.0922 0.2094 -0.0342
v  -0.0922 0.2225 -0.0316
v  -0.0655 0.2225 -0.0316
v  -0.0655 0.2094 -0.0342
v  -0.0922 0.2337 -0.0242
v  -0.0655 0.2337 -0.0242
v  -0.0922 0.2411 -0.0131
v  -0.0655 0.2411 -0.0131
v  -0.0424 0.2345 -0.0269
v  -0.0424 0.2094 -0.0318
v  -0.0424 0.2381 -0.0234
v  -0.0604 0.2181 -0.0209
v  -0.0585 0.2181 -0.0209
v  -0.0585 0.2094 -0.0226
v  -0.0604 0.2094 -0.0226
v  -0.0604 0.2254 -0.0160
v  -0.0585 0.2254 -0.0160
v  -0.0604 0.2304 -0.0087
v  -0.0585 0.2304 -0.0087
v  -0.0446 0.2368 -0.0221
v  -0.0475 0.2304 -0.0087
v  -0.0446 0.2334 -0.0254
v  -0.0448 0.2094 -0.0301
v  -0.0475 0.2181 -0.0209
v  -0.0475 0.2254 -0.0160
v  -0.0475 0.2094 -0.0226
v  -0.0632 0.2094 -0.0325
v  -0.0632 0.2219 -0.0300
v  -0.0632 0.2324 -0.0230
v  -0.0632 0.2394 -0.0124
v  -0.0922 0.1963 0.0316
v  -0.0655 0.1963 0.0316
v  -0.0922 0.1852 0.0242
v  -0.0655 0.1852 0.0242
v  -0.0922 0.1778 0.0131
v  -0.0655 0.1778 0.0131
v  -0.0922 0.1752 0.0000
v  -0.0655 0.1752 0.0000
v  -0.0424 0.1844 0.0269
v  -0.0424 0.1752 0.0000
v  -0.0424 0.1808 0.0234
v  -0.0604 0.2008 0.0209
v  -0.0585 0.2008 0.0209
v  -0.0604 0.1934 0.0160
v  -0.0585 0.1934 0.0160
v  -0.0604 0.1885 0.0087
v  -0.0585 0.1885 0.0087
v  -0.0604 0.1868 0.0000
v  -0.0585 0.1868 0.0000
v  -0.0447 0.1770 0.0000
v  -0.0446 0.1820 0.0221
v  -0.0475 0.1885 0.0087
v  -0.0475 0.1868 0.0000
v  -0.0446 0.1855 0.0254
v  -0.0475 0.2008 0.0209
v  -0.0475 0.1934 0.0160
v  -0.0632 0.1970 0.0300
v  -0.0632 0.1865 0.0230
v  -0.0632 0.1795 0.0124
v  -0.0632 0.1770 0.0000
v  -0.0655 0.1963 -0.0316
v  -0.0922 0.1963 -0.0316
v  -0.0655 0.1852 -0.0242
v  -0.0922 0.1852 -0.0242
v  -0.0655 0.1778 -0.0131
v  -0.0922 0.1778 -0.0131
v  -0.0424 0.1844 -0.0269
v  -0.0424 0.1808 -0.0234
v  -0.0604 0.2008 -0.0209
v  -0.0585 0.2008 -0.0209
v  -0.0604 0.1934 -0.0160
v  -0.0585 0.1934 -0.0160
v  -0.0604 0.1885 -0.0087
v  -0.0585 0.1885 -0.0087
v  -0.0475 0.1885 -0.0087
v  -0.0446 0.1820 -0.0221
v  -0.0446 0.1855 -0.0254
v  -0.0475 0.1934 -0.0160
v  -0.0475 0.2008 -0.0209
v  -0.0632 0.1970 -0.0300
v  -0.0632 0.1865 -0.0230
v  -0.0632 0.1795 -0.0124
v  -0.0935 0.2213 0.0286
v  -0.0935 0.2094 0.0309
v  -0.0935 0.2313 0.0219
v  -0.0935 0.2380 0.0118
v  -0.0935 0.2404 0.0000
v  -0.0935 0.2094 -0.0309
v  -0.0935 0.2213 -0.0286
v  -0.0935 0.2313 -0.0219
v  -0.0935 0.2380 -0.0118
v  -0.0935 0.1976 0.0286
v  -0.0935 0.1876 0.0219
v  -0.0935 0.1809 0.0118
v  -0.0935 0.1785 0.0000
v  -0.0935 0.1976 -0.0286
v  -0.0935 0.1876 -0.0219
v  -0.0935 0.1809 -0.0118
v  -0.0935 0.2094 0.0000
v  -0.0494 0.2094 0.0226
v  -0.0494 0.2181 0.0209
v  -0.0494 0.2254 0.0160
v  -0.0494 0.2304 0.0087
v  -0.0494 0.2321 0.0000
v  -0.0494 0.2181 -0.0209
v  -0.0494 0.2094 -0.0226
v  -0.0494 0.2254 -0.0160
v  -0.0494 0.2304 -0.0087
v  -0.0494 0.2008 0.0209
v  -0.0494 0.1934 0.0160
v  -0.0494 0.1885 0.0087
v  -0.0494 0.1868 0.0000
v  -0.0494 0.2008 -0.0209
v  -0.0494 0.1934 -0.0160
v  -0.0494 0.1885 -0.0087
v  0.0248 -0.0942 0.0049
v  0.0210 -0.0942 -0.0140
v  0.0238 -0.0726 -0.0099
v  0.0258 -0.0726 0.0000
v  0.0182 -0.0726 -0.0182
v  0.0049 -0.0942 -0.0248
v  0.0099 -0.0726 -0.0238
v  -0.0000 -0.0726 -0.0258
v  -0.0140 -0.0942 -0.0210
v  -0.0099 -0.0726 -0.0238
v  -0.0182 -0.0726 -0.0182
v  -0.0248 -0.0942 -0.0049
v  -0.0238 -0.0726 -0.0099
v  -0.0258 -0.0726 -0.0000
v  -0.0210 -0.0942 0.0140
v  -0.0238 -0.0726 0.0099
v  -0.0182 -0.0726 0.0182
v  -0.0049 -0.0942 0.0248
v  -0.0099 -0.0726 0.0238
v  0.0000 -0.0726 0.0258
v  0.0140 -0.0942 0.0210
v  0.0099 -0.0726 0.0238
v  0.0182 -0.0726 0.0182
v  0.0238 -0.0726 0.0099
v  0.0192 0.1701 -0.0079
v  0.0180 0.1752 -0.0074
v  0.0195 0.1752 0.0000
v  0.0208 0.1701 0.0000
v  0.0147 0.1701 -0.0147
v  0.0138 0.1752 -0.0138
v  0.0079 0.1701 -0.0192
v  0.0074 0.1752 -0.0180
v  -0.0000 0.1701 -0.0208
v  -0.0000 0.1752 -0.0195
v  -0.0079 0.1701 -0.0192
v  -0.0074 0.1752 -0.0180
v  -0.0147 0.1701 -0.0147
v  -0.0138 0.1752 -0.0138
v  -0.0192 0.1701 -0.0079
v  -0.0180 0.1752 -0.0074
v  -0.0208 0.1701 0.0000
v  -0.0195 0.1752 0.0000
v  -0.0192 0.1701 0.0079
v  -0.0180 0.1752 0.0074
v  -0.0147 0.1701 0.0147
v  -0.0138 0.1752 0.0138
v  -0.0079 0.1701 0.0192
v  -0.0074 0.1752 0.0180
v  0.0000 0.1701 0.0208
v  0.0000 0.1752 0.0195
v  0.0079 0.1701 0.0192
v  0.0074 0.1752 0.0180
v  0.0147 0.1701 0.0147
v  0.0138 0.1752 0.0138
v  0.0192 0.1701 0.0079
v  0.0180 0.1752 0.0074
v  0.0217 0.0599 -0.0090
v  0.0214 0.0737 -0.0043
v  0.0235 0.0599 0.0000
v  0.0166 0.0599 -0.0166
v  0.0121 0.0737 -0.0182
v  0.0090 0.0599 -0.0217
v  -0.0000 0.0599 -0.0235
v  -0.0043 0.0737 -0.0214
v  -0.0090 0.0599 -0.0217
v  -0.0166 0.0599 -0.0166
v  -0.0182 0.0737 -0.0121
v  -0.0217 0.0599 -0.0090
v  -0.0235 0.0599 0.0000
v  -0.0214 0.0737 0.0043
v  -0.0217 0.0599 0.0090
v  -0.0166 0.0599 0.0166
v  -0.0121 0.0737 0.0182
v  -0.0090 0.0599 0.0217
v  0.0000 0.0599 0.0235
v  0.0043 0.0737 0.0214
v  0.0090 0.0599 0.0217
v  0.0166 0.0599 0.0166
v  0.0182 0.0737 0.0121
v  0.0217 0.0599 0.0090
v  0.0157 0.1336 -0.0031
v  0.0089 0.1336 -0.0133
v  -0.0031 0.1336 -0.0157
v  -0.0133 0.1336 -0.0089
v  -0.0157 0.1336 0.0031
v  -0.0089 0.1336 0.0133
v  0.0031 0.1336 0.0157
v  0.0133 0.1336 0.0089
v  0.0180 0.0976 -0.0036
v  0.0102 0.0976 -0.0152
v  0.0090 0.1156 -0.0134
v  0.0158 0.1156 -0.0031
v  -0.0036 0.0976 -0.0180
v  -0.0031 0.1156 -0.0158
v  -0.0152 0.0976 -0.0102
v  -0.0134 0.1156 -0.0090
v  -0.0180 0.0976 0.0036
v  -0.0158 0.1156 0.0031
v  -0.0102 0.0976 0.0152
v  -0.0090 0.1156 0.0134
v  0.0036 0.0976 0.0180
v  0.0031 0.1156 0.0158
v  0.0152 0.0976 0.0102
v  0.0134 0.1156 0.0090
v  0.0184 -0.0692 -0.0123
v  0.0184 -0.0671 -0.0123
v  0.0217 -0.0671 0.0043
v  0.0217 -0.0692 0.0043
v  0.0043 -0.0692 -0.0217
v  0.0043 -0.0671 -0.0217
v  -0.0123 -0.0692 -0.0184
v  -0.0123 -0.0671 -0.0184
v  -0.0217 -0.0692 -0.0043
v  -0.0217 -0.0671 -0.0043
v  -0.0184 -0.0692 0.0123
v  -0.0184 -0.0671 0.0123
v  -0.0043 -0.0692 0.0217
v  -0.0043 -0.0671 0.0217
v  0.0123 -0.0692 0.0184
v  0.0123 -0.0671 0.0184
v  0.0217 -0.0965 0.0043
v  0.0184 -0.0965 -0.0123
v  0.0043 -0.0965 -0.0217
v  -0.0123 -0.0965 -0.0184
v  -0.0217 -0.0965 -0.0043
v  -0.0184 -0.0965 0.0123
v  -0.0043 -0.0965 0.0217
v  0.0123 -0.0965 0.0184
v  0.0000 -0.0976 -0.0000
v  0.0122 0.1786 -0.0051
v  0.0132 0.1786 0.0000
v  0.0094 0.1786 -0.0094
v  0.0051 0.1786 -0.0122
v  -0.0000 0.1786 -0.0132
v  -0.0051 0.1786 -0.0122
v  -0.0094 0.1786 -0.0094
v  -0.0122 0.1786 -0.0051
v  -0.0132 0.1786 0.0000
v  -0.0122 0.1786 0.0051
v  -0.0094 0.1786 0.0094
v  -0.0051 0.1786 0.0122
v  0.0000 0.1786 0.0132
v  0.0051 0.1786 0.0122
v  0.0094 0.1786 0.0094
v  0.0122 0.1786 0.0051
v  0.0200 0.2322 -0.0040
v  0.0113 0.2322 -0.0169
v  0.0096 0.2386 -0.0144
v  0.0170 0.2386 -0.0034
v  -0.0040 0.2322 -0.0200
v  -0.0034 0.2386 -0.0170
v  -0.0169 0.2322 -0.0113
v  -0.0144 0.2386 -0.0096
v  -0.0200 0.2322 0.0040
v  -0.0170 0.2386 0.0034
v  -0.0113 0.2322 0.0169
v  -0.0096 0.2386 0.0144
v  0.0040 0.2322 0.0200
v  0.0034 0.2386 0.0170
v  0.0169 0.2322 0.0113
v  0.0144 0.2386 0.0096
v  0.0096 0.2542 -0.0144
v  0.0170 0.2542 -0.0034
v  -0.0034 0.2542 -0.0170
v  -0.0144 0.2542 -0.0096
v  -0.0170 0.2542 0.0034
v  -0.0096 0.2542 0.0144
v  0.0034 0.2542 0.0170
v  0.0144 0.2542 0.0096
v  0.0069 0.2573 -0.0103
v  0.0121 0.2573 -0.0024
v  -0.0024 0.2573 -0.0121
v  -0.0103 0.2573 -0.0069
v  -0.0121 0.2573 0.0024
v  -0.0069 0.2573 0.0103
v  0.0024 0.2573 0.0121
v  0.0103 0.2573 0.0069
v  0.0000 0.2573 0.0000
v  0.0213 -0.0047 -0.0088
v  0.0230 -0.0047 0.0000
v  0.0163 -0.0047 -0.0163
v  0.0088 -0.0047 -0.0213
v  -0.0000 -0.0047 -0.0230
v  -0.0088 -0.0047 -0.0213
v  -0.0163 -0.0047 -0.0163
v  -0.0213 -0.0047 -0.0088
v  -0.0230 -0.0047 -0.0000
v  -0.0213 -0.0047 0.0088
v  -0.0163 -0.0047 0.0163
v  -0.0088 -0.0047 0.0213
v  0.0000 -0.0047 0.0230
v  0.0088 -0.0047 0.0213
v  0.0163 -0.0047 0.0163
v  0.0213 -0.0047 0.0088
# 512 vertices

vn 0.5279 -0.0000 0.8493
vn 0.5279 0.3250 0.7847
vn -0.3082 0.3641 0.8789
vn -0.3082 -0.0000 0.9513
vn 0.5279 0.6005 0.6005
vn -0.3082 0.6727 0.6727
vn 0.5279 0.7846 0.3250
vn -0.3082 0.8789 0.3641
vn 0.5280 0.8493 -0.0000
vn -0.3082 0.9513 -0.0000
vn 0.3102 0.4482 0.8384
vn -0.0000 0.4668 0.8843
vn -0.0000 -0.0000 1.0000
vn 0.2970 -0.0000 0.9549
vn 0.3058 0.9521 0.0000
vn 0.0000 1.0000 0.0000
vn -0.0000 0.8704 0.4924
vn 0.3014 0.8248 0.4784
vn -0.6412 0.2937 0.7090
vn -0.0000 0.3827 0.9239
vn -0.6413 -0.0000 0.7673
vn -0.6412 0.5426 0.5426
vn -0.0000 0.7071 0.7071
vn -0.6412 0.7089 0.2937
vn -0.0000 0.9239 0.3827
vn -0.6412 0.7674 -0.0000
vn 0.0000 1.0000 -0.0000
vn 0.8055 0.5926 0.0000
vn 0.8089 0.5170 0.2798
vn 0.6403 0.7169 0.2758
vn 0.6415 0.7671 -0.0000
vn 0.8154 0.2666 0.5139
vn 0.7801 -0.0000 0.6256
vn 0.4505 0.3943 0.8010
vn 0.6620 0.5313 0.5286
vn 0.6089 -0.0000 0.7932
vn -0.8078 0.0000 0.5894
vn -0.8078 0.2256 0.5446
vn -0.8078 0.4168 0.4168
vn -0.8078 0.5446 0.2256
vn -0.8078 0.5894 0.0000
vn 0.5279 0.0000 -0.8493
vn -0.3082 0.0000 -0.9513
vn -0.3082 0.3641 -0.8789
vn 0.5279 0.3250 -0.7847
vn -0.3082 0.6727 -0.6727
vn 0.5279 0.6005 -0.6005
vn -0.3082 0.8789 -0.3641
vn 0.5279 0.7846 -0.3250
vn 0.3102 0.4482 -0.8384
vn 0.2970 -0.0000 -0.9549
vn 0.0000 0.0000 -1.0000
vn -0.0000 0.4668 -0.8843
vn 0.3014 0.8248 -0.4784
vn -0.0000 0.8704 -0.4924
vn -0.6412 0.2937 -0.7089
vn -0.6412 0.0000 -0.7674
vn -0.0000 0.3827 -0.9239
vn -0.6412 0.5426 -0.5426
vn -0.0000 0.7071 -0.7071
vn -0.6412 0.7089 -0.2937
vn -0.0000 0.9239 -0.3827
vn 0.6403 0.7169 -0.2758
vn 0.8089 0.5170 -0.2798
vn 0.8154 0.2666 -0.5139
vn 0.6620 0.5313 -0.5286
vn 0.4505 0.3943 -0.8010
vn 0.7801 0.0000 -0.6256
vn 0.6089 0.0000 -0.7933
vn -0.8078 0.0000 -0.5894
vn -0.8078 0.2256 -0.5446
vn -0.8078 0.4168 -0.4168
vn -0.8078 0.5446 -0.2256
vn -0.3082 -0.3641 0.8789
vn 0.5279 -0.3250 0.7846
vn -0.3082 -0.6727 0.6727
vn 0.5279 -0.6005 0.6005
vn -0.3082 -0.8789 0.3641
vn 0.5279 -0.7846 0.3250
vn -0.3082 -0.9513 -0.0000
vn 0.5280 -0.8493 -0.0000
vn 0.3102 -0.4482 0.8384
vn 0.0000 -0.4668 0.8843
vn 0.3058 -0.9521 -0.0000
vn 0.3014 -0.8248 0.4784
vn 0.0000 -0.8704 0.4924
vn 0.0000 -1.0000 -0.0000
vn -0.6412 -0.2937 0.7089
vn -0.0000 -0.3827 0.9239
vn -0.6412 -0.5426 0.5426
vn -0.0000 -0.7071 0.7071
vn -0.6412 -0.7089 0.2937
vn -0.0000 -0.9239 0.3827
vn -0.6412 -0.7674 -0.0000
vn 0.8055 -0.5926 -0.0000
vn 0.6415 -0.7671 -0.0000
vn 0.6403 -0.7169 0.2758
vn 0.8089 -0.5170 0.2798
vn 0.8154 -0.2666 0.5139
vn 0.6620 -0.5313 0.5286
vn 0.4505 -0.3943 0.8010
vn -0.8078 -0.2256 0.5446
vn -0.8078 -0.4168 0.4168
vn -0.8078 -0.5446 0.2256
vn -0.8078 -0.5894 -0.0000
vn 0.5279 -0.3250 -0.7847
vn -0.3082 -0.3641 -0.8789
vn 0.5279 -0.6005 -0.6005
vn -0.3082 -0.6727 -0.6727
vn 0.5279 -0.7846 -0.3250
vn -0.3082 -0.8789 -0.3641
vn 0.3102 -0.4482 -0.8384
vn 0.0000 -0.4668 -0.8843
vn 0.0000 -0.8704 -0.4924
vn 0.3014 -0.8248 -0.4784
vn -0.6412 -0.2937 -0.7089
vn -0.0000 -0.3827 -0.9239
vn -0.6412 -0.5426 -0.5426
vn -0.0000 -0.7071 -0.7071
vn -0.6412 -0.7089 -0.2937
vn -0.0000 -0.9239 -0.3827
vn 0.8089 -0.5170 -0.2798
vn 0.6403 -0.7169 -0.2758
vn 0.8154 -0.2666 -0.5139
vn 0.4505 -0.3943 -0.8010
vn 0.6620 -0.5313 -0.5286
vn -0.8078 -0.2256 -0.5446
vn -0.8078 -0.4168 -0.4168
vn -0.8078 -0.5446 -0.2256
vn 0.9765 -0.0000 0.2153
vn 0.9765 0.0824 0.1989
vn 0.9765 0.1522 0.1523
vn 0.9765 0.1989 0.0824
vn 0.9765 0.2153 0.0000
vn 0.9765 0.0824 -0.1989
vn 0.9765 -0.0000 -0.2153
vn 0.9765 0.1523 -0.1523
vn 0.9765 0.1989 -0.0824
vn 0.9765 -0.0824 0.1989
vn 0.9765 -0.1523 0.1522
vn 0.9765 -0.1989 0.0824
vn 0.9765 -0.2153 -0.0000
vn 0.9765 -0.0824 -0.1989
vn 0.9765 -0.1522 -0.1522
vn 0.9765 -0.1989 -0.0824
vn 1.0000 -0.0000 -0.0000
vn 0.0000 -0.0000 1.0000
vn -0.0000 0.0000 -1.0000
vn 0.0000 0.9239 -0.3827
vn 0.0000 -0.9239 -0.3827
vn -0.5279 0.0000 0.8493
vn 0.3082 -0.0000 0.9513
vn 0.3082 0.3641 0.8789
vn -0.5279 0.3250 0.7847
vn 0.3082 0.6727 0.6727
vn -0.5279 0.6005 0.6005
vn 0.3082 0.8789 0.3641
vn -0.5279 0.7846 0.3250
vn 0.3082 0.9513 -0.0000
vn -0.5280 0.8493 -0.0000
vn -0.3102 0.4482 0.8384
vn -0.2970 -0.0000 0.9549
vn -0.3058 0.9521 0.0000
vn -0.3014 0.8248 0.4784
vn 0.6412 0.2937 0.7090
vn 0.6413 -0.0000 0.7673
vn 0.0000 0.3827 0.9239
vn 0.6412 0.5426 0.5426
vn 0.0000 0.7071 0.7071
vn 0.6412 0.7089 0.2937
vn 0.0000 0.9239 0.3827
vn 0.6412 0.7674 -0.0000
vn -0.0000 1.0000 -0.0000
vn -0.8055 0.5926 0.0000
vn -0.6415 0.7671 -0.0000
vn -0.6403 0.7169 0.2758
vn -0.8089 0.5170 0.2798
vn -0.8154 0.2666 0.5139
vn -0.6620 0.5313 0.5286
vn -0.4505 0.3943 0.8010
vn -0.7801 -0.0000 0.6256
vn -0.6089 -0.0000 0.7932
vn 0.8078 -0.0000 0.5894
vn 0.8078 0.2256 0.5446
vn 0.8078 0.4168 0.4168
vn 0.8078 0.5446 0.2256
vn 0.8078 0.5894 -0.0000
vn -0.5279 0.0000 -0.8493
vn -0.5279 0.3250 -0.7847
vn 0.3082 0.3641 -0.8789
vn 0.3082 0.0000 -0.9513
vn -0.5279 0.6005 -0.6005
vn 0.3082 0.6727 -0.6727
vn -0.5279 0.7846 -0.3250
vn 0.3082 0.8789 -0.3641
vn -0.3102 0.4482 -0.8384
vn -0.2970 -0.0000 -0.9549
vn -0.3014 0.8248 -0.4784
vn 0.6412 0.2937 -0.7089
vn 0.0000 0.3827 -0.9239
vn 0.6412 0.0000 -0.7674
vn 0.6412 0.5426 -0.5426
vn 0.0000 0.7071 -0.7071
vn 0.6412 0.7089 -0.2937
vn -0.8089 0.5170 -0.2798
vn -0.6403 0.7169 -0.2758
vn -0.8154 0.2666 -0.5139
vn -0.7801 0.0000 -0.6256
vn -0.4505 0.3943 -0.8010
vn -0.6620 0.5313 -0.5286
vn -0.6089 0.0000 -0.7933
vn 0.8078 -0.0000 -0.5894
vn 0.8078 0.2256 -0.5446
vn 0.8078 0.4168 -0.4168
vn 0.8078 0.5446 -0.2256
vn -0.5279 -0.3250 0.7846
vn 0.3082 -0.3641 0.8789
vn -0.5279 -0.6006 0.6005
vn 0.3082 -0.6727 0.6727
vn -0.5279 -0.7846 0.3250
vn 0.3082 -0.8789 0.3641
vn -0.5280 -0.8493 -0.0000
vn 0.3082 -0.9513 -0.0000
vn -0.3102 -0.4482 0.8384
vn -0.3058 -0.9521 -0.0000
vn -0.3014 -0.8248 0.4784
vn 0.6412 -0.2937 0.7089
vn 0.0000 -0.3827 0.9239
vn 0.6412 -0.5426 0.5426
vn 0.0000 -0.7071 0.7071
vn 0.6412 -0.7089 0.2937
vn 0.0000 -0.9239 0.3827
vn 0.6412 -0.7674 -0.0000
vn -0.0000 -1.0000 -0.0000
vn -0.8055 -0.5926 -0.0000
vn -0.8089 -0.5170 0.2798
vn -0.6403 -0.7169 0.2758
vn -0.6415 -0.7671 -0.0000
vn -0.8154 -0.2666 0.5139
vn -0.4505 -0.3943 0.8010
vn -0.6620 -0.5313 0.5286
vn 0.8078 -0.2256 0.5446
vn 0.8078 -0.4168 0.4168
vn 0.8078 -0.5446 0.2256
vn 0.8078 -0.5894 0.0000
vn 0.3082 -0.3641 -0.8789
vn -0.5279 -0.3250 -0.7847
vn 0.3082 -0.6727 -0.6727
vn -0.5279 -0.6005 -0.6005
vn 0.3082 -0.8789 -0.3641
vn -0.5279 -0.7846 -0.3250
vn -0.3102 -0.4482 -0.8384
vn -0.3014 -0.8248 -0.4784
vn 0.6412 -0.2937 -0.7089
vn 0.0000 -0.3827 -0.9239
vn 0.6412 -0.5426 -0.5426
vn 0.0000 -0.7071 -0.7071
vn 0.6412 -0.7089 -0.2937
vn -0.6403 -0.7169 -0.2758
vn -0.8089 -0.5170 -0.2798
vn -0.8154 -0.2666 -0.5139
vn -0.6620 -0.5313 -0.5286
vn -0.4505 -0.3943 -0.8010
vn 0.8078 -0.2256 -0.5446
vn 0.8078 -0.4168 -0.4168
vn 0.8078 -0.5446 -0.2256
vn -0.9765 0.0824 0.1989
vn -0.9765 -0.0000 0.2153
vn -0.9765 0.1523 0.1522
vn -0.9765 0.1989 0.0824
vn -0.9765 0.2153 0.0000
vn -0.9765 -0.0000 -0.2153
vn -0.9765 0.0824 -0.1989
vn -0.9765 0.1522 -0.1522
vn -0.9765 0.1989 -0.0824
vn -0.9765 -0.0824 0.1989
vn -0.9765 -0.1523 0.1523
vn -0.9765 -0.1989 0.0824
vn -0.9765 -0.2153 -0.0000
vn -0.9765 -0.0824 -0.1989
vn -0.9765 -0.1523 -0.1523
vn -0.9765 -0.1989 -0.0824
vn -1.0000 0.0000 -0.0000
vn 0.8768 -0.4480 0.1744
vn 0.7433 -0.4480 -0.4967
vn 0.8635 0.3952 -0.3132
vn 0.9177 0.3952 -0.0411
vn 0.6198 0.3952 -0.6779
vn 0.1744 -0.4480 -0.8768
vn 0.3891 0.3952 -0.8321
vn -0.0411 0.3952 -0.9177
vn -0.4967 -0.4480 -0.7433
vn -0.3132 0.3952 -0.8635
vn -0.6779 0.3952 -0.6198
vn -0.8768 -0.4480 -0.1744
vn -0.8321 0.3952 -0.3891
vn -0.9177 0.3952 0.0411
vn -0.7433 -0.4480 0.4967
vn -0.8635 0.3952 0.3132
vn -0.6198 0.3952 0.6779
vn -0.1744 -0.4480 0.8768
vn -0.3891 0.3952 0.8321
vn 0.0411 0.3952 0.9177
vn 0.4967 -0.4480 0.7433
vn 0.3132 0.3952 0.8635
vn 0.6779 0.3952 0.6198
vn 0.8321 0.3952 0.3891
vn 0.9204 0.0564 -0.3869
vn 0.7452 0.5911 -0.3087
vn 0.8066 0.5911 -0.0000
vn 0.9984 0.0564 0.0052
vn 0.7097 0.0564 -0.7023
vn 0.5704 0.5911 -0.5704
vn 0.3772 0.0564 -0.9244
vn 0.3087 0.5911 -0.7452
vn 0.0052 0.0564 -0.9984
vn 0.0000 0.5911 -0.8066
vn -0.3869 0.0564 -0.9204
vn -0.3087 0.5911 -0.7452
vn -0.7023 0.0564 -0.7097
vn -0.5704 0.5911 -0.5704
vn -0.9244 0.0564 -0.3772
vn -0.7452 0.5911 -0.3087
vn -0.9984 0.0564 -0.0052
vn -0.8066 0.5911 0.0000
vn -0.9204 0.0564 0.3869
vn -0.7452 0.5911 0.3087
vn -0.7097 0.0564 0.7023
vn -0.5704 0.5911 0.5704
vn -0.3772 0.0564 0.9244
vn -0.3087 0.5911 0.7452
vn -0.0052 0.0564 0.9984
vn 0.0000 0.5911 0.8066
vn 0.3869 0.0564 0.9204
vn 0.3087 0.5911 0.7452
vn 0.7023 0.0564 0.7097
vn 0.5704 0.5911 0.5704
vn 0.9244 0.0564 0.3772
vn 0.7452 0.5911 0.3087
vn 0.9145 0.0740 -0.3979
vn 0.9668 0.1681 -0.1923
vn 0.9971 0.0740 0.0176
vn 0.7175 0.0740 -0.6926
vn 0.5477 0.1681 -0.8196
vn 0.3653 0.0740 -0.9279
vn 0.0176 0.0740 -0.9971
vn -0.1923 0.1681 -0.9668
vn -0.3979 0.0740 -0.9145
vn -0.6926 0.0740 -0.7175
vn -0.8196 0.1681 -0.5477
vn -0.9279 0.0740 -0.3653
vn -0.9971 0.0740 -0.0176
vn -0.9668 0.1681 0.1923
vn -0.9145 0.0740 0.3979
vn -0.7175 0.0740 0.6926
vn -0.5477 0.1681 0.8196
vn -0.3653 0.0740 0.9279
vn -0.0176 0.0740 0.9971
vn 0.1923 0.1681 0.9668
vn 0.3979 0.0740 0.9145
vn 0.6926 0.0740 0.7175
vn 0.8196 0.1681 0.5477
vn 0.9279 0.0740 0.3653
vn 0.9777 -0.0792 -0.1945
vn 0.5538 -0.0792 -0.8289
vn -0.1945 -0.0792 -0.9777
vn -0.8289 -0.0792 -0.5538
vn -0.9777 -0.0792 0.1945
vn -0.5538 -0.0792 0.8289
vn 0.1945 -0.0792 0.9777
vn 0.8289 -0.0792 0.5538
vn 0.9720 0.1337 -0.1933
vn 0.5506 0.1337 -0.8240
vn 0.5544 0.0636 -0.8298
vn 0.9788 0.0636 -0.1947
vn -0.1933 0.1337 -0.9720
vn -0.1947 0.0636 -0.9788
vn -0.8240 0.1337 -0.5506
vn -0.8298 0.0636 -0.5544
vn -0.9720 0.1337 0.1933
vn -0.9788 0.0636 0.1947
vn -0.5506 0.1337 0.8240
vn -0.5544 0.0636 0.8298
vn 0.1933 0.1337 0.9720
vn 0.1947 0.0636 0.9788
vn 0.8240 0.1337 0.5506
vn 0.8298 0.0636 0.5544
vn 0.7330 0.4722 -0.4897
vn 0.8313 -0.0209 -0.5554
vn 0.9806 -0.0209 0.1950
vn 0.8646 0.4722 0.1720
vn 0.1720 0.4722 -0.8646
vn 0.1950 -0.0209 -0.9806
vn -0.4897 0.4722 -0.7330
vn -0.5554 -0.0209 -0.8313
vn -0.8646 0.4722 -0.1720
vn -0.9806 -0.0209 -0.1950
vn -0.7330 0.4722 0.4897
vn -0.8313 -0.0209 0.5554
vn -0.1720 0.4722 0.8646
vn -0.1950 -0.0209 0.9806
vn 0.4897 0.4722 0.7330
vn 0.5554 -0.0209 0.8313
vn 0.3889 -0.9180 0.0774
vn 0.3297 -0.9180 -0.2203
vn 0.0774 -0.9180 -0.3889
vn -0.2203 -0.9180 -0.3297
vn -0.3889 -0.9180 -0.0774
vn -0.3297 -0.9180 0.2203
vn -0.0774 -0.9180 0.3889
vn 0.2203 -0.9180 0.3297
vn 0.4449 0.8764 -0.1843
vn 0.4815 0.8764 -0.0000
vn 0.3405 0.8764 -0.3405
vn 0.1843 0.8764 -0.4449
vn 0.0000 0.8764 -0.4815
vn -0.1843 0.8764 -0.4449
vn -0.3405 0.8764 -0.3405
vn -0.4449 0.8764 -0.1843
vn -0.4815 0.8764 -0.0000
vn -0.4449 0.8764 0.1843
vn -0.3405 0.8764 0.3405
vn -0.1843 0.8764 0.4449
vn -0.0000 0.8764 0.4815
vn 0.1843 0.8764 0.4449
vn 0.3405 0.8764 0.3405
vn 0.4449 0.8764 0.1843
vn 0.8866 0.4275 -0.1764
vn 0.5022 0.4275 -0.7516
vn 0.5405 0.2314 -0.8089
vn 0.9542 0.2314 -0.1898
vn -0.1764 0.4275 -0.8866
vn -0.1898 0.2315 -0.9542
vn -0.7516 0.4275 -0.5022
vn -0.8089 0.2315 -0.5405
vn -0.8866 0.4275 0.1764
vn -0.9541 0.2315 0.1898
vn -0.5022 0.4275 0.7516
vn -0.5405 0.2314 0.8089
vn 0.1764 0.4275 0.8866
vn 0.1898 0.2314 0.9542
vn 0.7516 0.4275 0.5022
vn 0.8089 0.2314 0.5405
vn 0.4984 0.4417 -0.7460
vn 0.8799 0.4417 -0.1750
vn -0.1750 0.4417 -0.8799
vn -0.7460 0.4417 -0.4984
vn -0.8799 0.4417 0.1750
vn -0.4984 0.4417 0.7460
vn 0.1750 0.4417 0.8799
vn 0.7460 0.4417 0.4984
vn 0.1861 0.9422 -0.2786
vn 0.3286 0.9422 -0.0654
vn -0.0654 0.9422 -0.3286
vn -0.2786 0.9422 -0.1861
vn -0.3286 0.9422 0.0654
vn -0.1861 0.9422 0.2786
vn 0.0654 0.9422 0.3286
vn 0.2786 0.9422 0.1861
vn 0.9254 -0.0139 -0.3787
vn 0.9999 -0.0139 -0.0043
vn 0.7040 -0.0139 -0.7101
vn 0.3866 -0.0139 -0.9221
vn -0.0043 -0.0139 -0.9999
vn -0.3787 -0.0139 -0.9254
vn -0.7101 -0.0139 -0.7040
vn -0.9221 -0.0139 -0.3866
vn -0.9999 -0.0139 0.0043
vn -0.9254 -0.0139 0.3787
vn -0.7040 -0.0139 0.7101
vn -0.3866 -0.0139 0.9221
vn 0.0043 -0.0139 0.9999
vn 0.3787 -0.0139 0.9254
vn 0.7101 -0.0139 0.7040
vn 0.9221 -0.0139 0.3866
# 475 vertex normals

vt 0.1648 0.8415 0.0000
vt 0.1793 0.8297 0.0000
vt 0.2553 0.8455 0.0000
vt 0.2394 0.8622 0.0000
vt 0.1893 0.8172 0.0000
vt 0.2664 0.8279 0.0000
vt 0.1952 0.8044 0.0000
vt 0.2732 0.8097 0.0000
vt 0.1972 0.7913 0.0000
vt 0.2760 0.7912 0.0000
vt 0.3720 0.8378 0.0000
vt 0.4954 0.8440 0.0000
vt 0.4934 0.8865 0.0000
vt 0.3513 0.8791 0.0000
vt 0.3728 0.7914 0.0000
vt 0.4979 0.7925 0.0000
vt 0.4958 0.8350 0.0000
vt 0.3736 0.8300 0.0000
vt 0.2907 0.8508 0.0000
vt 0.2959 0.8514 0.0000
vt 0.2838 0.8699 0.0000
vt 0.2783 0.8691 0.0000
vt 0.2998 0.8314 0.0000
vt 0.3045 0.8318 0.0000
vt 0.3053 0.8115 0.0000
vt 0.3097 0.8116 0.0000
vt 0.3064 0.7911 0.0000
vt 0.3111 0.7912 0.0000
vt 0.3643 0.7914 0.0000
vt 0.3659 0.8292 0.0000
vt 0.3365 0.8124 0.0000
vt 0.3388 0.7912 0.0000
vt 0.3640 0.8371 0.0000
vt 0.3414 0.8778 0.0000
vt 0.3269 0.8546 0.0000
vt 0.3326 0.8338 0.0000
vt 0.3179 0.8746 0.0000
vt 0.2476 0.8638 0.0000
vt 0.2634 0.8467 0.0000
vt 0.2744 0.8287 0.0000
vt 0.2810 0.8100 0.0000
vt 0.2841 0.7911 0.0000
vt 0.1648 0.7417 0.0000
vt 0.2406 0.7203 0.0000
vt 0.2562 0.7369 0.0000
vt 0.1793 0.7532 0.0000
vt 0.2671 0.7545 0.0000
vt 0.1894 0.7655 0.0000
vt 0.2735 0.7727 0.0000
vt 0.1953 0.7783 0.0000
vt 0.3747 0.7451 0.0000
vt 0.3559 0.7037 0.0000
vt 0.5025 0.6991 0.0000
vt 0.5004 0.7412 0.0000
vt 0.3759 0.7529 0.0000
vt 0.5000 0.7502 0.0000
vt 0.2921 0.7316 0.0000
vt 0.2803 0.7130 0.0000
vt 0.2860 0.7123 0.0000
vt 0.2974 0.7310 0.0000
vt 0.3009 0.7508 0.0000
vt 0.3056 0.7505 0.0000
vt 0.3059 0.7708 0.0000
vt 0.3103 0.7707 0.0000
vt 0.3375 0.7701 0.0000
vt 0.3681 0.7536 0.0000
vt 0.3665 0.7457 0.0000
vt 0.3345 0.7487 0.0000
vt 0.3298 0.7278 0.0000
vt 0.3457 0.7049 0.0000
vt 0.3212 0.7080 0.0000
vt 0.2490 0.7186 0.0000
vt 0.2644 0.7356 0.0000
vt 0.2751 0.7537 0.0000
vt 0.2814 0.7723 0.0000
vt 0.2199 0.8780 0.0000
vt 0.1455 0.8526 0.0000
vt 0.1964 0.8928 0.0000
vt 0.1208 0.8626 0.0000
vt 0.1705 0.9073 0.0000
vt 0.0902 0.8712 0.0000
vt 0.1448 0.9236 0.0000
vt 0.0519 0.8786 0.0000
vt 0.3404 0.9195 0.0000
vt 0.4913 0.9308 0.0000
vt 0.3031 0.9602 0.0000
vt 0.3367 0.9272 0.0000
vt 0.4908 0.9397 0.0000
vt 0.4888 0.9836 0.0000
vt 0.2612 0.8860 0.0000
vt 0.2675 0.8871 0.0000
vt 0.2421 0.9017 0.0000
vt 0.2491 0.9030 0.0000
vt 0.2224 0.9163 0.0000
vt 0.2303 0.9178 0.0000
vt 0.2055 0.9300 0.0000
vt 0.2136 0.9314 0.0000
vt 0.2922 0.9561 0.0000
vt 0.2579 0.9412 0.0000
vt 0.2749 0.9275 0.0000
vt 0.3269 0.9255 0.0000
vt 0.3308 0.9182 0.0000
vt 0.2901 0.9108 0.0000
vt 0.3056 0.8933 0.0000
vt 0.2287 0.8801 0.0000
vt 0.2060 0.8951 0.0000
vt 0.1814 0.9098 0.0000
vt 0.1583 0.9260 0.0000
vt 0.1453 0.7310 0.0000
vt 0.2211 0.7046 0.0000
vt 0.1205 0.7218 0.0000
vt 0.1972 0.6901 0.0000
vt 0.0899 0.7143 0.0000
vt 0.1699 0.6758 0.0000
vt 0.0514 0.7088 0.0000
vt 0.1403 0.6593 0.0000
vt 0.3473 0.6634 0.0000
vt 0.5047 0.6550 0.0000
vt 0.3126 0.6224 0.0000
vt 0.5073 0.6025 0.0000
vt 0.5051 0.6462 0.0000
vt 0.3440 0.6558 0.0000
vt 0.2632 0.6964 0.0000
vt 0.2698 0.6953 0.0000
vt 0.2438 0.6807 0.0000
vt 0.2512 0.6793 0.0000
vt 0.2235 0.6661 0.0000
vt 0.2319 0.6646 0.0000
vt 0.2057 0.6524 0.0000
vt 0.2145 0.6509 0.0000
vt 0.3008 0.6264 0.0000
vt 0.3339 0.6573 0.0000
vt 0.2797 0.6548 0.0000
vt 0.2633 0.6410 0.0000
vt 0.3374 0.6646 0.0000
vt 0.3096 0.6892 0.0000
vt 0.2945 0.6715 0.0000
vt 0.2300 0.7025 0.0000
vt 0.2069 0.6876 0.0000
vt 0.1809 0.6731 0.0000
vt 0.1546 0.6566 0.0000
vt 0.1558 0.8380 0.0000
vt 0.1695 0.8270 0.0000
vt 0.1789 0.8154 0.0000
vt 0.1845 0.8035 0.0000
vt 0.1863 0.7914 0.0000
vt 0.1696 0.7561 0.0000
vt 0.1558 0.7454 0.0000
vt 0.1790 0.7676 0.0000
vt 0.1845 0.7794 0.0000
vt 0.1374 0.8483 0.0000
vt 0.1136 0.8575 0.0000
vt 0.0838 0.8650 0.0000
vt 0.0466 0.8696 0.0000
vt 0.1373 0.7355 0.0000
vt 0.1136 0.7271 0.0000
vt 0.0838 0.7206 0.0000
vt 0.0470 0.7176 0.0000
vt 0.0757 0.7925 0.0000
vt 0.3215 0.8540 0.0000
vt 0.3120 0.8738 0.0000
vt 0.3278 0.8335 0.0000
vt 0.3319 0.8123 0.0000
vt 0.3340 0.7912 0.0000
vt 0.3150 0.7088 0.0000
vt 0.3242 0.7283 0.0000
vt 0.3296 0.7490 0.0000
vt 0.3328 0.7702 0.0000
vt 0.2990 0.8922 0.0000
vt 0.2833 0.9095 0.0000
vt 0.2675 0.9256 0.0000
vt 0.2505 0.9393 0.0000
vt 0.3027 0.6902 0.0000
vt 0.2872 0.6728 0.0000
vt 0.2716 0.6567 0.0000
vt 0.2552 0.6429 0.0000
vt 0.8258 0.8495 0.0000
vt 0.7493 0.8684 0.0000
vt 0.7350 0.8513 0.0000
vt 0.8124 0.8374 0.0000
vt 0.7256 0.8334 0.0000
vt 0.8036 0.8247 0.0000
vt 0.7206 0.8151 0.0000
vt 0.7990 0.8117 0.0000
vt 0.7196 0.7965 0.0000
vt 0.7983 0.7986 0.0000
vt 0.6193 0.8407 0.0000
vt 0.6360 0.8825 0.0000
vt 0.6230 0.7944 0.0000
vt 0.6184 0.8330 0.0000
vt 0.6991 0.8557 0.0000
vt 0.7098 0.8744 0.0000
vt 0.7043 0.8749 0.0000
vt 0.6939 0.8562 0.0000
vt 0.6919 0.8362 0.0000
vt 0.6872 0.8364 0.0000
vt 0.6884 0.8161 0.0000
vt 0.6840 0.8161 0.0000
vt 0.6893 0.7958 0.0000
vt 0.6846 0.7957 0.0000
vt 0.6315 0.7946 0.0000
vt 0.6569 0.7951 0.0000
vt 0.6572 0.8163 0.0000
vt 0.6262 0.8324 0.0000
vt 0.6273 0.8402 0.0000
vt 0.6590 0.8377 0.0000
vt 0.6627 0.8586 0.0000
vt 0.6460 0.8815 0.0000
vt 0.6698 0.8788 0.0000
vt 0.7409 0.8698 0.0000
vt 0.7268 0.8523 0.0000
vt 0.7176 0.8340 0.0000
vt 0.7128 0.8152 0.0000
vt 0.7116 0.7963 0.0000
vt 0.8356 0.7498 0.0000
vt 0.8199 0.7610 0.0000
vt 0.7447 0.7429 0.0000
vt 0.7620 0.7267 0.0000
vt 0.8087 0.7731 0.0000
vt 0.7321 0.7602 0.0000
vt 0.8015 0.7857 0.0000
vt 0.7239 0.7782 0.0000
vt 0.6256 0.7482 0.0000
vt 0.6484 0.7072 0.0000
vt 0.6237 0.7559 0.0000
vt 0.7094 0.7366 0.0000
vt 0.7042 0.7360 0.0000
vt 0.7174 0.7175 0.0000
vt 0.7230 0.7184 0.0000
vt 0.6988 0.7556 0.0000
vt 0.6941 0.7552 0.0000
vt 0.6918 0.7754 0.0000
vt 0.6874 0.7752 0.0000
vt 0.6314 0.7567 0.0000
vt 0.6604 0.7740 0.0000
vt 0.6337 0.7490 0.0000
vt 0.6586 0.7087 0.0000
vt 0.6722 0.7320 0.0000
vt 0.6654 0.7527 0.0000
vt 0.6828 0.7124 0.0000
vt 0.7538 0.7248 0.0000
vt 0.7367 0.7414 0.0000
vt 0.7243 0.7591 0.0000
vt 0.7162 0.7776 0.0000
vt 0.8440 0.8611 0.0000
vt 0.7673 0.8846 0.0000
vt 0.8677 0.8716 0.0000
vt 0.7893 0.8999 0.0000
vt 0.8975 0.8809 0.0000
vt 0.8138 0.9151 0.0000
vt 0.9350 0.8893 0.0000
vt 0.8380 0.9319 0.0000
vt 0.6430 0.9232 0.0000
vt 0.6764 0.9647 0.0000
vt 0.6460 0.9309 0.0000
vt 0.7253 0.8916 0.0000
vt 0.7189 0.8925 0.0000
vt 0.7429 0.9077 0.0000
vt 0.7358 0.9089 0.0000
vt 0.7611 0.9228 0.0000
vt 0.7531 0.9241 0.0000
vt 0.7768 0.9369 0.0000
vt 0.7686 0.9381 0.0000
vt 0.6877 0.9608 0.0000
vt 0.6559 0.9295 0.0000
vt 0.7077 0.9327 0.0000
vt 0.7234 0.9468 0.0000
vt 0.6527 0.9221 0.0000
vt 0.6802 0.8978 0.0000
vt 0.6940 0.9157 0.0000
vt 0.7583 0.8865 0.0000
vt 0.7795 0.9021 0.0000
vt 0.8027 0.9173 0.0000
vt 0.8243 0.9341 0.0000
vt 0.7830 0.7115 0.0000
vt 0.8561 0.7397 0.0000
vt 0.8084 0.6976 0.0000
vt 0.8818 0.7311 0.0000
vt 0.8371 0.6840 0.0000
vt 0.9131 0.7244 0.0000
vt 0.8683 0.6683 0.0000
vt 0.9521 0.7199 0.0000
vt 0.6611 0.6673 0.0000
vt 0.6998 0.6271 0.0000
vt 0.6651 0.6597 0.0000
vt 0.7418 0.7022 0.0000
vt 0.7354 0.7009 0.0000
vt 0.7627 0.6870 0.0000
vt 0.7555 0.6855 0.0000
vt 0.7845 0.6729 0.0000
vt 0.7763 0.6712 0.0000
vt 0.8037 0.6597 0.0000
vt 0.7951 0.6580 0.0000
vt 0.7111 0.6314 0.0000
vt 0.7472 0.6469 0.0000
vt 0.7294 0.6603 0.0000
vt 0.6751 0.6614 0.0000
vt 0.6708 0.6687 0.0000
vt 0.7130 0.6766 0.0000
vt 0.6961 0.6939 0.0000
vt 0.7743 0.7091 0.0000
vt 0.7989 0.6948 0.0000
vt 0.8264 0.6810 0.0000
vt 0.8543 0.6652 0.0000
vt 0.8225 0.8349 0.0000
vt 0.8351 0.8463 0.0000
vt 0.8142 0.8231 0.0000
vt 0.8099 0.8111 0.0000
vt 0.8092 0.7990 0.0000
vt 0.8442 0.7538 0.0000
vt 0.8294 0.7642 0.0000
vt 0.8188 0.7753 0.0000
vt 0.8122 0.7870 0.0000
vt 0.8525 0.8570 0.0000
vt 0.8754 0.8667 0.0000
vt 0.9045 0.8749 0.0000
vt 0.9412 0.8804 0.0000
vt 0.8636 0.7444 0.0000
vt 0.8882 0.7365 0.0000
vt 0.9186 0.7309 0.0000
vt 0.9557 0.7288 0.0000
vt 0.9196 0.8028 0.0000
vt 0.6757 0.8782 0.0000
vt 0.6682 0.8582 0.0000
vt 0.6638 0.8375 0.0000
vt 0.6617 0.8163 0.0000
vt 0.6617 0.7952 0.0000
vt 0.6777 0.7326 0.0000
vt 0.6889 0.7133 0.0000
vt 0.6703 0.7531 0.0000
vt 0.6650 0.7742 0.0000
vt 0.6869 0.8969 0.0000
vt 0.7010 0.9145 0.0000
vt 0.7153 0.9310 0.0000
vt 0.7310 0.9451 0.0000
vt 0.7030 0.6951 0.0000
vt 0.7202 0.6781 0.0000
vt 0.7373 0.6623 0.0000
vt 0.7552 0.6490 0.0000
vt 0.0802 0.0317 0.0000
vt 0.1227 0.0470 0.0000
vt 0.0845 0.0866 0.0000
vt 0.0458 0.0813 0.0000
vt 0.1214 0.0914 0.0000
vt 0.1826 0.0576 0.0000
vt 0.1583 0.0948 0.0000
vt 0.1955 0.0965 0.0000
vt 0.2448 0.0563 0.0000
vt 0.2328 0.0962 0.0000
vt 0.2700 0.0942 0.0000
vt 0.3079 0.0424 0.0000
vt 0.3070 0.0909 0.0000
vt 0.3443 0.0876 0.0000
vt 0.6973 0.0427 0.0000
vt 0.7420 0.0563 0.0000
vt 0.7099 0.0972 0.0000
vt 0.6705 0.0935 0.0000
vt 0.7474 0.1006 0.0000
vt 0.8033 0.0647 0.0000
vt 0.7847 0.1027 0.0000
vt 0.8220 0.1029 0.0000
vt 0.8651 0.0610 0.0000
vt 0.8592 0.1013 0.0000
vt 0.8960 0.0979 0.0000
vt 0.9260 0.0448 0.0000
vt 0.9324 0.0932 0.0000
vt 0.9690 0.0886 0.0000
vt 0.0704 0.5795 0.0000
vt 0.0740 0.5899 0.0000
vt 0.0454 0.5925 0.0000
vt 0.0391 0.5805 0.0000
vt 0.1006 0.5788 0.0000
vt 0.1026 0.5889 0.0000
vt 0.1300 0.5784 0.0000
vt 0.1308 0.5885 0.0000
vt 0.1592 0.5784 0.0000
vt 0.1590 0.5886 0.0000
vt 0.1883 0.5788 0.0000
vt 0.1870 0.5889 0.0000
vt 0.2178 0.5797 0.0000
vt 0.2151 0.5897 0.0000
vt 0.2480 0.5811 0.0000
vt 0.2435 0.5913 0.0000
vt 0.2794 0.5830 0.0000
vt 0.2724 0.5949 0.0000
vt 0.7700 0.5893 0.0000
vt 0.7752 0.5996 0.0000
vt 0.7471 0.6032 0.0000
vt 0.7389 0.5915 0.0000
vt 0.8000 0.5875 0.0000
vt 0.8035 0.5975 0.0000
vt 0.8293 0.5860 0.0000
vt 0.8316 0.5960 0.0000
vt 0.8584 0.5849 0.0000
vt 0.8597 0.5950 0.0000
vt 0.8875 0.5842 0.0000
vt 0.8877 0.5943 0.0000
vt 0.9170 0.5839 0.0000
vt 0.9159 0.5941 0.0000
vt 0.9474 0.5843 0.0000
vt 0.9444 0.5946 0.0000
vt 0.9789 0.5849 0.0000
vt 0.9738 0.5971 0.0000
vt 0.0671 0.3569 0.0000
vt 0.0530 0.3854 0.0000
vt 0.0307 0.3570 0.0000
vt 0.1033 0.3570 0.0000
vt 0.1217 0.3845 0.0000
vt 0.1392 0.3574 0.0000
vt 0.1751 0.3579 0.0000
vt 0.1901 0.3854 0.0000
vt 0.2110 0.3587 0.0000
vt 0.2470 0.3598 0.0000
vt 0.2586 0.3879 0.0000
vt 0.2831 0.3610 0.0000
vt 0.3194 0.3624 0.0000
vt 0.3100 0.3913 0.0000
vt 0.7332 0.3675 0.0000
vt 0.7235 0.3965 0.0000
vt 0.6970 0.3689 0.0000
vt 0.7693 0.3663 0.0000
vt 0.7918 0.3929 0.0000
vt 0.8052 0.3652 0.0000
vt 0.8411 0.3644 0.0000
vt 0.8602 0.3913 0.0000
vt 0.8770 0.3639 0.0000
vt 0.9130 0.3636 0.0000
vt 0.9288 0.3912 0.0000
vt 0.9492 0.3635 0.0000
vt 0.9856 0.3635 0.0000
vt 0.9806 0.3927 0.0000
vt 0.0710 0.5047 0.0000
vt 0.1234 0.5056 0.0000
vt 0.1765 0.5065 0.0000
vt 0.2293 0.5076 0.0000
vt 0.2679 0.5081 0.0000
vt 0.7593 0.5147 0.0000
vt 0.8117 0.5136 0.0000
vt 0.8648 0.5125 0.0000
vt 0.9176 0.5117 0.0000
vt 0.9562 0.5107 0.0000
vt 0.0662 0.4338 0.0000
vt 0.1249 0.4327 0.0000
vt 0.1259 0.4693 0.0000
vt 0.0736 0.4694 0.0000
vt 0.1840 0.4335 0.0000
vt 0.1794 0.4701 0.0000
vt 0.2427 0.4360 0.0000
vt 0.2325 0.4718 0.0000
vt 0.2861 0.4393 0.0000
vt 0.2715 0.4738 0.0000
vt 0.7439 0.4442 0.0000
vt 0.8023 0.4409 0.0000
vt 0.8088 0.4773 0.0000
vt 0.7566 0.4794 0.0000
vt 0.8613 0.4395 0.0000
vt 0.8622 0.4761 0.0000
vt 0.9203 0.4398 0.0000
vt 0.9155 0.4758 0.0000
vt 0.9640 0.4414 0.0000
vt 0.9547 0.4763 0.0000
vt 0.1022 0.0983 0.0000
vt 0.1019 0.1026 0.0000
vt 0.0482 0.0987 0.0000
vt 0.0483 0.0933 0.0000
vt 0.1762 0.1036 0.0000
vt 0.1759 0.1073 0.0000
vt 0.2511 0.1037 0.0000
vt 0.2507 0.1076 0.0000
vt 0.3238 0.1002 0.0000
vt 0.3233 0.1051 0.0000
vt 0.7292 0.1083 0.0000
vt 0.7296 0.1126 0.0000
vt 0.6755 0.1107 0.0000
vt 0.6747 0.1053 0.0000
vt 0.8039 0.1108 0.0000
vt 0.8041 0.1145 0.0000
vt 0.8785 0.1081 0.0000
vt 0.8788 0.1120 0.0000
vt 0.9506 0.1018 0.0000
vt 0.9508 0.1068 0.0000
vt 0.0962 0.0241 0.0000
vt 0.1305 0.0404 0.0000
vt 0.1847 0.0508 0.0000
vt 0.2418 0.0493 0.0000
vt 0.2960 0.0350 0.0000
vt 0.7121 0.0345 0.0000
vt 0.7487 0.0495 0.0000
vt 0.8044 0.0578 0.0000
vt 0.8611 0.0542 0.0000
vt 0.9130 0.0378 0.0000
vt 0.2040 0.0072 0.0000
vt 0.8170 0.0136 0.0000
vt 0.0822 0.6039 0.0000
vt 0.0608 0.6067 0.0000
vt 0.1065 0.6027 0.0000
vt 0.1321 0.6023 0.0000
vt 0.1583 0.6023 0.0000
vt 0.1845 0.6026 0.0000
vt 0.2101 0.6032 0.0000
vt 0.2343 0.6046 0.0000
vt 0.2551 0.6079 0.0000
vt 0.7854 0.6132 0.0000
vt 0.7645 0.6168 0.0000
vt 0.8095 0.6111 0.0000
vt 0.8350 0.6098 0.0000
vt 0.8611 0.6088 0.0000
vt 0.8873 0.6081 0.0000
vt 0.9129 0.6077 0.0000
vt 0.9372 0.6082 0.0000
vt 0.9584 0.6107 0.0000
vt 0.3860 0.3935 0.0000
vt 0.4585 0.3760 0.0000
vt 0.4669 0.3919 0.0000
vt 0.4038 0.4076 0.0000
vt 0.5410 0.3711 0.0000
vt 0.5390 0.3873 0.0000
vt 0.6200 0.3801 0.0000
vt 0.6084 0.3956 0.0000
vt 0.6718 0.3931 0.0000
vt 0.6534 0.4069 0.0000
vt 0.3939 0.5047 0.0000
vt 0.4700 0.4915 0.0000
vt 0.4747 0.5078 0.0000
vt 0.4084 0.5197 0.0000
vt 0.5532 0.4914 0.0000
vt 0.5473 0.5074 0.0000
vt 0.6294 0.5050 0.0000
vt 0.6144 0.5197 0.0000
vt 0.6779 0.5209 0.0000
vt 0.6565 0.5335 0.0000
vt 0.4847 0.4252 0.0000
vt 0.4398 0.4418 0.0000
vt 0.5360 0.4206 0.0000
vt 0.5873 0.4288 0.0000
vt 0.6237 0.4418 0.0000
vt 0.4846 0.5418 0.0000
vt 0.4362 0.5558 0.0000
vt 0.5367 0.5403 0.0000
vt 0.5857 0.5514 0.0000
vt 0.6188 0.5665 0.0000
vt 0.4952 0.4371 0.0000
vt 0.4650 0.4511 0.0000
vt 0.5347 0.4334 0.0000
vt 0.5735 0.4405 0.0000
vt 0.5960 0.4526 0.0000
vt 0.4923 0.5543 0.0000
vt 0.4590 0.5665 0.0000
vt 0.5324 0.5529 0.0000
vt 0.5692 0.5622 0.0000
vt 0.5887 0.5756 0.0000
vt 0.5282 0.4623 0.0000
vt 0.5191 0.5813 0.0000
vt 0.0756 0.2274 0.0000
vt 0.0396 0.2264 0.0000
vt 0.1118 0.2283 0.0000
vt 0.1482 0.2292 0.0000
vt 0.1848 0.2300 0.0000
vt 0.2214 0.2307 0.0000
vt 0.2580 0.2313 0.0000
vt 0.2943 0.2317 0.0000
vt 0.3303 0.2321 0.0000
vt 0.7221 0.2380 0.0000
vt 0.6862 0.2384 0.0000
vt 0.7584 0.2376 0.0000
vt 0.7949 0.2371 0.0000
vt 0.8315 0.2365 0.0000
vt 0.8681 0.2359 0.0000
vt 0.9046 0.2350 0.0000
vt 0.9409 0.2341 0.0000
vt 0.9768 0.2332 0.0000
# 571 texture coords

o PSNW_Hammer01
g PSNW_Hammer01
usemtl PSNW_Hammer01
s 1
f 1/1/1 2/2/2 3/3/3 4/4/4 
f 2/2/2 5/5/5 6/6/6 3/3/3 
f 5/5/5 7/7/7 8/8/8 6/6/6 
f 7/7/7 9/9/9 10/10/10 8/8/8 
f 11/11/11 12/12/12 13/13/13 14/14/14 
f 15/15/15 16/16/16 17/17/17 18/18/18 
f 19/19/19 20/20/20 21/21/13 22/22/21 
f 23/23/22 24/24/23 20/20/20 19/19/19 
f 25/25/24 26/26/25 24/24/23 23/23/22 
f 27/27/26 28/28/27 26/26/25 25/25/24 
f 29/29/28 30/30/29 31/31/30 32/32/31 
f 33/33/32 34/34/33 35/35/34 36/36/35 
f 34/34/33 37/37/36 35/35/34 
f 38/38/37 39/39/38 19/19/19 22/22/21 
f 39/39/38 40/40/39 23/23/22 19/19/19 
f 40/40/39 41/41/40 25/25/24 23/23/22 
f 41/41/40 42/42/41 27/27/26 25/25/24 
f 12/12/12 11/11/11 18/18/18 17/17/17 
f 33/33/32 36/36/35 31/31/30 30/30/29 
f 43/43/42 44/44/43 45/45/44 46/46/45 
f 46/46/45 45/45/44 47/47/46 48/48/47 
f 48/48/47 47/47/46 49/49/48 50/50/49 
f 50/50/49 49/49/48 10/10/10 9/9/9 
f 51/51/50 52/52/51 53/53/52 54/54/53 
f 15/15/15 55/55/54 56/56/55 16/16/16 
f 57/57/56 58/58/57 59/59/52 60/60/58 
f 61/61/59 57/57/56 60/60/58 62/62/60 
f 63/63/61 61/61/59 62/62/60 64/64/62 
f 27/27/26 63/63/61 64/64/62 28/28/27 
f 29/29/28 32/32/31 65/65/63 66/66/64 
f 67/67/65 68/68/66 69/69/67 70/70/68 
f 70/70/68 69/69/67 71/71/69 
f 72/72/70 58/58/57 57/57/56 73/73/71 
f 73/73/71 57/57/56 61/61/59 74/74/72 
f 74/74/72 61/61/59 63/63/61 75/75/73 
f 75/75/73 63/63/61 27/27/26 42/42/41 
f 54/54/53 56/56/55 55/55/54 51/51/50 
f 67/67/65 66/66/64 65/65/63 68/68/66 
f 1/1/1 4/4/4 76/76/74 77/77/75 
f 77/77/75 76/76/74 78/78/76 79/79/77 
f 79/79/77 78/78/76 80/80/78 81/81/79 
f 81/81/79 80/80/78 82/82/80 83/83/81 
f 84/84/82 14/14/14 13/13/13 85/85/83 
f 86/86/84 87/87/85 88/88/86 89/89/87 
f 90/90/88 22/22/21 21/21/13 91/91/89 
f 92/92/90 90/90/88 91/91/89 93/93/91 
f 94/94/92 92/92/90 93/93/91 95/95/93 
f 96/96/94 94/94/92 95/95/93 97/97/87 
f 98/98/95 99/99/96 100/100/97 101/101/98 
f 102/102/99 103/103/100 104/104/101 34/34/33 
f 34/34/33 104/104/101 37/37/36 
f 38/38/37 22/22/21 90/90/88 105/105/102 
f 105/105/102 90/90/88 92/92/90 106/106/103 
f 106/106/103 92/92/90 94/94/92 107/107/104 
f 107/107/104 94/94/92 96/96/94 108/108/105 
f 85/85/83 88/88/86 87/87/85 84/84/82 
f 102/102/99 101/101/98 100/100/97 103/103/100 
f 43/43/42 109/109/106 110/110/107 44/44/43 
f 109/109/106 111/111/108 112/112/109 110/110/107 
f 111/111/108 113/113/110 114/114/111 112/112/109 
f 113/113/110 83/115/81 82/116/80 114/114/111 
f 115/117/112 116/118/113 53/53/52 52/52/51 
f 86/119/84 89/120/87 117/121/114 118/122/115 
f 119/123/116 120/124/117 59/59/52 58/58/57 
f 121/125/118 122/126/119 120/124/117 119/123/116 
f 123/127/120 124/128/121 122/126/119 121/125/118 
f 96/129/94 97/130/87 124/128/121 123/127/120 
f 98/131/95 125/132/122 126/133/123 99/134/96 
f 127/135/124 70/70/68 128/136/125 129/137/126 
f 70/70/68 71/71/69 128/136/125 
f 72/72/70 130/138/127 119/123/116 58/58/57 
f 130/138/127 131/139/128 121/125/118 119/123/116 
f 131/139/128 132/140/129 123/127/120 121/125/118 
f 132/140/129 108/141/105 96/129/94 123/127/120 
f 116/118/113 115/117/112 118/122/115 117/121/114 
f 127/135/124 129/137/126 126/133/123 125/132/122 
f 4/4/4 3/3/3 39/39/38 38/38/37 
f 3/3/3 6/6/6 40/40/39 39/39/38 
f 6/6/6 8/8/8 41/41/40 40/40/39 
f 8/8/8 10/10/10 42/42/41 41/41/40 
f 11/11/11 14/14/14 34/34/33 33/33/32 
f 15/15/15 18/18/18 30/30/29 29/29/28 
f 18/18/18 11/11/11 33/33/32 30/30/29 
f 45/45/44 44/44/43 72/72/70 73/73/71 
f 47/47/46 45/45/44 73/73/71 74/74/72 
f 49/49/48 47/47/46 74/74/72 75/75/73 
f 10/10/10 49/49/48 75/75/73 42/42/41 
f 52/52/51 51/51/50 67/67/65 70/70/68 
f 55/55/54 15/15/15 29/29/28 66/66/64 
f 51/51/50 55/55/54 66/66/64 67/67/65 
f 76/76/74 4/4/4 38/38/37 105/105/102 
f 78/78/76 76/76/74 105/105/102 106/106/103 
f 80/80/78 78/78/76 106/106/103 107/107/104 
f 82/82/80 80/80/78 107/107/104 108/108/105 
f 14/14/14 84/84/82 102/102/99 34/34/33 
f 87/87/85 86/86/84 98/98/95 101/101/98 
f 84/84/82 87/87/85 101/101/98 102/102/99 
f 44/44/43 110/110/107 130/138/127 72/72/70 
f 110/110/107 112/112/109 131/139/128 130/138/127 
f 112/112/109 114/114/111 132/140/129 131/139/128 
f 114/114/111 82/116/80 108/141/105 132/140/129 
f 115/117/112 52/52/51 70/70/68 127/135/124 
f 86/119/84 118/122/115 125/132/122 98/131/95 
f 118/122/115 115/117/112 127/135/124 125/132/122 
f 2/2/2 1/1/1 133/142/130 134/143/131 
f 5/5/5 2/2/2 134/143/131 135/144/132 
f 7/7/7 5/5/5 135/144/132 136/145/133 
f 9/9/9 7/7/7 136/145/133 137/146/134 
f 43/43/42 46/46/45 138/147/135 139/148/136 
f 46/46/45 48/48/47 140/149/137 138/147/135 
f 48/48/47 50/50/49 141/150/138 140/149/137 
f 50/50/49 9/9/9 137/146/134 141/150/138 
f 1/1/1 77/77/75 142/151/139 133/142/130 
f 77/77/75 79/79/77 143/152/140 142/151/139 
f 79/79/77 81/81/79 144/153/141 143/152/140 
f 81/81/79 83/83/81 145/154/142 144/153/141 
f 109/109/106 43/43/42 139/148/136 146/155/143 
f 111/111/108 109/109/106 146/155/143 147/156/144 
f 113/113/110 111/111/108 147/156/144 148/157/145 
f 83/115/81 113/113/110 148/157/145 145/158/142 
f 134/143/131 133/142/130 149/159/146 
f 135/144/132 134/143/131 149/159/146 
f 136/145/133 135/144/132 149/159/146 
f 137/146/134 136/145/133 149/159/146 
f 139/148/136 138/147/135 149/159/146 
f 138/147/135 140/149/137 149/159/146 
f 140/149/137 141/150/138 149/159/146 
f 141/150/138 137/146/134 149/159/146 
f 133/142/130 142/151/139 149/159/146 
f 142/151/139 143/152/140 149/159/146 
f 143/152/140 144/153/141 149/159/146 
f 144/153/141 145/154/142 149/159/146 
f 146/155/143 139/148/136 149/159/146 
f 147/156/144 146/155/143 149/159/146 
f 148/157/145 147/156/144 149/159/146 
f 145/158/142 148/157/145 149/159/146 
f 20/20/20 150/160/20 151/161/147 21/21/13 
f 24/24/23 152/162/23 150/160/20 20/20/20 
f 26/26/25 153/163/25 152/162/23 24/24/23 
f 28/28/27 154/164/27 153/163/25 26/26/25 
f 59/59/52 155/165/148 156/166/58 60/60/58 
f 60/60/58 156/166/58 157/167/60 62/62/60 
f 62/62/60 157/167/60 158/168/149 64/64/62 
f 64/64/62 158/168/149 154/164/27 28/28/27 
f 21/21/13 151/161/147 159/169/89 91/91/89 
f 91/91/89 159/169/89 160/170/91 93/93/91 
f 93/93/91 160/170/91 161/171/93 95/95/93 
f 95/95/93 161/171/93 162/172/87 97/97/87 
f 120/124/117 163/173/117 155/165/148 59/59/52 
f 122/126/119 164/174/119 163/173/117 120/124/117 
f 124/128/121 165/175/150 164/174/119 122/126/119 
f 97/130/87 162/176/87 165/175/150 124/128/121 
f 150/160/20 35/35/34 37/37/36 151/161/147 
f 152/162/23 36/36/35 35/35/34 150/160/20 
f 153/163/25 31/31/30 36/36/35 152/162/23 
f 154/164/27 32/32/31 31/31/30 153/163/25 
f 155/165/148 71/71/69 69/69/67 156/166/58 
f 156/166/58 69/69/67 68/68/66 157/167/60 
f 157/167/60 68/68/66 65/65/63 158/168/149 
f 158/168/149 65/65/63 32/32/31 154/164/27 
f 151/161/147 37/37/36 104/104/101 159/169/89 
f 159/169/89 104/104/101 103/103/100 160/170/91 
f 160/170/91 103/103/100 100/100/97 161/171/93 
f 161/171/93 100/100/97 99/99/96 162/172/87 
f 163/173/117 128/136/125 71/71/69 155/165/148 
f 164/174/119 129/137/126 128/136/125 163/173/117 
f 165/175/150 126/133/123 129/137/126 164/174/119 
f 162/176/87 99/134/96 126/133/123 165/175/150 
f 166/177/151 167/178/152 168/179/153 169/180/154 
f 169/180/154 168/179/153 170/181/155 171/182/156 
f 171/182/156 170/181/155 172/183/157 173/184/158 
f 173/184/158 172/183/157 174/185/159 175/186/160 
f 176/187/161 177/188/162 13/13/13 12/12/12 
f 178/189/163 179/190/164 17/17/17 16/16/16 
f 180/191/165 181/192/166 182/193/147 183/194/167 
f 184/195/168 180/191/165 183/194/167 185/196/169 
f 186/197/170 184/195/168 185/196/169 187/198/171 
f 188/199/172 186/197/170 187/198/171 189/200/173 
f 190/201/174 191/202/175 192/203/176 193/204/177 
f 194/205/178 195/206/179 196/207/180 197/208/181 
f 197/208/181 196/207/180 198/209/182 
f 199/210/183 181/192/166 180/191/165 200/211/184 
f 200/211/184 180/191/165 184/195/168 201/212/185 
f 201/212/185 184/195/168 186/197/170 202/213/186 
f 202/213/186 186/197/170 188/199/172 203/214/187 
f 12/12/12 17/17/17 179/190/164 176/187/161 
f 194/205/178 193/204/177 192/203/176 195/206/179 
f 204/215/188 205/216/189 206/217/190 207/218/191 
f 205/216/189 208/219/192 209/220/193 206/217/190 
f 208/219/192 210/221/194 211/222/195 209/220/193 
f 210/221/194 175/186/160 174/185/159 211/222/195 
f 212/223/196 54/54/53 53/53/52 213/224/197 
f 178/189/163 16/16/16 56/56/55 214/225/198 
f 215/226/199 216/227/200 217/228/148 218/229/201 
f 219/230/202 220/231/203 216/227/200 215/226/199 
f 221/232/204 222/233/149 220/231/203 219/230/202 
f 188/199/172 189/200/173 222/233/149 221/232/204 
f 190/201/174 223/234/205 224/235/206 191/202/175 
f 225/236/207 226/237/208 227/238/209 228/239/210 
f 226/237/208 229/240/211 227/238/209 
f 230/241/212 231/242/213 215/226/199 218/229/201 
f 231/242/213 232/243/214 219/230/202 215/226/199 
f 232/243/214 233/244/215 221/232/204 219/230/202 
f 233/244/215 203/214/187 188/199/172 221/232/204 
f 54/54/53 212/223/196 214/225/198 56/56/55 
f 225/236/207 228/239/210 224/235/206 223/234/205 
f 166/177/151 234/245/216 235/246/217 167/178/152 
f 234/245/216 236/247/218 237/248/219 235/246/217 
f 236/247/218 238/249/220 239/250/221 237/248/219 
f 238/249/220 240/251/222 241/252/223 239/250/221 
f 242/253/224 85/85/83 13/13/13 177/188/162 
f 243/254/225 89/89/87 88/88/86 244/255/226 
f 245/256/227 246/257/228 182/193/147 181/192/166 
f 247/258/229 248/259/230 246/257/228 245/256/227 
f 249/260/231 250/261/232 248/259/230 247/258/229 
f 251/262/233 252/263/234 250/261/232 249/260/231 
f 253/264/235 254/265/236 255/266/237 256/267/238 
f 257/268/239 197/208/181 258/269/240 259/270/241 
f 197/208/181 198/209/182 258/269/240 
f 199/210/183 260/271/242 245/256/227 181/192/166 
f 260/271/242 261/272/243 247/258/229 245/256/227 
f 261/272/243 262/273/244 249/260/231 247/258/229 
f 262/273/244 263/274/245 251/262/233 249/260/231 
f 85/85/83 242/253/224 244/255/226 88/88/86 
f 257/268/239 259/270/241 255/266/237 254/265/236 
f 204/215/188 207/218/191 264/275/246 265/276/247 
f 265/276/247 264/275/246 266/277/248 267/278/249 
f 267/278/249 266/277/248 268/279/250 269/280/251 
f 269/280/251 268/279/250 241/281/223 240/282/222 
f 270/283/252 213/224/197 53/53/52 116/118/113 
f 243/284/225 271/285/253 117/121/114 89/120/87 
f 272/286/254 218/229/201 217/228/148 273/287/255 
f 274/288/256 272/286/254 273/287/255 275/289/257 
f 276/290/258 274/288/256 275/289/257 277/291/150 
f 251/292/233 276/290/258 277/291/150 252/293/234 
f 253/294/235 256/295/238 278/296/259 279/297/260 
f 280/298/261 281/299/262 282/300/263 226/237/208 
f 226/237/208 282/300/263 229/240/211 
f 230/241/212 218/229/201 272/286/254 283/301/264 
f 283/301/264 272/286/254 274/288/256 284/302/265 
f 284/302/265 274/288/256 276/290/258 285/303/266 
f 285/303/266 276/290/258 251/292/233 263/304/245 
f 116/118/113 117/121/114 271/285/253 270/283/252 
f 280/298/261 279/297/260 278/296/259 281/299/262 
f 167/178/152 199/210/183 200/211/184 168/179/153 
f 168/179/153 200/211/184 201/212/185 170/181/155 
f 170/181/155 201/212/185 202/213/186 172/183/157 
f 172/183/157 202/213/186 203/214/187 174/185/159 
f 176/187/161 194/205/178 197/208/181 177/188/162 
f 178/189/163 190/201/174 193/204/177 179/190/164 
f 179/190/164 193/204/177 194/205/178 176/187/161 
f 206/217/190 231/242/213 230/241/212 207/218/191 
f 209/220/193 232/243/214 231/242/213 206/217/190 
f 211/222/195 233/244/215 232/243/214 209/220/193 
f 174/185/159 203/214/187 233/244/215 211/222/195 
f 213/224/197 226/237/208 225/236/207 212/223/196 
f 214/225/198 223/234/205 190/201/174 178/189/163 
f 212/223/196 225/236/207 223/234/205 214/225/198 
f 235/246/217 260/271/242 199/210/183 167/178/152 
f 237/248/219 261/272/243 260/271/242 235/246/217 
f 239/250/221 262/273/244 261/272/243 237/248/219 
f 241/252/223 263/274/245 262/273/244 239/250/221 
f 177/188/162 197/208/181 257/268/239 242/253/224 
f 244/255/226 254/265/236 253/264/235 243/254/225 
f 242/253/224 257/268/239 254/265/236 244/255/226 
f 207/218/191 230/241/212 283/301/264 264/275/246 
f 264/275/246 283/301/264 284/302/265 266/277/248 
f 266/277/248 284/302/265 285/303/266 268/279/250 
f 268/279/250 285/303/266 263/304/245 241/281/223 
f 270/283/252 280/298/261 226/237/208 213/224/197 
f 243/284/225 253/294/235 279/297/260 271/285/253 
f 271/285/253 279/297/260 280/298/261 270/283/252 
f 169/180/154 286/305/267 287/306/268 166/177/151 
f 171/182/156 288/307/269 286/305/267 169/180/154 
f 173/184/158 289/308/270 288/307/269 171/182/156 
f 175/186/160 290/309/271 289/308/270 173/184/158 
f 204/215/188 291/310/272 292/311/273 205/216/189 
f 205/216/189 292/311/273 293/312/274 208/219/192 
f 208/219/192 293/312/274 294/313/275 210/221/194 
f 210/221/194 294/313/275 290/309/271 175/186/160 
f 166/177/151 287/306/268 295/314/276 234/245/216 
f 234/245/216 295/314/276 296/315/277 236/247/218 
f 236/247/218 296/315/277 297/316/278 238/249/220 
f 238/249/220 297/316/278 298/317/279 240/251/222 
f 265/276/247 299/318/280 291/310/272 204/215/188 
f 267/278/249 300/319/281 299/318/280 265/276/247 
f 269/280/251 301/320/282 300/319/281 267/278/249 
f 240/282/222 298/321/279 301/320/282 269/280/251 
f 286/305/267 302/322/283 287/306/268 
f 288/307/269 302/322/283 286/305/267 
f 289/308/270 302/322/283 288/307/269 
f 290/309/271 302/322/283 289/308/270 
f 291/310/272 302/322/283 292/311/273 
f 292/311/273 302/322/283 293/312/274 
f 293/312/274 302/322/283 294/313/275 
f 294/313/275 302/322/283 290/309/271 
f 287/306/268 302/322/283 295/314/276 
f 295/314/276 302/322/283 296/315/277 
f 296/315/277 302/322/283 297/316/278 
f 297/316/278 302/322/283 298/317/279 
f 299/318/280 302/322/283 291/310/272 
f 300/319/281 302/322/283 299/318/280 
f 301/320/282 302/322/283 300/319/281 
f 298/321/279 302/322/283 301/320/282 
f 183/194/167 182/193/147 303/323/13 304/324/167 
f 185/196/169 183/194/167 304/324/167 305/325/169 
f 187/198/171 185/196/169 305/325/169 306/326/171 
f 189/200/173 187/198/171 306/326/171 307/327/27 
f 217/228/148 216/227/200 308/328/200 309/329/52 
f 216/227/200 220/231/203 310/330/203 308/328/200 
f 220/231/203 222/233/149 311/331/62 310/330/203 
f 222/233/149 189/200/173 307/327/27 311/331/62 
f 182/193/147 246/257/228 312/332/228 303/323/13 
f 246/257/228 248/259/230 313/333/230 312/332/228 
f 248/259/230 250/261/232 314/334/232 313/333/230 
f 250/261/232 252/263/234 315/335/87 314/334/232 
f 273/287/255 217/228/148 309/329/52 316/336/255 
f 275/289/257 273/287/255 316/336/255 317/337/257 
f 277/291/150 275/289/257 317/337/257 318/338/121 
f 252/293/234 277/291/150 318/338/121 315/339/87 
f 304/324/167 303/323/13 198/209/182 196/207/180 
f 305/325/169 304/324/167 196/207/180 195/206/179 
f 306/326/171 305/325/169 195/206/179 192/203/176 
f 307/327/27 306/326/171 192/203/176 191/202/175 
f 309/329/52 308/328/200 227/238/209 229/240/211 
f 308/328/200 310/330/203 228/239/210 227/238/209 
f 310/330/203 311/331/62 224/235/206 228/239/210 
f 311/331/62 307/327/27 191/202/175 224/235/206 
f 303/323/13 312/332/228 258/269/240 198/209/182 
f 312/332/228 313/333/230 259/270/241 258/269/240 
f 313/333/230 314/334/232 255/266/237 259/270/241 
f 314/334/232 315/335/87 256/267/238 255/266/237 
f 316/336/255 309/329/52 229/240/211 282/300/263 
f 317/337/257 316/336/255 282/300/263 281/299/262 
f 318/338/121 317/337/257 281/299/262 278/296/259 
f 315/339/87 318/338/121 278/296/259 256/295/238 
f 319/340/284 320/341/285 321/342/286 322/343/287 
f 320/341/285 323/344/288 321/342/286 
f 320/341/285 324/345/289 325/346/290 323/344/288 
f 324/345/289 326/347/291 325/346/290 
f 324/345/289 327/348/292 328/349/293 326/347/291 
f 327/348/292 329/350/294 328/349/293 
f 327/348/292 330/351/295 331/352/296 329/350/294 
f 330/351/295 332/353/297 331/352/296 
f 330/354/295 333/355/298 334/356/299 332/357/297 
f 333/355/298 335/358/300 334/356/299 
f 333/355/298 336/359/301 337/360/302 335/358/300 
f 336/359/301 338/361/303 337/360/302 
f 336/359/301 339/362/304 340/363/305 338/361/303 
f 339/362/304 341/364/306 340/363/305 
f 339/362/304 319/365/284 342/366/307 341/364/306 
f 319/365/284 322/367/287 342/366/307 
f 343/368/308 344/369/309 345/370/310 346/371/311 
f 347/372/312 348/373/313 344/369/309 343/368/308 
f 349/374/314 350/375/315 348/373/313 347/372/312 
f 351/376/316 352/377/317 350/375/315 349/374/314 
f 353/378/318 354/379/319 352/377/317 351/376/316 
f 355/380/320 356/381/321 354/379/319 353/378/318 
f 357/382/322 358/383/323 356/381/321 355/380/320 
f 359/384/324 360/385/325 358/383/323 357/382/322 
f 361/386/326 362/387/327 360/388/325 359/389/324 
f 363/390/328 364/391/329 362/387/327 361/386/326 
f 365/392/330 366/393/331 364/391/329 363/390/328 
f 367/394/332 368/395/333 366/393/331 365/392/330 
f 369/396/334 370/397/335 368/395/333 367/394/332 
f 371/398/336 372/399/337 370/397/335 369/396/334 
f 373/400/338 374/401/339 372/399/337 371/398/336 
f 346/402/311 345/403/310 374/401/339 373/400/338 
f 375/404/340 376/405/341 377/406/342 
f 378/407/343 379/408/344 376/405/341 375/404/340 
f 380/409/345 379/408/344 378/407/343 
f 381/410/346 382/411/347 379/408/344 380/409/345 
f 383/412/348 382/411/347 381/410/346 
f 384/413/349 385/414/350 382/411/347 383/412/348 
f 386/415/351 385/414/350 384/413/349 
f 387/416/352 388/417/353 385/414/350 386/415/351 
f 389/418/354 388/419/353 387/420/352 
f 390/421/355 391/422/356 388/419/353 389/418/354 
f 392/423/357 391/422/356 390/421/355 
f 393/424/358 394/425/359 391/422/356 392/423/357 
f 395/426/360 394/425/359 393/424/358 
f 396/427/361 397/428/362 394/425/359 395/426/360 
f 398/429/363 397/428/362 396/427/361 
f 377/430/342 376/431/341 397/428/362 398/429/363 
f 343/368/308 346/371/311 399/432/364 
f 347/372/312 343/368/308 399/432/364 400/433/365 
f 349/374/314 347/372/312 400/433/365 
f 351/376/316 349/374/314 400/433/365 401/434/366 
f 353/378/318 351/376/316 401/434/366 
f 355/380/320 353/378/318 401/434/366 402/435/367 
f 357/382/322 355/380/320 402/435/367 
f 359/384/324 357/382/322 402/435/367 403/436/368 
f 361/386/326 359/389/324 403/437/368 
f 363/390/328 361/386/326 403/437/368 404/438/369 
f 365/392/330 363/390/328 404/438/369 
f 367/394/332 365/392/330 404/438/369 405/439/370 
f 369/396/334 367/394/332 405/439/370 
f 371/398/336 369/396/334 405/439/370 406/440/371 
f 373/400/338 371/398/336 406/440/371 
f 346/402/311 373/400/338 406/440/371 399/441/364 
f 407/442/372 408/443/373 409/444/374 410/445/375 
f 408/443/373 411/446/376 412/447/377 409/444/374 
f 411/446/376 413/448/378 414/449/379 412/447/377 
f 413/448/378 415/450/380 416/451/381 414/449/379 
f 415/452/380 417/453/382 418/454/383 416/455/381 
f 417/453/382 419/456/384 420/457/385 418/454/383 
f 419/456/384 421/458/386 422/459/387 420/457/385 
f 421/458/386 407/460/372 410/461/375 422/459/387 
f 423/462/388 424/463/389 425/464/390 426/465/391 
f 427/466/392 428/467/393 424/463/389 423/462/388 
f 429/468/394 430/469/395 428/467/393 427/466/392 
f 431/470/396 432/471/397 430/469/395 429/468/394 
f 433/472/398 434/473/399 432/474/397 431/475/396 
f 435/476/400 436/477/401 434/473/399 433/472/398 
f 437/478/402 438/479/403 436/477/401 435/476/400 
f 426/480/391 425/481/390 438/479/403 437/478/402 
f 439/482/404 440/483/405 320/341/285 319/340/284 
f 440/483/405 441/484/406 324/345/289 320/341/285 
f 441/484/406 442/485/407 327/348/292 324/345/289 
f 442/485/407 443/486/408 330/351/295 327/348/292 
f 443/487/408 444/488/409 333/355/298 330/354/295 
f 444/488/409 445/489/410 336/359/301 333/355/298 
f 445/489/410 446/490/411 339/362/304 336/359/301 
f 446/490/411 439/491/404 319/365/284 339/362/304 
f 423/462/388 426/465/391 322/343/287 321/342/286 
f 426/480/391 342/366/307 322/367/287 
f 426/480/391 437/478/402 341/364/306 342/366/307 
f 437/478/402 340/363/305 341/364/306 
f 437/478/402 435/476/400 338/361/303 340/363/305 
f 435/476/400 337/360/302 338/361/303 
f 435/476/400 433/472/398 335/358/300 337/360/302 
f 433/472/398 334/356/299 335/358/300 
f 433/472/398 431/475/396 332/357/297 334/356/299 
f 431/470/396 331/352/296 332/353/297 
f 431/470/396 429/468/394 329/350/294 331/352/296 
f 429/468/394 328/349/293 329/350/294 
f 429/468/394 427/466/392 326/347/291 328/349/293 
f 427/466/392 325/346/290 326/347/291 
f 427/466/392 423/462/388 323/344/288 325/346/290 
f 423/462/388 321/342/286 323/344/288 
f 440/483/405 439/482/404 447/492/234 
f 441/484/406 440/483/405 447/492/234 
f 442/485/407 441/484/406 447/492/234 
f 443/486/408 442/485/407 447/492/234 
f 444/488/409 443/487/408 447/493/234 
f 445/489/410 444/488/409 447/493/234 
f 446/490/411 445/489/410 447/493/234 
f 439/491/404 446/490/411 447/493/234 
f 409/444/374 400/433/365 399/432/364 410/445/375 
f 412/447/377 401/434/366 400/433/365 409/444/374 
f 414/449/379 402/435/367 401/434/366 412/447/377 
f 416/451/381 403/436/368 402/435/367 414/449/379 
f 418/454/383 404/438/369 403/437/368 416/455/381 
f 420/457/385 405/439/370 404/438/369 418/454/383 
f 422/459/387 406/440/371 405/439/370 420/457/385 
f 410/461/375 399/441/364 406/440/371 422/459/387 
f 379/408/344 408/443/373 407/442/372 376/405/341 
f 382/411/347 411/446/376 408/443/373 379/408/344 
f 385/414/350 413/448/378 411/446/376 382/411/347 
f 388/417/353 415/450/380 413/448/378 385/414/350 
f 391/422/356 417/453/382 415/452/380 388/419/353 
f 394/425/359 419/456/384 417/453/382 391/422/356 
f 397/428/362 421/458/386 419/456/384 394/425/359 
f 376/431/341 407/460/372 421/458/386 397/428/362 
f 345/370/310 344/369/309 448/494/412 449/495/413 
f 344/369/309 348/373/313 450/496/414 448/494/412 
f 348/373/313 350/375/315 451/497/415 450/496/414 
f 350/375/315 352/377/317 452/498/416 451/497/415 
f 352/377/317 354/379/319 453/499/417 452/498/416 
f 354/379/319 356/381/321 454/500/418 453/499/417 
f 356/381/321 358/383/323 455/501/419 454/500/418 
f 358/383/323 360/385/325 456/502/420 455/501/419 
f 360/388/325 362/387/327 457/503/421 456/504/420 
f 362/387/327 364/391/329 458/505/422 457/503/421 
f 364/391/329 366/393/331 459/506/423 458/505/422 
f 366/393/331 368/395/333 460/507/424 459/506/423 
f 368/395/333 370/397/335 461/508/425 460/507/424 
f 370/397/335 372/399/337 462/509/426 461/508/425 
f 372/399/337 374/401/339 463/510/427 462/509/426 
f 374/401/339 345/403/310 449/511/413 463/510/427 
f 464/512/428 465/513/429 466/514/430 467/515/431 
f 465/513/429 468/516/432 469/517/433 466/514/430 
f 468/516/432 470/518/434 471/519/435 469/517/433 
f 470/518/434 472/520/436 473/521/437 471/519/435 
f 472/522/436 474/523/438 475/524/439 473/525/437 
f 474/523/438 476/526/440 477/527/441 475/524/439 
f 476/526/440 478/528/442 479/529/443 477/527/441 
f 478/528/442 464/530/428 467/531/431 479/529/443 
f 467/515/431 466/514/430 480/532/444 481/533/445 
f 466/514/430 469/517/433 482/534/446 480/532/444 
f 469/517/433 471/519/435 483/535/447 482/534/446 
f 471/519/435 473/521/437 484/536/448 483/535/447 
f 473/525/437 475/524/439 485/537/449 484/538/448 
f 475/524/439 477/527/441 486/539/450 485/537/449 
f 477/527/441 479/529/443 487/540/451 486/539/450 
f 479/529/443 467/531/431 481/541/445 487/540/451 
f 481/533/445 480/532/444 488/542/452 489/543/453 
f 480/532/444 482/534/446 490/544/454 488/542/452 
f 482/534/446 483/535/447 491/545/455 490/544/454 
f 483/535/447 484/536/448 492/546/456 491/545/455 
f 484/538/448 485/537/449 493/547/457 492/548/456 
f 485/537/449 486/539/450 494/549/458 493/547/457 
f 486/539/450 487/540/451 495/550/459 494/549/458 
f 487/540/451 481/541/445 489/551/453 495/550/459 
f 489/543/453 488/542/452 496/552/27 
f 488/542/452 490/544/454 496/552/27 
f 490/544/454 491/545/455 496/552/27 
f 491/545/455 492/546/456 496/552/27 
f 492/548/456 493/547/457 496/553/27 
f 493/547/457 494/549/458 496/553/27 
f 494/549/458 495/550/459 496/553/27 
f 495/550/459 489/551/453 496/553/27 
f 497/554/460 375/404/340 377/406/342 498/555/461 
f 499/556/462 378/407/343 375/404/340 497/554/460 
f 500/557/463 380/409/345 378/407/343 499/556/462 
f 501/558/464 381/410/346 380/409/345 500/557/463 
f 502/559/465 383/412/348 381/410/346 501/558/464 
f 503/560/466 384/413/349 383/412/348 502/559/465 
f 504/561/467 386/415/351 384/413/349 503/560/466 
f 505/562/468 387/416/352 386/415/351 504/561/467 
f 506/563/469 389/418/354 387/420/352 505/564/468 
f 507/565/470 390/421/355 389/418/354 506/563/469 
f 508/566/471 392/423/357 390/421/355 507/565/470 
f 509/567/472 393/424/358 392/423/357 508/566/471 
f 510/568/473 395/426/360 393/424/358 509/567/472 
f 511/569/474 396/427/361 395/426/360 510/568/473 
f 512/570/475 398/429/363 396/427/361 511/569/474 
f 498/571/461 377/430/342 398/429/363 512/570/475 
f 424/463/389 497/554/460 498/555/461 425/464/390 
f 424/463/389 499/556/462 497/554/460 
f 428/467/393 500/557/463 499/556/462 424/463/389 
f 428/467/393 501/558/464 500/557/463 
f 430/469/395 502/559/465 501/558/464 428/467/393 
f 430/469/395 503/560/466 502/559/465 
f 432/471/397 504/561/467 503/560/466 430/469/395 
f 432/471/397 505/562/468 504/561/467 
f 434/473/399 506/563/469 505/564/468 432/474/397 
f 434/473/399 507/565/470 506/563/469 
f 436/477/401 508/566/471 507/565/470 434/473/399 
f 436/477/401 509/567/472 508/566/471 
f 438/479/403 510/568/473 509/567/472 436/477/401 
f 438/479/403 511/569/474 510/568/473 
f 425/481/390 512/570/475 511/569/474 438/479/403 
f 425/481/390 498/571/461 512/570/475 
# 448 polygons - 96 triangles

