# 3ds Max Wavefront OBJ Exporter v0.99 - (c)2007 guruware
# File Created: 15.01.2026 02:44:46

mtllib PSNW_Soap01.mtl

#
# object PSNW_Soap01
#

v  0.1272 0.0158 -0.0810
v  0.0870 0.0158 -0.0802
v  0.0870 0.0667 -0.0802
v  0.1272 0.0667 -0.0810
v  0.0422 0.0040 -0.0433
v  0.0693 0.0040 -0.0461
v  0.0693 0.0040 0.0461
v  0.0422 0.0040 0.0433
v  0.0393 0.0158 0.0708
v  0.0870 0.0158 0.0802
v  0.0870 0.0667 0.0802
v  0.0393 0.0667 0.0708
v  0.0881 0.0001 -0.0659
v  0.1273 0.0001 -0.0666
v  0.1273 0.0001 0.0666
v  0.0881 0.0001 0.0659
v  0.0000 0.0040 0.0408
v  0.0000 0.0040 -0.0408
v  0.0000 0.0667 0.0680
v  0.0000 0.0158 0.0680
v  0.1432 0.0158 0.0669
v  0.1377 0.0159 0.0761
v  0.1354 0.0079 0.0740
v  0.1378 0.0056 0.0667
v  0.1432 0.0158 -0.0669
v  0.1378 0.0056 -0.0667
v  0.1354 0.0079 -0.0740
v  0.1377 0.0159 -0.0761
v  0.1272 0.0057 -0.0758
v  0.1272 0.0057 0.0758
v  0.1272 0.0158 0.0810
v  0.1432 0.0667 0.0669
v  0.1377 0.0666 0.0761
v  0.0874 0.0057 -0.0752
v  0.1377 0.0666 -0.0761
v  0.0406 -0.0000 -0.0563
v  0.0397 0.0056 -0.0659
v  0.0406 -0.0000 0.0563
v  0.0874 0.0057 0.0752
v  0.0397 0.0056 0.0659
v  0.0393 0.0158 -0.0708
v  0.0000 0.0000 0.0540
v  -0.0000 0.0057 0.0632
v  0.0000 0.0000 -0.0540
v  0.0000 0.0057 -0.0632
v  0.0000 0.0158 -0.0680
v  0.1432 0.0667 -0.0669
v  0.1272 0.0667 0.0810
v  -0.1272 0.0158 -0.0810
v  -0.1272 0.0667 -0.0810
v  -0.0870 0.0667 -0.0802
v  -0.0870 0.0158 -0.0802
v  -0.0422 0.0040 -0.0433
v  -0.0422 0.0040 0.0433
v  -0.0693 0.0040 0.0461
v  -0.0693 0.0040 -0.0461
v  -0.0881 0.0001 -0.0659
v  -0.0881 0.0001 0.0659
v  -0.1273 0.0001 0.0666
v  -0.1273 0.0001 -0.0666
v  -0.0870 0.0158 0.0802
v  -0.0870 0.0667 0.0802
v  -0.1272 0.0667 0.0810
v  -0.1272 0.0158 0.0810
v  -0.1432 0.0158 0.0669
v  -0.1378 0.0056 0.0667
v  -0.1354 0.0079 0.0740
v  -0.1377 0.0159 0.0761
v  -0.1432 0.0158 -0.0669
v  -0.1377 0.0159 -0.0761
v  -0.1354 0.0079 -0.0740
v  -0.1378 0.0056 -0.0667
v  -0.1272 0.0057 -0.0758
v  -0.1272 0.0057 0.0758
v  -0.1377 0.0666 0.0761
v  -0.1432 0.0667 0.0669
v  -0.0874 0.0057 -0.0752
v  -0.1377 0.0666 -0.0761
v  -0.0397 0.0056 -0.0659
v  -0.0406 -0.0000 -0.0563
v  -0.0406 -0.0000 0.0563
v  -0.0397 0.0056 0.0659
v  -0.0874 0.0057 0.0752
v  -0.0393 0.0158 0.0708
v  -0.0393 0.0158 -0.0708
v  -0.0393 0.0667 -0.0708
v  0.0000 0.0667 -0.0680
v  0.0422 0.0785 -0.0433
v  0.0422 0.0785 0.0433
v  0.0693 0.0785 0.0461
v  0.0693 0.0785 -0.0461
v  0.0393 0.0667 -0.0708
v  0.0881 0.0825 -0.0659
v  0.0881 0.0825 0.0659
v  0.1273 0.0824 0.0666
v  0.1273 0.0824 -0.0666
v  0.0000 0.0785 -0.0408
v  0.0000 0.0785 0.0408
v  0.1378 0.0769 0.0667
v  0.1354 0.0746 0.0740
v  0.1354 0.0746 -0.0740
v  0.1378 0.0769 -0.0667
v  0.1272 0.0768 -0.0758
v  0.1272 0.0768 0.0758
v  0.0874 0.0768 -0.0752
v  0.0397 0.0769 -0.0659
v  0.0406 0.0825 -0.0563
v  0.0406 0.0825 0.0563
v  0.0397 0.0769 0.0659
v  0.0874 0.0768 0.0752
v  0.0000 0.0825 0.0540
v  -0.0000 0.0768 0.0632
v  0.0000 0.0768 -0.0632
v  0.0000 0.0825 -0.0540
v  -0.1432 0.0667 -0.0669
v  -0.0422 0.0785 -0.0433
v  -0.0693 0.0785 -0.0461
v  -0.0693 0.0785 0.0461
v  -0.0422 0.0785 0.0433
v  -0.0393 0.0667 0.0708
v  -0.0881 0.0825 -0.0659
v  -0.1273 0.0824 -0.0666
v  -0.1273 0.0824 0.0666
v  -0.0881 0.0825 0.0659
v  -0.1354 0.0746 0.0740
v  -0.1378 0.0769 0.0667
v  -0.1378 0.0769 -0.0667
v  -0.1354 0.0746 -0.0740
v  -0.1272 0.0768 -0.0758
v  -0.1272 0.0768 0.0758
v  -0.0874 0.0768 -0.0752
v  -0.0406 0.0825 -0.0563
v  -0.0397 0.0769 -0.0659
v  -0.0406 0.0825 0.0563
v  -0.0874 0.0768 0.0752
v  -0.0397 0.0769 0.0659
# 136 vertices

vn 0.1976 -0.2217 -0.9549
vn -0.1032 -0.2271 -0.9684
vn -0.1032 0.2271 -0.9684
vn 0.1976 0.2217 -0.9549
vn 0.0118 -0.9895 0.1443
vn -0.0698 -0.9940 0.0841
vn -0.0698 -0.9940 -0.0841
vn 0.0118 -0.9895 -0.1443
vn -0.1301 -0.2278 0.9650
vn -0.1032 -0.2271 0.9684
vn -0.1032 0.2271 0.9684
vn -0.1301 0.2278 0.9650
vn -0.0514 -0.9649 -0.2576
vn 0.2228 -0.9412 -0.2541
vn 0.2228 -0.9412 0.2541
vn -0.0514 -0.9649 0.2576
vn 0.0000 -0.9900 -0.1411
vn 0.0000 -0.9900 0.1411
vn 0.0000 0.2203 0.9754
vn 0.0000 -0.2203 0.9754
vn 0.9405 -0.2284 0.2515
vn 0.6617 -0.1771 0.7286
vn 0.5443 -0.5680 0.6174
vn 0.6901 -0.6951 0.2012
vn 0.9405 -0.2284 -0.2515
vn 0.6901 -0.6951 -0.2012
vn 0.5443 -0.5680 -0.6174
vn 0.6617 -0.1771 -0.7286
vn 0.1559 -0.6735 -0.7226
vn 0.1559 -0.6735 0.7226
vn 0.1976 -0.2217 0.9549
vn 0.9405 0.2284 0.2515
vn 0.6617 0.1771 0.7286
vn -0.0774 -0.6710 -0.7374
vn 0.6617 0.1771 -0.7286
vn -0.0122 -0.9948 -0.1013
vn -0.0947 -0.6844 -0.7229
vn -0.0122 -0.9948 0.1013
vn -0.0774 -0.6710 0.7374
vn -0.0947 -0.6844 0.7229
vn -0.1301 -0.2278 -0.9650
vn 0.0000 -0.9936 0.1131
vn -0.0000 -0.6727 0.7399
vn 0.0000 -0.9936 -0.1131
vn 0.0000 -0.6727 -0.7399
vn 0.0000 -0.2203 -0.9754
vn 0.9405 0.2284 -0.2515
vn 0.1976 0.2217 0.9549
vn -0.1976 -0.2217 -0.9549
vn -0.1976 0.2217 -0.9549
vn 0.1032 0.2271 -0.9684
vn 0.1032 -0.2271 -0.9684
vn -0.0118 -0.9895 0.1443
vn -0.0118 -0.9895 -0.1443
vn 0.0698 -0.9940 -0.0841
vn 0.0698 -0.9940 0.0841
vn 0.0514 -0.9649 -0.2576
vn 0.0514 -0.9649 0.2576
vn -0.2228 -0.9412 0.2541
vn -0.2228 -0.9412 -0.2541
vn 0.1032 -0.2271 0.9684
vn 0.1032 0.2271 0.9684
vn -0.1976 0.2217 0.9549
vn -0.1976 -0.2217 0.9549
vn -0.9405 -0.2284 0.2515
vn -0.6901 -0.6951 0.2012
vn -0.5443 -0.5680 0.6174
vn -0.6617 -0.1771 0.7286
vn -0.9405 -0.2284 -0.2515
vn -0.6617 -0.1771 -0.7286
vn -0.5443 -0.5680 -0.6174
vn -0.6901 -0.6951 -0.2012
vn -0.1559 -0.6735 -0.7226
vn -0.1559 -0.6735 0.7226
vn -0.6617 0.1771 0.7286
vn -0.9405 0.2284 0.2515
vn 0.0774 -0.6710 -0.7374
vn -0.6617 0.1771 -0.7286
vn 0.0947 -0.6844 -0.7229
vn 0.0122 -0.9948 -0.1013
vn 0.0122 -0.9948 0.1013
vn 0.0947 -0.6844 0.7229
vn 0.0774 -0.6710 0.7374
vn 0.1301 -0.2278 0.9650
vn 0.1301 -0.2278 -0.9650
vn 0.1301 0.2278 -0.9650
vn 0.0000 0.2203 -0.9754
vn 0.0118 0.9895 0.1443
vn 0.0118 0.9895 -0.1443
vn -0.0698 0.9940 -0.0841
vn -0.0698 0.9940 0.0841
vn -0.1301 0.2278 -0.9650
vn -0.0514 0.9649 -0.2576
vn -0.0514 0.9649 0.2576
vn 0.2228 0.9412 0.2541
vn 0.2228 0.9412 -0.2541
vn 0.0000 0.9900 0.1411
vn 0.0000 0.9900 -0.1411
vn 0.6901 0.6951 0.2012
vn 0.5443 0.5680 0.6174
vn 0.5443 0.5680 -0.6174
vn 0.6901 0.6951 -0.2012
vn 0.1559 0.6735 -0.7226
vn 0.1559 0.6735 0.7226
vn -0.0774 0.6710 -0.7374
vn -0.0947 0.6844 -0.7229
vn -0.0122 0.9948 -0.1013
vn -0.0122 0.9948 0.1013
vn -0.0947 0.6844 0.7229
vn -0.0774 0.6710 0.7374
vn 0.0000 0.9936 0.1131
vn 0.0000 0.6727 0.7399
vn 0.0000 0.6727 -0.7399
vn 0.0000 0.9936 -0.1131
vn -0.9405 0.2284 -0.2515
vn -0.0118 0.9895 0.1443
vn 0.0698 0.9940 0.0841
vn 0.0698 0.9940 -0.0841
vn -0.0118 0.9895 -0.1443
vn 0.1301 0.2278 0.9650
vn 0.0514 0.9649 -0.2576
vn -0.2228 0.9412 -0.2541
vn -0.2228 0.9412 0.2541
vn 0.0514 0.9649 0.2576
vn -0.5443 0.5680 0.6174
vn -0.6901 0.6951 0.2012
vn -0.6901 0.6951 -0.2012
vn -0.5443 0.5680 -0.6174
vn -0.1559 0.6735 -0.7226
vn -0.1559 0.6735 0.7226
vn 0.0774 0.6710 -0.7374
vn 0.0122 0.9948 -0.1013
vn 0.0947 0.6844 -0.7229
vn 0.0122 0.9948 0.1013
vn 0.0774 0.6710 0.7374
vn 0.0947 0.6844 0.7229
# 136 vertex normals

vt 0.9347 0.4459 0.0000
vt 0.8895 0.4581 0.0000
vt 0.9136 0.5106 0.0000
vt 0.9744 0.4728 0.0000
vt 0.8270 0.4162 0.0000
vt 0.8650 0.4185 0.0000
vt 0.8584 0.3031 0.0000
vt 0.8230 0.3092 0.0000
vt 0.8235 0.2641 0.0000
vt 0.8761 0.2614 0.0000
vt 0.8918 0.2101 0.0000
vt 0.8291 0.2022 0.0000
vt 0.8829 0.4346 0.0000
vt 0.9248 0.4279 0.0000
vt 0.9128 0.2811 0.0000
vt 0.8729 0.2847 0.0000
vt 0.7788 0.3103 0.0000
vt 0.7778 0.4156 0.0000
vt 0.7797 0.2008 0.0000
vt 0.7792 0.2641 0.0000
vt 0.9340 0.2741 0.0000
vt 0.9286 0.2665 0.0000
vt 0.9227 0.2719 0.0000
vt 0.9238 0.2781 0.0000
vt 0.9489 0.4282 0.0000
vt 0.9371 0.4275 0.0000
vt 0.9363 0.4337 0.0000
vt 0.9427 0.4369 0.0000
vt 0.9288 0.4368 0.0000
vt 0.9151 0.2715 0.0000
vt 0.9191 0.2614 0.0000
vt 0.9823 0.2446 0.0000
vt 0.9664 0.2284 0.0000
vt 0.8857 0.4463 0.0000
vt 0.9888 0.4567 0.0000
vt 0.8266 0.4353 0.0000
vt 0.8275 0.4483 0.0000
vt 0.8223 0.2903 0.0000
vt 0.8741 0.2732 0.0000
vt 0.8227 0.2774 0.0000
vt 0.8286 0.4618 0.0000
vt 0.7789 0.2910 0.0000
vt 0.7791 0.2779 0.0000
vt 0.7777 0.4348 0.0000
vt 0.7775 0.4478 0.0000
vt 0.7774 0.4615 0.0000
vt 0.9987 0.4392 0.0000
vt 0.9482 0.2222 0.0000
vt 0.6212 0.4401 0.0000
vt 0.5796 0.4718 0.0000
vt 0.6404 0.5055 0.0000
vt 0.6655 0.4574 0.0000
vt 0.7287 0.4154 0.0000
vt 0.7346 0.3081 0.0000
vt 0.6992 0.3019 0.0000
vt 0.6907 0.4173 0.0000
vt 0.6726 0.4332 0.0000
vt 0.6850 0.2835 0.0000
vt 0.6450 0.2788 0.0000
vt 0.6309 0.4244 0.0000
vt 0.6817 0.2606 0.0000
vt 0.6675 0.2075 0.0000
vt 0.6106 0.2188 0.0000
vt 0.6393 0.2594 0.0000
vt 0.6238 0.2712 0.0000
vt 0.6340 0.2755 0.0000
vt 0.6350 0.2692 0.0000
vt 0.6289 0.2633 0.0000
vt 0.6067 0.4244 0.0000
vt 0.6113 0.4335 0.0000
vt 0.6185 0.4299 0.0000
vt 0.6186 0.4238 0.0000
vt 0.6269 0.4322 0.0000
vt 0.6429 0.2694 0.0000
vt 0.5927 0.2252 0.0000
vt 0.5761 0.2411 0.0000
vt 0.6696 0.4452 0.0000
vt 0.5668 0.4537 0.0000
vt 0.7276 0.4475 0.0000
vt 0.7287 0.4345 0.0000
vt 0.7358 0.2889 0.0000
vt 0.7357 0.2757 0.0000
vt 0.6838 0.2722 0.0000
vt 0.7354 0.2621 0.0000
vt 0.7262 0.4610 0.0000
vt 0.7167 0.5226 0.0000
vt 0.7769 0.5259 0.0000
vt 0.8350 0.0546 0.0000
vt 0.8340 0.1604 0.0000
vt 0.8770 0.1690 0.0000
vt 0.8772 0.0489 0.0000
vt 0.8370 0.5239 0.0000
vt 0.8956 0.0300 0.0000
vt 0.8954 0.1890 0.0000
vt 0.9450 0.1981 0.0000
vt 0.9442 0.0318 0.0000
vt 0.7809 0.0566 0.0000
vt 0.7799 0.1572 0.0000
vt 0.9720 0.2031 0.0000
vt 0.9587 0.2012 0.0000
vt 0.9588 0.2135 0.0000
vt 0.9711 0.0305 0.0000
vt 0.9629 0.0165 0.0000
vt 0.9561 0.0225 0.0000
vt 0.9579 0.0313 0.0000
vt 0.9481 0.0073 0.0000
vt 0.9458 0.0201 0.0000
vt 0.9468 0.2099 0.0000
vt 0.8953 0.0044 0.0000
vt 0.8954 0.0175 0.0000
vt 0.8330 0.0239 0.0000
vt 0.8334 0.0365 0.0000
vt 0.8316 0.1777 0.0000
vt 0.8305 0.1897 0.0000
vt 0.8939 0.1996 0.0000
vt 0.8323 0.0108 0.0000
vt 0.7798 0.1753 0.0000
vt 0.7797 0.1876 0.0000
vt 0.7812 0.0261 0.0000
vt 0.7810 0.0384 0.0000
vt 0.7813 0.0131 0.0000
vt 0.5565 0.4360 0.0000
vt 0.7269 0.0537 0.0000
vt 0.6848 0.0471 0.0000
vt 0.6829 0.1671 0.0000
vt 0.7258 0.1597 0.0000
vt 0.7294 0.2025 0.0000
vt 0.6668 0.0280 0.0000
vt 0.6181 0.0288 0.0000
vt 0.6144 0.1949 0.0000
vt 0.6641 0.1866 0.0000
vt 0.5873 0.1995 0.0000
vt 0.6003 0.2102 0.0000
vt 0.6006 0.1979 0.0000
vt 0.5912 0.0270 0.0000
vt 0.6044 0.0281 0.0000
vt 0.6064 0.0193 0.0000
vt 0.5996 0.0132 0.0000
vt 0.6146 0.0043 0.0000
vt 0.6167 0.0171 0.0000
vt 0.6123 0.2067 0.0000
vt 0.6675 0.0023 0.0000
vt 0.6671 0.0154 0.0000
vt 0.7288 0.0356 0.0000
vt 0.7294 0.0230 0.0000
vt 0.7278 0.1774 0.0000
vt 0.6655 0.1971 0.0000
vt 0.7286 0.1897 0.0000
vt 0.7303 0.0099 0.0000
# 149 texture coords

o PSNW_Soap01
g PSNW_Soap01
usemtl PSNW_Soap01
s 1
f 1/1/1 2/2/2 3/3/3 4/4/4 
f 5/5/5 6/6/6 7/7/7 8/8/8 
f 9/9/9 10/10/10 11/11/11 12/12/12 
f 13/13/13 14/14/14 15/15/15 16/16/16 
f 5/5/5 8/8/8 17/17/17 18/18/18 
f 9/9/9 12/12/12 19/19/19 20/20/20 
f 21/21/21 22/22/22 23/23/23 24/24/24 
f 25/25/25 26/26/26 27/27/27 28/28/28 
f 1/1/1 28/28/28 27/27/27 29/29/29 
f 14/14/14 29/29/29 27/27/27 26/26/26 
f 15/15/15 24/24/24 23/23/23 30/30/30 
f 31/31/31 30/30/30 23/23/23 22/22/22 
f 25/25/25 21/21/21 24/24/24 26/26/26 
f 21/21/21 32/32/32 33/33/33 22/22/22 
f 2/2/2 1/1/1 29/29/29 34/34/34 
f 1/1/1 4/4/4 35/35/35 28/28/28 
f 13/13/13 36/36/36 37/37/37 34/34/34 
f 38/38/38 16/16/16 39/39/39 40/40/40 
f 10/10/10 9/9/9 40/40/40 39/39/39 
f 41/41/41 2/2/2 34/34/34 37/37/37 
f 14/14/14 13/13/13 34/34/34 29/29/29 
f 15/15/15 14/14/14 26/26/26 24/24/24 
f 16/16/16 15/15/15 30/30/30 39/39/39 
f 31/31/31 10/10/10 39/39/39 30/30/30 
f 42/42/42 38/38/38 40/40/40 43/43/43 
f 36/36/36 44/44/44 45/45/45 37/37/37 
f 9/9/9 20/20/20 43/43/43 40/40/40 
f 46/46/46 41/41/41 37/37/37 45/45/45 
f 25/25/25 28/28/28 35/35/35 47/47/47 
f 31/31/31 22/22/22 33/33/33 48/48/48 
f 44/44/44 36/36/36 5/5/5 18/18/18 
f 36/36/36 13/13/13 6/6/6 5/5/5 
f 13/13/13 16/16/16 7/7/7 6/6/6 
f 16/16/16 38/38/38 8/8/8 7/7/7 
f 38/38/38 42/42/42 17/17/17 8/8/8 
f 49/49/49 50/50/50 51/51/51 52/52/52 
f 53/53/53 54/54/54 55/55/55 56/56/56 
f 57/57/57 58/58/58 59/59/59 60/60/60 
f 61/61/61 62/62/62 63/63/63 64/64/64 
f 53/53/53 18/18/18 17/17/17 54/54/54 
f 65/65/65 66/66/66 67/67/67 68/68/68 
f 69/69/69 70/70/70 71/71/71 72/72/72 
f 49/49/49 73/73/73 71/71/71 70/70/70 
f 60/60/60 72/72/72 71/71/71 73/73/73 
f 59/59/59 74/74/74 67/67/67 66/66/66 
f 64/64/64 68/68/68 67/67/67 74/74/74 
f 69/69/69 72/72/72 66/66/66 65/65/65 
f 65/65/65 68/68/68 75/75/75 76/76/76 
f 52/52/52 77/77/77 73/73/73 49/49/49 
f 49/49/49 70/70/70 78/78/78 50/50/50 
f 57/57/57 77/77/77 79/79/79 80/80/80 
f 81/81/81 82/82/82 83/83/83 58/58/58 
f 61/61/61 83/83/83 82/82/82 84/84/84 
f 85/85/85 79/79/79 77/77/77 52/52/52 
f 60/60/60 73/73/73 77/77/77 57/57/57 
f 59/59/59 66/66/66 72/72/72 60/60/60 
f 58/58/58 83/83/83 74/74/74 59/59/59 
f 64/64/64 74/74/74 83/83/83 61/61/61 
f 42/42/42 43/43/43 82/82/82 81/81/81 
f 80/80/80 79/79/79 45/45/45 44/44/44 
f 84/84/84 82/82/82 43/43/43 20/20/20 
f 46/46/46 45/45/45 79/79/79 85/85/85 
f 86/86/86 87/87/87 46/46/46 85/85/85 
f 63/63/63 75/75/75 68/68/68 64/64/64 
f 44/44/44 18/18/18 53/53/53 80/80/80 
f 80/80/80 53/53/53 56/56/56 57/57/57 
f 57/57/57 56/56/56 55/55/55 58/58/58 
f 58/58/58 55/55/55 54/54/54 81/81/81 
f 81/81/81 54/54/54 17/17/17 42/42/42 
f 32/32/32 21/21/21 25/25/25 47/47/47 
f 88/88/88 89/89/89 90/90/90 91/91/91 
f 3/3/3 2/2/2 41/41/41 92/92/92 
f 93/93/93 94/94/94 95/95/95 96/96/96 
f 11/11/11 10/10/10 31/31/31 48/48/48 
f 88/88/88 97/97/97 98/98/98 89/89/89 
f 32/99/32 99/100/99 100/101/100 33/33/33 
f 47/102/47 35/103/35 101/104/101 102/105/102 
f 4/106/4 103/107/103 101/104/101 35/103/35 
f 96/96/96 102/105/102 101/104/101 103/107/103 
f 95/95/95 104/108/104 100/101/100 99/100/99 
f 48/48/48 33/33/33 100/101/100 104/108/104 
f 47/102/47 102/105/102 99/100/99 32/99/32 
f 3/109/3 105/110/105 103/107/103 4/106/4 
f 93/93/93 105/110/105 106/111/106 107/112/107 
f 108/113/108 109/114/109 110/115/110 94/94/94 
f 11/11/11 110/115/110 109/114/109 12/12/12 
f 92/116/92 106/111/106 105/110/105 3/109/3 
f 96/96/96 103/107/103 105/110/105 93/93/93 
f 95/95/95 99/100/99 102/105/102 96/96/96 
f 94/94/94 110/115/110 104/108/104 95/95/95 
f 48/48/48 104/108/104 110/115/110 11/11/11 
f 111/117/111 112/118/112 109/114/109 108/113/108 
f 107/112/107 106/111/106 113/119/113 114/120/114 
f 12/12/12 109/114/109 112/118/112 19/19/19 
f 87/121/87 113/119/113 106/111/106 92/116/92 
f 41/41/41 46/46/46 87/87/87 92/92/92 
f 114/120/114 97/97/97 88/88/88 107/112/107 
f 107/112/107 88/88/88 91/91/91 93/93/93 
f 93/93/93 91/91/91 90/90/90 94/94/94 
f 94/94/94 90/90/90 89/89/89 108/113/108 
f 108/113/108 89/89/89 98/98/98 111/117/111 
f 76/76/76 115/122/115 69/69/69 65/65/65 
f 116/123/116 117/124/117 118/125/118 119/126/119 
f 120/127/120 62/62/62 61/61/61 84/84/84 
f 51/51/51 86/86/86 85/85/85 52/52/52 
f 121/128/121 122/129/122 123/130/123 124/131/124 
f 116/123/116 119/126/119 98/98/98 97/97/97 
f 120/127/120 84/84/84 20/20/20 19/19/19 
f 76/132/76 75/75/75 125/133/125 126/134/126 
f 115/135/115 127/136/127 128/137/128 78/138/78 
f 50/139/50 78/138/78 128/137/128 129/140/129 
f 122/129/122 129/140/129 128/137/128 127/136/127 
f 123/130/123 126/134/126 125/133/125 130/141/130 
f 63/63/63 130/141/130 125/133/125 75/75/75 
f 115/135/115 76/132/76 126/134/126 127/136/127 
f 51/142/51 50/139/50 129/140/129 131/143/131 
f 121/128/121 132/144/132 133/145/133 131/143/131 
f 134/146/134 124/131/124 135/147/135 136/148/136 
f 62/62/62 120/127/120 136/148/136 135/147/135 
f 86/149/86 51/142/51 131/143/131 133/145/133 
f 122/129/122 121/128/121 131/143/131 129/140/129 
f 123/130/123 122/129/122 127/136/127 126/134/126 
f 124/131/124 123/130/123 130/141/130 135/147/135 
f 63/63/63 62/62/62 135/147/135 130/141/130 
f 111/117/111 134/146/134 136/148/136 112/118/112 
f 132/144/132 114/120/114 113/119/113 133/145/133 
f 120/127/120 19/19/19 112/118/112 136/148/136 
f 87/121/87 86/149/86 133/145/133 113/119/113 
f 115/122/115 78/78/78 70/70/70 69/69/69 
f 114/120/114 132/144/132 116/123/116 97/97/97 
f 132/144/132 121/128/121 117/124/117 116/123/116 
f 121/128/121 124/131/124 118/125/118 117/124/117 
f 124/131/124 134/146/134 119/126/119 118/125/118 
f 134/146/134 111/117/111 98/98/98 119/126/119 
# 134 polygons

