# 3ds Max Wavefront OBJ Exporter v0.99 - (c)2007 guruware
# File Created: 01.01.2026 02:24:34

mtllib LiftProp_FloorTile01-09.mtl

#
# object LiftProp_FloorTile01
#

v  0.0000 0.0000 -0.0000
v  -0.0000 0.0000 0.3853
v  0.3984 0.0000 0.3853
v  0.3982 0.0000 -0.0000
v  -0.0203 -0.0137 -0.0203
v  -0.0203 -0.0137 0.4056
v  0.4186 -0.0137 0.4056
v  0.4184 -0.0137 -0.0203
v  -0.0203 -0.0220 -0.0203
v  0.4184 -0.0220 -0.0203
v  0.4186 -0.0220 0.4056
v  -0.0203 -0.0220 0.4056
# 12 vertices

vn -0.2254 0.9478 -0.2254
vn -0.2254 0.9478 0.2254
vn 0.2254 0.9478 0.2253
vn 0.2254 0.9478 -0.2255
vn -0.6326 0.4468 -0.6326
vn -0.6326 0.4468 0.6326
vn 0.6327 0.4469 0.6324
vn 0.6324 0.4468 -0.6327
vn -0.5774 -0.5774 -0.5774
vn 0.5772 -0.5774 -0.5775
vn 0.5775 -0.5773 0.5772
vn -0.5774 -0.5774 0.5774
# 12 vertex normals

vt 0.3094 0.3086 0.0000
vt 0.2619 0.3086 0.0000
vt 0.2619 0.2558 0.0000
vt 0.3094 0.2558 0.0000
vt 0.3124 0.3118 0.0000
vt 0.2590 0.3118 0.0000
vt 0.2590 0.2526 0.0000
vt 0.3124 0.2526 0.0000
vt 0.4378 0.2519 0.0000
vt 0.4378 0.3145 0.0000
vt 0.3754 0.3145 0.0000
vt 0.3754 0.2519 0.0000
vt 0.3131 0.3125 0.0000
vt 0.2583 0.3125 0.0000
vt 0.3131 0.2519 0.0000
vt 0.2583 0.2519 0.0000
# 16 texture coords

o LiftProp_FloorTile01
g LiftProp_FloorTile01
usemtl JailProp_Floor
s 2
f 1/1/1 2/2/2 3/3/3 4/4/4 
f 5/5/5 6/6/6 2/2/2 1/1/1 
f 6/6/6 7/7/7 3/3/3 2/2/2 
f 7/7/7 8/8/8 4/4/4 3/3/3 
f 8/8/8 5/5/5 1/1/1 4/4/4 
s 1
f 9/9/9 10/10/10 11/11/11 12/12/12 
s 2
f 6/6/6 5/5/5 9/13/9 12/14/12 
f 5/5/5 8/8/8 10/15/10 9/13/9 
f 8/8/8 7/7/7 11/16/11 10/15/10 
f 7/7/7 6/6/6 12/14/12 11/16/11 
# 10 polygons

#
# object LiftProp_FloorTile02
#

v  0.0000 0.0000 -0.0000
v  -0.0000 0.0000 0.3853
v  0.3984 0.0000 0.3853
v  0.3982 0.0000 -0.0000
v  -0.0203 -0.0137 -0.0203
v  -0.0203 -0.0137 0.4056
v  0.4186 -0.0137 0.4056
v  0.4184 -0.0137 -0.0203
v  -0.0203 -0.0220 -0.0203
v  0.4184 -0.0220 -0.0203
v  0.4186 -0.0220 0.4056
v  -0.0203 -0.0220 0.4056
# 12 vertices

vn -0.2254 0.9478 -0.2254
vn -0.2254 0.9478 0.2254
vn 0.2254 0.9478 0.2253
vn 0.2254 0.9478 -0.2255
vn -0.6326 0.4468 -0.6326
vn -0.6326 0.4468 0.6326
vn 0.6327 0.4469 0.6324
vn 0.6324 0.4468 -0.6327
vn -0.5774 -0.5774 -0.5774
vn 0.5772 -0.5774 -0.5775
vn 0.5775 -0.5773 0.5772
vn -0.5774 -0.5774 0.5774
# 12 vertex normals

vt 0.3713 0.3105 0.0000
vt 0.3172 0.3105 0.0000
vt 0.3172 0.2560 0.0000
vt 0.3713 0.2560 0.0000
vt 0.3746 0.3138 0.0000
vt 0.3139 0.3138 0.0000
vt 0.3139 0.2527 0.0000
vt 0.3746 0.2527 0.0000
vt 0.4378 0.2519 0.0000
vt 0.4378 0.3145 0.0000
vt 0.3754 0.3145 0.0000
vt 0.3754 0.2519 0.0000
vt 0.3131 0.3145 0.0000
vt 0.3131 0.2519 0.0000
# 14 texture coords

o LiftProp_FloorTile02
g LiftProp_FloorTile02
usemtl JailProp_Floor
s 2
f 13/17/13 14/18/14 15/19/15 16/20/16 
f 17/21/17 18/22/18 14/18/14 13/17/13 
f 18/22/18 19/23/19 15/19/15 14/18/14 
f 19/23/19 20/24/20 16/20/16 15/19/15 
f 20/24/20 17/21/17 13/17/13 16/20/16 
s 1
f 21/25/21 22/26/22 23/27/23 24/28/24 
s 2
f 18/22/18 17/21/17 21/27/21 24/29/24 
f 17/21/17 20/24/20 22/28/22 21/27/21 
f 20/24/20 19/23/19 23/30/23 22/28/22 
f 19/23/19 18/22/18 24/29/24 23/30/23 
# 10 polygons

#
# object LiftProp_FloorTile04
#

v  0.0000 0.0000 -0.0000
v  -0.0000 0.0000 0.3853
v  0.3984 0.0000 0.3853
v  0.3982 0.0000 -0.0000
v  -0.0203 -0.0137 -0.0203
v  -0.0203 -0.0137 0.4056
v  0.4186 -0.0137 0.4056
v  0.4184 -0.0137 -0.0203
v  -0.0203 -0.0220 -0.0203
v  0.4184 -0.0220 -0.0203
v  0.4186 -0.0220 0.4056
v  -0.0203 -0.0220 0.4056
# 12 vertices

vn -0.2254 0.9478 -0.2254
vn -0.2254 0.9478 0.2254
vn 0.2254 0.9478 0.2253
vn 0.2254 0.9478 -0.2255
vn -0.6326 0.4468 -0.6326
vn -0.6326 0.4468 0.6326
vn 0.6327 0.4469 0.6324
vn 0.6324 0.4468 -0.6327
vn -0.5774 -0.5774 -0.5774
vn 0.5772 -0.5774 -0.5775
vn 0.5775 -0.5773 0.5772
vn -0.5774 -0.5774 0.5774
# 12 vertex normals

vt 0.4337 0.2479 0.0000
vt 0.3796 0.2479 0.0000
vt 0.3796 0.1933 0.0000
vt 0.4337 0.1933 0.0000
vt 0.4370 0.2511 0.0000
vt 0.3762 0.2511 0.0000
vt 0.3762 0.1901 0.0000
vt 0.4370 0.1901 0.0000
vt 0.4378 0.2519 0.0000
vt 0.4378 0.3145 0.0000
vt 0.3754 0.3145 0.0000
vt 0.3754 0.2519 0.0000
vt 0.4378 0.1893 0.0000
vt 0.3754 0.1893 0.0000
# 14 texture coords

o LiftProp_FloorTile04
g LiftProp_FloorTile04
usemtl JailProp_Floor
s 2
f 25/31/25 26/32/26 27/33/27 28/34/28 
f 29/35/29 30/36/30 26/32/26 25/31/25 
f 30/36/30 31/37/31 27/33/27 26/32/26 
f 31/37/31 32/38/32 28/34/28 27/33/27 
f 32/38/32 29/35/29 25/31/25 28/34/28 
s 1
f 33/39/33 34/40/34 35/41/35 36/42/36 
s 2
f 30/36/30 29/35/29 33/39/33 36/42/36 
f 29/35/29 32/38/32 34/43/34 33/39/33 
f 32/38/32 31/37/31 35/44/35 34/43/34 
f 31/37/31 30/36/30 36/42/36 35/44/35 
# 10 polygons

#
# object LiftProp_FloorTile06
#

v  0.0000 0.0000 -0.0000
v  -0.0000 0.0000 0.3853
v  0.3984 0.0000 0.3853
v  0.3982 0.0000 -0.0000
v  -0.0203 -0.0137 -0.0203
v  -0.0203 -0.0137 0.4056
v  0.4186 -0.0137 0.4056
v  0.4184 -0.0137 -0.0203
v  -0.0203 -0.0220 -0.0203
v  0.4184 -0.0220 -0.0203
v  0.4186 -0.0220 0.4056
v  -0.0203 -0.0220 0.4056
# 12 vertices

vn -0.2254 0.9478 -0.2254
vn -0.2254 0.9478 0.2254
vn 0.2254 0.9478 0.2253
vn 0.2254 0.9478 -0.2255
vn -0.6326 0.4468 -0.6326
vn -0.6326 0.4468 0.6326
vn 0.6327 0.4469 0.6324
vn 0.6324 0.4468 -0.6327
vn -0.5774 -0.5774 -0.5774
vn 0.5772 -0.5774 -0.5775
vn 0.5775 -0.5773 0.5772
vn -0.5774 -0.5774 0.5774
# 12 vertex normals

vt 0.3089 0.2478 0.0000
vt 0.2548 0.2478 0.0000
vt 0.2548 0.1933 0.0000
vt 0.3089 0.1933 0.0000
vt 0.3123 0.2511 0.0000
vt 0.2515 0.2511 0.0000
vt 0.2515 0.1900 0.0000
vt 0.3123 0.1900 0.0000
vt 0.4378 0.2519 0.0000
vt 0.4378 0.3145 0.0000
vt 0.3754 0.3145 0.0000
vt 0.3754 0.2519 0.0000
vt 0.3131 0.2519 0.0000
vt 0.2507 0.2519 0.0000
vt 0.3131 0.1892 0.0000
vt 0.2507 0.1892 0.0000
# 16 texture coords

o LiftProp_FloorTile06
g LiftProp_FloorTile06
usemtl JailProp_Floor
s 2
f 37/45/37 38/46/38 39/47/39 40/48/40 
f 41/49/41 42/50/42 38/46/38 37/45/37 
f 42/50/42 43/51/43 39/47/39 38/46/38 
f 43/51/43 44/52/44 40/48/40 39/47/39 
f 44/52/44 41/49/41 37/45/37 40/48/40 
s 1
f 45/53/45 46/54/46 47/55/47 48/56/48 
s 2
f 42/50/42 41/49/41 45/57/45 48/58/48 
f 41/49/41 44/52/44 46/59/46 45/57/45 
f 44/52/44 43/51/43 47/60/47 46/59/46 
f 43/51/43 42/50/42 48/58/48 47/60/47 
# 10 polygons

#
# object LiftProp_FloorTile05
#

v  0.0000 0.0000 -0.0000
v  -0.0000 0.0000 0.3853
v  0.3984 0.0000 0.3853
v  0.3982 0.0000 -0.0000
v  -0.0203 -0.0137 -0.0203
v  -0.0203 -0.0137 0.4056
v  0.4186 -0.0137 0.4056
v  0.4184 -0.0137 -0.0203
v  -0.0203 -0.0220 -0.0203
v  0.4184 -0.0220 -0.0203
v  0.4186 -0.0220 0.4056
v  -0.0203 -0.0220 0.4056
# 12 vertices

vn -0.2254 0.9478 -0.2254
vn -0.2254 0.9478 0.2254
vn 0.2254 0.9478 0.2253
vn 0.2254 0.9478 -0.2255
vn -0.6326 0.4468 -0.6326
vn -0.6326 0.4468 0.6326
vn 0.6327 0.4469 0.6324
vn 0.6324 0.4468 -0.6327
vn -0.5774 -0.5774 -0.5774
vn 0.5772 -0.5774 -0.5775
vn 0.5775 -0.5773 0.5772
vn -0.5774 -0.5774 0.5774
# 12 vertex normals

vt 0.3713 0.2478 0.0000
vt 0.3172 0.2478 0.0000
vt 0.3172 0.1933 0.0000
vt 0.3713 0.1933 0.0000
vt 0.3746 0.2511 0.0000
vt 0.3139 0.2511 0.0000
vt 0.3139 0.1900 0.0000
vt 0.3746 0.1900 0.0000
vt 0.4378 0.2519 0.0000
vt 0.4378 0.3145 0.0000
vt 0.3754 0.3145 0.0000
vt 0.3754 0.2519 0.0000
vt 0.3131 0.2519 0.0000
vt 0.3754 0.1892 0.0000
vt 0.3131 0.1892 0.0000
# 15 texture coords

o LiftProp_FloorTile05
g LiftProp_FloorTile05
usemtl JailProp_Floor
s 2
f 49/61/49 50/62/50 51/63/51 52/64/52 
f 53/65/53 54/66/54 50/62/50 49/61/49 
f 54/66/54 55/67/55 51/63/51 50/62/50 
f 55/67/55 56/68/56 52/64/52 51/63/51 
f 56/68/56 53/65/53 49/61/49 52/64/52 
s 1
f 57/69/57 58/70/58 59/71/59 60/72/60 
s 2
f 54/66/54 53/65/53 57/72/57 60/73/60 
f 53/65/53 56/68/56 58/74/58 57/72/57 
f 56/68/56 55/67/55 59/75/59 58/74/58 
f 55/67/55 54/66/54 60/73/60 59/75/59 
# 10 polygons

#
# object LiftProp_FloorTile09
#

v  0.0000 0.0000 -0.0000
v  -0.0000 0.0000 0.3853
v  0.3984 0.0000 0.3853
v  0.3982 0.0000 -0.0000
v  -0.0203 -0.0137 -0.0203
v  -0.0203 -0.0137 0.4056
v  0.4186 -0.0137 0.4056
v  0.4184 -0.0137 -0.0203
v  -0.0203 -0.0220 -0.0203
v  0.4184 -0.0220 -0.0203
v  0.4186 -0.0220 0.4056
v  -0.0203 -0.0220 0.4056
# 12 vertices

vn -0.2254 0.9478 -0.2254
vn -0.2254 0.9478 0.2254
vn 0.2254 0.9478 0.2253
vn 0.2254 0.9478 -0.2255
vn -0.6326 0.4468 -0.6326
vn -0.6326 0.4468 0.6326
vn 0.6327 0.4469 0.6324
vn 0.6324 0.4468 -0.6327
vn -0.5774 -0.5774 -0.5774
vn 0.5772 -0.5774 -0.5775
vn 0.5775 -0.5773 0.5772
vn -0.5774 -0.5774 0.5774
# 12 vertex normals

vt 0.3089 0.1852 0.0000
vt 0.2548 0.1852 0.0000
vt 0.2548 0.1306 0.0000
vt 0.3089 0.1306 0.0000
vt 0.3123 0.1884 0.0000
vt 0.2515 0.1884 0.0000
vt 0.2515 0.1274 0.0000
vt 0.3123 0.1274 0.0000
vt 0.4378 0.2519 0.0000
vt 0.4378 0.3145 0.0000
vt 0.3754 0.3145 0.0000
vt 0.3754 0.2519 0.0000
vt 0.3131 0.1892 0.0000
vt 0.2507 0.1892 0.0000
vt 0.3131 0.1266 0.0000
vt 0.2507 0.1266 0.0000
# 16 texture coords

o LiftProp_FloorTile09
g LiftProp_FloorTile09
usemtl JailProp_Floor
s 2
f 61/76/61 62/77/62 63/78/63 64/79/64 
f 65/80/65 66/81/66 62/77/62 61/76/61 
f 66/81/66 67/82/67 63/78/63 62/77/62 
f 67/82/67 68/83/68 64/79/64 63/78/63 
f 68/83/68 65/80/65 61/76/61 64/79/64 
s 1
f 69/84/69 70/85/70 71/86/71 72/87/72 
s 2
f 66/81/66 65/80/65 69/88/69 72/89/72 
f 65/80/65 68/83/68 70/90/70 69/88/69 
f 68/83/68 67/82/67 71/91/71 70/90/70 
f 67/82/67 66/81/66 72/89/72 71/91/71 
# 10 polygons

#
# object LiftProp_FloorTile08
#

v  0.0000 0.0000 -0.0000
v  -0.0000 0.0000 0.3853
v  0.3984 0.0000 0.3853
v  0.3982 0.0000 -0.0000
v  -0.0203 -0.0137 -0.0203
v  -0.0203 -0.0137 0.4056
v  0.4186 -0.0137 0.4056
v  0.4184 -0.0137 -0.0203
v  -0.0203 -0.0220 -0.0203
v  0.4184 -0.0220 -0.0203
v  0.4186 -0.0220 0.4056
v  -0.0203 -0.0220 0.4056
# 12 vertices

vn -0.2254 0.9478 -0.2254
vn -0.2254 0.9478 0.2254
vn 0.2254 0.9478 0.2253
vn 0.2254 0.9478 -0.2255
vn -0.6326 0.4468 -0.6326
vn -0.6326 0.4468 0.6326
vn 0.6327 0.4469 0.6324
vn 0.6324 0.4468 -0.6327
vn -0.5774 -0.5774 -0.5774
vn 0.5772 -0.5774 -0.5775
vn 0.5775 -0.5773 0.5772
vn -0.5774 -0.5774 0.5774
# 12 vertex normals

vt 0.3713 0.1852 0.0000
vt 0.3172 0.1852 0.0000
vt 0.3172 0.1306 0.0000
vt 0.3713 0.1306 0.0000
vt 0.3746 0.1884 0.0000
vt 0.3139 0.1884 0.0000
vt 0.3139 0.1274 0.0000
vt 0.3746 0.1274 0.0000
vt 0.4378 0.2519 0.0000
vt 0.4378 0.3145 0.0000
vt 0.3754 0.3145 0.0000
vt 0.3754 0.2519 0.0000
vt 0.3754 0.1892 0.0000
vt 0.3131 0.1892 0.0000
vt 0.3754 0.1266 0.0000
vt 0.3131 0.1266 0.0000
# 16 texture coords

o LiftProp_FloorTile08
g LiftProp_FloorTile08
usemtl JailProp_Floor
s 2
f 73/92/73 74/93/74 75/94/75 76/95/76 
f 77/96/77 78/97/78 74/93/74 73/92/73 
f 78/97/78 79/98/79 75/94/75 74/93/74 
f 79/98/79 80/99/80 76/95/76 75/94/75 
f 80/99/80 77/96/77 73/92/73 76/95/76 
s 1
f 81/100/81 82/101/82 83/102/83 84/103/84 
s 2
f 78/97/78 77/96/77 81/104/81 84/105/84 
f 77/96/77 80/99/80 82/106/82 81/104/81 
f 80/99/80 79/98/79 83/107/83 82/106/82 
f 79/98/79 78/97/78 84/105/84 83/107/83 
# 10 polygons

#
# object LiftProp_FloorTile07
#

v  0.0000 0.0000 -0.0000
v  -0.0000 0.0000 0.3853
v  0.3984 0.0000 0.3853
v  0.3982 0.0000 -0.0000
v  -0.0203 -0.0137 -0.0203
v  -0.0203 -0.0137 0.4056
v  0.4186 -0.0137 0.4056
v  0.4184 -0.0137 -0.0203
v  -0.0203 -0.0220 -0.0203
v  0.4184 -0.0220 -0.0203
v  0.4186 -0.0220 0.4056
v  -0.0203 -0.0220 0.4056
# 12 vertices

vn -0.2254 0.9478 -0.2254
vn -0.2254 0.9478 0.2254
vn 0.2254 0.9478 0.2253
vn 0.2254 0.9478 -0.2255
vn -0.6326 0.4468 -0.6326
vn -0.6326 0.4468 0.6326
vn 0.6327 0.4469 0.6324
vn 0.6324 0.4468 -0.6327
vn -0.5774 -0.5774 -0.5774
vn 0.5772 -0.5774 -0.5775
vn 0.5775 -0.5773 0.5772
vn -0.5774 -0.5774 0.5774
# 12 vertex normals

vt 0.4337 0.1852 0.0000
vt 0.3796 0.1852 0.0000
vt 0.3796 0.1307 0.0000
vt 0.4337 0.1307 0.0000
vt 0.4370 0.1885 0.0000
vt 0.3762 0.1885 0.0000
vt 0.3762 0.1274 0.0000
vt 0.4370 0.1274 0.0000
vt 0.4378 0.2519 0.0000
vt 0.4378 0.3145 0.0000
vt 0.3754 0.3145 0.0000
vt 0.3754 0.2519 0.0000
vt 0.4378 0.1892 0.0000
vt 0.3754 0.1892 0.0000
vt 0.4378 0.1266 0.0000
vt 0.3754 0.1266 0.0000
# 16 texture coords

o LiftProp_FloorTile07
g LiftProp_FloorTile07
usemtl JailProp_Floor
s 2
f 85/108/85 86/109/86 87/110/87 88/111/88 
f 89/112/89 90/113/90 86/109/86 85/108/85 
f 90/113/90 91/114/91 87/110/87 86/109/86 
f 91/114/91 92/115/92 88/111/88 87/110/87 
f 92/115/92 89/112/89 85/108/85 88/111/88 
s 1
f 93/116/93 94/117/94 95/118/95 96/119/96 
s 2
f 90/113/90 89/112/89 93/120/93 96/121/96 
f 89/112/89 92/115/92 94/122/94 93/120/93 
f 92/115/92 91/114/91 95/123/95 94/122/94 
f 91/114/91 90/113/90 96/121/96 95/123/95 
# 10 polygons

#
# object LiftProp_FloorTile03
#

v  0.0000 0.0000 -0.0000
v  -0.0000 0.0000 0.3853
v  0.3984 0.0000 0.3853
v  0.3982 0.0000 -0.0000
v  -0.0203 -0.0137 -0.0203
v  -0.0203 -0.0137 0.4056
v  0.4186 -0.0137 0.4056
v  0.4184 -0.0137 -0.0203
v  -0.0203 -0.0220 -0.0203
v  0.4184 -0.0220 -0.0203
v  0.4186 -0.0220 0.4056
v  -0.0203 -0.0220 0.4056
# 12 vertices

vn -0.2254 0.9478 -0.2254
vn -0.2254 0.9478 0.2254
vn 0.2254 0.9478 0.2253
vn 0.2254 0.9478 -0.2255
vn -0.6326 0.4468 -0.6326
vn -0.6326 0.4468 0.6326
vn 0.6327 0.4469 0.6324
vn 0.6324 0.4468 -0.6327
vn -0.5774 -0.5774 -0.5774
vn 0.5772 -0.5774 -0.5775
vn 0.5775 -0.5773 0.5772
vn -0.5774 -0.5774 0.5774
# 12 vertex normals

vt 0.4337 0.3105 0.0000
vt 0.3796 0.3105 0.0000
vt 0.3796 0.2560 0.0000
vt 0.4337 0.2560 0.0000
vt 0.4370 0.3138 0.0000
vt 0.3762 0.3138 0.0000
vt 0.3762 0.2527 0.0000
vt 0.4370 0.2527 0.0000
vt 0.4378 0.2519 0.0000
vt 0.4378 0.3145 0.0000
vt 0.3754 0.3145 0.0000
vt 0.3754 0.2519 0.0000
# 12 texture coords

o LiftProp_FloorTile03
g LiftProp_FloorTile03
usemtl JailProp_Floor
s 2
f 97/124/97 98/125/98 99/126/99 100/127/100 
f 101/128/101 102/129/102 98/125/98 97/124/97 
f 102/129/102 103/130/103 99/126/99 98/125/98 
f 103/130/103 104/131/104 100/127/100 99/126/99 
f 104/131/104 101/128/101 97/124/97 100/127/100 
s 1
f 105/132/105 106/133/106 107/134/107 108/135/108 
s 2
f 102/129/102 101/128/101 105/133/105 108/134/108 
f 101/128/101 104/131/104 106/132/106 105/133/105 
f 104/131/104 103/130/103 107/135/107 106/132/106 
f 103/130/103 102/129/102 108/134/108 107/135/107 
# 10 polygons

