# 3ds Max Wavefront OBJ Exporter v0.99 - (c)2007 guruware
# File Created: 30.12.2025 20:12:56

mtllib LiftProp_Pillow01.mtl

#
# object LiftProp_Pillow01
#

v  0.0304 0.0098 0.3306
v  0.2135 0.0323 0.3317
v  0.1965 0.1200 0.2164
v  0.0086 0.0993 0.2345
v  -0.1607 -0.0285 0.3462
v  -0.1911 0.0573 0.2318
v  0.1678 0.2104 -0.0749
v  -0.0200 0.1921 -0.0668
v  -0.0141 0.1602 0.0886
v  0.1795 0.1737 0.0728
v  -0.2220 0.1674 -0.0623
v  -0.2092 0.1191 0.0888
v  0.3067 0.1539 0.0541
v  0.2848 0.1965 -0.0948
v  0.3247 0.0979 0.2046
v  0.3338 0.0485 0.3041
v  0.3894 0.0973 0.0411
v  0.3836 0.1408 -0.1115
v  0.4125 0.0285 0.1804
v  0.4045 0.0272 0.0147
v  0.4095 0.0964 -0.1294
v  0.4255 -0.0317 0.1602
v  0.4095 0.0104 0.2578
v  0.4436 -0.0282 0.2419
v  -0.3639 0.1061 -0.0668
v  -0.3317 0.0316 0.0763
v  -0.3158 -0.0317 0.2103
v  -0.2886 -0.0855 0.3293
v  -0.4101 0.0171 -0.0895
v  -0.3559 -0.0537 0.0502
v  -0.3426 -0.1132 0.1837
v  -0.3380 -0.1442 0.2746
v  -0.0223 0.1791 -0.1544
v  -0.2196 0.1634 -0.1870
v  0.1623 0.2256 -0.2017
v  0.2739 0.2016 -0.2185
v  0.3747 0.1737 -0.2184
v  0.4182 0.1375 -0.2388
v  -0.3699 0.1286 -0.2003
v  -0.4116 0.0983 -0.1546
v  -0.4693 0.0738 -0.2176
v  0.0440 -0.1093 0.3386
v  0.2236 -0.0704 0.3298
v  -0.1241 -0.1446 0.3509
v  0.3458 -0.0481 0.3513
v  0.3999 -0.0102 0.3443
v  0.4693 -0.0206 0.3336
v  -0.2628 -0.1673 0.3610
v  -0.3165 -0.1808 0.3642
v  0.4455 0.1656 -0.3250
v  0.4035 0.1826 -0.3439
v  0.2469 0.1438 -0.2994
v  0.1062 0.1362 -0.2552
v  -0.0614 0.1142 -0.2343
v  -0.2234 0.0959 -0.2287
v  -0.3542 0.0822 -0.2336
v  -0.4607 0.0868 -0.2462
v  0.3111 0.1539 -0.3205
v  0.0617 -0.1904 0.2667
v  0.2317 -0.1690 0.2689
v  -0.0924 -0.2219 0.2712
v  -0.2185 -0.2250 0.2748
v  -0.2869 -0.2228 0.2827
v  -0.3202 -0.1965 0.2655
v  -0.3122 -0.1736 0.1576
v  -0.3251 -0.1392 0.0181
v  -0.3486 -0.0722 -0.1485
v  -0.4081 0.0010 -0.1962
v  -0.3346 0.0013 -0.2299
v  -0.2258 -0.0009 -0.2364
v  -0.2222 -0.1000 -0.1734
v  -0.2197 -0.1765 -0.0121
v  -0.1060 -0.0969 -0.1880
v  -0.0648 -0.1791 -0.0356
v  0.0606 -0.0841 -0.1989
v  0.0935 -0.1610 -0.0589
v  0.2154 -0.0722 -0.2040
v  0.2522 -0.1360 -0.0411
v  0.3565 -0.0365 -0.1618
v  0.3599 -0.0713 -0.0311
v  0.4001 0.0241 -0.1418
v  0.4004 -0.0109 -0.0129
v  -0.0894 -0.0057 -0.2608
v  0.0531 0.0092 -0.2645
v  0.2019 0.0284 -0.2900
v  -0.2067 -0.2164 0.1286
v  -0.0655 -0.2256 0.1211
v  0.0997 -0.2083 0.1104
v  0.2511 -0.1731 0.1091
v  0.3583 -0.1187 0.1156
v  0.3560 -0.1299 0.2629
v  0.3945 -0.0867 0.1282
v  0.3454 0.0314 -0.2818
v  0.4210 0.0886 -0.2612
v  0.4490 0.1470 -0.3324
v  0.3656 0.0914 -0.3296
v  0.2878 0.1031 -0.3184
v  0.4259 0.1636 -0.3642
v  0.3997 -0.0469 0.3423
v  0.4331 -0.0291 0.3469
v  0.4159 -0.0713 0.3027
v  0.4106 -0.0814 0.2364
v  0.4620 -0.0484 0.3224
# 103 vertices

vn -0.0326 0.4483 0.8933
vn 0.0062 0.4868 0.8735
vn 0.0479 0.8809 0.4710
vn -0.1085 0.8419 0.5286
vn -0.1458 0.4602 0.8758
vn -0.3528 0.7858 0.5079
vn 0.0254 0.9897 0.1407
vn -0.1227 0.9866 0.1072
vn -0.1179 0.9405 0.3186
vn 0.0598 0.9545 0.2921
vn -0.2644 0.9501 0.1656
vn -0.3522 0.8585 0.3728
vn 0.3847 0.8882 0.2513
vn 0.3169 0.9360 0.1529
vn 0.3991 0.8426 0.3615
vn 0.2908 0.7440 0.6015
vn 0.8062 0.5754 0.1375
vn 0.7107 0.6847 0.1612
vn 0.8267 0.5549 0.0930
vn 0.9986 0.0323 -0.0418
vn 0.9760 0.1908 0.1050
vn 0.9905 -0.0797 -0.1122
vn 0.6379 0.7653 0.0859
vn 0.9743 0.0775 -0.2117
vn -0.6596 0.6642 0.3518
vn -0.7617 0.5278 0.3758
vn -0.7927 0.5082 0.3368
vn -0.5300 0.4600 0.7124
vn -0.9529 -0.1307 0.2736
vn -0.9825 -0.1085 0.1514
vn -0.9962 -0.0723 0.0477
vn -0.9876 0.0070 0.1571
vn -0.1618 0.9238 -0.3469
vn -0.1020 0.8834 -0.4574
vn -0.0822 0.9375 -0.3381
vn 0.0836 0.9716 -0.2212
vn 0.4988 0.8486 0.1762
vn 0.8911 0.3814 0.2461
vn -0.2499 0.9016 -0.3531
vn -0.6490 0.6856 0.3298
vn -0.9990 0.0372 -0.0226
vn 0.1002 -0.3054 0.9470
vn 0.0227 -0.3252 0.9454
vn 0.0775 -0.3383 0.9379
vn 0.0689 -0.2104 0.9752
vn 0.1421 0.5492 0.8235
vn 0.8410 0.2491 0.4803
vn 0.0716 -0.2849 0.9559
vn -0.5303 -0.3127 0.7881
vn 0.8484 0.5269 0.0513
vn 0.0759 0.9009 -0.4273
vn -0.2817 0.4554 -0.8446
vn -0.2155 0.4595 -0.8616
vn -0.1095 0.4584 -0.8820
vn -0.0452 0.3707 -0.9276
vn 0.0489 0.2903 -0.9557
vn -0.6510 0.3075 -0.6940
vn -0.3598 0.4320 -0.8270
vn 0.1658 -0.8649 0.4738
vn 0.2088 -0.8617 0.4624
vn 0.1068 -0.9144 0.3904
vn 0.0365 -0.9552 0.2939
vn -0.3144 -0.9423 0.1152
vn -0.7711 -0.6323 -0.0744
vn -0.7083 -0.6886 -0.1554
vn -0.6763 -0.7184 -0.1626
vn -0.5593 -0.7378 -0.3779
vn -0.6103 -0.7035 -0.3641
vn -0.1467 -0.4026 -0.9035
vn -0.1145 -0.2714 -0.9556
vn -0.1781 -0.7728 -0.6091
vn -0.2178 -0.9207 -0.3238
vn -0.0441 -0.7553 -0.6539
vn 0.0000 -0.9282 -0.3720
vn 0.0376 -0.7625 -0.6459
vn 0.1078 -0.9217 -0.3726
vn 0.1741 -0.7966 -0.5788
vn 0.3179 -0.8939 -0.3162
vn 0.5736 -0.7293 -0.3728
vn 0.6512 -0.7177 -0.2466
vn 0.9183 -0.3759 -0.1239
vn 0.9236 -0.3579 -0.1374
vn -0.0799 -0.2387 -0.9678
vn -0.0795 -0.2583 -0.9628
vn -0.0753 -0.3732 -0.9247
vn -0.1977 -0.9651 -0.1719
vn 0.0414 -0.9927 -0.1135
vn 0.1525 -0.9845 -0.0868
vn 0.3140 -0.9440 -0.1015
vn 0.5885 -0.7971 -0.1354
vn 0.4159 -0.8474 0.3300
vn 0.8242 -0.5471 -0.1462
vn 0.3577 -0.6756 -0.6448
vn 0.8884 -0.4356 -0.1452
vn 0.9118 -0.2662 -0.3126
vn 0.1475 -0.5044 -0.8508
vn -0.2259 -0.1637 -0.9603
vn 0.3660 0.2132 -0.9059
vn 0.1512 -0.4861 0.8607
vn 0.2124 -0.0904 0.9730
vn 0.3524 -0.8515 0.3883
vn 0.7602 -0.6449 -0.0784
vn 0.6895 -0.6724 0.2692
# 103 vertex normals

vt 0.6871 0.7598 0.0000
vt 0.6859 0.8205 0.0000
vt 0.6392 0.8171 0.0000
vt 0.6445 0.7554 0.0000
vt 0.6942 0.6961 0.0000
vt 0.6484 0.6888 0.0000
vt 0.5407 0.8109 0.0000
vt 0.5411 0.7477 0.0000
vt 0.5933 0.7493 0.0000
vt 0.5897 0.8132 0.0000
vt 0.5466 0.6804 0.0000
vt 0.5983 0.6837 0.0000
vt 0.5882 0.8561 0.0000
vt 0.5366 0.8501 0.0000
vt 0.6417 0.8599 0.0000
vt 0.6784 0.8608 0.0000
vt 0.5914 0.8894 0.0000
vt 0.5368 0.8882 0.0000
vt 0.6456 0.8977 0.0000
vt 0.5901 0.9145 0.0000
vt 0.5349 0.9061 0.0000
vt 0.6456 0.9192 0.0000
vt 0.6733 0.8925 0.0000
vt 0.6739 0.9105 0.0000
vt 0.5517 0.6297 0.0000
vt 0.6072 0.6340 0.0000
vt 0.6583 0.6394 0.0000
vt 0.7025 0.6508 0.0000
vt 0.5571 0.5963 0.0000
vt 0.6141 0.6039 0.0000
vt 0.6659 0.6110 0.0000
vt 0.7003 0.6200 0.0000
vt 0.5115 0.7460 0.0000
vt 0.5064 0.6781 0.0000
vt 0.5000 0.8104 0.0000
vt 0.4950 0.8483 0.0000
vt 0.4988 0.8837 0.0000
vt 0.4954 0.9034 0.0000
vt 0.5067 0.6264 0.0000
vt 0.5244 0.6111 0.0000
vt 0.5056 0.5883 0.0000
vt 0.7257 0.7600 0.0000
vt 0.7189 0.8212 0.0000
vt 0.7316 0.7028 0.0000
vt 0.7133 0.8627 0.0000
vt 0.7028 0.8818 0.0000
vt 0.7104 0.9053 0.0000
vt 0.7337 0.6546 0.0000
vt 0.7366 0.6352 0.0000
vt 0.4642 0.9097 0.0000
vt 0.4580 0.8951 0.0000
vt 0.4608 0.8396 0.0000
vt 0.4694 0.7874 0.0000
vt 0.4784 0.7295 0.0000
vt 0.4808 0.6730 0.0000
vt 0.4868 0.6273 0.0000
vt 0.4952 0.5919 0.0000
vt 0.4579 0.8623 0.0000
vt 0.7608 0.7650 0.0000
vt 0.7558 0.8207 0.0000
vt 0.7662 0.7137 0.0000
vt 0.7676 0.6725 0.0000
vt 0.7671 0.6502 0.0000
vt 0.7749 0.6375 0.0000
vt 0.7748 0.6197 0.0000
vt 0.8112 0.6177 0.0000
vt 0.8128 0.6422 0.0000
vt 0.8645 0.6143 0.0000
vt 0.8626 0.6458 0.0000
vt 0.9224 0.6084 0.0000
vt 0.9237 0.6492 0.0000
vt 0.9524 0.6306 0.0000
vt 0.9598 0.6569 0.0000
vt 0.9598 0.6939 0.0000
vt 0.9862 0.6492 0.0000
vt 0.9925 0.6950 0.0000
vt 0.9850 0.6127 0.0000
vt 0.9752 0.6078 0.0000
vt 0.9214 0.6918 0.0000
vt 0.8633 0.6837 0.0000
vt 0.9212 0.7302 0.0000
vt 0.8641 0.7352 0.0000
vt 0.9192 0.7852 0.0000
vt 0.8661 0.7878 0.0000
vt 0.9127 0.8360 0.0000
vt 0.8547 0.8397 0.0000
vt 0.8962 0.8833 0.0000
vt 0.8510 0.8809 0.0000
vt 0.8941 0.9083 0.0000
vt 0.8475 0.9056 0.0000
vt 0.8957 0.9327 0.0000
vt 0.8404 0.9199 0.0000
vt 0.9580 0.7406 0.0000
vt 0.9568 0.7892 0.0000
vt 0.9558 0.8409 0.0000
vt 0.9973 0.7529 0.0000
vt 0.9967 0.8126 0.0000
vt 0.9900 0.8637 0.0000
vt 0.8154 0.6812 0.0000
vt 0.8124 0.7277 0.0000
vt 0.8101 0.7816 0.0000
vt 0.8057 0.8321 0.0000
vt 0.7999 0.8714 0.0000
vt 0.7521 0.8632 0.0000
vt 0.7831 0.9078 0.0000
vt 0.7945 0.8870 0.0000
vt 0.9419 0.8875 0.0000
vt 0.9394 0.9196 0.0000
vt 0.9356 0.9373 0.0000
vt 0.9678 0.9334 0.0000
vt 0.9678 0.9398 0.0000
vt 0.9638 0.9010 0.0000
vt 0.9733 0.8759 0.0000
vt 0.9882 0.8875 0.0000
vt 0.4489 0.9026 0.0000
vt 0.9814 0.9295 0.0000
vt 0.7157 0.8799 0.0000
vt 0.7108 0.8913 0.0000
vt 0.7319 0.8853 0.0000
vt 0.7561 0.8886 0.0000
vt 0.7501 0.9090 0.0000
vt 0.7201 0.8991 0.0000
# 122 texture coords

o LiftProp_Pillow01
g LiftProp_Pillow01
usemtl IntProp_BedSet
s 1
f 1/1/1 2/2/2 3/3/3 4/4/4 
f 5/5/5 1/1/1 4/4/4 6/6/6 
f 7/7/7 8/8/8 9/9/9 10/10/10 
f 3/3/3 10/10/10 9/9/9 4/4/4 
f 9/9/9 8/8/8 11/11/11 12/12/12 
f 4/4/4 9/9/9 12/12/12 6/6/6 
f 7/7/7 10/10/10 13/13/13 14/14/14 
f 10/10/10 3/3/3 15/15/15 13/13/13 
f 3/3/3 2/2/2 16/16/16 15/15/15 
f 14/14/14 13/13/13 17/17/17 18/18/18 
f 13/13/13 15/15/15 19/19/19 17/17/17 
f 15/15/15 16/16/16 19/19/19 
f 18/18/18 17/17/17 20/20/20 21/21/21 
f 17/17/17 19/19/19 22/22/22 20/20/20 
f 19/19/19 23/23/23 24/24/24 22/22/22 
f 12/12/12 11/11/11 25/25/25 26/26/26 
f 6/6/6 12/12/12 26/26/26 27/27/27 
f 5/5/5 6/6/6 28/28/28 
f 26/26/26 25/25/25 29/29/29 30/30/30 
f 27/27/27 26/26/26 30/30/30 31/31/31 
f 28/28/28 27/27/27 32/32/32 
f 11/11/11 8/8/8 33/33/33 34/34/34 
f 8/8/8 7/7/7 35/35/35 33/33/33 
f 7/7/7 14/14/14 36/36/36 35/35/35 
f 14/14/14 18/18/18 37/37/37 36/36/36 
f 18/18/18 21/21/21 38/38/38 37/37/37 
f 25/25/25 11/11/11 39/39/39 
f 29/29/29 40/40/40 41/41/41 
f 2/2/2 1/1/1 42/42/42 43/43/43 
f 1/1/1 5/5/5 44/44/44 42/42/42 
f 16/16/16 2/2/2 45/45/45 
f 23/23/23 16/16/16 46/46/46 
f 24/24/24 23/23/23 47/47/47 
f 5/5/5 28/28/28 48/48/48 44/44/44 
f 28/28/28 49/49/49 48/48/48 
f 50/50/50 51/51/51 37/37/37 38/38/38 
f 36/36/36 37/37/37 51/51/51 
f 52/52/52 53/53/53 35/35/35 36/36/36 
f 54/54/54 33/33/33 35/35/35 53/53/53 
f 55/55/55 34/34/34 33/33/33 54/54/54 
f 56/56/56 39/39/39 34/34/34 55/55/55 
f 56/56/56 57/57/57 39/39/39 
f 36/36/36 58/58/58 52/52/52 
f 16/16/16 45/45/45 46/46/46 
f 59/59/59 60/60/60 43/43/43 42/42/42 
f 59/59/59 42/42/42 44/44/44 61/61/61 
f 61/61/61 44/44/44 48/48/48 62/62/62 
f 62/62/62 49/49/49 63/63/63 
f 63/63/63 49/49/49 64/64/64 
f 64/64/64 32/65/32 31/66/31 65/67/65 
f 65/67/65 31/66/31 30/68/30 66/69/66 
f 66/69/66 30/68/30 29/70/29 67/71/67 
f 67/71/67 68/72/68 69/73/69 
f 67/71/67 29/70/29 68/72/68 
f 70/74/70 69/73/69 56/75/56 55/76/55 
f 57/77/57 56/75/56 69/73/69 
f 25/25/25 39/39/39 40/40/40 
f 40/40/40 57/57/57 41/41/41 
f 41/78/41 57/77/57 68/72/68 
f 68/72/68 57/77/57 69/73/69 
f 29/70/29 41/78/41 68/72/68 
f 71/79/71 72/80/72 66/69/66 67/71/67 
f 73/81/73 74/82/74 72/80/72 71/79/71 
f 75/83/75 76/84/76 74/82/74 73/81/73 
f 77/85/77 78/86/78 76/84/76 75/83/75 
f 79/87/79 80/88/80 78/86/78 77/85/77 
f 81/89/81 82/90/82 80/88/80 79/87/79 
f 21/91/21 20/92/20 82/90/82 81/89/81 
f 67/71/67 69/73/69 70/74/70 71/79/71 
f 83/93/83 73/81/73 71/79/71 70/74/70 
f 84/94/84 75/83/75 73/81/73 83/93/83 
f 85/95/85 77/85/77 75/83/75 84/94/84 
f 83/93/83 70/74/70 55/76/55 54/96/54 
f 84/94/84 83/93/83 54/96/54 53/97/53 
f 85/95/85 84/94/84 53/97/53 52/98/52 
f 86/99/86 65/67/65 66/69/66 72/80/72 
f 86/99/86 72/80/72 74/82/74 87/100/87 
f 87/100/87 74/82/74 76/84/76 88/101/88 
f 88/101/88 76/84/76 78/86/78 89/102/89 
f 88/101/88 89/102/89 60/60/60 59/59/59 
f 59/59/59 61/61/61 87/100/87 88/101/88 
f 61/61/61 62/62/62 86/99/86 87/100/87 
f 62/62/62 63/63/63 86/99/86 
f 64/64/64 65/67/65 86/99/86 
f 63/63/63 64/64/64 86/99/86 
f 49/49/49 32/65/32 64/64/64 
f 89/102/89 78/86/78 80/88/80 90/103/90 
f 91/104/91 60/60/60 89/102/89 90/103/90 
f 60/60/60 91/104/91 45/45/45 43/43/43 
f 82/90/82 20/92/20 22/105/22 92/106/92 
f 80/88/80 82/90/82 92/106/92 90/103/90 
f 93/107/93 79/87/79 77/85/77 85/95/85 
f 94/108/94 81/89/81 79/87/79 93/107/93 
f 81/89/81 94/108/94 38/109/38 21/91/21 
f 95/110/95 50/111/50 38/109/38 94/108/94 
f 95/110/95 94/108/94 93/107/93 96/112/96 
f 96/112/96 93/107/93 85/95/85 97/113/97 
f 97/113/97 85/95/85 52/98/52 
f 36/36/36 51/51/51 58/58/58 
f 58/114/58 97/113/97 52/98/52 
f 51/51/51 98/115/98 58/58/58 
f 95/110/95 98/116/98 50/111/50 
f 95/110/95 96/112/96 98/116/98 
f 98/116/98 96/112/96 97/113/97 58/114/58 
f 98/115/98 51/51/51 50/50/50 
f 16/16/16 23/23/23 19/19/19 
f 2/2/2 43/43/43 45/45/45 
f 23/23/23 46/46/46 47/47/47 
f 99/117/99 46/46/46 45/45/45 
f 100/118/100 47/47/47 46/46/46 
f 99/117/99 45/45/45 91/104/91 101/119/101 
f 102/120/102 91/104/91 90/103/90 92/106/92 
f 22/105/22 24/121/24 102/120/102 92/106/92 
f 102/120/102 101/119/101 91/104/91 
f 102/120/102 24/121/24 47/47/47 103/122/103 
f 101/119/101 102/120/102 103/122/103 
f 99/117/99 101/119/101 103/122/103 
f 103/122/103 100/118/100 99/117/99 
f 47/47/47 100/118/100 103/122/103 
f 99/117/99 100/118/100 46/46/46 
f 27/27/27 31/31/31 32/32/32 
f 28/28/28 32/32/32 49/49/49 
f 62/62/62 48/48/48 49/49/49 
f 6/6/6 27/27/27 28/28/28 
f 11/11/11 34/34/34 39/39/39 
f 39/39/39 57/57/57 40/40/40 
f 29/29/29 25/25/25 40/40/40 
# 75 polygons - 52 triangles

