# 3ds Max Wavefront OBJ Exporter v0.99 - (c)2007 guruware
# File Created: 31.12.2025 20:15:10

mtllib LiftProp_FloorTile01.mtl

#
# object LiftProp_FloorTile01
#

v  0.4593 0.1420 -4.4947
v  0.4593 0.1420 -4.1094
v  0.8576 0.1420 -4.1094
v  0.8574 0.1420 -4.4947
v  0.4390 0.1283 -4.5150
v  0.4390 0.1283 -4.0891
v  0.8779 0.1283 -4.0891
v  0.8777 0.1283 -4.5150
v  0.4390 0.1200 -4.5150
v  0.8777 0.1200 -4.5150
v  0.8779 0.1200 -4.0891
v  0.4390 0.1200 -4.0891
# 12 vertices

vn -0.2254 0.9478 -0.2254
vn -0.2254 0.9478 0.2254
vn 0.2254 0.9478 0.2253
vn 0.2254 0.9478 -0.2255
vn -0.6326 0.4468 -0.6326
vn -0.6326 0.4468 0.6326
vn 0.6327 0.4469 0.6324
vn 0.6324 0.4468 -0.6327
vn -0.5774 -0.5774 -0.5774
vn 0.5772 -0.5774 -0.5775
vn 0.5775 -0.5773 0.5772
vn -0.5774 -0.5774 0.5774
# 12 vertex normals

vt 0.0000 0.0000 1.0000
vt 0.0104 0.0000 1.0000
# 2 texture coords

o LiftProp_FloorTile01
g LiftProp_FloorTile01
usemtl Material__65
s 1
f 1/1/1 2/1/2 3/2/3 4/2/4 
s 2
f 5/1/5 6/1/6 2/1/2 1/1/1 
s 4
f 6/1/6 7/2/7 3/2/3 2/1/2 
s 2
f 7/2/7 8/2/8 4/2/4 3/2/3 
s 4
f 8/2/8 5/1/5 1/1/1 4/2/4 
s 1
f 9/1/9 10/2/10 11/2/11 12/1/12 
s 8
f 6/1/6 5/1/5 9/1/9 12/1/12 
s 16
f 5/1/5 8/2/8 10/2/10 9/1/9 
s 8
f 8/2/8 7/2/7 11/2/11 10/2/10 
s 16
f 7/2/7 6/1/6 12/1/12 11/2/11 
# 10 polygons

