# 3ds Max Wavefront OBJ Exporter v0.99 - (c)2007 guruware
# File Created: 31.12.2025 20:55:41

mtllib LiftProp_LeftWallBrick.mtl

#
# object LiftProp_LeftWallBrick
#

v  -0.0573 0.0777 -0.1629
v  -0.0573 -0.0778 -0.1629
v  -0.0561 -0.0778 0.1629
v  -0.0561 0.0778 0.1629
v  -0.0437 -0.0914 -0.1629
v  0.0425 -0.0914 -0.1629
v  0.0437 -0.0914 0.1629
v  -0.0425 -0.0914 0.1629
v  -0.0438 0.0777 -0.1765
v  0.0424 0.0777 -0.1765
v  0.0424 -0.0778 -0.1765
v  -0.0438 -0.0778 -0.1765
v  -0.0424 -0.0778 0.1765
v  0.0438 -0.0778 0.1765
v  0.0438 0.0778 0.1765
v  -0.0424 0.0778 0.1765
v  -0.0425 0.0914 0.1629
v  0.0437 0.0914 0.1629
v  0.0425 0.0913 -0.1629
v  -0.0437 0.0913 -0.1629
v  0.0561 0.0777 -0.1629
v  0.0573 0.0778 0.1629
v  0.0573 -0.0778 0.1629
v  0.0561 -0.0778 -0.1629
# 24 vertices

vn -0.8764 0.3416 -0.3393
vn -0.8765 -0.3417 -0.3392
vn -0.8747 -0.3415 0.3440
vn -0.8747 0.3415 0.3439
vn -0.3420 -0.8758 -0.3407
vn 0.3412 -0.8754 -0.3425
vn 0.3420 -0.8758 0.3407
vn -0.3412 -0.8754 0.3425
vn -0.3425 0.3416 -0.8752
vn 0.3407 0.3414 -0.8760
vn 0.3407 -0.3415 -0.8760
vn -0.3425 -0.3417 -0.8752
vn -0.3407 -0.3415 0.8760
vn 0.3425 -0.3417 0.8752
vn 0.3425 0.3418 0.8751
vn -0.3407 0.3415 0.8759
vn -0.3412 0.8755 0.3422
vn 0.3420 0.8759 0.3404
vn 0.3412 0.8753 -0.3427
vn -0.3420 0.8757 -0.3409
vn 0.8747 0.3414 -0.3441
vn 0.8765 0.3418 0.3391
vn 0.8765 -0.3417 0.3392
vn 0.8747 -0.3414 -0.3440
# 24 vertex normals

vt 0.6798 0.1890 0.0000
vt 0.6798 0.2087 0.0000
vt 0.6316 0.2087 0.0000
vt 0.6316 0.1890 0.0000
vt 0.7807 0.1888 0.0000
vt 0.7807 0.2093 0.0000
vt 0.7429 0.2093 0.0000
vt 0.7429 0.1888 0.0000
vt 0.8509 0.1888 0.0000
vt 0.8509 0.2093 0.0000
vt 0.7853 0.2093 0.0000
vt 0.7853 0.1888 0.0000
vt 0.7383 0.1888 0.0000
vt 0.7383 0.2093 0.0000
vt 0.6834 0.2093 0.0000
vt 0.6834 0.1888 0.0000
vt 0.9094 0.1888 0.0000
vt 0.9094 0.2093 0.0000
vt 0.8555 0.2093 0.0000
vt 0.8555 0.1888 0.0000
vt 0.6797 0.2088 0.0000
vt 0.6315 0.2088 0.0000
vt 0.6315 0.1891 0.0000
vt 0.6797 0.1891 0.0000
vt 0.6798 0.1868 0.0000
vt 0.6824 0.1890 0.0000
vt 0.6824 0.2087 0.0000
vt 0.6798 0.2109 0.0000
vt 0.6315 0.1869 0.0000
vt 0.6289 0.1891 0.0000
vt 0.6316 0.2109 0.0000
vt 0.6290 0.2087 0.0000
vt 0.6824 0.1891 0.0000
vt 0.6797 0.1869 0.0000
vt 0.6289 0.2088 0.0000
vt 0.6315 0.2110 0.0000
vt 0.6290 0.1890 0.0000
vt 0.6316 0.1868 0.0000
vt 0.6797 0.2110 0.0000
vt 0.6824 0.2088 0.0000
vt 0.9140 0.1888 0.0000
vt 0.9140 0.2093 0.0000
# 42 texture coords

o LiftProp_LeftWallBrick
g LiftProp_LeftWallBrick
usemtl JailProp_LeftWall_N
s 1
f 1/1/1 2/2/2 3/3/3 4/4/4 
f 5/5/5 6/6/6 7/7/7 8/8/8 
f 9/9/9 10/10/10 11/11/11 12/12/12 
f 13/13/13 14/14/14 15/15/15 16/16/16 
f 17/17/17 18/18/18 19/19/19 20/20/20 
f 21/21/21 22/22/22 23/23/23 24/24/24 
f 1/1/1 20/25/20 9/26/9 
f 2/2/2 12/27/12 5/28/5 
f 7/29/7 23/23/23 14/30/14 
f 8/31/8 13/32/13 3/3/3 
f 11/33/11 24/24/24 6/34/6 
f 15/35/15 22/22/22 18/36/18 
f 16/37/16 17/38/17 4/4/4 
f 19/39/19 21/21/21 10/40/10 
f 2/2/2 1/1/1 9/26/9 12/27/12 
f 3/3/3 2/2/2 5/28/5 8/31/8 
f 4/4/4 3/3/3 13/32/13 16/37/16 
f 1/1/1 4/4/4 17/38/17 20/25/20 
f 8/8/8 7/7/7 14/14/14 13/13/13 
f 12/12/12 11/11/11 6/6/6 5/5/5 
f 16/41/16 15/42/15 18/18/18 17/17/17 
f 20/20/20 19/19/19 10/10/10 9/9/9 
f 22/22/22 21/21/21 19/39/19 18/36/18 
f 23/23/23 22/22/22 15/35/15 14/30/14 
f 24/24/24 23/23/23 7/29/7 6/34/6 
f 21/21/21 24/24/24 11/33/11 10/40/10 
# 18 polygons - 8 triangles

