# 3ds Max Wavefront OBJ Exporter v0.99 - (c)2007 guruware
# File Created: 14.01.2026 18:57:36

mtllib LiftProp_VentCover01.mtl

#
# object LiftProp_VentCover01
#

v  -0.4355 -0.0014 -0.0302
v  0.4355 -0.0014 -0.0302
v  0.3989 0.0212 0.0012
v  -0.3989 0.0212 0.0012
v  -0.4355 0.5452 -0.0302
v  -0.3989 0.5226 0.0012
v  0.3989 0.5226 0.0012
v  0.4355 0.5452 -0.0302
v  0.3990 0.0214 0.0309
v  0.3990 0.5224 0.0309
v  -0.3439 0.0564 -0.0319
v  0.3439 0.0564 -0.0319
v  -0.3990 0.0214 0.0309
v  0.3439 0.0564 0.0319
v  -0.3439 0.0564 0.0319
v  -0.3990 0.5224 0.0309
v  -0.3439 0.4874 0.0319
v  0.3439 0.4874 0.0319
v  0.3439 0.4874 -0.0319
v  -0.3439 0.4874 -0.0319
v  -0.3272 0.0674 -0.0250
v  0.3272 0.0674 -0.0250
v  0.3272 0.0674 0.0250
v  -0.3272 0.0674 0.0250
v  -0.3272 0.4764 0.0250
v  0.3272 0.4764 0.0250
v  0.3272 0.4764 -0.0250
v  -0.3272 0.4764 -0.0250
v  -0.3275 0.4766 -0.0111
v  -0.3275 0.0672 -0.0111
v  -0.3275 0.4766 0.0111
v  0.3275 0.4766 0.0111
v  0.3275 0.0672 0.0111
v  -0.3275 0.0672 0.0111
v  0.3275 0.4766 -0.0111
v  0.3275 0.0672 -0.0111
v  -0.3700 0.0532 -0.0086
v  -0.3700 0.4906 -0.0086
v  -0.3700 0.4906 0.0086
v  -0.3700 0.0532 0.0086
v  0.3700 0.4906 0.0086
v  0.3700 0.4906 -0.0086
v  0.3700 0.0532 0.0086
v  0.3700 0.0532 -0.0086
v  -0.3700 0.4384 0.0122
v  -0.3700 0.4137 -0.0120
v  0.3700 0.4137 -0.0120
v  0.3700 0.4384 0.0122
v  -0.3700 0.4604 0.0121
v  0.3700 0.4604 0.0121
v  0.3700 0.4358 -0.0121
v  -0.3700 0.4358 -0.0121
v  -0.3700 0.3719 0.0122
v  -0.3700 0.3472 -0.0120
v  0.3700 0.3472 -0.0120
v  0.3700 0.3719 0.0122
v  -0.3700 0.3939 0.0121
v  0.3700 0.3939 0.0121
v  0.3700 0.3694 -0.0121
v  -0.3700 0.3694 -0.0121
v  -0.3700 0.3054 0.0122
v  -0.3700 0.2807 -0.0120
v  0.3700 0.2807 -0.0120
v  0.3700 0.3054 0.0122
v  -0.3700 0.3274 0.0121
v  0.3700 0.3274 0.0121
v  0.3700 0.3029 -0.0121
v  -0.3700 0.3029 -0.0121
v  -0.3700 0.2389 0.0122
v  -0.3700 0.2143 -0.0120
v  0.3700 0.2143 -0.0120
v  0.3700 0.2389 0.0122
v  -0.3700 0.2610 0.0121
v  0.3700 0.2610 0.0121
v  0.3700 0.2364 -0.0121
v  -0.3700 0.2364 -0.0121
v  -0.3700 0.1724 0.0122
v  -0.3700 0.1478 -0.0120
v  0.3700 0.1478 -0.0120
v  0.3700 0.1724 0.0122
v  -0.3700 0.1945 0.0121
v  0.3700 0.1945 0.0121
v  0.3700 0.1699 -0.0121
v  -0.3700 0.1699 -0.0121
v  -0.3700 0.1060 0.0122
v  -0.3700 0.0813 -0.0120
v  0.3700 0.0813 -0.0120
v  0.3700 0.1060 0.0122
v  -0.3700 0.1280 0.0121
v  0.3700 0.1280 0.0121
v  0.3700 0.1035 -0.0121
v  -0.3700 0.1035 -0.0121
v  -0.3526 0.4805 -0.0348
v  -0.3526 0.4805 -0.0536
v  -0.3495 0.4919 -0.0536
v  -0.3496 0.4919 -0.0348
v  -0.3609 0.4722 -0.0348
v  -0.3609 0.4721 -0.0536
v  -0.3723 0.4691 -0.0348
v  -0.3723 0.4691 -0.0536
v  -0.3837 0.4722 -0.0348
v  -0.3837 0.4721 -0.0536
v  -0.3920 0.4805 -0.0348
v  -0.3921 0.4805 -0.0536
v  -0.3951 0.4919 -0.0348
v  -0.3951 0.4919 -0.0536
v  -0.3920 0.5033 -0.0348
v  -0.3921 0.5033 -0.0536
v  -0.3837 0.5116 -0.0348
v  -0.3837 0.5116 -0.0536
v  -0.3723 0.5146 -0.0348
v  -0.3723 0.5147 -0.0536
v  -0.3609 0.5116 -0.0348
v  -0.3609 0.5116 -0.0536
v  -0.3526 0.5033 -0.0348
v  -0.3526 0.5033 -0.0536
v  -0.3531 0.4919 -0.0311
v  -0.3557 0.4823 -0.0311
v  -0.3557 0.5015 -0.0311
v  -0.3627 0.5085 -0.0311
v  -0.3723 0.5111 -0.0311
v  -0.3819 0.5085 -0.0311
v  -0.3889 0.5015 -0.0311
v  -0.3915 0.4919 -0.0311
v  -0.3889 0.4823 -0.0311
v  -0.3819 0.4753 -0.0311
v  -0.3723 0.4727 -0.0311
v  -0.3627 0.4753 -0.0311
v  -0.3556 0.5015 -0.0265
v  -0.3627 0.5086 -0.0265
v  -0.3531 0.4919 -0.0265
v  -0.3556 0.4823 -0.0265
v  -0.3627 0.4752 -0.0265
v  -0.3723 0.4726 -0.0265
v  -0.3820 0.4752 -0.0265
v  -0.3890 0.4823 -0.0265
v  -0.3916 0.4919 -0.0265
v  -0.3890 0.5015 -0.0265
v  -0.3820 0.5086 -0.0265
v  -0.3723 0.5111 -0.0265
v  -0.3627 0.5086 0.0610
v  -0.3556 0.5015 0.0610
v  -0.3531 0.4919 0.0610
v  -0.3556 0.4823 0.0610
v  -0.3627 0.4752 0.0610
v  -0.3723 0.4726 0.0610
v  -0.3820 0.4752 0.0610
v  -0.3890 0.4823 0.0610
v  -0.3916 0.4919 0.0610
v  -0.3890 0.5015 0.0610
v  -0.3820 0.5086 0.0610
v  -0.3723 0.5111 0.0610
v  -0.3643 0.5058 0.0642
v  -0.3585 0.4999 0.0642
v  -0.3563 0.4919 0.0642
v  -0.3585 0.4839 0.0642
v  -0.3643 0.4780 0.0642
v  -0.3723 0.4759 0.0642
v  -0.3803 0.4780 0.0642
v  -0.3862 0.4839 0.0642
v  -0.3883 0.4919 0.0642
v  -0.3862 0.4999 0.0642
v  -0.3803 0.5058 0.0642
v  -0.3723 0.5079 0.0642
v  -0.3723 0.4919 0.0642
v  -0.3512 0.4919 -0.0552
v  -0.3540 0.4813 -0.0552
v  -0.3723 0.4919 -0.0552
v  -0.3618 0.4736 -0.0552
v  -0.3723 0.4708 -0.0552
v  -0.3829 0.4736 -0.0552
v  -0.3906 0.4813 -0.0552
v  -0.3934 0.4919 -0.0552
v  -0.3906 0.5024 -0.0552
v  -0.3829 0.5102 -0.0552
v  -0.3723 0.5130 -0.0552
v  -0.3618 0.5102 -0.0552
v  -0.3540 0.5024 -0.0552
v  -0.3506 0.0360 -0.0348
v  -0.3505 0.0360 -0.0536
v  -0.3475 0.0474 -0.0536
v  -0.3475 0.0474 -0.0348
v  -0.3589 0.0277 -0.0348
v  -0.3589 0.0277 -0.0536
v  -0.3703 0.0247 -0.0348
v  -0.3703 0.0246 -0.0536
v  -0.3817 0.0277 -0.0348
v  -0.3817 0.0277 -0.0536
v  -0.3900 0.0360 -0.0348
v  -0.3900 0.0360 -0.0536
v  -0.3930 0.0474 -0.0348
v  -0.3931 0.0474 -0.0536
v  -0.3900 0.0588 -0.0348
v  -0.3900 0.0588 -0.0536
v  -0.3817 0.0671 -0.0348
v  -0.3817 0.0672 -0.0536
v  -0.3703 0.0702 -0.0348
v  -0.3703 0.0702 -0.0536
v  -0.3589 0.0671 -0.0348
v  -0.3589 0.0672 -0.0536
v  -0.3506 0.0588 -0.0348
v  -0.3505 0.0588 -0.0536
v  -0.3511 0.0474 -0.0311
v  -0.3537 0.0378 -0.0311
v  -0.3537 0.0570 -0.0311
v  -0.3607 0.0640 -0.0311
v  -0.3703 0.0666 -0.0311
v  -0.3799 0.0640 -0.0311
v  -0.3869 0.0570 -0.0311
v  -0.3895 0.0474 -0.0311
v  -0.3869 0.0378 -0.0311
v  -0.3799 0.0308 -0.0311
v  -0.3703 0.0282 -0.0311
v  -0.3607 0.0308 -0.0311
v  -0.3536 0.0570 -0.0265
v  -0.3606 0.0641 -0.0265
v  -0.3510 0.0474 -0.0265
v  -0.3536 0.0378 -0.0265
v  -0.3606 0.0307 -0.0265
v  -0.3703 0.0281 -0.0265
v  -0.3799 0.0307 -0.0265
v  -0.3870 0.0378 -0.0265
v  -0.3895 0.0474 -0.0265
v  -0.3870 0.0570 -0.0265
v  -0.3799 0.0641 -0.0265
v  -0.3703 0.0667 -0.0265
v  -0.3606 0.0641 0.0610
v  -0.3536 0.0570 0.0610
v  -0.3510 0.0474 0.0610
v  -0.3536 0.0378 0.0610
v  -0.3606 0.0307 0.0610
v  -0.3703 0.0281 0.0610
v  -0.3799 0.0307 0.0610
v  -0.3870 0.0378 0.0610
v  -0.3895 0.0474 0.0610
v  -0.3870 0.0570 0.0610
v  -0.3799 0.0641 0.0610
v  -0.3703 0.0667 0.0610
v  -0.3623 0.0613 0.0642
v  -0.3564 0.0554 0.0642
v  -0.3543 0.0474 0.0642
v  -0.3564 0.0394 0.0642
v  -0.3623 0.0335 0.0642
v  -0.3703 0.0314 0.0642
v  -0.3783 0.0335 0.0642
v  -0.3841 0.0394 0.0642
v  -0.3863 0.0474 0.0642
v  -0.3841 0.0554 0.0642
v  -0.3783 0.0613 0.0642
v  -0.3703 0.0634 0.0642
v  -0.3703 0.0474 0.0642
v  -0.3492 0.0474 -0.0552
v  -0.3520 0.0368 -0.0552
v  -0.3703 0.0474 -0.0552
v  -0.3597 0.0291 -0.0552
v  -0.3703 0.0263 -0.0552
v  -0.3808 0.0291 -0.0552
v  -0.3886 0.0368 -0.0552
v  -0.3914 0.0474 -0.0552
v  -0.3886 0.0580 -0.0552
v  -0.3808 0.0657 -0.0552
v  -0.3703 0.0685 -0.0552
v  -0.3597 0.0657 -0.0552
v  -0.3520 0.0580 -0.0552
v  0.3526 0.4805 -0.0348
v  0.3496 0.4919 -0.0348
v  0.3495 0.4919 -0.0536
v  0.3526 0.4805 -0.0536
v  0.3609 0.4722 -0.0348
v  0.3609 0.4721 -0.0536
v  0.3723 0.4691 -0.0348
v  0.3723 0.4691 -0.0536
v  0.3837 0.4722 -0.0348
v  0.3837 0.4721 -0.0536
v  0.3920 0.4805 -0.0348
v  0.3921 0.4805 -0.0536
v  0.3951 0.4919 -0.0348
v  0.3951 0.4919 -0.0536
v  0.3920 0.5033 -0.0348
v  0.3921 0.5033 -0.0536
v  0.3837 0.5116 -0.0348
v  0.3837 0.5116 -0.0536
v  0.3723 0.5146 -0.0348
v  0.3723 0.5147 -0.0536
v  0.3609 0.5116 -0.0348
v  0.3609 0.5116 -0.0536
v  0.3526 0.5033 -0.0348
v  0.3526 0.5033 -0.0536
v  0.3557 0.4823 -0.0311
v  0.3531 0.4919 -0.0311
v  0.3557 0.5015 -0.0311
v  0.3627 0.5085 -0.0311
v  0.3723 0.5111 -0.0311
v  0.3819 0.5085 -0.0311
v  0.3889 0.5015 -0.0311
v  0.3915 0.4919 -0.0311
v  0.3889 0.4823 -0.0311
v  0.3819 0.4753 -0.0311
v  0.3723 0.4727 -0.0311
v  0.3627 0.4753 -0.0311
v  0.3556 0.5015 -0.0265
v  0.3627 0.5086 -0.0265
v  0.3531 0.4919 -0.0265
v  0.3556 0.4823 -0.0265
v  0.3627 0.4752 -0.0265
v  0.3723 0.4726 -0.0265
v  0.3820 0.4752 -0.0265
v  0.3890 0.4823 -0.0265
v  0.3916 0.4919 -0.0265
v  0.3890 0.5015 -0.0265
v  0.3820 0.5086 -0.0265
v  0.3723 0.5111 -0.0265
v  0.3556 0.5015 0.0610
v  0.3627 0.5086 0.0610
v  0.3531 0.4919 0.0610
v  0.3556 0.4823 0.0610
v  0.3627 0.4752 0.0610
v  0.3723 0.4726 0.0610
v  0.3820 0.4752 0.0610
v  0.3890 0.4823 0.0610
v  0.3916 0.4919 0.0610
v  0.3890 0.5015 0.0610
v  0.3820 0.5086 0.0610
v  0.3723 0.5111 0.0610
v  0.3585 0.4999 0.0642
v  0.3643 0.5058 0.0642
v  0.3563 0.4919 0.0642
v  0.3585 0.4839 0.0642
v  0.3643 0.4780 0.0642
v  0.3723 0.4759 0.0642
v  0.3803 0.4780 0.0642
v  0.3862 0.4839 0.0642
v  0.3883 0.4919 0.0642
v  0.3862 0.4999 0.0642
v  0.3803 0.5058 0.0642
v  0.3723 0.5079 0.0642
v  0.3723 0.4919 0.0642
v  0.3512 0.4919 -0.0552
v  0.3723 0.4919 -0.0552
v  0.3540 0.4813 -0.0552
v  0.3618 0.4736 -0.0552
v  0.3723 0.4708 -0.0552
v  0.3829 0.4736 -0.0552
v  0.3906 0.4813 -0.0552
v  0.3934 0.4919 -0.0552
v  0.3906 0.5024 -0.0552
v  0.3829 0.5102 -0.0552
v  0.3723 0.5130 -0.0552
v  0.3618 0.5102 -0.0552
v  0.3540 0.5024 -0.0552
v  0.3506 0.0360 -0.0348
v  0.3475 0.0474 -0.0348
v  0.3475 0.0474 -0.0536
v  0.3505 0.0360 -0.0536
v  0.3589 0.0277 -0.0348
v  0.3589 0.0277 -0.0536
v  0.3703 0.0247 -0.0348
v  0.3703 0.0246 -0.0536
v  0.3817 0.0277 -0.0348
v  0.3817 0.0277 -0.0536
v  0.3900 0.0360 -0.0348
v  0.3900 0.0360 -0.0536
v  0.3930 0.0474 -0.0348
v  0.3931 0.0474 -0.0536
v  0.3900 0.0588 -0.0348
v  0.3900 0.0588 -0.0536
v  0.3817 0.0671 -0.0348
v  0.3817 0.0672 -0.0536
v  0.3703 0.0702 -0.0348
v  0.3703 0.0702 -0.0536
v  0.3589 0.0671 -0.0348
v  0.3589 0.0672 -0.0536
v  0.3506 0.0588 -0.0348
v  0.3505 0.0588 -0.0536
v  0.3537 0.0378 -0.0311
v  0.3511 0.0474 -0.0311
v  0.3537 0.0570 -0.0311
v  0.3607 0.0640 -0.0311
v  0.3703 0.0666 -0.0311
v  0.3799 0.0640 -0.0311
v  0.3869 0.0570 -0.0311
v  0.3895 0.0474 -0.0311
v  0.3869 0.0378 -0.0311
v  0.3799 0.0308 -0.0311
v  0.3703 0.0282 -0.0311
v  0.3607 0.0308 -0.0311
v  0.3536 0.0570 -0.0265
v  0.3606 0.0641 -0.0265
v  0.3510 0.0474 -0.0265
v  0.3536 0.0378 -0.0265
v  0.3606 0.0307 -0.0265
v  0.3703 0.0281 -0.0265
v  0.3799 0.0307 -0.0265
v  0.3870 0.0378 -0.0265
v  0.3895 0.0474 -0.0265
v  0.3870 0.0570 -0.0265
v  0.3799 0.0641 -0.0265
v  0.3703 0.0667 -0.0265
v  0.3536 0.0570 0.0610
v  0.3606 0.0641 0.0610
v  0.3510 0.0474 0.0610
v  0.3536 0.0378 0.0610
v  0.3606 0.0307 0.0610
v  0.3703 0.0281 0.0610
v  0.3799 0.0307 0.0610
v  0.3870 0.0378 0.0610
v  0.3895 0.0474 0.0610
v  0.3870 0.0570 0.0610
v  0.3799 0.0641 0.0610
v  0.3703 0.0667 0.0610
v  0.3564 0.0554 0.0642
v  0.3623 0.0613 0.0642
v  0.3543 0.0474 0.0642
v  0.3564 0.0394 0.0642
v  0.3623 0.0335 0.0642
v  0.3703 0.0314 0.0642
v  0.3783 0.0335 0.0642
v  0.3841 0.0394 0.0642
v  0.3863 0.0474 0.0642
v  0.3841 0.0554 0.0642
v  0.3783 0.0613 0.0642
v  0.3703 0.0634 0.0642
v  0.3703 0.0474 0.0642
v  0.3492 0.0474 -0.0552
v  0.3703 0.0474 -0.0552
v  0.3520 0.0368 -0.0552
v  0.3597 0.0291 -0.0552
v  0.3703 0.0263 -0.0552
v  0.3808 0.0291 -0.0552
v  0.3886 0.0368 -0.0552
v  0.3914 0.0474 -0.0552
v  0.3886 0.0580 -0.0552
v  0.3808 0.0657 -0.0552
v  0.3703 0.0685 -0.0552
v  0.3597 0.0657 -0.0552
v  0.3520 0.0580 -0.0552
# 436 vertices

vn -0.7256 -0.6497 -0.2266
vn 0.7256 -0.6497 -0.2266
vn 0.5378 -0.6472 0.5403
vn -0.5378 -0.6472 0.5403
vn -0.7256 0.6497 -0.2266
vn -0.5378 0.6472 0.5403
vn 0.5378 0.6472 0.5403
vn 0.7256 0.6497 -0.2266
vn 0.5809 -0.5773 0.5738
vn 0.5809 0.5773 0.5738
vn 0.0557 0.0436 -0.9975
vn -0.0557 0.0436 -0.9975
vn -0.5809 -0.5773 0.5738
vn -0.0563 0.0449 0.9974
vn 0.0563 0.0449 0.9974
vn -0.5809 0.5773 0.5738
vn 0.0563 -0.0449 0.9974
vn -0.0563 -0.0449 0.9974
vn -0.0557 -0.0436 -0.9975
vn 0.0557 -0.0436 -0.9975
vn 0.4350 0.5268 -0.7303
vn -0.4350 0.5268 -0.7303
vn -0.4350 0.5268 0.7303
vn 0.4350 0.5268 0.7303
vn 0.4350 -0.5268 0.7303
vn -0.4350 -0.5268 0.7303
vn -0.4350 -0.5268 -0.7303
vn 0.4350 -0.5268 -0.7303
vn 0.3078 -0.3806 0.8720
vn 0.3078 0.3806 0.8720
vn 0.3078 -0.3806 -0.8720
vn -0.3078 -0.3806 -0.8720
vn -0.3078 0.3806 -0.8720
vn 0.3078 0.3806 -0.8720
vn -0.3078 -0.3806 0.8720
vn -0.3078 0.3806 0.8720
vn 0.5884 0.5823 0.5610
vn 0.5884 -0.5823 0.5610
vn 0.5884 -0.5823 -0.5610
vn 0.5884 0.5823 -0.5610
vn -0.5884 -0.5823 -0.5610
vn -0.5884 -0.5823 0.5610
vn -0.5884 0.5823 -0.5610
vn -0.5884 0.5823 0.5610
vn 0.0000 -0.3762 0.9266
vn 0.0000 -0.9265 -0.3762
vn 0.0000 0.9261 0.3774
vn 0.0000 0.3774 -0.9261
vn 0.0000 0.9260 0.3776
vn 0.0000 0.3773 -0.9261
vn 0.8091 -0.4671 0.3566
vn 0.8055 -0.4651 -0.3673
vn 0.9301 0.0000 -0.3673
vn 0.9342 0.0000 0.3566
vn 0.4671 -0.8091 0.3566
vn 0.4651 -0.8055 -0.3673
vn -0.0000 -0.9342 0.3566
vn -0.0000 -0.9301 -0.3673
vn -0.4671 -0.8091 0.3566
vn -0.4650 -0.8055 -0.3673
vn -0.8091 -0.4671 0.3566
vn -0.8055 -0.4650 -0.3673
vn -0.9342 -0.0000 0.3566
vn -0.9301 -0.0000 -0.3673
vn -0.8091 0.4671 0.3566
vn -0.8055 0.4651 -0.3673
vn -0.4671 0.8091 0.3566
vn -0.4650 0.8055 -0.3673
vn 0.0000 0.9342 0.3566
vn 0.0000 0.9301 -0.3673
vn 0.4671 0.8091 0.3566
vn 0.4651 0.8055 -0.3673
vn 0.8091 0.4671 0.3566
vn 0.8055 0.4651 -0.3673
vn 0.9204 -0.0000 0.3910
vn 0.7971 -0.4602 0.3910
vn 0.7971 0.4602 0.3910
vn 0.4602 0.7971 0.3910
vn 0.0000 0.9204 0.3910
vn -0.4602 0.7971 0.3910
vn -0.7971 0.4602 0.3910
vn -0.9204 0.0000 0.3910
vn -0.7971 -0.4602 0.3910
vn -0.4602 -0.7971 0.3910
vn -0.0000 -0.9204 0.3910
vn 0.4602 -0.7971 0.3910
vn 0.8660 0.5000 -0.0083
vn 0.5000 0.8660 -0.0083
vn 1.0000 -0.0000 -0.0083
vn 0.8660 -0.5000 -0.0083
vn 0.5000 -0.8660 -0.0083
vn -0.0000 -1.0000 -0.0083
vn -0.5000 -0.8660 -0.0083
vn -0.8660 -0.5000 -0.0083
vn -1.0000 -0.0000 -0.0083
vn -0.8660 0.5000 -0.0083
vn -0.5000 0.8660 -0.0083
vn 0.0000 1.0000 -0.0083
vn 0.4653 0.8058 0.3663
vn 0.8059 0.4652 0.3662
vn 0.9305 -0.0000 0.3663
vn 0.8058 -0.4653 0.3663
vn 0.4653 -0.8058 0.3663
vn -0.0000 -0.9305 0.3663
vn -0.4653 -0.8058 0.3663
vn -0.8058 -0.4653 0.3663
vn -0.9305 -0.0000 0.3663
vn -0.8059 0.4652 0.3663
vn -0.4652 0.8058 0.3663
vn 0.0000 0.9305 0.3663
vn 0.2147 0.3718 0.9032
vn 0.3718 0.2147 0.9032
vn 0.4293 0.0000 0.9032
vn 0.3718 -0.2147 0.9032
vn 0.2147 -0.3718 0.9032
vn -0.0000 -0.4293 0.9032
vn -0.2147 -0.3718 0.9032
vn -0.3718 -0.2147 0.9032
vn -0.4293 -0.0000 0.9032
vn -0.3718 0.2147 0.9032
vn -0.2147 0.3718 0.9032
vn 0.0000 0.4293 0.9032
vn -0.0000 0.0000 1.0000
vn 0.4264 0.0000 -0.9045
vn 0.3693 -0.2132 -0.9045
vn -0.0000 0.0000 -1.0000
vn 0.2132 -0.3693 -0.9045
vn -0.0000 -0.4264 -0.9045
vn -0.2132 -0.3693 -0.9045
vn -0.3693 -0.2132 -0.9045
vn -0.4264 -0.0000 -0.9045
vn -0.3693 0.2132 -0.9045
vn -0.2132 0.3693 -0.9045
vn -0.0000 0.4264 -0.9045
vn 0.2132 0.3693 -0.9045
vn 0.3693 0.2132 -0.9045
vn 0.0000 -0.9301 -0.3673
vn -0.4651 -0.8055 -0.3673
vn -0.9342 0.0000 0.3566
vn -0.0000 0.9342 0.3566
vn 0.4650 0.8055 -0.3673
vn -0.0000 0.9204 0.3910
vn 1.0000 0.0000 -0.0083
vn -1.0000 0.0000 -0.0083
vn -0.0000 1.0000 -0.0083
vn 0.8058 0.4653 0.3663
vn 0.9305 0.0000 0.3663
vn 0.8058 -0.4653 0.3662
vn 0.4652 -0.8058 0.3663
vn -0.4652 -0.8058 0.3663
vn -0.8058 -0.4653 0.3662
vn -0.8058 0.4653 0.3663
vn -0.4653 0.8058 0.3663
vn -0.0000 0.9305 0.3663
vn -0.4293 0.0000 0.9032
vn -0.0000 0.4293 0.9032
vn 0.4264 -0.0000 -0.9045
vn -0.0000 -0.0000 -1.0000
vn 0.0000 -0.4264 -0.9045
vn 0.0000 0.4264 -0.9045
vn -0.9301 0.0000 -0.3673
vn -0.8055 -0.4651 -0.3673
vn 0.0000 -0.9342 0.3566
vn 0.4650 -0.8055 -0.3673
vn 0.8055 -0.4650 -0.3673
vn 0.9342 -0.0000 0.3566
vn 0.9301 -0.0000 -0.3673
vn -0.4651 0.8055 -0.3673
vn -0.9204 -0.0000 0.3910
vn 0.9204 0.0000 0.3910
vn 0.0000 -0.9204 0.3910
vn 0.0000 -1.0000 -0.0083
vn -0.8059 0.4652 0.3662
vn 0.0000 -0.9305 0.3663
vn 0.8059 0.4652 0.3663
vn 0.4652 0.8058 0.3663
vn 0.0000 -0.4293 0.9032
vn 0.4293 -0.0000 0.9032
vn 0.0000 0.0000 1.0000
vn -0.4264 0.0000 -0.9045
vn 0.0000 0.0000 -1.0000
vn -0.9305 0.0000 0.3663
vn 0.0000 -0.0000 -1.0000
# 183 vertex normals

vt 0.0050 0.6556 0.0000
vt 0.4544 0.6556 0.0000
vt 0.4355 0.6756 0.0000
vt 0.0238 0.6756 0.0000
vt 0.0047 0.6550 0.0000
vt 0.0237 0.6350 0.0000
vt 0.4354 0.6350 0.0000
vt 0.4541 0.6550 0.0000
vt 0.0017 0.9956 0.0000
vt 0.0137 0.9707 0.0000
vt 0.2724 0.9707 0.0000
vt 0.2838 0.9956 0.0000
vt 0.5604 0.9554 0.0000
vt 0.5604 0.9707 0.0000
vt 0.3017 0.9707 0.0000
vt 0.3018 0.9554 0.0000
vt 0.4541 0.7902 0.0000
vt 0.0047 0.7902 0.0000
vt 0.0520 0.7603 0.0000
vt 0.4069 0.7603 0.0000
vt 0.0237 0.6909 0.0000
vt 0.4355 0.6909 0.0000
vt 0.4070 0.7090 0.0000
vt 0.0521 0.7090 0.0000
vt 0.4355 0.6197 0.0000
vt 0.0237 0.6197 0.0000
vt 0.0522 0.6016 0.0000
vt 0.4071 0.6016 0.0000
vt 0.0054 0.5204 0.0000
vt 0.4548 0.5204 0.0000
vt 0.4074 0.5503 0.0000
vt 0.0525 0.5503 0.0000
vt 0.2725 0.9554 0.0000
vt 0.0139 0.9554 0.0000
vt 0.0323 0.9269 0.0000
vt 0.2547 0.9269 0.0000
vt 0.0040 0.7938 0.0000
vt 0.2861 0.7938 0.0000
vt 0.2557 0.8411 0.0000
vt 0.0333 0.8411 0.0000
vt 0.3200 0.9269 0.0000
vt 0.5424 0.9269 0.0000
vt 0.2906 0.7938 0.0000
vt 0.5726 0.7938 0.0000
vt 0.5426 0.8411 0.0000
vt 0.3203 0.8411 0.0000
vt 0.0607 0.7536 0.0000
vt 0.3983 0.7536 0.0000
vt 0.3984 0.7157 0.0000
vt 0.0607 0.7157 0.0000
vt 0.0609 0.5949 0.0000
vt 0.3986 0.5949 0.0000
vt 0.3988 0.5570 0.0000
vt 0.0611 0.5570 0.0000
vt 0.0381 0.9176 0.0000
vt 0.2491 0.9176 0.0000
vt 0.2499 0.8504 0.0000
vt 0.0389 0.8504 0.0000
vt 0.3257 0.9176 0.0000
vt 0.5367 0.9176 0.0000
vt 0.5369 0.8504 0.0000
vt 0.3259 0.8504 0.0000
vt 0.2500 0.8576 0.0000
vt 0.0387 0.8576 0.0000
vt 0.0608 0.5877 0.0000
vt 0.3987 0.5877 0.0000
vt 0.3256 0.9105 0.0000
vt 0.5369 0.9105 0.0000
vt 0.3985 0.7229 0.0000
vt 0.0606 0.7229 0.0000
vt 0.2494 0.9105 0.0000
vt 0.0381 0.9105 0.0000
vt 0.0609 0.5642 0.0000
vt 0.3989 0.5642 0.0000
vt 0.3258 0.8576 0.0000
vt 0.5371 0.8576 0.0000
vt 0.3985 0.7464 0.0000
vt 0.0605 0.7464 0.0000
vt 0.0312 0.8796 0.0000
vt 0.2569 0.8796 0.0000
vt 0.2568 0.8884 0.0000
vt 0.0311 0.8884 0.0000
vt 0.4207 0.5804 0.0000
vt 0.0389 0.5804 0.0000
vt 0.0389 0.5715 0.0000
vt 0.4208 0.5715 0.0000
vt 0.5442 0.8884 0.0000
vt 0.3184 0.8884 0.0000
vt 0.3185 0.8796 0.0000
vt 0.5442 0.8796 0.0000
vt 0.0386 0.7302 0.0000
vt 0.4205 0.7302 0.0000
vt 0.4205 0.7391 0.0000
vt 0.0386 0.7391 0.0000
vt 0.5720 0.9956 0.0000
vt 0.2900 0.9956 0.0000
vt 0.0000 0.2861 0.0000
vt 0.0000 0.2599 0.0000
vt 0.5614 0.2599 0.0000
vt 0.5614 0.2861 0.0000
vt 0.0000 0.3028 0.0000
vt 0.5614 0.3028 0.0000
vt 0.5614 0.3289 0.0000
vt 0.0000 0.3289 0.0000
vt 0.5614 0.3457 0.0000
vt 0.0000 0.3457 0.0000
vt 0.0000 0.0262 0.0000
vt 0.0000 0.0000 0.0000
vt 0.5614 0.0000 0.0000
vt 0.5614 0.0262 0.0000
vt 0.0000 0.0429 0.0000
vt 0.5614 0.0429 0.0000
vt 0.5614 0.0690 0.0000
vt 0.0000 0.0690 0.0000
vt 0.5614 0.0859 0.0000
vt 0.0000 0.0859 0.0000
vt 0.0000 0.1994 0.0000
vt 0.0000 0.1732 0.0000
vt 0.5614 0.1732 0.0000
vt 0.5614 0.1994 0.0000
vt 0.0000 0.2162 0.0000
vt 0.5614 0.2162 0.0000
vt 0.5614 0.2423 0.0000
vt 0.0000 0.2423 0.0000
vt 0.5614 0.2591 0.0000
vt 0.0000 0.2591 0.0000
vt 0.0000 0.1128 0.0000
vt 0.0000 0.0866 0.0000
vt 0.5614 0.0866 0.0000
vt 0.5614 0.1128 0.0000
vt 0.0000 0.1295 0.0000
vt 0.5614 0.1295 0.0000
vt 0.5614 0.1557 0.0000
vt 0.0000 0.1557 0.0000
vt 0.5614 0.1725 0.0000
vt 0.0000 0.1725 0.0000
vt 0.0000 0.3727 0.0000
vt 0.0000 0.3465 0.0000
vt 0.5614 0.3465 0.0000
vt 0.5614 0.3727 0.0000
vt 0.0000 0.3894 0.0000
vt 0.5614 0.3894 0.0000
vt 0.5614 0.4155 0.0000
vt 0.0000 0.4155 0.0000
vt 0.5614 0.4323 0.0000
vt 0.0000 0.4323 0.0000
vt 0.0000 0.4593 0.0000
vt 0.0000 0.4331 0.0000
vt 0.5614 0.4331 0.0000
vt 0.5614 0.4593 0.0000
vt 0.0000 0.4760 0.0000
vt 0.5614 0.4760 0.0000
vt 0.5614 0.5022 0.0000
vt 0.0000 0.5022 0.0000
vt 0.5614 0.5190 0.0000
vt 0.0000 0.5190 0.0000
vt 0.5489 0.7566 0.0000
vt 0.5490 0.7813 0.0000
vt 0.5344 0.7811 0.0000
vt 0.5350 0.7564 0.0000
vt 0.5629 0.7566 0.0000
vt 0.5636 0.7813 0.0000
vt 0.5769 0.7563 0.0000
vt 0.5784 0.7809 0.0000
vt 0.5910 0.7556 0.0000
vt 0.5933 0.7801 0.0000
vt 0.6052 0.7545 0.0000
vt 0.6085 0.7788 0.0000
vt 0.6199 0.7522 0.0000
vt 0.6237 0.7767 0.0000
vt 0.4649 0.7512 0.0000
vt 0.4604 0.7751 0.0000
vt 0.4453 0.7722 0.0000
vt 0.4502 0.7483 0.0000
vt 0.4791 0.7530 0.0000
vt 0.4755 0.7773 0.0000
vt 0.4931 0.7543 0.0000
vt 0.4905 0.7789 0.0000
vt 0.5071 0.7553 0.0000
vt 0.5052 0.7799 0.0000
vt 0.5210 0.7559 0.0000
vt 0.5198 0.7806 0.0000
vt 0.5351 0.7497 0.0000
vt 0.5489 0.7500 0.0000
vt 0.5213 0.7493 0.0000
vt 0.5076 0.7486 0.0000
vt 0.4938 0.7477 0.0000
vt 0.4801 0.7464 0.0000
vt 0.4666 0.7448 0.0000
vt 0.4535 0.7424 0.0000
vt 0.6038 0.7481 0.0000
vt 0.6169 0.7464 0.0000
vt 0.5901 0.7491 0.0000
vt 0.5764 0.7496 0.0000
vt 0.5627 0.7499 0.0000
vt 0.5216 0.7433 0.0000
vt 0.5080 0.7426 0.0000
vt 0.5352 0.7437 0.0000
vt 0.5489 0.7439 0.0000
vt 0.5625 0.7439 0.0000
vt 0.5760 0.7436 0.0000
vt 0.5895 0.7430 0.0000
vt 0.6028 0.7422 0.0000
vt 0.6159 0.7412 0.0000
vt 0.4679 0.7389 0.0000
vt 0.4548 0.7374 0.0000
vt 0.4811 0.7404 0.0000
vt 0.4945 0.7416 0.0000
vt 0.5126 0.6477 0.0000
vt 0.5250 0.6483 0.0000
vt 0.5374 0.6486 0.0000
vt 0.5498 0.6488 0.0000
vt 0.5622 0.6488 0.0000
vt 0.5746 0.6486 0.0000
vt 0.5871 0.6482 0.0000
vt 0.5997 0.6476 0.0000
vt 0.6125 0.6467 0.0000
vt 0.4624 0.6436 0.0000
vt 0.4752 0.6450 0.0000
vt 0.4877 0.6461 0.0000
vt 0.5002 0.6470 0.0000
vt 0.5129 0.6419 0.0000
vt 0.5251 0.6424 0.0000
vt 0.5374 0.6428 0.0000
vt 0.5498 0.6429 0.0000
vt 0.5621 0.6429 0.0000
vt 0.5743 0.6427 0.0000
vt 0.5865 0.6424 0.0000
vt 0.5985 0.6419 0.0000
vt 0.6098 0.6409 0.0000
vt 0.4654 0.6377 0.0000
vt 0.4766 0.6393 0.0000
vt 0.4885 0.6403 0.0000
vt 0.5006 0.6412 0.0000
vt 0.5199 0.6220 0.0000
vt 0.5319 0.6224 0.0000
vt 0.5439 0.6226 0.0000
vt 0.5559 0.6227 0.0000
vt 0.5679 0.6226 0.0000
vt 0.5799 0.6224 0.0000
vt 0.5917 0.6220 0.0000
vt 0.6023 0.6213 0.0000
vt 0.4738 0.6185 0.0000
vt 0.4843 0.6197 0.0000
vt 0.4960 0.6206 0.0000
vt 0.5079 0.6214 0.0000
vt 0.2798 0.9390 0.0000
vt 0.2665 0.9314 0.0000
vt 0.2875 0.9104 0.0000
vt 0.2589 0.9181 0.0000
vt 0.2589 0.9028 0.0000
vt 0.2665 0.8895 0.0000
vt 0.2798 0.8818 0.0000
vt 0.2951 0.8818 0.0000
vt 0.3084 0.8895 0.0000
vt 0.3161 0.9028 0.0000
vt 0.3161 0.9181 0.0000
vt 0.3084 0.9314 0.0000
vt 0.2951 0.9390 0.0000
vt 0.2790 0.9422 0.0000
vt 0.2642 0.9337 0.0000
vt 0.2557 0.9190 0.0000
vt 0.2557 0.9019 0.0000
vt 0.2642 0.8872 0.0000
vt 0.2789 0.8786 0.0000
vt 0.2960 0.8786 0.0000
vt 0.3108 0.8872 0.0000
vt 0.3193 0.9019 0.0000
vt 0.3193 0.9190 0.0000
vt 0.3108 0.9337 0.0000
vt 0.2960 0.9422 0.0000
# 271 texture coords

o LiftProp_VentCover01
g LiftProp_VentCover01
usemtl LiftProp_VentCover01
s 1
f 1/1/1 2/2/2 3/3/3 4/4/4 
f 5/5/5 6/6/6 7/7/7 8/8/8 
s 2
f 1/9/1 4/10/4 6/11/6 5/12/5 
f 9/13/9 3/14/3 7/15/7 10/16/10 
s 4
f 2/17/2 1/18/1 11/19/11 12/20/12 
f 13/21/13 9/22/9 14/23/14 15/24/15 
f 10/25/10 16/26/16 17/27/17 18/28/18 
f 5/29/5 8/30/8 19/31/19 20/32/20 
f 16/33/16 13/34/13 15/35/15 17/36/17 
f 1/37/1 5/38/5 20/39/20 11/40/11 
f 9/13/9 10/16/10 18/41/18 14/42/14 
f 8/43/8 2/44/2 12/45/12 19/46/19 
s 1
f 12/20/12 11/19/11 21/47/21 22/48/22 
f 15/24/15 14/23/14 23/49/23 24/50/24 
f 18/28/18 17/27/17 25/51/25 26/52/26 
f 20/32/20 19/31/19 27/53/27 28/54/28 
s 2
f 17/36/17 15/35/15 24/55/24 25/56/25 
f 11/40/11 20/39/20 28/57/28 21/58/21 
f 14/42/14 18/41/18 26/59/26 23/60/23 
f 19/46/19 12/45/12 22/61/22 27/62/27 
f 21/58/21 28/57/28 29/63/29 30/64/30 
s 1
f 26/52/26 25/51/25 31/65/31 32/66/32 
s 2
f 23/60/23 26/59/26 32/67/32 33/68/33 
s 1
f 24/50/24 23/49/23 33/69/33 34/70/34 
s 2
f 31/71/31 25/56/25 24/55/24 34/72/34 
s 1
f 29/73/29 28/54/28 27/53/27 35/74/35 
s 2
f 35/75/35 27/62/27 22/61/22 36/76/36 
s 1
f 36/77/36 22/48/22 21/47/21 30/78/30 
s 2
f 37/79/37 38/80/38 39/81/39 40/82/40 
s 1
f 41/83/41 39/84/39 38/85/38 42/86/42 
s 2
f 43/87/43 41/88/41 42/89/42 44/90/44 
s 1
f 40/91/40 43/92/43 44/93/44 37/94/37 
s off
f 30/64/30 29/63/29 38/80/38 37/79/37 
f 29/73/29 35/74/35 42/86/42 38/85/38 
f 35/75/35 36/76/36 44/90/44 42/89/42 
f 36/77/36 30/78/30 37/94/37 44/93/44 
f 32/66/32 31/65/31 39/84/39 41/83/41 
f 31/71/31 34/72/34 40/82/40 39/81/39 
f 34/70/34 33/69/33 43/92/43 40/91/40 
f 33/68/33 32/67/32 41/88/41 43/87/43 
s 1
f 3/3/3 9/22/9 13/21/13 4/4/4 
f 6/6/6 16/26/16 10/25/10 7/7/7 
s 2
f 4/10/4 13/34/13 16/33/16 6/11/6 
f 3/14/3 2/95/2 8/96/8 7/15/7 
f 45/97/45 46/98/46 47/99/46 48/100/45 
s 4
f 49/101/47 50/102/47 51/103/48 52/104/48 
s 8
f 45/97/45 48/100/45 50/102/47 49/101/47 
s 32
f 47/105/46 46/106/46 52/104/48 51/103/48 
s 2
f 53/107/45 54/108/46 55/109/46 56/110/45 
s 4
f 57/111/47 58/112/47 59/113/48 60/114/48 
s 8
f 53/107/45 56/110/45 58/112/47 57/111/47 
s 32
f 55/115/46 54/116/46 60/114/48 59/113/48 
s 2
f 61/117/45 62/118/46 63/119/46 64/120/45 
s 4
f 65/121/47 66/122/47 67/123/48 68/124/48 
s 8
f 61/117/45 64/120/45 66/122/47 65/121/47 
s 32
f 63/125/46 62/126/46 68/124/48 67/123/48 
s 2
f 69/127/45 70/128/46 71/129/46 72/130/45 
s 4
f 73/131/47 74/132/47 75/133/48 76/134/48 
s 8
f 69/127/45 72/130/45 74/132/47 73/131/47 
s 32
f 71/135/46 70/136/46 76/134/48 75/133/48 
s 2
f 77/137/45 78/138/46 79/139/46 80/140/45 
s 4
f 81/141/49 82/142/49 83/143/50 84/144/50 
s 8
f 77/137/45 80/140/45 82/142/49 81/141/49 
s 32
f 79/145/46 78/146/46 84/144/50 83/143/50 
s 2
f 85/147/45 86/148/46 87/149/46 88/150/45 
s 4
f 89/151/47 90/152/47 91/153/48 92/154/48 
s 8
f 85/147/45 88/150/45 90/152/47 89/151/47 
s 32
f 87/155/46 86/156/46 92/154/48 91/153/48 
s 1
f 93/157/51 94/158/52 95/159/53 96/160/54 
f 97/161/55 98/162/56 94/158/52 93/157/51 
f 99/163/57 100/164/58 98/162/56 97/161/55 
f 101/165/59 102/166/60 100/164/58 99/163/57 
f 103/167/61 104/168/62 102/166/60 101/165/59 
f 105/169/63 106/170/64 104/168/62 103/167/61 
f 107/171/65 108/172/66 106/173/64 105/174/63 
f 109/175/67 110/176/68 108/172/66 107/171/65 
f 111/177/69 112/178/70 110/176/68 109/175/67 
f 113/179/71 114/180/72 112/178/70 111/177/69 
f 115/181/73 116/182/74 114/180/72 113/179/71 
f 96/160/54 95/159/53 116/182/74 115/181/73 
s 2
f 93/157/51 96/160/54 117/183/75 118/184/76 
f 96/160/54 115/181/73 119/185/77 117/183/75 
f 115/181/73 113/179/71 120/186/78 119/185/77 
f 113/179/71 111/177/69 121/187/79 120/186/78 
f 111/177/69 109/175/67 122/188/80 121/187/79 
f 109/175/67 107/171/65 123/189/81 122/188/80 
f 107/171/65 105/174/63 124/190/82 123/189/81 
f 105/169/63 103/167/61 125/191/83 124/192/82 
f 103/167/61 101/165/59 126/193/84 125/191/83 
f 101/165/59 99/163/57 127/194/85 126/193/84 
f 99/163/57 97/161/55 128/195/86 127/194/85 
f 97/161/55 93/157/51 118/184/76 128/195/86 
s 1
f 129/196/87 119/185/77 120/186/78 130/197/88 
f 131/198/89 117/183/75 119/185/77 129/196/87 
f 132/199/90 118/184/76 117/183/75 131/198/89 
f 133/200/91 128/195/86 118/184/76 132/199/90 
f 134/201/92 127/194/85 128/195/86 133/200/91 
f 135/202/93 126/193/84 127/194/85 134/201/92 
f 136/203/94 125/191/83 126/193/84 135/202/93 
f 137/204/95 124/192/82 125/191/83 136/203/94 
f 138/205/96 123/189/81 124/190/82 137/206/95 
f 139/207/97 122/188/80 123/189/81 138/205/96 
f 140/208/98 121/187/79 122/188/80 139/207/97 
f 130/197/88 120/186/78 121/187/79 140/208/98 
f 129/196/87 130/197/88 141/209/99 142/210/100 
f 131/198/89 129/196/87 142/210/100 143/211/101 
f 132/199/90 131/198/89 143/211/101 144/212/102 
f 133/200/91 132/199/90 144/212/102 145/213/103 
f 134/201/92 133/200/91 145/213/103 146/214/104 
f 135/202/93 134/201/92 146/214/104 147/215/105 
f 136/203/94 135/202/93 147/215/105 148/216/106 
f 137/204/95 136/203/94 148/216/106 149/217/107 
f 138/205/96 137/206/95 149/218/107 150/219/108 
f 139/207/97 138/205/96 150/219/108 151/220/109 
f 140/208/98 139/207/97 151/220/109 152/221/110 
f 130/197/88 140/208/98 152/221/110 141/209/99 
f 142/210/100 141/209/99 153/222/111 154/223/112 
f 143/211/101 142/210/100 154/223/112 155/224/113 
f 144/212/102 143/211/101 155/224/113 156/225/114 
f 145/213/103 144/212/102 156/225/114 157/226/115 
f 146/214/104 145/213/103 157/226/115 158/227/116 
f 147/215/105 146/214/104 158/227/116 159/228/117 
f 148/216/106 147/215/105 159/228/117 160/229/118 
f 149/217/107 148/216/106 160/229/118 161/230/119 
f 150/219/108 149/218/107 161/231/119 162/232/120 
f 151/220/109 150/219/108 162/232/120 163/233/121 
f 152/221/110 151/220/109 163/233/121 164/234/122 
f 141/209/99 152/221/110 164/234/122 153/222/111 
f 154/223/112 153/222/111 165/235/123 
f 155/224/113 154/223/112 165/236/123 
f 156/225/114 155/224/113 165/237/123 
f 157/226/115 156/225/114 165/238/123 
f 158/227/116 157/226/115 165/239/123 
f 159/228/117 158/227/116 165/240/123 
f 160/229/118 159/228/117 165/241/123 
f 161/230/119 160/229/118 165/242/123 
f 162/232/120 161/231/119 165/243/123 
f 163/233/121 162/232/120 165/244/123 
f 164/234/122 163/233/121 165/245/123 
f 153/222/111 164/234/122 165/246/123 
f 166/247/124 167/248/125 168/249/126 
f 167/248/125 169/250/127 168/249/126 
f 169/250/127 170/251/128 168/249/126 
f 170/251/128 171/252/129 168/249/126 
f 171/252/129 172/253/130 168/249/126 
f 172/253/130 173/254/131 168/249/126 
f 173/254/131 174/255/132 168/249/126 
f 174/255/132 175/256/133 168/249/126 
f 175/256/133 176/257/134 168/249/126 
f 176/257/134 177/258/135 168/249/126 
f 177/258/135 178/259/136 168/249/126 
f 178/259/136 166/247/124 168/249/126 
f 95/260/53 94/261/52 167/248/125 166/247/124 
f 94/261/52 98/262/56 169/250/127 167/248/125 
f 98/262/56 100/263/58 170/251/128 169/250/127 
f 100/263/58 102/264/60 171/252/129 170/251/128 
f 102/264/60 104/265/62 172/253/130 171/252/129 
f 104/265/62 106/266/64 173/254/131 172/253/130 
f 106/266/64 108/267/66 174/255/132 173/254/131 
f 108/267/66 110/268/68 175/256/133 174/255/132 
f 110/268/68 112/269/70 176/257/134 175/256/133 
f 112/269/70 114/270/72 177/258/135 176/257/134 
f 114/270/72 116/271/74 178/259/136 177/258/135 
f 116/271/74 95/260/53 166/247/124 178/259/136 
f 179/157/51 180/158/52 181/159/53 182/160/54 
f 183/161/55 184/162/56 180/158/52 179/157/51 
f 185/163/57 186/164/137 184/162/56 183/161/55 
f 187/165/59 188/166/138 186/164/137 185/163/57 
f 189/167/61 190/168/62 188/166/138 187/165/59 
f 191/169/139 192/170/64 190/168/62 189/167/61 
f 193/171/65 194/172/66 192/173/64 191/174/139 
f 195/175/67 196/176/68 194/172/66 193/171/65 
f 197/177/140 198/178/70 196/176/68 195/175/67 
f 199/179/71 200/180/141 198/178/70 197/177/140 
f 201/181/73 202/182/74 200/180/141 199/179/71 
f 182/160/54 181/159/53 202/182/74 201/181/73 
s 2
f 179/157/51 182/160/54 203/183/75 204/184/76 
f 182/160/54 201/181/73 205/185/77 203/183/75 
f 201/181/73 199/179/71 206/186/78 205/185/77 
f 199/179/71 197/177/140 207/187/142 206/186/78 
f 197/177/140 195/175/67 208/188/80 207/187/142 
f 195/175/67 193/171/65 209/189/81 208/188/80 
f 193/171/65 191/174/139 210/190/82 209/189/81 
f 191/169/139 189/167/61 211/191/83 210/192/82 
f 189/167/61 187/165/59 212/193/84 211/191/83 
f 187/165/59 185/163/57 213/194/85 212/193/84 
f 185/163/57 183/161/55 214/195/86 213/194/85 
f 183/161/55 179/157/51 204/184/76 214/195/86 
s 1
f 215/196/87 205/185/77 206/186/78 216/197/88 
f 217/198/143 203/183/75 205/185/77 215/196/87 
f 218/199/90 204/184/76 203/183/75 217/198/143 
f 219/200/91 214/195/86 204/184/76 218/199/90 
f 220/201/92 213/194/85 214/195/86 219/200/91 
f 221/202/93 212/193/84 213/194/85 220/201/92 
f 222/203/94 211/191/83 212/193/84 221/202/93 
f 223/204/144 210/192/82 211/191/83 222/203/94 
f 224/205/96 209/189/81 210/190/82 223/206/144 
f 225/207/97 208/188/80 209/189/81 224/205/96 
f 226/208/145 207/187/142 208/188/80 225/207/97 
f 216/197/88 206/186/78 207/187/142 226/208/145 
f 215/196/87 216/197/88 227/209/99 228/210/146 
f 217/198/143 215/196/87 228/210/146 229/211/147 
f 218/199/90 217/198/143 229/211/147 230/212/148 
f 219/200/91 218/199/90 230/212/148 231/213/149 
f 220/201/92 219/200/91 231/213/149 232/214/104 
f 221/202/93 220/201/92 232/214/104 233/215/150 
f 222/203/94 221/202/93 233/215/150 234/216/151 
f 223/204/144 222/203/94 234/216/151 235/217/107 
f 224/205/96 223/206/144 235/218/107 236/219/152 
f 225/207/97 224/205/96 236/219/152 237/220/153 
f 226/208/145 225/207/97 237/220/153 238/221/154 
f 216/197/88 226/208/145 238/221/154 227/209/99 
f 228/210/146 227/209/99 239/222/111 240/223/112 
f 229/211/147 228/210/146 240/223/112 241/224/113 
f 230/212/148 229/211/147 241/224/113 242/225/114 
f 231/213/149 230/212/148 242/225/114 243/226/115 
f 232/214/104 231/213/149 243/226/115 244/227/116 
f 233/215/150 232/214/104 244/227/116 245/228/117 
f 234/216/151 233/215/150 245/228/117 246/229/118 
f 235/217/107 234/216/151 246/229/118 247/230/155 
f 236/219/152 235/218/107 247/231/155 248/232/120 
f 237/220/153 236/219/152 248/232/120 249/233/121 
f 238/221/154 237/220/153 249/233/121 250/234/156 
f 227/209/99 238/221/154 250/234/156 239/222/111 
f 240/223/112 239/222/111 251/235/123 
f 241/224/113 240/223/112 251/236/123 
f 242/225/114 241/224/113 251/237/123 
f 243/226/115 242/225/114 251/238/123 
f 244/227/116 243/226/115 251/239/123 
f 245/228/117 244/227/116 251/240/123 
f 246/229/118 245/228/117 251/241/123 
f 247/230/155 246/229/118 251/242/123 
f 248/232/120 247/231/155 251/243/123 
f 249/233/121 248/232/120 251/244/123 
f 250/234/156 249/233/121 251/245/123 
f 239/222/111 250/234/156 251/246/123 
f 252/247/157 253/248/125 254/249/158 
f 253/248/125 255/250/127 254/249/158 
f 255/250/127 256/251/159 254/249/158 
f 256/251/159 257/252/129 254/249/158 
f 257/252/129 258/253/130 254/249/158 
f 258/253/130 259/254/131 254/249/158 
f 259/254/131 260/255/132 254/249/158 
f 260/255/132 261/256/133 254/249/158 
f 261/256/133 262/257/160 254/249/158 
f 262/257/160 263/258/135 254/249/158 
f 263/258/135 264/259/136 254/249/158 
f 264/259/136 252/247/157 254/249/158 
f 181/260/53 180/261/52 253/248/125 252/247/157 
f 180/261/52 184/262/56 255/250/127 253/248/125 
f 184/262/56 186/263/137 256/251/159 255/250/127 
f 186/263/137 188/264/138 257/252/129 256/251/159 
f 188/264/138 190/265/62 258/253/130 257/252/129 
f 190/265/62 192/266/64 259/254/131 258/253/130 
f 192/266/64 194/267/66 260/255/132 259/254/131 
f 194/267/66 196/268/68 261/256/133 260/255/132 
f 196/268/68 198/269/70 262/257/160 261/256/133 
f 198/269/70 200/270/141 263/258/135 262/257/160 
f 200/270/141 202/271/74 264/259/136 263/258/135 
f 202/271/74 181/260/53 252/247/157 264/259/136 
f 265/157/61 266/160/139 267/159/161 268/158/162 
f 269/161/59 265/157/61 268/158/162 270/162/138 
f 271/163/163 269/161/59 270/162/138 272/164/137 
f 273/165/55 271/163/163 272/164/137 274/166/164 
f 275/167/51 273/165/55 274/166/164 276/168/165 
f 277/169/166 275/167/51 276/168/165 278/170/167 
f 279/171/73 277/174/166 278/173/167 280/172/74 
f 281/175/71 279/171/73 280/172/74 282/176/141 
f 283/177/140 281/175/71 282/176/141 284/178/70 
f 285/179/67 283/177/140 284/178/70 286/180/168 
f 287/181/65 285/179/67 286/180/168 288/182/66 
f 266/160/139 287/181/65 288/182/66 267/159/161 
s 2
f 265/157/61 289/184/83 290/183/169 266/160/139 
f 266/160/139 290/183/169 291/185/81 287/181/65 
f 287/181/65 291/185/81 292/186/80 285/179/67 
f 285/179/67 292/186/80 293/187/142 283/177/140 
f 283/177/140 293/187/142 294/188/78 281/175/71 
f 281/175/71 294/188/78 295/189/77 279/171/73 
f 279/171/73 295/189/77 296/190/170 277/174/166 
f 277/169/166 296/192/170 297/191/76 275/167/51 
f 275/167/51 297/191/76 298/193/86 273/165/55 
f 273/165/55 298/193/86 299/194/171 271/163/163 
f 271/163/163 299/194/171 300/195/84 269/161/59 
f 269/161/59 300/195/84 289/184/83 265/157/61 
s 1
f 301/196/96 302/197/97 292/186/80 291/185/81 
f 303/198/95 301/196/96 291/185/81 290/183/169 
f 304/199/94 303/198/95 290/183/169 289/184/83 
f 305/200/93 304/199/94 289/184/83 300/195/84 
f 306/201/172 305/200/93 300/195/84 299/194/171 
f 307/202/91 306/201/172 299/194/171 298/193/86 
f 308/203/90 307/202/91 298/193/86 297/191/76 
f 309/204/89 308/203/90 297/191/76 296/192/170 
f 310/205/87 309/206/89 296/190/170 295/189/77 
f 311/207/88 310/205/87 295/189/77 294/188/78 
f 312/208/145 311/207/88 294/188/78 293/187/142 
f 302/197/97 312/208/145 293/187/142 292/186/80 
f 301/196/96 313/210/173 314/209/153 302/197/97 
f 303/198/95 315/211/107 313/210/173 301/196/96 
f 304/199/94 316/212/106 315/211/107 303/198/95 
f 305/200/93 317/213/105 316/212/106 304/199/94 
f 306/201/172 318/214/174 317/213/105 305/200/93 
f 307/202/91 319/215/103 318/214/174 306/201/172 
f 308/203/90 320/216/102 319/215/103 307/202/91 
f 309/204/89 321/217/101 320/216/102 308/203/90 
f 310/205/87 322/219/175 321/218/101 309/206/89 
f 311/207/88 323/220/176 322/219/175 310/205/87 
f 312/208/145 324/221/154 323/220/176 311/207/88 
f 302/197/97 314/209/153 324/221/154 312/208/145 
f 313/210/173 325/223/120 326/222/121 314/209/153 
f 315/211/107 327/224/155 325/223/120 313/210/173 
f 316/212/106 328/225/118 327/224/155 315/211/107 
f 317/213/105 329/226/117 328/225/118 316/212/106 
f 318/214/174 330/227/177 329/226/117 317/213/105 
f 319/215/103 331/228/115 330/227/177 318/214/174 
f 320/216/102 332/229/114 331/228/115 319/215/103 
f 321/217/101 333/230/178 332/229/114 320/216/102 
f 322/219/175 334/232/112 333/231/178 321/218/101 
f 323/220/176 335/233/111 334/232/112 322/219/175 
f 324/221/154 336/234/156 335/233/111 323/220/176 
f 314/209/153 326/222/121 336/234/156 324/221/154 
f 325/223/120 337/235/179 326/222/121 
f 327/224/155 337/236/179 325/223/120 
f 328/225/118 337/237/179 327/224/155 
f 329/226/117 337/238/179 328/225/118 
f 330/227/177 337/239/179 329/226/117 
f 331/228/115 337/240/179 330/227/177 
f 332/229/114 337/241/179 331/228/115 
f 333/230/178 337/242/179 332/229/114 
f 334/232/112 337/243/179 333/231/178 
f 335/233/111 337/244/179 334/232/112 
f 336/234/156 337/245/179 335/233/111 
f 326/222/121 337/246/179 336/234/156 
f 338/247/180 339/249/181 340/248/130 
f 340/248/130 339/249/181 341/250/129 
f 341/250/129 339/249/181 342/251/159 
f 342/251/159 339/249/181 343/252/127 
f 343/252/127 339/249/181 344/253/125 
f 344/253/125 339/249/181 345/254/157 
f 345/254/157 339/249/181 346/255/136 
f 346/255/136 339/249/181 347/256/135 
f 347/256/135 339/249/181 348/257/160 
f 348/257/160 339/249/181 349/258/133 
f 349/258/133 339/249/181 350/259/132 
f 350/259/132 339/249/181 338/247/180 
f 267/260/161 338/247/180 340/248/130 268/261/162 
f 268/261/162 340/248/130 341/250/129 270/262/138 
f 270/262/138 341/250/129 342/251/159 272/263/137 
f 272/263/137 342/251/159 343/252/127 274/264/164 
f 274/264/164 343/252/127 344/253/125 276/265/165 
f 276/265/165 344/253/125 345/254/157 278/266/167 
f 278/266/167 345/254/157 346/255/136 280/267/74 
f 280/267/74 346/255/136 347/256/135 282/268/141 
f 282/268/141 347/256/135 348/257/160 284/269/70 
f 284/269/70 348/257/160 349/258/133 286/270/168 
f 286/270/168 349/258/133 350/259/132 288/271/66 
f 288/271/66 350/259/132 338/247/180 267/260/161 
f 351/157/61 352/160/139 353/159/161 354/158/162 
f 355/161/59 351/157/61 354/158/162 356/162/138 
f 357/163/163 355/161/59 356/162/138 358/164/58 
f 359/165/55 357/163/163 358/164/58 360/166/56 
f 361/167/51 359/165/55 360/166/56 362/168/165 
f 363/169/54 361/167/51 362/168/165 364/170/167 
f 365/171/73 363/174/54 364/173/167 366/172/74 
f 367/175/71 365/171/73 366/172/74 368/176/141 
f 369/177/69 367/175/71 368/176/141 370/178/70 
f 371/179/67 369/177/69 370/178/70 372/180/68 
f 373/181/65 371/179/67 372/180/68 374/182/66 
f 352/160/139 373/181/65 374/182/66 353/159/161 
s 2
f 351/157/61 375/184/83 376/183/169 352/160/139 
f 352/160/139 376/183/169 377/185/81 373/181/65 
f 373/181/65 377/185/81 378/186/80 371/179/67 
f 371/179/67 378/186/80 379/187/79 369/177/69 
f 369/177/69 379/187/79 380/188/78 367/175/71 
f 367/175/71 380/188/78 381/189/77 365/171/73 
f 365/171/73 381/189/77 382/190/170 363/174/54 
f 363/169/54 382/192/170 383/191/76 361/167/51 
f 361/167/51 383/191/76 384/193/86 359/165/55 
f 359/165/55 384/193/86 385/194/171 357/163/163 
f 357/163/163 385/194/171 386/195/84 355/161/59 
f 355/161/59 386/195/84 375/184/83 351/157/61 
s 1
f 387/196/96 388/197/97 378/186/80 377/185/81 
f 389/198/144 387/196/96 377/185/81 376/183/169 
f 390/199/94 389/198/144 376/183/169 375/184/83 
f 391/200/93 390/199/94 375/184/83 386/195/84 
f 392/201/172 391/200/93 386/195/84 385/194/171 
f 393/202/91 392/201/172 385/194/171 384/193/86 
f 394/203/90 393/202/91 384/193/86 383/191/76 
f 395/204/143 394/203/90 383/191/76 382/192/170 
f 396/205/87 395/206/143 382/190/170 381/189/77 
f 397/207/88 396/205/87 381/189/77 380/188/78 
f 398/208/98 397/207/88 380/188/78 379/187/79 
f 388/197/97 398/208/98 379/187/79 378/186/80 
f 387/196/96 399/210/152 400/209/153 388/197/97 
f 389/198/144 401/211/182 399/210/152 387/196/96 
f 390/199/94 402/212/151 401/211/182 389/198/144 
f 391/200/93 403/213/150 402/212/151 390/199/94 
f 392/201/172 404/214/174 403/213/150 391/200/93 
f 393/202/91 405/215/149 404/214/174 392/201/172 
f 394/203/90 406/216/148 405/215/149 393/202/91 
f 395/204/143 407/217/101 406/216/148 394/203/90 
f 396/205/87 408/219/146 407/218/101 395/206/143 
f 397/207/88 409/220/99 408/219/146 396/205/87 
f 398/208/98 410/221/110 409/220/99 397/207/88 
f 388/197/97 400/209/153 410/221/110 398/208/98 
f 399/210/152 411/223/120 412/222/121 400/209/153 
f 401/211/182 413/224/155 411/223/120 399/210/152 
f 402/212/151 414/225/118 413/224/155 401/211/182 
f 403/213/150 415/226/117 414/225/118 402/212/151 
f 404/214/174 416/227/177 415/226/117 403/213/150 
f 405/215/149 417/228/115 416/227/177 404/214/174 
f 406/216/148 418/229/114 417/228/115 405/215/149 
f 407/217/101 419/230/113 418/229/114 406/216/148 
f 408/219/146 420/232/112 419/231/113 407/218/101 
f 409/220/99 421/233/111 420/232/112 408/219/146 
f 410/221/110 422/234/122 421/233/111 409/220/99 
f 400/209/153 412/222/121 422/234/122 410/221/110 
f 411/223/120 423/235/179 412/222/121 
f 413/224/155 423/236/179 411/223/120 
f 414/225/118 423/237/179 413/224/155 
f 415/226/117 423/238/179 414/225/118 
f 416/227/177 423/239/179 415/226/117 
f 417/228/115 423/240/179 416/227/177 
f 418/229/114 423/241/179 417/228/115 
f 419/230/113 423/242/179 418/229/114 
f 420/232/112 423/243/179 419/231/113 
f 421/233/111 423/244/179 420/232/112 
f 422/234/122 423/245/179 421/233/111 
f 412/222/121 423/246/179 422/234/122 
f 424/247/131 425/249/183 426/248/130 
f 426/248/130 425/249/183 427/250/129 
f 427/250/129 425/249/183 428/251/128 
f 428/251/128 425/249/183 429/252/127 
f 429/252/127 425/249/183 430/253/125 
f 430/253/125 425/249/183 431/254/157 
f 431/254/157 425/249/183 432/255/136 
f 432/255/136 425/249/183 433/256/135 
f 433/256/135 425/249/183 434/257/160 
f 434/257/160 425/249/183 435/258/133 
f 435/258/133 425/249/183 436/259/132 
f 436/259/132 425/249/183 424/247/131 
f 353/260/161 424/247/131 426/248/130 354/261/162 
f 354/261/162 426/248/130 427/250/129 356/262/138 
f 356/262/138 427/250/129 428/251/128 358/263/58 
f 358/263/58 428/251/128 429/252/127 360/264/56 
f 360/264/56 429/252/127 430/253/125 362/265/165 
f 362/265/165 430/253/125 431/254/157 364/266/167 
f 364/266/167 431/254/157 432/255/136 366/267/74 
f 366/267/74 432/255/136 433/256/135 368/268/141 
f 368/268/141 433/256/135 434/257/160 370/269/70 
f 370/269/70 434/257/160 435/258/133 372/270/68 
f 372/270/68 435/258/133 436/259/132 374/271/66 
f 374/271/66 436/259/132 424/247/131 353/260/161 
# 356 polygons - 96 triangles

