# 3ds Max Wavefront OBJ Exporter v0.99 - (c)2007 guruware
# File Created: 31.12.2025 20:56:45

mtllib LiftProp_WeightPlate01.mtl

#
# object LiftProp_WeightPlate01
#

v  0.2396 -0.0264 -0.0000
v  0.2075 -0.0264 -0.1198
v  0.2075 0.0371 -0.1198
v  0.2396 0.0371 -0.0000
v  0.1198 -0.0264 -0.2075
v  0.1198 0.0371 -0.2075
v  -0.0000 -0.0264 -0.2396
v  -0.0000 0.0371 -0.2396
v  -0.1198 -0.0264 -0.2075
v  -0.1198 0.0371 -0.2075
v  -0.2075 -0.0264 -0.1198
v  -0.2075 0.0371 -0.1198
v  -0.2396 -0.0264 -0.0000
v  -0.2396 0.0371 -0.0000
v  -0.2075 -0.0264 0.1198
v  -0.2075 0.0371 0.1198
v  -0.1198 -0.0264 0.2075
v  -0.1198 0.0371 0.2075
v  -0.0000 -0.0264 0.2396
v  -0.0000 0.0371 0.2396
v  0.1198 -0.0264 0.2075
v  0.1198 0.0371 0.2075
v  0.2075 -0.0264 0.1198
v  0.2075 0.0371 0.1198
v  0.1478 -0.0220 0.0000
v  0.1280 -0.0220 -0.0739
v  0.0739 -0.0220 -0.1280
v  -0.0000 -0.0220 -0.1478
v  -0.0739 -0.0220 -0.1280
v  -0.1280 -0.0220 -0.0739
v  -0.1478 -0.0220 -0.0000
v  -0.1280 -0.0220 0.0739
v  -0.0739 -0.0220 0.1280
v  -0.0000 -0.0220 0.1478
v  0.0739 -0.0220 0.1280
v  0.1280 -0.0220 0.0739
v  0.1280 0.0327 -0.0739
v  0.1478 0.0327 0.0000
v  0.0739 0.0327 -0.1280
v  -0.0000 0.0327 -0.1478
v  -0.0739 0.0327 -0.1280
v  -0.1280 0.0327 -0.0739
v  -0.1478 0.0327 -0.0000
v  -0.1280 0.0327 0.0739
v  -0.0739 0.0327 0.1280
v  -0.0000 0.0327 0.1478
v  0.0739 0.0327 0.1280
v  0.1280 0.0327 0.0739
v  0.1478 -0.0069 0.0000
v  0.1280 -0.0069 -0.0739
v  0.0739 -0.0069 -0.1280
v  -0.0000 -0.0069 -0.1478
v  -0.0739 -0.0069 -0.1280
v  -0.1280 -0.0069 -0.0739
v  -0.1478 -0.0069 -0.0000
v  -0.1280 -0.0069 0.0739
v  -0.0739 -0.0069 0.1280
v  -0.0000 -0.0069 0.1478
v  0.0739 -0.0069 0.1280
v  0.1280 -0.0069 0.0739
v  0.1280 0.0176 -0.0739
v  0.1478 0.0176 0.0000
v  0.0739 0.0176 -0.1280
v  -0.0000 0.0176 -0.1478
v  -0.0739 0.0176 -0.1280
v  -0.1280 0.0176 -0.0739
v  -0.1478 0.0176 -0.0000
v  -0.1280 0.0176 0.0739
v  -0.0739 0.0176 0.1280
v  -0.0000 0.0176 0.1478
v  0.0739 0.0176 0.1280
v  0.1280 0.0176 0.0739
v  -0.0000 -0.0021 0.0000
v  -0.0000 0.0128 0.0000
# 74 vertices

vn 0.7161 -0.6980 0.0000
vn 0.6202 -0.6980 -0.3581
vn 0.6202 0.6980 -0.3581
vn 0.7161 0.6980 0.0000
vn 0.3581 -0.6980 -0.6201
vn 0.3581 0.6980 -0.6201
vn -0.0000 -0.6980 -0.7161
vn -0.0000 0.6980 -0.7161
vn -0.3580 -0.6980 -0.6201
vn -0.3580 0.6980 -0.6201
vn -0.6201 -0.6980 -0.3580
vn -0.6201 0.6980 -0.3580
vn -0.7161 -0.6980 -0.0000
vn -0.7161 0.6980 -0.0000
vn -0.6202 -0.6980 0.3581
vn -0.6202 0.6980 0.3581
vn -0.3581 -0.6980 0.6202
vn -0.3581 0.6980 0.6202
vn -0.0000 -0.6980 0.7161
vn -0.0000 0.6980 0.7161
vn 0.3581 -0.6980 0.6202
vn 0.3581 0.6980 0.6202
vn 0.6202 -0.6980 0.3581
vn 0.6202 0.6980 0.3581
vn -0.7005 -0.7136 -0.0000
vn -0.6067 -0.7136 0.3503
vn -0.3503 -0.7136 0.6067
vn 0.0000 -0.7137 0.7005
vn 0.3503 -0.7136 0.6067
vn 0.6067 -0.7136 0.3503
vn 0.7005 -0.7136 0.0000
vn 0.6067 -0.7136 -0.3503
vn 0.3503 -0.7136 -0.6067
vn 0.0000 -0.7136 -0.7006
vn -0.3502 -0.7136 -0.6067
vn -0.6067 -0.7136 -0.3502
vn -0.6067 0.7136 0.3503
vn -0.7005 0.7136 -0.0000
vn -0.3503 0.7136 0.6067
vn 0.0000 0.7137 0.7005
vn 0.3503 0.7136 0.6067
vn 0.6067 0.7136 0.3503
vn 0.7005 0.7136 0.0000
vn 0.6067 0.7136 -0.3503
vn 0.3503 0.7136 -0.6067
vn 0.0000 0.7136 -0.7006
vn -0.3502 0.7136 -0.6067
vn -0.6067 0.7136 -0.3502
vn -0.7835 -0.6214 -0.0000
vn -0.6785 -0.6214 0.3918
vn -0.3918 -0.6214 0.6785
vn 0.0000 -0.6215 0.7835
vn 0.3918 -0.6214 0.6785
vn 0.6785 -0.6214 0.3918
vn 0.7835 -0.6214 0.0000
vn 0.6785 -0.6214 -0.3918
vn 0.3918 -0.6214 -0.6785
vn 0.0000 -0.6214 -0.7835
vn -0.3917 -0.6214 -0.6785
vn -0.6785 -0.6214 -0.3917
vn -0.6785 0.6214 0.3918
vn -0.7835 0.6214 -0.0000
vn -0.3918 0.6214 0.6785
vn 0.0000 0.6215 0.7835
vn 0.3918 0.6214 0.6785
vn 0.6785 0.6214 0.3918
vn 0.7835 0.6214 0.0000
vn 0.6785 0.6214 -0.3918
vn 0.3918 0.6214 -0.6785
vn 0.0000 0.6214 -0.7835
vn -0.3917 0.6214 -0.6785
vn -0.6785 0.6214 -0.3917
vn 0.0000 -1.0000 0.0000
vn 0.0000 1.0000 0.0000
# 74 vertex normals

vt 0.7500 0.0000 1.0000
vt 0.8333 0.0000 1.0000
vt 0.8333 1.0000 1.0000
vt 0.7500 1.0000 1.0000
vt 0.9167 0.0000 1.0000
vt 0.9167 1.0000 1.0000
vt -0.0833 0.0000 1.0000
vt 0.0000 0.0000 1.0000
vt 0.0000 1.0000 1.0000
vt -0.0833 1.0000 1.0000
vt 0.0833 0.0000 1.0000
vt 0.0833 1.0000 1.0000
vt 0.1667 0.0000 1.0000
vt 0.1667 1.0000 1.0000
vt 0.2500 0.0000 1.0000
vt 0.2500 1.0000 1.0000
vt 0.3333 0.0000 1.0000
vt 0.3333 1.0000 1.0000
vt 0.4167 0.0000 1.0000
vt 0.4167 1.0000 1.0000
vt 0.5000 0.0000 1.0000
vt 0.5000 1.0000 1.0000
vt 0.5833 0.0000 1.0000
vt 0.5833 1.0000 1.0000
vt 0.6667 0.0000 1.0000
vt 0.6667 1.0000 1.0000
# 26 texture coords

o LiftProp_WeightPlate01
g LiftProp_WeightPlate01
usemtl wire_070034159
s 1
f 1/1/1 2/2/2 3/3/3 4/4/4 
f 2/2/2 5/5/5 6/6/6 3/3/3 
f 5/7/5 7/8/7 8/9/8 6/10/6 
f 7/8/7 9/11/9 10/12/10 8/9/8 
f 9/11/9 11/13/11 12/14/12 10/12/10 
f 11/13/11 13/15/13 14/16/14 12/14/12 
f 13/15/13 15/17/15 16/18/16 14/16/14 
f 15/17/15 17/19/17 18/20/18 16/18/16 
f 17/19/17 19/21/19 20/22/20 18/20/18 
f 19/21/19 21/23/21 22/24/22 20/22/20 
f 21/23/21 23/25/23 24/26/24 22/24/22 
f 23/25/23 1/1/1 4/4/4 24/26/24 
s 2
f 2/2/2 1/1/1 25/1/25 26/2/26 
f 5/5/5 2/2/2 26/2/26 27/5/27 
f 7/8/7 5/7/5 27/7/27 28/8/28 
f 9/11/9 7/8/7 28/8/28 29/11/29 
f 11/13/11 9/11/9 29/11/29 30/13/30 
f 13/15/13 11/13/11 30/13/30 31/15/31 
f 15/17/15 13/15/13 31/15/31 32/17/32 
f 17/19/17 15/17/15 32/17/32 33/19/33 
f 19/21/19 17/19/17 33/19/33 34/21/34 
f 21/23/21 19/21/19 34/21/34 35/23/35 
f 23/25/23 21/23/21 35/23/35 36/25/36 
f 1/1/1 23/25/23 36/25/36 25/1/25 
f 4/4/4 3/3/3 37/3/37 38/4/38 
f 3/3/3 6/6/6 39/6/39 37/3/37 
f 6/10/6 8/9/8 40/9/40 39/10/39 
f 8/9/8 10/12/10 41/12/41 40/9/40 
f 10/12/10 12/14/12 42/14/42 41/12/41 
f 12/14/12 14/16/14 43/16/43 42/14/42 
f 14/16/14 16/18/16 44/18/44 43/16/43 
f 16/18/16 18/20/18 45/20/45 44/18/44 
f 18/20/18 20/22/20 46/22/46 45/20/45 
f 20/22/20 22/24/22 47/24/47 46/22/46 
f 22/24/22 24/26/24 48/26/48 47/24/47 
f 24/26/24 4/4/4 38/4/38 48/26/48 
s 1
f 26/2/26 25/1/25 49/1/49 50/2/50 
f 27/5/27 26/2/26 50/2/50 51/5/51 
f 28/8/28 27/7/27 51/7/51 52/8/52 
f 29/11/29 28/8/28 52/8/52 53/11/53 
f 30/13/30 29/11/29 53/11/53 54/13/54 
f 31/15/31 30/13/30 54/13/54 55/15/55 
f 32/17/32 31/15/31 55/15/55 56/17/56 
f 33/19/33 32/17/32 56/17/56 57/19/57 
f 34/21/34 33/19/33 57/19/57 58/21/58 
f 35/23/35 34/21/34 58/21/58 59/23/59 
f 36/25/36 35/23/35 59/23/59 60/25/60 
f 25/1/25 36/25/36 60/25/60 49/1/49 
f 38/4/38 37/3/37 61/3/61 62/4/62 
f 37/3/37 39/6/39 63/6/63 61/3/61 
f 39/10/39 40/9/40 64/9/64 63/10/63 
f 40/9/40 41/12/41 65/12/65 64/9/64 
f 41/12/41 42/14/42 66/14/66 65/12/65 
f 42/14/42 43/16/43 67/16/67 66/14/66 
f 43/16/43 44/18/44 68/18/68 67/16/67 
f 44/18/44 45/20/45 69/20/69 68/18/68 
f 45/20/45 46/22/46 70/22/70 69/20/69 
f 46/22/46 47/24/47 71/24/71 70/22/70 
f 47/24/47 48/26/48 72/26/72 71/24/71 
f 48/26/48 38/4/38 62/4/62 72/26/72 
s 2
f 50/2/50 49/1/49 73/19/73 
f 51/5/51 50/2/50 73/19/73 
f 52/8/52 51/7/51 73/19/73 
f 53/11/53 52/8/52 73/19/73 
f 54/13/54 53/11/53 73/19/73 
f 55/15/55 54/13/54 73/19/73 
f 56/17/56 55/15/55 73/19/73 
f 57/19/57 56/17/56 73/19/73 
f 58/21/58 57/19/57 73/19/73 
f 59/23/59 58/21/58 73/19/73 
f 60/25/60 59/23/59 73/19/73 
f 49/1/49 60/25/60 73/19/73 
f 62/4/62 61/3/61 74/20/74 
f 61/3/61 63/6/63 74/20/74 
f 63/10/63 64/9/64 74/20/74 
f 64/9/64 65/12/65 74/20/74 
f 65/12/65 66/14/66 74/20/74 
f 66/14/66 67/16/67 74/20/74 
f 67/16/67 68/18/68 74/20/74 
f 68/18/68 69/20/69 74/20/74 
f 69/20/69 70/22/70 74/20/74 
f 70/22/70 71/24/71 74/20/74 
f 71/24/71 72/26/72 74/20/74 
f 72/26/72 62/4/62 74/20/74 
# 60 polygons - 24 triangles

