# 3ds Max Wavefront OBJ Exporter v0.99 - (c)2007 guruware
# File Created: 31.12.2025 20:55:52

mtllib LiftProp_VentCover.mtl

#
# object LiftProp_VentCover
#

v  -0.4339 0.0000 -0.0297
v  0.4339 0.0000 -0.0297
v  0.4339 0.0000 0.0297
v  -0.4339 0.0000 0.0297
v  -0.4339 0.5438 -0.0297
v  -0.4339 0.5438 0.0297
v  0.4339 0.5438 0.0297
v  0.4339 0.5438 -0.0297
# 8 vertices

vn -0.5774 -0.5774 -0.5774
vn 0.5774 -0.5774 -0.5774
vn 0.5774 -0.5774 0.5774
vn -0.5774 -0.5774 0.5774
vn -0.5774 0.5774 -0.5774
vn -0.5774 0.5774 0.5774
vn 0.5774 0.5774 0.5774
vn 0.5774 0.5774 -0.5774
# 8 vertex normals

vt 1.0000 0.0013 0.0000
vt 1.0000 1.0013 0.0000
vt 0.0000 1.0013 0.0000
vt 0.0000 0.0013 0.0000
vt 0.0000 0.0000 0.0000
vt 1.0000 0.0000 0.0000
vt 1.0000 1.0000 0.0000
vt 0.0000 1.0000 0.0000
# 8 texture coords

o LiftProp_VentCover
g LiftProp_VentCover
usemtl wire_191148096
s 2
f 1/1/1 2/2/2 3/3/3 4/4/4 
s 4
f 5/5/5 6/6/6 7/7/7 8/8/8 
s 8
f 1/5/1 4/6/4 6/7/6 5/8/5 
s 16
f 4/5/4 3/6/3 7/7/7 6/8/6 
s 32
f 3/5/3 2/6/2 8/7/8 7/8/7 
s 64
f 2/5/2 1/6/1 5/7/5 8/8/8 
# 6 polygons

