# 3ds Max Wavefront OBJ Exporter v0.99 - (c)2007 guruware
# File Created: 31.12.2025 20:58:06

mtllib SwitProp_Poster01.mtl

#
# object SwitProp_Poster01
#

v  -0.0049 0.6181 -0.4901
v  0.0046 -0.5969 -0.4871
v  -0.0111 -0.5970 -0.4876
v  -0.0192 0.6181 -0.4901
v  -0.0049 0.6181 0.3431
v  -0.0192 0.6181 0.3431
v  -0.0192 -0.5976 0.3431
v  -0.0049 -0.5976 0.3431
v  -0.0192 0.6181 -0.4363
v  -0.0049 0.6181 -0.4363
v  -0.0192 -0.5976 -0.4363
v  0.0110 -0.7091 -0.4806
v  0.0276 -0.7089 -0.4799
v  0.0027 -0.7108 -0.4339
v  -0.0126 -0.7109 -0.4343
v  0.0184 -0.6673 -0.4828
v  -0.0030 -0.6689 -0.4357
v  0.0021 -0.6674 -0.4834
v  -0.0192 -0.6691 0.3431
v  -0.0049 -0.6691 0.3431
v  -0.0178 -0.6690 -0.4359
v  -0.0049 -0.5976 -0.4363
v  -0.0192 -0.7114 0.3431
v  -0.0049 -0.7114 0.3431
v  -0.0192 0.6181 -0.3717
v  -0.0049 0.6181 -0.3717
v  -0.0192 -0.5976 -0.3717
v  -0.0049 -0.7114 -0.3717
v  -0.0192 -0.7114 -0.3717
v  -0.0049 -0.6691 -0.3717
v  -0.0192 -0.6691 -0.3717
v  -0.0049 -0.5976 -0.3717
# 32 vertices

vn 0.5748 0.5788 -0.5785
vn 0.7500 0.0525 -0.6594
vn -0.6501 -0.0838 -0.7552
vn -0.5793 0.5751 -0.5777
vn 0.5774 0.5774 0.5774
vn -0.5774 0.5774 0.5774
vn -0.7071 -0.0000 0.7071
vn 0.7071 -0.0000 0.7071
vn -0.7071 0.7071 -0.0000
vn 0.7071 0.7071 0.0000
vn -0.9969 -0.0098 -0.0782
vn -0.3368 -0.6516 -0.6797
vn 0.7933 -0.4811 -0.3732
vn 0.6801 -0.7067 0.1950
vn -0.6639 -0.7178 -0.2097
vn 0.8340 0.1384 -0.5341
vn 0.9700 0.0851 0.2278
vn -0.5241 -0.1573 -0.8370
vn -0.7071 0.0000 0.7071
vn 0.7071 0.0000 0.7071
vn -0.9750 -0.0747 -0.2094
vn 0.9956 0.0144 0.0927
vn -0.5774 -0.5774 0.5774
vn 0.5774 -0.5774 0.5774
vn -0.7071 0.7071 0.0000
vn -1.0000 0.0000 -0.0000
vn 0.6904 -0.7224 0.0388
vn -0.7166 -0.6963 -0.0403
vn 0.9999 0.0000 0.0156
vn -0.9999 0.0000 -0.0106
vn 1.0000 -0.0000 0.0000
# 31 vertex normals

vt 1.0000 0.0013 0.0000
vt 1.0000 0.9157 0.0000
vt 0.0000 0.9157 0.0000
vt 0.0000 0.0013 0.0000
vt 0.0000 0.0000 0.0000
vt 1.0000 0.0000 0.0000
vt 1.0000 0.9144 0.0000
vt 0.0000 0.9144 0.0000
vt 1.0000 0.0645 0.0000
vt 0.0000 0.0645 0.0000
vt 0.9144 0.0000 0.0000
vt 0.9144 0.0645 0.0000
vt 0.0319 0.0000 0.0000
vt 0.0319 0.0645 0.0000
vt 1.0000 0.9694 0.0000
vt 0.0000 0.9694 0.0000
vt 1.0000 0.9681 0.0000
vt 0.0000 0.9681 0.0000
vt 0.9681 0.0000 0.0000
vt 0.9681 0.0645 0.0000
vt 0.0856 0.0000 0.0000
vt 0.0856 0.0645 0.0000
vt 1.0000 1.0013 0.0000
vt 0.0000 1.0013 0.0000
vt 1.0000 1.0000 0.0000
vt 0.0000 1.0000 0.0000
vt 1.0000 0.1421 0.0000
vt 0.0000 0.1421 0.0000
vt 0.9144 0.1421 0.0000
vt 0.0319 0.1421 0.0000
vt 0.9681 0.1421 0.0000
vt 0.0856 0.1421 0.0000
vt 0.9144 1.0000 0.0000
vt 0.0319 1.0000 0.0000
vt 0.9681 1.0000 0.0000
vt 0.0856 1.0000 0.0000
# 36 texture coords

o SwitProp_Poster01
g SwitProp_Poster01
usemtl wire_191148096
s 2
f 1/1/1 2/2/2 3/3/3 4/4/4 
s 4
f 5/5/5 6/6/6 7/7/7 8/8/8 
s 8
f 1/5/1 4/6/4 9/9/9 10/10/10 
s 16
f 4/5/4 3/11/3 11/12/11 9/10/9 
s 32
f 12/5/12 13/6/13 14/9/14 15/10/15 
s 64
f 13/5/13 16/13/16 17/14/17 14/10/14 
s 2
f 2/2/2 16/15/16 18/16/18 3/3/3 
s 4
f 7/7/7 19/17/19 20/18/20 8/8/8 
s 16
f 3/11/3 18/19/18 21/20/21 11/12/11 
s 64
f 2/21/2 1/6/1 10/9/10 22/22/22 
f 16/13/16 2/21/2 22/22/22 17/14/17 
s 2
f 16/15/16 13/23/13 12/24/12 18/16/18 
s 4
f 19/17/19 23/25/23 24/26/24 20/18/20 
s 16
f 18/19/18 12/6/12 15/9/15 21/20/21 
s 8
f 9/9/9 25/27/25 26/28/10 10/10/10 
s 16
f 11/12/11 27/29/26 25/28/25 9/10/9 
s 32
f 14/9/14 28/27/27 29/28/28 15/10/15 
s 64
f 17/14/17 30/30/29 28/28/27 14/10/14 
s 16
f 21/20/21 31/31/30 27/29/26 11/12/11 
s 64
f 10/9/10 26/27/10 32/32/31 22/22/22 
f 22/22/22 32/32/31 30/30/29 17/14/17 
s 16
f 15/9/15 29/27/28 31/31/30 21/20/21 
s 8
f 25/27/25 6/25/6 5/26/5 26/28/10 
s 16
f 27/29/26 7/33/7 6/26/6 25/28/25 
s 32
f 28/27/27 24/25/24 23/26/23 29/28/28 
s 64
f 30/30/29 20/34/20 24/26/24 28/28/27 
s 16
f 31/31/30 19/35/19 7/33/7 27/29/26 
s 64
f 26/27/10 5/25/5 8/36/8 32/32/31 
f 32/32/31 8/36/8 20/34/20 30/30/29 
s 16
f 29/27/28 23/25/23 19/35/19 31/31/30 
# 30 polygons

